%TF.GenerationSoftware,KiCad,Pcbnew,4.0.4+e1-6308~48~ubuntu16.04.1-stable*%
%TF.CreationDate,2016-12-09T15:38:50-08:00*%
%TF.ProjectId,e202var-vlf-radio-receiver,653230327661722D766C662D72616469,v1.2*%
%TF.FileFunction,Copper,L2,Bot,Signal*%
%FSLAX46Y46*%
G04 Gerber Fmt 4.6, Leading zero omitted, Abs format (unit mm)*
G04 Created by KiCad (PCBNEW 4.0.4+e1-6308~48~ubuntu16.04.1-stable) date Fri Dec  9 15:38:50 2016*
%MOMM*%
%LPD*%
G01*
G04 APERTURE LIST*
%ADD10C,0.350000*%
%ADD11O,7.000240X3.500120*%
%ADD12O,2.499360X1.600200*%
%ADD13R,1.400000X1.400000*%
%ADD14C,1.400000*%
%ADD15R,1.300000X1.300000*%
%ADD16C,1.300000*%
%ADD17C,1.998980*%
%ADD18R,1.998980X1.998980*%
%ADD19R,1.900000X2.000000*%
%ADD20C,1.900000*%
%ADD21C,4.000000*%
%ADD22R,2.032000X2.032000*%
%ADD23O,2.032000X2.032000*%
%ADD24O,0.899160X1.501140*%
%ADD25C,2.032000*%
%ADD26C,2.740000*%
%ADD27C,2.240000*%
%ADD28O,1.699260X3.500120*%
%ADD29O,2.300000X1.600000*%
%ADD30C,0.350000*%
G04 APERTURE END LIST*
D10*
D11*
X105410000Y-105410000D03*
X105410000Y-115608100D03*
D12*
X101145340Y-110507780D03*
X101145340Y-108008420D03*
D11*
X106680000Y-41871900D03*
X106680000Y-52070000D03*
D12*
X102415340Y-46969680D03*
X102415340Y-44470320D03*
D11*
X105410000Y-88882220D03*
X105410000Y-99080320D03*
D12*
X101145340Y-93980000D03*
X101145340Y-91480640D03*
D13*
X65278000Y-91694000D03*
D14*
X60278000Y-91694000D03*
D13*
X72724000Y-51308000D03*
D14*
X77724000Y-51308000D03*
D13*
X62738000Y-67056000D03*
D14*
X62738000Y-62056000D03*
D15*
X74168000Y-83312000D03*
D16*
X76668000Y-83312000D03*
D15*
X86614000Y-89408000D03*
D16*
X84114000Y-89408000D03*
D15*
X103632000Y-77470000D03*
D16*
X103632000Y-74970000D03*
D13*
X99314000Y-81788000D03*
D14*
X104314000Y-81788000D03*
D15*
X61722000Y-73152000D03*
D16*
X64222000Y-73152000D03*
D13*
X98044000Y-60198000D03*
D14*
X103044000Y-60198000D03*
D15*
X89916000Y-64516000D03*
D16*
X92416000Y-64516000D03*
D13*
X72644000Y-103124000D03*
D14*
X77644000Y-103124000D03*
D15*
X80518000Y-98298000D03*
D16*
X83018000Y-98298000D03*
D13*
X65278000Y-85344000D03*
D14*
X60278000Y-85344000D03*
D15*
X82550000Y-65278000D03*
D16*
X85050000Y-65278000D03*
D13*
X64770000Y-102870000D03*
D14*
X64770000Y-97870000D03*
D17*
X82550000Y-105664000D03*
D18*
X82550000Y-115824000D03*
D17*
X95504000Y-88900000D03*
D18*
X95504000Y-99060000D03*
D19*
X67310000Y-114808000D03*
D20*
X69850000Y-114808000D03*
D21*
X60863480Y-110998000D03*
X54864000Y-110998000D03*
X57863740Y-115697000D03*
D22*
X75184000Y-114554000D03*
D23*
X77724000Y-114554000D03*
D21*
X90551000Y-109522260D03*
X90551000Y-115521740D03*
X95250000Y-112522000D03*
D22*
X57150000Y-101092000D03*
D23*
X57150000Y-98552000D03*
D22*
X93726000Y-51054000D03*
D23*
X91186000Y-51054000D03*
D24*
X75438000Y-96012000D03*
X76708000Y-96012000D03*
X74168000Y-96012000D03*
X64770000Y-56388000D03*
X66040000Y-56388000D03*
X63500000Y-56388000D03*
D17*
X78994000Y-56388000D03*
X71374000Y-56388000D03*
X70866000Y-40386000D03*
X78486000Y-40386000D03*
X83058000Y-69342000D03*
X90678000Y-69342000D03*
X69342000Y-85090000D03*
X69342000Y-92710000D03*
X80010000Y-45212000D03*
X72390000Y-45212000D03*
X84074000Y-50546000D03*
X84074000Y-42926000D03*
X84328000Y-59944000D03*
X91948000Y-59944000D03*
X95250000Y-82804000D03*
X95250000Y-75184000D03*
X91694000Y-55372000D03*
X84074000Y-55372000D03*
D25*
X111760000Y-72390000D03*
X111760000Y-77470000D03*
X111760000Y-82550000D03*
D17*
X90170000Y-98552000D03*
X90170000Y-90932000D03*
X73152000Y-108712000D03*
X65532000Y-108712000D03*
X69850000Y-103886000D03*
X69850000Y-96266000D03*
X67564000Y-78486000D03*
X59944000Y-78486000D03*
D26*
X91948000Y-45720000D03*
X97028000Y-45720000D03*
X97028000Y-40640000D03*
X91948000Y-40640000D03*
D27*
X94488000Y-43180000D03*
D28*
X90678000Y-104902000D03*
X88138000Y-104902000D03*
X93218000Y-104902000D03*
D24*
X75692000Y-91186000D03*
X76962000Y-91186000D03*
X74422000Y-91186000D03*
D29*
X69342000Y-62992000D03*
X69342000Y-65532000D03*
X69342000Y-68072000D03*
X69342000Y-70612000D03*
X76962000Y-70612000D03*
X76962000Y-68072000D03*
X76962000Y-65532000D03*
X76962000Y-62992000D03*
X81280000Y-76708000D03*
X81280000Y-79248000D03*
X81280000Y-81788000D03*
X81280000Y-84328000D03*
X88900000Y-84328000D03*
X88900000Y-81788000D03*
X88900000Y-79248000D03*
X88900000Y-76708000D03*
D30*
X105410000Y-105410000D03*
X105410000Y-115608100D03*
X101145340Y-110507780D03*
X101145340Y-108008420D03*
X106680000Y-41871900D03*
X106680000Y-52070000D03*
X102415340Y-46969680D03*
X102415340Y-44470320D03*
X105410000Y-88882220D03*
X105410000Y-99080320D03*
X101145340Y-93980000D03*
X101145340Y-91480640D03*
X65278000Y-91694000D03*
X60278000Y-91694000D03*
X72724000Y-51308000D03*
X77724000Y-51308000D03*
X62738000Y-67056000D03*
X62738000Y-62056000D03*
X74168000Y-83312000D03*
X76668000Y-83312000D03*
X86614000Y-89408000D03*
X84114000Y-89408000D03*
X103632000Y-77470000D03*
X103632000Y-74970000D03*
X99314000Y-81788000D03*
X104314000Y-81788000D03*
X61722000Y-73152000D03*
X64222000Y-73152000D03*
X98044000Y-60198000D03*
X103044000Y-60198000D03*
X89916000Y-64516000D03*
X92416000Y-64516000D03*
X72644000Y-103124000D03*
X77644000Y-103124000D03*
X80518000Y-98298000D03*
X83018000Y-98298000D03*
X65278000Y-85344000D03*
X60278000Y-85344000D03*
X82550000Y-65278000D03*
X85050000Y-65278000D03*
X64770000Y-102870000D03*
X64770000Y-97870000D03*
X82550000Y-105664000D03*
X82550000Y-115824000D03*
X95504000Y-88900000D03*
X95504000Y-99060000D03*
X67310000Y-114808000D03*
X69850000Y-114808000D03*
X60863480Y-110998000D03*
X54864000Y-110998000D03*
X57863740Y-115697000D03*
X75184000Y-114554000D03*
X77724000Y-114554000D03*
X90551000Y-109522260D03*
X90551000Y-115521740D03*
X95250000Y-112522000D03*
X57150000Y-101092000D03*
X57150000Y-98552000D03*
X93726000Y-51054000D03*
X91186000Y-51054000D03*
X75438000Y-96012000D03*
X76708000Y-96012000D03*
X74168000Y-96012000D03*
X64770000Y-56388000D03*
X66040000Y-56388000D03*
X63500000Y-56388000D03*
X78994000Y-56388000D03*
X71374000Y-56388000D03*
X70866000Y-40386000D03*
X78486000Y-40386000D03*
X83058000Y-69342000D03*
X90678000Y-69342000D03*
X69342000Y-85090000D03*
X69342000Y-92710000D03*
X80010000Y-45212000D03*
X72390000Y-45212000D03*
X84074000Y-50546000D03*
X84074000Y-42926000D03*
X84328000Y-59944000D03*
X91948000Y-59944000D03*
X95250000Y-82804000D03*
X95250000Y-75184000D03*
X91694000Y-55372000D03*
X84074000Y-55372000D03*
X111760000Y-72390000D03*
X111760000Y-77470000D03*
X111760000Y-82550000D03*
X90170000Y-98552000D03*
X90170000Y-90932000D03*
X73152000Y-108712000D03*
X65532000Y-108712000D03*
X69850000Y-103886000D03*
X69850000Y-96266000D03*
X67564000Y-78486000D03*
X59944000Y-78486000D03*
X91948000Y-45720000D03*
X97028000Y-45720000D03*
X97028000Y-40640000D03*
X91948000Y-40640000D03*
X94488000Y-43180000D03*
X90678000Y-104902000D03*
X88138000Y-104902000D03*
X93218000Y-104902000D03*
X75692000Y-91186000D03*
X76962000Y-91186000D03*
X74422000Y-91186000D03*
X69342000Y-62992000D03*
X69342000Y-65532000D03*
X69342000Y-68072000D03*
X69342000Y-70612000D03*
X76962000Y-70612000D03*
X76962000Y-68072000D03*
X76962000Y-65532000D03*
X76962000Y-62992000D03*
X81280000Y-76708000D03*
X81280000Y-79248000D03*
X81280000Y-81788000D03*
X81280000Y-84328000D03*
X88900000Y-84328000D03*
X88900000Y-81788000D03*
X88900000Y-79248000D03*
X88900000Y-76708000D03*
M02*
