%TF.GenerationSoftware,KiCad,Pcbnew,4.0.4+e1-6308~48~ubuntu16.04.1-stable*%
%TF.CreationDate,2016-12-09T15:38:50-08:00*%
%TF.ProjectId,e202var-vlf-radio-receiver,653230327661722D766C662D72616469,v1.2*%
%TF.FileFunction,Legend,Top*%
%FSLAX46Y46*%
G04 Gerber Fmt 4.6, Leading zero omitted, Abs format (unit mm)*
G04 Created by KiCad (PCBNEW 4.0.4+e1-6308~48~ubuntu16.04.1-stable) date Fri Dec  9 15:38:50 2016*
%MOMM*%
%LPD*%
G01*
G04 APERTURE LIST*
%ADD10C,0.350000*%
%ADD11C,0.150000*%
G04 APERTURE END LIST*
D10*
D11*
X117947440Y-105008680D02*
X118747540Y-116006880D01*
X117147340Y-105008680D02*
X117947440Y-116006880D01*
X116347240Y-105008680D02*
X117147340Y-116006880D01*
X115547140Y-105008680D02*
X116347240Y-116006880D01*
X114747040Y-105008680D02*
X115547140Y-116006880D01*
X113946940Y-105008680D02*
X114747040Y-116006880D01*
X129847340Y-110507780D02*
G75*
G03X129847340Y-110507780I-1000760J0D01*
G01*
X120845580Y-115308380D02*
X132847080Y-115308380D01*
X132847080Y-115308380D02*
X132847080Y-105707180D01*
X132847080Y-105707180D02*
X120845580Y-105707180D01*
X113347500Y-116006880D02*
X120845580Y-116006880D01*
X120845580Y-116006880D02*
X120845580Y-105008680D01*
X120845580Y-105008680D02*
X113347500Y-105008680D01*
X98945700Y-102707440D02*
X98945700Y-118308120D01*
X98945700Y-118308120D02*
X113347500Y-118308120D01*
X113347500Y-118308120D02*
X113347500Y-102707440D01*
X113347500Y-102707440D02*
X98945700Y-102707440D01*
X119217440Y-41470580D02*
X120017540Y-52468780D01*
X118417340Y-41470580D02*
X119217440Y-52468780D01*
X117617240Y-41470580D02*
X118417340Y-52468780D01*
X116817140Y-41470580D02*
X117617240Y-52468780D01*
X116017040Y-41470580D02*
X116817140Y-52468780D01*
X115216940Y-41470580D02*
X116017040Y-52468780D01*
X131117340Y-46969680D02*
G75*
G03X131117340Y-46969680I-1000760J0D01*
G01*
X122115580Y-51770280D02*
X134117080Y-51770280D01*
X134117080Y-51770280D02*
X134117080Y-42169080D01*
X134117080Y-42169080D02*
X122115580Y-42169080D01*
X114617500Y-52468780D02*
X122115580Y-52468780D01*
X122115580Y-52468780D02*
X122115580Y-41470580D01*
X122115580Y-41470580D02*
X114617500Y-41470580D01*
X100215700Y-39169340D02*
X100215700Y-54770020D01*
X100215700Y-54770020D02*
X114617500Y-54770020D01*
X114617500Y-54770020D02*
X114617500Y-39169340D01*
X114617500Y-39169340D02*
X100215700Y-39169340D01*
X117947440Y-88480900D02*
X118747540Y-99479100D01*
X117147340Y-88480900D02*
X117947440Y-99479100D01*
X116347240Y-88480900D02*
X117147340Y-99479100D01*
X115547140Y-88480900D02*
X116347240Y-99479100D01*
X114747040Y-88480900D02*
X115547140Y-99479100D01*
X113946940Y-88480900D02*
X114747040Y-99479100D01*
X129847340Y-93980000D02*
G75*
G03X129847340Y-93980000I-1000760J0D01*
G01*
X120845580Y-98780600D02*
X132847080Y-98780600D01*
X132847080Y-98780600D02*
X132847080Y-89179400D01*
X132847080Y-89179400D02*
X120845580Y-89179400D01*
X113347500Y-99479100D02*
X120845580Y-99479100D01*
X120845580Y-99479100D02*
X120845580Y-88480900D01*
X120845580Y-88480900D02*
X113347500Y-88480900D01*
X98945700Y-86179660D02*
X98945700Y-101780340D01*
X98945700Y-101780340D02*
X113347500Y-101780340D01*
X113347500Y-101780340D02*
X113347500Y-86179660D01*
X113347500Y-86179660D02*
X98945700Y-86179660D01*
X66528000Y-93944000D02*
X59028000Y-93944000D01*
X59028000Y-93944000D02*
X59028000Y-89444000D01*
X59028000Y-89444000D02*
X66528000Y-89444000D01*
X66528000Y-89444000D02*
X66528000Y-93944000D01*
X71474000Y-49058000D02*
X78974000Y-49058000D01*
X78974000Y-49058000D02*
X78974000Y-53558000D01*
X78974000Y-53558000D02*
X71474000Y-53558000D01*
X71474000Y-53558000D02*
X71474000Y-49058000D01*
X60488000Y-68306000D02*
X60488000Y-60806000D01*
X60488000Y-60806000D02*
X64988000Y-60806000D01*
X64988000Y-60806000D02*
X64988000Y-68306000D01*
X64988000Y-68306000D02*
X60488000Y-68306000D01*
X73918000Y-82062000D02*
X76918000Y-82062000D01*
X76918000Y-84562000D02*
X73918000Y-84562000D01*
X86864000Y-90658000D02*
X83864000Y-90658000D01*
X83864000Y-88158000D02*
X86864000Y-88158000D01*
X102382000Y-77720000D02*
X102382000Y-74720000D01*
X104882000Y-74720000D02*
X104882000Y-77720000D01*
X98064000Y-79538000D02*
X105564000Y-79538000D01*
X105564000Y-79538000D02*
X105564000Y-84038000D01*
X105564000Y-84038000D02*
X98064000Y-84038000D01*
X98064000Y-84038000D02*
X98064000Y-79538000D01*
X61472000Y-71902000D02*
X64472000Y-71902000D01*
X64472000Y-74402000D02*
X61472000Y-74402000D01*
X96794000Y-57948000D02*
X104294000Y-57948000D01*
X104294000Y-57948000D02*
X104294000Y-62448000D01*
X104294000Y-62448000D02*
X96794000Y-62448000D01*
X96794000Y-62448000D02*
X96794000Y-57948000D01*
X89666000Y-63266000D02*
X92666000Y-63266000D01*
X92666000Y-65766000D02*
X89666000Y-65766000D01*
X71394000Y-100874000D02*
X78894000Y-100874000D01*
X78894000Y-100874000D02*
X78894000Y-105374000D01*
X78894000Y-105374000D02*
X71394000Y-105374000D01*
X71394000Y-105374000D02*
X71394000Y-100874000D01*
X80268000Y-97048000D02*
X83268000Y-97048000D01*
X83268000Y-99548000D02*
X80268000Y-99548000D01*
X66528000Y-87594000D02*
X59028000Y-87594000D01*
X59028000Y-87594000D02*
X59028000Y-83094000D01*
X59028000Y-83094000D02*
X66528000Y-83094000D01*
X66528000Y-83094000D02*
X66528000Y-87594000D01*
X82300000Y-64028000D02*
X85300000Y-64028000D01*
X85300000Y-66528000D02*
X82300000Y-66528000D01*
X62520000Y-104120000D02*
X62520000Y-96620000D01*
X62520000Y-96620000D02*
X67020000Y-96620000D01*
X67020000Y-96620000D02*
X67020000Y-104120000D01*
X67020000Y-104120000D02*
X62520000Y-104120000D01*
X82550000Y-108204000D02*
X82550000Y-107188000D01*
X82550000Y-113030000D02*
X82550000Y-114300000D01*
X81280000Y-112776000D02*
X83820000Y-112776000D01*
X81280000Y-112522000D02*
X83820000Y-112522000D01*
X81280000Y-112268000D02*
X83820000Y-112268000D01*
X81280000Y-113030000D02*
X83820000Y-113030000D01*
X81280000Y-112014000D02*
X83820000Y-113284000D01*
X81280000Y-113284000D02*
X83820000Y-112014000D01*
X81280000Y-112014000D02*
X83820000Y-112014000D01*
X81280000Y-112649000D02*
X83820000Y-112649000D01*
X83820000Y-113284000D02*
X81280000Y-113284000D01*
X81280000Y-113284000D02*
X81280000Y-108204000D01*
X81280000Y-108204000D02*
X83820000Y-108204000D01*
X83820000Y-108204000D02*
X83820000Y-113284000D01*
X95504000Y-91440000D02*
X95504000Y-90424000D01*
X95504000Y-96266000D02*
X95504000Y-97536000D01*
X94234000Y-96012000D02*
X96774000Y-96012000D01*
X94234000Y-95758000D02*
X96774000Y-95758000D01*
X94234000Y-95504000D02*
X96774000Y-95504000D01*
X94234000Y-96266000D02*
X96774000Y-96266000D01*
X94234000Y-95250000D02*
X96774000Y-96520000D01*
X94234000Y-96520000D02*
X96774000Y-95250000D01*
X94234000Y-95250000D02*
X96774000Y-95250000D01*
X94234000Y-95885000D02*
X96774000Y-95885000D01*
X96774000Y-96520000D02*
X94234000Y-96520000D01*
X94234000Y-96520000D02*
X94234000Y-91440000D01*
X94234000Y-91440000D02*
X96774000Y-91440000D01*
X96774000Y-91440000D02*
X96774000Y-96520000D01*
X66095112Y-116332904D02*
G75*
G03X66080000Y-113308000I2484888J1524904D01*
G01*
X66080000Y-116308000D02*
X66080000Y-113308000D01*
X71097936Y-114808000D02*
G75*
G03X71097936Y-114808000I-2517936J0D01*
G01*
X50662840Y-106497120D02*
X50662840Y-115498880D01*
X47162720Y-106497120D02*
X47162720Y-115498880D01*
X47162720Y-115498880D02*
X61663580Y-115498880D01*
X61663580Y-115498880D02*
X61663580Y-106497120D01*
X61663580Y-106497120D02*
X47162720Y-106497120D01*
X76454000Y-113284000D02*
X78994000Y-113284000D01*
X73634000Y-113004000D02*
X75184000Y-113004000D01*
X76454000Y-113284000D02*
X76454000Y-115824000D01*
X75184000Y-116104000D02*
X73634000Y-116104000D01*
X73634000Y-116104000D02*
X73634000Y-113004000D01*
X76454000Y-115824000D02*
X78994000Y-115824000D01*
X78994000Y-115824000D02*
X78994000Y-113284000D01*
X86050120Y-119722900D02*
X95051880Y-119722900D01*
X86050120Y-123223020D02*
X95051880Y-123223020D01*
X95051880Y-123223020D02*
X95051880Y-108722160D01*
X95051880Y-108722160D02*
X86050120Y-108722160D01*
X86050120Y-108722160D02*
X86050120Y-123223020D01*
X55880000Y-99822000D02*
X55880000Y-97282000D01*
X55600000Y-102642000D02*
X55600000Y-101092000D01*
X55880000Y-99822000D02*
X58420000Y-99822000D01*
X58700000Y-101092000D02*
X58700000Y-102642000D01*
X58700000Y-102642000D02*
X55600000Y-102642000D01*
X58420000Y-99822000D02*
X58420000Y-97282000D01*
X58420000Y-97282000D02*
X55880000Y-97282000D01*
X92456000Y-52324000D02*
X89916000Y-52324000D01*
X95276000Y-52604000D02*
X93726000Y-52604000D01*
X92456000Y-52324000D02*
X92456000Y-49784000D01*
X93726000Y-49504000D02*
X95276000Y-49504000D01*
X95276000Y-49504000D02*
X95276000Y-52604000D01*
X92456000Y-49784000D02*
X89916000Y-49784000D01*
X89916000Y-49784000D02*
X89916000Y-52324000D01*
X73738000Y-97712000D02*
X77138000Y-97712000D01*
X73740944Y-97709056D02*
G75*
G02X75438000Y-93612000I1697056J1697056D01*
G01*
X77135056Y-97709056D02*
G75*
G03X75438000Y-93612000I-1697056J1697056D01*
G01*
X63070000Y-58088000D02*
X66470000Y-58088000D01*
X63072944Y-58085056D02*
G75*
G02X64770000Y-53988000I1697056J1697056D01*
G01*
X66467056Y-58085056D02*
G75*
G03X64770000Y-53988000I-1697056J1697056D01*
G01*
X77724000Y-57658000D02*
X72644000Y-57658000D01*
X72644000Y-57658000D02*
X72644000Y-55118000D01*
X72644000Y-55118000D02*
X77724000Y-55118000D01*
X77724000Y-55118000D02*
X77724000Y-57658000D01*
X72136000Y-39116000D02*
X77216000Y-39116000D01*
X77216000Y-39116000D02*
X77216000Y-41656000D01*
X77216000Y-41656000D02*
X72136000Y-41656000D01*
X72136000Y-41656000D02*
X72136000Y-39116000D01*
X84328000Y-68072000D02*
X89408000Y-68072000D01*
X89408000Y-68072000D02*
X89408000Y-70612000D01*
X89408000Y-70612000D02*
X84328000Y-70612000D01*
X84328000Y-70612000D02*
X84328000Y-68072000D01*
X70612000Y-86360000D02*
X70612000Y-91440000D01*
X70612000Y-91440000D02*
X68072000Y-91440000D01*
X68072000Y-91440000D02*
X68072000Y-86360000D01*
X68072000Y-86360000D02*
X70612000Y-86360000D01*
X78740000Y-46482000D02*
X73660000Y-46482000D01*
X73660000Y-46482000D02*
X73660000Y-43942000D01*
X73660000Y-43942000D02*
X78740000Y-43942000D01*
X78740000Y-43942000D02*
X78740000Y-46482000D01*
X82804000Y-49276000D02*
X82804000Y-44196000D01*
X82804000Y-44196000D02*
X85344000Y-44196000D01*
X85344000Y-44196000D02*
X85344000Y-49276000D01*
X85344000Y-49276000D02*
X82804000Y-49276000D01*
X85598000Y-58674000D02*
X90678000Y-58674000D01*
X90678000Y-58674000D02*
X90678000Y-61214000D01*
X90678000Y-61214000D02*
X85598000Y-61214000D01*
X85598000Y-61214000D02*
X85598000Y-58674000D01*
X93980000Y-81534000D02*
X93980000Y-76454000D01*
X93980000Y-76454000D02*
X96520000Y-76454000D01*
X96520000Y-76454000D02*
X96520000Y-81534000D01*
X96520000Y-81534000D02*
X93980000Y-81534000D01*
X90424000Y-56642000D02*
X85344000Y-56642000D01*
X85344000Y-56642000D02*
X85344000Y-54102000D01*
X85344000Y-54102000D02*
X90424000Y-54102000D01*
X90424000Y-54102000D02*
X90424000Y-56642000D01*
X110210000Y-72390000D02*
X110210000Y-70840000D01*
X110210000Y-70840000D02*
X113310000Y-70840000D01*
X113310000Y-70840000D02*
X113310000Y-72390000D01*
X113030000Y-73660000D02*
X113030000Y-83820000D01*
X113030000Y-83820000D02*
X110490000Y-83820000D01*
X110490000Y-83820000D02*
X110490000Y-73660000D01*
X113030000Y-73660000D02*
X110490000Y-73660000D01*
X88900000Y-97282000D02*
X88900000Y-92202000D01*
X88900000Y-92202000D02*
X91440000Y-92202000D01*
X91440000Y-92202000D02*
X91440000Y-97282000D01*
X91440000Y-97282000D02*
X88900000Y-97282000D01*
X71882000Y-109982000D02*
X66802000Y-109982000D01*
X66802000Y-109982000D02*
X66802000Y-107442000D01*
X66802000Y-107442000D02*
X71882000Y-107442000D01*
X71882000Y-107442000D02*
X71882000Y-109982000D01*
X68580000Y-102616000D02*
X68580000Y-97536000D01*
X68580000Y-97536000D02*
X71120000Y-97536000D01*
X71120000Y-97536000D02*
X71120000Y-102616000D01*
X71120000Y-102616000D02*
X68580000Y-102616000D01*
X66294000Y-79756000D02*
X61214000Y-79756000D01*
X61214000Y-79756000D02*
X61214000Y-77216000D01*
X61214000Y-77216000D02*
X66294000Y-77216000D01*
X66294000Y-77216000D02*
X66294000Y-79756000D01*
X93488000Y-39674800D02*
X95488000Y-39674800D01*
X97993200Y-42180000D02*
X97993200Y-44180000D01*
X95488000Y-46685200D02*
X93488000Y-46685200D01*
X90982800Y-44180000D02*
X90982800Y-42180000D01*
X96012000Y-102997000D02*
X94107000Y-102997000D01*
X91567000Y-102997000D02*
X92329000Y-102997000D01*
X89154000Y-102997000D02*
X89027000Y-102997000D01*
X89154000Y-102997000D02*
X89789000Y-102997000D01*
X85344000Y-102997000D02*
X87122000Y-102997000D01*
X85344000Y-106680000D02*
X86995000Y-106680000D01*
X89662000Y-106807000D02*
X89027000Y-106807000D01*
X92202000Y-106807000D02*
X91567000Y-106807000D01*
X96012000Y-106680000D02*
X94361000Y-106680000D01*
X89154000Y-101854000D02*
X89154000Y-102997000D01*
X92202000Y-101854000D02*
X92202000Y-102997000D01*
X96012000Y-102997000D02*
X96012000Y-106680000D01*
X85344000Y-106680000D02*
X85344000Y-102997000D01*
X96012000Y-101854000D02*
X96012000Y-102997000D01*
X85344000Y-102997000D02*
X85344000Y-101854000D01*
X90678000Y-101854000D02*
X85344000Y-101854000D01*
X90678000Y-101854000D02*
X96012000Y-101854000D01*
X73992000Y-92886000D02*
X77392000Y-92886000D01*
X73994944Y-92883056D02*
G75*
G02X75692000Y-88786000I1697056J1697056D01*
G01*
X77389056Y-92883056D02*
G75*
G03X75692000Y-88786000I-1697056J1697056D01*
G01*
X69477000Y-60697000D02*
X69477000Y-61967000D01*
X76827000Y-60697000D02*
X76827000Y-61967000D01*
X76827000Y-72907000D02*
X76827000Y-71637000D01*
X69477000Y-72907000D02*
X69477000Y-71637000D01*
X69477000Y-60697000D02*
X76827000Y-60697000D01*
X69477000Y-72907000D02*
X76827000Y-72907000D01*
X69477000Y-61967000D02*
X68192000Y-61967000D01*
X81415000Y-74413000D02*
X81415000Y-75683000D01*
X88765000Y-74413000D02*
X88765000Y-75683000D01*
X88765000Y-86623000D02*
X88765000Y-85353000D01*
X81415000Y-86623000D02*
X81415000Y-85353000D01*
X81415000Y-74413000D02*
X88765000Y-74413000D01*
X81415000Y-86623000D02*
X88765000Y-86623000D01*
X81415000Y-75683000D02*
X80130000Y-75683000D01*
X109468029Y-101436351D02*
X109610886Y-101483970D01*
X109658505Y-101531590D01*
X109706124Y-101626828D01*
X109706124Y-101769685D01*
X109658505Y-101864923D01*
X109610886Y-101912542D01*
X109515648Y-101960161D01*
X109134695Y-101960161D01*
X109134695Y-100960161D01*
X109468029Y-100960161D01*
X109563267Y-101007780D01*
X109610886Y-101055399D01*
X109658505Y-101150637D01*
X109658505Y-101245875D01*
X109610886Y-101341113D01*
X109563267Y-101388732D01*
X109468029Y-101436351D01*
X109134695Y-101436351D01*
X110134695Y-101960161D02*
X110134695Y-100960161D01*
X110706124Y-101960161D01*
X110706124Y-100960161D01*
X111753743Y-101864923D02*
X111706124Y-101912542D01*
X111563267Y-101960161D01*
X111468029Y-101960161D01*
X111325171Y-101912542D01*
X111229933Y-101817304D01*
X111182314Y-101722066D01*
X111134695Y-101531590D01*
X111134695Y-101388732D01*
X111182314Y-101198256D01*
X111229933Y-101103018D01*
X111325171Y-101007780D01*
X111468029Y-100960161D01*
X111563267Y-100960161D01*
X111706124Y-101007780D01*
X111753743Y-101055399D01*
X112706124Y-101960161D02*
X112134695Y-101960161D01*
X112420409Y-101960161D02*
X112420409Y-100960161D01*
X112325171Y-101103018D01*
X112229933Y-101198256D01*
X112134695Y-101245875D01*
X110738029Y-37898251D02*
X110880886Y-37945870D01*
X110928505Y-37993490D01*
X110976124Y-38088728D01*
X110976124Y-38231585D01*
X110928505Y-38326823D01*
X110880886Y-38374442D01*
X110785648Y-38422061D01*
X110404695Y-38422061D01*
X110404695Y-37422061D01*
X110738029Y-37422061D01*
X110833267Y-37469680D01*
X110880886Y-37517299D01*
X110928505Y-37612537D01*
X110928505Y-37707775D01*
X110880886Y-37803013D01*
X110833267Y-37850632D01*
X110738029Y-37898251D01*
X110404695Y-37898251D01*
X111404695Y-38422061D02*
X111404695Y-37422061D01*
X111976124Y-38422061D01*
X111976124Y-37422061D01*
X113023743Y-38326823D02*
X112976124Y-38374442D01*
X112833267Y-38422061D01*
X112738029Y-38422061D01*
X112595171Y-38374442D01*
X112499933Y-38279204D01*
X112452314Y-38183966D01*
X112404695Y-37993490D01*
X112404695Y-37850632D01*
X112452314Y-37660156D01*
X112499933Y-37564918D01*
X112595171Y-37469680D01*
X112738029Y-37422061D01*
X112833267Y-37422061D01*
X112976124Y-37469680D01*
X113023743Y-37517299D01*
X113404695Y-37517299D02*
X113452314Y-37469680D01*
X113547552Y-37422061D01*
X113785648Y-37422061D01*
X113880886Y-37469680D01*
X113928505Y-37517299D01*
X113976124Y-37612537D01*
X113976124Y-37707775D01*
X113928505Y-37850632D01*
X113357076Y-38422061D01*
X113976124Y-38422061D01*
X109468029Y-84908571D02*
X109610886Y-84956190D01*
X109658505Y-85003810D01*
X109706124Y-85099048D01*
X109706124Y-85241905D01*
X109658505Y-85337143D01*
X109610886Y-85384762D01*
X109515648Y-85432381D01*
X109134695Y-85432381D01*
X109134695Y-84432381D01*
X109468029Y-84432381D01*
X109563267Y-84480000D01*
X109610886Y-84527619D01*
X109658505Y-84622857D01*
X109658505Y-84718095D01*
X109610886Y-84813333D01*
X109563267Y-84860952D01*
X109468029Y-84908571D01*
X109134695Y-84908571D01*
X110134695Y-85432381D02*
X110134695Y-84432381D01*
X110706124Y-85432381D01*
X110706124Y-84432381D01*
X111753743Y-85337143D02*
X111706124Y-85384762D01*
X111563267Y-85432381D01*
X111468029Y-85432381D01*
X111325171Y-85384762D01*
X111229933Y-85289524D01*
X111182314Y-85194286D01*
X111134695Y-85003810D01*
X111134695Y-84860952D01*
X111182314Y-84670476D01*
X111229933Y-84575238D01*
X111325171Y-84480000D01*
X111468029Y-84432381D01*
X111563267Y-84432381D01*
X111706124Y-84480000D01*
X111753743Y-84527619D01*
X112087076Y-84432381D02*
X112706124Y-84432381D01*
X112372790Y-84813333D01*
X112515648Y-84813333D01*
X112610886Y-84860952D01*
X112658505Y-84908571D01*
X112706124Y-85003810D01*
X112706124Y-85241905D01*
X112658505Y-85337143D01*
X112610886Y-85384762D01*
X112515648Y-85432381D01*
X112229933Y-85432381D01*
X112134695Y-85384762D01*
X112087076Y-85337143D01*
X62661334Y-95301143D02*
X62613715Y-95348762D01*
X62470858Y-95396381D01*
X62375620Y-95396381D01*
X62232762Y-95348762D01*
X62137524Y-95253524D01*
X62089905Y-95158286D01*
X62042286Y-94967810D01*
X62042286Y-94824952D01*
X62089905Y-94634476D01*
X62137524Y-94539238D01*
X62232762Y-94444000D01*
X62375620Y-94396381D01*
X62470858Y-94396381D01*
X62613715Y-94444000D01*
X62661334Y-94491619D01*
X63613715Y-95396381D02*
X63042286Y-95396381D01*
X63328000Y-95396381D02*
X63328000Y-94396381D01*
X63232762Y-94539238D01*
X63137524Y-94634476D01*
X63042286Y-94682095D01*
X75007334Y-48415143D02*
X74959715Y-48462762D01*
X74816858Y-48510381D01*
X74721620Y-48510381D01*
X74578762Y-48462762D01*
X74483524Y-48367524D01*
X74435905Y-48272286D01*
X74388286Y-48081810D01*
X74388286Y-47938952D01*
X74435905Y-47748476D01*
X74483524Y-47653238D01*
X74578762Y-47558000D01*
X74721620Y-47510381D01*
X74816858Y-47510381D01*
X74959715Y-47558000D01*
X75007334Y-47605619D01*
X75388286Y-47605619D02*
X75435905Y-47558000D01*
X75531143Y-47510381D01*
X75769239Y-47510381D01*
X75864477Y-47558000D01*
X75912096Y-47605619D01*
X75959715Y-47700857D01*
X75959715Y-47796095D01*
X75912096Y-47938952D01*
X75340667Y-48510381D01*
X75959715Y-48510381D01*
X59845143Y-64772666D02*
X59892762Y-64820285D01*
X59940381Y-64963142D01*
X59940381Y-65058380D01*
X59892762Y-65201238D01*
X59797524Y-65296476D01*
X59702286Y-65344095D01*
X59511810Y-65391714D01*
X59368952Y-65391714D01*
X59178476Y-65344095D01*
X59083238Y-65296476D01*
X58988000Y-65201238D01*
X58940381Y-65058380D01*
X58940381Y-64963142D01*
X58988000Y-64820285D01*
X59035619Y-64772666D01*
X58940381Y-64439333D02*
X58940381Y-63820285D01*
X59321333Y-64153619D01*
X59321333Y-64010761D01*
X59368952Y-63915523D01*
X59416571Y-63867904D01*
X59511810Y-63820285D01*
X59749905Y-63820285D01*
X59845143Y-63867904D01*
X59892762Y-63915523D01*
X59940381Y-64010761D01*
X59940381Y-64296476D01*
X59892762Y-64391714D01*
X59845143Y-64439333D01*
X78725143Y-83528666D02*
X78772762Y-83576285D01*
X78820381Y-83719142D01*
X78820381Y-83814380D01*
X78772762Y-83957238D01*
X78677524Y-84052476D01*
X78582286Y-84100095D01*
X78391810Y-84147714D01*
X78248952Y-84147714D01*
X78058476Y-84100095D01*
X77963238Y-84052476D01*
X77868000Y-83957238D01*
X77820381Y-83814380D01*
X77820381Y-83719142D01*
X77868000Y-83576285D01*
X77915619Y-83528666D01*
X78153714Y-82671523D02*
X78820381Y-82671523D01*
X77772762Y-82909619D02*
X78487048Y-83147714D01*
X78487048Y-82528666D01*
X82771143Y-89524666D02*
X82818762Y-89572285D01*
X82866381Y-89715142D01*
X82866381Y-89810380D01*
X82818762Y-89953238D01*
X82723524Y-90048476D01*
X82628286Y-90096095D01*
X82437810Y-90143714D01*
X82294952Y-90143714D01*
X82104476Y-90096095D01*
X82009238Y-90048476D01*
X81914000Y-89953238D01*
X81866381Y-89810380D01*
X81866381Y-89715142D01*
X81914000Y-89572285D01*
X81961619Y-89524666D01*
X81866381Y-88619904D02*
X81866381Y-89096095D01*
X82342571Y-89143714D01*
X82294952Y-89096095D01*
X82247333Y-89000857D01*
X82247333Y-88762761D01*
X82294952Y-88667523D01*
X82342571Y-88619904D01*
X82437810Y-88572285D01*
X82675905Y-88572285D01*
X82771143Y-88619904D01*
X82818762Y-88667523D01*
X82866381Y-88762761D01*
X82866381Y-89000857D01*
X82818762Y-89096095D01*
X82771143Y-89143714D01*
X103515334Y-73627143D02*
X103467715Y-73674762D01*
X103324858Y-73722381D01*
X103229620Y-73722381D01*
X103086762Y-73674762D01*
X102991524Y-73579524D01*
X102943905Y-73484286D01*
X102896286Y-73293810D01*
X102896286Y-73150952D01*
X102943905Y-72960476D01*
X102991524Y-72865238D01*
X103086762Y-72770000D01*
X103229620Y-72722381D01*
X103324858Y-72722381D01*
X103467715Y-72770000D01*
X103515334Y-72817619D01*
X104372477Y-72722381D02*
X104182000Y-72722381D01*
X104086762Y-72770000D01*
X104039143Y-72817619D01*
X103943905Y-72960476D01*
X103896286Y-73150952D01*
X103896286Y-73531905D01*
X103943905Y-73627143D01*
X103991524Y-73674762D01*
X104086762Y-73722381D01*
X104277239Y-73722381D01*
X104372477Y-73674762D01*
X104420096Y-73627143D01*
X104467715Y-73531905D01*
X104467715Y-73293810D01*
X104420096Y-73198571D01*
X104372477Y-73150952D01*
X104277239Y-73103333D01*
X104086762Y-73103333D01*
X103991524Y-73150952D01*
X103943905Y-73198571D01*
X103896286Y-73293810D01*
X101597334Y-78895143D02*
X101549715Y-78942762D01*
X101406858Y-78990381D01*
X101311620Y-78990381D01*
X101168762Y-78942762D01*
X101073524Y-78847524D01*
X101025905Y-78752286D01*
X100978286Y-78561810D01*
X100978286Y-78418952D01*
X101025905Y-78228476D01*
X101073524Y-78133238D01*
X101168762Y-78038000D01*
X101311620Y-77990381D01*
X101406858Y-77990381D01*
X101549715Y-78038000D01*
X101597334Y-78085619D01*
X101930667Y-77990381D02*
X102597334Y-77990381D01*
X102168762Y-78990381D01*
X66279143Y-73368666D02*
X66326762Y-73416285D01*
X66374381Y-73559142D01*
X66374381Y-73654380D01*
X66326762Y-73797238D01*
X66231524Y-73892476D01*
X66136286Y-73940095D01*
X65945810Y-73987714D01*
X65802952Y-73987714D01*
X65612476Y-73940095D01*
X65517238Y-73892476D01*
X65422000Y-73797238D01*
X65374381Y-73654380D01*
X65374381Y-73559142D01*
X65422000Y-73416285D01*
X65469619Y-73368666D01*
X65802952Y-72797238D02*
X65755333Y-72892476D01*
X65707714Y-72940095D01*
X65612476Y-72987714D01*
X65564857Y-72987714D01*
X65469619Y-72940095D01*
X65422000Y-72892476D01*
X65374381Y-72797238D01*
X65374381Y-72606761D01*
X65422000Y-72511523D01*
X65469619Y-72463904D01*
X65564857Y-72416285D01*
X65612476Y-72416285D01*
X65707714Y-72463904D01*
X65755333Y-72511523D01*
X65802952Y-72606761D01*
X65802952Y-72797238D01*
X65850571Y-72892476D01*
X65898190Y-72940095D01*
X65993429Y-72987714D01*
X66183905Y-72987714D01*
X66279143Y-72940095D01*
X66326762Y-72892476D01*
X66374381Y-72797238D01*
X66374381Y-72606761D01*
X66326762Y-72511523D01*
X66279143Y-72463904D01*
X66183905Y-72416285D01*
X65993429Y-72416285D01*
X65898190Y-72463904D01*
X65850571Y-72511523D01*
X65802952Y-72606761D01*
X100327334Y-57305143D02*
X100279715Y-57352762D01*
X100136858Y-57400381D01*
X100041620Y-57400381D01*
X99898762Y-57352762D01*
X99803524Y-57257524D01*
X99755905Y-57162286D01*
X99708286Y-56971810D01*
X99708286Y-56828952D01*
X99755905Y-56638476D01*
X99803524Y-56543238D01*
X99898762Y-56448000D01*
X100041620Y-56400381D01*
X100136858Y-56400381D01*
X100279715Y-56448000D01*
X100327334Y-56495619D01*
X100803524Y-57400381D02*
X100994000Y-57400381D01*
X101089239Y-57352762D01*
X101136858Y-57305143D01*
X101232096Y-57162286D01*
X101279715Y-56971810D01*
X101279715Y-56590857D01*
X101232096Y-56495619D01*
X101184477Y-56448000D01*
X101089239Y-56400381D01*
X100898762Y-56400381D01*
X100803524Y-56448000D01*
X100755905Y-56495619D01*
X100708286Y-56590857D01*
X100708286Y-56828952D01*
X100755905Y-56924190D01*
X100803524Y-56971810D01*
X100898762Y-57019429D01*
X101089239Y-57019429D01*
X101184477Y-56971810D01*
X101232096Y-56924190D01*
X101279715Y-56828952D01*
X94473143Y-65208857D02*
X94520762Y-65256476D01*
X94568381Y-65399333D01*
X94568381Y-65494571D01*
X94520762Y-65637429D01*
X94425524Y-65732667D01*
X94330286Y-65780286D01*
X94139810Y-65827905D01*
X93996952Y-65827905D01*
X93806476Y-65780286D01*
X93711238Y-65732667D01*
X93616000Y-65637429D01*
X93568381Y-65494571D01*
X93568381Y-65399333D01*
X93616000Y-65256476D01*
X93663619Y-65208857D01*
X94568381Y-64256476D02*
X94568381Y-64827905D01*
X94568381Y-64542191D02*
X93568381Y-64542191D01*
X93711238Y-64637429D01*
X93806476Y-64732667D01*
X93854095Y-64827905D01*
X93568381Y-63637429D02*
X93568381Y-63542190D01*
X93616000Y-63446952D01*
X93663619Y-63399333D01*
X93758857Y-63351714D01*
X93949333Y-63304095D01*
X94187429Y-63304095D01*
X94377905Y-63351714D01*
X94473143Y-63399333D01*
X94520762Y-63446952D01*
X94568381Y-63542190D01*
X94568381Y-63637429D01*
X94520762Y-63732667D01*
X94473143Y-63780286D01*
X94377905Y-63827905D01*
X94187429Y-63875524D01*
X93949333Y-63875524D01*
X93758857Y-63827905D01*
X93663619Y-63780286D01*
X93616000Y-63732667D01*
X93568381Y-63637429D01*
X74451143Y-100231143D02*
X74403524Y-100278762D01*
X74260667Y-100326381D01*
X74165429Y-100326381D01*
X74022571Y-100278762D01*
X73927333Y-100183524D01*
X73879714Y-100088286D01*
X73832095Y-99897810D01*
X73832095Y-99754952D01*
X73879714Y-99564476D01*
X73927333Y-99469238D01*
X74022571Y-99374000D01*
X74165429Y-99326381D01*
X74260667Y-99326381D01*
X74403524Y-99374000D01*
X74451143Y-99421619D01*
X75403524Y-100326381D02*
X74832095Y-100326381D01*
X75117809Y-100326381D02*
X75117809Y-99326381D01*
X75022571Y-99469238D01*
X74927333Y-99564476D01*
X74832095Y-99612095D01*
X76355905Y-100326381D02*
X75784476Y-100326381D01*
X76070190Y-100326381D02*
X76070190Y-99326381D01*
X75974952Y-99469238D01*
X75879714Y-99564476D01*
X75784476Y-99612095D01*
X85075143Y-98990857D02*
X85122762Y-99038476D01*
X85170381Y-99181333D01*
X85170381Y-99276571D01*
X85122762Y-99419429D01*
X85027524Y-99514667D01*
X84932286Y-99562286D01*
X84741810Y-99609905D01*
X84598952Y-99609905D01*
X84408476Y-99562286D01*
X84313238Y-99514667D01*
X84218000Y-99419429D01*
X84170381Y-99276571D01*
X84170381Y-99181333D01*
X84218000Y-99038476D01*
X84265619Y-98990857D01*
X85170381Y-98038476D02*
X85170381Y-98609905D01*
X85170381Y-98324191D02*
X84170381Y-98324191D01*
X84313238Y-98419429D01*
X84408476Y-98514667D01*
X84456095Y-98609905D01*
X84265619Y-97657524D02*
X84218000Y-97609905D01*
X84170381Y-97514667D01*
X84170381Y-97276571D01*
X84218000Y-97181333D01*
X84265619Y-97133714D01*
X84360857Y-97086095D01*
X84456095Y-97086095D01*
X84598952Y-97133714D01*
X85170381Y-97705143D01*
X85170381Y-97086095D01*
X62185143Y-88951143D02*
X62137524Y-88998762D01*
X61994667Y-89046381D01*
X61899429Y-89046381D01*
X61756571Y-88998762D01*
X61661333Y-88903524D01*
X61613714Y-88808286D01*
X61566095Y-88617810D01*
X61566095Y-88474952D01*
X61613714Y-88284476D01*
X61661333Y-88189238D01*
X61756571Y-88094000D01*
X61899429Y-88046381D01*
X61994667Y-88046381D01*
X62137524Y-88094000D01*
X62185143Y-88141619D01*
X63137524Y-89046381D02*
X62566095Y-89046381D01*
X62851809Y-89046381D02*
X62851809Y-88046381D01*
X62756571Y-88189238D01*
X62661333Y-88284476D01*
X62566095Y-88332095D01*
X63470857Y-88046381D02*
X64089905Y-88046381D01*
X63756571Y-88427333D01*
X63899429Y-88427333D01*
X63994667Y-88474952D01*
X64042286Y-88522571D01*
X64089905Y-88617810D01*
X64089905Y-88855905D01*
X64042286Y-88951143D01*
X63994667Y-88998762D01*
X63899429Y-89046381D01*
X63613714Y-89046381D01*
X63518476Y-88998762D01*
X63470857Y-88951143D01*
X87107143Y-65970857D02*
X87154762Y-66018476D01*
X87202381Y-66161333D01*
X87202381Y-66256571D01*
X87154762Y-66399429D01*
X87059524Y-66494667D01*
X86964286Y-66542286D01*
X86773810Y-66589905D01*
X86630952Y-66589905D01*
X86440476Y-66542286D01*
X86345238Y-66494667D01*
X86250000Y-66399429D01*
X86202381Y-66256571D01*
X86202381Y-66161333D01*
X86250000Y-66018476D01*
X86297619Y-65970857D01*
X87202381Y-65018476D02*
X87202381Y-65589905D01*
X87202381Y-65304191D02*
X86202381Y-65304191D01*
X86345238Y-65399429D01*
X86440476Y-65494667D01*
X86488095Y-65589905D01*
X86202381Y-64113714D02*
X86202381Y-64589905D01*
X86678571Y-64637524D01*
X86630952Y-64589905D01*
X86583333Y-64494667D01*
X86583333Y-64256571D01*
X86630952Y-64161333D01*
X86678571Y-64113714D01*
X86773810Y-64066095D01*
X87011905Y-64066095D01*
X87107143Y-64113714D01*
X87154762Y-64161333D01*
X87202381Y-64256571D01*
X87202381Y-64494667D01*
X87154762Y-64589905D01*
X87107143Y-64637524D01*
X61877143Y-101062857D02*
X61924762Y-101110476D01*
X61972381Y-101253333D01*
X61972381Y-101348571D01*
X61924762Y-101491429D01*
X61829524Y-101586667D01*
X61734286Y-101634286D01*
X61543810Y-101681905D01*
X61400952Y-101681905D01*
X61210476Y-101634286D01*
X61115238Y-101586667D01*
X61020000Y-101491429D01*
X60972381Y-101348571D01*
X60972381Y-101253333D01*
X61020000Y-101110476D01*
X61067619Y-101062857D01*
X61972381Y-100110476D02*
X61972381Y-100681905D01*
X61972381Y-100396191D02*
X60972381Y-100396191D01*
X61115238Y-100491429D01*
X61210476Y-100586667D01*
X61258095Y-100681905D01*
X60972381Y-99253333D02*
X60972381Y-99443810D01*
X61020000Y-99539048D01*
X61067619Y-99586667D01*
X61210476Y-99681905D01*
X61400952Y-99729524D01*
X61781905Y-99729524D01*
X61877143Y-99681905D01*
X61924762Y-99634286D01*
X61972381Y-99539048D01*
X61972381Y-99348571D01*
X61924762Y-99253333D01*
X61877143Y-99205714D01*
X61781905Y-99158095D01*
X61543810Y-99158095D01*
X61448571Y-99205714D01*
X61400952Y-99253333D01*
X61353333Y-99348571D01*
X61353333Y-99539048D01*
X61400952Y-99634286D01*
X61448571Y-99681905D01*
X61543810Y-99729524D01*
X83002381Y-119648195D02*
X82002381Y-119648195D01*
X82002381Y-119410100D01*
X82050000Y-119267242D01*
X82145238Y-119172004D01*
X82240476Y-119124385D01*
X82430952Y-119076766D01*
X82573810Y-119076766D01*
X82764286Y-119124385D01*
X82859524Y-119172004D01*
X82954762Y-119267242D01*
X83002381Y-119410100D01*
X83002381Y-119648195D01*
X83002381Y-118124385D02*
X83002381Y-118695814D01*
X83002381Y-118410100D02*
X82002381Y-118410100D01*
X82145238Y-118505338D01*
X82240476Y-118600576D01*
X82288095Y-118695814D01*
X95956381Y-102884195D02*
X94956381Y-102884195D01*
X94956381Y-102646100D01*
X95004000Y-102503242D01*
X95099238Y-102408004D01*
X95194476Y-102360385D01*
X95384952Y-102312766D01*
X95527810Y-102312766D01*
X95718286Y-102360385D01*
X95813524Y-102408004D01*
X95908762Y-102503242D01*
X95956381Y-102646100D01*
X95956381Y-102884195D01*
X95051619Y-101931814D02*
X95004000Y-101884195D01*
X94956381Y-101788957D01*
X94956381Y-101550861D01*
X95004000Y-101455623D01*
X95051619Y-101408004D01*
X95146857Y-101360385D01*
X95242095Y-101360385D01*
X95384952Y-101408004D01*
X95956381Y-101979433D01*
X95956381Y-101360385D01*
X68321905Y-119260381D02*
X68321905Y-118260381D01*
X68560000Y-118260381D01*
X68702858Y-118308000D01*
X68798096Y-118403238D01*
X68845715Y-118498476D01*
X68893334Y-118688952D01*
X68893334Y-118831810D01*
X68845715Y-119022286D01*
X68798096Y-119117524D01*
X68702858Y-119212762D01*
X68560000Y-119260381D01*
X68321905Y-119260381D01*
X69226667Y-118260381D02*
X69845715Y-118260381D01*
X69512381Y-118641333D01*
X69655239Y-118641333D01*
X69750477Y-118688952D01*
X69798096Y-118736571D01*
X69845715Y-118831810D01*
X69845715Y-119069905D01*
X69798096Y-119165143D01*
X69750477Y-119212762D01*
X69655239Y-119260381D01*
X69369524Y-119260381D01*
X69274286Y-119212762D01*
X69226667Y-119165143D01*
X51279467Y-116241581D02*
X51279467Y-116955867D01*
X51231847Y-117098724D01*
X51136609Y-117193962D01*
X50993752Y-117241581D01*
X50898514Y-117241581D01*
X52279467Y-117241581D02*
X51708038Y-117241581D01*
X51993752Y-117241581D02*
X51993752Y-116241581D01*
X51898514Y-116384438D01*
X51803276Y-116479676D01*
X51708038Y-116527295D01*
X72096381Y-113109333D02*
X72810667Y-113109333D01*
X72953524Y-113156953D01*
X73048762Y-113252191D01*
X73096381Y-113395048D01*
X73096381Y-113490286D01*
X72191619Y-112680762D02*
X72144000Y-112633143D01*
X72096381Y-112537905D01*
X72096381Y-112299809D01*
X72144000Y-112204571D01*
X72191619Y-112156952D01*
X72286857Y-112109333D01*
X72382095Y-112109333D01*
X72524952Y-112156952D01*
X73096381Y-112728381D01*
X73096381Y-112109333D01*
X108886667Y-60658381D02*
X108886667Y-61372667D01*
X108839047Y-61515524D01*
X108743809Y-61610762D01*
X108600952Y-61658381D01*
X108505714Y-61658381D01*
X109267619Y-60658381D02*
X109886667Y-60658381D01*
X109553333Y-61039333D01*
X109696191Y-61039333D01*
X109791429Y-61086952D01*
X109839048Y-61134571D01*
X109886667Y-61229810D01*
X109886667Y-61467905D01*
X109839048Y-61563143D01*
X109791429Y-61610762D01*
X109696191Y-61658381D01*
X109410476Y-61658381D01*
X109315238Y-61610762D01*
X109267619Y-61563143D01*
X95794581Y-119106273D02*
X96508867Y-119106273D01*
X96651724Y-119153893D01*
X96746962Y-119249131D01*
X96794581Y-119391988D01*
X96794581Y-119487226D01*
X96127914Y-118201511D02*
X96794581Y-118201511D01*
X95746962Y-118439607D02*
X96461248Y-118677702D01*
X96461248Y-118058654D01*
X55038667Y-103084381D02*
X55038667Y-103798667D01*
X54991047Y-103941524D01*
X54895809Y-104036762D01*
X54752952Y-104084381D01*
X54657714Y-104084381D01*
X55991048Y-103084381D02*
X55514857Y-103084381D01*
X55467238Y-103560571D01*
X55514857Y-103512952D01*
X55610095Y-103465333D01*
X55848191Y-103465333D01*
X55943429Y-103512952D01*
X55991048Y-103560571D01*
X56038667Y-103655810D01*
X56038667Y-103893905D01*
X55991048Y-103989143D01*
X55943429Y-104036762D01*
X55848191Y-104084381D01*
X55610095Y-104084381D01*
X55514857Y-104036762D01*
X55467238Y-103989143D01*
X83399334Y-50998381D02*
X82923143Y-50998381D01*
X82923143Y-49998381D01*
X84256477Y-50998381D02*
X83685048Y-50998381D01*
X83970762Y-50998381D02*
X83970762Y-49998381D01*
X83875524Y-50141238D01*
X83780286Y-50236476D01*
X83685048Y-50284095D01*
X88844381Y-52720666D02*
X88844381Y-53196857D01*
X87844381Y-53196857D01*
X88558667Y-52434952D02*
X88558667Y-51958761D01*
X88844381Y-52530190D02*
X87844381Y-52196857D01*
X88844381Y-51863523D01*
X88844381Y-51530190D02*
X87844381Y-51530190D01*
X88558667Y-51196856D01*
X87844381Y-50863523D01*
X88844381Y-50863523D01*
X88844381Y-50387333D02*
X87844381Y-50387333D01*
X87844381Y-50006380D01*
X87892000Y-49911142D01*
X87939619Y-49863523D01*
X88034857Y-49815904D01*
X88177714Y-49815904D01*
X88272952Y-49863523D01*
X88320571Y-49911142D01*
X88368190Y-50006380D01*
X88368190Y-50387333D01*
X88844381Y-48863523D02*
X88844381Y-49434952D01*
X88844381Y-49149238D02*
X87844381Y-49149238D01*
X87987238Y-49244476D01*
X88082476Y-49339714D01*
X88130095Y-49434952D01*
X75472762Y-92859619D02*
X75377524Y-92812000D01*
X75282286Y-92716762D01*
X75139429Y-92573905D01*
X75044190Y-92526286D01*
X74948952Y-92526286D01*
X74996571Y-92764381D02*
X74901333Y-92716762D01*
X74806095Y-92621524D01*
X74758476Y-92431048D01*
X74758476Y-92097714D01*
X74806095Y-91907238D01*
X74901333Y-91812000D01*
X74996571Y-91764381D01*
X75187048Y-91764381D01*
X75282286Y-91812000D01*
X75377524Y-91907238D01*
X75425143Y-92097714D01*
X75425143Y-92431048D01*
X75377524Y-92621524D01*
X75282286Y-92716762D01*
X75187048Y-92764381D01*
X74996571Y-92764381D01*
X76377524Y-92764381D02*
X75806095Y-92764381D01*
X76091809Y-92764381D02*
X76091809Y-91764381D01*
X75996571Y-91907238D01*
X75901333Y-92002476D01*
X75806095Y-92050095D01*
X64804762Y-53235619D02*
X64709524Y-53188000D01*
X64614286Y-53092762D01*
X64471429Y-52949905D01*
X64376190Y-52902286D01*
X64280952Y-52902286D01*
X64328571Y-53140381D02*
X64233333Y-53092762D01*
X64138095Y-52997524D01*
X64090476Y-52807048D01*
X64090476Y-52473714D01*
X64138095Y-52283238D01*
X64233333Y-52188000D01*
X64328571Y-52140381D01*
X64519048Y-52140381D01*
X64614286Y-52188000D01*
X64709524Y-52283238D01*
X64757143Y-52473714D01*
X64757143Y-52807048D01*
X64709524Y-52997524D01*
X64614286Y-53092762D01*
X64519048Y-53140381D01*
X64328571Y-53140381D01*
X65138095Y-52235619D02*
X65185714Y-52188000D01*
X65280952Y-52140381D01*
X65519048Y-52140381D01*
X65614286Y-52188000D01*
X65661905Y-52235619D01*
X65709524Y-52330857D01*
X65709524Y-52426095D01*
X65661905Y-52568952D01*
X65090476Y-53140381D01*
X65709524Y-53140381D01*
X74927334Y-59140381D02*
X74594000Y-58664190D01*
X74355905Y-59140381D02*
X74355905Y-58140381D01*
X74736858Y-58140381D01*
X74832096Y-58188000D01*
X74879715Y-58235619D01*
X74927334Y-58330857D01*
X74927334Y-58473714D01*
X74879715Y-58568952D01*
X74832096Y-58616571D01*
X74736858Y-58664190D01*
X74355905Y-58664190D01*
X75879715Y-59140381D02*
X75308286Y-59140381D01*
X75594000Y-59140381D02*
X75594000Y-58140381D01*
X75498762Y-58283238D01*
X75403524Y-58378476D01*
X75308286Y-58426095D01*
X74599334Y-38538381D02*
X74266000Y-38062190D01*
X74027905Y-38538381D02*
X74027905Y-37538381D01*
X74408858Y-37538381D01*
X74504096Y-37586000D01*
X74551715Y-37633619D01*
X74599334Y-37728857D01*
X74599334Y-37871714D01*
X74551715Y-37966952D01*
X74504096Y-38014571D01*
X74408858Y-38062190D01*
X74027905Y-38062190D01*
X74980286Y-37633619D02*
X75027905Y-37586000D01*
X75123143Y-37538381D01*
X75361239Y-37538381D01*
X75456477Y-37586000D01*
X75504096Y-37633619D01*
X75551715Y-37728857D01*
X75551715Y-37824095D01*
X75504096Y-37966952D01*
X74932667Y-38538381D01*
X75551715Y-38538381D01*
X86791334Y-67494381D02*
X86458000Y-67018190D01*
X86219905Y-67494381D02*
X86219905Y-66494381D01*
X86600858Y-66494381D01*
X86696096Y-66542000D01*
X86743715Y-66589619D01*
X86791334Y-66684857D01*
X86791334Y-66827714D01*
X86743715Y-66922952D01*
X86696096Y-66970571D01*
X86600858Y-67018190D01*
X86219905Y-67018190D01*
X87124667Y-66494381D02*
X87743715Y-66494381D01*
X87410381Y-66875333D01*
X87553239Y-66875333D01*
X87648477Y-66922952D01*
X87696096Y-66970571D01*
X87743715Y-67065810D01*
X87743715Y-67303905D01*
X87696096Y-67399143D01*
X87648477Y-67446762D01*
X87553239Y-67494381D01*
X87267524Y-67494381D01*
X87172286Y-67446762D01*
X87124667Y-67399143D01*
X72094381Y-89156666D02*
X71618190Y-89490000D01*
X72094381Y-89728095D02*
X71094381Y-89728095D01*
X71094381Y-89347142D01*
X71142000Y-89251904D01*
X71189619Y-89204285D01*
X71284857Y-89156666D01*
X71427714Y-89156666D01*
X71522952Y-89204285D01*
X71570571Y-89251904D01*
X71618190Y-89347142D01*
X71618190Y-89728095D01*
X71427714Y-88299523D02*
X72094381Y-88299523D01*
X71046762Y-88537619D02*
X71761048Y-88775714D01*
X71761048Y-88156666D01*
X75943334Y-47964381D02*
X75610000Y-47488190D01*
X75371905Y-47964381D02*
X75371905Y-46964381D01*
X75752858Y-46964381D01*
X75848096Y-47012000D01*
X75895715Y-47059619D01*
X75943334Y-47154857D01*
X75943334Y-47297714D01*
X75895715Y-47392952D01*
X75848096Y-47440571D01*
X75752858Y-47488190D01*
X75371905Y-47488190D01*
X76848096Y-46964381D02*
X76371905Y-46964381D01*
X76324286Y-47440571D01*
X76371905Y-47392952D01*
X76467143Y-47345333D01*
X76705239Y-47345333D01*
X76800477Y-47392952D01*
X76848096Y-47440571D01*
X76895715Y-47535810D01*
X76895715Y-47773905D01*
X76848096Y-47869143D01*
X76800477Y-47916762D01*
X76705239Y-47964381D01*
X76467143Y-47964381D01*
X76371905Y-47916762D01*
X76324286Y-47869143D01*
X82226381Y-46812666D02*
X81750190Y-47146000D01*
X82226381Y-47384095D02*
X81226381Y-47384095D01*
X81226381Y-47003142D01*
X81274000Y-46907904D01*
X81321619Y-46860285D01*
X81416857Y-46812666D01*
X81559714Y-46812666D01*
X81654952Y-46860285D01*
X81702571Y-46907904D01*
X81750190Y-47003142D01*
X81750190Y-47384095D01*
X81226381Y-45955523D02*
X81226381Y-46146000D01*
X81274000Y-46241238D01*
X81321619Y-46288857D01*
X81464476Y-46384095D01*
X81654952Y-46431714D01*
X82035905Y-46431714D01*
X82131143Y-46384095D01*
X82178762Y-46336476D01*
X82226381Y-46241238D01*
X82226381Y-46050761D01*
X82178762Y-45955523D01*
X82131143Y-45907904D01*
X82035905Y-45860285D01*
X81797810Y-45860285D01*
X81702571Y-45907904D01*
X81654952Y-45955523D01*
X81607333Y-46050761D01*
X81607333Y-46241238D01*
X81654952Y-46336476D01*
X81702571Y-46384095D01*
X81797810Y-46431714D01*
X88061334Y-58096381D02*
X87728000Y-57620190D01*
X87489905Y-58096381D02*
X87489905Y-57096381D01*
X87870858Y-57096381D01*
X87966096Y-57144000D01*
X88013715Y-57191619D01*
X88061334Y-57286857D01*
X88061334Y-57429714D01*
X88013715Y-57524952D01*
X87966096Y-57572571D01*
X87870858Y-57620190D01*
X87489905Y-57620190D01*
X88394667Y-57096381D02*
X89061334Y-57096381D01*
X88632762Y-58096381D01*
X93402381Y-79070666D02*
X92926190Y-79404000D01*
X93402381Y-79642095D02*
X92402381Y-79642095D01*
X92402381Y-79261142D01*
X92450000Y-79165904D01*
X92497619Y-79118285D01*
X92592857Y-79070666D01*
X92735714Y-79070666D01*
X92830952Y-79118285D01*
X92878571Y-79165904D01*
X92926190Y-79261142D01*
X92926190Y-79642095D01*
X92830952Y-78499238D02*
X92783333Y-78594476D01*
X92735714Y-78642095D01*
X92640476Y-78689714D01*
X92592857Y-78689714D01*
X92497619Y-78642095D01*
X92450000Y-78594476D01*
X92402381Y-78499238D01*
X92402381Y-78308761D01*
X92450000Y-78213523D01*
X92497619Y-78165904D01*
X92592857Y-78118285D01*
X92640476Y-78118285D01*
X92735714Y-78165904D01*
X92783333Y-78213523D01*
X92830952Y-78308761D01*
X92830952Y-78499238D01*
X92878571Y-78594476D01*
X92926190Y-78642095D01*
X93021429Y-78689714D01*
X93211905Y-78689714D01*
X93307143Y-78642095D01*
X93354762Y-78594476D01*
X93402381Y-78499238D01*
X93402381Y-78308761D01*
X93354762Y-78213523D01*
X93307143Y-78165904D01*
X93211905Y-78118285D01*
X93021429Y-78118285D01*
X92926190Y-78165904D01*
X92878571Y-78213523D01*
X92830952Y-78308761D01*
X87627334Y-58124381D02*
X87294000Y-57648190D01*
X87055905Y-58124381D02*
X87055905Y-57124381D01*
X87436858Y-57124381D01*
X87532096Y-57172000D01*
X87579715Y-57219619D01*
X87627334Y-57314857D01*
X87627334Y-57457714D01*
X87579715Y-57552952D01*
X87532096Y-57600571D01*
X87436858Y-57648190D01*
X87055905Y-57648190D01*
X88103524Y-58124381D02*
X88294000Y-58124381D01*
X88389239Y-58076762D01*
X88436858Y-58029143D01*
X88532096Y-57886286D01*
X88579715Y-57695810D01*
X88579715Y-57314857D01*
X88532096Y-57219619D01*
X88484477Y-57172000D01*
X88389239Y-57124381D01*
X88198762Y-57124381D01*
X88103524Y-57172000D01*
X88055905Y-57219619D01*
X88008286Y-57314857D01*
X88008286Y-57552952D01*
X88055905Y-57648190D01*
X88103524Y-57695810D01*
X88198762Y-57743429D01*
X88389239Y-57743429D01*
X88484477Y-57695810D01*
X88532096Y-57648190D01*
X88579715Y-57552952D01*
X111317143Y-70142381D02*
X110983809Y-69666190D01*
X110745714Y-70142381D02*
X110745714Y-69142381D01*
X111126667Y-69142381D01*
X111221905Y-69190000D01*
X111269524Y-69237619D01*
X111317143Y-69332857D01*
X111317143Y-69475714D01*
X111269524Y-69570952D01*
X111221905Y-69618571D01*
X111126667Y-69666190D01*
X110745714Y-69666190D01*
X112269524Y-70142381D02*
X111698095Y-70142381D01*
X111983809Y-70142381D02*
X111983809Y-69142381D01*
X111888571Y-69285238D01*
X111793333Y-69380476D01*
X111698095Y-69428095D01*
X112888571Y-69142381D02*
X112983810Y-69142381D01*
X113079048Y-69190000D01*
X113126667Y-69237619D01*
X113174286Y-69332857D01*
X113221905Y-69523333D01*
X113221905Y-69761429D01*
X113174286Y-69951905D01*
X113126667Y-70047143D01*
X113079048Y-70094762D01*
X112983810Y-70142381D01*
X112888571Y-70142381D01*
X112793333Y-70094762D01*
X112745714Y-70047143D01*
X112698095Y-69951905D01*
X112650476Y-69761429D01*
X112650476Y-69523333D01*
X112698095Y-69332857D01*
X112745714Y-69237619D01*
X112793333Y-69190000D01*
X112888571Y-69142381D01*
X88322381Y-95294857D02*
X87846190Y-95628191D01*
X88322381Y-95866286D02*
X87322381Y-95866286D01*
X87322381Y-95485333D01*
X87370000Y-95390095D01*
X87417619Y-95342476D01*
X87512857Y-95294857D01*
X87655714Y-95294857D01*
X87750952Y-95342476D01*
X87798571Y-95390095D01*
X87846190Y-95485333D01*
X87846190Y-95866286D01*
X88322381Y-94342476D02*
X88322381Y-94913905D01*
X88322381Y-94628191D02*
X87322381Y-94628191D01*
X87465238Y-94723429D01*
X87560476Y-94818667D01*
X87608095Y-94913905D01*
X88322381Y-93390095D02*
X88322381Y-93961524D01*
X88322381Y-93675810D02*
X87322381Y-93675810D01*
X87465238Y-93771048D01*
X87560476Y-93866286D01*
X87608095Y-93961524D01*
X68609143Y-111464381D02*
X68275809Y-110988190D01*
X68037714Y-111464381D02*
X68037714Y-110464381D01*
X68418667Y-110464381D01*
X68513905Y-110512000D01*
X68561524Y-110559619D01*
X68609143Y-110654857D01*
X68609143Y-110797714D01*
X68561524Y-110892952D01*
X68513905Y-110940571D01*
X68418667Y-110988190D01*
X68037714Y-110988190D01*
X69561524Y-111464381D02*
X68990095Y-111464381D01*
X69275809Y-111464381D02*
X69275809Y-110464381D01*
X69180571Y-110607238D01*
X69085333Y-110702476D01*
X68990095Y-110750095D01*
X69942476Y-110559619D02*
X69990095Y-110512000D01*
X70085333Y-110464381D01*
X70323429Y-110464381D01*
X70418667Y-110512000D01*
X70466286Y-110559619D01*
X70513905Y-110654857D01*
X70513905Y-110750095D01*
X70466286Y-110892952D01*
X69894857Y-111464381D01*
X70513905Y-111464381D01*
X68002381Y-100628857D02*
X67526190Y-100962191D01*
X68002381Y-101200286D02*
X67002381Y-101200286D01*
X67002381Y-100819333D01*
X67050000Y-100724095D01*
X67097619Y-100676476D01*
X67192857Y-100628857D01*
X67335714Y-100628857D01*
X67430952Y-100676476D01*
X67478571Y-100724095D01*
X67526190Y-100819333D01*
X67526190Y-101200286D01*
X68002381Y-99676476D02*
X68002381Y-100247905D01*
X68002381Y-99962191D02*
X67002381Y-99962191D01*
X67145238Y-100057429D01*
X67240476Y-100152667D01*
X67288095Y-100247905D01*
X67002381Y-99343143D02*
X67002381Y-98724095D01*
X67383333Y-99057429D01*
X67383333Y-98914571D01*
X67430952Y-98819333D01*
X67478571Y-98771714D01*
X67573810Y-98724095D01*
X67811905Y-98724095D01*
X67907143Y-98771714D01*
X67954762Y-98819333D01*
X68002381Y-98914571D01*
X68002381Y-99200286D01*
X67954762Y-99295524D01*
X67907143Y-99343143D01*
X63021143Y-81238381D02*
X62687809Y-80762190D01*
X62449714Y-81238381D02*
X62449714Y-80238381D01*
X62830667Y-80238381D01*
X62925905Y-80286000D01*
X62973524Y-80333619D01*
X63021143Y-80428857D01*
X63021143Y-80571714D01*
X62973524Y-80666952D01*
X62925905Y-80714571D01*
X62830667Y-80762190D01*
X62449714Y-80762190D01*
X63973524Y-81238381D02*
X63402095Y-81238381D01*
X63687809Y-81238381D02*
X63687809Y-80238381D01*
X63592571Y-80381238D01*
X63497333Y-80476476D01*
X63402095Y-80524095D01*
X64306857Y-80238381D02*
X64973524Y-80238381D01*
X64544952Y-81238381D01*
X90626095Y-38484762D02*
X90768952Y-38532381D01*
X91007048Y-38532381D01*
X91102286Y-38484762D01*
X91149905Y-38437143D01*
X91197524Y-38341905D01*
X91197524Y-38246667D01*
X91149905Y-38151429D01*
X91102286Y-38103810D01*
X91007048Y-38056190D01*
X90816571Y-38008571D01*
X90721333Y-37960952D01*
X90673714Y-37913333D01*
X90626095Y-37818095D01*
X90626095Y-37722857D01*
X90673714Y-37627619D01*
X90721333Y-37580000D01*
X90816571Y-37532381D01*
X91054667Y-37532381D01*
X91197524Y-37580000D01*
X91626095Y-38532381D02*
X91626095Y-37532381D01*
X91959429Y-38246667D01*
X92292762Y-37532381D01*
X92292762Y-38532381D01*
X92721333Y-38246667D02*
X93197524Y-38246667D01*
X92626095Y-38532381D02*
X92959428Y-37532381D01*
X93292762Y-38532381D01*
X94149905Y-38532381D02*
X93578476Y-38532381D01*
X93864190Y-38532381D02*
X93864190Y-37532381D01*
X93768952Y-37675238D01*
X93673714Y-37770476D01*
X93578476Y-37818095D01*
X89916095Y-107104381D02*
X89916095Y-107913905D01*
X89963714Y-108009143D01*
X90011333Y-108056762D01*
X90106571Y-108104381D01*
X90297048Y-108104381D01*
X90392286Y-108056762D01*
X90439905Y-108009143D01*
X90487524Y-107913905D01*
X90487524Y-107104381D01*
X91487524Y-108104381D02*
X90916095Y-108104381D01*
X91201809Y-108104381D02*
X91201809Y-107104381D01*
X91106571Y-107247238D01*
X91011333Y-107342476D01*
X90916095Y-107390095D01*
X75060095Y-86938381D02*
X75060095Y-87747905D01*
X75107714Y-87843143D01*
X75155333Y-87890762D01*
X75250571Y-87938381D01*
X75441048Y-87938381D01*
X75536286Y-87890762D01*
X75583905Y-87843143D01*
X75631524Y-87747905D01*
X75631524Y-86938381D01*
X76060095Y-87033619D02*
X76107714Y-86986000D01*
X76202952Y-86938381D01*
X76441048Y-86938381D01*
X76536286Y-86986000D01*
X76583905Y-87033619D01*
X76631524Y-87128857D01*
X76631524Y-87224095D01*
X76583905Y-87366952D01*
X76012476Y-87938381D01*
X76631524Y-87938381D01*
X72580095Y-58944381D02*
X72580095Y-59753905D01*
X72627714Y-59849143D01*
X72675333Y-59896762D01*
X72770571Y-59944381D01*
X72961048Y-59944381D01*
X73056286Y-59896762D01*
X73103905Y-59849143D01*
X73151524Y-59753905D01*
X73151524Y-58944381D01*
X73532476Y-58944381D02*
X74151524Y-58944381D01*
X73818190Y-59325333D01*
X73961048Y-59325333D01*
X74056286Y-59372952D01*
X74103905Y-59420571D01*
X74151524Y-59515810D01*
X74151524Y-59753905D01*
X74103905Y-59849143D01*
X74056286Y-59896762D01*
X73961048Y-59944381D01*
X73675333Y-59944381D01*
X73580095Y-59896762D01*
X73532476Y-59849143D01*
X84518095Y-72660381D02*
X84518095Y-73469905D01*
X84565714Y-73565143D01*
X84613333Y-73612762D01*
X84708571Y-73660381D01*
X84899048Y-73660381D01*
X84994286Y-73612762D01*
X85041905Y-73565143D01*
X85089524Y-73469905D01*
X85089524Y-72660381D01*
X85994286Y-72993714D02*
X85994286Y-73660381D01*
X85756190Y-72612762D02*
X85518095Y-73327048D01*
X86137143Y-73327048D01*
M02*
