%TF.GenerationSoftware,KiCad,Pcbnew,4.0.4+e1-6308~48~ubuntu16.04.1-stable*%
%TF.CreationDate,2016-12-09T16:05:22-08:00*%
%TF.ProjectId,e202var-vlf-radio-receiver,653230327661722D766C662D72616469,v1.2*%
%TF.FileFunction,Soldermask,Top*%
%FSLAX46Y46*%
G04 Gerber Fmt 4.6, Leading zero omitted, Abs format (unit mm)*
G04 Created by KiCad (PCBNEW 4.0.4+e1-6308~48~ubuntu16.04.1-stable) date Fri Dec  9 16:05:22 2016*
%MOMM*%
%LPD*%
G01*
G04 APERTURE LIST*
%ADD10C,0.350000*%
G04 APERTURE END LIST*
D10*
G36*
X58081816Y-113622180D02*
X58480656Y-113704051D01*
X58856013Y-113861836D01*
X59193566Y-114089519D01*
X59480468Y-114378430D01*
X59705787Y-114717564D01*
X59860945Y-115094006D01*
X59939962Y-115493069D01*
X59939962Y-115493079D01*
X59940029Y-115493418D01*
X59933535Y-115958476D01*
X59933459Y-115958810D01*
X59933459Y-115958823D01*
X59843330Y-116355525D01*
X59677724Y-116727484D01*
X59443019Y-117060197D01*
X59148162Y-117340986D01*
X58804383Y-117559156D01*
X58424771Y-117706397D01*
X58023797Y-117777100D01*
X57616720Y-117768572D01*
X57219052Y-117681139D01*
X56845941Y-117518131D01*
X56511603Y-117285760D01*
X56228762Y-116992870D01*
X56008198Y-116650620D01*
X55858308Y-116272044D01*
X55784809Y-115871575D01*
X55790493Y-115464449D01*
X55875148Y-115066180D01*
X56035546Y-114691943D01*
X56265581Y-114355985D01*
X56556488Y-114071108D01*
X56897190Y-113848159D01*
X57274707Y-113695632D01*
X57674656Y-113619338D01*
X58081816Y-113622180D01*
X58081816Y-113622180D01*
G37*
G36*
X90769076Y-113446920D02*
X91167916Y-113528791D01*
X91543273Y-113686576D01*
X91880826Y-113914259D01*
X92167728Y-114203170D01*
X92393047Y-114542304D01*
X92548205Y-114918746D01*
X92627222Y-115317809D01*
X92627222Y-115317819D01*
X92627289Y-115318158D01*
X92620795Y-115783216D01*
X92620719Y-115783550D01*
X92620719Y-115783563D01*
X92530590Y-116180265D01*
X92364984Y-116552224D01*
X92130279Y-116884937D01*
X91835422Y-117165726D01*
X91491643Y-117383896D01*
X91112031Y-117531137D01*
X90711057Y-117601840D01*
X90303980Y-117593312D01*
X89906312Y-117505879D01*
X89533201Y-117342871D01*
X89198863Y-117110500D01*
X88916022Y-116817610D01*
X88695458Y-116475360D01*
X88545568Y-116096784D01*
X88472069Y-115696315D01*
X88477753Y-115289189D01*
X88562408Y-114890920D01*
X88722806Y-114516683D01*
X88952841Y-114180725D01*
X89243748Y-113895848D01*
X89584450Y-113672899D01*
X89961967Y-113520372D01*
X90361916Y-113444078D01*
X90769076Y-113446920D01*
X90769076Y-113446920D01*
G37*
G36*
X107200807Y-113782003D02*
X107200813Y-113782004D01*
X107202863Y-113782018D01*
X107557065Y-113821748D01*
X107896804Y-113929520D01*
X108209141Y-114101228D01*
X108482177Y-114330333D01*
X108705513Y-114608107D01*
X108870643Y-114923971D01*
X108971276Y-115265893D01*
X108971279Y-115265929D01*
X108971282Y-115265938D01*
X109003581Y-115620847D01*
X108966330Y-115975273D01*
X108966327Y-115975283D01*
X108966323Y-115975321D01*
X108860926Y-116315804D01*
X108691402Y-116629332D01*
X108464209Y-116903961D01*
X108188001Y-117129231D01*
X107873298Y-117296561D01*
X107532086Y-117399579D01*
X107177364Y-117434360D01*
X103642602Y-117434360D01*
X103619193Y-117434197D01*
X103619187Y-117434196D01*
X103617137Y-117434182D01*
X103262935Y-117394452D01*
X102923196Y-117286680D01*
X102610859Y-117114972D01*
X102337823Y-116885867D01*
X102114487Y-116608093D01*
X101949357Y-116292229D01*
X101848724Y-115950307D01*
X101848721Y-115950271D01*
X101848718Y-115950262D01*
X101816419Y-115595353D01*
X101853670Y-115240927D01*
X101853673Y-115240917D01*
X101853677Y-115240879D01*
X101959074Y-114900396D01*
X102128598Y-114586868D01*
X102355791Y-114312239D01*
X102631999Y-114086969D01*
X102946702Y-113919639D01*
X103287914Y-113816621D01*
X103642636Y-113781840D01*
X107177398Y-113781840D01*
X107200807Y-113782003D01*
X107200807Y-113782003D01*
G37*
G36*
X83625690Y-116899690D02*
X81474310Y-116899690D01*
X81474310Y-114748310D01*
X83625690Y-114748310D01*
X83625690Y-116899690D01*
X83625690Y-116899690D01*
G37*
G36*
X68336200Y-115884200D02*
X66283800Y-115884200D01*
X66283800Y-113731800D01*
X68336200Y-113731800D01*
X68336200Y-115884200D01*
X68336200Y-115884200D01*
G37*
G36*
X69957790Y-113782481D02*
X70154921Y-113822947D01*
X70340451Y-113900937D01*
X70507292Y-114013473D01*
X70649098Y-114156272D01*
X70760466Y-114323895D01*
X70837156Y-114509958D01*
X70876176Y-114707027D01*
X70876176Y-114707032D01*
X70876244Y-114707376D01*
X70873034Y-114937239D01*
X70872957Y-114937577D01*
X70872957Y-114937586D01*
X70828449Y-115133490D01*
X70746596Y-115317335D01*
X70630588Y-115481786D01*
X70484850Y-115620571D01*
X70314931Y-115728405D01*
X70127299Y-115801182D01*
X69929112Y-115836128D01*
X69727905Y-115831913D01*
X69531351Y-115788699D01*
X69346933Y-115708128D01*
X69181682Y-115593275D01*
X69041882Y-115448509D01*
X68932864Y-115279345D01*
X68858777Y-115092224D01*
X68822449Y-114894288D01*
X68825258Y-114693058D01*
X68867102Y-114496205D01*
X68946380Y-114311232D01*
X69060080Y-114145178D01*
X69203865Y-114004373D01*
X69372265Y-113894176D01*
X69558860Y-113818786D01*
X69756540Y-113781077D01*
X69957790Y-113782481D01*
X69957790Y-113782481D01*
G37*
G36*
X77943570Y-113478817D02*
X77943575Y-113478819D01*
X77943617Y-113478823D01*
X78147245Y-113541856D01*
X78334750Y-113643240D01*
X78498993Y-113779114D01*
X78633717Y-113944301D01*
X78733789Y-114132510D01*
X78795399Y-114336572D01*
X78816200Y-114548715D01*
X78816200Y-114559285D01*
X78816094Y-114574534D01*
X78792333Y-114786366D01*
X78727880Y-114989548D01*
X78625189Y-115176342D01*
X78488172Y-115339632D01*
X78322049Y-115473199D01*
X78133145Y-115571955D01*
X77928658Y-115632139D01*
X77928617Y-115632143D01*
X77928613Y-115632144D01*
X77716377Y-115651459D01*
X77504430Y-115629183D01*
X77504425Y-115629181D01*
X77504383Y-115629177D01*
X77300755Y-115566144D01*
X77113250Y-115464760D01*
X76949007Y-115328886D01*
X76814283Y-115163699D01*
X76714211Y-114975490D01*
X76652601Y-114771428D01*
X76631800Y-114559285D01*
X76631800Y-114548715D01*
X76631906Y-114533466D01*
X76655667Y-114321634D01*
X76720120Y-114118452D01*
X76822811Y-113931658D01*
X76959828Y-113768368D01*
X77125951Y-113634801D01*
X77314855Y-113536045D01*
X77519342Y-113475861D01*
X77519383Y-113475857D01*
X77519387Y-113475856D01*
X77731623Y-113456541D01*
X77943570Y-113478817D01*
X77943570Y-113478817D01*
G37*
G36*
X76276200Y-115646200D02*
X74091800Y-115646200D01*
X74091800Y-113461800D01*
X76276200Y-113461800D01*
X76276200Y-115646200D01*
X76276200Y-115646200D01*
G37*
G36*
X95468076Y-110447180D02*
X95866916Y-110529051D01*
X96242273Y-110686836D01*
X96579826Y-110914519D01*
X96866728Y-111203430D01*
X97092047Y-111542564D01*
X97247205Y-111919006D01*
X97326222Y-112318069D01*
X97326222Y-112318079D01*
X97326289Y-112318418D01*
X97319795Y-112783476D01*
X97319719Y-112783810D01*
X97319719Y-112783823D01*
X97229590Y-113180525D01*
X97063984Y-113552484D01*
X96829279Y-113885197D01*
X96534422Y-114165986D01*
X96190643Y-114384156D01*
X95811031Y-114531397D01*
X95410057Y-114602100D01*
X95002980Y-114593572D01*
X94605312Y-114506139D01*
X94232201Y-114343131D01*
X93897863Y-114110760D01*
X93615022Y-113817870D01*
X93394458Y-113475620D01*
X93244568Y-113097044D01*
X93171069Y-112696575D01*
X93176753Y-112289449D01*
X93261408Y-111891180D01*
X93421806Y-111516943D01*
X93651841Y-111180985D01*
X93942748Y-110896108D01*
X94283450Y-110673159D01*
X94660967Y-110520632D01*
X95060916Y-110444338D01*
X95468076Y-110447180D01*
X95468076Y-110447180D01*
G37*
G36*
X61081556Y-108923180D02*
X61480396Y-109005051D01*
X61855753Y-109162836D01*
X62193306Y-109390519D01*
X62480208Y-109679430D01*
X62705527Y-110018564D01*
X62860685Y-110395006D01*
X62939702Y-110794069D01*
X62939702Y-110794079D01*
X62939769Y-110794418D01*
X62933275Y-111259476D01*
X62933199Y-111259810D01*
X62933199Y-111259823D01*
X62843070Y-111656525D01*
X62677464Y-112028484D01*
X62442759Y-112361197D01*
X62147902Y-112641986D01*
X61804123Y-112860156D01*
X61424511Y-113007397D01*
X61023537Y-113078100D01*
X60616460Y-113069572D01*
X60218792Y-112982139D01*
X59845681Y-112819131D01*
X59511343Y-112586760D01*
X59228502Y-112293870D01*
X59007938Y-111951620D01*
X58858048Y-111573044D01*
X58784549Y-111172575D01*
X58790233Y-110765449D01*
X58874888Y-110367180D01*
X59035286Y-109992943D01*
X59265321Y-109656985D01*
X59556228Y-109372108D01*
X59896930Y-109149159D01*
X60274447Y-108996632D01*
X60674396Y-108920338D01*
X61081556Y-108923180D01*
X61081556Y-108923180D01*
G37*
G36*
X55082076Y-108923180D02*
X55480916Y-109005051D01*
X55856273Y-109162836D01*
X56193826Y-109390519D01*
X56480728Y-109679430D01*
X56706047Y-110018564D01*
X56861205Y-110395006D01*
X56940222Y-110794069D01*
X56940222Y-110794079D01*
X56940289Y-110794418D01*
X56933795Y-111259476D01*
X56933719Y-111259810D01*
X56933719Y-111259823D01*
X56843590Y-111656525D01*
X56677984Y-112028484D01*
X56443279Y-112361197D01*
X56148422Y-112641986D01*
X55804643Y-112860156D01*
X55425031Y-113007397D01*
X55024057Y-113078100D01*
X54616980Y-113069572D01*
X54219312Y-112982139D01*
X53846201Y-112819131D01*
X53511863Y-112586760D01*
X53229022Y-112293870D01*
X53008458Y-111951620D01*
X52858568Y-111573044D01*
X52785069Y-111172575D01*
X52790753Y-110765449D01*
X52875408Y-110367180D01*
X53035806Y-109992943D01*
X53265841Y-109656985D01*
X53556748Y-109372108D01*
X53897450Y-109149159D01*
X54274967Y-108996632D01*
X54674916Y-108920338D01*
X55082076Y-108923180D01*
X55082076Y-108923180D01*
G37*
G36*
X90769076Y-107447440D02*
X91167916Y-107529311D01*
X91543273Y-107687096D01*
X91880826Y-107914779D01*
X92167728Y-108203690D01*
X92393047Y-108542824D01*
X92548205Y-108919266D01*
X92627222Y-109318329D01*
X92627222Y-109318339D01*
X92627289Y-109318678D01*
X92620795Y-109783736D01*
X92620719Y-109784070D01*
X92620719Y-109784083D01*
X92530590Y-110180785D01*
X92364984Y-110552744D01*
X92130279Y-110885457D01*
X91835422Y-111166246D01*
X91491643Y-111384416D01*
X91112031Y-111531657D01*
X90711057Y-111602360D01*
X90303980Y-111593832D01*
X89906312Y-111506399D01*
X89533201Y-111343391D01*
X89198863Y-111111020D01*
X88916022Y-110818130D01*
X88695458Y-110475880D01*
X88545568Y-110097304D01*
X88472069Y-109696835D01*
X88477753Y-109289709D01*
X88562408Y-108891440D01*
X88722806Y-108517203D01*
X88952841Y-108181245D01*
X89243748Y-107896368D01*
X89584450Y-107673419D01*
X89961967Y-107520892D01*
X90361916Y-107444598D01*
X90769076Y-107447440D01*
X90769076Y-107447440D01*
G37*
G36*
X101606194Y-109631514D02*
X101613570Y-109631565D01*
X101783528Y-109650629D01*
X101946546Y-109702342D01*
X102096416Y-109784733D01*
X102227427Y-109894665D01*
X102334592Y-110027950D01*
X102413826Y-110179512D01*
X102462113Y-110343578D01*
X102462116Y-110343609D01*
X102462120Y-110343623D01*
X102477615Y-110513894D01*
X102459743Y-110683937D01*
X102459742Y-110683942D01*
X102459737Y-110683985D01*
X102409164Y-110847360D01*
X102327821Y-110997801D01*
X102218806Y-111129577D01*
X102086272Y-111237669D01*
X101935267Y-111317960D01*
X101771543Y-111367391D01*
X101601335Y-111384080D01*
X100689308Y-111384080D01*
X100684486Y-111384046D01*
X100677110Y-111383995D01*
X100507152Y-111364931D01*
X100344134Y-111313218D01*
X100194264Y-111230827D01*
X100063253Y-111120895D01*
X99956088Y-110987610D01*
X99876854Y-110836048D01*
X99828567Y-110671982D01*
X99828564Y-110671951D01*
X99828560Y-110671937D01*
X99813065Y-110501666D01*
X99830937Y-110331623D01*
X99830938Y-110331618D01*
X99830943Y-110331575D01*
X99881516Y-110168200D01*
X99962859Y-110017759D01*
X100071874Y-109885983D01*
X100204408Y-109777891D01*
X100355413Y-109697600D01*
X100519137Y-109648169D01*
X100689345Y-109631480D01*
X101601372Y-109631480D01*
X101606194Y-109631514D01*
X101606194Y-109631514D01*
G37*
G36*
X73264988Y-107637024D02*
X73471626Y-107679441D01*
X73666104Y-107761192D01*
X73840991Y-107879155D01*
X73989636Y-108028841D01*
X74106375Y-108204548D01*
X74186763Y-108399584D01*
X74227669Y-108606174D01*
X74227669Y-108606184D01*
X74227736Y-108606523D01*
X74224372Y-108847472D01*
X74224295Y-108847810D01*
X74224295Y-108847819D01*
X74177637Y-109053187D01*
X74091836Y-109245899D01*
X73970234Y-109418280D01*
X73817466Y-109563759D01*
X73639353Y-109676793D01*
X73442672Y-109753080D01*
X73234927Y-109789712D01*
X73024017Y-109785293D01*
X72817984Y-109739995D01*
X72624672Y-109655538D01*
X72451451Y-109535146D01*
X72304909Y-109383399D01*
X72190633Y-109206076D01*
X72112973Y-109009931D01*
X72074893Y-108802449D01*
X72077838Y-108591515D01*
X72121699Y-108385168D01*
X72204802Y-108191274D01*
X72323985Y-108017212D01*
X72474704Y-107869616D01*
X72651225Y-107754105D01*
X72846819Y-107675079D01*
X73054033Y-107635552D01*
X73264988Y-107637024D01*
X73264988Y-107637024D01*
G37*
G36*
X65644988Y-107637024D02*
X65851626Y-107679441D01*
X66046104Y-107761192D01*
X66220991Y-107879155D01*
X66369636Y-108028841D01*
X66486375Y-108204548D01*
X66566763Y-108399584D01*
X66607669Y-108606174D01*
X66607669Y-108606184D01*
X66607736Y-108606523D01*
X66604372Y-108847472D01*
X66604295Y-108847810D01*
X66604295Y-108847819D01*
X66557637Y-109053187D01*
X66471836Y-109245899D01*
X66350234Y-109418280D01*
X66197466Y-109563759D01*
X66019353Y-109676793D01*
X65822672Y-109753080D01*
X65614927Y-109789712D01*
X65404017Y-109785293D01*
X65197984Y-109739995D01*
X65004672Y-109655538D01*
X64831451Y-109535146D01*
X64684909Y-109383399D01*
X64570633Y-109206076D01*
X64492973Y-109009931D01*
X64454893Y-108802449D01*
X64457838Y-108591515D01*
X64501699Y-108385168D01*
X64584802Y-108191274D01*
X64703985Y-108017212D01*
X64854704Y-107869616D01*
X65031225Y-107754105D01*
X65226819Y-107675079D01*
X65434033Y-107635552D01*
X65644988Y-107637024D01*
X65644988Y-107637024D01*
G37*
G36*
X101606194Y-107132154D02*
X101613570Y-107132205D01*
X101783528Y-107151269D01*
X101946546Y-107202982D01*
X102096416Y-107285373D01*
X102227427Y-107395305D01*
X102334592Y-107528590D01*
X102413826Y-107680152D01*
X102462113Y-107844218D01*
X102462116Y-107844249D01*
X102462120Y-107844263D01*
X102477615Y-108014534D01*
X102459743Y-108184577D01*
X102459742Y-108184582D01*
X102459737Y-108184625D01*
X102409164Y-108348000D01*
X102327821Y-108498441D01*
X102218806Y-108630217D01*
X102086272Y-108738309D01*
X101935267Y-108818600D01*
X101771543Y-108868031D01*
X101601335Y-108884720D01*
X100689308Y-108884720D01*
X100684486Y-108884686D01*
X100677110Y-108884635D01*
X100507152Y-108865571D01*
X100344134Y-108813858D01*
X100194264Y-108731467D01*
X100063253Y-108621535D01*
X99956088Y-108488250D01*
X99876854Y-108336688D01*
X99828567Y-108172622D01*
X99828564Y-108172591D01*
X99828560Y-108172577D01*
X99813065Y-108002306D01*
X99830937Y-107832263D01*
X99830938Y-107832258D01*
X99830943Y-107832215D01*
X99881516Y-107668840D01*
X99962859Y-107518399D01*
X100071874Y-107386623D01*
X100204408Y-107278531D01*
X100355413Y-107198240D01*
X100519137Y-107148809D01*
X100689345Y-107132120D01*
X101601372Y-107132120D01*
X101606194Y-107132154D01*
X101606194Y-107132154D01*
G37*
G36*
X107200807Y-103583903D02*
X107200813Y-103583904D01*
X107202863Y-103583918D01*
X107557065Y-103623648D01*
X107896804Y-103731420D01*
X108209141Y-103903128D01*
X108482177Y-104132233D01*
X108705513Y-104410007D01*
X108870643Y-104725871D01*
X108971276Y-105067793D01*
X108971279Y-105067829D01*
X108971282Y-105067838D01*
X109003581Y-105422747D01*
X108966330Y-105777173D01*
X108966327Y-105777183D01*
X108966323Y-105777221D01*
X108860926Y-106117704D01*
X108691402Y-106431232D01*
X108464209Y-106705861D01*
X108188001Y-106931131D01*
X107873298Y-107098461D01*
X107532086Y-107201479D01*
X107177364Y-107236260D01*
X103642602Y-107236260D01*
X103619193Y-107236097D01*
X103619187Y-107236096D01*
X103617137Y-107236082D01*
X103262935Y-107196352D01*
X102923196Y-107088580D01*
X102610859Y-106916872D01*
X102337823Y-106687767D01*
X102114487Y-106409993D01*
X101949357Y-106094129D01*
X101848724Y-105752207D01*
X101848721Y-105752171D01*
X101848718Y-105752162D01*
X101816419Y-105397253D01*
X101853670Y-105042827D01*
X101853673Y-105042817D01*
X101853677Y-105042779D01*
X101959074Y-104702296D01*
X102128598Y-104388768D01*
X102355791Y-104114139D01*
X102631999Y-103888869D01*
X102946702Y-103721539D01*
X103287914Y-103618521D01*
X103642636Y-103583740D01*
X107177398Y-103583740D01*
X107200807Y-103583903D01*
X107200807Y-103583903D01*
G37*
G36*
X82662988Y-104589024D02*
X82869626Y-104631441D01*
X83064104Y-104713192D01*
X83238991Y-104831155D01*
X83387636Y-104980841D01*
X83504375Y-105156548D01*
X83584763Y-105351584D01*
X83625669Y-105558174D01*
X83625669Y-105558184D01*
X83625736Y-105558523D01*
X83622372Y-105799472D01*
X83622295Y-105799810D01*
X83622295Y-105799819D01*
X83575637Y-106005187D01*
X83489836Y-106197899D01*
X83368234Y-106370280D01*
X83215466Y-106515759D01*
X83037353Y-106628793D01*
X82840672Y-106705080D01*
X82632927Y-106741712D01*
X82422017Y-106737293D01*
X82215984Y-106691995D01*
X82022672Y-106607538D01*
X81849451Y-106487146D01*
X81702909Y-106335399D01*
X81588633Y-106158076D01*
X81510973Y-105961931D01*
X81472893Y-105754449D01*
X81475838Y-105543515D01*
X81519699Y-105337168D01*
X81602802Y-105143274D01*
X81721985Y-104969212D01*
X81872704Y-104821616D01*
X82049225Y-104706105D01*
X82244819Y-104627079D01*
X82452033Y-104587552D01*
X82662988Y-104589024D01*
X82662988Y-104589024D01*
G37*
G36*
X90864117Y-103085807D02*
X90864127Y-103085810D01*
X90864164Y-103085814D01*
X91036774Y-103139245D01*
X91195718Y-103225186D01*
X91334942Y-103340363D01*
X91449143Y-103480388D01*
X91533972Y-103639928D01*
X91586198Y-103812906D01*
X91603830Y-103992734D01*
X91603830Y-105811302D01*
X91603755Y-105822137D01*
X91603754Y-105822144D01*
X91603740Y-105824193D01*
X91583598Y-106003757D01*
X91528963Y-106175989D01*
X91441915Y-106334329D01*
X91325769Y-106472746D01*
X91184950Y-106585968D01*
X91024822Y-106669681D01*
X90851483Y-106720697D01*
X90851447Y-106720700D01*
X90851438Y-106720703D01*
X90671539Y-106737075D01*
X90491883Y-106718193D01*
X90491873Y-106718190D01*
X90491836Y-106718186D01*
X90319226Y-106664755D01*
X90160282Y-106578814D01*
X90021058Y-106463637D01*
X89906857Y-106323612D01*
X89822028Y-106164072D01*
X89769802Y-105991094D01*
X89752170Y-105811266D01*
X89752170Y-103992698D01*
X89752245Y-103981863D01*
X89752246Y-103981856D01*
X89752260Y-103979807D01*
X89772402Y-103800243D01*
X89827037Y-103628011D01*
X89914085Y-103469671D01*
X90030231Y-103331254D01*
X90171050Y-103218032D01*
X90331178Y-103134319D01*
X90504517Y-103083303D01*
X90504553Y-103083300D01*
X90504562Y-103083297D01*
X90684461Y-103066925D01*
X90864117Y-103085807D01*
X90864117Y-103085807D01*
G37*
G36*
X93404117Y-103085807D02*
X93404127Y-103085810D01*
X93404164Y-103085814D01*
X93576774Y-103139245D01*
X93735718Y-103225186D01*
X93874942Y-103340363D01*
X93989143Y-103480388D01*
X94073972Y-103639928D01*
X94126198Y-103812906D01*
X94143830Y-103992734D01*
X94143830Y-105811302D01*
X94143755Y-105822137D01*
X94143754Y-105822144D01*
X94143740Y-105824193D01*
X94123598Y-106003757D01*
X94068963Y-106175989D01*
X93981915Y-106334329D01*
X93865769Y-106472746D01*
X93724950Y-106585968D01*
X93564822Y-106669681D01*
X93391483Y-106720697D01*
X93391447Y-106720700D01*
X93391438Y-106720703D01*
X93211539Y-106737075D01*
X93031883Y-106718193D01*
X93031873Y-106718190D01*
X93031836Y-106718186D01*
X92859226Y-106664755D01*
X92700282Y-106578814D01*
X92561058Y-106463637D01*
X92446857Y-106323612D01*
X92362028Y-106164072D01*
X92309802Y-105991094D01*
X92292170Y-105811266D01*
X92292170Y-103992698D01*
X92292245Y-103981863D01*
X92292246Y-103981856D01*
X92292260Y-103979807D01*
X92312402Y-103800243D01*
X92367037Y-103628011D01*
X92454085Y-103469671D01*
X92570231Y-103331254D01*
X92711050Y-103218032D01*
X92871178Y-103134319D01*
X93044517Y-103083303D01*
X93044553Y-103083300D01*
X93044562Y-103083297D01*
X93224461Y-103066925D01*
X93404117Y-103085807D01*
X93404117Y-103085807D01*
G37*
G36*
X88324117Y-103085807D02*
X88324127Y-103085810D01*
X88324164Y-103085814D01*
X88496774Y-103139245D01*
X88655718Y-103225186D01*
X88794942Y-103340363D01*
X88909143Y-103480388D01*
X88993972Y-103639928D01*
X89046198Y-103812906D01*
X89063830Y-103992734D01*
X89063830Y-105811302D01*
X89063755Y-105822137D01*
X89063754Y-105822144D01*
X89063740Y-105824193D01*
X89043598Y-106003757D01*
X88988963Y-106175989D01*
X88901915Y-106334329D01*
X88785769Y-106472746D01*
X88644950Y-106585968D01*
X88484822Y-106669681D01*
X88311483Y-106720697D01*
X88311447Y-106720700D01*
X88311438Y-106720703D01*
X88131539Y-106737075D01*
X87951883Y-106718193D01*
X87951873Y-106718190D01*
X87951836Y-106718186D01*
X87779226Y-106664755D01*
X87620282Y-106578814D01*
X87481058Y-106463637D01*
X87366857Y-106323612D01*
X87282028Y-106164072D01*
X87229802Y-105991094D01*
X87212170Y-105811266D01*
X87212170Y-103992698D01*
X87212245Y-103981863D01*
X87212246Y-103981856D01*
X87212260Y-103979807D01*
X87232402Y-103800243D01*
X87287037Y-103628011D01*
X87374085Y-103469671D01*
X87490231Y-103331254D01*
X87631050Y-103218032D01*
X87791178Y-103134319D01*
X87964517Y-103083303D01*
X87964553Y-103083300D01*
X87964562Y-103083297D01*
X88144461Y-103066925D01*
X88324117Y-103085807D01*
X88324117Y-103085807D01*
G37*
G36*
X69962988Y-102811024D02*
X70169626Y-102853441D01*
X70364104Y-102935192D01*
X70538991Y-103053155D01*
X70687636Y-103202841D01*
X70804375Y-103378548D01*
X70884763Y-103573584D01*
X70925669Y-103780174D01*
X70925669Y-103780184D01*
X70925736Y-103780523D01*
X70922372Y-104021472D01*
X70922295Y-104021810D01*
X70922295Y-104021819D01*
X70875637Y-104227187D01*
X70789836Y-104419899D01*
X70668234Y-104592280D01*
X70515466Y-104737759D01*
X70337353Y-104850793D01*
X70140672Y-104927080D01*
X69932927Y-104963712D01*
X69722017Y-104959293D01*
X69515984Y-104913995D01*
X69322672Y-104829538D01*
X69149451Y-104709146D01*
X69002909Y-104557399D01*
X68888633Y-104380076D01*
X68810973Y-104183931D01*
X68772893Y-103976449D01*
X68775838Y-103765515D01*
X68819699Y-103559168D01*
X68902802Y-103365274D01*
X69021985Y-103191212D01*
X69172704Y-103043616D01*
X69349225Y-102928105D01*
X69544819Y-102849079D01*
X69752033Y-102809552D01*
X69962988Y-102811024D01*
X69962988Y-102811024D01*
G37*
G36*
X77725531Y-102348315D02*
X77874636Y-102378923D01*
X78014969Y-102437913D01*
X78141162Y-102523032D01*
X78248424Y-102631044D01*
X78332662Y-102757834D01*
X78390667Y-102898565D01*
X78418090Y-103037060D01*
X78420234Y-103047890D01*
X78417806Y-103221754D01*
X78417728Y-103222097D01*
X78417728Y-103222101D01*
X78384082Y-103370196D01*
X78322170Y-103509252D01*
X78234424Y-103633640D01*
X78124189Y-103738615D01*
X77995664Y-103820180D01*
X77853746Y-103875226D01*
X77703840Y-103901659D01*
X77551649Y-103898470D01*
X77402980Y-103865784D01*
X77263488Y-103804841D01*
X77138496Y-103717969D01*
X77032754Y-103608470D01*
X76950294Y-103480517D01*
X76894256Y-103338982D01*
X76866778Y-103189266D01*
X76868903Y-103037060D01*
X76900553Y-102888163D01*
X76960517Y-102748253D01*
X77046518Y-102622653D01*
X77155275Y-102516150D01*
X77282650Y-102432799D01*
X77423787Y-102375775D01*
X77573308Y-102347253D01*
X77725531Y-102348315D01*
X77725531Y-102348315D01*
G37*
G36*
X73420200Y-103900200D02*
X71867800Y-103900200D01*
X71867800Y-102347800D01*
X73420200Y-102347800D01*
X73420200Y-103900200D01*
X73420200Y-103900200D01*
G37*
G36*
X65546200Y-103646200D02*
X63993800Y-103646200D01*
X63993800Y-102093800D01*
X65546200Y-102093800D01*
X65546200Y-103646200D01*
X65546200Y-103646200D01*
G37*
G36*
X58242200Y-102184200D02*
X56057800Y-102184200D01*
X56057800Y-99999800D01*
X58242200Y-99999800D01*
X58242200Y-102184200D01*
X58242200Y-102184200D01*
G37*
G36*
X107200807Y-97254223D02*
X107200813Y-97254224D01*
X107202863Y-97254238D01*
X107557065Y-97293968D01*
X107896804Y-97401740D01*
X108209141Y-97573448D01*
X108482177Y-97802553D01*
X108705513Y-98080327D01*
X108870643Y-98396191D01*
X108971276Y-98738113D01*
X108971279Y-98738149D01*
X108971282Y-98738158D01*
X109003581Y-99093067D01*
X108966330Y-99447493D01*
X108966327Y-99447503D01*
X108966323Y-99447541D01*
X108860926Y-99788024D01*
X108691402Y-100101552D01*
X108464209Y-100376181D01*
X108188001Y-100601451D01*
X107873298Y-100768781D01*
X107532086Y-100871799D01*
X107177364Y-100906580D01*
X103642602Y-100906580D01*
X103619193Y-100906417D01*
X103619187Y-100906416D01*
X103617137Y-100906402D01*
X103262935Y-100866672D01*
X102923196Y-100758900D01*
X102610859Y-100587192D01*
X102337823Y-100358087D01*
X102114487Y-100080313D01*
X101949357Y-99764449D01*
X101848724Y-99422527D01*
X101848721Y-99422491D01*
X101848718Y-99422482D01*
X101816419Y-99067573D01*
X101853670Y-98713147D01*
X101853673Y-98713137D01*
X101853677Y-98713099D01*
X101959074Y-98372616D01*
X102128598Y-98059088D01*
X102355791Y-97784459D01*
X102631999Y-97559189D01*
X102946702Y-97391859D01*
X103287914Y-97288841D01*
X103642636Y-97254060D01*
X107177398Y-97254060D01*
X107200807Y-97254223D01*
X107200807Y-97254223D01*
G37*
G36*
X96579690Y-100135690D02*
X94428310Y-100135690D01*
X94428310Y-97984310D01*
X96579690Y-97984310D01*
X96579690Y-100135690D01*
X96579690Y-100135690D01*
G37*
G36*
X57161395Y-97459842D02*
X57170534Y-97459906D01*
X57382366Y-97483667D01*
X57585548Y-97548120D01*
X57772342Y-97650811D01*
X57935632Y-97787828D01*
X58069199Y-97953951D01*
X58167955Y-98142855D01*
X58228139Y-98347342D01*
X58228143Y-98347383D01*
X58228144Y-98347387D01*
X58247459Y-98559623D01*
X58225183Y-98771570D01*
X58225181Y-98771575D01*
X58225177Y-98771617D01*
X58162144Y-98975245D01*
X58060760Y-99162750D01*
X57924886Y-99326993D01*
X57759699Y-99461717D01*
X57571490Y-99561789D01*
X57367428Y-99623399D01*
X57155285Y-99644200D01*
X57144679Y-99644200D01*
X57138605Y-99644158D01*
X57129466Y-99644094D01*
X56917634Y-99620333D01*
X56714452Y-99555880D01*
X56527658Y-99453189D01*
X56364368Y-99316172D01*
X56230801Y-99150049D01*
X56132045Y-98961145D01*
X56071861Y-98756658D01*
X56071857Y-98756617D01*
X56071856Y-98756613D01*
X56052541Y-98544377D01*
X56074817Y-98332430D01*
X56074819Y-98332425D01*
X56074823Y-98332383D01*
X56137856Y-98128755D01*
X56239240Y-97941250D01*
X56375114Y-97777007D01*
X56540301Y-97642283D01*
X56728510Y-97542211D01*
X56932572Y-97480601D01*
X57144715Y-97459800D01*
X57155321Y-97459800D01*
X57161395Y-97459842D01*
X57161395Y-97459842D01*
G37*
G36*
X90282988Y-97477024D02*
X90489626Y-97519441D01*
X90684104Y-97601192D01*
X90858991Y-97719155D01*
X91007636Y-97868841D01*
X91124375Y-98044548D01*
X91204763Y-98239584D01*
X91245669Y-98446174D01*
X91245669Y-98446184D01*
X91245736Y-98446523D01*
X91242372Y-98687472D01*
X91242295Y-98687810D01*
X91242295Y-98687819D01*
X91195637Y-98893187D01*
X91109836Y-99085899D01*
X90988234Y-99258280D01*
X90835466Y-99403759D01*
X90657353Y-99516793D01*
X90460672Y-99593080D01*
X90252927Y-99629712D01*
X90042017Y-99625293D01*
X89835984Y-99579995D01*
X89642672Y-99495538D01*
X89469451Y-99375146D01*
X89322909Y-99223399D01*
X89208633Y-99046076D01*
X89130973Y-98849931D01*
X89092893Y-98642449D01*
X89095838Y-98431515D01*
X89139699Y-98225168D01*
X89222802Y-98031274D01*
X89341985Y-97857212D01*
X89492704Y-97709616D01*
X89669225Y-97594105D01*
X89864819Y-97515079D01*
X90072033Y-97475552D01*
X90282988Y-97477024D01*
X90282988Y-97477024D01*
G37*
G36*
X83094280Y-97572281D02*
X83233779Y-97600917D01*
X83365073Y-97656108D01*
X83483140Y-97735745D01*
X83583491Y-97836798D01*
X83662300Y-97955417D01*
X83716571Y-98087087D01*
X83744164Y-98226443D01*
X83744164Y-98226453D01*
X83744231Y-98226792D01*
X83741960Y-98389457D01*
X83741883Y-98389795D01*
X83741883Y-98389804D01*
X83710409Y-98528337D01*
X83652486Y-98658436D01*
X83570391Y-98774811D01*
X83467258Y-98873024D01*
X83347013Y-98949334D01*
X83214233Y-99000836D01*
X83073985Y-99025566D01*
X82931599Y-99022583D01*
X82792504Y-98992001D01*
X82661999Y-98934985D01*
X82545058Y-98853709D01*
X82446127Y-98751263D01*
X82368979Y-98631552D01*
X82316550Y-98499133D01*
X82290843Y-98359063D01*
X82292831Y-98216661D01*
X82322442Y-98077355D01*
X82378544Y-97946457D01*
X82459005Y-97828947D01*
X82560756Y-97729305D01*
X82679926Y-97651323D01*
X82811972Y-97597972D01*
X82951862Y-97571287D01*
X83094280Y-97572281D01*
X83094280Y-97572281D01*
G37*
G36*
X81244200Y-99024200D02*
X79791800Y-99024200D01*
X79791800Y-97571800D01*
X81244200Y-97571800D01*
X81244200Y-99024200D01*
X81244200Y-99024200D01*
G37*
G36*
X64851531Y-97094315D02*
X65000636Y-97124923D01*
X65140969Y-97183913D01*
X65267162Y-97269032D01*
X65374424Y-97377044D01*
X65458662Y-97503834D01*
X65516667Y-97644565D01*
X65544090Y-97783060D01*
X65546234Y-97793890D01*
X65543806Y-97967754D01*
X65543728Y-97968097D01*
X65543728Y-97968101D01*
X65510082Y-98116196D01*
X65448170Y-98255252D01*
X65360424Y-98379640D01*
X65250189Y-98484615D01*
X65121664Y-98566180D01*
X64979746Y-98621226D01*
X64829840Y-98647659D01*
X64677649Y-98644470D01*
X64528980Y-98611784D01*
X64389488Y-98550841D01*
X64264496Y-98463969D01*
X64158754Y-98354470D01*
X64076294Y-98226517D01*
X64020256Y-98084982D01*
X63992778Y-97935266D01*
X63994903Y-97783060D01*
X64026553Y-97634163D01*
X64086517Y-97494253D01*
X64172518Y-97368653D01*
X64281275Y-97262150D01*
X64408650Y-97178799D01*
X64549787Y-97121775D01*
X64699308Y-97093253D01*
X64851531Y-97094315D01*
X64851531Y-97094315D01*
G37*
G36*
X69962988Y-95191024D02*
X70169626Y-95233441D01*
X70364104Y-95315192D01*
X70538991Y-95433155D01*
X70687636Y-95582841D01*
X70804375Y-95758548D01*
X70884763Y-95953584D01*
X70925669Y-96160174D01*
X70925669Y-96160184D01*
X70925736Y-96160523D01*
X70922372Y-96401472D01*
X70922295Y-96401810D01*
X70922295Y-96401819D01*
X70875637Y-96607187D01*
X70789836Y-96799899D01*
X70668234Y-96972280D01*
X70515466Y-97117759D01*
X70337353Y-97230793D01*
X70140672Y-97307080D01*
X69932927Y-97343712D01*
X69722017Y-97339293D01*
X69515984Y-97293995D01*
X69322672Y-97209538D01*
X69149451Y-97089146D01*
X69002909Y-96937399D01*
X68888633Y-96760076D01*
X68810973Y-96563931D01*
X68772893Y-96356449D01*
X68775838Y-96145515D01*
X68819699Y-95939168D01*
X68902802Y-95745274D01*
X69021985Y-95571212D01*
X69172704Y-95423616D01*
X69349225Y-95308105D01*
X69544819Y-95229079D01*
X69752033Y-95189552D01*
X69962988Y-95191024D01*
X69962988Y-95191024D01*
G37*
G36*
X74273676Y-95191963D02*
X74273681Y-95191965D01*
X74273723Y-95191969D01*
X74371748Y-95222313D01*
X74462012Y-95271119D01*
X74541078Y-95336527D01*
X74605933Y-95416048D01*
X74654108Y-95506651D01*
X74683767Y-95604885D01*
X74693780Y-95707010D01*
X74693780Y-96316990D01*
X74693729Y-96324331D01*
X74682290Y-96426306D01*
X74651263Y-96524117D01*
X74601828Y-96614038D01*
X74535869Y-96692645D01*
X74455898Y-96756944D01*
X74364961Y-96804485D01*
X74266521Y-96833457D01*
X74266485Y-96833460D01*
X74266476Y-96833463D01*
X74164333Y-96842759D01*
X74062324Y-96832037D01*
X74062319Y-96832035D01*
X74062277Y-96832031D01*
X73964252Y-96801687D01*
X73873988Y-96752881D01*
X73794922Y-96687473D01*
X73730067Y-96607952D01*
X73681892Y-96517349D01*
X73652233Y-96419115D01*
X73642220Y-96316990D01*
X73642220Y-95707010D01*
X73642271Y-95699669D01*
X73653710Y-95597694D01*
X73684737Y-95499883D01*
X73734172Y-95409962D01*
X73800131Y-95331355D01*
X73880102Y-95267056D01*
X73971039Y-95219515D01*
X74069479Y-95190543D01*
X74069515Y-95190540D01*
X74069524Y-95190537D01*
X74171667Y-95181241D01*
X74273676Y-95191963D01*
X74273676Y-95191963D01*
G37*
G36*
X76813676Y-95191963D02*
X76813681Y-95191965D01*
X76813723Y-95191969D01*
X76911748Y-95222313D01*
X77002012Y-95271119D01*
X77081078Y-95336527D01*
X77145933Y-95416048D01*
X77194108Y-95506651D01*
X77223767Y-95604885D01*
X77233780Y-95707010D01*
X77233780Y-96316990D01*
X77233729Y-96324331D01*
X77222290Y-96426306D01*
X77191263Y-96524117D01*
X77141828Y-96614038D01*
X77075869Y-96692645D01*
X76995898Y-96756944D01*
X76904961Y-96804485D01*
X76806521Y-96833457D01*
X76806485Y-96833460D01*
X76806476Y-96833463D01*
X76704333Y-96842759D01*
X76602324Y-96832037D01*
X76602319Y-96832035D01*
X76602277Y-96832031D01*
X76504252Y-96801687D01*
X76413988Y-96752881D01*
X76334922Y-96687473D01*
X76270067Y-96607952D01*
X76221892Y-96517349D01*
X76192233Y-96419115D01*
X76182220Y-96316990D01*
X76182220Y-95707010D01*
X76182271Y-95699669D01*
X76193710Y-95597694D01*
X76224737Y-95499883D01*
X76274172Y-95409962D01*
X76340131Y-95331355D01*
X76420102Y-95267056D01*
X76511039Y-95219515D01*
X76609479Y-95190543D01*
X76609515Y-95190540D01*
X76609524Y-95190537D01*
X76711667Y-95181241D01*
X76813676Y-95191963D01*
X76813676Y-95191963D01*
G37*
G36*
X75543676Y-95191963D02*
X75543681Y-95191965D01*
X75543723Y-95191969D01*
X75641748Y-95222313D01*
X75732012Y-95271119D01*
X75811078Y-95336527D01*
X75875933Y-95416048D01*
X75924108Y-95506651D01*
X75953767Y-95604885D01*
X75963780Y-95707010D01*
X75963780Y-96316990D01*
X75963729Y-96324331D01*
X75952290Y-96426306D01*
X75921263Y-96524117D01*
X75871828Y-96614038D01*
X75805869Y-96692645D01*
X75725898Y-96756944D01*
X75634961Y-96804485D01*
X75536521Y-96833457D01*
X75536485Y-96833460D01*
X75536476Y-96833463D01*
X75434333Y-96842759D01*
X75332324Y-96832037D01*
X75332319Y-96832035D01*
X75332277Y-96832031D01*
X75234252Y-96801687D01*
X75143988Y-96752881D01*
X75064922Y-96687473D01*
X75000067Y-96607952D01*
X74951892Y-96517349D01*
X74922233Y-96419115D01*
X74912220Y-96316990D01*
X74912220Y-95707010D01*
X74912271Y-95699669D01*
X74923710Y-95597694D01*
X74954737Y-95499883D01*
X75004172Y-95409962D01*
X75070131Y-95331355D01*
X75150102Y-95267056D01*
X75241039Y-95219515D01*
X75339479Y-95190543D01*
X75339515Y-95190540D01*
X75339524Y-95190537D01*
X75441667Y-95181241D01*
X75543676Y-95191963D01*
X75543676Y-95191963D01*
G37*
G36*
X101606194Y-93103734D02*
X101613570Y-93103785D01*
X101783528Y-93122849D01*
X101946546Y-93174562D01*
X102096416Y-93256953D01*
X102227427Y-93366885D01*
X102334592Y-93500170D01*
X102413826Y-93651732D01*
X102462113Y-93815798D01*
X102462116Y-93815829D01*
X102462120Y-93815843D01*
X102477615Y-93986114D01*
X102459743Y-94156157D01*
X102459742Y-94156162D01*
X102459737Y-94156205D01*
X102409164Y-94319580D01*
X102327821Y-94470021D01*
X102218806Y-94601797D01*
X102086272Y-94709889D01*
X101935267Y-94790180D01*
X101771543Y-94839611D01*
X101601335Y-94856300D01*
X100689308Y-94856300D01*
X100684486Y-94856266D01*
X100677110Y-94856215D01*
X100507152Y-94837151D01*
X100344134Y-94785438D01*
X100194264Y-94703047D01*
X100063253Y-94593115D01*
X99956088Y-94459830D01*
X99876854Y-94308268D01*
X99828567Y-94144202D01*
X99828564Y-94144171D01*
X99828560Y-94144157D01*
X99813065Y-93973886D01*
X99830937Y-93803843D01*
X99830938Y-93803838D01*
X99830943Y-93803795D01*
X99881516Y-93640420D01*
X99962859Y-93489979D01*
X100071874Y-93358203D01*
X100204408Y-93250111D01*
X100355413Y-93169820D01*
X100519137Y-93120389D01*
X100689345Y-93103700D01*
X101601372Y-93103700D01*
X101606194Y-93103734D01*
X101606194Y-93103734D01*
G37*
G36*
X69454988Y-91635024D02*
X69661626Y-91677441D01*
X69856104Y-91759192D01*
X70030991Y-91877155D01*
X70179636Y-92026841D01*
X70296375Y-92202548D01*
X70376763Y-92397584D01*
X70417669Y-92604174D01*
X70417669Y-92604184D01*
X70417736Y-92604523D01*
X70414372Y-92845472D01*
X70414295Y-92845810D01*
X70414295Y-92845819D01*
X70367637Y-93051187D01*
X70281836Y-93243899D01*
X70160234Y-93416280D01*
X70007466Y-93561759D01*
X69829353Y-93674793D01*
X69632672Y-93751080D01*
X69424927Y-93787712D01*
X69214017Y-93783293D01*
X69007984Y-93737995D01*
X68814672Y-93653538D01*
X68641451Y-93533146D01*
X68494909Y-93381399D01*
X68380633Y-93204076D01*
X68302973Y-93007931D01*
X68264893Y-92800449D01*
X68267838Y-92589515D01*
X68311699Y-92383168D01*
X68394802Y-92189274D01*
X68513985Y-92015212D01*
X68664704Y-91867616D01*
X68841225Y-91752105D01*
X69036819Y-91673079D01*
X69244033Y-91633552D01*
X69454988Y-91635024D01*
X69454988Y-91635024D01*
G37*
G36*
X60359531Y-90918315D02*
X60508636Y-90948923D01*
X60648969Y-91007913D01*
X60775162Y-91093032D01*
X60882424Y-91201044D01*
X60966662Y-91327834D01*
X61024667Y-91468565D01*
X61052090Y-91607060D01*
X61054234Y-91617890D01*
X61051806Y-91791754D01*
X61051728Y-91792097D01*
X61051728Y-91792101D01*
X61018082Y-91940196D01*
X60956170Y-92079252D01*
X60868424Y-92203640D01*
X60758189Y-92308615D01*
X60629664Y-92390180D01*
X60487746Y-92445226D01*
X60337840Y-92471659D01*
X60185649Y-92468470D01*
X60036980Y-92435784D01*
X59897488Y-92374841D01*
X59772496Y-92287969D01*
X59666754Y-92178470D01*
X59584294Y-92050517D01*
X59528256Y-91908982D01*
X59500778Y-91759266D01*
X59502903Y-91607060D01*
X59534553Y-91458163D01*
X59594517Y-91318253D01*
X59680518Y-91192653D01*
X59789275Y-91086150D01*
X59916650Y-91002799D01*
X60057787Y-90945775D01*
X60207308Y-90917253D01*
X60359531Y-90918315D01*
X60359531Y-90918315D01*
G37*
G36*
X66054200Y-92470200D02*
X64501800Y-92470200D01*
X64501800Y-90917800D01*
X66054200Y-90917800D01*
X66054200Y-92470200D01*
X66054200Y-92470200D01*
G37*
G36*
X101606194Y-90604374D02*
X101613570Y-90604425D01*
X101783528Y-90623489D01*
X101946546Y-90675202D01*
X102096416Y-90757593D01*
X102227427Y-90867525D01*
X102334592Y-91000810D01*
X102413826Y-91152372D01*
X102462113Y-91316438D01*
X102462116Y-91316469D01*
X102462120Y-91316483D01*
X102477615Y-91486754D01*
X102459743Y-91656797D01*
X102459742Y-91656802D01*
X102459737Y-91656845D01*
X102409164Y-91820220D01*
X102327821Y-91970661D01*
X102218806Y-92102437D01*
X102086272Y-92210529D01*
X101935267Y-92290820D01*
X101771543Y-92340251D01*
X101601335Y-92356940D01*
X100689308Y-92356940D01*
X100684486Y-92356906D01*
X100677110Y-92356855D01*
X100507152Y-92337791D01*
X100344134Y-92286078D01*
X100194264Y-92203687D01*
X100063253Y-92093755D01*
X99956088Y-91960470D01*
X99876854Y-91808908D01*
X99828567Y-91644842D01*
X99828564Y-91644811D01*
X99828560Y-91644797D01*
X99813065Y-91474526D01*
X99830937Y-91304483D01*
X99830938Y-91304478D01*
X99830943Y-91304435D01*
X99881516Y-91141060D01*
X99962859Y-90990619D01*
X100071874Y-90858843D01*
X100204408Y-90750751D01*
X100355413Y-90670460D01*
X100519137Y-90621029D01*
X100689345Y-90604340D01*
X101601372Y-90604340D01*
X101606194Y-90604374D01*
X101606194Y-90604374D01*
G37*
G36*
X77067676Y-90365963D02*
X77067681Y-90365965D01*
X77067723Y-90365969D01*
X77165748Y-90396313D01*
X77256012Y-90445119D01*
X77335078Y-90510527D01*
X77399933Y-90590048D01*
X77448108Y-90680651D01*
X77477767Y-90778885D01*
X77487780Y-90881010D01*
X77487780Y-91490990D01*
X77487729Y-91498331D01*
X77476290Y-91600306D01*
X77445263Y-91698117D01*
X77395828Y-91788038D01*
X77329869Y-91866645D01*
X77249898Y-91930944D01*
X77158961Y-91978485D01*
X77060521Y-92007457D01*
X77060485Y-92007460D01*
X77060476Y-92007463D01*
X76958333Y-92016759D01*
X76856324Y-92006037D01*
X76856319Y-92006035D01*
X76856277Y-92006031D01*
X76758252Y-91975687D01*
X76667988Y-91926881D01*
X76588922Y-91861473D01*
X76524067Y-91781952D01*
X76475892Y-91691349D01*
X76446233Y-91593115D01*
X76436220Y-91490990D01*
X76436220Y-90881010D01*
X76436271Y-90873669D01*
X76447710Y-90771694D01*
X76478737Y-90673883D01*
X76528172Y-90583962D01*
X76594131Y-90505355D01*
X76674102Y-90441056D01*
X76765039Y-90393515D01*
X76863479Y-90364543D01*
X76863515Y-90364540D01*
X76863524Y-90364537D01*
X76965667Y-90355241D01*
X77067676Y-90365963D01*
X77067676Y-90365963D01*
G37*
G36*
X75797676Y-90365963D02*
X75797681Y-90365965D01*
X75797723Y-90365969D01*
X75895748Y-90396313D01*
X75986012Y-90445119D01*
X76065078Y-90510527D01*
X76129933Y-90590048D01*
X76178108Y-90680651D01*
X76207767Y-90778885D01*
X76217780Y-90881010D01*
X76217780Y-91490990D01*
X76217729Y-91498331D01*
X76206290Y-91600306D01*
X76175263Y-91698117D01*
X76125828Y-91788038D01*
X76059869Y-91866645D01*
X75979898Y-91930944D01*
X75888961Y-91978485D01*
X75790521Y-92007457D01*
X75790485Y-92007460D01*
X75790476Y-92007463D01*
X75688333Y-92016759D01*
X75586324Y-92006037D01*
X75586319Y-92006035D01*
X75586277Y-92006031D01*
X75488252Y-91975687D01*
X75397988Y-91926881D01*
X75318922Y-91861473D01*
X75254067Y-91781952D01*
X75205892Y-91691349D01*
X75176233Y-91593115D01*
X75166220Y-91490990D01*
X75166220Y-90881010D01*
X75166271Y-90873669D01*
X75177710Y-90771694D01*
X75208737Y-90673883D01*
X75258172Y-90583962D01*
X75324131Y-90505355D01*
X75404102Y-90441056D01*
X75495039Y-90393515D01*
X75593479Y-90364543D01*
X75593515Y-90364540D01*
X75593524Y-90364537D01*
X75695667Y-90355241D01*
X75797676Y-90365963D01*
X75797676Y-90365963D01*
G37*
G36*
X74527676Y-90365963D02*
X74527681Y-90365965D01*
X74527723Y-90365969D01*
X74625748Y-90396313D01*
X74716012Y-90445119D01*
X74795078Y-90510527D01*
X74859933Y-90590048D01*
X74908108Y-90680651D01*
X74937767Y-90778885D01*
X74947780Y-90881010D01*
X74947780Y-91490990D01*
X74947729Y-91498331D01*
X74936290Y-91600306D01*
X74905263Y-91698117D01*
X74855828Y-91788038D01*
X74789869Y-91866645D01*
X74709898Y-91930944D01*
X74618961Y-91978485D01*
X74520521Y-92007457D01*
X74520485Y-92007460D01*
X74520476Y-92007463D01*
X74418333Y-92016759D01*
X74316324Y-92006037D01*
X74316319Y-92006035D01*
X74316277Y-92006031D01*
X74218252Y-91975687D01*
X74127988Y-91926881D01*
X74048922Y-91861473D01*
X73984067Y-91781952D01*
X73935892Y-91691349D01*
X73906233Y-91593115D01*
X73896220Y-91490990D01*
X73896220Y-90881010D01*
X73896271Y-90873669D01*
X73907710Y-90771694D01*
X73938737Y-90673883D01*
X73988172Y-90583962D01*
X74054131Y-90505355D01*
X74134102Y-90441056D01*
X74225039Y-90393515D01*
X74323479Y-90364543D01*
X74323515Y-90364540D01*
X74323524Y-90364537D01*
X74425667Y-90355241D01*
X74527676Y-90365963D01*
X74527676Y-90365963D01*
G37*
G36*
X90282988Y-89857024D02*
X90489626Y-89899441D01*
X90684104Y-89981192D01*
X90858991Y-90099155D01*
X91007636Y-90248841D01*
X91124375Y-90424548D01*
X91204763Y-90619584D01*
X91245669Y-90826174D01*
X91245669Y-90826184D01*
X91245736Y-90826523D01*
X91242372Y-91067472D01*
X91242295Y-91067810D01*
X91242295Y-91067819D01*
X91195637Y-91273187D01*
X91109836Y-91465899D01*
X90988234Y-91638280D01*
X90835466Y-91783759D01*
X90657353Y-91896793D01*
X90460672Y-91973080D01*
X90252927Y-92009712D01*
X90042017Y-92005293D01*
X89835984Y-91959995D01*
X89642672Y-91875538D01*
X89469451Y-91755146D01*
X89322909Y-91603399D01*
X89208633Y-91426076D01*
X89130973Y-91229931D01*
X89092893Y-91022449D01*
X89095838Y-90811515D01*
X89139699Y-90605168D01*
X89222802Y-90411274D01*
X89341985Y-90237212D01*
X89492704Y-90089616D01*
X89669225Y-89974105D01*
X89864819Y-89895079D01*
X90072033Y-89855552D01*
X90282988Y-89857024D01*
X90282988Y-89857024D01*
G37*
G36*
X107200807Y-87056123D02*
X107200813Y-87056124D01*
X107202863Y-87056138D01*
X107557065Y-87095868D01*
X107896804Y-87203640D01*
X108209141Y-87375348D01*
X108482177Y-87604453D01*
X108705513Y-87882227D01*
X108870643Y-88198091D01*
X108971276Y-88540013D01*
X108971279Y-88540049D01*
X108971282Y-88540058D01*
X109003581Y-88894967D01*
X108966330Y-89249393D01*
X108966327Y-89249403D01*
X108966323Y-89249441D01*
X108860926Y-89589924D01*
X108691402Y-89903452D01*
X108464209Y-90178081D01*
X108188001Y-90403351D01*
X107873298Y-90570681D01*
X107532086Y-90673699D01*
X107177364Y-90708480D01*
X103642602Y-90708480D01*
X103619193Y-90708317D01*
X103619187Y-90708316D01*
X103617137Y-90708302D01*
X103262935Y-90668572D01*
X102923196Y-90560800D01*
X102610859Y-90389092D01*
X102337823Y-90159987D01*
X102114487Y-89882213D01*
X101949357Y-89566349D01*
X101848724Y-89224427D01*
X101848721Y-89224391D01*
X101848718Y-89224382D01*
X101816419Y-88869473D01*
X101853670Y-88515047D01*
X101853673Y-88515037D01*
X101853677Y-88514999D01*
X101959074Y-88174516D01*
X102128598Y-87860988D01*
X102355791Y-87586359D01*
X102631999Y-87361089D01*
X102946702Y-87193759D01*
X103287914Y-87090741D01*
X103642636Y-87055960D01*
X107177398Y-87055960D01*
X107200807Y-87056123D01*
X107200807Y-87056123D01*
G37*
G36*
X84190280Y-88682281D02*
X84329779Y-88710917D01*
X84461073Y-88766108D01*
X84579140Y-88845745D01*
X84679491Y-88946798D01*
X84758300Y-89065417D01*
X84812571Y-89197087D01*
X84840164Y-89336443D01*
X84840164Y-89336453D01*
X84840231Y-89336792D01*
X84837960Y-89499457D01*
X84837883Y-89499795D01*
X84837883Y-89499804D01*
X84806409Y-89638337D01*
X84748486Y-89768436D01*
X84666391Y-89884811D01*
X84563258Y-89983024D01*
X84443013Y-90059334D01*
X84310233Y-90110836D01*
X84169985Y-90135566D01*
X84027599Y-90132583D01*
X83888504Y-90102001D01*
X83757999Y-90044985D01*
X83641058Y-89963709D01*
X83542127Y-89861263D01*
X83464979Y-89741552D01*
X83412550Y-89609133D01*
X83386843Y-89469063D01*
X83388831Y-89326661D01*
X83418442Y-89187355D01*
X83474544Y-89056457D01*
X83555005Y-88938947D01*
X83656756Y-88839305D01*
X83775926Y-88761323D01*
X83907972Y-88707972D01*
X84047862Y-88681287D01*
X84190280Y-88682281D01*
X84190280Y-88682281D01*
G37*
G36*
X87340200Y-90134200D02*
X85887800Y-90134200D01*
X85887800Y-88681800D01*
X87340200Y-88681800D01*
X87340200Y-90134200D01*
X87340200Y-90134200D01*
G37*
G36*
X95616988Y-87825024D02*
X95823626Y-87867441D01*
X96018104Y-87949192D01*
X96192991Y-88067155D01*
X96341636Y-88216841D01*
X96458375Y-88392548D01*
X96538763Y-88587584D01*
X96579669Y-88794174D01*
X96579669Y-88794184D01*
X96579736Y-88794523D01*
X96576372Y-89035472D01*
X96576295Y-89035810D01*
X96576295Y-89035819D01*
X96529637Y-89241187D01*
X96443836Y-89433899D01*
X96322234Y-89606280D01*
X96169466Y-89751759D01*
X95991353Y-89864793D01*
X95794672Y-89941080D01*
X95586927Y-89977712D01*
X95376017Y-89973293D01*
X95169984Y-89927995D01*
X94976672Y-89843538D01*
X94803451Y-89723146D01*
X94656909Y-89571399D01*
X94542633Y-89394076D01*
X94464973Y-89197931D01*
X94426893Y-88990449D01*
X94429838Y-88779515D01*
X94473699Y-88573168D01*
X94556802Y-88379274D01*
X94675985Y-88205212D01*
X94826704Y-88057616D01*
X95003225Y-87942105D01*
X95198819Y-87863079D01*
X95406033Y-87823552D01*
X95616988Y-87825024D01*
X95616988Y-87825024D01*
G37*
G36*
X69454988Y-84015024D02*
X69661626Y-84057441D01*
X69856104Y-84139192D01*
X70030991Y-84257155D01*
X70179636Y-84406841D01*
X70296375Y-84582548D01*
X70376763Y-84777584D01*
X70417669Y-84984174D01*
X70417669Y-84984184D01*
X70417736Y-84984523D01*
X70414372Y-85225472D01*
X70414295Y-85225810D01*
X70414295Y-85225819D01*
X70367637Y-85431187D01*
X70281836Y-85623899D01*
X70160234Y-85796280D01*
X70007466Y-85941759D01*
X69829353Y-86054793D01*
X69632672Y-86131080D01*
X69424927Y-86167712D01*
X69214017Y-86163293D01*
X69007984Y-86117995D01*
X68814672Y-86033538D01*
X68641451Y-85913146D01*
X68494909Y-85761399D01*
X68380633Y-85584076D01*
X68302973Y-85387931D01*
X68264893Y-85180449D01*
X68267838Y-84969515D01*
X68311699Y-84763168D01*
X68394802Y-84569274D01*
X68513985Y-84395212D01*
X68664704Y-84247616D01*
X68841225Y-84132105D01*
X69036819Y-84053079D01*
X69244033Y-84013552D01*
X69454988Y-84015024D01*
X69454988Y-84015024D01*
G37*
G36*
X60359531Y-84568315D02*
X60508636Y-84598923D01*
X60648969Y-84657913D01*
X60775162Y-84743032D01*
X60882424Y-84851044D01*
X60966662Y-84977834D01*
X61024667Y-85118565D01*
X61052090Y-85257060D01*
X61054234Y-85267890D01*
X61051806Y-85441754D01*
X61051728Y-85442097D01*
X61051728Y-85442101D01*
X61018082Y-85590196D01*
X60956170Y-85729252D01*
X60868424Y-85853640D01*
X60758189Y-85958615D01*
X60629664Y-86040180D01*
X60487746Y-86095226D01*
X60337840Y-86121659D01*
X60185649Y-86118470D01*
X60036980Y-86085784D01*
X59897488Y-86024841D01*
X59772496Y-85937969D01*
X59666754Y-85828470D01*
X59584294Y-85700517D01*
X59528256Y-85558982D01*
X59500778Y-85409266D01*
X59502903Y-85257060D01*
X59534553Y-85108163D01*
X59594517Y-84968253D01*
X59680518Y-84842653D01*
X59789275Y-84736150D01*
X59916650Y-84652799D01*
X60057787Y-84595775D01*
X60207308Y-84567253D01*
X60359531Y-84568315D01*
X60359531Y-84568315D01*
G37*
G36*
X66054200Y-86120200D02*
X64501800Y-86120200D01*
X64501800Y-84567800D01*
X66054200Y-84567800D01*
X66054200Y-86120200D01*
X66054200Y-86120200D01*
G37*
G36*
X89260781Y-83451834D02*
X89268167Y-83451885D01*
X89438105Y-83470947D01*
X89601105Y-83522654D01*
X89750957Y-83605036D01*
X89881954Y-83714955D01*
X89989106Y-83848225D01*
X90068331Y-83999770D01*
X90116613Y-84163816D01*
X90116616Y-84163853D01*
X90116619Y-84163862D01*
X90132113Y-84334115D01*
X90114243Y-84504137D01*
X90114241Y-84504142D01*
X90114237Y-84504184D01*
X90063669Y-84667541D01*
X89982336Y-84817965D01*
X89873333Y-84949726D01*
X89740815Y-85057806D01*
X89589827Y-85138087D01*
X89426121Y-85187513D01*
X89255933Y-85204200D01*
X88544030Y-85204200D01*
X88539219Y-85204166D01*
X88531833Y-85204115D01*
X88361895Y-85185053D01*
X88198895Y-85133346D01*
X88049043Y-85050964D01*
X87918046Y-84941045D01*
X87810894Y-84807775D01*
X87731669Y-84656230D01*
X87683387Y-84492184D01*
X87683384Y-84492147D01*
X87683381Y-84492138D01*
X87667887Y-84321885D01*
X87685757Y-84151863D01*
X87685759Y-84151858D01*
X87685763Y-84151816D01*
X87736331Y-83988459D01*
X87817664Y-83838035D01*
X87926667Y-83706274D01*
X88059185Y-83598194D01*
X88210173Y-83517913D01*
X88373879Y-83468487D01*
X88544067Y-83451800D01*
X89255970Y-83451800D01*
X89260781Y-83451834D01*
X89260781Y-83451834D01*
G37*
G36*
X81640781Y-83451834D02*
X81648167Y-83451885D01*
X81818105Y-83470947D01*
X81981105Y-83522654D01*
X82130957Y-83605036D01*
X82261954Y-83714955D01*
X82369106Y-83848225D01*
X82448331Y-83999770D01*
X82496613Y-84163816D01*
X82496616Y-84163853D01*
X82496619Y-84163862D01*
X82512113Y-84334115D01*
X82494243Y-84504137D01*
X82494241Y-84504142D01*
X82494237Y-84504184D01*
X82443669Y-84667541D01*
X82362336Y-84817965D01*
X82253333Y-84949726D01*
X82120815Y-85057806D01*
X81969827Y-85138087D01*
X81806121Y-85187513D01*
X81635933Y-85204200D01*
X80924030Y-85204200D01*
X80919219Y-85204166D01*
X80911833Y-85204115D01*
X80741895Y-85185053D01*
X80578895Y-85133346D01*
X80429043Y-85050964D01*
X80298046Y-84941045D01*
X80190894Y-84807775D01*
X80111669Y-84656230D01*
X80063387Y-84492184D01*
X80063384Y-84492147D01*
X80063381Y-84492138D01*
X80047887Y-84321885D01*
X80065757Y-84151863D01*
X80065759Y-84151858D01*
X80065763Y-84151816D01*
X80116331Y-83988459D01*
X80197664Y-83838035D01*
X80306667Y-83706274D01*
X80439185Y-83598194D01*
X80590173Y-83517913D01*
X80753879Y-83468487D01*
X80924067Y-83451800D01*
X81635970Y-83451800D01*
X81640781Y-83451834D01*
X81640781Y-83451834D01*
G37*
G36*
X76744280Y-82586281D02*
X76883779Y-82614917D01*
X77015073Y-82670108D01*
X77133140Y-82749745D01*
X77233491Y-82850798D01*
X77312300Y-82969417D01*
X77366571Y-83101087D01*
X77394164Y-83240443D01*
X77394164Y-83240453D01*
X77394231Y-83240792D01*
X77391960Y-83403457D01*
X77391883Y-83403795D01*
X77391883Y-83403804D01*
X77360409Y-83542337D01*
X77302486Y-83672436D01*
X77220391Y-83788811D01*
X77117258Y-83887024D01*
X76997013Y-83963334D01*
X76864233Y-84014836D01*
X76723985Y-84039566D01*
X76581599Y-84036583D01*
X76442504Y-84006001D01*
X76311999Y-83948985D01*
X76195058Y-83867709D01*
X76096127Y-83765263D01*
X76018979Y-83645552D01*
X75966550Y-83513133D01*
X75940843Y-83373063D01*
X75942831Y-83230661D01*
X75972442Y-83091355D01*
X76028544Y-82960457D01*
X76109005Y-82842947D01*
X76210756Y-82743305D01*
X76329926Y-82665323D01*
X76461972Y-82611972D01*
X76601862Y-82585287D01*
X76744280Y-82586281D01*
X76744280Y-82586281D01*
G37*
G36*
X74894200Y-84038200D02*
X73441800Y-84038200D01*
X73441800Y-82585800D01*
X74894200Y-82585800D01*
X74894200Y-84038200D01*
X74894200Y-84038200D01*
G37*
G36*
X95362988Y-81729024D02*
X95569626Y-81771441D01*
X95764104Y-81853192D01*
X95938991Y-81971155D01*
X96087636Y-82120841D01*
X96204375Y-82296548D01*
X96284763Y-82491584D01*
X96325669Y-82698174D01*
X96325669Y-82698184D01*
X96325736Y-82698523D01*
X96322372Y-82939472D01*
X96322295Y-82939810D01*
X96322295Y-82939819D01*
X96275637Y-83145187D01*
X96189836Y-83337899D01*
X96068234Y-83510280D01*
X95915466Y-83655759D01*
X95737353Y-83768793D01*
X95540672Y-83845080D01*
X95332927Y-83881712D01*
X95122017Y-83877293D01*
X94915984Y-83831995D01*
X94722672Y-83747538D01*
X94549451Y-83627146D01*
X94402909Y-83475399D01*
X94288633Y-83298076D01*
X94210973Y-83101931D01*
X94172893Y-82894449D01*
X94175838Y-82683515D01*
X94219699Y-82477168D01*
X94302802Y-82283274D01*
X94421985Y-82109212D01*
X94572704Y-81961616D01*
X94749225Y-81846105D01*
X94944819Y-81767079D01*
X95152033Y-81727552D01*
X95362988Y-81729024D01*
X95362988Y-81729024D01*
G37*
G36*
X111874722Y-81458526D02*
X112084532Y-81501594D01*
X112281994Y-81584599D01*
X112459566Y-81704373D01*
X112610492Y-81856356D01*
X112729022Y-82034760D01*
X112810646Y-82232793D01*
X112852179Y-82442550D01*
X112852179Y-82442560D01*
X112852247Y-82442904D01*
X112848831Y-82687551D01*
X112848753Y-82687894D01*
X112848753Y-82687899D01*
X112801378Y-82896422D01*
X112714260Y-83092093D01*
X112590792Y-83267120D01*
X112435680Y-83414831D01*
X112254830Y-83529602D01*
X112055135Y-83607058D01*
X111844200Y-83644252D01*
X111630053Y-83639766D01*
X111420857Y-83593771D01*
X111224579Y-83508019D01*
X111048702Y-83385782D01*
X110899907Y-83231700D01*
X110783879Y-83051659D01*
X110705027Y-82852504D01*
X110666363Y-82641838D01*
X110669353Y-82427666D01*
X110713887Y-82218152D01*
X110798264Y-82021282D01*
X110919277Y-81844549D01*
X111072310Y-81694688D01*
X111251540Y-81577404D01*
X111450135Y-81497165D01*
X111660530Y-81457031D01*
X111874722Y-81458526D01*
X111874722Y-81458526D01*
G37*
G36*
X81640781Y-80911834D02*
X81648167Y-80911885D01*
X81818105Y-80930947D01*
X81981105Y-80982654D01*
X82130957Y-81065036D01*
X82261954Y-81174955D01*
X82369106Y-81308225D01*
X82448331Y-81459770D01*
X82496613Y-81623816D01*
X82496616Y-81623853D01*
X82496619Y-81623862D01*
X82512113Y-81794115D01*
X82494243Y-81964137D01*
X82494241Y-81964142D01*
X82494237Y-81964184D01*
X82443669Y-82127541D01*
X82362336Y-82277965D01*
X82253333Y-82409726D01*
X82120815Y-82517806D01*
X81969827Y-82598087D01*
X81806121Y-82647513D01*
X81635933Y-82664200D01*
X80924030Y-82664200D01*
X80919219Y-82664166D01*
X80911833Y-82664115D01*
X80741895Y-82645053D01*
X80578895Y-82593346D01*
X80429043Y-82510964D01*
X80298046Y-82401045D01*
X80190894Y-82267775D01*
X80111669Y-82116230D01*
X80063387Y-81952184D01*
X80063384Y-81952147D01*
X80063381Y-81952138D01*
X80047887Y-81781885D01*
X80065757Y-81611863D01*
X80065759Y-81611858D01*
X80065763Y-81611816D01*
X80116331Y-81448459D01*
X80197664Y-81298035D01*
X80306667Y-81166274D01*
X80439185Y-81058194D01*
X80590173Y-80977913D01*
X80753879Y-80928487D01*
X80924067Y-80911800D01*
X81635970Y-80911800D01*
X81640781Y-80911834D01*
X81640781Y-80911834D01*
G37*
G36*
X89260781Y-80911834D02*
X89268167Y-80911885D01*
X89438105Y-80930947D01*
X89601105Y-80982654D01*
X89750957Y-81065036D01*
X89881954Y-81174955D01*
X89989106Y-81308225D01*
X90068331Y-81459770D01*
X90116613Y-81623816D01*
X90116616Y-81623853D01*
X90116619Y-81623862D01*
X90132113Y-81794115D01*
X90114243Y-81964137D01*
X90114241Y-81964142D01*
X90114237Y-81964184D01*
X90063669Y-82127541D01*
X89982336Y-82277965D01*
X89873333Y-82409726D01*
X89740815Y-82517806D01*
X89589827Y-82598087D01*
X89426121Y-82647513D01*
X89255933Y-82664200D01*
X88544030Y-82664200D01*
X88539219Y-82664166D01*
X88531833Y-82664115D01*
X88361895Y-82645053D01*
X88198895Y-82593346D01*
X88049043Y-82510964D01*
X87918046Y-82401045D01*
X87810894Y-82267775D01*
X87731669Y-82116230D01*
X87683387Y-81952184D01*
X87683384Y-81952147D01*
X87683381Y-81952138D01*
X87667887Y-81781885D01*
X87685757Y-81611863D01*
X87685759Y-81611858D01*
X87685763Y-81611816D01*
X87736331Y-81448459D01*
X87817664Y-81298035D01*
X87926667Y-81166274D01*
X88059185Y-81058194D01*
X88210173Y-80977913D01*
X88373879Y-80928487D01*
X88544067Y-80911800D01*
X89255970Y-80911800D01*
X89260781Y-80911834D01*
X89260781Y-80911834D01*
G37*
G36*
X104395531Y-81012315D02*
X104544636Y-81042923D01*
X104684969Y-81101913D01*
X104811162Y-81187032D01*
X104918424Y-81295044D01*
X105002662Y-81421834D01*
X105060667Y-81562565D01*
X105088090Y-81701060D01*
X105090234Y-81711890D01*
X105087806Y-81885754D01*
X105087728Y-81886097D01*
X105087728Y-81886101D01*
X105054082Y-82034196D01*
X104992170Y-82173252D01*
X104904424Y-82297640D01*
X104794189Y-82402615D01*
X104665664Y-82484180D01*
X104523746Y-82539226D01*
X104373840Y-82565659D01*
X104221649Y-82562470D01*
X104072980Y-82529784D01*
X103933488Y-82468841D01*
X103808496Y-82381969D01*
X103702754Y-82272470D01*
X103620294Y-82144517D01*
X103564256Y-82002982D01*
X103536778Y-81853266D01*
X103538903Y-81701060D01*
X103570553Y-81552163D01*
X103630517Y-81412253D01*
X103716518Y-81286653D01*
X103825275Y-81180150D01*
X103952650Y-81096799D01*
X104093787Y-81039775D01*
X104243308Y-81011253D01*
X104395531Y-81012315D01*
X104395531Y-81012315D01*
G37*
G36*
X100090200Y-82564200D02*
X98537800Y-82564200D01*
X98537800Y-81011800D01*
X100090200Y-81011800D01*
X100090200Y-82564200D01*
X100090200Y-82564200D01*
G37*
G36*
X81640781Y-78371834D02*
X81648167Y-78371885D01*
X81818105Y-78390947D01*
X81981105Y-78442654D01*
X82130957Y-78525036D01*
X82261954Y-78634955D01*
X82369106Y-78768225D01*
X82448331Y-78919770D01*
X82496613Y-79083816D01*
X82496616Y-79083853D01*
X82496619Y-79083862D01*
X82512113Y-79254115D01*
X82494243Y-79424137D01*
X82494241Y-79424142D01*
X82494237Y-79424184D01*
X82443669Y-79587541D01*
X82362336Y-79737965D01*
X82253333Y-79869726D01*
X82120815Y-79977806D01*
X81969827Y-80058087D01*
X81806121Y-80107513D01*
X81635933Y-80124200D01*
X80924030Y-80124200D01*
X80919219Y-80124166D01*
X80911833Y-80124115D01*
X80741895Y-80105053D01*
X80578895Y-80053346D01*
X80429043Y-79970964D01*
X80298046Y-79861045D01*
X80190894Y-79727775D01*
X80111669Y-79576230D01*
X80063387Y-79412184D01*
X80063384Y-79412147D01*
X80063381Y-79412138D01*
X80047887Y-79241885D01*
X80065757Y-79071863D01*
X80065759Y-79071858D01*
X80065763Y-79071816D01*
X80116331Y-78908459D01*
X80197664Y-78758035D01*
X80306667Y-78626274D01*
X80439185Y-78518194D01*
X80590173Y-78437913D01*
X80753879Y-78388487D01*
X80924067Y-78371800D01*
X81635970Y-78371800D01*
X81640781Y-78371834D01*
X81640781Y-78371834D01*
G37*
G36*
X89260781Y-78371834D02*
X89268167Y-78371885D01*
X89438105Y-78390947D01*
X89601105Y-78442654D01*
X89750957Y-78525036D01*
X89881954Y-78634955D01*
X89989106Y-78768225D01*
X90068331Y-78919770D01*
X90116613Y-79083816D01*
X90116616Y-79083853D01*
X90116619Y-79083862D01*
X90132113Y-79254115D01*
X90114243Y-79424137D01*
X90114241Y-79424142D01*
X90114237Y-79424184D01*
X90063669Y-79587541D01*
X89982336Y-79737965D01*
X89873333Y-79869726D01*
X89740815Y-79977806D01*
X89589827Y-80058087D01*
X89426121Y-80107513D01*
X89255933Y-80124200D01*
X88544030Y-80124200D01*
X88539219Y-80124166D01*
X88531833Y-80124115D01*
X88361895Y-80105053D01*
X88198895Y-80053346D01*
X88049043Y-79970964D01*
X87918046Y-79861045D01*
X87810894Y-79727775D01*
X87731669Y-79576230D01*
X87683387Y-79412184D01*
X87683384Y-79412147D01*
X87683381Y-79412138D01*
X87667887Y-79241885D01*
X87685757Y-79071863D01*
X87685759Y-79071858D01*
X87685763Y-79071816D01*
X87736331Y-78908459D01*
X87817664Y-78758035D01*
X87926667Y-78626274D01*
X88059185Y-78518194D01*
X88210173Y-78437913D01*
X88373879Y-78388487D01*
X88544067Y-78371800D01*
X89255970Y-78371800D01*
X89260781Y-78371834D01*
X89260781Y-78371834D01*
G37*
G36*
X67676988Y-77411024D02*
X67883626Y-77453441D01*
X68078104Y-77535192D01*
X68252991Y-77653155D01*
X68401636Y-77802841D01*
X68518375Y-77978548D01*
X68598763Y-78173584D01*
X68639669Y-78380174D01*
X68639669Y-78380184D01*
X68639736Y-78380523D01*
X68636372Y-78621472D01*
X68636295Y-78621810D01*
X68636295Y-78621819D01*
X68589637Y-78827187D01*
X68503836Y-79019899D01*
X68382234Y-79192280D01*
X68229466Y-79337759D01*
X68051353Y-79450793D01*
X67854672Y-79527080D01*
X67646927Y-79563712D01*
X67436017Y-79559293D01*
X67229984Y-79513995D01*
X67036672Y-79429538D01*
X66863451Y-79309146D01*
X66716909Y-79157399D01*
X66602633Y-78980076D01*
X66524973Y-78783931D01*
X66486893Y-78576449D01*
X66489838Y-78365515D01*
X66533699Y-78159168D01*
X66616802Y-77965274D01*
X66735985Y-77791212D01*
X66886704Y-77643616D01*
X67063225Y-77528105D01*
X67258819Y-77449079D01*
X67466033Y-77409552D01*
X67676988Y-77411024D01*
X67676988Y-77411024D01*
G37*
G36*
X60056988Y-77411024D02*
X60263626Y-77453441D01*
X60458104Y-77535192D01*
X60632991Y-77653155D01*
X60781636Y-77802841D01*
X60898375Y-77978548D01*
X60978763Y-78173584D01*
X61019669Y-78380174D01*
X61019669Y-78380184D01*
X61019736Y-78380523D01*
X61016372Y-78621472D01*
X61016295Y-78621810D01*
X61016295Y-78621819D01*
X60969637Y-78827187D01*
X60883836Y-79019899D01*
X60762234Y-79192280D01*
X60609466Y-79337759D01*
X60431353Y-79450793D01*
X60234672Y-79527080D01*
X60026927Y-79563712D01*
X59816017Y-79559293D01*
X59609984Y-79513995D01*
X59416672Y-79429538D01*
X59243451Y-79309146D01*
X59096909Y-79157399D01*
X58982633Y-78980076D01*
X58904973Y-78783931D01*
X58866893Y-78576449D01*
X58869838Y-78365515D01*
X58913699Y-78159168D01*
X58996802Y-77965274D01*
X59115985Y-77791212D01*
X59266704Y-77643616D01*
X59443225Y-77528105D01*
X59638819Y-77449079D01*
X59846033Y-77409552D01*
X60056988Y-77411024D01*
X60056988Y-77411024D01*
G37*
G36*
X111874722Y-76378526D02*
X112084532Y-76421594D01*
X112281994Y-76504599D01*
X112459566Y-76624373D01*
X112610492Y-76776356D01*
X112729022Y-76954760D01*
X112810646Y-77152793D01*
X112852179Y-77362550D01*
X112852179Y-77362560D01*
X112852247Y-77362904D01*
X112848831Y-77607551D01*
X112848753Y-77607894D01*
X112848753Y-77607899D01*
X112801378Y-77816422D01*
X112714260Y-78012093D01*
X112590792Y-78187120D01*
X112435680Y-78334831D01*
X112254830Y-78449602D01*
X112055135Y-78527058D01*
X111844200Y-78564252D01*
X111630053Y-78559766D01*
X111420857Y-78513771D01*
X111224579Y-78428019D01*
X111048702Y-78305782D01*
X110899907Y-78151700D01*
X110783879Y-77971659D01*
X110705027Y-77772504D01*
X110666363Y-77561838D01*
X110669353Y-77347666D01*
X110713887Y-77138152D01*
X110798264Y-76941282D01*
X110919277Y-76764549D01*
X111072310Y-76614688D01*
X111251540Y-76497404D01*
X111450135Y-76417165D01*
X111660530Y-76377031D01*
X111874722Y-76378526D01*
X111874722Y-76378526D01*
G37*
G36*
X104358200Y-78196200D02*
X102905800Y-78196200D01*
X102905800Y-76743800D01*
X104358200Y-76743800D01*
X104358200Y-78196200D01*
X104358200Y-78196200D01*
G37*
G36*
X81640781Y-75831834D02*
X81648167Y-75831885D01*
X81818105Y-75850947D01*
X81981105Y-75902654D01*
X82130957Y-75985036D01*
X82261954Y-76094955D01*
X82369106Y-76228225D01*
X82448331Y-76379770D01*
X82496613Y-76543816D01*
X82496616Y-76543853D01*
X82496619Y-76543862D01*
X82512113Y-76714115D01*
X82494243Y-76884137D01*
X82494241Y-76884142D01*
X82494237Y-76884184D01*
X82443669Y-77047541D01*
X82362336Y-77197965D01*
X82253333Y-77329726D01*
X82120815Y-77437806D01*
X81969827Y-77518087D01*
X81806121Y-77567513D01*
X81635933Y-77584200D01*
X80924030Y-77584200D01*
X80919219Y-77584166D01*
X80911833Y-77584115D01*
X80741895Y-77565053D01*
X80578895Y-77513346D01*
X80429043Y-77430964D01*
X80298046Y-77321045D01*
X80190894Y-77187775D01*
X80111669Y-77036230D01*
X80063387Y-76872184D01*
X80063384Y-76872147D01*
X80063381Y-76872138D01*
X80047887Y-76701885D01*
X80065757Y-76531863D01*
X80065759Y-76531858D01*
X80065763Y-76531816D01*
X80116331Y-76368459D01*
X80197664Y-76218035D01*
X80306667Y-76086274D01*
X80439185Y-75978194D01*
X80590173Y-75897913D01*
X80753879Y-75848487D01*
X80924067Y-75831800D01*
X81635970Y-75831800D01*
X81640781Y-75831834D01*
X81640781Y-75831834D01*
G37*
G36*
X89260781Y-75831834D02*
X89268167Y-75831885D01*
X89438105Y-75850947D01*
X89601105Y-75902654D01*
X89750957Y-75985036D01*
X89881954Y-76094955D01*
X89989106Y-76228225D01*
X90068331Y-76379770D01*
X90116613Y-76543816D01*
X90116616Y-76543853D01*
X90116619Y-76543862D01*
X90132113Y-76714115D01*
X90114243Y-76884137D01*
X90114241Y-76884142D01*
X90114237Y-76884184D01*
X90063669Y-77047541D01*
X89982336Y-77197965D01*
X89873333Y-77329726D01*
X89740815Y-77437806D01*
X89589827Y-77518087D01*
X89426121Y-77567513D01*
X89255933Y-77584200D01*
X88544030Y-77584200D01*
X88539219Y-77584166D01*
X88531833Y-77584115D01*
X88361895Y-77565053D01*
X88198895Y-77513346D01*
X88049043Y-77430964D01*
X87918046Y-77321045D01*
X87810894Y-77187775D01*
X87731669Y-77036230D01*
X87683387Y-76872184D01*
X87683384Y-76872147D01*
X87683381Y-76872138D01*
X87667887Y-76701885D01*
X87685757Y-76531863D01*
X87685759Y-76531858D01*
X87685763Y-76531816D01*
X87736331Y-76368459D01*
X87817664Y-76218035D01*
X87926667Y-76086274D01*
X88059185Y-75978194D01*
X88210173Y-75897913D01*
X88373879Y-75848487D01*
X88544067Y-75831800D01*
X89255970Y-75831800D01*
X89260781Y-75831834D01*
X89260781Y-75831834D01*
G37*
G36*
X95362988Y-74109024D02*
X95569626Y-74151441D01*
X95764104Y-74233192D01*
X95938991Y-74351155D01*
X96087636Y-74500841D01*
X96204375Y-74676548D01*
X96284763Y-74871584D01*
X96325669Y-75078174D01*
X96325669Y-75078184D01*
X96325736Y-75078523D01*
X96322372Y-75319472D01*
X96322295Y-75319810D01*
X96322295Y-75319819D01*
X96275637Y-75525187D01*
X96189836Y-75717899D01*
X96068234Y-75890280D01*
X95915466Y-76035759D01*
X95737353Y-76148793D01*
X95540672Y-76225080D01*
X95332927Y-76261712D01*
X95122017Y-76257293D01*
X94915984Y-76211995D01*
X94722672Y-76127538D01*
X94549451Y-76007146D01*
X94402909Y-75855399D01*
X94288633Y-75678076D01*
X94210973Y-75481931D01*
X94172893Y-75274449D01*
X94175838Y-75063515D01*
X94219699Y-74857168D01*
X94302802Y-74663274D01*
X94421985Y-74489212D01*
X94572704Y-74341616D01*
X94749225Y-74226105D01*
X94944819Y-74147079D01*
X95152033Y-74107552D01*
X95362988Y-74109024D01*
X95362988Y-74109024D01*
G37*
G36*
X103708280Y-74244281D02*
X103847779Y-74272917D01*
X103979073Y-74328108D01*
X104097140Y-74407745D01*
X104197491Y-74508798D01*
X104276300Y-74627417D01*
X104330571Y-74759087D01*
X104358164Y-74898443D01*
X104358164Y-74898453D01*
X104358231Y-74898792D01*
X104355960Y-75061457D01*
X104355883Y-75061795D01*
X104355883Y-75061804D01*
X104324409Y-75200337D01*
X104266486Y-75330436D01*
X104184391Y-75446811D01*
X104081258Y-75545024D01*
X103961013Y-75621334D01*
X103828233Y-75672836D01*
X103687985Y-75697566D01*
X103545599Y-75694583D01*
X103406504Y-75664001D01*
X103275999Y-75606985D01*
X103159058Y-75525709D01*
X103060127Y-75423263D01*
X102982979Y-75303552D01*
X102930550Y-75171133D01*
X102904843Y-75031063D01*
X102906831Y-74888661D01*
X102936442Y-74749355D01*
X102992544Y-74618457D01*
X103073005Y-74500947D01*
X103174756Y-74401305D01*
X103293926Y-74323323D01*
X103425972Y-74269972D01*
X103565862Y-74243287D01*
X103708280Y-74244281D01*
X103708280Y-74244281D01*
G37*
G36*
X64298280Y-72426281D02*
X64437779Y-72454917D01*
X64569073Y-72510108D01*
X64687140Y-72589745D01*
X64787491Y-72690798D01*
X64866300Y-72809417D01*
X64920571Y-72941087D01*
X64948164Y-73080443D01*
X64948164Y-73080453D01*
X64948231Y-73080792D01*
X64945960Y-73243457D01*
X64945883Y-73243795D01*
X64945883Y-73243804D01*
X64914409Y-73382337D01*
X64856486Y-73512436D01*
X64774391Y-73628811D01*
X64671258Y-73727024D01*
X64551013Y-73803334D01*
X64418233Y-73854836D01*
X64277985Y-73879566D01*
X64135599Y-73876583D01*
X63996504Y-73846001D01*
X63865999Y-73788985D01*
X63749058Y-73707709D01*
X63650127Y-73605263D01*
X63572979Y-73485552D01*
X63520550Y-73353133D01*
X63494843Y-73213063D01*
X63496831Y-73070661D01*
X63526442Y-72931355D01*
X63582544Y-72800457D01*
X63663005Y-72682947D01*
X63764756Y-72583305D01*
X63883926Y-72505323D01*
X64015972Y-72451972D01*
X64155862Y-72425287D01*
X64298280Y-72426281D01*
X64298280Y-72426281D01*
G37*
G36*
X62448200Y-73878200D02*
X60995800Y-73878200D01*
X60995800Y-72425800D01*
X62448200Y-72425800D01*
X62448200Y-73878200D01*
X62448200Y-73878200D01*
G37*
G36*
X111874722Y-71298526D02*
X112084532Y-71341594D01*
X112281994Y-71424599D01*
X112459566Y-71544373D01*
X112610492Y-71696356D01*
X112729022Y-71874760D01*
X112810646Y-72072793D01*
X112852179Y-72282550D01*
X112852179Y-72282560D01*
X112852247Y-72282904D01*
X112848831Y-72527551D01*
X112848753Y-72527894D01*
X112848753Y-72527899D01*
X112801378Y-72736422D01*
X112714260Y-72932093D01*
X112590792Y-73107120D01*
X112435680Y-73254831D01*
X112254830Y-73369602D01*
X112055135Y-73447058D01*
X111844200Y-73484252D01*
X111630053Y-73479766D01*
X111420857Y-73433771D01*
X111224579Y-73348019D01*
X111048702Y-73225782D01*
X110899907Y-73071700D01*
X110783879Y-72891659D01*
X110705027Y-72692504D01*
X110666363Y-72481838D01*
X110669353Y-72267666D01*
X110713887Y-72058152D01*
X110798264Y-71861282D01*
X110919277Y-71684549D01*
X111072310Y-71534688D01*
X111251540Y-71417404D01*
X111450135Y-71337165D01*
X111660530Y-71297031D01*
X111874722Y-71298526D01*
X111874722Y-71298526D01*
G37*
G36*
X69702781Y-69735834D02*
X69710167Y-69735885D01*
X69880105Y-69754947D01*
X70043105Y-69806654D01*
X70192957Y-69889036D01*
X70323954Y-69998955D01*
X70431106Y-70132225D01*
X70510331Y-70283770D01*
X70558613Y-70447816D01*
X70558616Y-70447853D01*
X70558619Y-70447862D01*
X70574113Y-70618115D01*
X70556243Y-70788137D01*
X70556241Y-70788142D01*
X70556237Y-70788184D01*
X70505669Y-70951541D01*
X70424336Y-71101965D01*
X70315333Y-71233726D01*
X70182815Y-71341806D01*
X70031827Y-71422087D01*
X69868121Y-71471513D01*
X69697933Y-71488200D01*
X68986030Y-71488200D01*
X68981219Y-71488166D01*
X68973833Y-71488115D01*
X68803895Y-71469053D01*
X68640895Y-71417346D01*
X68491043Y-71334964D01*
X68360046Y-71225045D01*
X68252894Y-71091775D01*
X68173669Y-70940230D01*
X68125387Y-70776184D01*
X68125384Y-70776147D01*
X68125381Y-70776138D01*
X68109887Y-70605885D01*
X68127757Y-70435863D01*
X68127759Y-70435858D01*
X68127763Y-70435816D01*
X68178331Y-70272459D01*
X68259664Y-70122035D01*
X68368667Y-69990274D01*
X68501185Y-69882194D01*
X68652173Y-69801913D01*
X68815879Y-69752487D01*
X68986067Y-69735800D01*
X69697970Y-69735800D01*
X69702781Y-69735834D01*
X69702781Y-69735834D01*
G37*
G36*
X77322781Y-69735834D02*
X77330167Y-69735885D01*
X77500105Y-69754947D01*
X77663105Y-69806654D01*
X77812957Y-69889036D01*
X77943954Y-69998955D01*
X78051106Y-70132225D01*
X78130331Y-70283770D01*
X78178613Y-70447816D01*
X78178616Y-70447853D01*
X78178619Y-70447862D01*
X78194113Y-70618115D01*
X78176243Y-70788137D01*
X78176241Y-70788142D01*
X78176237Y-70788184D01*
X78125669Y-70951541D01*
X78044336Y-71101965D01*
X77935333Y-71233726D01*
X77802815Y-71341806D01*
X77651827Y-71422087D01*
X77488121Y-71471513D01*
X77317933Y-71488200D01*
X76606030Y-71488200D01*
X76601219Y-71488166D01*
X76593833Y-71488115D01*
X76423895Y-71469053D01*
X76260895Y-71417346D01*
X76111043Y-71334964D01*
X75980046Y-71225045D01*
X75872894Y-71091775D01*
X75793669Y-70940230D01*
X75745387Y-70776184D01*
X75745384Y-70776147D01*
X75745381Y-70776138D01*
X75729887Y-70605885D01*
X75747757Y-70435863D01*
X75747759Y-70435858D01*
X75747763Y-70435816D01*
X75798331Y-70272459D01*
X75879664Y-70122035D01*
X75988667Y-69990274D01*
X76121185Y-69882194D01*
X76272173Y-69801913D01*
X76435879Y-69752487D01*
X76606067Y-69735800D01*
X77317970Y-69735800D01*
X77322781Y-69735834D01*
X77322781Y-69735834D01*
G37*
G36*
X83170988Y-68267024D02*
X83377626Y-68309441D01*
X83572104Y-68391192D01*
X83746991Y-68509155D01*
X83895636Y-68658841D01*
X84012375Y-68834548D01*
X84092763Y-69029584D01*
X84133669Y-69236174D01*
X84133669Y-69236184D01*
X84133736Y-69236523D01*
X84130372Y-69477472D01*
X84130295Y-69477810D01*
X84130295Y-69477819D01*
X84083637Y-69683187D01*
X83997836Y-69875899D01*
X83876234Y-70048280D01*
X83723466Y-70193759D01*
X83545353Y-70306793D01*
X83348672Y-70383080D01*
X83140927Y-70419712D01*
X82930017Y-70415293D01*
X82723984Y-70369995D01*
X82530672Y-70285538D01*
X82357451Y-70165146D01*
X82210909Y-70013399D01*
X82096633Y-69836076D01*
X82018973Y-69639931D01*
X81980893Y-69432449D01*
X81983838Y-69221515D01*
X82027699Y-69015168D01*
X82110802Y-68821274D01*
X82229985Y-68647212D01*
X82380704Y-68499616D01*
X82557225Y-68384105D01*
X82752819Y-68305079D01*
X82960033Y-68265552D01*
X83170988Y-68267024D01*
X83170988Y-68267024D01*
G37*
G36*
X90790988Y-68267024D02*
X90997626Y-68309441D01*
X91192104Y-68391192D01*
X91366991Y-68509155D01*
X91515636Y-68658841D01*
X91632375Y-68834548D01*
X91712763Y-69029584D01*
X91753669Y-69236174D01*
X91753669Y-69236184D01*
X91753736Y-69236523D01*
X91750372Y-69477472D01*
X91750295Y-69477810D01*
X91750295Y-69477819D01*
X91703637Y-69683187D01*
X91617836Y-69875899D01*
X91496234Y-70048280D01*
X91343466Y-70193759D01*
X91165353Y-70306793D01*
X90968672Y-70383080D01*
X90760927Y-70419712D01*
X90550017Y-70415293D01*
X90343984Y-70369995D01*
X90150672Y-70285538D01*
X89977451Y-70165146D01*
X89830909Y-70013399D01*
X89716633Y-69836076D01*
X89638973Y-69639931D01*
X89600893Y-69432449D01*
X89603838Y-69221515D01*
X89647699Y-69015168D01*
X89730802Y-68821274D01*
X89849985Y-68647212D01*
X90000704Y-68499616D01*
X90177225Y-68384105D01*
X90372819Y-68305079D01*
X90580033Y-68265552D01*
X90790988Y-68267024D01*
X90790988Y-68267024D01*
G37*
G36*
X77322781Y-67195834D02*
X77330167Y-67195885D01*
X77500105Y-67214947D01*
X77663105Y-67266654D01*
X77812957Y-67349036D01*
X77943954Y-67458955D01*
X78051106Y-67592225D01*
X78130331Y-67743770D01*
X78178613Y-67907816D01*
X78178616Y-67907853D01*
X78178619Y-67907862D01*
X78194113Y-68078115D01*
X78176243Y-68248137D01*
X78176241Y-68248142D01*
X78176237Y-68248184D01*
X78125669Y-68411541D01*
X78044336Y-68561965D01*
X77935333Y-68693726D01*
X77802815Y-68801806D01*
X77651827Y-68882087D01*
X77488121Y-68931513D01*
X77317933Y-68948200D01*
X76606030Y-68948200D01*
X76601219Y-68948166D01*
X76593833Y-68948115D01*
X76423895Y-68929053D01*
X76260895Y-68877346D01*
X76111043Y-68794964D01*
X75980046Y-68685045D01*
X75872894Y-68551775D01*
X75793669Y-68400230D01*
X75745387Y-68236184D01*
X75745384Y-68236147D01*
X75745381Y-68236138D01*
X75729887Y-68065885D01*
X75747757Y-67895863D01*
X75747759Y-67895858D01*
X75747763Y-67895816D01*
X75798331Y-67732459D01*
X75879664Y-67582035D01*
X75988667Y-67450274D01*
X76121185Y-67342194D01*
X76272173Y-67261913D01*
X76435879Y-67212487D01*
X76606067Y-67195800D01*
X77317970Y-67195800D01*
X77322781Y-67195834D01*
X77322781Y-67195834D01*
G37*
G36*
X69702781Y-67195834D02*
X69710167Y-67195885D01*
X69880105Y-67214947D01*
X70043105Y-67266654D01*
X70192957Y-67349036D01*
X70323954Y-67458955D01*
X70431106Y-67592225D01*
X70510331Y-67743770D01*
X70558613Y-67907816D01*
X70558616Y-67907853D01*
X70558619Y-67907862D01*
X70574113Y-68078115D01*
X70556243Y-68248137D01*
X70556241Y-68248142D01*
X70556237Y-68248184D01*
X70505669Y-68411541D01*
X70424336Y-68561965D01*
X70315333Y-68693726D01*
X70182815Y-68801806D01*
X70031827Y-68882087D01*
X69868121Y-68931513D01*
X69697933Y-68948200D01*
X68986030Y-68948200D01*
X68981219Y-68948166D01*
X68973833Y-68948115D01*
X68803895Y-68929053D01*
X68640895Y-68877346D01*
X68491043Y-68794964D01*
X68360046Y-68685045D01*
X68252894Y-68551775D01*
X68173669Y-68400230D01*
X68125387Y-68236184D01*
X68125384Y-68236147D01*
X68125381Y-68236138D01*
X68109887Y-68065885D01*
X68127757Y-67895863D01*
X68127759Y-67895858D01*
X68127763Y-67895816D01*
X68178331Y-67732459D01*
X68259664Y-67582035D01*
X68368667Y-67450274D01*
X68501185Y-67342194D01*
X68652173Y-67261913D01*
X68815879Y-67212487D01*
X68986067Y-67195800D01*
X69697970Y-67195800D01*
X69702781Y-67195834D01*
X69702781Y-67195834D01*
G37*
G36*
X112390726Y-65888376D02*
X112615174Y-65934449D01*
X112826411Y-66023245D01*
X113016372Y-66151376D01*
X113177829Y-66313963D01*
X113304628Y-66504813D01*
X113391945Y-66716658D01*
X113436382Y-66941083D01*
X113436382Y-66941089D01*
X113436450Y-66941433D01*
X113432795Y-67203148D01*
X113432719Y-67203482D01*
X113432719Y-67203495D01*
X113382032Y-67426592D01*
X113288836Y-67635914D01*
X113156754Y-67823151D01*
X112990820Y-67981168D01*
X112797354Y-68103946D01*
X112583726Y-68186806D01*
X112358074Y-68226595D01*
X112128987Y-68221796D01*
X111905196Y-68172592D01*
X111695224Y-68080858D01*
X111507073Y-67950090D01*
X111347902Y-67785264D01*
X111223777Y-67592658D01*
X111139424Y-67379609D01*
X111098063Y-67154245D01*
X111101261Y-66925131D01*
X111148902Y-66701000D01*
X111239167Y-66490395D01*
X111368622Y-66301332D01*
X111532331Y-66141015D01*
X111724065Y-66015548D01*
X111936517Y-65929711D01*
X112161590Y-65886777D01*
X112390726Y-65888376D01*
X112390726Y-65888376D01*
G37*
G36*
X63514200Y-67832200D02*
X61961800Y-67832200D01*
X61961800Y-66279800D01*
X63514200Y-66279800D01*
X63514200Y-67832200D01*
X63514200Y-67832200D01*
G37*
G36*
X69702781Y-64655834D02*
X69710167Y-64655885D01*
X69880105Y-64674947D01*
X70043105Y-64726654D01*
X70192957Y-64809036D01*
X70323954Y-64918955D01*
X70431106Y-65052225D01*
X70510331Y-65203770D01*
X70558613Y-65367816D01*
X70558616Y-65367853D01*
X70558619Y-65367862D01*
X70574113Y-65538115D01*
X70556243Y-65708137D01*
X70556241Y-65708142D01*
X70556237Y-65708184D01*
X70505669Y-65871541D01*
X70424336Y-66021965D01*
X70315333Y-66153726D01*
X70182815Y-66261806D01*
X70031827Y-66342087D01*
X69868121Y-66391513D01*
X69697933Y-66408200D01*
X68986030Y-66408200D01*
X68981219Y-66408166D01*
X68973833Y-66408115D01*
X68803895Y-66389053D01*
X68640895Y-66337346D01*
X68491043Y-66254964D01*
X68360046Y-66145045D01*
X68252894Y-66011775D01*
X68173669Y-65860230D01*
X68125387Y-65696184D01*
X68125384Y-65696147D01*
X68125381Y-65696138D01*
X68109887Y-65525885D01*
X68127757Y-65355863D01*
X68127759Y-65355858D01*
X68127763Y-65355816D01*
X68178331Y-65192459D01*
X68259664Y-65042035D01*
X68368667Y-64910274D01*
X68501185Y-64802194D01*
X68652173Y-64721913D01*
X68815879Y-64672487D01*
X68986067Y-64655800D01*
X69697970Y-64655800D01*
X69702781Y-64655834D01*
X69702781Y-64655834D01*
G37*
G36*
X77322781Y-64655834D02*
X77330167Y-64655885D01*
X77500105Y-64674947D01*
X77663105Y-64726654D01*
X77812957Y-64809036D01*
X77943954Y-64918955D01*
X78051106Y-65052225D01*
X78130331Y-65203770D01*
X78178613Y-65367816D01*
X78178616Y-65367853D01*
X78178619Y-65367862D01*
X78194113Y-65538115D01*
X78176243Y-65708137D01*
X78176241Y-65708142D01*
X78176237Y-65708184D01*
X78125669Y-65871541D01*
X78044336Y-66021965D01*
X77935333Y-66153726D01*
X77802815Y-66261806D01*
X77651827Y-66342087D01*
X77488121Y-66391513D01*
X77317933Y-66408200D01*
X76606030Y-66408200D01*
X76601219Y-66408166D01*
X76593833Y-66408115D01*
X76423895Y-66389053D01*
X76260895Y-66337346D01*
X76111043Y-66254964D01*
X75980046Y-66145045D01*
X75872894Y-66011775D01*
X75793669Y-65860230D01*
X75745387Y-65696184D01*
X75745384Y-65696147D01*
X75745381Y-65696138D01*
X75729887Y-65525885D01*
X75747757Y-65355863D01*
X75747759Y-65355858D01*
X75747763Y-65355816D01*
X75798331Y-65192459D01*
X75879664Y-65042035D01*
X75988667Y-64910274D01*
X76121185Y-64802194D01*
X76272173Y-64721913D01*
X76435879Y-64672487D01*
X76606067Y-64655800D01*
X77317970Y-64655800D01*
X77322781Y-64655834D01*
X77322781Y-64655834D01*
G37*
G36*
X85126280Y-64552281D02*
X85265779Y-64580917D01*
X85397073Y-64636108D01*
X85515140Y-64715745D01*
X85615491Y-64816798D01*
X85694300Y-64935417D01*
X85748571Y-65067087D01*
X85776164Y-65206443D01*
X85776164Y-65206453D01*
X85776231Y-65206792D01*
X85773960Y-65369457D01*
X85773883Y-65369795D01*
X85773883Y-65369804D01*
X85742409Y-65508337D01*
X85684486Y-65638436D01*
X85602391Y-65754811D01*
X85499258Y-65853024D01*
X85379013Y-65929334D01*
X85246233Y-65980836D01*
X85105985Y-66005566D01*
X84963599Y-66002583D01*
X84824504Y-65972001D01*
X84693999Y-65914985D01*
X84577058Y-65833709D01*
X84478127Y-65731263D01*
X84400979Y-65611552D01*
X84348550Y-65479133D01*
X84322843Y-65339063D01*
X84324831Y-65196661D01*
X84354442Y-65057355D01*
X84410544Y-64926457D01*
X84491005Y-64808947D01*
X84592756Y-64709305D01*
X84711926Y-64631323D01*
X84843972Y-64577972D01*
X84983862Y-64551287D01*
X85126280Y-64552281D01*
X85126280Y-64552281D01*
G37*
G36*
X83276200Y-66004200D02*
X81823800Y-66004200D01*
X81823800Y-64551800D01*
X83276200Y-64551800D01*
X83276200Y-66004200D01*
X83276200Y-66004200D01*
G37*
G36*
X112390726Y-63348376D02*
X112615174Y-63394449D01*
X112826411Y-63483245D01*
X113016372Y-63611376D01*
X113177829Y-63773963D01*
X113304628Y-63964813D01*
X113391945Y-64176658D01*
X113436382Y-64401083D01*
X113436382Y-64401089D01*
X113436450Y-64401433D01*
X113432795Y-64663148D01*
X113432719Y-64663482D01*
X113432719Y-64663495D01*
X113382032Y-64886592D01*
X113288836Y-65095914D01*
X113156754Y-65283151D01*
X112990820Y-65441168D01*
X112797354Y-65563946D01*
X112583726Y-65646806D01*
X112358074Y-65686595D01*
X112128987Y-65681796D01*
X111905196Y-65632592D01*
X111695224Y-65540858D01*
X111507073Y-65410090D01*
X111347902Y-65245264D01*
X111223777Y-65052658D01*
X111139424Y-64839609D01*
X111098063Y-64614245D01*
X111101261Y-64385131D01*
X111148902Y-64161000D01*
X111239167Y-63950395D01*
X111368622Y-63761332D01*
X111532331Y-63601015D01*
X111724065Y-63475548D01*
X111936517Y-63389711D01*
X112161590Y-63346777D01*
X112390726Y-63348376D01*
X112390726Y-63348376D01*
G37*
G36*
X92492280Y-63790281D02*
X92631779Y-63818917D01*
X92763073Y-63874108D01*
X92881140Y-63953745D01*
X92981491Y-64054798D01*
X93060300Y-64173417D01*
X93114571Y-64305087D01*
X93142164Y-64444443D01*
X93142164Y-64444453D01*
X93142231Y-64444792D01*
X93139960Y-64607457D01*
X93139883Y-64607795D01*
X93139883Y-64607804D01*
X93108409Y-64746337D01*
X93050486Y-64876436D01*
X92968391Y-64992811D01*
X92865258Y-65091024D01*
X92745013Y-65167334D01*
X92612233Y-65218836D01*
X92471985Y-65243566D01*
X92329599Y-65240583D01*
X92190504Y-65210001D01*
X92059999Y-65152985D01*
X91943058Y-65071709D01*
X91844127Y-64969263D01*
X91766979Y-64849552D01*
X91714550Y-64717133D01*
X91688843Y-64577063D01*
X91690831Y-64434661D01*
X91720442Y-64295355D01*
X91776544Y-64164457D01*
X91857005Y-64046947D01*
X91958756Y-63947305D01*
X92077926Y-63869323D01*
X92209972Y-63815972D01*
X92349862Y-63789287D01*
X92492280Y-63790281D01*
X92492280Y-63790281D01*
G37*
G36*
X90642200Y-65242200D02*
X89189800Y-65242200D01*
X89189800Y-63789800D01*
X90642200Y-63789800D01*
X90642200Y-65242200D01*
X90642200Y-65242200D01*
G37*
G36*
X77322781Y-62115834D02*
X77330167Y-62115885D01*
X77500105Y-62134947D01*
X77663105Y-62186654D01*
X77812957Y-62269036D01*
X77943954Y-62378955D01*
X78051106Y-62512225D01*
X78130331Y-62663770D01*
X78178613Y-62827816D01*
X78178616Y-62827853D01*
X78178619Y-62827862D01*
X78194113Y-62998115D01*
X78176243Y-63168137D01*
X78176241Y-63168142D01*
X78176237Y-63168184D01*
X78125669Y-63331541D01*
X78044336Y-63481965D01*
X77935333Y-63613726D01*
X77802815Y-63721806D01*
X77651827Y-63802087D01*
X77488121Y-63851513D01*
X77317933Y-63868200D01*
X76606030Y-63868200D01*
X76601219Y-63868166D01*
X76593833Y-63868115D01*
X76423895Y-63849053D01*
X76260895Y-63797346D01*
X76111043Y-63714964D01*
X75980046Y-63605045D01*
X75872894Y-63471775D01*
X75793669Y-63320230D01*
X75745387Y-63156184D01*
X75745384Y-63156147D01*
X75745381Y-63156138D01*
X75729887Y-62985885D01*
X75747757Y-62815863D01*
X75747759Y-62815858D01*
X75747763Y-62815816D01*
X75798331Y-62652459D01*
X75879664Y-62502035D01*
X75988667Y-62370274D01*
X76121185Y-62262194D01*
X76272173Y-62181913D01*
X76435879Y-62132487D01*
X76606067Y-62115800D01*
X77317970Y-62115800D01*
X77322781Y-62115834D01*
X77322781Y-62115834D01*
G37*
G36*
X69702781Y-62115834D02*
X69710167Y-62115885D01*
X69880105Y-62134947D01*
X70043105Y-62186654D01*
X70192957Y-62269036D01*
X70323954Y-62378955D01*
X70431106Y-62512225D01*
X70510331Y-62663770D01*
X70558613Y-62827816D01*
X70558616Y-62827853D01*
X70558619Y-62827862D01*
X70574113Y-62998115D01*
X70556243Y-63168137D01*
X70556241Y-63168142D01*
X70556237Y-63168184D01*
X70505669Y-63331541D01*
X70424336Y-63481965D01*
X70315333Y-63613726D01*
X70182815Y-63721806D01*
X70031827Y-63802087D01*
X69868121Y-63851513D01*
X69697933Y-63868200D01*
X68986030Y-63868200D01*
X68981219Y-63868166D01*
X68973833Y-63868115D01*
X68803895Y-63849053D01*
X68640895Y-63797346D01*
X68491043Y-63714964D01*
X68360046Y-63605045D01*
X68252894Y-63471775D01*
X68173669Y-63320230D01*
X68125387Y-63156184D01*
X68125384Y-63156147D01*
X68125381Y-63156138D01*
X68109887Y-62985885D01*
X68127757Y-62815863D01*
X68127759Y-62815858D01*
X68127763Y-62815816D01*
X68178331Y-62652459D01*
X68259664Y-62502035D01*
X68368667Y-62370274D01*
X68501185Y-62262194D01*
X68652173Y-62181913D01*
X68815879Y-62132487D01*
X68986067Y-62115800D01*
X69697970Y-62115800D01*
X69702781Y-62115834D01*
X69702781Y-62115834D01*
G37*
G36*
X107310726Y-60808376D02*
X107535174Y-60854449D01*
X107746411Y-60943245D01*
X107936372Y-61071376D01*
X108097829Y-61233963D01*
X108224628Y-61424813D01*
X108311945Y-61636658D01*
X108356382Y-61861083D01*
X108356382Y-61861089D01*
X108356450Y-61861433D01*
X108352795Y-62123148D01*
X108352719Y-62123482D01*
X108352719Y-62123495D01*
X108302032Y-62346592D01*
X108208836Y-62555914D01*
X108076754Y-62743151D01*
X107910820Y-62901168D01*
X107717354Y-63023946D01*
X107503726Y-63106806D01*
X107278074Y-63146595D01*
X107048987Y-63141796D01*
X106825196Y-63092592D01*
X106615224Y-63000858D01*
X106427073Y-62870090D01*
X106267902Y-62705264D01*
X106143777Y-62512658D01*
X106059424Y-62299609D01*
X106018063Y-62074245D01*
X106021261Y-61845131D01*
X106068902Y-61621000D01*
X106159167Y-61410395D01*
X106288622Y-61221332D01*
X106452331Y-61061015D01*
X106644065Y-60935548D01*
X106856517Y-60849711D01*
X107081590Y-60806777D01*
X107310726Y-60808376D01*
X107310726Y-60808376D01*
G37*
G36*
X62819531Y-61280315D02*
X62968636Y-61310923D01*
X63108969Y-61369913D01*
X63235162Y-61455032D01*
X63342424Y-61563044D01*
X63426662Y-61689834D01*
X63484667Y-61830565D01*
X63512090Y-61969060D01*
X63514234Y-61979890D01*
X63511806Y-62153754D01*
X63511728Y-62154097D01*
X63511728Y-62154101D01*
X63478082Y-62302196D01*
X63416170Y-62441252D01*
X63328424Y-62565640D01*
X63218189Y-62670615D01*
X63089664Y-62752180D01*
X62947746Y-62807226D01*
X62797840Y-62833659D01*
X62645649Y-62830470D01*
X62496980Y-62797784D01*
X62357488Y-62736841D01*
X62232496Y-62649969D01*
X62126754Y-62540470D01*
X62044294Y-62412517D01*
X61988256Y-62270982D01*
X61960778Y-62121266D01*
X61962903Y-61969060D01*
X61994553Y-61820163D01*
X62054517Y-61680253D01*
X62140518Y-61554653D01*
X62249275Y-61448150D01*
X62376650Y-61364799D01*
X62517787Y-61307775D01*
X62667308Y-61279253D01*
X62819531Y-61280315D01*
X62819531Y-61280315D01*
G37*
G36*
X84440988Y-58869024D02*
X84647626Y-58911441D01*
X84842104Y-58993192D01*
X85016991Y-59111155D01*
X85165636Y-59260841D01*
X85282375Y-59436548D01*
X85362763Y-59631584D01*
X85403669Y-59838174D01*
X85403669Y-59838184D01*
X85403736Y-59838523D01*
X85400372Y-60079472D01*
X85400295Y-60079810D01*
X85400295Y-60079819D01*
X85353637Y-60285187D01*
X85267836Y-60477899D01*
X85146234Y-60650280D01*
X84993466Y-60795759D01*
X84815353Y-60908793D01*
X84618672Y-60985080D01*
X84410927Y-61021712D01*
X84200017Y-61017293D01*
X83993984Y-60971995D01*
X83800672Y-60887538D01*
X83627451Y-60767146D01*
X83480909Y-60615399D01*
X83366633Y-60438076D01*
X83288973Y-60241931D01*
X83250893Y-60034449D01*
X83253838Y-59823515D01*
X83297699Y-59617168D01*
X83380802Y-59423274D01*
X83499985Y-59249212D01*
X83650704Y-59101616D01*
X83827225Y-58986105D01*
X84022819Y-58907079D01*
X84230033Y-58867552D01*
X84440988Y-58869024D01*
X84440988Y-58869024D01*
G37*
G36*
X92060988Y-58869024D02*
X92267626Y-58911441D01*
X92462104Y-58993192D01*
X92636991Y-59111155D01*
X92785636Y-59260841D01*
X92902375Y-59436548D01*
X92982763Y-59631584D01*
X93023669Y-59838174D01*
X93023669Y-59838184D01*
X93023736Y-59838523D01*
X93020372Y-60079472D01*
X93020295Y-60079810D01*
X93020295Y-60079819D01*
X92973637Y-60285187D01*
X92887836Y-60477899D01*
X92766234Y-60650280D01*
X92613466Y-60795759D01*
X92435353Y-60908793D01*
X92238672Y-60985080D01*
X92030927Y-61021712D01*
X91820017Y-61017293D01*
X91613984Y-60971995D01*
X91420672Y-60887538D01*
X91247451Y-60767146D01*
X91100909Y-60615399D01*
X90986633Y-60438076D01*
X90908973Y-60241931D01*
X90870893Y-60034449D01*
X90873838Y-59823515D01*
X90917699Y-59617168D01*
X91000802Y-59423274D01*
X91119985Y-59249212D01*
X91270704Y-59101616D01*
X91447225Y-58986105D01*
X91642819Y-58907079D01*
X91850033Y-58867552D01*
X92060988Y-58869024D01*
X92060988Y-58869024D01*
G37*
G36*
X103125531Y-59422315D02*
X103274636Y-59452923D01*
X103414969Y-59511913D01*
X103541162Y-59597032D01*
X103648424Y-59705044D01*
X103732662Y-59831834D01*
X103790667Y-59972565D01*
X103818090Y-60111060D01*
X103820234Y-60121890D01*
X103817806Y-60295754D01*
X103817728Y-60296097D01*
X103817728Y-60296101D01*
X103784082Y-60444196D01*
X103722170Y-60583252D01*
X103634424Y-60707640D01*
X103524189Y-60812615D01*
X103395664Y-60894180D01*
X103253746Y-60949226D01*
X103103840Y-60975659D01*
X102951649Y-60972470D01*
X102802980Y-60939784D01*
X102663488Y-60878841D01*
X102538496Y-60791969D01*
X102432754Y-60682470D01*
X102350294Y-60554517D01*
X102294256Y-60412982D01*
X102266778Y-60263266D01*
X102268903Y-60111060D01*
X102300553Y-59962163D01*
X102360517Y-59822253D01*
X102446518Y-59696653D01*
X102555275Y-59590150D01*
X102682650Y-59506799D01*
X102823787Y-59449775D01*
X102973308Y-59421253D01*
X103125531Y-59422315D01*
X103125531Y-59422315D01*
G37*
G36*
X98820200Y-60974200D02*
X97267800Y-60974200D01*
X97267800Y-59421800D01*
X98820200Y-59421800D01*
X98820200Y-60974200D01*
X98820200Y-60974200D01*
G37*
G36*
X112390726Y-58268376D02*
X112615174Y-58314449D01*
X112826411Y-58403245D01*
X113016372Y-58531376D01*
X113177829Y-58693963D01*
X113304628Y-58884813D01*
X113391945Y-59096658D01*
X113436382Y-59321083D01*
X113436382Y-59321089D01*
X113436450Y-59321433D01*
X113432795Y-59583148D01*
X113432719Y-59583482D01*
X113432719Y-59583495D01*
X113382032Y-59806592D01*
X113288836Y-60015914D01*
X113156754Y-60203151D01*
X112990820Y-60361168D01*
X112797354Y-60483946D01*
X112583726Y-60566806D01*
X112358074Y-60606595D01*
X112128987Y-60601796D01*
X111905196Y-60552592D01*
X111695224Y-60460858D01*
X111507073Y-60330090D01*
X111347902Y-60165264D01*
X111223777Y-59972658D01*
X111139424Y-59759609D01*
X111098063Y-59534245D01*
X111101261Y-59305131D01*
X111148902Y-59081000D01*
X111239167Y-58870395D01*
X111368622Y-58681332D01*
X111532331Y-58521015D01*
X111724065Y-58395548D01*
X111936517Y-58309711D01*
X112161590Y-58266777D01*
X112390726Y-58268376D01*
X112390726Y-58268376D01*
G37*
G36*
X112390726Y-55728376D02*
X112615174Y-55774449D01*
X112826411Y-55863245D01*
X113016372Y-55991376D01*
X113177829Y-56153963D01*
X113304628Y-56344813D01*
X113391945Y-56556658D01*
X113436382Y-56781083D01*
X113436382Y-56781089D01*
X113436450Y-56781433D01*
X113432795Y-57043148D01*
X113432719Y-57043482D01*
X113432719Y-57043495D01*
X113382032Y-57266592D01*
X113288836Y-57475914D01*
X113156754Y-57663151D01*
X112990820Y-57821168D01*
X112797354Y-57943946D01*
X112583726Y-58026806D01*
X112358074Y-58066595D01*
X112128987Y-58061796D01*
X111905196Y-58012592D01*
X111695224Y-57920858D01*
X111507073Y-57790090D01*
X111347902Y-57625264D01*
X111223777Y-57432658D01*
X111139424Y-57219609D01*
X111098063Y-56994245D01*
X111101261Y-56765131D01*
X111148902Y-56541000D01*
X111239167Y-56330395D01*
X111368622Y-56141332D01*
X111532331Y-55981015D01*
X111724065Y-55855548D01*
X111936517Y-55769711D01*
X112161590Y-55726777D01*
X112390726Y-55728376D01*
X112390726Y-55728376D01*
G37*
G36*
X79106988Y-55313024D02*
X79313626Y-55355441D01*
X79508104Y-55437192D01*
X79682991Y-55555155D01*
X79831636Y-55704841D01*
X79948375Y-55880548D01*
X80028763Y-56075584D01*
X80069669Y-56282174D01*
X80069669Y-56282184D01*
X80069736Y-56282523D01*
X80066372Y-56523472D01*
X80066295Y-56523810D01*
X80066295Y-56523819D01*
X80019637Y-56729187D01*
X79933836Y-56921899D01*
X79812234Y-57094280D01*
X79659466Y-57239759D01*
X79481353Y-57352793D01*
X79284672Y-57429080D01*
X79076927Y-57465712D01*
X78866017Y-57461293D01*
X78659984Y-57415995D01*
X78466672Y-57331538D01*
X78293451Y-57211146D01*
X78146909Y-57059399D01*
X78032633Y-56882076D01*
X77954973Y-56685931D01*
X77916893Y-56478449D01*
X77919838Y-56267515D01*
X77963699Y-56061168D01*
X78046802Y-55867274D01*
X78165985Y-55693212D01*
X78316704Y-55545616D01*
X78493225Y-55430105D01*
X78688819Y-55351079D01*
X78896033Y-55311552D01*
X79106988Y-55313024D01*
X79106988Y-55313024D01*
G37*
G36*
X71486988Y-55313024D02*
X71693626Y-55355441D01*
X71888104Y-55437192D01*
X72062991Y-55555155D01*
X72211636Y-55704841D01*
X72328375Y-55880548D01*
X72408763Y-56075584D01*
X72449669Y-56282174D01*
X72449669Y-56282184D01*
X72449736Y-56282523D01*
X72446372Y-56523472D01*
X72446295Y-56523810D01*
X72446295Y-56523819D01*
X72399637Y-56729187D01*
X72313836Y-56921899D01*
X72192234Y-57094280D01*
X72039466Y-57239759D01*
X71861353Y-57352793D01*
X71664672Y-57429080D01*
X71456927Y-57465712D01*
X71246017Y-57461293D01*
X71039984Y-57415995D01*
X70846672Y-57331538D01*
X70673451Y-57211146D01*
X70526909Y-57059399D01*
X70412633Y-56882076D01*
X70334973Y-56685931D01*
X70296893Y-56478449D01*
X70299838Y-56267515D01*
X70343699Y-56061168D01*
X70426802Y-55867274D01*
X70545985Y-55693212D01*
X70696704Y-55545616D01*
X70873225Y-55430105D01*
X71068819Y-55351079D01*
X71276033Y-55311552D01*
X71486988Y-55313024D01*
X71486988Y-55313024D01*
G37*
G36*
X66145676Y-55567963D02*
X66145681Y-55567965D01*
X66145723Y-55567969D01*
X66243748Y-55598313D01*
X66334012Y-55647119D01*
X66413078Y-55712527D01*
X66477933Y-55792048D01*
X66526108Y-55882651D01*
X66555767Y-55980885D01*
X66565780Y-56083010D01*
X66565780Y-56692990D01*
X66565729Y-56700331D01*
X66554290Y-56802306D01*
X66523263Y-56900117D01*
X66473828Y-56990038D01*
X66407869Y-57068645D01*
X66327898Y-57132944D01*
X66236961Y-57180485D01*
X66138521Y-57209457D01*
X66138485Y-57209460D01*
X66138476Y-57209463D01*
X66036333Y-57218759D01*
X65934324Y-57208037D01*
X65934319Y-57208035D01*
X65934277Y-57208031D01*
X65836252Y-57177687D01*
X65745988Y-57128881D01*
X65666922Y-57063473D01*
X65602067Y-56983952D01*
X65553892Y-56893349D01*
X65524233Y-56795115D01*
X65514220Y-56692990D01*
X65514220Y-56083010D01*
X65514271Y-56075669D01*
X65525710Y-55973694D01*
X65556737Y-55875883D01*
X65606172Y-55785962D01*
X65672131Y-55707355D01*
X65752102Y-55643056D01*
X65843039Y-55595515D01*
X65941479Y-55566543D01*
X65941515Y-55566540D01*
X65941524Y-55566537D01*
X66043667Y-55557241D01*
X66145676Y-55567963D01*
X66145676Y-55567963D01*
G37*
G36*
X64875676Y-55567963D02*
X64875681Y-55567965D01*
X64875723Y-55567969D01*
X64973748Y-55598313D01*
X65064012Y-55647119D01*
X65143078Y-55712527D01*
X65207933Y-55792048D01*
X65256108Y-55882651D01*
X65285767Y-55980885D01*
X65295780Y-56083010D01*
X65295780Y-56692990D01*
X65295729Y-56700331D01*
X65284290Y-56802306D01*
X65253263Y-56900117D01*
X65203828Y-56990038D01*
X65137869Y-57068645D01*
X65057898Y-57132944D01*
X64966961Y-57180485D01*
X64868521Y-57209457D01*
X64868485Y-57209460D01*
X64868476Y-57209463D01*
X64766333Y-57218759D01*
X64664324Y-57208037D01*
X64664319Y-57208035D01*
X64664277Y-57208031D01*
X64566252Y-57177687D01*
X64475988Y-57128881D01*
X64396922Y-57063473D01*
X64332067Y-56983952D01*
X64283892Y-56893349D01*
X64254233Y-56795115D01*
X64244220Y-56692990D01*
X64244220Y-56083010D01*
X64244271Y-56075669D01*
X64255710Y-55973694D01*
X64286737Y-55875883D01*
X64336172Y-55785962D01*
X64402131Y-55707355D01*
X64482102Y-55643056D01*
X64573039Y-55595515D01*
X64671479Y-55566543D01*
X64671515Y-55566540D01*
X64671524Y-55566537D01*
X64773667Y-55557241D01*
X64875676Y-55567963D01*
X64875676Y-55567963D01*
G37*
G36*
X63605676Y-55567963D02*
X63605681Y-55567965D01*
X63605723Y-55567969D01*
X63703748Y-55598313D01*
X63794012Y-55647119D01*
X63873078Y-55712527D01*
X63937933Y-55792048D01*
X63986108Y-55882651D01*
X64015767Y-55980885D01*
X64025780Y-56083010D01*
X64025780Y-56692990D01*
X64025729Y-56700331D01*
X64014290Y-56802306D01*
X63983263Y-56900117D01*
X63933828Y-56990038D01*
X63867869Y-57068645D01*
X63787898Y-57132944D01*
X63696961Y-57180485D01*
X63598521Y-57209457D01*
X63598485Y-57209460D01*
X63598476Y-57209463D01*
X63496333Y-57218759D01*
X63394324Y-57208037D01*
X63394319Y-57208035D01*
X63394277Y-57208031D01*
X63296252Y-57177687D01*
X63205988Y-57128881D01*
X63126922Y-57063473D01*
X63062067Y-56983952D01*
X63013892Y-56893349D01*
X62984233Y-56795115D01*
X62974220Y-56692990D01*
X62974220Y-56083010D01*
X62974271Y-56075669D01*
X62985710Y-55973694D01*
X63016737Y-55875883D01*
X63066172Y-55785962D01*
X63132131Y-55707355D01*
X63212102Y-55643056D01*
X63303039Y-55595515D01*
X63401479Y-55566543D01*
X63401515Y-55566540D01*
X63401524Y-55566537D01*
X63503667Y-55557241D01*
X63605676Y-55567963D01*
X63605676Y-55567963D01*
G37*
G36*
X84186988Y-54297024D02*
X84393626Y-54339441D01*
X84588104Y-54421192D01*
X84762991Y-54539155D01*
X84911636Y-54688841D01*
X85028375Y-54864548D01*
X85108763Y-55059584D01*
X85149669Y-55266174D01*
X85149669Y-55266184D01*
X85149736Y-55266523D01*
X85146372Y-55507472D01*
X85146295Y-55507810D01*
X85146295Y-55507819D01*
X85099637Y-55713187D01*
X85013836Y-55905899D01*
X84892234Y-56078280D01*
X84739466Y-56223759D01*
X84561353Y-56336793D01*
X84364672Y-56413080D01*
X84156927Y-56449712D01*
X83946017Y-56445293D01*
X83739984Y-56399995D01*
X83546672Y-56315538D01*
X83373451Y-56195146D01*
X83226909Y-56043399D01*
X83112633Y-55866076D01*
X83034973Y-55669931D01*
X82996893Y-55462449D01*
X82999838Y-55251515D01*
X83043699Y-55045168D01*
X83126802Y-54851274D01*
X83245985Y-54677212D01*
X83396704Y-54529616D01*
X83573225Y-54414105D01*
X83768819Y-54335079D01*
X83976033Y-54295552D01*
X84186988Y-54297024D01*
X84186988Y-54297024D01*
G37*
G36*
X91806988Y-54297024D02*
X92013626Y-54339441D01*
X92208104Y-54421192D01*
X92382991Y-54539155D01*
X92531636Y-54688841D01*
X92648375Y-54864548D01*
X92728763Y-55059584D01*
X92769669Y-55266174D01*
X92769669Y-55266184D01*
X92769736Y-55266523D01*
X92766372Y-55507472D01*
X92766295Y-55507810D01*
X92766295Y-55507819D01*
X92719637Y-55713187D01*
X92633836Y-55905899D01*
X92512234Y-56078280D01*
X92359466Y-56223759D01*
X92181353Y-56336793D01*
X91984672Y-56413080D01*
X91776927Y-56449712D01*
X91566017Y-56445293D01*
X91359984Y-56399995D01*
X91166672Y-56315538D01*
X90993451Y-56195146D01*
X90846909Y-56043399D01*
X90732633Y-55866076D01*
X90654973Y-55669931D01*
X90616893Y-55462449D01*
X90619838Y-55251515D01*
X90663699Y-55045168D01*
X90746802Y-54851274D01*
X90865985Y-54677212D01*
X91016704Y-54529616D01*
X91193225Y-54414105D01*
X91388819Y-54335079D01*
X91596033Y-54295552D01*
X91806988Y-54297024D01*
X91806988Y-54297024D01*
G37*
G36*
X107708807Y-49520003D02*
X107708813Y-49520004D01*
X107710863Y-49520018D01*
X108065065Y-49559748D01*
X108404804Y-49667520D01*
X108717141Y-49839228D01*
X108990177Y-50068333D01*
X109213513Y-50346107D01*
X109378643Y-50661971D01*
X109479276Y-51003893D01*
X109479279Y-51003929D01*
X109479282Y-51003938D01*
X109511581Y-51358847D01*
X109474330Y-51713273D01*
X109474327Y-51713283D01*
X109474323Y-51713321D01*
X109368926Y-52053804D01*
X109199402Y-52367332D01*
X108972209Y-52641961D01*
X108696001Y-52867231D01*
X108381298Y-53034561D01*
X108040086Y-53137579D01*
X107685364Y-53172360D01*
X104150602Y-53172360D01*
X104127193Y-53172197D01*
X104127187Y-53172196D01*
X104125137Y-53172182D01*
X103770935Y-53132452D01*
X103431196Y-53024680D01*
X103118859Y-52852972D01*
X102845823Y-52623867D01*
X102622487Y-52346093D01*
X102457357Y-52030229D01*
X102356724Y-51688307D01*
X102356721Y-51688271D01*
X102356718Y-51688262D01*
X102324419Y-51333353D01*
X102361670Y-50978927D01*
X102361673Y-50978917D01*
X102361677Y-50978879D01*
X102467074Y-50638396D01*
X102636598Y-50324868D01*
X102863791Y-50050239D01*
X103139999Y-49824969D01*
X103454702Y-49657639D01*
X103795914Y-49554621D01*
X104150636Y-49519840D01*
X107685398Y-49519840D01*
X107708807Y-49520003D01*
X107708807Y-49520003D01*
G37*
G36*
X93691570Y-50994817D02*
X93691575Y-50994819D01*
X93691617Y-50994823D01*
X93895245Y-51057856D01*
X94082750Y-51159240D01*
X94246993Y-51295114D01*
X94381717Y-51460301D01*
X94481789Y-51648510D01*
X94543399Y-51852572D01*
X94564200Y-52064715D01*
X94564200Y-52075285D01*
X94564094Y-52090534D01*
X94540333Y-52302366D01*
X94475880Y-52505548D01*
X94373189Y-52692342D01*
X94236172Y-52855632D01*
X94070049Y-52989199D01*
X93881145Y-53087955D01*
X93676658Y-53148139D01*
X93676617Y-53148143D01*
X93676613Y-53148144D01*
X93464377Y-53167459D01*
X93252430Y-53145183D01*
X93252425Y-53145181D01*
X93252383Y-53145177D01*
X93048755Y-53082144D01*
X92861250Y-52980760D01*
X92697007Y-52844886D01*
X92562283Y-52679699D01*
X92462211Y-52491490D01*
X92400601Y-52287428D01*
X92379800Y-52075285D01*
X92379800Y-52064715D01*
X92379906Y-52049466D01*
X92403667Y-51837634D01*
X92468120Y-51634452D01*
X92570811Y-51447658D01*
X92707828Y-51284368D01*
X92873951Y-51150801D01*
X93062855Y-51052045D01*
X93267342Y-50991861D01*
X93267383Y-50991857D01*
X93267387Y-50991856D01*
X93479623Y-50972541D01*
X93691570Y-50994817D01*
X93691570Y-50994817D01*
G37*
G36*
X97104200Y-53162200D02*
X94919800Y-53162200D01*
X94919800Y-50977800D01*
X97104200Y-50977800D01*
X97104200Y-53162200D01*
X97104200Y-53162200D01*
G37*
G36*
X77805531Y-50532315D02*
X77954636Y-50562923D01*
X78094969Y-50621913D01*
X78221162Y-50707032D01*
X78328424Y-50815044D01*
X78412662Y-50941834D01*
X78470667Y-51082565D01*
X78498090Y-51221060D01*
X78500234Y-51231890D01*
X78497806Y-51405754D01*
X78497728Y-51406097D01*
X78497728Y-51406101D01*
X78464082Y-51554196D01*
X78402170Y-51693252D01*
X78314424Y-51817640D01*
X78204189Y-51922615D01*
X78075664Y-52004180D01*
X77933746Y-52059226D01*
X77783840Y-52085659D01*
X77631649Y-52082470D01*
X77482980Y-52049784D01*
X77343488Y-51988841D01*
X77218496Y-51901969D01*
X77112754Y-51792470D01*
X77030294Y-51664517D01*
X76974256Y-51522982D01*
X76946778Y-51373266D01*
X76948903Y-51221060D01*
X76980553Y-51072163D01*
X77040517Y-50932253D01*
X77126518Y-50806653D01*
X77235275Y-50700150D01*
X77362650Y-50616799D01*
X77503787Y-50559775D01*
X77653308Y-50531253D01*
X77805531Y-50532315D01*
X77805531Y-50532315D01*
G37*
G36*
X73500200Y-52084200D02*
X71947800Y-52084200D01*
X71947800Y-50531800D01*
X73500200Y-50531800D01*
X73500200Y-52084200D01*
X73500200Y-52084200D01*
G37*
G36*
X84186988Y-49471024D02*
X84393626Y-49513441D01*
X84588104Y-49595192D01*
X84762991Y-49713155D01*
X84911636Y-49862841D01*
X85028375Y-50038548D01*
X85108763Y-50233584D01*
X85149669Y-50440174D01*
X85149669Y-50440184D01*
X85149736Y-50440523D01*
X85146372Y-50681472D01*
X85146295Y-50681810D01*
X85146295Y-50681819D01*
X85099637Y-50887187D01*
X85013836Y-51079899D01*
X84892234Y-51252280D01*
X84739466Y-51397759D01*
X84561353Y-51510793D01*
X84364672Y-51587080D01*
X84156927Y-51623712D01*
X83946017Y-51619293D01*
X83739984Y-51573995D01*
X83546672Y-51489538D01*
X83373451Y-51369146D01*
X83226909Y-51217399D01*
X83112633Y-51040076D01*
X83034973Y-50843931D01*
X82996893Y-50636449D01*
X82999838Y-50425515D01*
X83043699Y-50219168D01*
X83126802Y-50025274D01*
X83245985Y-49851212D01*
X83396704Y-49703616D01*
X83573225Y-49588105D01*
X83768819Y-49509079D01*
X83976033Y-49469552D01*
X84186988Y-49471024D01*
X84186988Y-49471024D01*
G37*
G36*
X75804988Y-47185024D02*
X76011626Y-47227441D01*
X76206104Y-47309192D01*
X76380991Y-47427155D01*
X76529636Y-47576841D01*
X76646375Y-47752548D01*
X76726763Y-47947584D01*
X76767669Y-48154174D01*
X76767669Y-48154184D01*
X76767736Y-48154523D01*
X76764372Y-48395472D01*
X76764295Y-48395810D01*
X76764295Y-48395819D01*
X76717637Y-48601187D01*
X76631836Y-48793899D01*
X76510234Y-48966280D01*
X76357466Y-49111759D01*
X76179353Y-49224793D01*
X75982672Y-49301080D01*
X75774927Y-49337712D01*
X75564017Y-49333293D01*
X75357984Y-49287995D01*
X75164672Y-49203538D01*
X74991451Y-49083146D01*
X74844909Y-48931399D01*
X74730633Y-48754076D01*
X74652973Y-48557931D01*
X74614893Y-48350449D01*
X74617838Y-48139515D01*
X74661699Y-47933168D01*
X74744802Y-47739274D01*
X74863985Y-47565212D01*
X75014704Y-47417616D01*
X75191225Y-47302105D01*
X75386819Y-47223079D01*
X75594033Y-47183552D01*
X75804988Y-47185024D01*
X75804988Y-47185024D01*
G37*
G36*
X68184988Y-47185024D02*
X68391626Y-47227441D01*
X68586104Y-47309192D01*
X68760991Y-47427155D01*
X68909636Y-47576841D01*
X69026375Y-47752548D01*
X69106763Y-47947584D01*
X69147669Y-48154174D01*
X69147669Y-48154184D01*
X69147736Y-48154523D01*
X69144372Y-48395472D01*
X69144295Y-48395810D01*
X69144295Y-48395819D01*
X69097637Y-48601187D01*
X69011836Y-48793899D01*
X68890234Y-48966280D01*
X68737466Y-49111759D01*
X68559353Y-49224793D01*
X68362672Y-49301080D01*
X68154927Y-49337712D01*
X67944017Y-49333293D01*
X67737984Y-49287995D01*
X67544672Y-49203538D01*
X67371451Y-49083146D01*
X67224909Y-48931399D01*
X67110633Y-48754076D01*
X67032973Y-48557931D01*
X66994893Y-48350449D01*
X66997838Y-48139515D01*
X67041699Y-47933168D01*
X67124802Y-47739274D01*
X67243985Y-47565212D01*
X67394704Y-47417616D01*
X67571225Y-47302105D01*
X67766819Y-47223079D01*
X67974033Y-47183552D01*
X68184988Y-47185024D01*
X68184988Y-47185024D01*
G37*
G36*
X93877904Y-46052761D02*
X94155719Y-46109789D01*
X94417179Y-46219697D01*
X94652306Y-46378292D01*
X94852150Y-46579535D01*
X95009098Y-46815763D01*
X95117175Y-47077977D01*
X95172194Y-47355844D01*
X95172194Y-47355849D01*
X95172262Y-47356193D01*
X95167739Y-47680134D01*
X95167662Y-47680472D01*
X95167662Y-47680481D01*
X95104905Y-47956704D01*
X94989551Y-48215795D01*
X94826065Y-48447549D01*
X94620678Y-48643137D01*
X94381215Y-48795105D01*
X94116792Y-48897668D01*
X93837490Y-48946917D01*
X93553935Y-48940976D01*
X93276936Y-48880075D01*
X93017041Y-48766529D01*
X92784157Y-48604671D01*
X92587137Y-48400650D01*
X92433502Y-48162254D01*
X92329094Y-47898552D01*
X92277898Y-47619603D01*
X92281857Y-47336015D01*
X92340825Y-47058595D01*
X92452551Y-46797916D01*
X92612785Y-46563901D01*
X92815419Y-46365467D01*
X93052739Y-46210169D01*
X93315703Y-46103925D01*
X93594291Y-46050782D01*
X93877904Y-46052761D01*
X93877904Y-46052761D01*
G37*
G36*
X88797904Y-46052761D02*
X89075719Y-46109789D01*
X89337179Y-46219697D01*
X89572306Y-46378292D01*
X89772150Y-46579535D01*
X89929098Y-46815763D01*
X90037175Y-47077977D01*
X90092194Y-47355844D01*
X90092194Y-47355849D01*
X90092262Y-47356193D01*
X90087739Y-47680134D01*
X90087662Y-47680472D01*
X90087662Y-47680481D01*
X90024905Y-47956704D01*
X89909551Y-48215795D01*
X89746065Y-48447549D01*
X89540678Y-48643137D01*
X89301215Y-48795105D01*
X89036792Y-48897668D01*
X88757490Y-48946917D01*
X88473935Y-48940976D01*
X88196936Y-48880075D01*
X87937041Y-48766529D01*
X87704157Y-48604671D01*
X87507137Y-48400650D01*
X87353502Y-48162254D01*
X87249094Y-47898552D01*
X87197898Y-47619603D01*
X87201857Y-47336015D01*
X87260825Y-47058595D01*
X87372551Y-46797916D01*
X87532785Y-46563901D01*
X87735419Y-46365467D01*
X87972739Y-46210169D01*
X88235703Y-46103925D01*
X88514291Y-46050782D01*
X88797904Y-46052761D01*
X88797904Y-46052761D01*
G37*
G36*
X102114194Y-45369514D02*
X102121570Y-45369565D01*
X102291528Y-45388629D01*
X102454546Y-45440342D01*
X102604416Y-45522733D01*
X102735427Y-45632665D01*
X102842592Y-45765950D01*
X102921826Y-45917512D01*
X102970113Y-46081578D01*
X102970116Y-46081609D01*
X102970120Y-46081623D01*
X102985615Y-46251894D01*
X102967743Y-46421937D01*
X102967742Y-46421942D01*
X102967737Y-46421985D01*
X102917164Y-46585360D01*
X102835821Y-46735801D01*
X102726806Y-46867577D01*
X102594272Y-46975669D01*
X102443267Y-47055960D01*
X102279543Y-47105391D01*
X102109335Y-47122080D01*
X101197308Y-47122080D01*
X101192486Y-47122046D01*
X101185110Y-47121995D01*
X101015152Y-47102931D01*
X100852134Y-47051218D01*
X100702264Y-46968827D01*
X100571253Y-46858895D01*
X100464088Y-46725610D01*
X100384854Y-46574048D01*
X100336567Y-46409982D01*
X100336564Y-46409951D01*
X100336560Y-46409937D01*
X100321065Y-46239666D01*
X100338937Y-46069623D01*
X100338938Y-46069618D01*
X100338943Y-46069575D01*
X100389516Y-45906200D01*
X100470859Y-45755759D01*
X100579874Y-45623983D01*
X100712408Y-45515891D01*
X100863413Y-45435600D01*
X101027137Y-45386169D01*
X101197345Y-45369480D01*
X102109372Y-45369480D01*
X102114194Y-45369514D01*
X102114194Y-45369514D01*
G37*
G36*
X72502988Y-44137024D02*
X72709626Y-44179441D01*
X72904104Y-44261192D01*
X73078991Y-44379155D01*
X73227636Y-44528841D01*
X73344375Y-44704548D01*
X73424763Y-44899584D01*
X73465669Y-45106174D01*
X73465669Y-45106184D01*
X73465736Y-45106523D01*
X73462372Y-45347472D01*
X73462295Y-45347810D01*
X73462295Y-45347819D01*
X73415637Y-45553187D01*
X73329836Y-45745899D01*
X73208234Y-45918280D01*
X73055466Y-46063759D01*
X72877353Y-46176793D01*
X72680672Y-46253080D01*
X72472927Y-46289712D01*
X72262017Y-46285293D01*
X72055984Y-46239995D01*
X71862672Y-46155538D01*
X71689451Y-46035146D01*
X71542909Y-45883399D01*
X71428633Y-45706076D01*
X71350973Y-45509931D01*
X71312893Y-45302449D01*
X71315838Y-45091515D01*
X71359699Y-44885168D01*
X71442802Y-44691274D01*
X71561985Y-44517212D01*
X71712704Y-44369616D01*
X71889225Y-44254105D01*
X72084819Y-44175079D01*
X72292033Y-44135552D01*
X72502988Y-44137024D01*
X72502988Y-44137024D01*
G37*
G36*
X80122988Y-44137024D02*
X80329626Y-44179441D01*
X80524104Y-44261192D01*
X80698991Y-44379155D01*
X80847636Y-44528841D01*
X80964375Y-44704548D01*
X81044763Y-44899584D01*
X81085669Y-45106174D01*
X81085669Y-45106184D01*
X81085736Y-45106523D01*
X81082372Y-45347472D01*
X81082295Y-45347810D01*
X81082295Y-45347819D01*
X81035637Y-45553187D01*
X80949836Y-45745899D01*
X80828234Y-45918280D01*
X80675466Y-46063759D01*
X80497353Y-46176793D01*
X80300672Y-46253080D01*
X80092927Y-46289712D01*
X79882017Y-46285293D01*
X79675984Y-46239995D01*
X79482672Y-46155538D01*
X79309451Y-46035146D01*
X79162909Y-45883399D01*
X79048633Y-45706076D01*
X78970973Y-45509931D01*
X78932893Y-45302449D01*
X78935838Y-45091515D01*
X78979699Y-44885168D01*
X79062802Y-44691274D01*
X79181985Y-44517212D01*
X79332704Y-44369616D01*
X79509225Y-44254105D01*
X79704819Y-44175079D01*
X79912033Y-44135552D01*
X80122988Y-44137024D01*
X80122988Y-44137024D01*
G37*
G36*
X91311646Y-43762594D02*
X91541434Y-43809764D01*
X91757698Y-43900672D01*
X91952179Y-44031852D01*
X92117477Y-44198307D01*
X92247293Y-44393698D01*
X92336688Y-44610584D01*
X92382184Y-44840357D01*
X92382184Y-44840368D01*
X92382251Y-44840707D01*
X92378510Y-45108649D01*
X92378433Y-45108987D01*
X92378433Y-45108996D01*
X92326539Y-45337410D01*
X92231126Y-45551712D01*
X92095901Y-45743404D01*
X91926019Y-45905181D01*
X91727951Y-46030879D01*
X91509237Y-46115712D01*
X91278218Y-46156448D01*
X91043680Y-46151535D01*
X90814563Y-46101160D01*
X90599595Y-46007243D01*
X90406968Y-45873363D01*
X90244009Y-45704615D01*
X90116931Y-45507427D01*
X90030571Y-45289309D01*
X89988226Y-45058582D01*
X89991500Y-44824017D01*
X90040275Y-44594553D01*
X90132687Y-44378937D01*
X90265222Y-44185375D01*
X90432827Y-44021244D01*
X90629123Y-43892792D01*
X90846630Y-43804913D01*
X91077058Y-43760957D01*
X91311646Y-43762594D01*
X91311646Y-43762594D01*
G37*
G36*
X102114194Y-42870154D02*
X102121570Y-42870205D01*
X102291528Y-42889269D01*
X102454546Y-42940982D01*
X102604416Y-43023373D01*
X102735427Y-43133305D01*
X102842592Y-43266590D01*
X102921826Y-43418152D01*
X102970113Y-43582218D01*
X102970116Y-43582249D01*
X102970120Y-43582263D01*
X102985615Y-43752534D01*
X102967743Y-43922577D01*
X102967742Y-43922582D01*
X102967737Y-43922625D01*
X102917164Y-44086000D01*
X102835821Y-44236441D01*
X102726806Y-44368217D01*
X102594272Y-44476309D01*
X102443267Y-44556600D01*
X102279543Y-44606031D01*
X102109335Y-44622720D01*
X101197308Y-44622720D01*
X101192486Y-44622686D01*
X101185110Y-44622635D01*
X101015152Y-44603571D01*
X100852134Y-44551858D01*
X100702264Y-44469467D01*
X100571253Y-44359535D01*
X100464088Y-44226250D01*
X100384854Y-44074688D01*
X100336567Y-43910622D01*
X100336564Y-43910591D01*
X100336560Y-43910577D01*
X100321065Y-43740306D01*
X100338937Y-43570263D01*
X100338938Y-43570258D01*
X100338943Y-43570215D01*
X100389516Y-43406840D01*
X100470859Y-43256399D01*
X100579874Y-43124623D01*
X100712408Y-43016531D01*
X100863413Y-42936240D01*
X101027137Y-42886809D01*
X101197345Y-42870120D01*
X102109372Y-42870120D01*
X102114194Y-42870154D01*
X102114194Y-42870154D01*
G37*
G36*
X84186988Y-41851024D02*
X84393626Y-41893441D01*
X84588104Y-41975192D01*
X84762991Y-42093155D01*
X84911636Y-42242841D01*
X85028375Y-42418548D01*
X85108763Y-42613584D01*
X85149669Y-42820174D01*
X85149669Y-42820184D01*
X85149736Y-42820523D01*
X85146372Y-43061472D01*
X85146295Y-43061810D01*
X85146295Y-43061819D01*
X85099637Y-43267187D01*
X85013836Y-43459899D01*
X84892234Y-43632280D01*
X84739466Y-43777759D01*
X84561353Y-43890793D01*
X84364672Y-43967080D01*
X84156927Y-44003712D01*
X83946017Y-43999293D01*
X83739984Y-43953995D01*
X83546672Y-43869538D01*
X83373451Y-43749146D01*
X83226909Y-43597399D01*
X83112633Y-43420076D01*
X83034973Y-43223931D01*
X82996893Y-43016449D01*
X82999838Y-42805515D01*
X83043699Y-42599168D01*
X83126802Y-42405274D01*
X83245985Y-42231212D01*
X83396704Y-42083616D01*
X83573225Y-41968105D01*
X83768819Y-41889079D01*
X83976033Y-41849552D01*
X84186988Y-41851024D01*
X84186988Y-41851024D01*
G37*
G36*
X88797904Y-40972761D02*
X89075719Y-41029789D01*
X89337179Y-41139697D01*
X89572306Y-41298292D01*
X89772150Y-41499535D01*
X89929098Y-41735763D01*
X90037175Y-41997977D01*
X90092194Y-42275844D01*
X90092194Y-42275849D01*
X90092262Y-42276193D01*
X90087739Y-42600134D01*
X90087662Y-42600472D01*
X90087662Y-42600481D01*
X90024905Y-42876704D01*
X89909551Y-43135795D01*
X89746065Y-43367549D01*
X89540678Y-43563137D01*
X89301215Y-43715105D01*
X89036792Y-43817668D01*
X88757490Y-43866917D01*
X88473935Y-43860976D01*
X88196936Y-43800075D01*
X87937041Y-43686529D01*
X87704157Y-43524671D01*
X87507137Y-43320650D01*
X87353502Y-43082254D01*
X87249094Y-42818552D01*
X87197898Y-42539603D01*
X87201857Y-42256015D01*
X87260825Y-41978595D01*
X87372551Y-41717916D01*
X87532785Y-41483901D01*
X87735419Y-41285467D01*
X87972739Y-41130169D01*
X88235703Y-41023925D01*
X88514291Y-40970782D01*
X88797904Y-40972761D01*
X88797904Y-40972761D01*
G37*
G36*
X93877904Y-40972761D02*
X94155719Y-41029789D01*
X94417179Y-41139697D01*
X94652306Y-41298292D01*
X94852150Y-41499535D01*
X95009098Y-41735763D01*
X95117175Y-41997977D01*
X95172194Y-42275844D01*
X95172194Y-42275849D01*
X95172262Y-42276193D01*
X95167739Y-42600134D01*
X95167662Y-42600472D01*
X95167662Y-42600481D01*
X95104905Y-42876704D01*
X94989551Y-43135795D01*
X94826065Y-43367549D01*
X94620678Y-43563137D01*
X94381215Y-43715105D01*
X94116792Y-43817668D01*
X93837490Y-43866917D01*
X93553935Y-43860976D01*
X93276936Y-43800075D01*
X93017041Y-43686529D01*
X92784157Y-43524671D01*
X92587137Y-43320650D01*
X92433502Y-43082254D01*
X92329094Y-42818552D01*
X92277898Y-42539603D01*
X92281857Y-42256015D01*
X92340825Y-41978595D01*
X92452551Y-41717916D01*
X92612785Y-41483901D01*
X92815419Y-41285467D01*
X93052739Y-41130169D01*
X93315703Y-41023925D01*
X93594291Y-40970782D01*
X93877904Y-40972761D01*
X93877904Y-40972761D01*
G37*
G36*
X107708807Y-39321903D02*
X107708813Y-39321904D01*
X107710863Y-39321918D01*
X108065065Y-39361648D01*
X108404804Y-39469420D01*
X108717141Y-39641128D01*
X108990177Y-39870233D01*
X109213513Y-40148007D01*
X109378643Y-40463871D01*
X109479276Y-40805793D01*
X109479279Y-40805829D01*
X109479282Y-40805838D01*
X109511581Y-41160747D01*
X109474330Y-41515173D01*
X109474327Y-41515183D01*
X109474323Y-41515221D01*
X109368926Y-41855704D01*
X109199402Y-42169232D01*
X108972209Y-42443861D01*
X108696001Y-42669131D01*
X108381298Y-42836461D01*
X108040086Y-42939479D01*
X107685364Y-42974260D01*
X104150602Y-42974260D01*
X104127193Y-42974097D01*
X104127187Y-42974096D01*
X104125137Y-42974082D01*
X103770935Y-42934352D01*
X103431196Y-42826580D01*
X103118859Y-42654872D01*
X102845823Y-42425767D01*
X102622487Y-42147993D01*
X102457357Y-41832129D01*
X102356724Y-41490207D01*
X102356721Y-41490171D01*
X102356718Y-41490162D01*
X102324419Y-41135253D01*
X102361670Y-40780827D01*
X102361673Y-40780817D01*
X102361677Y-40780779D01*
X102467074Y-40440296D01*
X102636598Y-40126768D01*
X102863791Y-39852139D01*
X103139999Y-39626869D01*
X103454702Y-39459539D01*
X103795914Y-39356521D01*
X104150636Y-39321740D01*
X107685398Y-39321740D01*
X107708807Y-39321903D01*
X107708807Y-39321903D01*
G37*
G36*
X78598988Y-39311024D02*
X78805626Y-39353441D01*
X79000104Y-39435192D01*
X79174991Y-39553155D01*
X79323636Y-39702841D01*
X79440375Y-39878548D01*
X79520763Y-40073584D01*
X79561669Y-40280174D01*
X79561669Y-40280184D01*
X79561736Y-40280523D01*
X79558372Y-40521472D01*
X79558295Y-40521810D01*
X79558295Y-40521819D01*
X79511637Y-40727187D01*
X79425836Y-40919899D01*
X79304234Y-41092280D01*
X79151466Y-41237759D01*
X78973353Y-41350793D01*
X78776672Y-41427080D01*
X78568927Y-41463712D01*
X78358017Y-41459293D01*
X78151984Y-41413995D01*
X77958672Y-41329538D01*
X77785451Y-41209146D01*
X77638909Y-41057399D01*
X77524633Y-40880076D01*
X77446973Y-40683931D01*
X77408893Y-40476449D01*
X77411838Y-40265515D01*
X77455699Y-40059168D01*
X77538802Y-39865274D01*
X77657985Y-39691212D01*
X77808704Y-39543616D01*
X77985225Y-39428105D01*
X78180819Y-39349079D01*
X78388033Y-39309552D01*
X78598988Y-39311024D01*
X78598988Y-39311024D01*
G37*
G36*
X70978988Y-39311024D02*
X71185626Y-39353441D01*
X71380104Y-39435192D01*
X71554991Y-39553155D01*
X71703636Y-39702841D01*
X71820375Y-39878548D01*
X71900763Y-40073584D01*
X71941669Y-40280174D01*
X71941669Y-40280184D01*
X71941736Y-40280523D01*
X71938372Y-40521472D01*
X71938295Y-40521810D01*
X71938295Y-40521819D01*
X71891637Y-40727187D01*
X71805836Y-40919899D01*
X71684234Y-41092280D01*
X71531466Y-41237759D01*
X71353353Y-41350793D01*
X71156672Y-41427080D01*
X70948927Y-41463712D01*
X70738017Y-41459293D01*
X70531984Y-41413995D01*
X70338672Y-41329538D01*
X70165451Y-41209146D01*
X70018909Y-41057399D01*
X69904633Y-40880076D01*
X69826973Y-40683931D01*
X69788893Y-40476449D01*
X69791838Y-40265515D01*
X69835699Y-40059168D01*
X69918802Y-39865274D01*
X70037985Y-39691212D01*
X70188704Y-39543616D01*
X70365225Y-39428105D01*
X70560819Y-39349079D01*
X70768033Y-39309552D01*
X70978988Y-39311024D01*
X70978988Y-39311024D01*
G37*
G36*
X98060593Y-30953514D02*
X98555486Y-31055101D01*
X99021235Y-31250884D01*
X99440080Y-31533399D01*
X99796074Y-31891886D01*
X100075656Y-32312693D01*
X100268181Y-32779791D01*
X100366243Y-33275041D01*
X100366243Y-33275052D01*
X100366310Y-33275391D01*
X100358253Y-33852446D01*
X100358176Y-33852784D01*
X100358176Y-33852793D01*
X100246323Y-34345113D01*
X100040834Y-34806650D01*
X99749608Y-35219488D01*
X99383742Y-35567898D01*
X98957172Y-35838608D01*
X98486142Y-36021308D01*
X97988602Y-36109038D01*
X97483492Y-36098457D01*
X96990056Y-35989968D01*
X96527091Y-35787704D01*
X96112235Y-35499371D01*
X95761280Y-35135947D01*
X95487598Y-34711274D01*
X95301612Y-34241529D01*
X95210412Y-33744616D01*
X95217465Y-33239445D01*
X95322507Y-32745264D01*
X95521533Y-32280901D01*
X95806966Y-31864036D01*
X96167930Y-31510554D01*
X96590681Y-31233914D01*
X97059113Y-31044654D01*
X97555380Y-30949987D01*
X98060593Y-30953514D01*
X98060593Y-30953514D01*
G37*
G36*
X91710593Y-30953514D02*
X92205486Y-31055101D01*
X92671235Y-31250884D01*
X93090080Y-31533399D01*
X93446074Y-31891886D01*
X93725656Y-32312693D01*
X93918181Y-32779791D01*
X94016243Y-33275041D01*
X94016243Y-33275052D01*
X94016310Y-33275391D01*
X94008253Y-33852446D01*
X94008176Y-33852784D01*
X94008176Y-33852793D01*
X93896323Y-34345113D01*
X93690834Y-34806650D01*
X93399608Y-35219488D01*
X93033742Y-35567898D01*
X92607172Y-35838608D01*
X92136142Y-36021308D01*
X91638602Y-36109038D01*
X91133492Y-36098457D01*
X90640056Y-35989968D01*
X90177091Y-35787704D01*
X89762235Y-35499371D01*
X89411280Y-35135947D01*
X89137598Y-34711274D01*
X88951612Y-34241529D01*
X88860412Y-33744616D01*
X88867465Y-33239445D01*
X88972507Y-32745264D01*
X89171533Y-32280901D01*
X89456966Y-31864036D01*
X89817930Y-31510554D01*
X90240681Y-31233914D01*
X90709113Y-31044654D01*
X91205380Y-30949987D01*
X91710593Y-30953514D01*
X91710593Y-30953514D01*
G37*
G36*
X85360593Y-30953514D02*
X85855486Y-31055101D01*
X86321235Y-31250884D01*
X86740080Y-31533399D01*
X87096074Y-31891886D01*
X87375656Y-32312693D01*
X87568181Y-32779791D01*
X87666243Y-33275041D01*
X87666243Y-33275052D01*
X87666310Y-33275391D01*
X87658253Y-33852446D01*
X87658176Y-33852784D01*
X87658176Y-33852793D01*
X87546323Y-34345113D01*
X87340834Y-34806650D01*
X87049608Y-35219488D01*
X86683742Y-35567898D01*
X86257172Y-35838608D01*
X85786142Y-36021308D01*
X85288602Y-36109038D01*
X84783492Y-36098457D01*
X84290056Y-35989968D01*
X83827091Y-35787704D01*
X83412235Y-35499371D01*
X83061280Y-35135947D01*
X82787598Y-34711274D01*
X82601612Y-34241529D01*
X82510412Y-33744616D01*
X82517465Y-33239445D01*
X82622507Y-32745264D01*
X82821533Y-32280901D01*
X83106966Y-31864036D01*
X83467930Y-31510554D01*
X83890681Y-31233914D01*
X84359113Y-31044654D01*
X84855380Y-30949987D01*
X85360593Y-30953514D01*
X85360593Y-30953514D01*
G37*
M02*
