%TF.GenerationSoftware,KiCad,Pcbnew,4.0.4+e1-6308~48~ubuntu16.04.1-stable*%
%TF.CreationDate,2016-12-09T19:15:12-08:00*%
%TF.ProjectId,e202var-vlf-radio-receiver,653230327661722D766C662D72616469,v1.2*%
%TF.FileFunction,Other,Fab,Top*%
%FSLAX46Y46*%
G04 Gerber Fmt 4.6, Leading zero omitted, Abs format (unit mm)*
G04 Created by KiCad (PCBNEW 4.0.4+e1-6308~48~ubuntu16.04.1-stable) date Fri Dec  9 19:15:12 2016*
%MOMM*%
%LPD*%
G01*
G04 APERTURE LIST*
%ADD10C,0.350000*%
%ADD11C,0.152400*%
%ADD12C,0.040640*%
%ADD13C,0.050000*%
%ADD14C,0.050800*%
%ADD15C,0.254000*%
%ADD16C,0.150000*%
%ADD17C,0.127000*%
G04 APERTURE END LIST*
D10*
D11*
X96544192Y-36358286D02*
X96786097Y-37035619D01*
X97028001Y-36358286D01*
X97947239Y-37035619D02*
X97366668Y-37035619D01*
X97656954Y-37035619D02*
X97656954Y-36019619D01*
X97560192Y-36164762D01*
X97463430Y-36261524D01*
X97366668Y-36309905D01*
X98382668Y-36938857D02*
X98431049Y-36987238D01*
X98382668Y-37035619D01*
X98334287Y-36987238D01*
X98382668Y-36938857D01*
X98382668Y-37035619D01*
X98818097Y-36116381D02*
X98866478Y-36068000D01*
X98963240Y-36019619D01*
X99205144Y-36019619D01*
X99301906Y-36068000D01*
X99350287Y-36116381D01*
X99398668Y-36213143D01*
X99398668Y-36309905D01*
X99350287Y-36455048D01*
X98769716Y-37035619D01*
X99398668Y-37035619D01*
X105784952Y-37035619D02*
X105204381Y-37035619D01*
X105494667Y-37035619D02*
X105494667Y-36019619D01*
X105397905Y-36164762D01*
X105301143Y-36261524D01*
X105204381Y-36309905D01*
X106172000Y-36116381D02*
X106220381Y-36068000D01*
X106317143Y-36019619D01*
X106559047Y-36019619D01*
X106655809Y-36068000D01*
X106704190Y-36116381D01*
X106752571Y-36213143D01*
X106752571Y-36309905D01*
X106704190Y-36455048D01*
X106123619Y-37035619D01*
X106752571Y-37035619D01*
X107913714Y-35971238D02*
X107042857Y-37277524D01*
X108300762Y-37035619D02*
X108494286Y-37035619D01*
X108591047Y-36987238D01*
X108639428Y-36938857D01*
X108736190Y-36793714D01*
X108784571Y-36600190D01*
X108784571Y-36213143D01*
X108736190Y-36116381D01*
X108687809Y-36068000D01*
X108591047Y-36019619D01*
X108397524Y-36019619D01*
X108300762Y-36068000D01*
X108252381Y-36116381D01*
X108204000Y-36213143D01*
X108204000Y-36455048D01*
X108252381Y-36551810D01*
X108300762Y-36600190D01*
X108397524Y-36648571D01*
X108591047Y-36648571D01*
X108687809Y-36600190D01*
X108736190Y-36551810D01*
X108784571Y-36455048D01*
X109945714Y-35971238D02*
X109074857Y-37277524D01*
X110236000Y-36116381D02*
X110284381Y-36068000D01*
X110381143Y-36019619D01*
X110623047Y-36019619D01*
X110719809Y-36068000D01*
X110768190Y-36116381D01*
X110816571Y-36213143D01*
X110816571Y-36309905D01*
X110768190Y-36455048D01*
X110187619Y-37035619D01*
X110816571Y-37035619D01*
X111445524Y-36019619D02*
X111542285Y-36019619D01*
X111639047Y-36068000D01*
X111687428Y-36116381D01*
X111735809Y-36213143D01*
X111784190Y-36406667D01*
X111784190Y-36648571D01*
X111735809Y-36842095D01*
X111687428Y-36938857D01*
X111639047Y-36987238D01*
X111542285Y-37035619D01*
X111445524Y-37035619D01*
X111348762Y-36987238D01*
X111300381Y-36938857D01*
X111252000Y-36842095D01*
X111203619Y-36648571D01*
X111203619Y-36406667D01*
X111252000Y-36213143D01*
X111300381Y-36116381D01*
X111348762Y-36068000D01*
X111445524Y-36019619D01*
X112751809Y-37035619D02*
X112171238Y-37035619D01*
X112461524Y-37035619D02*
X112461524Y-36019619D01*
X112364762Y-36164762D01*
X112268000Y-36261524D01*
X112171238Y-36309905D01*
X113622666Y-36019619D02*
X113429143Y-36019619D01*
X113332381Y-36068000D01*
X113284000Y-36116381D01*
X113187238Y-36261524D01*
X113138857Y-36455048D01*
X113138857Y-36842095D01*
X113187238Y-36938857D01*
X113235619Y-36987238D01*
X113332381Y-37035619D01*
X113525904Y-37035619D01*
X113622666Y-36987238D01*
X113671047Y-36938857D01*
X113719428Y-36842095D01*
X113719428Y-36600190D01*
X113671047Y-36503429D01*
X113622666Y-36455048D01*
X113525904Y-36406667D01*
X113332381Y-36406667D01*
X113235619Y-36455048D01*
X113187238Y-36503429D01*
X113138857Y-36600190D01*
X85585907Y-34217429D02*
X85924573Y-34217429D01*
X86069716Y-34749619D02*
X85585907Y-34749619D01*
X85585907Y-33733619D01*
X86069716Y-33733619D01*
X86456764Y-33830381D02*
X86505145Y-33782000D01*
X86601907Y-33733619D01*
X86843811Y-33733619D01*
X86940573Y-33782000D01*
X86988954Y-33830381D01*
X87037335Y-33927143D01*
X87037335Y-34023905D01*
X86988954Y-34169048D01*
X86408383Y-34749619D01*
X87037335Y-34749619D01*
X87666288Y-33733619D02*
X87763049Y-33733619D01*
X87859811Y-33782000D01*
X87908192Y-33830381D01*
X87956573Y-33927143D01*
X88004954Y-34120667D01*
X88004954Y-34362571D01*
X87956573Y-34556095D01*
X87908192Y-34652857D01*
X87859811Y-34701238D01*
X87763049Y-34749619D01*
X87666288Y-34749619D01*
X87569526Y-34701238D01*
X87521145Y-34652857D01*
X87472764Y-34556095D01*
X87424383Y-34362571D01*
X87424383Y-34120667D01*
X87472764Y-33927143D01*
X87521145Y-33830381D01*
X87569526Y-33782000D01*
X87666288Y-33733619D01*
X88392002Y-33830381D02*
X88440383Y-33782000D01*
X88537145Y-33733619D01*
X88779049Y-33733619D01*
X88875811Y-33782000D01*
X88924192Y-33830381D01*
X88972573Y-33927143D01*
X88972573Y-34023905D01*
X88924192Y-34169048D01*
X88343621Y-34749619D01*
X88972573Y-34749619D01*
X89262859Y-33733619D02*
X89601526Y-34749619D01*
X89940192Y-33733619D01*
X90230478Y-34459333D02*
X90714287Y-34459333D01*
X90133716Y-34749619D02*
X90472383Y-33733619D01*
X90811049Y-34749619D01*
X91730287Y-34749619D02*
X91391621Y-34265810D01*
X91149716Y-34749619D02*
X91149716Y-33733619D01*
X91536763Y-33733619D01*
X91633525Y-33782000D01*
X91681906Y-33830381D01*
X91730287Y-33927143D01*
X91730287Y-34072286D01*
X91681906Y-34169048D01*
X91633525Y-34217429D01*
X91536763Y-34265810D01*
X91149716Y-34265810D01*
X92794668Y-33733619D02*
X93133335Y-34749619D01*
X93472001Y-33733619D01*
X94294477Y-34749619D02*
X93810668Y-34749619D01*
X93810668Y-33733619D01*
X94971810Y-34217429D02*
X94633144Y-34217429D01*
X94633144Y-34749619D02*
X94633144Y-33733619D01*
X95116953Y-33733619D01*
X96278096Y-34749619D02*
X96278096Y-33733619D01*
X96858667Y-34749619D01*
X96858667Y-33733619D01*
X97777905Y-34749619D02*
X97777905Y-34217429D01*
X97729524Y-34120667D01*
X97632762Y-34072286D01*
X97439239Y-34072286D01*
X97342477Y-34120667D01*
X97777905Y-34701238D02*
X97681143Y-34749619D01*
X97439239Y-34749619D01*
X97342477Y-34701238D01*
X97294096Y-34604476D01*
X97294096Y-34507714D01*
X97342477Y-34410952D01*
X97439239Y-34362571D01*
X97681143Y-34362571D01*
X97777905Y-34314190D01*
X98116572Y-34072286D02*
X98503620Y-34072286D01*
X98261715Y-33733619D02*
X98261715Y-34604476D01*
X98310096Y-34701238D01*
X98406858Y-34749619D01*
X98503620Y-34749619D01*
X99277714Y-34072286D02*
X99277714Y-34749619D01*
X98842286Y-34072286D02*
X98842286Y-34604476D01*
X98890667Y-34701238D01*
X98987429Y-34749619D01*
X99132571Y-34749619D01*
X99229333Y-34701238D01*
X99277714Y-34652857D01*
X99761524Y-34749619D02*
X99761524Y-34072286D01*
X99761524Y-34265810D02*
X99809905Y-34169048D01*
X99858286Y-34120667D01*
X99955048Y-34072286D01*
X100051809Y-34072286D01*
X100825904Y-34749619D02*
X100825904Y-34217429D01*
X100777523Y-34120667D01*
X100680761Y-34072286D01*
X100487238Y-34072286D01*
X100390476Y-34120667D01*
X100825904Y-34701238D02*
X100729142Y-34749619D01*
X100487238Y-34749619D01*
X100390476Y-34701238D01*
X100342095Y-34604476D01*
X100342095Y-34507714D01*
X100390476Y-34410952D01*
X100487238Y-34362571D01*
X100729142Y-34362571D01*
X100825904Y-34314190D01*
X101454857Y-34749619D02*
X101358095Y-34701238D01*
X101309714Y-34604476D01*
X101309714Y-33733619D01*
X103196570Y-34749619D02*
X102857904Y-34265810D01*
X102615999Y-34749619D02*
X102615999Y-33733619D01*
X103003046Y-33733619D01*
X103099808Y-33782000D01*
X103148189Y-33830381D01*
X103196570Y-33927143D01*
X103196570Y-34072286D01*
X103148189Y-34169048D01*
X103099808Y-34217429D01*
X103003046Y-34265810D01*
X102615999Y-34265810D01*
X104067427Y-34749619D02*
X104067427Y-34217429D01*
X104019046Y-34120667D01*
X103922284Y-34072286D01*
X103728761Y-34072286D01*
X103631999Y-34120667D01*
X104067427Y-34701238D02*
X103970665Y-34749619D01*
X103728761Y-34749619D01*
X103631999Y-34701238D01*
X103583618Y-34604476D01*
X103583618Y-34507714D01*
X103631999Y-34410952D01*
X103728761Y-34362571D01*
X103970665Y-34362571D01*
X104067427Y-34314190D01*
X104986665Y-34749619D02*
X104986665Y-33733619D01*
X104986665Y-34701238D02*
X104889903Y-34749619D01*
X104696380Y-34749619D01*
X104599618Y-34701238D01*
X104551237Y-34652857D01*
X104502856Y-34556095D01*
X104502856Y-34265810D01*
X104551237Y-34169048D01*
X104599618Y-34120667D01*
X104696380Y-34072286D01*
X104889903Y-34072286D01*
X104986665Y-34120667D01*
X105470475Y-34749619D02*
X105470475Y-34072286D01*
X105470475Y-33733619D02*
X105422094Y-33782000D01*
X105470475Y-33830381D01*
X105518856Y-33782000D01*
X105470475Y-33733619D01*
X105470475Y-33830381D01*
X106099428Y-34749619D02*
X106002666Y-34701238D01*
X105954285Y-34652857D01*
X105905904Y-34556095D01*
X105905904Y-34265810D01*
X105954285Y-34169048D01*
X106002666Y-34120667D01*
X106099428Y-34072286D01*
X106244570Y-34072286D01*
X106341332Y-34120667D01*
X106389713Y-34169048D01*
X106438094Y-34265810D01*
X106438094Y-34556095D01*
X106389713Y-34652857D01*
X106341332Y-34701238D01*
X106244570Y-34749619D01*
X106099428Y-34749619D01*
X108228189Y-34749619D02*
X107889523Y-34265810D01*
X107647618Y-34749619D02*
X107647618Y-33733619D01*
X108034665Y-33733619D01*
X108131427Y-33782000D01*
X108179808Y-33830381D01*
X108228189Y-33927143D01*
X108228189Y-34072286D01*
X108179808Y-34169048D01*
X108131427Y-34217429D01*
X108034665Y-34265810D01*
X107647618Y-34265810D01*
X109050665Y-34701238D02*
X108953903Y-34749619D01*
X108760380Y-34749619D01*
X108663618Y-34701238D01*
X108615237Y-34604476D01*
X108615237Y-34217429D01*
X108663618Y-34120667D01*
X108760380Y-34072286D01*
X108953903Y-34072286D01*
X109050665Y-34120667D01*
X109099046Y-34217429D01*
X109099046Y-34314190D01*
X108615237Y-34410952D01*
X109969903Y-34701238D02*
X109873141Y-34749619D01*
X109679618Y-34749619D01*
X109582856Y-34701238D01*
X109534475Y-34652857D01*
X109486094Y-34556095D01*
X109486094Y-34265810D01*
X109534475Y-34169048D01*
X109582856Y-34120667D01*
X109679618Y-34072286D01*
X109873141Y-34072286D01*
X109969903Y-34120667D01*
X110792379Y-34701238D02*
X110695617Y-34749619D01*
X110502094Y-34749619D01*
X110405332Y-34701238D01*
X110356951Y-34604476D01*
X110356951Y-34217429D01*
X110405332Y-34120667D01*
X110502094Y-34072286D01*
X110695617Y-34072286D01*
X110792379Y-34120667D01*
X110840760Y-34217429D01*
X110840760Y-34314190D01*
X110356951Y-34410952D01*
X111276189Y-34749619D02*
X111276189Y-34072286D01*
X111276189Y-33733619D02*
X111227808Y-33782000D01*
X111276189Y-33830381D01*
X111324570Y-33782000D01*
X111276189Y-33733619D01*
X111276189Y-33830381D01*
X111663237Y-34072286D02*
X111905142Y-34749619D01*
X112147046Y-34072286D01*
X112921141Y-34701238D02*
X112824379Y-34749619D01*
X112630856Y-34749619D01*
X112534094Y-34701238D01*
X112485713Y-34604476D01*
X112485713Y-34217429D01*
X112534094Y-34120667D01*
X112630856Y-34072286D01*
X112824379Y-34072286D01*
X112921141Y-34120667D01*
X112969522Y-34217429D01*
X112969522Y-34314190D01*
X112485713Y-34410952D01*
X113404951Y-34749619D02*
X113404951Y-34072286D01*
X113404951Y-34265810D02*
X113453332Y-34169048D01*
X113501713Y-34120667D01*
X113598475Y-34072286D01*
X113695236Y-34072286D01*
X58420000Y-38100000D02*
X114300000Y-38100000D01*
X58420000Y-119380000D02*
X58420000Y-38100000D01*
X114300000Y-119380000D02*
X58420000Y-119380000D01*
X114300000Y-38100000D02*
X114300000Y-119380000D01*
D12*
X96213600Y-110208200D02*
X96213600Y-107211000D01*
X96238998Y-114932463D02*
G75*
G03X96213600Y-110208200I-25398J2362063D01*
G01*
X96239000Y-123467000D02*
X96239000Y-114932600D01*
D13*
X98015562Y-112522400D02*
G75*
G03X98015562Y-112522400I-1952562J0D01*
G01*
X93265562Y-115474962D02*
G75*
G03X93265562Y-115474962I-1952562J0D01*
G01*
X93216943Y-109472400D02*
G75*
G03X93216943Y-109472400I-1903943J0D01*
G01*
X86561600Y-107222400D02*
X86561600Y-123467000D01*
X96262200Y-107211000D02*
X86561600Y-107222400D01*
X86561600Y-123467000D02*
X96239000Y-123467000D01*
D12*
X71704060Y-110310600D02*
X74701260Y-110310600D01*
X66979797Y-110335998D02*
G75*
G03X71704060Y-110310600I2362063J25398D01*
G01*
X58445260Y-110336000D02*
X66979660Y-110336000D01*
D13*
X71342422Y-110160000D02*
G75*
G03X71342422Y-110160000I-1952562J0D01*
G01*
X68389860Y-105410000D02*
G75*
G03X68389860Y-105410000I-1952562J0D01*
G01*
X74343803Y-105410000D02*
G75*
G03X74343803Y-105410000I-1903943J0D01*
G01*
X74689860Y-100658600D02*
X58445260Y-100658600D01*
X74701260Y-110359200D02*
X74689860Y-100658600D01*
X58445260Y-100658600D02*
X58445260Y-110336000D01*
X82110000Y-38676000D02*
X90610000Y-38676000D01*
X90610000Y-38676000D02*
X90610000Y-47176000D01*
X90610000Y-47176000D02*
X82110000Y-47176000D01*
X82110000Y-47176000D02*
X82110000Y-38676000D01*
D14*
X114180000Y-102998000D02*
X114180000Y-118998000D01*
X99180000Y-102998000D02*
X114180000Y-102998000D01*
X99180000Y-118998000D02*
X99180000Y-102998000D01*
X114180000Y-118998000D02*
X99180000Y-118998000D01*
X114154600Y-38245780D02*
X114154600Y-54245780D01*
X99154600Y-38245780D02*
X114154600Y-38245780D01*
X99154600Y-54245780D02*
X99154600Y-38245780D01*
X114154600Y-54245780D02*
X99154600Y-54245780D01*
X114180000Y-85980000D02*
X114180000Y-101980000D01*
X99180000Y-85980000D02*
X114180000Y-85980000D01*
X99180000Y-101980000D02*
X99180000Y-85980000D01*
X114180000Y-101980000D02*
X99180000Y-101980000D01*
D13*
X59032000Y-85638000D02*
X67032000Y-85638000D01*
X59032000Y-90638000D02*
X59032000Y-85638000D01*
X67032000Y-90638000D02*
X59032000Y-90638000D01*
X67032000Y-85638000D02*
X67032000Y-90638000D01*
X67968000Y-50760000D02*
X59968000Y-50760000D01*
X67968000Y-45760000D02*
X67968000Y-50760000D01*
X59968000Y-45760000D02*
X67968000Y-45760000D01*
X59968000Y-50760000D02*
X59968000Y-45760000D01*
X60238000Y-68556000D02*
X60238000Y-60556000D01*
X65238000Y-68556000D02*
X60238000Y-68556000D01*
X65238000Y-60556000D02*
X65238000Y-68556000D01*
X60238000Y-60556000D02*
X65238000Y-60556000D01*
X81764000Y-75340000D02*
X81764000Y-79640000D01*
X78764000Y-75340000D02*
X81764000Y-75340000D01*
X78764000Y-79640000D02*
X78764000Y-75340000D01*
X81764000Y-79640000D02*
X78764000Y-79640000D01*
X92432000Y-87492000D02*
X92432000Y-91792000D01*
X89432000Y-87492000D02*
X92432000Y-87492000D01*
X89432000Y-91792000D02*
X89432000Y-87492000D01*
X92432000Y-91792000D02*
X89432000Y-91792000D01*
X105040000Y-73636000D02*
X100740000Y-73636000D01*
X105040000Y-70636000D02*
X105040000Y-73636000D01*
X100740000Y-70636000D02*
X105040000Y-70636000D01*
X100740000Y-73636000D02*
X100740000Y-70636000D01*
X105624000Y-75034000D02*
X105624000Y-83034000D01*
X100624000Y-75034000D02*
X105624000Y-75034000D01*
X100624000Y-83034000D02*
X100624000Y-75034000D01*
X105624000Y-83034000D02*
X100624000Y-83034000D01*
X60822000Y-71652000D02*
X65122000Y-71652000D01*
X60822000Y-74652000D02*
X60822000Y-71652000D01*
X65122000Y-74652000D02*
X60822000Y-74652000D01*
X65122000Y-71652000D02*
X65122000Y-74652000D01*
X97068000Y-63904000D02*
X97068000Y-55904000D01*
X102068000Y-63904000D02*
X97068000Y-63904000D01*
X102068000Y-55904000D02*
X102068000Y-63904000D01*
X97068000Y-55904000D02*
X102068000Y-55904000D01*
X97144000Y-65048000D02*
X101444000Y-65048000D01*
X97144000Y-68048000D02*
X97144000Y-65048000D01*
X101444000Y-68048000D02*
X97144000Y-68048000D01*
X101444000Y-65048000D02*
X101444000Y-68048000D01*
X89432000Y-99158000D02*
X89432000Y-94858000D01*
X92432000Y-99158000D02*
X89432000Y-99158000D01*
X92432000Y-94858000D02*
X92432000Y-99158000D01*
X89432000Y-94858000D02*
X92432000Y-94858000D01*
X65746000Y-76304000D02*
X65746000Y-84304000D01*
X60746000Y-76304000D02*
X65746000Y-76304000D01*
X60746000Y-84304000D02*
X60746000Y-76304000D01*
X65746000Y-84304000D02*
X60746000Y-84304000D01*
X93824000Y-64492000D02*
X89524000Y-64492000D01*
X93824000Y-61492000D02*
X93824000Y-64492000D01*
X89524000Y-61492000D02*
X93824000Y-61492000D01*
X89524000Y-64492000D02*
X89524000Y-61492000D01*
X66842000Y-99464000D02*
X66842000Y-91464000D01*
X71842000Y-99464000D02*
X66842000Y-99464000D01*
X71842000Y-91464000D02*
X71842000Y-99464000D01*
X66842000Y-91464000D02*
X71842000Y-91464000D01*
D14*
X85567460Y-105180000D02*
X85317460Y-105180000D01*
X85567460Y-118430000D02*
X85567460Y-105180000D01*
X82067460Y-118430000D02*
X85567460Y-118430000D01*
X82067460Y-118180000D02*
X82067460Y-118430000D01*
X82067460Y-105180000D02*
X82067460Y-118180000D01*
X85317460Y-105180000D02*
X82067460Y-105180000D01*
X85567460Y-106180000D02*
X82067460Y-106180000D01*
X94005460Y-99036000D02*
X94255460Y-99036000D01*
X94005460Y-85786000D02*
X94005460Y-99036000D01*
X97505460Y-85786000D02*
X94005460Y-85786000D01*
X97505460Y-86036000D02*
X97505460Y-85786000D01*
X97505460Y-99036000D02*
X97505460Y-86036000D01*
X94255460Y-99036000D02*
X97505460Y-99036000D01*
X94005460Y-98036000D02*
X97505460Y-98036000D01*
D13*
X79524000Y-112778000D02*
X79524000Y-119378000D01*
X79524000Y-112778000D02*
X73424000Y-112778000D01*
X79524000Y-119378000D02*
X73424000Y-119378000D01*
X73424000Y-112778000D02*
X73424000Y-119378000D01*
X65276000Y-99082000D02*
X58676000Y-99082000D01*
X65276000Y-99082000D02*
X65276000Y-92982000D01*
X58676000Y-99082000D02*
X58676000Y-92982000D01*
X65276000Y-92982000D02*
X58676000Y-92982000D01*
X92270000Y-49502000D02*
X98270000Y-49502000D01*
X92270000Y-49502000D02*
X92270000Y-46002000D01*
X98270000Y-46002000D02*
X92270000Y-46002000D01*
X98270000Y-49502000D02*
X98270000Y-46002000D01*
D12*
X83756176Y-92798667D02*
G75*
G03X83743800Y-96189800I-1714176J-1689333D01*
G01*
X83743800Y-96189800D02*
X83743800Y-92811600D01*
X62064667Y-53403824D02*
G75*
G03X65455800Y-53416200I1689333J-1714176D01*
G01*
X65455800Y-53416200D02*
X62077600Y-53416200D01*
D14*
X69840000Y-54078000D02*
X80040000Y-54078000D01*
X69840000Y-51078000D02*
X69840000Y-54078000D01*
X69940000Y-51078000D02*
X69840000Y-51078000D01*
X80040000Y-51078000D02*
X69940000Y-51078000D01*
X80040000Y-54078000D02*
X80040000Y-51078000D01*
X93990000Y-66318000D02*
X83790000Y-66318000D01*
X93990000Y-69318000D02*
X93990000Y-66318000D01*
X93890000Y-69318000D02*
X93990000Y-69318000D01*
X83790000Y-69318000D02*
X93890000Y-69318000D01*
X83790000Y-66318000D02*
X83790000Y-69318000D01*
X75922000Y-84592000D02*
X75922000Y-74392000D01*
X72922000Y-84592000D02*
X75922000Y-84592000D01*
X72922000Y-84492000D02*
X72922000Y-84592000D01*
X72922000Y-74392000D02*
X72922000Y-84492000D01*
X75922000Y-74392000D02*
X72922000Y-74392000D01*
X80020000Y-39394000D02*
X69820000Y-39394000D01*
X80020000Y-42394000D02*
X80020000Y-39394000D01*
X79920000Y-42394000D02*
X80020000Y-42394000D01*
X69820000Y-42394000D02*
X79920000Y-42394000D01*
X69820000Y-39394000D02*
X69820000Y-42394000D01*
X81016000Y-51538000D02*
X91216000Y-51538000D01*
X81016000Y-48538000D02*
X81016000Y-51538000D01*
X81116000Y-48538000D02*
X81016000Y-48538000D01*
X91216000Y-48538000D02*
X81116000Y-48538000D01*
X91216000Y-51538000D02*
X91216000Y-48538000D01*
X93990000Y-57428000D02*
X83790000Y-57428000D01*
X93990000Y-60428000D02*
X93990000Y-57428000D01*
X93890000Y-60428000D02*
X93990000Y-60428000D01*
X83790000Y-60428000D02*
X93890000Y-60428000D01*
X83790000Y-57428000D02*
X83790000Y-60428000D01*
X99036000Y-81544000D02*
X99036000Y-71344000D01*
X96036000Y-81544000D02*
X99036000Y-81544000D01*
X96036000Y-81444000D02*
X96036000Y-81544000D01*
X96036000Y-71344000D02*
X96036000Y-81444000D01*
X99036000Y-71344000D02*
X96036000Y-71344000D01*
X83810000Y-56110000D02*
X94010000Y-56110000D01*
X83810000Y-53110000D02*
X83810000Y-56110000D01*
X83910000Y-53110000D02*
X83810000Y-53110000D01*
X94010000Y-53110000D02*
X83910000Y-53110000D01*
X94010000Y-56110000D02*
X94010000Y-53110000D01*
D12*
X118770400Y-74396600D02*
X113766600Y-74396600D01*
D15*
X111983607Y-72390000D02*
G75*
G03X111983607Y-72390000I-223607J0D01*
G01*
D14*
X109960000Y-84390000D02*
X113560000Y-84390000D01*
X109960000Y-70590000D02*
X109960000Y-84390000D01*
X113560000Y-70590000D02*
X109960000Y-70590000D01*
D12*
X113741200Y-80416400D02*
X118770400Y-80416400D01*
X113563400Y-84378800D02*
X113563400Y-80416400D01*
X113563400Y-80416400D02*
X113766600Y-80416400D01*
X113563400Y-70586600D02*
X113563400Y-74396600D01*
X113563400Y-74396600D02*
X113766600Y-74396600D01*
X118770400Y-80416400D02*
X118770400Y-77444600D01*
X118770400Y-77444600D02*
X118770400Y-74396600D01*
D14*
X84606000Y-89144000D02*
X84606000Y-99344000D01*
X87606000Y-89144000D02*
X84606000Y-89144000D01*
X87606000Y-89244000D02*
X87606000Y-89144000D01*
X87606000Y-99344000D02*
X87606000Y-89244000D01*
X84606000Y-99344000D02*
X87606000Y-99344000D01*
X78970000Y-97292000D02*
X78970000Y-87092000D01*
X75970000Y-97292000D02*
X78970000Y-97292000D01*
X75970000Y-97192000D02*
X75970000Y-97292000D01*
X75970000Y-87092000D02*
X75970000Y-97192000D01*
X78970000Y-87092000D02*
X75970000Y-87092000D01*
X75414000Y-97292000D02*
X75414000Y-87092000D01*
X72414000Y-97292000D02*
X75414000Y-97292000D01*
X72414000Y-97192000D02*
X72414000Y-97292000D01*
X72414000Y-87092000D02*
X72414000Y-97192000D01*
X75414000Y-87092000D02*
X72414000Y-87092000D01*
X68096000Y-74158000D02*
X68096000Y-84358000D01*
X71096000Y-74158000D02*
X68096000Y-74158000D01*
X71096000Y-74258000D02*
X71096000Y-74158000D01*
X71096000Y-84358000D02*
X71096000Y-74258000D01*
X68096000Y-84358000D02*
X71096000Y-84358000D01*
D13*
X88448000Y-102140000D02*
X86448000Y-102140000D01*
X90448000Y-102140000D02*
X90448000Y-100890000D01*
X90948000Y-102140000D02*
X90448000Y-102140000D01*
X93698000Y-102140000D02*
X93698000Y-100890000D01*
X93698000Y-102140000D02*
X92698000Y-102140000D01*
X97448000Y-102140000D02*
X95198000Y-102140000D01*
X97448000Y-101140000D02*
X97448000Y-100890000D01*
X97448000Y-100890000D02*
X86448000Y-100890000D01*
X86448000Y-106140000D02*
X86448000Y-100890000D01*
X97448000Y-106140000D02*
X86448000Y-106140000D01*
X97448000Y-105890000D02*
X97448000Y-106140000D01*
X97448000Y-101140000D02*
X97448000Y-105890000D01*
D12*
X83756176Y-86448667D02*
G75*
G03X83743800Y-89839800I-1714176J-1689333D01*
G01*
X83743800Y-89839800D02*
X83743800Y-86461600D01*
D14*
X69490000Y-70826000D02*
X80240000Y-70826000D01*
X69490000Y-58076000D02*
X69490000Y-70826000D01*
X69740000Y-58076000D02*
X69490000Y-58076000D01*
X80240000Y-58076000D02*
X69740000Y-58076000D01*
X80240000Y-70826000D02*
X80240000Y-58076000D01*
D15*
X79093553Y-68326000D02*
G75*
G03X79093553Y-68326000I-353553J0D01*
G01*
D14*
X94594000Y-71668000D02*
X83844000Y-71668000D01*
X94594000Y-84418000D02*
X94594000Y-71668000D01*
X94344000Y-84418000D02*
X94594000Y-84418000D01*
X83844000Y-84418000D02*
X94344000Y-84418000D01*
X83844000Y-71668000D02*
X83844000Y-84418000D01*
D15*
X85697553Y-74168000D02*
G75*
G03X85697553Y-74168000I-353553J0D01*
G01*
D14*
X69840000Y-46204000D02*
X80040000Y-46204000D01*
X69840000Y-43204000D02*
X69840000Y-46204000D01*
X69940000Y-43204000D02*
X69840000Y-43204000D01*
X80040000Y-43204000D02*
X69940000Y-43204000D01*
X80040000Y-46204000D02*
X80040000Y-43204000D01*
D12*
X66339806Y-41910000D02*
G75*
G03X66339806Y-41910000I-2839806J0D01*
G01*
X66339806Y-114300000D02*
G75*
G03X66339806Y-114300000I-2839806J0D01*
G01*
X98089806Y-41910000D02*
G75*
G03X98089806Y-41910000I-2839806J0D01*
G01*
X103124000Y-68580000D02*
X113284000Y-68580000D01*
X103124000Y-55880000D02*
X103124000Y-68580000D01*
X113284000Y-55880000D02*
X103124000Y-55880000D01*
X113284000Y-55880000D02*
X113284000Y-68580000D01*
D14*
X80020000Y-47014000D02*
X69820000Y-47014000D01*
X80020000Y-50014000D02*
X80020000Y-47014000D01*
X79920000Y-50014000D02*
X80020000Y-50014000D01*
X69820000Y-50014000D02*
X79920000Y-50014000D01*
X69820000Y-47014000D02*
X69820000Y-50014000D01*
D13*
X75796000Y-98846000D02*
X83796000Y-98846000D01*
X75796000Y-103846000D02*
X75796000Y-98846000D01*
X83796000Y-103846000D02*
X75796000Y-103846000D01*
X83796000Y-98846000D02*
X83796000Y-103846000D01*
X81254249Y-110265160D02*
G75*
G02X81256000Y-107162000I-2798249J1553160D01*
G01*
X81256000Y-110262000D02*
X81256000Y-107162000D01*
D16*
X90852667Y-112101381D02*
X90852667Y-112815667D01*
X90805047Y-112958524D01*
X90709809Y-113053762D01*
X90566952Y-113101381D01*
X90471714Y-113101381D01*
X91757429Y-112434714D02*
X91757429Y-113101381D01*
X91519333Y-112053762D02*
X91281238Y-112768048D01*
X91900286Y-112768048D01*
X61261667Y-104862381D02*
X61261667Y-105576667D01*
X61214047Y-105719524D01*
X61118809Y-105814762D01*
X60975952Y-105862381D01*
X60880714Y-105862381D01*
X62261667Y-105862381D02*
X61690238Y-105862381D01*
X61975952Y-105862381D02*
X61975952Y-104862381D01*
X61880714Y-105005238D01*
X61785476Y-105100476D01*
X61690238Y-105148095D01*
D17*
X84569905Y-43337238D02*
X84715048Y-43385619D01*
X84956952Y-43385619D01*
X85053714Y-43337238D01*
X85102095Y-43288857D01*
X85150476Y-43192095D01*
X85150476Y-43095333D01*
X85102095Y-42998571D01*
X85053714Y-42950190D01*
X84956952Y-42901810D01*
X84763429Y-42853429D01*
X84666667Y-42805048D01*
X84618286Y-42756667D01*
X84569905Y-42659905D01*
X84569905Y-42563143D01*
X84618286Y-42466381D01*
X84666667Y-42418000D01*
X84763429Y-42369619D01*
X85005333Y-42369619D01*
X85150476Y-42418000D01*
X85585905Y-43385619D02*
X85585905Y-42369619D01*
X85924571Y-43095333D01*
X86263238Y-42369619D01*
X86263238Y-43385619D01*
X86698667Y-43095333D02*
X87182476Y-43095333D01*
X86601905Y-43385619D02*
X86940572Y-42369619D01*
X87279238Y-43385619D01*
X88150095Y-43385619D02*
X87569524Y-43385619D01*
X87859810Y-43385619D02*
X87859810Y-42369619D01*
X87763048Y-42514762D01*
X87666286Y-42611524D01*
X87569524Y-42659905D01*
D11*
X107028571Y-111225429D02*
X107173714Y-111273810D01*
X107222095Y-111322190D01*
X107270476Y-111418952D01*
X107270476Y-111564095D01*
X107222095Y-111660857D01*
X107173714Y-111709238D01*
X107076952Y-111757619D01*
X106689905Y-111757619D01*
X106689905Y-110741619D01*
X107028571Y-110741619D01*
X107125333Y-110790000D01*
X107173714Y-110838381D01*
X107222095Y-110935143D01*
X107222095Y-111031905D01*
X107173714Y-111128667D01*
X107125333Y-111177048D01*
X107028571Y-111225429D01*
X106689905Y-111225429D01*
X107705905Y-111757619D02*
X107705905Y-110741619D01*
X108286476Y-111757619D01*
X108286476Y-110741619D01*
X109350857Y-111660857D02*
X109302476Y-111709238D01*
X109157333Y-111757619D01*
X109060571Y-111757619D01*
X108915429Y-111709238D01*
X108818667Y-111612476D01*
X108770286Y-111515714D01*
X108721905Y-111322190D01*
X108721905Y-111177048D01*
X108770286Y-110983524D01*
X108818667Y-110886762D01*
X108915429Y-110790000D01*
X109060571Y-110741619D01*
X109157333Y-110741619D01*
X109302476Y-110790000D01*
X109350857Y-110838381D01*
X110318476Y-111757619D02*
X109737905Y-111757619D01*
X110028191Y-111757619D02*
X110028191Y-110741619D01*
X109931429Y-110886762D01*
X109834667Y-110983524D01*
X109737905Y-111031905D01*
X107003171Y-46473209D02*
X107148314Y-46521590D01*
X107196695Y-46569970D01*
X107245076Y-46666732D01*
X107245076Y-46811875D01*
X107196695Y-46908637D01*
X107148314Y-46957018D01*
X107051552Y-47005399D01*
X106664505Y-47005399D01*
X106664505Y-45989399D01*
X107003171Y-45989399D01*
X107099933Y-46037780D01*
X107148314Y-46086161D01*
X107196695Y-46182923D01*
X107196695Y-46279685D01*
X107148314Y-46376447D01*
X107099933Y-46424828D01*
X107003171Y-46473209D01*
X106664505Y-46473209D01*
X107680505Y-47005399D02*
X107680505Y-45989399D01*
X108261076Y-47005399D01*
X108261076Y-45989399D01*
X109325457Y-46908637D02*
X109277076Y-46957018D01*
X109131933Y-47005399D01*
X109035171Y-47005399D01*
X108890029Y-46957018D01*
X108793267Y-46860256D01*
X108744886Y-46763494D01*
X108696505Y-46569970D01*
X108696505Y-46424828D01*
X108744886Y-46231304D01*
X108793267Y-46134542D01*
X108890029Y-46037780D01*
X109035171Y-45989399D01*
X109131933Y-45989399D01*
X109277076Y-46037780D01*
X109325457Y-46086161D01*
X109712505Y-46086161D02*
X109760886Y-46037780D01*
X109857648Y-45989399D01*
X110099552Y-45989399D01*
X110196314Y-46037780D01*
X110244695Y-46086161D01*
X110293076Y-46182923D01*
X110293076Y-46279685D01*
X110244695Y-46424828D01*
X109664124Y-47005399D01*
X110293076Y-47005399D01*
X107028571Y-94207429D02*
X107173714Y-94255810D01*
X107222095Y-94304190D01*
X107270476Y-94400952D01*
X107270476Y-94546095D01*
X107222095Y-94642857D01*
X107173714Y-94691238D01*
X107076952Y-94739619D01*
X106689905Y-94739619D01*
X106689905Y-93723619D01*
X107028571Y-93723619D01*
X107125333Y-93772000D01*
X107173714Y-93820381D01*
X107222095Y-93917143D01*
X107222095Y-94013905D01*
X107173714Y-94110667D01*
X107125333Y-94159048D01*
X107028571Y-94207429D01*
X106689905Y-94207429D01*
X107705905Y-94739619D02*
X107705905Y-93723619D01*
X108286476Y-94739619D01*
X108286476Y-93723619D01*
X109350857Y-94642857D02*
X109302476Y-94691238D01*
X109157333Y-94739619D01*
X109060571Y-94739619D01*
X108915429Y-94691238D01*
X108818667Y-94594476D01*
X108770286Y-94497714D01*
X108721905Y-94304190D01*
X108721905Y-94159048D01*
X108770286Y-93965524D01*
X108818667Y-93868762D01*
X108915429Y-93772000D01*
X109060571Y-93723619D01*
X109157333Y-93723619D01*
X109302476Y-93772000D01*
X109350857Y-93820381D01*
X109689524Y-93723619D02*
X110318476Y-93723619D01*
X109979810Y-94110667D01*
X110124952Y-94110667D01*
X110221714Y-94159048D01*
X110270095Y-94207429D01*
X110318476Y-94304190D01*
X110318476Y-94546095D01*
X110270095Y-94642857D01*
X110221714Y-94691238D01*
X110124952Y-94739619D01*
X109834667Y-94739619D01*
X109737905Y-94691238D01*
X109689524Y-94642857D01*
D16*
X62815334Y-88495143D02*
X62767715Y-88542762D01*
X62624858Y-88590381D01*
X62529620Y-88590381D01*
X62386762Y-88542762D01*
X62291524Y-88447524D01*
X62243905Y-88352286D01*
X62196286Y-88161810D01*
X62196286Y-88018952D01*
X62243905Y-87828476D01*
X62291524Y-87733238D01*
X62386762Y-87638000D01*
X62529620Y-87590381D01*
X62624858Y-87590381D01*
X62767715Y-87638000D01*
X62815334Y-87685619D01*
X63767715Y-88590381D02*
X63196286Y-88590381D01*
X63482000Y-88590381D02*
X63482000Y-87590381D01*
X63386762Y-87733238D01*
X63291524Y-87828476D01*
X63196286Y-87876095D01*
X63851334Y-48617143D02*
X63803715Y-48664762D01*
X63660858Y-48712381D01*
X63565620Y-48712381D01*
X63422762Y-48664762D01*
X63327524Y-48569524D01*
X63279905Y-48474286D01*
X63232286Y-48283810D01*
X63232286Y-48140952D01*
X63279905Y-47950476D01*
X63327524Y-47855238D01*
X63422762Y-47760000D01*
X63565620Y-47712381D01*
X63660858Y-47712381D01*
X63803715Y-47760000D01*
X63851334Y-47807619D01*
X64232286Y-47807619D02*
X64279905Y-47760000D01*
X64375143Y-47712381D01*
X64613239Y-47712381D01*
X64708477Y-47760000D01*
X64756096Y-47807619D01*
X64803715Y-47902857D01*
X64803715Y-47998095D01*
X64756096Y-48140952D01*
X64184667Y-48712381D01*
X64803715Y-48712381D01*
X62571334Y-64963143D02*
X62523715Y-65010762D01*
X62380858Y-65058381D01*
X62285620Y-65058381D01*
X62142762Y-65010762D01*
X62047524Y-64915524D01*
X61999905Y-64820286D01*
X61952286Y-64629810D01*
X61952286Y-64486952D01*
X61999905Y-64296476D01*
X62047524Y-64201238D01*
X62142762Y-64106000D01*
X62285620Y-64058381D01*
X62380858Y-64058381D01*
X62523715Y-64106000D01*
X62571334Y-64153619D01*
X62904667Y-64058381D02*
X63523715Y-64058381D01*
X63190381Y-64439333D01*
X63333239Y-64439333D01*
X63428477Y-64486952D01*
X63476096Y-64534571D01*
X63523715Y-64629810D01*
X63523715Y-64867905D01*
X63476096Y-64963143D01*
X63428477Y-65010762D01*
X63333239Y-65058381D01*
X63047524Y-65058381D01*
X62952286Y-65010762D01*
X62904667Y-64963143D01*
X80097334Y-77847143D02*
X80049715Y-77894762D01*
X79906858Y-77942381D01*
X79811620Y-77942381D01*
X79668762Y-77894762D01*
X79573524Y-77799524D01*
X79525905Y-77704286D01*
X79478286Y-77513810D01*
X79478286Y-77370952D01*
X79525905Y-77180476D01*
X79573524Y-77085238D01*
X79668762Y-76990000D01*
X79811620Y-76942381D01*
X79906858Y-76942381D01*
X80049715Y-76990000D01*
X80097334Y-77037619D01*
X80954477Y-77275714D02*
X80954477Y-77942381D01*
X80716381Y-76894762D02*
X80478286Y-77609048D01*
X81097334Y-77609048D01*
X90765334Y-89999143D02*
X90717715Y-90046762D01*
X90574858Y-90094381D01*
X90479620Y-90094381D01*
X90336762Y-90046762D01*
X90241524Y-89951524D01*
X90193905Y-89856286D01*
X90146286Y-89665810D01*
X90146286Y-89522952D01*
X90193905Y-89332476D01*
X90241524Y-89237238D01*
X90336762Y-89142000D01*
X90479620Y-89094381D01*
X90574858Y-89094381D01*
X90717715Y-89142000D01*
X90765334Y-89189619D01*
X91670096Y-89094381D02*
X91193905Y-89094381D01*
X91146286Y-89570571D01*
X91193905Y-89522952D01*
X91289143Y-89475333D01*
X91527239Y-89475333D01*
X91622477Y-89522952D01*
X91670096Y-89570571D01*
X91717715Y-89665810D01*
X91717715Y-89903905D01*
X91670096Y-89999143D01*
X91622477Y-90046762D01*
X91527239Y-90094381D01*
X91289143Y-90094381D01*
X91193905Y-90046762D01*
X91146286Y-89999143D01*
X102723334Y-72493143D02*
X102675715Y-72540762D01*
X102532858Y-72588381D01*
X102437620Y-72588381D01*
X102294762Y-72540762D01*
X102199524Y-72445524D01*
X102151905Y-72350286D01*
X102104286Y-72159810D01*
X102104286Y-72016952D01*
X102151905Y-71826476D01*
X102199524Y-71731238D01*
X102294762Y-71636000D01*
X102437620Y-71588381D01*
X102532858Y-71588381D01*
X102675715Y-71636000D01*
X102723334Y-71683619D01*
X103580477Y-71588381D02*
X103390000Y-71588381D01*
X103294762Y-71636000D01*
X103247143Y-71683619D01*
X103151905Y-71826476D01*
X103104286Y-72016952D01*
X103104286Y-72397905D01*
X103151905Y-72493143D01*
X103199524Y-72540762D01*
X103294762Y-72588381D01*
X103485239Y-72588381D01*
X103580477Y-72540762D01*
X103628096Y-72493143D01*
X103675715Y-72397905D01*
X103675715Y-72159810D01*
X103628096Y-72064571D01*
X103580477Y-72016952D01*
X103485239Y-71969333D01*
X103294762Y-71969333D01*
X103199524Y-72016952D01*
X103151905Y-72064571D01*
X103104286Y-72159810D01*
X102957334Y-79341143D02*
X102909715Y-79388762D01*
X102766858Y-79436381D01*
X102671620Y-79436381D01*
X102528762Y-79388762D01*
X102433524Y-79293524D01*
X102385905Y-79198286D01*
X102338286Y-79007810D01*
X102338286Y-78864952D01*
X102385905Y-78674476D01*
X102433524Y-78579238D01*
X102528762Y-78484000D01*
X102671620Y-78436381D01*
X102766858Y-78436381D01*
X102909715Y-78484000D01*
X102957334Y-78531619D01*
X103290667Y-78436381D02*
X103957334Y-78436381D01*
X103528762Y-79436381D01*
X62805334Y-73509143D02*
X62757715Y-73556762D01*
X62614858Y-73604381D01*
X62519620Y-73604381D01*
X62376762Y-73556762D01*
X62281524Y-73461524D01*
X62233905Y-73366286D01*
X62186286Y-73175810D01*
X62186286Y-73032952D01*
X62233905Y-72842476D01*
X62281524Y-72747238D01*
X62376762Y-72652000D01*
X62519620Y-72604381D01*
X62614858Y-72604381D01*
X62757715Y-72652000D01*
X62805334Y-72699619D01*
X63376762Y-73032952D02*
X63281524Y-72985333D01*
X63233905Y-72937714D01*
X63186286Y-72842476D01*
X63186286Y-72794857D01*
X63233905Y-72699619D01*
X63281524Y-72652000D01*
X63376762Y-72604381D01*
X63567239Y-72604381D01*
X63662477Y-72652000D01*
X63710096Y-72699619D01*
X63757715Y-72794857D01*
X63757715Y-72842476D01*
X63710096Y-72937714D01*
X63662477Y-72985333D01*
X63567239Y-73032952D01*
X63376762Y-73032952D01*
X63281524Y-73080571D01*
X63233905Y-73128190D01*
X63186286Y-73223429D01*
X63186286Y-73413905D01*
X63233905Y-73509143D01*
X63281524Y-73556762D01*
X63376762Y-73604381D01*
X63567239Y-73604381D01*
X63662477Y-73556762D01*
X63710096Y-73509143D01*
X63757715Y-73413905D01*
X63757715Y-73223429D01*
X63710096Y-73128190D01*
X63662477Y-73080571D01*
X63567239Y-73032952D01*
X99401334Y-60311143D02*
X99353715Y-60358762D01*
X99210858Y-60406381D01*
X99115620Y-60406381D01*
X98972762Y-60358762D01*
X98877524Y-60263524D01*
X98829905Y-60168286D01*
X98782286Y-59977810D01*
X98782286Y-59834952D01*
X98829905Y-59644476D01*
X98877524Y-59549238D01*
X98972762Y-59454000D01*
X99115620Y-59406381D01*
X99210858Y-59406381D01*
X99353715Y-59454000D01*
X99401334Y-59501619D01*
X99877524Y-60406381D02*
X100068000Y-60406381D01*
X100163239Y-60358762D01*
X100210858Y-60311143D01*
X100306096Y-60168286D01*
X100353715Y-59977810D01*
X100353715Y-59596857D01*
X100306096Y-59501619D01*
X100258477Y-59454000D01*
X100163239Y-59406381D01*
X99972762Y-59406381D01*
X99877524Y-59454000D01*
X99829905Y-59501619D01*
X99782286Y-59596857D01*
X99782286Y-59834952D01*
X99829905Y-59930190D01*
X99877524Y-59977810D01*
X99972762Y-60025429D01*
X100163239Y-60025429D01*
X100258477Y-59977810D01*
X100306096Y-59930190D01*
X100353715Y-59834952D01*
X98651143Y-66905143D02*
X98603524Y-66952762D01*
X98460667Y-67000381D01*
X98365429Y-67000381D01*
X98222571Y-66952762D01*
X98127333Y-66857524D01*
X98079714Y-66762286D01*
X98032095Y-66571810D01*
X98032095Y-66428952D01*
X98079714Y-66238476D01*
X98127333Y-66143238D01*
X98222571Y-66048000D01*
X98365429Y-66000381D01*
X98460667Y-66000381D01*
X98603524Y-66048000D01*
X98651143Y-66095619D01*
X99603524Y-67000381D02*
X99032095Y-67000381D01*
X99317809Y-67000381D02*
X99317809Y-66000381D01*
X99222571Y-66143238D01*
X99127333Y-66238476D01*
X99032095Y-66286095D01*
X100222571Y-66000381D02*
X100317810Y-66000381D01*
X100413048Y-66048000D01*
X100460667Y-66095619D01*
X100508286Y-66190857D01*
X100555905Y-66381333D01*
X100555905Y-66619429D01*
X100508286Y-66809905D01*
X100460667Y-66905143D01*
X100413048Y-66952762D01*
X100317810Y-67000381D01*
X100222571Y-67000381D01*
X100127333Y-66952762D01*
X100079714Y-66905143D01*
X100032095Y-66809905D01*
X99984476Y-66619429D01*
X99984476Y-66381333D01*
X100032095Y-66190857D01*
X100079714Y-66095619D01*
X100127333Y-66048000D01*
X100222571Y-66000381D01*
X90289143Y-97365143D02*
X90241524Y-97412762D01*
X90098667Y-97460381D01*
X90003429Y-97460381D01*
X89860571Y-97412762D01*
X89765333Y-97317524D01*
X89717714Y-97222286D01*
X89670095Y-97031810D01*
X89670095Y-96888952D01*
X89717714Y-96698476D01*
X89765333Y-96603238D01*
X89860571Y-96508000D01*
X90003429Y-96460381D01*
X90098667Y-96460381D01*
X90241524Y-96508000D01*
X90289143Y-96555619D01*
X91241524Y-97460381D02*
X90670095Y-97460381D01*
X90955809Y-97460381D02*
X90955809Y-96460381D01*
X90860571Y-96603238D01*
X90765333Y-96698476D01*
X90670095Y-96746095D01*
X91622476Y-96555619D02*
X91670095Y-96508000D01*
X91765333Y-96460381D01*
X92003429Y-96460381D01*
X92098667Y-96508000D01*
X92146286Y-96555619D01*
X92193905Y-96650857D01*
X92193905Y-96746095D01*
X92146286Y-96888952D01*
X91574857Y-97460381D01*
X92193905Y-97460381D01*
X62603143Y-80611143D02*
X62555524Y-80658762D01*
X62412667Y-80706381D01*
X62317429Y-80706381D01*
X62174571Y-80658762D01*
X62079333Y-80563524D01*
X62031714Y-80468286D01*
X61984095Y-80277810D01*
X61984095Y-80134952D01*
X62031714Y-79944476D01*
X62079333Y-79849238D01*
X62174571Y-79754000D01*
X62317429Y-79706381D01*
X62412667Y-79706381D01*
X62555524Y-79754000D01*
X62603143Y-79801619D01*
X63555524Y-80706381D02*
X62984095Y-80706381D01*
X63269809Y-80706381D02*
X63269809Y-79706381D01*
X63174571Y-79849238D01*
X63079333Y-79944476D01*
X62984095Y-79992095D01*
X63888857Y-79706381D02*
X64507905Y-79706381D01*
X64174571Y-80087333D01*
X64317429Y-80087333D01*
X64412667Y-80134952D01*
X64460286Y-80182571D01*
X64507905Y-80277810D01*
X64507905Y-80515905D01*
X64460286Y-80611143D01*
X64412667Y-80658762D01*
X64317429Y-80706381D01*
X64031714Y-80706381D01*
X63936476Y-80658762D01*
X63888857Y-80611143D01*
X91031143Y-63349143D02*
X90983524Y-63396762D01*
X90840667Y-63444381D01*
X90745429Y-63444381D01*
X90602571Y-63396762D01*
X90507333Y-63301524D01*
X90459714Y-63206286D01*
X90412095Y-63015810D01*
X90412095Y-62872952D01*
X90459714Y-62682476D01*
X90507333Y-62587238D01*
X90602571Y-62492000D01*
X90745429Y-62444381D01*
X90840667Y-62444381D01*
X90983524Y-62492000D01*
X91031143Y-62539619D01*
X91983524Y-63444381D02*
X91412095Y-63444381D01*
X91697809Y-63444381D02*
X91697809Y-62444381D01*
X91602571Y-62587238D01*
X91507333Y-62682476D01*
X91412095Y-62730095D01*
X92888286Y-62444381D02*
X92412095Y-62444381D01*
X92364476Y-62920571D01*
X92412095Y-62872952D01*
X92507333Y-62825333D01*
X92745429Y-62825333D01*
X92840667Y-62872952D01*
X92888286Y-62920571D01*
X92935905Y-63015810D01*
X92935905Y-63253905D01*
X92888286Y-63349143D01*
X92840667Y-63396762D01*
X92745429Y-63444381D01*
X92507333Y-63444381D01*
X92412095Y-63396762D01*
X92364476Y-63349143D01*
X68699143Y-95871143D02*
X68651524Y-95918762D01*
X68508667Y-95966381D01*
X68413429Y-95966381D01*
X68270571Y-95918762D01*
X68175333Y-95823524D01*
X68127714Y-95728286D01*
X68080095Y-95537810D01*
X68080095Y-95394952D01*
X68127714Y-95204476D01*
X68175333Y-95109238D01*
X68270571Y-95014000D01*
X68413429Y-94966381D01*
X68508667Y-94966381D01*
X68651524Y-95014000D01*
X68699143Y-95061619D01*
X69651524Y-95966381D02*
X69080095Y-95966381D01*
X69365809Y-95966381D02*
X69365809Y-94966381D01*
X69270571Y-95109238D01*
X69175333Y-95204476D01*
X69080095Y-95252095D01*
X70508667Y-94966381D02*
X70318190Y-94966381D01*
X70222952Y-95014000D01*
X70175333Y-95061619D01*
X70080095Y-95204476D01*
X70032476Y-95394952D01*
X70032476Y-95775905D01*
X70080095Y-95871143D01*
X70127714Y-95918762D01*
X70222952Y-95966381D01*
X70413429Y-95966381D01*
X70508667Y-95918762D01*
X70556286Y-95871143D01*
X70603905Y-95775905D01*
X70603905Y-95537810D01*
X70556286Y-95442571D01*
X70508667Y-95394952D01*
X70413429Y-95347333D01*
X70222952Y-95347333D01*
X70127714Y-95394952D01*
X70080095Y-95442571D01*
X70032476Y-95537810D01*
D11*
X83067556Y-112389619D02*
X83067556Y-111373619D01*
X83309461Y-111373619D01*
X83454603Y-111422000D01*
X83551365Y-111518762D01*
X83599746Y-111615524D01*
X83648127Y-111809048D01*
X83648127Y-111954190D01*
X83599746Y-112147714D01*
X83551365Y-112244476D01*
X83454603Y-112341238D01*
X83309461Y-112389619D01*
X83067556Y-112389619D01*
X84615746Y-112389619D02*
X84035175Y-112389619D01*
X84325461Y-112389619D02*
X84325461Y-111373619D01*
X84228699Y-111518762D01*
X84131937Y-111615524D01*
X84035175Y-111663905D01*
X95005556Y-92745619D02*
X95005556Y-91729619D01*
X95247461Y-91729619D01*
X95392603Y-91778000D01*
X95489365Y-91874762D01*
X95537746Y-91971524D01*
X95586127Y-92165048D01*
X95586127Y-92310190D01*
X95537746Y-92503714D01*
X95489365Y-92600476D01*
X95392603Y-92697238D01*
X95247461Y-92745619D01*
X95005556Y-92745619D01*
X95973175Y-91826381D02*
X96021556Y-91778000D01*
X96118318Y-91729619D01*
X96360222Y-91729619D01*
X96456984Y-91778000D01*
X96505365Y-91826381D01*
X96553746Y-91923143D01*
X96553746Y-92019905D01*
X96505365Y-92165048D01*
X95924794Y-92745619D01*
X96553746Y-92745619D01*
X76115333Y-115521619D02*
X76115333Y-116247333D01*
X76066953Y-116392476D01*
X75970191Y-116489238D01*
X75825048Y-116537619D01*
X75728286Y-116537619D01*
X76550762Y-115618381D02*
X76599143Y-115570000D01*
X76695905Y-115521619D01*
X76937809Y-115521619D01*
X77034571Y-115570000D01*
X77082952Y-115618381D01*
X77131333Y-115715143D01*
X77131333Y-115811905D01*
X77082952Y-115957048D01*
X76502381Y-116537619D01*
X77131333Y-116537619D01*
X61637333Y-95455619D02*
X61637333Y-96181333D01*
X61588953Y-96326476D01*
X61492191Y-96423238D01*
X61347048Y-96471619D01*
X61250286Y-96471619D01*
X62604952Y-95455619D02*
X62121143Y-95455619D01*
X62072762Y-95939429D01*
X62121143Y-95891048D01*
X62217905Y-95842667D01*
X62459809Y-95842667D01*
X62556571Y-95891048D01*
X62604952Y-95939429D01*
X62653333Y-96036190D01*
X62653333Y-96278095D01*
X62604952Y-96374857D01*
X62556571Y-96423238D01*
X62459809Y-96471619D01*
X62217905Y-96471619D01*
X62121143Y-96423238D01*
X62072762Y-96374857D01*
X93576667Y-48211619D02*
X93092858Y-48211619D01*
X93092858Y-47195619D01*
X93866953Y-47921333D02*
X94350762Y-47921333D01*
X93770191Y-48211619D02*
X94108858Y-47195619D01*
X94447524Y-48211619D01*
X94786191Y-48211619D02*
X94786191Y-47195619D01*
X95124857Y-47921333D01*
X95463524Y-47195619D01*
X95463524Y-48211619D01*
X95947334Y-48211619D02*
X95947334Y-47195619D01*
X96334381Y-47195619D01*
X96431143Y-47244000D01*
X96479524Y-47292381D01*
X96527905Y-47389143D01*
X96527905Y-47534286D01*
X96479524Y-47631048D01*
X96431143Y-47679429D01*
X96334381Y-47727810D01*
X95947334Y-47727810D01*
X97495524Y-48211619D02*
X96914953Y-48211619D01*
X97205239Y-48211619D02*
X97205239Y-47195619D01*
X97108477Y-47340762D01*
X97011715Y-47437524D01*
X96914953Y-47485905D01*
D16*
X81946762Y-95105619D02*
X81851524Y-95058000D01*
X81756286Y-94962762D01*
X81613429Y-94819905D01*
X81518190Y-94772286D01*
X81422952Y-94772286D01*
X81470571Y-95010381D02*
X81375333Y-94962762D01*
X81280095Y-94867524D01*
X81232476Y-94677048D01*
X81232476Y-94343714D01*
X81280095Y-94153238D01*
X81375333Y-94058000D01*
X81470571Y-94010381D01*
X81661048Y-94010381D01*
X81756286Y-94058000D01*
X81851524Y-94153238D01*
X81899143Y-94343714D01*
X81899143Y-94677048D01*
X81851524Y-94867524D01*
X81756286Y-94962762D01*
X81661048Y-95010381D01*
X81470571Y-95010381D01*
X82851524Y-95010381D02*
X82280095Y-95010381D01*
X82565809Y-95010381D02*
X82565809Y-94010381D01*
X82470571Y-94153238D01*
X82375333Y-94248476D01*
X82280095Y-94296095D01*
X63728762Y-55665619D02*
X63633524Y-55618000D01*
X63538286Y-55522762D01*
X63395429Y-55379905D01*
X63300190Y-55332286D01*
X63204952Y-55332286D01*
X63252571Y-55570381D02*
X63157333Y-55522762D01*
X63062095Y-55427524D01*
X63014476Y-55237048D01*
X63014476Y-54903714D01*
X63062095Y-54713238D01*
X63157333Y-54618000D01*
X63252571Y-54570381D01*
X63443048Y-54570381D01*
X63538286Y-54618000D01*
X63633524Y-54713238D01*
X63681143Y-54903714D01*
X63681143Y-55237048D01*
X63633524Y-55427524D01*
X63538286Y-55522762D01*
X63443048Y-55570381D01*
X63252571Y-55570381D01*
X64062095Y-54665619D02*
X64109714Y-54618000D01*
X64204952Y-54570381D01*
X64443048Y-54570381D01*
X64538286Y-54618000D01*
X64585905Y-54665619D01*
X64633524Y-54760857D01*
X64633524Y-54856095D01*
X64585905Y-54998952D01*
X64014476Y-55570381D01*
X64633524Y-55570381D01*
X74773334Y-53030381D02*
X74440000Y-52554190D01*
X74201905Y-53030381D02*
X74201905Y-52030381D01*
X74582858Y-52030381D01*
X74678096Y-52078000D01*
X74725715Y-52125619D01*
X74773334Y-52220857D01*
X74773334Y-52363714D01*
X74725715Y-52458952D01*
X74678096Y-52506571D01*
X74582858Y-52554190D01*
X74201905Y-52554190D01*
X75725715Y-53030381D02*
X75154286Y-53030381D01*
X75440000Y-53030381D02*
X75440000Y-52030381D01*
X75344762Y-52173238D01*
X75249524Y-52268476D01*
X75154286Y-52316095D01*
X88723334Y-68270381D02*
X88390000Y-67794190D01*
X88151905Y-68270381D02*
X88151905Y-67270381D01*
X88532858Y-67270381D01*
X88628096Y-67318000D01*
X88675715Y-67365619D01*
X88723334Y-67460857D01*
X88723334Y-67603714D01*
X88675715Y-67698952D01*
X88628096Y-67746571D01*
X88532858Y-67794190D01*
X88151905Y-67794190D01*
X89056667Y-67270381D02*
X89675715Y-67270381D01*
X89342381Y-67651333D01*
X89485239Y-67651333D01*
X89580477Y-67698952D01*
X89628096Y-67746571D01*
X89675715Y-67841810D01*
X89675715Y-68079905D01*
X89628096Y-68175143D01*
X89580477Y-68222762D01*
X89485239Y-68270381D01*
X89199524Y-68270381D01*
X89104286Y-68222762D01*
X89056667Y-68175143D01*
X74255334Y-79944381D02*
X73922000Y-79468190D01*
X73683905Y-79944381D02*
X73683905Y-78944381D01*
X74064858Y-78944381D01*
X74160096Y-78992000D01*
X74207715Y-79039619D01*
X74255334Y-79134857D01*
X74255334Y-79277714D01*
X74207715Y-79372952D01*
X74160096Y-79420571D01*
X74064858Y-79468190D01*
X73683905Y-79468190D01*
X75112477Y-79277714D02*
X75112477Y-79944381D01*
X74874381Y-78896762D02*
X74636286Y-79611048D01*
X75255334Y-79611048D01*
X74753334Y-41346381D02*
X74420000Y-40870190D01*
X74181905Y-41346381D02*
X74181905Y-40346381D01*
X74562858Y-40346381D01*
X74658096Y-40394000D01*
X74705715Y-40441619D01*
X74753334Y-40536857D01*
X74753334Y-40679714D01*
X74705715Y-40774952D01*
X74658096Y-40822571D01*
X74562858Y-40870190D01*
X74181905Y-40870190D01*
X75658096Y-40346381D02*
X75181905Y-40346381D01*
X75134286Y-40822571D01*
X75181905Y-40774952D01*
X75277143Y-40727333D01*
X75515239Y-40727333D01*
X75610477Y-40774952D01*
X75658096Y-40822571D01*
X75705715Y-40917810D01*
X75705715Y-41155905D01*
X75658096Y-41251143D01*
X75610477Y-41298762D01*
X75515239Y-41346381D01*
X75277143Y-41346381D01*
X75181905Y-41298762D01*
X75134286Y-41251143D01*
X85949334Y-50490381D02*
X85616000Y-50014190D01*
X85377905Y-50490381D02*
X85377905Y-49490381D01*
X85758858Y-49490381D01*
X85854096Y-49538000D01*
X85901715Y-49585619D01*
X85949334Y-49680857D01*
X85949334Y-49823714D01*
X85901715Y-49918952D01*
X85854096Y-49966571D01*
X85758858Y-50014190D01*
X85377905Y-50014190D01*
X86806477Y-49490381D02*
X86616000Y-49490381D01*
X86520762Y-49538000D01*
X86473143Y-49585619D01*
X86377905Y-49728476D01*
X86330286Y-49918952D01*
X86330286Y-50299905D01*
X86377905Y-50395143D01*
X86425524Y-50442762D01*
X86520762Y-50490381D01*
X86711239Y-50490381D01*
X86806477Y-50442762D01*
X86854096Y-50395143D01*
X86901715Y-50299905D01*
X86901715Y-50061810D01*
X86854096Y-49966571D01*
X86806477Y-49918952D01*
X86711239Y-49871333D01*
X86520762Y-49871333D01*
X86425524Y-49918952D01*
X86377905Y-49966571D01*
X86330286Y-50061810D01*
X88723334Y-59380381D02*
X88390000Y-58904190D01*
X88151905Y-59380381D02*
X88151905Y-58380381D01*
X88532858Y-58380381D01*
X88628096Y-58428000D01*
X88675715Y-58475619D01*
X88723334Y-58570857D01*
X88723334Y-58713714D01*
X88675715Y-58808952D01*
X88628096Y-58856571D01*
X88532858Y-58904190D01*
X88151905Y-58904190D01*
X89056667Y-58380381D02*
X89723334Y-58380381D01*
X89294762Y-59380381D01*
X97369334Y-76896381D02*
X97036000Y-76420190D01*
X96797905Y-76896381D02*
X96797905Y-75896381D01*
X97178858Y-75896381D01*
X97274096Y-75944000D01*
X97321715Y-75991619D01*
X97369334Y-76086857D01*
X97369334Y-76229714D01*
X97321715Y-76324952D01*
X97274096Y-76372571D01*
X97178858Y-76420190D01*
X96797905Y-76420190D01*
X97940762Y-76324952D02*
X97845524Y-76277333D01*
X97797905Y-76229714D01*
X97750286Y-76134476D01*
X97750286Y-76086857D01*
X97797905Y-75991619D01*
X97845524Y-75944000D01*
X97940762Y-75896381D01*
X98131239Y-75896381D01*
X98226477Y-75944000D01*
X98274096Y-75991619D01*
X98321715Y-76086857D01*
X98321715Y-76134476D01*
X98274096Y-76229714D01*
X98226477Y-76277333D01*
X98131239Y-76324952D01*
X97940762Y-76324952D01*
X97845524Y-76372571D01*
X97797905Y-76420190D01*
X97750286Y-76515429D01*
X97750286Y-76705905D01*
X97797905Y-76801143D01*
X97845524Y-76848762D01*
X97940762Y-76896381D01*
X98131239Y-76896381D01*
X98226477Y-76848762D01*
X98274096Y-76801143D01*
X98321715Y-76705905D01*
X98321715Y-76515429D01*
X98274096Y-76420190D01*
X98226477Y-76372571D01*
X98131239Y-76324952D01*
X88743334Y-55062381D02*
X88410000Y-54586190D01*
X88171905Y-55062381D02*
X88171905Y-54062381D01*
X88552858Y-54062381D01*
X88648096Y-54110000D01*
X88695715Y-54157619D01*
X88743334Y-54252857D01*
X88743334Y-54395714D01*
X88695715Y-54490952D01*
X88648096Y-54538571D01*
X88552858Y-54586190D01*
X88171905Y-54586190D01*
X89219524Y-55062381D02*
X89410000Y-55062381D01*
X89505239Y-55014762D01*
X89552858Y-54967143D01*
X89648096Y-54824286D01*
X89695715Y-54633810D01*
X89695715Y-54252857D01*
X89648096Y-54157619D01*
X89600477Y-54110000D01*
X89505239Y-54062381D01*
X89314762Y-54062381D01*
X89219524Y-54110000D01*
X89171905Y-54157619D01*
X89124286Y-54252857D01*
X89124286Y-54490952D01*
X89171905Y-54586190D01*
X89219524Y-54633810D01*
X89314762Y-54681429D01*
X89505239Y-54681429D01*
X89600477Y-54633810D01*
X89648096Y-54586190D01*
X89695715Y-54490952D01*
X111117143Y-77542381D02*
X110783809Y-77066190D01*
X110545714Y-77542381D02*
X110545714Y-76542381D01*
X110926667Y-76542381D01*
X111021905Y-76590000D01*
X111069524Y-76637619D01*
X111117143Y-76732857D01*
X111117143Y-76875714D01*
X111069524Y-76970952D01*
X111021905Y-77018571D01*
X110926667Y-77066190D01*
X110545714Y-77066190D01*
X112069524Y-77542381D02*
X111498095Y-77542381D01*
X111783809Y-77542381D02*
X111783809Y-76542381D01*
X111688571Y-76685238D01*
X111593333Y-76780476D01*
X111498095Y-76828095D01*
X112688571Y-76542381D02*
X112783810Y-76542381D01*
X112879048Y-76590000D01*
X112926667Y-76637619D01*
X112974286Y-76732857D01*
X113021905Y-76923333D01*
X113021905Y-77161429D01*
X112974286Y-77351905D01*
X112926667Y-77447143D01*
X112879048Y-77494762D01*
X112783810Y-77542381D01*
X112688571Y-77542381D01*
X112593333Y-77494762D01*
X112545714Y-77447143D01*
X112498095Y-77351905D01*
X112450476Y-77161429D01*
X112450476Y-76923333D01*
X112498095Y-76732857D01*
X112545714Y-76637619D01*
X112593333Y-76590000D01*
X112688571Y-76542381D01*
X86558381Y-94886857D02*
X86082190Y-95220191D01*
X86558381Y-95458286D02*
X85558381Y-95458286D01*
X85558381Y-95077333D01*
X85606000Y-94982095D01*
X85653619Y-94934476D01*
X85748857Y-94886857D01*
X85891714Y-94886857D01*
X85986952Y-94934476D01*
X86034571Y-94982095D01*
X86082190Y-95077333D01*
X86082190Y-95458286D01*
X86558381Y-93934476D02*
X86558381Y-94505905D01*
X86558381Y-94220191D02*
X85558381Y-94220191D01*
X85701238Y-94315429D01*
X85796476Y-94410667D01*
X85844095Y-94505905D01*
X86558381Y-92982095D02*
X86558381Y-93553524D01*
X86558381Y-93267810D02*
X85558381Y-93267810D01*
X85701238Y-93363048D01*
X85796476Y-93458286D01*
X85844095Y-93553524D01*
X77922381Y-92834857D02*
X77446190Y-93168191D01*
X77922381Y-93406286D02*
X76922381Y-93406286D01*
X76922381Y-93025333D01*
X76970000Y-92930095D01*
X77017619Y-92882476D01*
X77112857Y-92834857D01*
X77255714Y-92834857D01*
X77350952Y-92882476D01*
X77398571Y-92930095D01*
X77446190Y-93025333D01*
X77446190Y-93406286D01*
X77922381Y-91882476D02*
X77922381Y-92453905D01*
X77922381Y-92168191D02*
X76922381Y-92168191D01*
X77065238Y-92263429D01*
X77160476Y-92358667D01*
X77208095Y-92453905D01*
X77017619Y-91501524D02*
X76970000Y-91453905D01*
X76922381Y-91358667D01*
X76922381Y-91120571D01*
X76970000Y-91025333D01*
X77017619Y-90977714D01*
X77112857Y-90930095D01*
X77208095Y-90930095D01*
X77350952Y-90977714D01*
X77922381Y-91549143D01*
X77922381Y-90930095D01*
X74366381Y-92834857D02*
X73890190Y-93168191D01*
X74366381Y-93406286D02*
X73366381Y-93406286D01*
X73366381Y-93025333D01*
X73414000Y-92930095D01*
X73461619Y-92882476D01*
X73556857Y-92834857D01*
X73699714Y-92834857D01*
X73794952Y-92882476D01*
X73842571Y-92930095D01*
X73890190Y-93025333D01*
X73890190Y-93406286D01*
X74366381Y-91882476D02*
X74366381Y-92453905D01*
X74366381Y-92168191D02*
X73366381Y-92168191D01*
X73509238Y-92263429D01*
X73604476Y-92358667D01*
X73652095Y-92453905D01*
X73366381Y-91549143D02*
X73366381Y-90930095D01*
X73747333Y-91263429D01*
X73747333Y-91120571D01*
X73794952Y-91025333D01*
X73842571Y-90977714D01*
X73937810Y-90930095D01*
X74175905Y-90930095D01*
X74271143Y-90977714D01*
X74318762Y-91025333D01*
X74366381Y-91120571D01*
X74366381Y-91406286D01*
X74318762Y-91501524D01*
X74271143Y-91549143D01*
X70048381Y-79900857D02*
X69572190Y-80234191D01*
X70048381Y-80472286D02*
X69048381Y-80472286D01*
X69048381Y-80091333D01*
X69096000Y-79996095D01*
X69143619Y-79948476D01*
X69238857Y-79900857D01*
X69381714Y-79900857D01*
X69476952Y-79948476D01*
X69524571Y-79996095D01*
X69572190Y-80091333D01*
X69572190Y-80472286D01*
X70048381Y-78948476D02*
X70048381Y-79519905D01*
X70048381Y-79234191D02*
X69048381Y-79234191D01*
X69191238Y-79329429D01*
X69286476Y-79424667D01*
X69334095Y-79519905D01*
X69048381Y-78615143D02*
X69048381Y-77948476D01*
X70048381Y-78377048D01*
X91186095Y-103592381D02*
X91186095Y-104401905D01*
X91233714Y-104497143D01*
X91281333Y-104544762D01*
X91376571Y-104592381D01*
X91567048Y-104592381D01*
X91662286Y-104544762D01*
X91709905Y-104497143D01*
X91757524Y-104401905D01*
X91757524Y-103592381D01*
X92757524Y-104592381D02*
X92186095Y-104592381D01*
X92471809Y-104592381D02*
X92471809Y-103592381D01*
X92376571Y-103735238D01*
X92281333Y-103830476D01*
X92186095Y-103878095D01*
X81280095Y-87660381D02*
X81280095Y-88469905D01*
X81327714Y-88565143D01*
X81375333Y-88612762D01*
X81470571Y-88660381D01*
X81661048Y-88660381D01*
X81756286Y-88612762D01*
X81803905Y-88565143D01*
X81851524Y-88469905D01*
X81851524Y-87660381D01*
X82280095Y-87755619D02*
X82327714Y-87708000D01*
X82422952Y-87660381D01*
X82661048Y-87660381D01*
X82756286Y-87708000D01*
X82803905Y-87755619D01*
X82851524Y-87850857D01*
X82851524Y-87946095D01*
X82803905Y-88088952D01*
X82232476Y-88660381D01*
X82851524Y-88660381D01*
D11*
X74433619Y-65100095D02*
X75256095Y-65100095D01*
X75352857Y-65051714D01*
X75401238Y-65003333D01*
X75449619Y-64906571D01*
X75449619Y-64713048D01*
X75401238Y-64616286D01*
X75352857Y-64567905D01*
X75256095Y-64519524D01*
X74433619Y-64519524D01*
X74433619Y-64132476D02*
X74433619Y-63503524D01*
X74820667Y-63842190D01*
X74820667Y-63697048D01*
X74869048Y-63600286D01*
X74917429Y-63551905D01*
X75014190Y-63503524D01*
X75256095Y-63503524D01*
X75352857Y-63551905D01*
X75401238Y-63600286D01*
X75449619Y-63697048D01*
X75449619Y-63987333D01*
X75401238Y-64084095D01*
X75352857Y-64132476D01*
X88319905Y-77611619D02*
X88319905Y-78434095D01*
X88368286Y-78530857D01*
X88416667Y-78579238D01*
X88513429Y-78627619D01*
X88706952Y-78627619D01*
X88803714Y-78579238D01*
X88852095Y-78530857D01*
X88900476Y-78434095D01*
X88900476Y-77611619D01*
X89819714Y-77950286D02*
X89819714Y-78627619D01*
X89577810Y-77563238D02*
X89335905Y-78288952D01*
X89964857Y-78288952D01*
D16*
X74773334Y-45156381D02*
X74297143Y-45156381D01*
X74297143Y-44156381D01*
X75630477Y-45156381D02*
X75059048Y-45156381D01*
X75344762Y-45156381D02*
X75344762Y-44156381D01*
X75249524Y-44299238D01*
X75154286Y-44394476D01*
X75059048Y-44442095D01*
X62738095Y-42362381D02*
X62738095Y-41362381D01*
X62738095Y-41838571D02*
X63309524Y-41838571D01*
X63309524Y-42362381D02*
X63309524Y-41362381D01*
X63738095Y-41457619D02*
X63785714Y-41410000D01*
X63880952Y-41362381D01*
X64119048Y-41362381D01*
X64214286Y-41410000D01*
X64261905Y-41457619D01*
X64309524Y-41552857D01*
X64309524Y-41648095D01*
X64261905Y-41790952D01*
X63690476Y-42362381D01*
X64309524Y-42362381D01*
X62738095Y-114752381D02*
X62738095Y-113752381D01*
X62738095Y-114228571D02*
X63309524Y-114228571D01*
X63309524Y-114752381D02*
X63309524Y-113752381D01*
X63690476Y-113752381D02*
X64309524Y-113752381D01*
X63976190Y-114133333D01*
X64119048Y-114133333D01*
X64214286Y-114180952D01*
X64261905Y-114228571D01*
X64309524Y-114323810D01*
X64309524Y-114561905D01*
X64261905Y-114657143D01*
X64214286Y-114704762D01*
X64119048Y-114752381D01*
X63833333Y-114752381D01*
X63738095Y-114704762D01*
X63690476Y-114657143D01*
X94488095Y-42362381D02*
X94488095Y-41362381D01*
X94488095Y-41838571D02*
X95059524Y-41838571D01*
X95059524Y-42362381D02*
X95059524Y-41362381D01*
X96059524Y-42362381D02*
X95488095Y-42362381D01*
X95773809Y-42362381D02*
X95773809Y-41362381D01*
X95678571Y-41505238D01*
X95583333Y-41600476D01*
X95488095Y-41648095D01*
X107870667Y-61809381D02*
X107870667Y-62523667D01*
X107823047Y-62666524D01*
X107727809Y-62761762D01*
X107584952Y-62809381D01*
X107489714Y-62809381D01*
X108251619Y-61809381D02*
X108870667Y-61809381D01*
X108537333Y-62190333D01*
X108680191Y-62190333D01*
X108775429Y-62237952D01*
X108823048Y-62285571D01*
X108870667Y-62380810D01*
X108870667Y-62618905D01*
X108823048Y-62714143D01*
X108775429Y-62761762D01*
X108680191Y-62809381D01*
X108394476Y-62809381D01*
X108299238Y-62761762D01*
X108251619Y-62714143D01*
X74753334Y-48966381D02*
X74420000Y-48490190D01*
X74181905Y-48966381D02*
X74181905Y-47966381D01*
X74562858Y-47966381D01*
X74658096Y-48014000D01*
X74705715Y-48061619D01*
X74753334Y-48156857D01*
X74753334Y-48299714D01*
X74705715Y-48394952D01*
X74658096Y-48442571D01*
X74562858Y-48490190D01*
X74181905Y-48490190D01*
X75134286Y-48061619D02*
X75181905Y-48014000D01*
X75277143Y-47966381D01*
X75515239Y-47966381D01*
X75610477Y-48014000D01*
X75658096Y-48061619D01*
X75705715Y-48156857D01*
X75705715Y-48252095D01*
X75658096Y-48394952D01*
X75086667Y-48966381D01*
X75705715Y-48966381D01*
X79103143Y-101703143D02*
X79055524Y-101750762D01*
X78912667Y-101798381D01*
X78817429Y-101798381D01*
X78674571Y-101750762D01*
X78579333Y-101655524D01*
X78531714Y-101560286D01*
X78484095Y-101369810D01*
X78484095Y-101226952D01*
X78531714Y-101036476D01*
X78579333Y-100941238D01*
X78674571Y-100846000D01*
X78817429Y-100798381D01*
X78912667Y-100798381D01*
X79055524Y-100846000D01*
X79103143Y-100893619D01*
X80055524Y-101798381D02*
X79484095Y-101798381D01*
X79769809Y-101798381D02*
X79769809Y-100798381D01*
X79674571Y-100941238D01*
X79579333Y-101036476D01*
X79484095Y-101084095D01*
X81007905Y-101798381D02*
X80436476Y-101798381D01*
X80722190Y-101798381D02*
X80722190Y-100798381D01*
X80626952Y-100941238D01*
X80531714Y-101036476D01*
X80436476Y-101084095D01*
X77767905Y-109164381D02*
X77767905Y-108164381D01*
X78006000Y-108164381D01*
X78148858Y-108212000D01*
X78244096Y-108307238D01*
X78291715Y-108402476D01*
X78339334Y-108592952D01*
X78339334Y-108735810D01*
X78291715Y-108926286D01*
X78244096Y-109021524D01*
X78148858Y-109116762D01*
X78006000Y-109164381D01*
X77767905Y-109164381D01*
X78672667Y-108164381D02*
X79291715Y-108164381D01*
X78958381Y-108545333D01*
X79101239Y-108545333D01*
X79196477Y-108592952D01*
X79244096Y-108640571D01*
X79291715Y-108735810D01*
X79291715Y-108973905D01*
X79244096Y-109069143D01*
X79196477Y-109116762D01*
X79101239Y-109164381D01*
X78815524Y-109164381D01*
X78720286Y-109116762D01*
X78672667Y-109069143D01*
M02*
