%TF.GenerationSoftware,KiCad,Pcbnew,4.0.4+e1-6308~48~ubuntu16.04.1-stable*%
%TF.CreationDate,2016-12-09T16:05:22-08:00*%
%TF.ProjectId,e202var-vlf-radio-receiver,653230327661722D766C662D72616469,v1.2*%
%TF.FileFunction,Other,Fab,Top*%
%FSLAX46Y46*%
G04 Gerber Fmt 4.6, Leading zero omitted, Abs format (unit mm)*
G04 Created by KiCad (PCBNEW 4.0.4+e1-6308~48~ubuntu16.04.1-stable) date Fri Dec  9 16:05:22 2016*
%MOMM*%
%LPD*%
G01*
G04 APERTURE LIST*
%ADD10C,0.350000*%
%ADD11C,0.152400*%
%ADD12C,0.050800*%
%ADD13C,0.050000*%
%ADD14C,0.040640*%
%ADD15C,0.254000*%
%ADD16C,0.150000*%
%ADD17C,0.127000*%
G04 APERTURE END LIST*
D10*
D11*
X105543048Y-31193619D02*
X104962477Y-31193619D01*
X105252763Y-31193619D02*
X105252763Y-30177619D01*
X105156001Y-30322762D01*
X105059239Y-30419524D01*
X104962477Y-30467905D01*
X105930096Y-30274381D02*
X105978477Y-30226000D01*
X106075239Y-30177619D01*
X106317143Y-30177619D01*
X106413905Y-30226000D01*
X106462286Y-30274381D01*
X106510667Y-30371143D01*
X106510667Y-30467905D01*
X106462286Y-30613048D01*
X105881715Y-31193619D01*
X106510667Y-31193619D01*
X107671810Y-30129238D02*
X106800953Y-31435524D01*
X108058858Y-31193619D02*
X108252382Y-31193619D01*
X108349143Y-31145238D01*
X108397524Y-31096857D01*
X108494286Y-30951714D01*
X108542667Y-30758190D01*
X108542667Y-30371143D01*
X108494286Y-30274381D01*
X108445905Y-30226000D01*
X108349143Y-30177619D01*
X108155620Y-30177619D01*
X108058858Y-30226000D01*
X108010477Y-30274381D01*
X107962096Y-30371143D01*
X107962096Y-30613048D01*
X108010477Y-30709810D01*
X108058858Y-30758190D01*
X108155620Y-30806571D01*
X108349143Y-30806571D01*
X108445905Y-30758190D01*
X108494286Y-30709810D01*
X108542667Y-30613048D01*
X109703810Y-30129238D02*
X108832953Y-31435524D01*
X109994096Y-30274381D02*
X110042477Y-30226000D01*
X110139239Y-30177619D01*
X110381143Y-30177619D01*
X110477905Y-30226000D01*
X110526286Y-30274381D01*
X110574667Y-30371143D01*
X110574667Y-30467905D01*
X110526286Y-30613048D01*
X109945715Y-31193619D01*
X110574667Y-31193619D01*
X111203620Y-30177619D02*
X111300381Y-30177619D01*
X111397143Y-30226000D01*
X111445524Y-30274381D01*
X111493905Y-30371143D01*
X111542286Y-30564667D01*
X111542286Y-30806571D01*
X111493905Y-31000095D01*
X111445524Y-31096857D01*
X111397143Y-31145238D01*
X111300381Y-31193619D01*
X111203620Y-31193619D01*
X111106858Y-31145238D01*
X111058477Y-31096857D01*
X111010096Y-31000095D01*
X110961715Y-30806571D01*
X110961715Y-30564667D01*
X111010096Y-30371143D01*
X111058477Y-30274381D01*
X111106858Y-30226000D01*
X111203620Y-30177619D01*
X112509905Y-31193619D02*
X111929334Y-31193619D01*
X112219620Y-31193619D02*
X112219620Y-30177619D01*
X112122858Y-30322762D01*
X112026096Y-30419524D01*
X111929334Y-30467905D01*
X113380762Y-30177619D02*
X113187239Y-30177619D01*
X113090477Y-30226000D01*
X113042096Y-30274381D01*
X112945334Y-30419524D01*
X112896953Y-30613048D01*
X112896953Y-31000095D01*
X112945334Y-31096857D01*
X112993715Y-31145238D01*
X113090477Y-31193619D01*
X113284000Y-31193619D01*
X113380762Y-31145238D01*
X113429143Y-31096857D01*
X113477524Y-31000095D01*
X113477524Y-30758190D01*
X113429143Y-30661429D01*
X113380762Y-30613048D01*
X113284000Y-30564667D01*
X113090477Y-30564667D01*
X112993715Y-30613048D01*
X112945334Y-30661429D01*
X112896953Y-30758190D01*
X85585907Y-28629429D02*
X85924573Y-28629429D01*
X86069716Y-29161619D02*
X85585907Y-29161619D01*
X85585907Y-28145619D01*
X86069716Y-28145619D01*
X86456764Y-28242381D02*
X86505145Y-28194000D01*
X86601907Y-28145619D01*
X86843811Y-28145619D01*
X86940573Y-28194000D01*
X86988954Y-28242381D01*
X87037335Y-28339143D01*
X87037335Y-28435905D01*
X86988954Y-28581048D01*
X86408383Y-29161619D01*
X87037335Y-29161619D01*
X87666288Y-28145619D02*
X87763049Y-28145619D01*
X87859811Y-28194000D01*
X87908192Y-28242381D01*
X87956573Y-28339143D01*
X88004954Y-28532667D01*
X88004954Y-28774571D01*
X87956573Y-28968095D01*
X87908192Y-29064857D01*
X87859811Y-29113238D01*
X87763049Y-29161619D01*
X87666288Y-29161619D01*
X87569526Y-29113238D01*
X87521145Y-29064857D01*
X87472764Y-28968095D01*
X87424383Y-28774571D01*
X87424383Y-28532667D01*
X87472764Y-28339143D01*
X87521145Y-28242381D01*
X87569526Y-28194000D01*
X87666288Y-28145619D01*
X88392002Y-28242381D02*
X88440383Y-28194000D01*
X88537145Y-28145619D01*
X88779049Y-28145619D01*
X88875811Y-28194000D01*
X88924192Y-28242381D01*
X88972573Y-28339143D01*
X88972573Y-28435905D01*
X88924192Y-28581048D01*
X88343621Y-29161619D01*
X88972573Y-29161619D01*
X89262859Y-28145619D02*
X89601526Y-29161619D01*
X89940192Y-28145619D01*
X90230478Y-28871333D02*
X90714287Y-28871333D01*
X90133716Y-29161619D02*
X90472383Y-28145619D01*
X90811049Y-29161619D01*
X91730287Y-29161619D02*
X91391621Y-28677810D01*
X91149716Y-29161619D02*
X91149716Y-28145619D01*
X91536763Y-28145619D01*
X91633525Y-28194000D01*
X91681906Y-28242381D01*
X91730287Y-28339143D01*
X91730287Y-28484286D01*
X91681906Y-28581048D01*
X91633525Y-28629429D01*
X91536763Y-28677810D01*
X91149716Y-28677810D01*
X92794668Y-28145619D02*
X93133335Y-29161619D01*
X93472001Y-28145619D01*
X94294477Y-29161619D02*
X93810668Y-29161619D01*
X93810668Y-28145619D01*
X94971810Y-28629429D02*
X94633144Y-28629429D01*
X94633144Y-29161619D02*
X94633144Y-28145619D01*
X95116953Y-28145619D01*
X96278096Y-29161619D02*
X96278096Y-28145619D01*
X96858667Y-29161619D01*
X96858667Y-28145619D01*
X97777905Y-29161619D02*
X97777905Y-28629429D01*
X97729524Y-28532667D01*
X97632762Y-28484286D01*
X97439239Y-28484286D01*
X97342477Y-28532667D01*
X97777905Y-29113238D02*
X97681143Y-29161619D01*
X97439239Y-29161619D01*
X97342477Y-29113238D01*
X97294096Y-29016476D01*
X97294096Y-28919714D01*
X97342477Y-28822952D01*
X97439239Y-28774571D01*
X97681143Y-28774571D01*
X97777905Y-28726190D01*
X98116572Y-28484286D02*
X98503620Y-28484286D01*
X98261715Y-28145619D02*
X98261715Y-29016476D01*
X98310096Y-29113238D01*
X98406858Y-29161619D01*
X98503620Y-29161619D01*
X99277714Y-28484286D02*
X99277714Y-29161619D01*
X98842286Y-28484286D02*
X98842286Y-29016476D01*
X98890667Y-29113238D01*
X98987429Y-29161619D01*
X99132571Y-29161619D01*
X99229333Y-29113238D01*
X99277714Y-29064857D01*
X99761524Y-29161619D02*
X99761524Y-28484286D01*
X99761524Y-28677810D02*
X99809905Y-28581048D01*
X99858286Y-28532667D01*
X99955048Y-28484286D01*
X100051809Y-28484286D01*
X100825904Y-29161619D02*
X100825904Y-28629429D01*
X100777523Y-28532667D01*
X100680761Y-28484286D01*
X100487238Y-28484286D01*
X100390476Y-28532667D01*
X100825904Y-29113238D02*
X100729142Y-29161619D01*
X100487238Y-29161619D01*
X100390476Y-29113238D01*
X100342095Y-29016476D01*
X100342095Y-28919714D01*
X100390476Y-28822952D01*
X100487238Y-28774571D01*
X100729142Y-28774571D01*
X100825904Y-28726190D01*
X101454857Y-29161619D02*
X101358095Y-29113238D01*
X101309714Y-29016476D01*
X101309714Y-28145619D01*
X103196570Y-29161619D02*
X102857904Y-28677810D01*
X102615999Y-29161619D02*
X102615999Y-28145619D01*
X103003046Y-28145619D01*
X103099808Y-28194000D01*
X103148189Y-28242381D01*
X103196570Y-28339143D01*
X103196570Y-28484286D01*
X103148189Y-28581048D01*
X103099808Y-28629429D01*
X103003046Y-28677810D01*
X102615999Y-28677810D01*
X104067427Y-29161619D02*
X104067427Y-28629429D01*
X104019046Y-28532667D01*
X103922284Y-28484286D01*
X103728761Y-28484286D01*
X103631999Y-28532667D01*
X104067427Y-29113238D02*
X103970665Y-29161619D01*
X103728761Y-29161619D01*
X103631999Y-29113238D01*
X103583618Y-29016476D01*
X103583618Y-28919714D01*
X103631999Y-28822952D01*
X103728761Y-28774571D01*
X103970665Y-28774571D01*
X104067427Y-28726190D01*
X104986665Y-29161619D02*
X104986665Y-28145619D01*
X104986665Y-29113238D02*
X104889903Y-29161619D01*
X104696380Y-29161619D01*
X104599618Y-29113238D01*
X104551237Y-29064857D01*
X104502856Y-28968095D01*
X104502856Y-28677810D01*
X104551237Y-28581048D01*
X104599618Y-28532667D01*
X104696380Y-28484286D01*
X104889903Y-28484286D01*
X104986665Y-28532667D01*
X105470475Y-29161619D02*
X105470475Y-28484286D01*
X105470475Y-28145619D02*
X105422094Y-28194000D01*
X105470475Y-28242381D01*
X105518856Y-28194000D01*
X105470475Y-28145619D01*
X105470475Y-28242381D01*
X106099428Y-29161619D02*
X106002666Y-29113238D01*
X105954285Y-29064857D01*
X105905904Y-28968095D01*
X105905904Y-28677810D01*
X105954285Y-28581048D01*
X106002666Y-28532667D01*
X106099428Y-28484286D01*
X106244570Y-28484286D01*
X106341332Y-28532667D01*
X106389713Y-28581048D01*
X106438094Y-28677810D01*
X106438094Y-28968095D01*
X106389713Y-29064857D01*
X106341332Y-29113238D01*
X106244570Y-29161619D01*
X106099428Y-29161619D01*
X108228189Y-29161619D02*
X107889523Y-28677810D01*
X107647618Y-29161619D02*
X107647618Y-28145619D01*
X108034665Y-28145619D01*
X108131427Y-28194000D01*
X108179808Y-28242381D01*
X108228189Y-28339143D01*
X108228189Y-28484286D01*
X108179808Y-28581048D01*
X108131427Y-28629429D01*
X108034665Y-28677810D01*
X107647618Y-28677810D01*
X109050665Y-29113238D02*
X108953903Y-29161619D01*
X108760380Y-29161619D01*
X108663618Y-29113238D01*
X108615237Y-29016476D01*
X108615237Y-28629429D01*
X108663618Y-28532667D01*
X108760380Y-28484286D01*
X108953903Y-28484286D01*
X109050665Y-28532667D01*
X109099046Y-28629429D01*
X109099046Y-28726190D01*
X108615237Y-28822952D01*
X109969903Y-29113238D02*
X109873141Y-29161619D01*
X109679618Y-29161619D01*
X109582856Y-29113238D01*
X109534475Y-29064857D01*
X109486094Y-28968095D01*
X109486094Y-28677810D01*
X109534475Y-28581048D01*
X109582856Y-28532667D01*
X109679618Y-28484286D01*
X109873141Y-28484286D01*
X109969903Y-28532667D01*
X110792379Y-29113238D02*
X110695617Y-29161619D01*
X110502094Y-29161619D01*
X110405332Y-29113238D01*
X110356951Y-29016476D01*
X110356951Y-28629429D01*
X110405332Y-28532667D01*
X110502094Y-28484286D01*
X110695617Y-28484286D01*
X110792379Y-28532667D01*
X110840760Y-28629429D01*
X110840760Y-28726190D01*
X110356951Y-28822952D01*
X111276189Y-29161619D02*
X111276189Y-28484286D01*
X111276189Y-28145619D02*
X111227808Y-28194000D01*
X111276189Y-28242381D01*
X111324570Y-28194000D01*
X111276189Y-28145619D01*
X111276189Y-28242381D01*
X111663237Y-28484286D02*
X111905142Y-29161619D01*
X112147046Y-28484286D01*
X112921141Y-29113238D02*
X112824379Y-29161619D01*
X112630856Y-29161619D01*
X112534094Y-29113238D01*
X112485713Y-29016476D01*
X112485713Y-28629429D01*
X112534094Y-28532667D01*
X112630856Y-28484286D01*
X112824379Y-28484286D01*
X112921141Y-28532667D01*
X112969522Y-28629429D01*
X112969522Y-28726190D01*
X112485713Y-28822952D01*
X113404951Y-29161619D02*
X113404951Y-28484286D01*
X113404951Y-28677810D02*
X113453332Y-28581048D01*
X113501713Y-28532667D01*
X113598475Y-28484286D01*
X113695236Y-28484286D01*
X58420000Y-38100000D02*
X114300000Y-38100000D01*
X58420000Y-119380000D02*
X58420000Y-38100000D01*
X114300000Y-119380000D02*
X58420000Y-119380000D01*
X114300000Y-38100000D02*
X114300000Y-119380000D01*
D12*
X113646600Y-102507780D02*
X113646600Y-118507780D01*
X98646600Y-102507780D02*
X113646600Y-102507780D01*
X98646600Y-118507780D02*
X98646600Y-102507780D01*
X113646600Y-118507780D02*
X98646600Y-118507780D01*
X114154600Y-38245780D02*
X114154600Y-54245780D01*
X99154600Y-38245780D02*
X114154600Y-38245780D01*
X99154600Y-54245780D02*
X99154600Y-38245780D01*
X114154600Y-54245780D02*
X99154600Y-54245780D01*
X113646600Y-85980000D02*
X113646600Y-101980000D01*
X98646600Y-85980000D02*
X113646600Y-85980000D01*
X98646600Y-101980000D02*
X98646600Y-85980000D01*
X113646600Y-101980000D02*
X98646600Y-101980000D01*
D13*
X66778000Y-94194000D02*
X58778000Y-94194000D01*
X66778000Y-89194000D02*
X66778000Y-94194000D01*
X58778000Y-89194000D02*
X66778000Y-89194000D01*
X58778000Y-94194000D02*
X58778000Y-89194000D01*
X71224000Y-48808000D02*
X79224000Y-48808000D01*
X71224000Y-53808000D02*
X71224000Y-48808000D01*
X79224000Y-53808000D02*
X71224000Y-53808000D01*
X79224000Y-48808000D02*
X79224000Y-53808000D01*
X60238000Y-68556000D02*
X60238000Y-60556000D01*
X65238000Y-68556000D02*
X60238000Y-68556000D01*
X65238000Y-60556000D02*
X65238000Y-68556000D01*
X60238000Y-60556000D02*
X65238000Y-60556000D01*
X73268000Y-81812000D02*
X77568000Y-81812000D01*
X73268000Y-84812000D02*
X73268000Y-81812000D01*
X77568000Y-84812000D02*
X73268000Y-84812000D01*
X77568000Y-81812000D02*
X77568000Y-84812000D01*
X87514000Y-90908000D02*
X83214000Y-90908000D01*
X87514000Y-87908000D02*
X87514000Y-90908000D01*
X83214000Y-87908000D02*
X87514000Y-87908000D01*
X83214000Y-90908000D02*
X83214000Y-87908000D01*
X102132000Y-78370000D02*
X102132000Y-74070000D01*
X105132000Y-78370000D02*
X102132000Y-78370000D01*
X105132000Y-74070000D02*
X105132000Y-78370000D01*
X102132000Y-74070000D02*
X105132000Y-74070000D01*
X97814000Y-79288000D02*
X105814000Y-79288000D01*
X97814000Y-84288000D02*
X97814000Y-79288000D01*
X105814000Y-84288000D02*
X97814000Y-84288000D01*
X105814000Y-79288000D02*
X105814000Y-84288000D01*
X60822000Y-71652000D02*
X65122000Y-71652000D01*
X60822000Y-74652000D02*
X60822000Y-71652000D01*
X65122000Y-74652000D02*
X60822000Y-74652000D01*
X65122000Y-71652000D02*
X65122000Y-74652000D01*
X96544000Y-57698000D02*
X104544000Y-57698000D01*
X96544000Y-62698000D02*
X96544000Y-57698000D01*
X104544000Y-62698000D02*
X96544000Y-62698000D01*
X104544000Y-57698000D02*
X104544000Y-62698000D01*
X89016000Y-63016000D02*
X93316000Y-63016000D01*
X89016000Y-66016000D02*
X89016000Y-63016000D01*
X93316000Y-66016000D02*
X89016000Y-66016000D01*
X93316000Y-63016000D02*
X93316000Y-66016000D01*
X71144000Y-100624000D02*
X79144000Y-100624000D01*
X71144000Y-105624000D02*
X71144000Y-100624000D01*
X79144000Y-105624000D02*
X71144000Y-105624000D01*
X79144000Y-100624000D02*
X79144000Y-105624000D01*
X79618000Y-96798000D02*
X83918000Y-96798000D01*
X79618000Y-99798000D02*
X79618000Y-96798000D01*
X83918000Y-99798000D02*
X79618000Y-99798000D01*
X83918000Y-96798000D02*
X83918000Y-99798000D01*
X66778000Y-87844000D02*
X58778000Y-87844000D01*
X66778000Y-82844000D02*
X66778000Y-87844000D01*
X58778000Y-82844000D02*
X66778000Y-82844000D01*
X58778000Y-87844000D02*
X58778000Y-82844000D01*
X81650000Y-63778000D02*
X85950000Y-63778000D01*
X81650000Y-66778000D02*
X81650000Y-63778000D01*
X85950000Y-66778000D02*
X81650000Y-66778000D01*
X85950000Y-63778000D02*
X85950000Y-66778000D01*
X62270000Y-104370000D02*
X62270000Y-96370000D01*
X67270000Y-104370000D02*
X62270000Y-104370000D01*
X67270000Y-96370000D02*
X67270000Y-104370000D01*
X62270000Y-96370000D02*
X67270000Y-96370000D01*
D12*
X80802540Y-117324000D02*
X81052540Y-117324000D01*
X80802540Y-104074000D02*
X80802540Y-117324000D01*
X84302540Y-104074000D02*
X80802540Y-104074000D01*
X84302540Y-104324000D02*
X84302540Y-104074000D01*
X84302540Y-117324000D02*
X84302540Y-104324000D01*
X81052540Y-117324000D02*
X84302540Y-117324000D01*
X80802540Y-116324000D02*
X84302540Y-116324000D01*
X93756540Y-100560000D02*
X94006540Y-100560000D01*
X93756540Y-87310000D02*
X93756540Y-100560000D01*
X97256540Y-87310000D02*
X93756540Y-87310000D01*
X97256540Y-87560000D02*
X97256540Y-87310000D01*
X97256540Y-100560000D02*
X97256540Y-87560000D01*
X94006540Y-100560000D02*
X97256540Y-100560000D01*
X93756540Y-99560000D02*
X97256540Y-99560000D01*
D13*
X65811751Y-113254840D02*
G75*
G02X65810000Y-116358000I2798249J-1553160D01*
G01*
X65810000Y-113258000D02*
X65810000Y-116358000D01*
X59815902Y-115748000D02*
G75*
G03X59815902Y-115748000I-1952562J0D01*
G01*
X56863340Y-110998000D02*
G75*
G03X56863340Y-110998000I-1952562J0D01*
G01*
X62817283Y-110998000D02*
G75*
G03X62817283Y-110998000I-1903943J0D01*
G01*
X63163340Y-106198000D02*
X61663340Y-106198000D01*
X63163340Y-117998000D02*
X63163340Y-106198000D01*
X46963340Y-117998000D02*
X63163340Y-117998000D01*
X46963340Y-106198000D02*
X46963340Y-117998000D01*
X61663340Y-106198000D02*
X46963340Y-106198000D01*
X73384000Y-117854000D02*
X73384000Y-111254000D01*
X73384000Y-117854000D02*
X79484000Y-117854000D01*
X73384000Y-111254000D02*
X79484000Y-111254000D01*
X79484000Y-117854000D02*
X79484000Y-111254000D01*
X97253562Y-112522400D02*
G75*
G03X97253562Y-112522400I-1952562J0D01*
G01*
X92503562Y-115474962D02*
G75*
G03X92503562Y-115474962I-1952562J0D01*
G01*
X92454943Y-109472400D02*
G75*
G03X92454943Y-109472400I-1903943J0D01*
G01*
X85751000Y-107222400D02*
X85751000Y-108722400D01*
X97551000Y-107222400D02*
X85751000Y-107222400D01*
X97551000Y-123422400D02*
X97551000Y-107222400D01*
X85751000Y-123422400D02*
X97551000Y-123422400D01*
X85751000Y-108722400D02*
X85751000Y-123422400D01*
X60450000Y-102892000D02*
X53850000Y-102892000D01*
X60450000Y-102892000D02*
X60450000Y-96792000D01*
X53850000Y-102892000D02*
X53850000Y-96792000D01*
X60450000Y-96792000D02*
X53850000Y-96792000D01*
X91762000Y-53820000D02*
X97762000Y-53820000D01*
X91762000Y-53820000D02*
X91762000Y-50320000D01*
X97762000Y-50320000D02*
X91762000Y-50320000D01*
X97762000Y-53820000D02*
X97762000Y-50320000D01*
D12*
X72768000Y-97912000D02*
X78168000Y-97912000D01*
X72768000Y-93412000D02*
X72768000Y-97912000D01*
X78168000Y-93412000D02*
X72768000Y-93412000D01*
X78168000Y-97912000D02*
X78168000Y-93412000D01*
X62100000Y-58288000D02*
X67500000Y-58288000D01*
X62100000Y-53788000D02*
X62100000Y-58288000D01*
X67500000Y-53788000D02*
X62100000Y-53788000D01*
X67500000Y-58288000D02*
X67500000Y-53788000D01*
X70094000Y-57888000D02*
X80294000Y-57888000D01*
X70094000Y-54888000D02*
X70094000Y-57888000D01*
X70194000Y-54888000D02*
X70094000Y-54888000D01*
X80294000Y-54888000D02*
X70194000Y-54888000D01*
X80294000Y-57888000D02*
X80294000Y-54888000D01*
X79766000Y-38886000D02*
X69566000Y-38886000D01*
X79766000Y-41886000D02*
X79766000Y-38886000D01*
X79666000Y-41886000D02*
X79766000Y-41886000D01*
X69566000Y-41886000D02*
X79666000Y-41886000D01*
X69566000Y-38886000D02*
X69566000Y-41886000D01*
X91958000Y-67842000D02*
X81758000Y-67842000D01*
X91958000Y-70842000D02*
X91958000Y-67842000D01*
X91858000Y-70842000D02*
X91958000Y-70842000D01*
X81758000Y-70842000D02*
X91858000Y-70842000D01*
X81758000Y-67842000D02*
X81758000Y-70842000D01*
X70842000Y-93990000D02*
X70842000Y-83790000D01*
X67842000Y-93990000D02*
X70842000Y-93990000D01*
X67842000Y-93890000D02*
X67842000Y-93990000D01*
X67842000Y-83790000D02*
X67842000Y-93890000D01*
X70842000Y-83790000D02*
X67842000Y-83790000D01*
X71110000Y-46712000D02*
X81310000Y-46712000D01*
X71110000Y-43712000D02*
X71110000Y-46712000D01*
X71210000Y-43712000D02*
X71110000Y-43712000D01*
X81310000Y-43712000D02*
X71210000Y-43712000D01*
X81310000Y-46712000D02*
X81310000Y-43712000D01*
X82574000Y-41646000D02*
X82574000Y-51846000D01*
X85574000Y-41646000D02*
X82574000Y-41646000D01*
X85574000Y-41746000D02*
X85574000Y-41646000D01*
X85574000Y-51846000D02*
X85574000Y-41746000D01*
X82574000Y-51846000D02*
X85574000Y-51846000D01*
X93228000Y-58444000D02*
X83028000Y-58444000D01*
X93228000Y-61444000D02*
X93228000Y-58444000D01*
X93128000Y-61444000D02*
X93228000Y-61444000D01*
X83028000Y-61444000D02*
X93128000Y-61444000D01*
X83028000Y-58444000D02*
X83028000Y-61444000D01*
X93750000Y-73904000D02*
X93750000Y-84104000D01*
X96750000Y-73904000D02*
X93750000Y-73904000D01*
X96750000Y-74004000D02*
X96750000Y-73904000D01*
X96750000Y-84104000D02*
X96750000Y-74004000D01*
X93750000Y-84104000D02*
X96750000Y-84104000D01*
X82794000Y-56872000D02*
X92994000Y-56872000D01*
X82794000Y-53872000D02*
X82794000Y-56872000D01*
X82894000Y-53872000D02*
X82794000Y-53872000D01*
X92994000Y-53872000D02*
X82894000Y-53872000D01*
X92994000Y-56872000D02*
X92994000Y-53872000D01*
D14*
X118770400Y-74396600D02*
X113766600Y-74396600D01*
D15*
X111983607Y-72390000D02*
G75*
G03X111983607Y-72390000I-223607J0D01*
G01*
D12*
X109960000Y-84390000D02*
X113560000Y-84390000D01*
X109960000Y-70590000D02*
X109960000Y-84390000D01*
X113560000Y-70590000D02*
X109960000Y-70590000D01*
D14*
X113741200Y-80416400D02*
X118770400Y-80416400D01*
X113563400Y-84378800D02*
X113563400Y-80416400D01*
X113563400Y-80416400D02*
X113766600Y-80416400D01*
X113563400Y-70586600D02*
X113563400Y-74396600D01*
X113563400Y-74396600D02*
X113766600Y-74396600D01*
X118770400Y-80416400D02*
X118770400Y-77444600D01*
X118770400Y-77444600D02*
X118770400Y-74396600D01*
D12*
X88670000Y-89652000D02*
X88670000Y-99852000D01*
X91670000Y-89652000D02*
X88670000Y-89652000D01*
X91670000Y-89752000D02*
X91670000Y-89652000D01*
X91670000Y-99852000D02*
X91670000Y-89752000D01*
X88670000Y-99852000D02*
X91670000Y-99852000D01*
X64252000Y-110212000D02*
X74452000Y-110212000D01*
X64252000Y-107212000D02*
X64252000Y-110212000D01*
X64352000Y-107212000D02*
X64252000Y-107212000D01*
X74452000Y-107212000D02*
X64352000Y-107212000D01*
X74452000Y-110212000D02*
X74452000Y-107212000D01*
X68350000Y-94986000D02*
X68350000Y-105186000D01*
X71350000Y-94986000D02*
X68350000Y-94986000D01*
X71350000Y-95086000D02*
X71350000Y-94986000D01*
X71350000Y-105186000D02*
X71350000Y-95086000D01*
X68350000Y-105186000D02*
X71350000Y-105186000D01*
X58664000Y-79986000D02*
X68864000Y-79986000D01*
X58664000Y-76986000D02*
X58664000Y-79986000D01*
X58764000Y-76986000D02*
X58664000Y-76986000D01*
X68864000Y-76986000D02*
X58764000Y-76986000D01*
X68864000Y-79986000D02*
X68864000Y-76986000D01*
D13*
X87178000Y-102902000D02*
X85178000Y-102902000D01*
X89178000Y-102902000D02*
X89178000Y-101652000D01*
X89678000Y-102902000D02*
X89178000Y-102902000D01*
X92428000Y-102902000D02*
X92428000Y-101652000D01*
X92428000Y-102902000D02*
X91428000Y-102902000D01*
X96178000Y-102902000D02*
X93928000Y-102902000D01*
X96178000Y-101902000D02*
X96178000Y-101652000D01*
X96178000Y-101652000D02*
X85178000Y-101652000D01*
X85178000Y-106902000D02*
X85178000Y-101652000D01*
X96178000Y-106902000D02*
X85178000Y-106902000D01*
X96178000Y-106652000D02*
X96178000Y-106902000D01*
X96178000Y-101902000D02*
X96178000Y-106652000D01*
D12*
X73022000Y-93086000D02*
X78422000Y-93086000D01*
X73022000Y-88586000D02*
X73022000Y-93086000D01*
X78422000Y-88586000D02*
X73022000Y-88586000D01*
X78422000Y-93086000D02*
X78422000Y-88586000D01*
X78592000Y-60492000D02*
X67842000Y-60492000D01*
X78592000Y-73242000D02*
X78592000Y-60492000D01*
X78342000Y-73242000D02*
X78592000Y-73242000D01*
X67842000Y-73242000D02*
X78342000Y-73242000D01*
X67842000Y-60492000D02*
X67842000Y-73242000D01*
D15*
X69695553Y-62992000D02*
G75*
G03X69695553Y-62992000I-353553J0D01*
G01*
D12*
X90530000Y-74208000D02*
X79780000Y-74208000D01*
X90530000Y-86958000D02*
X90530000Y-74208000D01*
X90280000Y-86958000D02*
X90530000Y-86958000D01*
X79780000Y-86958000D02*
X90280000Y-86958000D01*
X79780000Y-74208000D02*
X79780000Y-86958000D01*
D15*
X81633553Y-76708000D02*
G75*
G03X81633553Y-76708000I-353553J0D01*
G01*
D12*
X66792000Y-49760000D02*
X76992000Y-49760000D01*
X66792000Y-46760000D02*
X66792000Y-49760000D01*
X66892000Y-46760000D02*
X66792000Y-46760000D01*
X76992000Y-46760000D02*
X66892000Y-46760000D01*
X76992000Y-49760000D02*
X76992000Y-46760000D01*
D14*
X87929806Y-33528000D02*
G75*
G03X87929806Y-33528000I-2839806J0D01*
G01*
X94279806Y-33528000D02*
G75*
G03X94279806Y-33528000I-2839806J0D01*
G01*
X100629806Y-33528000D02*
G75*
G03X100629806Y-33528000I-2839806J0D01*
G01*
X103378000Y-68326000D02*
X113538000Y-68326000D01*
X103378000Y-55626000D02*
X103378000Y-68326000D01*
X113538000Y-55626000D02*
X103378000Y-55626000D01*
X113538000Y-55626000D02*
X113538000Y-68326000D01*
D15*
X105043743Y-110662637D02*
X105334029Y-110759399D01*
X105430790Y-110856161D01*
X105527552Y-111049685D01*
X105527552Y-111339970D01*
X105430790Y-111533494D01*
X105334029Y-111630256D01*
X105140505Y-111727018D01*
X104366410Y-111727018D01*
X104366410Y-109695018D01*
X105043743Y-109695018D01*
X105237267Y-109791780D01*
X105334029Y-109888542D01*
X105430790Y-110082066D01*
X105430790Y-110275590D01*
X105334029Y-110469113D01*
X105237267Y-110565875D01*
X105043743Y-110662637D01*
X104366410Y-110662637D01*
X106398410Y-111727018D02*
X106398410Y-109695018D01*
X107559552Y-111727018D01*
X107559552Y-109695018D01*
X109688314Y-111533494D02*
X109591552Y-111630256D01*
X109301267Y-111727018D01*
X109107743Y-111727018D01*
X108817457Y-111630256D01*
X108623933Y-111436732D01*
X108527172Y-111243209D01*
X108430410Y-110856161D01*
X108430410Y-110565875D01*
X108527172Y-110178828D01*
X108623933Y-109985304D01*
X108817457Y-109791780D01*
X109107743Y-109695018D01*
X109301267Y-109695018D01*
X109591552Y-109791780D01*
X109688314Y-109888542D01*
X111623552Y-111727018D02*
X110462410Y-111727018D01*
X111042981Y-111727018D02*
X111042981Y-109695018D01*
X110849457Y-109985304D01*
X110655933Y-110178828D01*
X110462410Y-110275590D01*
X105551743Y-46400637D02*
X105842029Y-46497399D01*
X105938790Y-46594161D01*
X106035552Y-46787685D01*
X106035552Y-47077970D01*
X105938790Y-47271494D01*
X105842029Y-47368256D01*
X105648505Y-47465018D01*
X104874410Y-47465018D01*
X104874410Y-45433018D01*
X105551743Y-45433018D01*
X105745267Y-45529780D01*
X105842029Y-45626542D01*
X105938790Y-45820066D01*
X105938790Y-46013590D01*
X105842029Y-46207113D01*
X105745267Y-46303875D01*
X105551743Y-46400637D01*
X104874410Y-46400637D01*
X106906410Y-47465018D02*
X106906410Y-45433018D01*
X108067552Y-47465018D01*
X108067552Y-45433018D01*
X110196314Y-47271494D02*
X110099552Y-47368256D01*
X109809267Y-47465018D01*
X109615743Y-47465018D01*
X109325457Y-47368256D01*
X109131933Y-47174732D01*
X109035172Y-46981209D01*
X108938410Y-46594161D01*
X108938410Y-46303875D01*
X109035172Y-45916828D01*
X109131933Y-45723304D01*
X109325457Y-45529780D01*
X109615743Y-45433018D01*
X109809267Y-45433018D01*
X110099552Y-45529780D01*
X110196314Y-45626542D01*
X110970410Y-45626542D02*
X111067172Y-45529780D01*
X111260695Y-45433018D01*
X111744505Y-45433018D01*
X111938029Y-45529780D01*
X112034791Y-45626542D01*
X112131552Y-45820066D01*
X112131552Y-46013590D01*
X112034791Y-46303875D01*
X110873648Y-47465018D01*
X112131552Y-47465018D01*
X105043743Y-94134857D02*
X105334029Y-94231619D01*
X105430790Y-94328381D01*
X105527552Y-94521905D01*
X105527552Y-94812190D01*
X105430790Y-95005714D01*
X105334029Y-95102476D01*
X105140505Y-95199238D01*
X104366410Y-95199238D01*
X104366410Y-93167238D01*
X105043743Y-93167238D01*
X105237267Y-93264000D01*
X105334029Y-93360762D01*
X105430790Y-93554286D01*
X105430790Y-93747810D01*
X105334029Y-93941333D01*
X105237267Y-94038095D01*
X105043743Y-94134857D01*
X104366410Y-94134857D01*
X106398410Y-95199238D02*
X106398410Y-93167238D01*
X107559552Y-95199238D01*
X107559552Y-93167238D01*
X109688314Y-95005714D02*
X109591552Y-95102476D01*
X109301267Y-95199238D01*
X109107743Y-95199238D01*
X108817457Y-95102476D01*
X108623933Y-94908952D01*
X108527172Y-94715429D01*
X108430410Y-94328381D01*
X108430410Y-94038095D01*
X108527172Y-93651048D01*
X108623933Y-93457524D01*
X108817457Y-93264000D01*
X109107743Y-93167238D01*
X109301267Y-93167238D01*
X109591552Y-93264000D01*
X109688314Y-93360762D01*
X110365648Y-93167238D02*
X111623552Y-93167238D01*
X110946219Y-93941333D01*
X111236505Y-93941333D01*
X111430029Y-94038095D01*
X111526791Y-94134857D01*
X111623552Y-94328381D01*
X111623552Y-94812190D01*
X111526791Y-95005714D01*
X111430029Y-95102476D01*
X111236505Y-95199238D01*
X110655933Y-95199238D01*
X110462410Y-95102476D01*
X110365648Y-95005714D01*
D16*
X62661334Y-92051143D02*
X62613715Y-92098762D01*
X62470858Y-92146381D01*
X62375620Y-92146381D01*
X62232762Y-92098762D01*
X62137524Y-92003524D01*
X62089905Y-91908286D01*
X62042286Y-91717810D01*
X62042286Y-91574952D01*
X62089905Y-91384476D01*
X62137524Y-91289238D01*
X62232762Y-91194000D01*
X62375620Y-91146381D01*
X62470858Y-91146381D01*
X62613715Y-91194000D01*
X62661334Y-91241619D01*
X63613715Y-92146381D02*
X63042286Y-92146381D01*
X63328000Y-92146381D02*
X63328000Y-91146381D01*
X63232762Y-91289238D01*
X63137524Y-91384476D01*
X63042286Y-91432095D01*
X75007334Y-51665143D02*
X74959715Y-51712762D01*
X74816858Y-51760381D01*
X74721620Y-51760381D01*
X74578762Y-51712762D01*
X74483524Y-51617524D01*
X74435905Y-51522286D01*
X74388286Y-51331810D01*
X74388286Y-51188952D01*
X74435905Y-50998476D01*
X74483524Y-50903238D01*
X74578762Y-50808000D01*
X74721620Y-50760381D01*
X74816858Y-50760381D01*
X74959715Y-50808000D01*
X75007334Y-50855619D01*
X75388286Y-50855619D02*
X75435905Y-50808000D01*
X75531143Y-50760381D01*
X75769239Y-50760381D01*
X75864477Y-50808000D01*
X75912096Y-50855619D01*
X75959715Y-50950857D01*
X75959715Y-51046095D01*
X75912096Y-51188952D01*
X75340667Y-51760381D01*
X75959715Y-51760381D01*
X63095143Y-64772666D02*
X63142762Y-64820285D01*
X63190381Y-64963142D01*
X63190381Y-65058380D01*
X63142762Y-65201238D01*
X63047524Y-65296476D01*
X62952286Y-65344095D01*
X62761810Y-65391714D01*
X62618952Y-65391714D01*
X62428476Y-65344095D01*
X62333238Y-65296476D01*
X62238000Y-65201238D01*
X62190381Y-65058380D01*
X62190381Y-64963142D01*
X62238000Y-64820285D01*
X62285619Y-64772666D01*
X62190381Y-64439333D02*
X62190381Y-63820285D01*
X62571333Y-64153619D01*
X62571333Y-64010761D01*
X62618952Y-63915523D01*
X62666571Y-63867904D01*
X62761810Y-63820285D01*
X62999905Y-63820285D01*
X63095143Y-63867904D01*
X63142762Y-63915523D01*
X63190381Y-64010761D01*
X63190381Y-64296476D01*
X63142762Y-64391714D01*
X63095143Y-64439333D01*
X75251334Y-83669143D02*
X75203715Y-83716762D01*
X75060858Y-83764381D01*
X74965620Y-83764381D01*
X74822762Y-83716762D01*
X74727524Y-83621524D01*
X74679905Y-83526286D01*
X74632286Y-83335810D01*
X74632286Y-83192952D01*
X74679905Y-83002476D01*
X74727524Y-82907238D01*
X74822762Y-82812000D01*
X74965620Y-82764381D01*
X75060858Y-82764381D01*
X75203715Y-82812000D01*
X75251334Y-82859619D01*
X76108477Y-83097714D02*
X76108477Y-83764381D01*
X75870381Y-82716762D02*
X75632286Y-83431048D01*
X76251334Y-83431048D01*
X85197334Y-89765143D02*
X85149715Y-89812762D01*
X85006858Y-89860381D01*
X84911620Y-89860381D01*
X84768762Y-89812762D01*
X84673524Y-89717524D01*
X84625905Y-89622286D01*
X84578286Y-89431810D01*
X84578286Y-89288952D01*
X84625905Y-89098476D01*
X84673524Y-89003238D01*
X84768762Y-88908000D01*
X84911620Y-88860381D01*
X85006858Y-88860381D01*
X85149715Y-88908000D01*
X85197334Y-88955619D01*
X86102096Y-88860381D02*
X85625905Y-88860381D01*
X85578286Y-89336571D01*
X85625905Y-89288952D01*
X85721143Y-89241333D01*
X85959239Y-89241333D01*
X86054477Y-89288952D01*
X86102096Y-89336571D01*
X86149715Y-89431810D01*
X86149715Y-89669905D01*
X86102096Y-89765143D01*
X86054477Y-89812762D01*
X85959239Y-89860381D01*
X85721143Y-89860381D01*
X85625905Y-89812762D01*
X85578286Y-89765143D01*
X103989143Y-76386666D02*
X104036762Y-76434285D01*
X104084381Y-76577142D01*
X104084381Y-76672380D01*
X104036762Y-76815238D01*
X103941524Y-76910476D01*
X103846286Y-76958095D01*
X103655810Y-77005714D01*
X103512952Y-77005714D01*
X103322476Y-76958095D01*
X103227238Y-76910476D01*
X103132000Y-76815238D01*
X103084381Y-76672380D01*
X103084381Y-76577142D01*
X103132000Y-76434285D01*
X103179619Y-76386666D01*
X103084381Y-75529523D02*
X103084381Y-75720000D01*
X103132000Y-75815238D01*
X103179619Y-75862857D01*
X103322476Y-75958095D01*
X103512952Y-76005714D01*
X103893905Y-76005714D01*
X103989143Y-75958095D01*
X104036762Y-75910476D01*
X104084381Y-75815238D01*
X104084381Y-75624761D01*
X104036762Y-75529523D01*
X103989143Y-75481904D01*
X103893905Y-75434285D01*
X103655810Y-75434285D01*
X103560571Y-75481904D01*
X103512952Y-75529523D01*
X103465333Y-75624761D01*
X103465333Y-75815238D01*
X103512952Y-75910476D01*
X103560571Y-75958095D01*
X103655810Y-76005714D01*
X101597334Y-82145143D02*
X101549715Y-82192762D01*
X101406858Y-82240381D01*
X101311620Y-82240381D01*
X101168762Y-82192762D01*
X101073524Y-82097524D01*
X101025905Y-82002286D01*
X100978286Y-81811810D01*
X100978286Y-81668952D01*
X101025905Y-81478476D01*
X101073524Y-81383238D01*
X101168762Y-81288000D01*
X101311620Y-81240381D01*
X101406858Y-81240381D01*
X101549715Y-81288000D01*
X101597334Y-81335619D01*
X101930667Y-81240381D02*
X102597334Y-81240381D01*
X102168762Y-82240381D01*
X62805334Y-73509143D02*
X62757715Y-73556762D01*
X62614858Y-73604381D01*
X62519620Y-73604381D01*
X62376762Y-73556762D01*
X62281524Y-73461524D01*
X62233905Y-73366286D01*
X62186286Y-73175810D01*
X62186286Y-73032952D01*
X62233905Y-72842476D01*
X62281524Y-72747238D01*
X62376762Y-72652000D01*
X62519620Y-72604381D01*
X62614858Y-72604381D01*
X62757715Y-72652000D01*
X62805334Y-72699619D01*
X63376762Y-73032952D02*
X63281524Y-72985333D01*
X63233905Y-72937714D01*
X63186286Y-72842476D01*
X63186286Y-72794857D01*
X63233905Y-72699619D01*
X63281524Y-72652000D01*
X63376762Y-72604381D01*
X63567239Y-72604381D01*
X63662477Y-72652000D01*
X63710096Y-72699619D01*
X63757715Y-72794857D01*
X63757715Y-72842476D01*
X63710096Y-72937714D01*
X63662477Y-72985333D01*
X63567239Y-73032952D01*
X63376762Y-73032952D01*
X63281524Y-73080571D01*
X63233905Y-73128190D01*
X63186286Y-73223429D01*
X63186286Y-73413905D01*
X63233905Y-73509143D01*
X63281524Y-73556762D01*
X63376762Y-73604381D01*
X63567239Y-73604381D01*
X63662477Y-73556762D01*
X63710096Y-73509143D01*
X63757715Y-73413905D01*
X63757715Y-73223429D01*
X63710096Y-73128190D01*
X63662477Y-73080571D01*
X63567239Y-73032952D01*
X100327334Y-60555143D02*
X100279715Y-60602762D01*
X100136858Y-60650381D01*
X100041620Y-60650381D01*
X99898762Y-60602762D01*
X99803524Y-60507524D01*
X99755905Y-60412286D01*
X99708286Y-60221810D01*
X99708286Y-60078952D01*
X99755905Y-59888476D01*
X99803524Y-59793238D01*
X99898762Y-59698000D01*
X100041620Y-59650381D01*
X100136858Y-59650381D01*
X100279715Y-59698000D01*
X100327334Y-59745619D01*
X100803524Y-60650381D02*
X100994000Y-60650381D01*
X101089239Y-60602762D01*
X101136858Y-60555143D01*
X101232096Y-60412286D01*
X101279715Y-60221810D01*
X101279715Y-59840857D01*
X101232096Y-59745619D01*
X101184477Y-59698000D01*
X101089239Y-59650381D01*
X100898762Y-59650381D01*
X100803524Y-59698000D01*
X100755905Y-59745619D01*
X100708286Y-59840857D01*
X100708286Y-60078952D01*
X100755905Y-60174190D01*
X100803524Y-60221810D01*
X100898762Y-60269429D01*
X101089239Y-60269429D01*
X101184477Y-60221810D01*
X101232096Y-60174190D01*
X101279715Y-60078952D01*
X90523143Y-64873143D02*
X90475524Y-64920762D01*
X90332667Y-64968381D01*
X90237429Y-64968381D01*
X90094571Y-64920762D01*
X89999333Y-64825524D01*
X89951714Y-64730286D01*
X89904095Y-64539810D01*
X89904095Y-64396952D01*
X89951714Y-64206476D01*
X89999333Y-64111238D01*
X90094571Y-64016000D01*
X90237429Y-63968381D01*
X90332667Y-63968381D01*
X90475524Y-64016000D01*
X90523143Y-64063619D01*
X91475524Y-64968381D02*
X90904095Y-64968381D01*
X91189809Y-64968381D02*
X91189809Y-63968381D01*
X91094571Y-64111238D01*
X90999333Y-64206476D01*
X90904095Y-64254095D01*
X92094571Y-63968381D02*
X92189810Y-63968381D01*
X92285048Y-64016000D01*
X92332667Y-64063619D01*
X92380286Y-64158857D01*
X92427905Y-64349333D01*
X92427905Y-64587429D01*
X92380286Y-64777905D01*
X92332667Y-64873143D01*
X92285048Y-64920762D01*
X92189810Y-64968381D01*
X92094571Y-64968381D01*
X91999333Y-64920762D01*
X91951714Y-64873143D01*
X91904095Y-64777905D01*
X91856476Y-64587429D01*
X91856476Y-64349333D01*
X91904095Y-64158857D01*
X91951714Y-64063619D01*
X91999333Y-64016000D01*
X92094571Y-63968381D01*
X74451143Y-103481143D02*
X74403524Y-103528762D01*
X74260667Y-103576381D01*
X74165429Y-103576381D01*
X74022571Y-103528762D01*
X73927333Y-103433524D01*
X73879714Y-103338286D01*
X73832095Y-103147810D01*
X73832095Y-103004952D01*
X73879714Y-102814476D01*
X73927333Y-102719238D01*
X74022571Y-102624000D01*
X74165429Y-102576381D01*
X74260667Y-102576381D01*
X74403524Y-102624000D01*
X74451143Y-102671619D01*
X75403524Y-103576381D02*
X74832095Y-103576381D01*
X75117809Y-103576381D02*
X75117809Y-102576381D01*
X75022571Y-102719238D01*
X74927333Y-102814476D01*
X74832095Y-102862095D01*
X76355905Y-103576381D02*
X75784476Y-103576381D01*
X76070190Y-103576381D02*
X76070190Y-102576381D01*
X75974952Y-102719238D01*
X75879714Y-102814476D01*
X75784476Y-102862095D01*
X81125143Y-98655143D02*
X81077524Y-98702762D01*
X80934667Y-98750381D01*
X80839429Y-98750381D01*
X80696571Y-98702762D01*
X80601333Y-98607524D01*
X80553714Y-98512286D01*
X80506095Y-98321810D01*
X80506095Y-98178952D01*
X80553714Y-97988476D01*
X80601333Y-97893238D01*
X80696571Y-97798000D01*
X80839429Y-97750381D01*
X80934667Y-97750381D01*
X81077524Y-97798000D01*
X81125143Y-97845619D01*
X82077524Y-98750381D02*
X81506095Y-98750381D01*
X81791809Y-98750381D02*
X81791809Y-97750381D01*
X81696571Y-97893238D01*
X81601333Y-97988476D01*
X81506095Y-98036095D01*
X82458476Y-97845619D02*
X82506095Y-97798000D01*
X82601333Y-97750381D01*
X82839429Y-97750381D01*
X82934667Y-97798000D01*
X82982286Y-97845619D01*
X83029905Y-97940857D01*
X83029905Y-98036095D01*
X82982286Y-98178952D01*
X82410857Y-98750381D01*
X83029905Y-98750381D01*
X62185143Y-85701143D02*
X62137524Y-85748762D01*
X61994667Y-85796381D01*
X61899429Y-85796381D01*
X61756571Y-85748762D01*
X61661333Y-85653524D01*
X61613714Y-85558286D01*
X61566095Y-85367810D01*
X61566095Y-85224952D01*
X61613714Y-85034476D01*
X61661333Y-84939238D01*
X61756571Y-84844000D01*
X61899429Y-84796381D01*
X61994667Y-84796381D01*
X62137524Y-84844000D01*
X62185143Y-84891619D01*
X63137524Y-85796381D02*
X62566095Y-85796381D01*
X62851809Y-85796381D02*
X62851809Y-84796381D01*
X62756571Y-84939238D01*
X62661333Y-85034476D01*
X62566095Y-85082095D01*
X63470857Y-84796381D02*
X64089905Y-84796381D01*
X63756571Y-85177333D01*
X63899429Y-85177333D01*
X63994667Y-85224952D01*
X64042286Y-85272571D01*
X64089905Y-85367810D01*
X64089905Y-85605905D01*
X64042286Y-85701143D01*
X63994667Y-85748762D01*
X63899429Y-85796381D01*
X63613714Y-85796381D01*
X63518476Y-85748762D01*
X63470857Y-85701143D01*
X83157143Y-65635143D02*
X83109524Y-65682762D01*
X82966667Y-65730381D01*
X82871429Y-65730381D01*
X82728571Y-65682762D01*
X82633333Y-65587524D01*
X82585714Y-65492286D01*
X82538095Y-65301810D01*
X82538095Y-65158952D01*
X82585714Y-64968476D01*
X82633333Y-64873238D01*
X82728571Y-64778000D01*
X82871429Y-64730381D01*
X82966667Y-64730381D01*
X83109524Y-64778000D01*
X83157143Y-64825619D01*
X84109524Y-65730381D02*
X83538095Y-65730381D01*
X83823809Y-65730381D02*
X83823809Y-64730381D01*
X83728571Y-64873238D01*
X83633333Y-64968476D01*
X83538095Y-65016095D01*
X85014286Y-64730381D02*
X84538095Y-64730381D01*
X84490476Y-65206571D01*
X84538095Y-65158952D01*
X84633333Y-65111333D01*
X84871429Y-65111333D01*
X84966667Y-65158952D01*
X85014286Y-65206571D01*
X85061905Y-65301810D01*
X85061905Y-65539905D01*
X85014286Y-65635143D01*
X84966667Y-65682762D01*
X84871429Y-65730381D01*
X84633333Y-65730381D01*
X84538095Y-65682762D01*
X84490476Y-65635143D01*
X65127143Y-101062857D02*
X65174762Y-101110476D01*
X65222381Y-101253333D01*
X65222381Y-101348571D01*
X65174762Y-101491429D01*
X65079524Y-101586667D01*
X64984286Y-101634286D01*
X64793810Y-101681905D01*
X64650952Y-101681905D01*
X64460476Y-101634286D01*
X64365238Y-101586667D01*
X64270000Y-101491429D01*
X64222381Y-101348571D01*
X64222381Y-101253333D01*
X64270000Y-101110476D01*
X64317619Y-101062857D01*
X65222381Y-100110476D02*
X65222381Y-100681905D01*
X65222381Y-100396191D02*
X64222381Y-100396191D01*
X64365238Y-100491429D01*
X64460476Y-100586667D01*
X64508095Y-100681905D01*
X64222381Y-99253333D02*
X64222381Y-99443810D01*
X64270000Y-99539048D01*
X64317619Y-99586667D01*
X64460476Y-99681905D01*
X64650952Y-99729524D01*
X65031905Y-99729524D01*
X65127143Y-99681905D01*
X65174762Y-99634286D01*
X65222381Y-99539048D01*
X65222381Y-99348571D01*
X65174762Y-99253333D01*
X65127143Y-99205714D01*
X65031905Y-99158095D01*
X64793810Y-99158095D01*
X64698571Y-99205714D01*
X64650952Y-99253333D01*
X64603333Y-99348571D01*
X64603333Y-99539048D01*
X64650952Y-99634286D01*
X64698571Y-99681905D01*
X64793810Y-99729524D01*
D15*
X83471778Y-112073809D02*
X81439778Y-112073809D01*
X81439778Y-111590000D01*
X81536540Y-111299714D01*
X81730064Y-111106190D01*
X81923588Y-111009429D01*
X82310635Y-110912667D01*
X82600921Y-110912667D01*
X82987969Y-111009429D01*
X83181492Y-111106190D01*
X83375016Y-111299714D01*
X83471778Y-111590000D01*
X83471778Y-112073809D01*
X83471778Y-108977429D02*
X83471778Y-110138571D01*
X83471778Y-109558000D02*
X81439778Y-109558000D01*
X81730064Y-109751524D01*
X81923588Y-109945048D01*
X82020350Y-110138571D01*
X96425778Y-95309809D02*
X94393778Y-95309809D01*
X94393778Y-94826000D01*
X94490540Y-94535714D01*
X94684064Y-94342190D01*
X94877588Y-94245429D01*
X95264635Y-94148667D01*
X95554921Y-94148667D01*
X95941969Y-94245429D01*
X96135492Y-94342190D01*
X96329016Y-94535714D01*
X96425778Y-94826000D01*
X96425778Y-95309809D01*
X94587302Y-93374571D02*
X94490540Y-93277809D01*
X94393778Y-93084286D01*
X94393778Y-92600476D01*
X94490540Y-92406952D01*
X94587302Y-92310190D01*
X94780826Y-92213429D01*
X94974350Y-92213429D01*
X95264635Y-92310190D01*
X96425778Y-93471333D01*
X96425778Y-92213429D01*
D16*
X67821905Y-115260381D02*
X67821905Y-114260381D01*
X68060000Y-114260381D01*
X68202858Y-114308000D01*
X68298096Y-114403238D01*
X68345715Y-114498476D01*
X68393334Y-114688952D01*
X68393334Y-114831810D01*
X68345715Y-115022286D01*
X68298096Y-115117524D01*
X68202858Y-115212762D01*
X68060000Y-115260381D01*
X67821905Y-115260381D01*
X68726667Y-114260381D02*
X69345715Y-114260381D01*
X69012381Y-114641333D01*
X69155239Y-114641333D01*
X69250477Y-114688952D01*
X69298096Y-114736571D01*
X69345715Y-114831810D01*
X69345715Y-115069905D01*
X69298096Y-115165143D01*
X69250477Y-115212762D01*
X69155239Y-115260381D01*
X68869524Y-115260381D01*
X68774286Y-115212762D01*
X68726667Y-115165143D01*
X51030007Y-114050381D02*
X51030007Y-114764667D01*
X50982387Y-114907524D01*
X50887149Y-115002762D01*
X50744292Y-115050381D01*
X50649054Y-115050381D01*
X52030007Y-115050381D02*
X51458578Y-115050381D01*
X51744292Y-115050381D02*
X51744292Y-114050381D01*
X51649054Y-114193238D01*
X51553816Y-114288476D01*
X51458578Y-114336095D01*
D15*
X75341238Y-115231333D02*
X76792667Y-115231333D01*
X77082952Y-115328095D01*
X77276476Y-115521619D01*
X77373238Y-115811904D01*
X77373238Y-116005428D01*
X75534762Y-114360476D02*
X75438000Y-114263714D01*
X75341238Y-114070191D01*
X75341238Y-113586381D01*
X75438000Y-113392857D01*
X75534762Y-113296095D01*
X75728286Y-113199334D01*
X75921810Y-113199334D01*
X76212095Y-113296095D01*
X77373238Y-114457238D01*
X77373238Y-113199334D01*
D16*
X93603381Y-119355733D02*
X94317667Y-119355733D01*
X94460524Y-119403353D01*
X94555762Y-119498591D01*
X94603381Y-119641448D01*
X94603381Y-119736686D01*
X93936714Y-118450971D02*
X94603381Y-118450971D01*
X93555762Y-118689067D02*
X94270048Y-118927162D01*
X94270048Y-118308114D01*
D15*
X56472667Y-98709238D02*
X56472667Y-100160667D01*
X56375905Y-100450952D01*
X56182381Y-100644476D01*
X55892096Y-100741238D01*
X55698572Y-100741238D01*
X58407905Y-98709238D02*
X57440286Y-98709238D01*
X57343524Y-99676857D01*
X57440286Y-99580095D01*
X57633809Y-99483333D01*
X58117619Y-99483333D01*
X58311143Y-99580095D01*
X58407905Y-99676857D01*
X58504666Y-99870381D01*
X58504666Y-100354190D01*
X58407905Y-100547714D01*
X58311143Y-100644476D01*
X58117619Y-100741238D01*
X57633809Y-100741238D01*
X57440286Y-100644476D01*
X57343524Y-100547714D01*
X91375334Y-52989238D02*
X90407715Y-52989238D01*
X90407715Y-50957238D01*
X91955905Y-52408667D02*
X92923524Y-52408667D01*
X91762381Y-52989238D02*
X92439714Y-50957238D01*
X93117047Y-52989238D01*
X93794381Y-52989238D02*
X93794381Y-50957238D01*
X94471714Y-52408667D01*
X95149047Y-50957238D01*
X95149047Y-52989238D01*
X96116667Y-52989238D02*
X96116667Y-50957238D01*
X96890762Y-50957238D01*
X97084286Y-51054000D01*
X97181047Y-51150762D01*
X97277809Y-51344286D01*
X97277809Y-51634571D01*
X97181047Y-51828095D01*
X97084286Y-51924857D01*
X96890762Y-52021619D01*
X96116667Y-52021619D01*
X99213047Y-52989238D02*
X98051905Y-52989238D01*
X98632476Y-52989238D02*
X98632476Y-50957238D01*
X98438952Y-51247524D01*
X98245428Y-51441048D01*
X98051905Y-51537810D01*
D16*
X75272762Y-96559619D02*
X75177524Y-96512000D01*
X75082286Y-96416762D01*
X74939429Y-96273905D01*
X74844190Y-96226286D01*
X74748952Y-96226286D01*
X74796571Y-96464381D02*
X74701333Y-96416762D01*
X74606095Y-96321524D01*
X74558476Y-96131048D01*
X74558476Y-95797714D01*
X74606095Y-95607238D01*
X74701333Y-95512000D01*
X74796571Y-95464381D01*
X74987048Y-95464381D01*
X75082286Y-95512000D01*
X75177524Y-95607238D01*
X75225143Y-95797714D01*
X75225143Y-96131048D01*
X75177524Y-96321524D01*
X75082286Y-96416762D01*
X74987048Y-96464381D01*
X74796571Y-96464381D01*
X76177524Y-96464381D02*
X75606095Y-96464381D01*
X75891809Y-96464381D02*
X75891809Y-95464381D01*
X75796571Y-95607238D01*
X75701333Y-95702476D01*
X75606095Y-95750095D01*
X64604762Y-56935619D02*
X64509524Y-56888000D01*
X64414286Y-56792762D01*
X64271429Y-56649905D01*
X64176190Y-56602286D01*
X64080952Y-56602286D01*
X64128571Y-56840381D02*
X64033333Y-56792762D01*
X63938095Y-56697524D01*
X63890476Y-56507048D01*
X63890476Y-56173714D01*
X63938095Y-55983238D01*
X64033333Y-55888000D01*
X64128571Y-55840381D01*
X64319048Y-55840381D01*
X64414286Y-55888000D01*
X64509524Y-55983238D01*
X64557143Y-56173714D01*
X64557143Y-56507048D01*
X64509524Y-56697524D01*
X64414286Y-56792762D01*
X64319048Y-56840381D01*
X64128571Y-56840381D01*
X64938095Y-55935619D02*
X64985714Y-55888000D01*
X65080952Y-55840381D01*
X65319048Y-55840381D01*
X65414286Y-55888000D01*
X65461905Y-55935619D01*
X65509524Y-56030857D01*
X65509524Y-56126095D01*
X65461905Y-56268952D01*
X64890476Y-56840381D01*
X65509524Y-56840381D01*
X75027334Y-56840381D02*
X74694000Y-56364190D01*
X74455905Y-56840381D02*
X74455905Y-55840381D01*
X74836858Y-55840381D01*
X74932096Y-55888000D01*
X74979715Y-55935619D01*
X75027334Y-56030857D01*
X75027334Y-56173714D01*
X74979715Y-56268952D01*
X74932096Y-56316571D01*
X74836858Y-56364190D01*
X74455905Y-56364190D01*
X75979715Y-56840381D02*
X75408286Y-56840381D01*
X75694000Y-56840381D02*
X75694000Y-55840381D01*
X75598762Y-55983238D01*
X75503524Y-56078476D01*
X75408286Y-56126095D01*
X74499334Y-40838381D02*
X74166000Y-40362190D01*
X73927905Y-40838381D02*
X73927905Y-39838381D01*
X74308858Y-39838381D01*
X74404096Y-39886000D01*
X74451715Y-39933619D01*
X74499334Y-40028857D01*
X74499334Y-40171714D01*
X74451715Y-40266952D01*
X74404096Y-40314571D01*
X74308858Y-40362190D01*
X73927905Y-40362190D01*
X74880286Y-39933619D02*
X74927905Y-39886000D01*
X75023143Y-39838381D01*
X75261239Y-39838381D01*
X75356477Y-39886000D01*
X75404096Y-39933619D01*
X75451715Y-40028857D01*
X75451715Y-40124095D01*
X75404096Y-40266952D01*
X74832667Y-40838381D01*
X75451715Y-40838381D01*
X86691334Y-69794381D02*
X86358000Y-69318190D01*
X86119905Y-69794381D02*
X86119905Y-68794381D01*
X86500858Y-68794381D01*
X86596096Y-68842000D01*
X86643715Y-68889619D01*
X86691334Y-68984857D01*
X86691334Y-69127714D01*
X86643715Y-69222952D01*
X86596096Y-69270571D01*
X86500858Y-69318190D01*
X86119905Y-69318190D01*
X87024667Y-68794381D02*
X87643715Y-68794381D01*
X87310381Y-69175333D01*
X87453239Y-69175333D01*
X87548477Y-69222952D01*
X87596096Y-69270571D01*
X87643715Y-69365810D01*
X87643715Y-69603905D01*
X87596096Y-69699143D01*
X87548477Y-69746762D01*
X87453239Y-69794381D01*
X87167524Y-69794381D01*
X87072286Y-69746762D01*
X87024667Y-69699143D01*
X69794381Y-89056666D02*
X69318190Y-89390000D01*
X69794381Y-89628095D02*
X68794381Y-89628095D01*
X68794381Y-89247142D01*
X68842000Y-89151904D01*
X68889619Y-89104285D01*
X68984857Y-89056666D01*
X69127714Y-89056666D01*
X69222952Y-89104285D01*
X69270571Y-89151904D01*
X69318190Y-89247142D01*
X69318190Y-89628095D01*
X69127714Y-88199523D02*
X69794381Y-88199523D01*
X68746762Y-88437619D02*
X69461048Y-88675714D01*
X69461048Y-88056666D01*
X76043334Y-45664381D02*
X75710000Y-45188190D01*
X75471905Y-45664381D02*
X75471905Y-44664381D01*
X75852858Y-44664381D01*
X75948096Y-44712000D01*
X75995715Y-44759619D01*
X76043334Y-44854857D01*
X76043334Y-44997714D01*
X75995715Y-45092952D01*
X75948096Y-45140571D01*
X75852858Y-45188190D01*
X75471905Y-45188190D01*
X76948096Y-44664381D02*
X76471905Y-44664381D01*
X76424286Y-45140571D01*
X76471905Y-45092952D01*
X76567143Y-45045333D01*
X76805239Y-45045333D01*
X76900477Y-45092952D01*
X76948096Y-45140571D01*
X76995715Y-45235810D01*
X76995715Y-45473905D01*
X76948096Y-45569143D01*
X76900477Y-45616762D01*
X76805239Y-45664381D01*
X76567143Y-45664381D01*
X76471905Y-45616762D01*
X76424286Y-45569143D01*
X84526381Y-46912666D02*
X84050190Y-47246000D01*
X84526381Y-47484095D02*
X83526381Y-47484095D01*
X83526381Y-47103142D01*
X83574000Y-47007904D01*
X83621619Y-46960285D01*
X83716857Y-46912666D01*
X83859714Y-46912666D01*
X83954952Y-46960285D01*
X84002571Y-47007904D01*
X84050190Y-47103142D01*
X84050190Y-47484095D01*
X83526381Y-46055523D02*
X83526381Y-46246000D01*
X83574000Y-46341238D01*
X83621619Y-46388857D01*
X83764476Y-46484095D01*
X83954952Y-46531714D01*
X84335905Y-46531714D01*
X84431143Y-46484095D01*
X84478762Y-46436476D01*
X84526381Y-46341238D01*
X84526381Y-46150761D01*
X84478762Y-46055523D01*
X84431143Y-46007904D01*
X84335905Y-45960285D01*
X84097810Y-45960285D01*
X84002571Y-46007904D01*
X83954952Y-46055523D01*
X83907333Y-46150761D01*
X83907333Y-46341238D01*
X83954952Y-46436476D01*
X84002571Y-46484095D01*
X84097810Y-46531714D01*
X87961334Y-60396381D02*
X87628000Y-59920190D01*
X87389905Y-60396381D02*
X87389905Y-59396381D01*
X87770858Y-59396381D01*
X87866096Y-59444000D01*
X87913715Y-59491619D01*
X87961334Y-59586857D01*
X87961334Y-59729714D01*
X87913715Y-59824952D01*
X87866096Y-59872571D01*
X87770858Y-59920190D01*
X87389905Y-59920190D01*
X88294667Y-59396381D02*
X88961334Y-59396381D01*
X88532762Y-60396381D01*
X95702381Y-79170666D02*
X95226190Y-79504000D01*
X95702381Y-79742095D02*
X94702381Y-79742095D01*
X94702381Y-79361142D01*
X94750000Y-79265904D01*
X94797619Y-79218285D01*
X94892857Y-79170666D01*
X95035714Y-79170666D01*
X95130952Y-79218285D01*
X95178571Y-79265904D01*
X95226190Y-79361142D01*
X95226190Y-79742095D01*
X95130952Y-78599238D02*
X95083333Y-78694476D01*
X95035714Y-78742095D01*
X94940476Y-78789714D01*
X94892857Y-78789714D01*
X94797619Y-78742095D01*
X94750000Y-78694476D01*
X94702381Y-78599238D01*
X94702381Y-78408761D01*
X94750000Y-78313523D01*
X94797619Y-78265904D01*
X94892857Y-78218285D01*
X94940476Y-78218285D01*
X95035714Y-78265904D01*
X95083333Y-78313523D01*
X95130952Y-78408761D01*
X95130952Y-78599238D01*
X95178571Y-78694476D01*
X95226190Y-78742095D01*
X95321429Y-78789714D01*
X95511905Y-78789714D01*
X95607143Y-78742095D01*
X95654762Y-78694476D01*
X95702381Y-78599238D01*
X95702381Y-78408761D01*
X95654762Y-78313523D01*
X95607143Y-78265904D01*
X95511905Y-78218285D01*
X95321429Y-78218285D01*
X95226190Y-78265904D01*
X95178571Y-78313523D01*
X95130952Y-78408761D01*
X87727334Y-55824381D02*
X87394000Y-55348190D01*
X87155905Y-55824381D02*
X87155905Y-54824381D01*
X87536858Y-54824381D01*
X87632096Y-54872000D01*
X87679715Y-54919619D01*
X87727334Y-55014857D01*
X87727334Y-55157714D01*
X87679715Y-55252952D01*
X87632096Y-55300571D01*
X87536858Y-55348190D01*
X87155905Y-55348190D01*
X88203524Y-55824381D02*
X88394000Y-55824381D01*
X88489239Y-55776762D01*
X88536858Y-55729143D01*
X88632096Y-55586286D01*
X88679715Y-55395810D01*
X88679715Y-55014857D01*
X88632096Y-54919619D01*
X88584477Y-54872000D01*
X88489239Y-54824381D01*
X88298762Y-54824381D01*
X88203524Y-54872000D01*
X88155905Y-54919619D01*
X88108286Y-55014857D01*
X88108286Y-55252952D01*
X88155905Y-55348190D01*
X88203524Y-55395810D01*
X88298762Y-55443429D01*
X88489239Y-55443429D01*
X88584477Y-55395810D01*
X88632096Y-55348190D01*
X88679715Y-55252952D01*
X112212381Y-77732857D02*
X111736190Y-78066191D01*
X112212381Y-78304286D02*
X111212381Y-78304286D01*
X111212381Y-77923333D01*
X111260000Y-77828095D01*
X111307619Y-77780476D01*
X111402857Y-77732857D01*
X111545714Y-77732857D01*
X111640952Y-77780476D01*
X111688571Y-77828095D01*
X111736190Y-77923333D01*
X111736190Y-78304286D01*
X112212381Y-76780476D02*
X112212381Y-77351905D01*
X112212381Y-77066191D02*
X111212381Y-77066191D01*
X111355238Y-77161429D01*
X111450476Y-77256667D01*
X111498095Y-77351905D01*
X111212381Y-76161429D02*
X111212381Y-76066190D01*
X111260000Y-75970952D01*
X111307619Y-75923333D01*
X111402857Y-75875714D01*
X111593333Y-75828095D01*
X111831429Y-75828095D01*
X112021905Y-75875714D01*
X112117143Y-75923333D01*
X112164762Y-75970952D01*
X112212381Y-76066190D01*
X112212381Y-76161429D01*
X112164762Y-76256667D01*
X112117143Y-76304286D01*
X112021905Y-76351905D01*
X111831429Y-76399524D01*
X111593333Y-76399524D01*
X111402857Y-76351905D01*
X111307619Y-76304286D01*
X111260000Y-76256667D01*
X111212381Y-76161429D01*
X90622381Y-95394857D02*
X90146190Y-95728191D01*
X90622381Y-95966286D02*
X89622381Y-95966286D01*
X89622381Y-95585333D01*
X89670000Y-95490095D01*
X89717619Y-95442476D01*
X89812857Y-95394857D01*
X89955714Y-95394857D01*
X90050952Y-95442476D01*
X90098571Y-95490095D01*
X90146190Y-95585333D01*
X90146190Y-95966286D01*
X90622381Y-94442476D02*
X90622381Y-95013905D01*
X90622381Y-94728191D02*
X89622381Y-94728191D01*
X89765238Y-94823429D01*
X89860476Y-94918667D01*
X89908095Y-95013905D01*
X90622381Y-93490095D02*
X90622381Y-94061524D01*
X90622381Y-93775810D02*
X89622381Y-93775810D01*
X89765238Y-93871048D01*
X89860476Y-93966286D01*
X89908095Y-94061524D01*
X68709143Y-109164381D02*
X68375809Y-108688190D01*
X68137714Y-109164381D02*
X68137714Y-108164381D01*
X68518667Y-108164381D01*
X68613905Y-108212000D01*
X68661524Y-108259619D01*
X68709143Y-108354857D01*
X68709143Y-108497714D01*
X68661524Y-108592952D01*
X68613905Y-108640571D01*
X68518667Y-108688190D01*
X68137714Y-108688190D01*
X69661524Y-109164381D02*
X69090095Y-109164381D01*
X69375809Y-109164381D02*
X69375809Y-108164381D01*
X69280571Y-108307238D01*
X69185333Y-108402476D01*
X69090095Y-108450095D01*
X70042476Y-108259619D02*
X70090095Y-108212000D01*
X70185333Y-108164381D01*
X70423429Y-108164381D01*
X70518667Y-108212000D01*
X70566286Y-108259619D01*
X70613905Y-108354857D01*
X70613905Y-108450095D01*
X70566286Y-108592952D01*
X69994857Y-109164381D01*
X70613905Y-109164381D01*
X70302381Y-100728857D02*
X69826190Y-101062191D01*
X70302381Y-101300286D02*
X69302381Y-101300286D01*
X69302381Y-100919333D01*
X69350000Y-100824095D01*
X69397619Y-100776476D01*
X69492857Y-100728857D01*
X69635714Y-100728857D01*
X69730952Y-100776476D01*
X69778571Y-100824095D01*
X69826190Y-100919333D01*
X69826190Y-101300286D01*
X70302381Y-99776476D02*
X70302381Y-100347905D01*
X70302381Y-100062191D02*
X69302381Y-100062191D01*
X69445238Y-100157429D01*
X69540476Y-100252667D01*
X69588095Y-100347905D01*
X69302381Y-99443143D02*
X69302381Y-98824095D01*
X69683333Y-99157429D01*
X69683333Y-99014571D01*
X69730952Y-98919333D01*
X69778571Y-98871714D01*
X69873810Y-98824095D01*
X70111905Y-98824095D01*
X70207143Y-98871714D01*
X70254762Y-98919333D01*
X70302381Y-99014571D01*
X70302381Y-99300286D01*
X70254762Y-99395524D01*
X70207143Y-99443143D01*
X63121143Y-78938381D02*
X62787809Y-78462190D01*
X62549714Y-78938381D02*
X62549714Y-77938381D01*
X62930667Y-77938381D01*
X63025905Y-77986000D01*
X63073524Y-78033619D01*
X63121143Y-78128857D01*
X63121143Y-78271714D01*
X63073524Y-78366952D01*
X63025905Y-78414571D01*
X62930667Y-78462190D01*
X62549714Y-78462190D01*
X64073524Y-78938381D02*
X63502095Y-78938381D01*
X63787809Y-78938381D02*
X63787809Y-77938381D01*
X63692571Y-78081238D01*
X63597333Y-78176476D01*
X63502095Y-78224095D01*
X64406857Y-77938381D02*
X65073524Y-77938381D01*
X64644952Y-78938381D01*
D17*
X89395905Y-45369238D02*
X89541048Y-45417619D01*
X89782952Y-45417619D01*
X89879714Y-45369238D01*
X89928095Y-45320857D01*
X89976476Y-45224095D01*
X89976476Y-45127333D01*
X89928095Y-45030571D01*
X89879714Y-44982190D01*
X89782952Y-44933810D01*
X89589429Y-44885429D01*
X89492667Y-44837048D01*
X89444286Y-44788667D01*
X89395905Y-44691905D01*
X89395905Y-44595143D01*
X89444286Y-44498381D01*
X89492667Y-44450000D01*
X89589429Y-44401619D01*
X89831333Y-44401619D01*
X89976476Y-44450000D01*
X90411905Y-45417619D02*
X90411905Y-44401619D01*
X90750571Y-45127333D01*
X91089238Y-44401619D01*
X91089238Y-45417619D01*
X91524667Y-45127333D02*
X92008476Y-45127333D01*
X91427905Y-45417619D02*
X91766572Y-44401619D01*
X92105238Y-45417619D01*
X92976095Y-45417619D02*
X92395524Y-45417619D01*
X92685810Y-45417619D02*
X92685810Y-44401619D01*
X92589048Y-44546762D01*
X92492286Y-44643524D01*
X92395524Y-44691905D01*
D16*
X89916095Y-104354381D02*
X89916095Y-105163905D01*
X89963714Y-105259143D01*
X90011333Y-105306762D01*
X90106571Y-105354381D01*
X90297048Y-105354381D01*
X90392286Y-105306762D01*
X90439905Y-105259143D01*
X90487524Y-105163905D01*
X90487524Y-104354381D01*
X91487524Y-105354381D02*
X90916095Y-105354381D01*
X91201809Y-105354381D02*
X91201809Y-104354381D01*
X91106571Y-104497238D01*
X91011333Y-104592476D01*
X90916095Y-104640095D01*
X74860095Y-90638381D02*
X74860095Y-91447905D01*
X74907714Y-91543143D01*
X74955333Y-91590762D01*
X75050571Y-91638381D01*
X75241048Y-91638381D01*
X75336286Y-91590762D01*
X75383905Y-91543143D01*
X75431524Y-91447905D01*
X75431524Y-90638381D01*
X75860095Y-90733619D02*
X75907714Y-90686000D01*
X76002952Y-90638381D01*
X76241048Y-90638381D01*
X76336286Y-90686000D01*
X76383905Y-90733619D01*
X76431524Y-90828857D01*
X76431524Y-90924095D01*
X76383905Y-91066952D01*
X75812476Y-91638381D01*
X76431524Y-91638381D01*
D15*
X71979238Y-68540190D02*
X73624190Y-68540190D01*
X73817714Y-68443429D01*
X73914476Y-68346667D01*
X74011238Y-68153143D01*
X74011238Y-67766095D01*
X73914476Y-67572571D01*
X73817714Y-67475810D01*
X73624190Y-67379048D01*
X71979238Y-67379048D01*
X71979238Y-66604952D02*
X71979238Y-65347048D01*
X72753333Y-66024381D01*
X72753333Y-65734095D01*
X72850095Y-65540571D01*
X72946857Y-65443809D01*
X73140381Y-65347048D01*
X73624190Y-65347048D01*
X73817714Y-65443809D01*
X73914476Y-65540571D01*
X74011238Y-65734095D01*
X74011238Y-66314667D01*
X73914476Y-66508190D01*
X73817714Y-66604952D01*
X83917238Y-82256190D02*
X85562190Y-82256190D01*
X85755714Y-82159429D01*
X85852476Y-82062667D01*
X85949238Y-81869143D01*
X85949238Y-81482095D01*
X85852476Y-81288571D01*
X85755714Y-81191810D01*
X85562190Y-81095048D01*
X83917238Y-81095048D01*
X84594571Y-79256571D02*
X85949238Y-79256571D01*
X83820476Y-79740381D02*
X85271905Y-80224190D01*
X85271905Y-78966286D01*
D16*
X71725334Y-48712381D02*
X71249143Y-48712381D01*
X71249143Y-47712381D01*
X72582477Y-48712381D02*
X72011048Y-48712381D01*
X72296762Y-48712381D02*
X72296762Y-47712381D01*
X72201524Y-47855238D01*
X72106286Y-47950476D01*
X72011048Y-47998095D01*
X83756667Y-33980381D02*
X83423333Y-33504190D01*
X83185238Y-33980381D02*
X83185238Y-32980381D01*
X83566191Y-32980381D01*
X83661429Y-33028000D01*
X83709048Y-33075619D01*
X83756667Y-33170857D01*
X83756667Y-33313714D01*
X83709048Y-33408952D01*
X83661429Y-33456571D01*
X83566191Y-33504190D01*
X83185238Y-33504190D01*
X84185238Y-33456571D02*
X84518572Y-33456571D01*
X84661429Y-33980381D02*
X84185238Y-33980381D01*
X84185238Y-32980381D01*
X84661429Y-32980381D01*
X85423334Y-33456571D02*
X85090000Y-33456571D01*
X85090000Y-33980381D02*
X85090000Y-32980381D01*
X85566191Y-32980381D01*
X86090000Y-32980381D02*
X86090000Y-33218476D01*
X85851905Y-33123238D02*
X86090000Y-33218476D01*
X86328096Y-33123238D01*
X85947143Y-33408952D02*
X86090000Y-33218476D01*
X86232858Y-33408952D01*
X86851905Y-32980381D02*
X86851905Y-33218476D01*
X86613810Y-33123238D02*
X86851905Y-33218476D01*
X87090001Y-33123238D01*
X86709048Y-33408952D02*
X86851905Y-33218476D01*
X86994763Y-33408952D01*
X90106667Y-33980381D02*
X89773333Y-33504190D01*
X89535238Y-33980381D02*
X89535238Y-32980381D01*
X89916191Y-32980381D01*
X90011429Y-33028000D01*
X90059048Y-33075619D01*
X90106667Y-33170857D01*
X90106667Y-33313714D01*
X90059048Y-33408952D01*
X90011429Y-33456571D01*
X89916191Y-33504190D01*
X89535238Y-33504190D01*
X90535238Y-33456571D02*
X90868572Y-33456571D01*
X91011429Y-33980381D02*
X90535238Y-33980381D01*
X90535238Y-32980381D01*
X91011429Y-32980381D01*
X91773334Y-33456571D02*
X91440000Y-33456571D01*
X91440000Y-33980381D02*
X91440000Y-32980381D01*
X91916191Y-32980381D01*
X92440000Y-32980381D02*
X92440000Y-33218476D01*
X92201905Y-33123238D02*
X92440000Y-33218476D01*
X92678096Y-33123238D01*
X92297143Y-33408952D02*
X92440000Y-33218476D01*
X92582858Y-33408952D01*
X93201905Y-32980381D02*
X93201905Y-33218476D01*
X92963810Y-33123238D02*
X93201905Y-33218476D01*
X93440001Y-33123238D01*
X93059048Y-33408952D02*
X93201905Y-33218476D01*
X93344763Y-33408952D01*
X96456667Y-33980381D02*
X96123333Y-33504190D01*
X95885238Y-33980381D02*
X95885238Y-32980381D01*
X96266191Y-32980381D01*
X96361429Y-33028000D01*
X96409048Y-33075619D01*
X96456667Y-33170857D01*
X96456667Y-33313714D01*
X96409048Y-33408952D01*
X96361429Y-33456571D01*
X96266191Y-33504190D01*
X95885238Y-33504190D01*
X96885238Y-33456571D02*
X97218572Y-33456571D01*
X97361429Y-33980381D02*
X96885238Y-33980381D01*
X96885238Y-32980381D01*
X97361429Y-32980381D01*
X98123334Y-33456571D02*
X97790000Y-33456571D01*
X97790000Y-33980381D02*
X97790000Y-32980381D01*
X98266191Y-32980381D01*
X98790000Y-32980381D02*
X98790000Y-33218476D01*
X98551905Y-33123238D02*
X98790000Y-33218476D01*
X99028096Y-33123238D01*
X98647143Y-33408952D02*
X98790000Y-33218476D01*
X98932858Y-33408952D01*
X99551905Y-32980381D02*
X99551905Y-33218476D01*
X99313810Y-33123238D02*
X99551905Y-33218476D01*
X99790001Y-33123238D01*
X99409048Y-33408952D02*
X99551905Y-33218476D01*
X99694763Y-33408952D01*
X108124667Y-61555381D02*
X108124667Y-62269667D01*
X108077047Y-62412524D01*
X107981809Y-62507762D01*
X107838952Y-62555381D01*
X107743714Y-62555381D01*
X108505619Y-61555381D02*
X109124667Y-61555381D01*
X108791333Y-61936333D01*
X108934191Y-61936333D01*
X109029429Y-61983952D01*
X109077048Y-62031571D01*
X109124667Y-62126810D01*
X109124667Y-62364905D01*
X109077048Y-62460143D01*
X109029429Y-62507762D01*
X108934191Y-62555381D01*
X108648476Y-62555381D01*
X108553238Y-62507762D01*
X108505619Y-62460143D01*
M02*
