%TF.GenerationSoftware,KiCad,Pcbnew,4.0.4+e1-6308~48~ubuntu16.04.1-stable*%
%TF.CreationDate,2016-12-09T19:15:12-08:00*%
%TF.ProjectId,e202var-vlf-radio-receiver,653230327661722D766C662D72616469,v1.2*%
%TF.FileFunction,Copper,L2,Bot,Signal*%
%FSLAX46Y46*%
G04 Gerber Fmt 4.6, Leading zero omitted, Abs format (unit mm)*
G04 Created by KiCad (PCBNEW 4.0.4+e1-6308~48~ubuntu16.04.1-stable) date Fri Dec  9 19:15:12 2016*
%MOMM*%
%LPD*%
G01*
G04 APERTURE LIST*
%ADD10C,0.350000*%
%ADD11C,4.000000*%
%ADD12C,2.740000*%
%ADD13C,2.240000*%
%ADD14O,7.000240X3.500120*%
%ADD15O,2.499360X1.600200*%
%ADD16R,1.400000X1.400000*%
%ADD17C,1.400000*%
%ADD18R,1.300000X1.300000*%
%ADD19C,1.300000*%
%ADD20C,1.998980*%
%ADD21R,1.998980X1.998980*%
%ADD22R,2.032000X2.032000*%
%ADD23O,2.032000X2.032000*%
%ADD24O,1.501140X0.899160*%
%ADD25O,0.899160X1.501140*%
%ADD26C,2.032000*%
%ADD27O,1.699260X3.500120*%
%ADD28O,2.300000X1.600000*%
%ADD29C,5.000000*%
%ADD30C,2.184400*%
%ADD31R,1.900000X2.000000*%
%ADD32C,1.900000*%
%ADD33C,0.863600*%
%ADD34C,0.508000*%
%ADD35C,0.254000*%
%ADD36C,0.350000*%
G04 APERTURE END LIST*
D10*
D11*
X91313000Y-109522260D03*
X91313000Y-115521740D03*
X96012000Y-112522000D03*
X72390000Y-105410000D03*
X66390520Y-105410000D03*
X69390260Y-110109000D03*
D12*
X83820000Y-45466000D03*
X88900000Y-45466000D03*
X88900000Y-40386000D03*
X83820000Y-40386000D03*
D13*
X86360000Y-42926000D03*
D14*
X105943400Y-105900220D03*
X105943400Y-116098320D03*
D15*
X101678740Y-110998000D03*
X101678740Y-108498640D03*
D14*
X105918000Y-41148000D03*
X105918000Y-51346100D03*
D15*
X101653340Y-46245780D03*
X101653340Y-43746420D03*
D14*
X105943400Y-88882220D03*
X105943400Y-99080320D03*
D15*
X101678740Y-93980000D03*
X101678740Y-91480640D03*
D16*
X60532000Y-88138000D03*
D17*
X65532000Y-88138000D03*
D16*
X66468000Y-48260000D03*
D17*
X61468000Y-48260000D03*
D16*
X62738000Y-67056000D03*
D17*
X62738000Y-62056000D03*
D18*
X80264000Y-76240000D03*
D19*
X80264000Y-78740000D03*
D18*
X90932000Y-88392000D03*
D19*
X90932000Y-90892000D03*
D18*
X104140000Y-72136000D03*
D19*
X101640000Y-72136000D03*
D16*
X103124000Y-76534000D03*
D17*
X103124000Y-81534000D03*
D18*
X61722000Y-73152000D03*
D19*
X64222000Y-73152000D03*
D16*
X99568000Y-62404000D03*
D17*
X99568000Y-57404000D03*
D18*
X98044000Y-66548000D03*
D19*
X100544000Y-66548000D03*
D18*
X90932000Y-98258000D03*
D19*
X90932000Y-95758000D03*
D16*
X63246000Y-77804000D03*
D17*
X63246000Y-82804000D03*
D18*
X92924000Y-62992000D03*
D19*
X90424000Y-62992000D03*
D16*
X69342000Y-97964000D03*
D17*
X69342000Y-92964000D03*
D20*
X83820000Y-116840000D03*
D21*
X83820000Y-106680000D03*
D20*
X95752920Y-87376000D03*
D21*
X95752920Y-97536000D03*
D22*
X77724000Y-116078000D03*
D23*
X75184000Y-116078000D03*
D22*
X61976000Y-97282000D03*
D23*
X61976000Y-94742000D03*
D22*
X96520000Y-47752000D03*
D23*
X93980000Y-47752000D03*
D24*
X82042000Y-94488000D03*
X82042000Y-93218000D03*
X82042000Y-95758000D03*
D25*
X63754000Y-55118000D03*
X62484000Y-55118000D03*
X65024000Y-55118000D03*
D20*
X78740000Y-52578000D03*
X71120000Y-52578000D03*
X85090000Y-67818000D03*
X92710000Y-67818000D03*
X74422000Y-75692000D03*
X74422000Y-83312000D03*
X71120000Y-40894000D03*
X78740000Y-40894000D03*
X89916000Y-50038000D03*
X82296000Y-50038000D03*
X85090000Y-58928000D03*
X92710000Y-58928000D03*
X97536000Y-72644000D03*
X97536000Y-80264000D03*
X92710000Y-54610000D03*
X85090000Y-54610000D03*
D26*
X111760000Y-72390000D03*
X111760000Y-77470000D03*
X111760000Y-82550000D03*
D20*
X86106000Y-98044000D03*
X86106000Y-90424000D03*
X77470000Y-88392000D03*
X77470000Y-96012000D03*
X73914000Y-88392000D03*
X73914000Y-96012000D03*
X69596000Y-83058000D03*
X69596000Y-75438000D03*
D27*
X91948000Y-104140000D03*
X89408000Y-104140000D03*
X94488000Y-104140000D03*
D24*
X82042000Y-88138000D03*
X82042000Y-86868000D03*
X82042000Y-89408000D03*
D28*
X78740000Y-68326000D03*
X78740000Y-65786000D03*
X78740000Y-63246000D03*
X78740000Y-60706000D03*
X71120000Y-60706000D03*
X71120000Y-63246000D03*
X71120000Y-65786000D03*
X71120000Y-68326000D03*
X85344000Y-74168000D03*
X85344000Y-76708000D03*
X85344000Y-79248000D03*
X85344000Y-81788000D03*
X92964000Y-81788000D03*
X92964000Y-79248000D03*
X92964000Y-76708000D03*
X92964000Y-74168000D03*
D20*
X78740000Y-44704000D03*
X71120000Y-44704000D03*
D29*
X63500000Y-41910000D03*
X63500000Y-114300000D03*
X95250000Y-41910000D03*
D30*
X112014000Y-57150000D03*
X112014000Y-59690000D03*
X112014000Y-64770000D03*
X112014000Y-67310000D03*
X106934000Y-62230000D03*
D20*
X71120000Y-48514000D03*
X78740000Y-48514000D03*
D16*
X77296000Y-101346000D03*
D17*
X82296000Y-101346000D03*
D31*
X79756000Y-108712000D03*
D32*
X77216000Y-108712000D03*
D33*
X80264000Y-82042000D03*
X80264000Y-94488000D03*
X66802000Y-69596000D03*
X86868000Y-86614000D03*
X89916000Y-86614000D03*
X68580000Y-64516000D03*
X75692000Y-92710000D03*
X84328000Y-91948000D03*
X84328000Y-87122000D03*
D34*
X85344000Y-74168000D02*
X87002000Y-74168000D01*
X87002000Y-74168000D02*
X92964000Y-74168000D01*
X101678740Y-93980000D02*
X92710000Y-93980000D01*
X92710000Y-93980000D02*
X90932000Y-95758000D01*
X80264000Y-94488000D02*
X80264000Y-82042000D01*
X66802000Y-69596000D02*
X64070000Y-69596000D01*
X64070000Y-69596000D02*
X62738000Y-68264000D01*
X62738000Y-68264000D02*
X62738000Y-67056000D01*
X88138000Y-86614000D02*
X86868000Y-86614000D01*
X89916000Y-86614000D02*
X88138000Y-86614000D01*
X90932000Y-98258000D02*
X86320000Y-98258000D01*
X86320000Y-98258000D02*
X86106000Y-98044000D01*
X68580000Y-64516000D02*
X68580000Y-74422000D01*
X68580000Y-74422000D02*
X69596000Y-75438000D01*
X92924000Y-64404000D02*
X92924000Y-63754000D01*
X92924000Y-63754000D02*
X92924000Y-63246000D01*
X92924000Y-62992000D02*
X92924000Y-63754000D01*
X94996000Y-68072000D02*
X94996000Y-66476000D01*
X94996000Y-66476000D02*
X92924000Y-64404000D01*
X96520000Y-69596000D02*
X94996000Y-68072000D01*
X106172000Y-69596000D02*
X96520000Y-69596000D01*
X107696000Y-71120000D02*
X106172000Y-69596000D01*
X107696000Y-75692000D02*
X107696000Y-71120000D01*
X109474000Y-77470000D02*
X107696000Y-75692000D01*
X111760000Y-77470000D02*
X109474000Y-77470000D01*
X75692000Y-92710000D02*
X75692000Y-84582000D01*
X75692000Y-84582000D02*
X74422000Y-83312000D01*
X84328000Y-87122000D02*
X84328000Y-91948000D01*
D35*
G36*
X61726485Y-39250727D02*
X60843826Y-40131847D01*
X60365546Y-41283674D01*
X60364457Y-42530854D01*
X60840727Y-43683515D01*
X61721847Y-44566174D01*
X62873674Y-45044454D01*
X64120854Y-45045543D01*
X64164051Y-45027694D01*
X69485226Y-45027694D01*
X69733538Y-45628655D01*
X70192927Y-46088846D01*
X70793453Y-46338206D01*
X71443694Y-46338774D01*
X72044655Y-46090462D01*
X72504846Y-45631073D01*
X72754206Y-45030547D01*
X72754208Y-45027694D01*
X77105226Y-45027694D01*
X77353538Y-45628655D01*
X77812927Y-46088846D01*
X78413453Y-46338206D01*
X79063694Y-46338774D01*
X79664655Y-46090462D01*
X80124846Y-45631073D01*
X80339891Y-45113186D01*
X81806395Y-45113186D01*
X81824656Y-45910615D01*
X82094688Y-46562531D01*
X82399954Y-46706441D01*
X83640395Y-45466000D01*
X82399954Y-44225559D01*
X82094688Y-44369469D01*
X81806395Y-45113186D01*
X80339891Y-45113186D01*
X80374206Y-45030547D01*
X80374774Y-44380306D01*
X80126462Y-43779345D01*
X79667073Y-43319154D01*
X79066547Y-43069794D01*
X78416306Y-43069226D01*
X77815345Y-43317538D01*
X77355154Y-43776927D01*
X77105794Y-44377453D01*
X77105226Y-45027694D01*
X72754208Y-45027694D01*
X72754774Y-44380306D01*
X72506462Y-43779345D01*
X72047073Y-43319154D01*
X71446547Y-43069794D01*
X70796306Y-43069226D01*
X70195345Y-43317538D01*
X69735154Y-43776927D01*
X69485794Y-44377453D01*
X69485226Y-45027694D01*
X64164051Y-45027694D01*
X65273515Y-44569273D01*
X66156174Y-43688153D01*
X66634454Y-42536326D01*
X66635543Y-41289146D01*
X66606020Y-41217694D01*
X69485226Y-41217694D01*
X69733538Y-41818655D01*
X70192927Y-42278846D01*
X70793453Y-42528206D01*
X71443694Y-42528774D01*
X72044655Y-42280462D01*
X72279363Y-42046163D01*
X77767443Y-42046163D01*
X77866042Y-42312965D01*
X78475582Y-42539401D01*
X79125377Y-42515341D01*
X79613958Y-42312965D01*
X79712557Y-42046163D01*
X78740000Y-41073605D01*
X77767443Y-42046163D01*
X72279363Y-42046163D01*
X72504846Y-41821073D01*
X72754206Y-41220547D01*
X72754722Y-40629582D01*
X77094599Y-40629582D01*
X77118659Y-41279377D01*
X77321035Y-41767958D01*
X77587837Y-41866557D01*
X78560395Y-40894000D01*
X78919605Y-40894000D01*
X79892163Y-41866557D01*
X80055901Y-41806046D01*
X82579559Y-41806046D01*
X82723469Y-42111312D01*
X83467186Y-42399605D01*
X84264615Y-42381344D01*
X84773381Y-42170606D01*
X84605306Y-42575377D01*
X84604697Y-43273559D01*
X84775049Y-43685844D01*
X84172814Y-43452395D01*
X83375385Y-43470656D01*
X82723469Y-43740688D01*
X82579559Y-44045954D01*
X83820000Y-45286395D01*
X83834143Y-45272253D01*
X84013748Y-45451858D01*
X83999605Y-45466000D01*
X85240046Y-46706441D01*
X85545312Y-46562531D01*
X85833605Y-45818814D01*
X85815344Y-45021385D01*
X85604606Y-44512619D01*
X86009377Y-44680694D01*
X86707559Y-44681303D01*
X87119844Y-44510951D01*
X86886395Y-45113186D01*
X86904656Y-45910615D01*
X87174688Y-46562531D01*
X87479954Y-46706441D01*
X88720395Y-45466000D01*
X89079605Y-45466000D01*
X90320046Y-46706441D01*
X90625312Y-46562531D01*
X90913605Y-45818814D01*
X90895344Y-45021385D01*
X90625312Y-44369469D01*
X90320046Y-44225559D01*
X89079605Y-45466000D01*
X88720395Y-45466000D01*
X88706253Y-45451858D01*
X88885858Y-45272253D01*
X88900000Y-45286395D01*
X90140441Y-44045954D01*
X89996531Y-43740688D01*
X89252814Y-43452395D01*
X88455385Y-43470656D01*
X87946619Y-43681394D01*
X88114694Y-43276623D01*
X88115303Y-42578441D01*
X87944951Y-42166156D01*
X88547186Y-42399605D01*
X89344615Y-42381344D01*
X89996531Y-42111312D01*
X90140441Y-41806046D01*
X88900000Y-40565605D01*
X88885858Y-40579748D01*
X88706253Y-40400143D01*
X88720395Y-40386000D01*
X89079605Y-40386000D01*
X90320046Y-41626441D01*
X90625312Y-41482531D01*
X90913605Y-40738814D01*
X90895344Y-39941385D01*
X90625312Y-39289469D01*
X90320046Y-39145559D01*
X89079605Y-40386000D01*
X88720395Y-40386000D01*
X87479954Y-39145559D01*
X87174688Y-39289469D01*
X86886395Y-40033186D01*
X86904656Y-40830615D01*
X87115394Y-41339381D01*
X86710623Y-41171306D01*
X86012441Y-41170697D01*
X85600156Y-41341049D01*
X85833605Y-40738814D01*
X85815344Y-39941385D01*
X85545312Y-39289469D01*
X85240046Y-39145559D01*
X83999605Y-40386000D01*
X84013748Y-40400143D01*
X83834143Y-40579748D01*
X83820000Y-40565605D01*
X82579559Y-41806046D01*
X80055901Y-41806046D01*
X80158965Y-41767958D01*
X80385401Y-41158418D01*
X80361341Y-40508623D01*
X80164410Y-40033186D01*
X81806395Y-40033186D01*
X81824656Y-40830615D01*
X82094688Y-41482531D01*
X82399954Y-41626441D01*
X83640395Y-40386000D01*
X82399954Y-39145559D01*
X82094688Y-39289469D01*
X81806395Y-40033186D01*
X80164410Y-40033186D01*
X80158965Y-40020042D01*
X79892163Y-39921443D01*
X78919605Y-40894000D01*
X78560395Y-40894000D01*
X77587837Y-39921443D01*
X77321035Y-40020042D01*
X77094599Y-40629582D01*
X72754722Y-40629582D01*
X72754774Y-40570306D01*
X72506462Y-39969345D01*
X72279351Y-39741837D01*
X77767443Y-39741837D01*
X78740000Y-40714395D01*
X79712557Y-39741837D01*
X79613958Y-39475035D01*
X79004418Y-39248599D01*
X78354623Y-39272659D01*
X77866042Y-39475035D01*
X77767443Y-39741837D01*
X72279351Y-39741837D01*
X72047073Y-39509154D01*
X71446547Y-39259794D01*
X70796306Y-39259226D01*
X70195345Y-39507538D01*
X69735154Y-39966927D01*
X69485794Y-40567453D01*
X69485226Y-41217694D01*
X66606020Y-41217694D01*
X66159273Y-40136485D01*
X65278153Y-39253826D01*
X64212190Y-38811200D01*
X82652514Y-38811200D01*
X82579559Y-38965954D01*
X83820000Y-40206395D01*
X85060441Y-38965954D01*
X84987486Y-38811200D01*
X87732514Y-38811200D01*
X87659559Y-38965954D01*
X88900000Y-40206395D01*
X90140441Y-38965954D01*
X90067486Y-38811200D01*
X94540221Y-38811200D01*
X93476485Y-39250727D01*
X92593826Y-40131847D01*
X92115546Y-41283674D01*
X92114457Y-42530854D01*
X92590727Y-43683515D01*
X93471847Y-44566174D01*
X94623674Y-45044454D01*
X95870854Y-45045543D01*
X97023515Y-44569273D01*
X97906174Y-43688153D01*
X98026919Y-43397365D01*
X99811757Y-43397365D01*
X99933744Y-43619420D01*
X101526340Y-43619420D01*
X101526340Y-42311320D01*
X101780340Y-42311320D01*
X101780340Y-43619420D01*
X103372936Y-43619420D01*
X103494923Y-43397365D01*
X103494147Y-43393704D01*
X104040940Y-43533060D01*
X105791000Y-43533060D01*
X105791000Y-41275000D01*
X106045000Y-41275000D01*
X106045000Y-43533060D01*
X107795060Y-43533060D01*
X108698116Y-43302907D01*
X109444355Y-42744689D01*
X109920169Y-41943390D01*
X110000546Y-41646013D01*
X109890745Y-41275000D01*
X106045000Y-41275000D01*
X105791000Y-41275000D01*
X101945255Y-41275000D01*
X101835454Y-41646013D01*
X101915831Y-41943390D01*
X102134309Y-42311320D01*
X101780340Y-42311320D01*
X101526340Y-42311320D01*
X101076760Y-42311320D01*
X100537238Y-42469161D01*
X100099188Y-42821453D01*
X99829299Y-43314563D01*
X99811757Y-43397365D01*
X98026919Y-43397365D01*
X98384454Y-42536326D01*
X98385543Y-41289146D01*
X97909273Y-40136485D01*
X97028153Y-39253826D01*
X95962190Y-38811200D01*
X103851581Y-38811200D01*
X103137884Y-38993093D01*
X102391645Y-39551311D01*
X101915831Y-40352610D01*
X101835454Y-40649987D01*
X101945255Y-41021000D01*
X105791000Y-41021000D01*
X105791000Y-41001000D01*
X106045000Y-41001000D01*
X106045000Y-41021000D01*
X109890745Y-41021000D01*
X110000546Y-40649987D01*
X109920169Y-40352610D01*
X109444355Y-39551311D01*
X108698116Y-38993093D01*
X107984419Y-38811200D01*
X113588800Y-38811200D01*
X113588800Y-56411415D01*
X113509649Y-56220328D01*
X113233227Y-56110378D01*
X112193605Y-57150000D01*
X113233227Y-58189622D01*
X113509649Y-58079672D01*
X113588800Y-57869255D01*
X113588800Y-58951415D01*
X113509649Y-58760328D01*
X113233227Y-58650378D01*
X112193605Y-59690000D01*
X113233227Y-60729622D01*
X113509649Y-60619672D01*
X113588800Y-60409255D01*
X113588800Y-64058386D01*
X113479103Y-63792898D01*
X112993658Y-63306605D01*
X112822364Y-63235477D01*
X113100786Y-62957540D01*
X113296477Y-62486264D01*
X113296923Y-61975974D01*
X113102055Y-61504358D01*
X112830639Y-61232469D01*
X112943672Y-61185649D01*
X113053622Y-60909227D01*
X112014000Y-59869605D01*
X110974378Y-60909227D01*
X111084328Y-61185649D01*
X111200719Y-61229431D01*
X110927214Y-61502460D01*
X110731523Y-61973736D01*
X110731077Y-62484026D01*
X110925945Y-62955642D01*
X111205180Y-63235364D01*
X111036898Y-63304897D01*
X110550605Y-63790342D01*
X110287100Y-64424931D01*
X110286501Y-65112054D01*
X110548897Y-65747102D01*
X110841369Y-66040085D01*
X110550605Y-66330342D01*
X110287100Y-66964931D01*
X110286501Y-67652054D01*
X110548897Y-68287102D01*
X111034342Y-68773395D01*
X111668931Y-69036900D01*
X112356054Y-69037499D01*
X112991102Y-68775103D01*
X113477395Y-68289658D01*
X113588800Y-68021366D01*
X113588800Y-118668800D01*
X59131200Y-118668800D01*
X59131200Y-114920854D01*
X60364457Y-114920854D01*
X60840727Y-116073515D01*
X61721847Y-116956174D01*
X62873674Y-117434454D01*
X64120854Y-117435543D01*
X65273515Y-116959273D01*
X66156174Y-116078153D01*
X66169668Y-116045655D01*
X73533000Y-116045655D01*
X73533000Y-116110345D01*
X73658675Y-116742155D01*
X74016567Y-117277778D01*
X74552190Y-117635670D01*
X75184000Y-117761345D01*
X75815810Y-117635670D01*
X76155792Y-117408501D01*
X76243910Y-117545441D01*
X76456110Y-117690431D01*
X76708000Y-117741440D01*
X78740000Y-117741440D01*
X78975317Y-117697162D01*
X79191441Y-117558090D01*
X79336431Y-117345890D01*
X79373326Y-117163694D01*
X82185226Y-117163694D01*
X82433538Y-117764655D01*
X82892927Y-118224846D01*
X83493453Y-118474206D01*
X84143694Y-118474774D01*
X84744655Y-118226462D01*
X85204846Y-117767073D01*
X85358612Y-117396762D01*
X89617584Y-117396762D01*
X89838353Y-117767483D01*
X90810012Y-118160859D01*
X91858247Y-118152453D01*
X92787647Y-117767483D01*
X93008416Y-117396762D01*
X91313000Y-115701345D01*
X89617584Y-117396762D01*
X85358612Y-117396762D01*
X85454206Y-117166547D01*
X85454774Y-116516306D01*
X85206462Y-115915345D01*
X84747073Y-115455154D01*
X84146547Y-115205794D01*
X83496306Y-115205226D01*
X82895345Y-115453538D01*
X82435154Y-115912927D01*
X82185794Y-116513453D01*
X82185226Y-117163694D01*
X79373326Y-117163694D01*
X79387440Y-117094000D01*
X79387440Y-115062000D01*
X79379303Y-115018752D01*
X88673881Y-115018752D01*
X88682287Y-116066987D01*
X89067257Y-116996387D01*
X89437978Y-117217156D01*
X91133395Y-115521740D01*
X91492605Y-115521740D01*
X93188022Y-117217156D01*
X93558743Y-116996387D01*
X93720704Y-116596333D01*
X101860854Y-116596333D01*
X101941231Y-116893710D01*
X102417045Y-117695009D01*
X103163284Y-118253227D01*
X104066340Y-118483380D01*
X105816400Y-118483380D01*
X105816400Y-116225320D01*
X106070400Y-116225320D01*
X106070400Y-118483380D01*
X107820460Y-118483380D01*
X108723516Y-118253227D01*
X109469755Y-117695009D01*
X109945569Y-116893710D01*
X110025946Y-116596333D01*
X109916145Y-116225320D01*
X106070400Y-116225320D01*
X105816400Y-116225320D01*
X101970655Y-116225320D01*
X101860854Y-116596333D01*
X93720704Y-116596333D01*
X93952119Y-116024728D01*
X93948716Y-115600307D01*
X101860854Y-115600307D01*
X101970655Y-115971320D01*
X105816400Y-115971320D01*
X105816400Y-113713260D01*
X106070400Y-113713260D01*
X106070400Y-115971320D01*
X109916145Y-115971320D01*
X110025946Y-115600307D01*
X109945569Y-115302930D01*
X109469755Y-114501631D01*
X108723516Y-113943413D01*
X107820460Y-113713260D01*
X106070400Y-113713260D01*
X105816400Y-113713260D01*
X104066340Y-113713260D01*
X103163284Y-113943413D01*
X102417045Y-114501631D01*
X101941231Y-115302930D01*
X101860854Y-115600307D01*
X93948716Y-115600307D01*
X93943713Y-114976493D01*
X93703689Y-114397022D01*
X94316584Y-114397022D01*
X94537353Y-114767743D01*
X95509012Y-115161119D01*
X96557247Y-115152713D01*
X97486647Y-114767743D01*
X97707416Y-114397022D01*
X96012000Y-112701605D01*
X94316584Y-114397022D01*
X93703689Y-114397022D01*
X93558743Y-114047093D01*
X93188022Y-113826324D01*
X91492605Y-115521740D01*
X91133395Y-115521740D01*
X89437978Y-113826324D01*
X89067257Y-114047093D01*
X88673881Y-115018752D01*
X79379303Y-115018752D01*
X79343162Y-114826683D01*
X79204090Y-114610559D01*
X78991890Y-114465569D01*
X78740000Y-114414560D01*
X76708000Y-114414560D01*
X76472683Y-114458838D01*
X76256559Y-114597910D01*
X76154802Y-114746837D01*
X75815810Y-114520330D01*
X75184000Y-114394655D01*
X74552190Y-114520330D01*
X74016567Y-114878222D01*
X73658675Y-115413845D01*
X73533000Y-116045655D01*
X66169668Y-116045655D01*
X66634454Y-114926326D01*
X66635543Y-113679146D01*
X66622145Y-113646718D01*
X89617584Y-113646718D01*
X91313000Y-115342135D01*
X93008416Y-113646718D01*
X92787647Y-113275997D01*
X91815988Y-112882621D01*
X90767753Y-112891027D01*
X89838353Y-113275997D01*
X89617584Y-113646718D01*
X66622145Y-113646718D01*
X66159273Y-112526485D01*
X65617756Y-111984022D01*
X67694844Y-111984022D01*
X67915613Y-112354743D01*
X68887272Y-112748119D01*
X69935507Y-112739713D01*
X70864907Y-112354743D01*
X71085676Y-111984022D01*
X69390260Y-110288605D01*
X67694844Y-111984022D01*
X65617756Y-111984022D01*
X65278153Y-111643826D01*
X64126326Y-111165546D01*
X62879146Y-111164457D01*
X61726485Y-111640727D01*
X60843826Y-112521847D01*
X60365546Y-113673674D01*
X60364457Y-114920854D01*
X59131200Y-114920854D01*
X59131200Y-109606012D01*
X66751141Y-109606012D01*
X66759547Y-110654247D01*
X67144517Y-111583647D01*
X67515238Y-111804416D01*
X69210655Y-110109000D01*
X69569865Y-110109000D01*
X71265282Y-111804416D01*
X71636003Y-111583647D01*
X72029379Y-110611988D01*
X72020973Y-109563753D01*
X71798185Y-109025893D01*
X75630725Y-109025893D01*
X75871519Y-109608657D01*
X76316997Y-110054914D01*
X76899341Y-110296724D01*
X77529893Y-110297275D01*
X78112657Y-110056481D01*
X78217867Y-109951455D01*
X78267673Y-110071698D01*
X78446301Y-110250327D01*
X78679690Y-110347000D01*
X79470250Y-110347000D01*
X79629000Y-110188250D01*
X79629000Y-108839000D01*
X79883000Y-108839000D01*
X79883000Y-110188250D01*
X80041750Y-110347000D01*
X80832310Y-110347000D01*
X81065699Y-110250327D01*
X81244327Y-110071698D01*
X81255760Y-110044094D01*
X88677543Y-110044094D01*
X89077853Y-111012918D01*
X89818443Y-111754802D01*
X90786567Y-112156802D01*
X91834834Y-112157717D01*
X92170525Y-112019012D01*
X93372881Y-112019012D01*
X93381287Y-113067247D01*
X93766257Y-113996647D01*
X94136978Y-114217416D01*
X95832395Y-112522000D01*
X96191605Y-112522000D01*
X97887022Y-114217416D01*
X98257743Y-113996647D01*
X98651119Y-113024988D01*
X98642713Y-111976753D01*
X98257743Y-111047353D01*
X98174869Y-110998000D01*
X99757137Y-110998000D01*
X99866377Y-111547189D01*
X100177468Y-112012769D01*
X100643048Y-112323860D01*
X101192237Y-112433100D01*
X102165243Y-112433100D01*
X102714432Y-112323860D01*
X103180012Y-112012769D01*
X103491103Y-111547189D01*
X103600343Y-110998000D01*
X103491103Y-110448811D01*
X103180012Y-109983231D01*
X102828821Y-109748572D01*
X103232892Y-109423607D01*
X103502781Y-108930497D01*
X103520323Y-108847695D01*
X103398336Y-108625640D01*
X101805740Y-108625640D01*
X101805740Y-108645640D01*
X101551740Y-108645640D01*
X101551740Y-108625640D01*
X99959144Y-108625640D01*
X99837157Y-108847695D01*
X99854699Y-108930497D01*
X100124588Y-109423607D01*
X100528659Y-109748572D01*
X100177468Y-109983231D01*
X99866377Y-110448811D01*
X99757137Y-110998000D01*
X98174869Y-110998000D01*
X97887022Y-110826584D01*
X96191605Y-112522000D01*
X95832395Y-112522000D01*
X94136978Y-110826584D01*
X93766257Y-111047353D01*
X93372881Y-112019012D01*
X92170525Y-112019012D01*
X92803658Y-111757407D01*
X93545542Y-111016817D01*
X93699112Y-110646978D01*
X94316584Y-110646978D01*
X96012000Y-112342395D01*
X97707416Y-110646978D01*
X97486647Y-110276257D01*
X96514988Y-109882881D01*
X95466753Y-109891287D01*
X94537353Y-110276257D01*
X94316584Y-110646978D01*
X93699112Y-110646978D01*
X93947542Y-110048693D01*
X93948457Y-109000426D01*
X93596897Y-108149585D01*
X99837157Y-108149585D01*
X99959144Y-108371640D01*
X101551740Y-108371640D01*
X101551740Y-107063540D01*
X101805740Y-107063540D01*
X101805740Y-108371640D01*
X103398336Y-108371640D01*
X103520323Y-108149585D01*
X103519547Y-108145924D01*
X104066340Y-108285280D01*
X105816400Y-108285280D01*
X105816400Y-106027220D01*
X106070400Y-106027220D01*
X106070400Y-108285280D01*
X107820460Y-108285280D01*
X108723516Y-108055127D01*
X109469755Y-107496909D01*
X109945569Y-106695610D01*
X110025946Y-106398233D01*
X109916145Y-106027220D01*
X106070400Y-106027220D01*
X105816400Y-106027220D01*
X101970655Y-106027220D01*
X101860854Y-106398233D01*
X101941231Y-106695610D01*
X102159709Y-107063540D01*
X101805740Y-107063540D01*
X101551740Y-107063540D01*
X101102160Y-107063540D01*
X100562638Y-107221381D01*
X100124588Y-107573673D01*
X99854699Y-108066783D01*
X99837157Y-108149585D01*
X93596897Y-108149585D01*
X93548147Y-108031602D01*
X92807557Y-107289718D01*
X91839433Y-106887718D01*
X90791166Y-106886803D01*
X89822342Y-107287113D01*
X89080458Y-108027703D01*
X88678458Y-108995827D01*
X88677543Y-110044094D01*
X81255760Y-110044094D01*
X81341000Y-109838309D01*
X81341000Y-108997750D01*
X81182250Y-108839000D01*
X79883000Y-108839000D01*
X79629000Y-108839000D01*
X79609000Y-108839000D01*
X79609000Y-108585000D01*
X79629000Y-108585000D01*
X79629000Y-107235750D01*
X79883000Y-107235750D01*
X79883000Y-108585000D01*
X81182250Y-108585000D01*
X81341000Y-108426250D01*
X81341000Y-107585691D01*
X81244327Y-107352302D01*
X81065699Y-107173673D01*
X80832310Y-107077000D01*
X80041750Y-107077000D01*
X79883000Y-107235750D01*
X79629000Y-107235750D01*
X79470250Y-107077000D01*
X78679690Y-107077000D01*
X78446301Y-107173673D01*
X78267673Y-107352302D01*
X78217988Y-107472251D01*
X78115003Y-107369086D01*
X77532659Y-107127276D01*
X76902107Y-107126725D01*
X76319343Y-107367519D01*
X75873086Y-107812997D01*
X75631276Y-108395341D01*
X75630725Y-109025893D01*
X71798185Y-109025893D01*
X71636003Y-108634353D01*
X71265282Y-108413584D01*
X69569865Y-110109000D01*
X69210655Y-110109000D01*
X67515238Y-108413584D01*
X67144517Y-108634353D01*
X66751141Y-109606012D01*
X59131200Y-109606012D01*
X59131200Y-108233978D01*
X67694844Y-108233978D01*
X69390260Y-109929395D01*
X71085676Y-108233978D01*
X70864907Y-107863257D01*
X69893248Y-107469881D01*
X68845013Y-107478287D01*
X67915613Y-107863257D01*
X67694844Y-108233978D01*
X59131200Y-108233978D01*
X59131200Y-107285022D01*
X64695104Y-107285022D01*
X64915873Y-107655743D01*
X65887532Y-108049119D01*
X66935767Y-108040713D01*
X67865167Y-107655743D01*
X68085936Y-107285022D01*
X66390520Y-105589605D01*
X64695104Y-107285022D01*
X59131200Y-107285022D01*
X59131200Y-104907012D01*
X63751401Y-104907012D01*
X63759807Y-105955247D01*
X64144777Y-106884647D01*
X64515498Y-107105416D01*
X66210915Y-105410000D01*
X66570125Y-105410000D01*
X68265542Y-107105416D01*
X68636263Y-106884647D01*
X69022009Y-105931834D01*
X69754543Y-105931834D01*
X70154853Y-106900658D01*
X70895443Y-107642542D01*
X71863567Y-108044542D01*
X72911834Y-108045457D01*
X73880658Y-107645147D01*
X74622542Y-106904557D01*
X75024542Y-105936433D01*
X75024765Y-105680510D01*
X82173070Y-105680510D01*
X82173070Y-107679490D01*
X82217348Y-107914807D01*
X82356420Y-108130931D01*
X82568620Y-108275921D01*
X82820510Y-108326930D01*
X84819490Y-108326930D01*
X85054807Y-108282652D01*
X85270931Y-108143580D01*
X85415921Y-107931380D01*
X85466930Y-107679490D01*
X85466930Y-105680510D01*
X85422652Y-105445193D01*
X85283580Y-105229069D01*
X85071380Y-105084079D01*
X84819490Y-105033070D01*
X82820510Y-105033070D01*
X82585193Y-105077348D01*
X82369069Y-105216420D01*
X82224079Y-105428620D01*
X82173070Y-105680510D01*
X75024765Y-105680510D01*
X75025457Y-104888166D01*
X74768797Y-104267000D01*
X87923370Y-104267000D01*
X87923370Y-105167430D01*
X88084982Y-105725906D01*
X88448011Y-106180024D01*
X88957190Y-106460649D01*
X89051168Y-106481540D01*
X89281000Y-106360214D01*
X89281000Y-104267000D01*
X87923370Y-104267000D01*
X74768797Y-104267000D01*
X74625147Y-103919342D01*
X73884557Y-103177458D01*
X73728290Y-103112570D01*
X87923370Y-103112570D01*
X87923370Y-104013000D01*
X89281000Y-104013000D01*
X89281000Y-101919786D01*
X89535000Y-101919786D01*
X89535000Y-104013000D01*
X89555000Y-104013000D01*
X89555000Y-104267000D01*
X89535000Y-104267000D01*
X89535000Y-106360214D01*
X89764832Y-106481540D01*
X89858810Y-106460649D01*
X90367989Y-106180024D01*
X90672484Y-105799127D01*
X90898208Y-106136948D01*
X91379857Y-106458775D01*
X91948000Y-106571786D01*
X92516143Y-106458775D01*
X92997792Y-106136948D01*
X93218000Y-105807383D01*
X93438208Y-106136948D01*
X93919857Y-106458775D01*
X94488000Y-106571786D01*
X95056143Y-106458775D01*
X95537792Y-106136948D01*
X95859619Y-105655299D01*
X95909962Y-105402207D01*
X101860854Y-105402207D01*
X101970655Y-105773220D01*
X105816400Y-105773220D01*
X105816400Y-103515160D01*
X106070400Y-103515160D01*
X106070400Y-105773220D01*
X109916145Y-105773220D01*
X110025946Y-105402207D01*
X109945569Y-105104830D01*
X109469755Y-104303531D01*
X108723516Y-103745313D01*
X107820460Y-103515160D01*
X106070400Y-103515160D01*
X105816400Y-103515160D01*
X104066340Y-103515160D01*
X103163284Y-103745313D01*
X102417045Y-104303531D01*
X101941231Y-105104830D01*
X101860854Y-105402207D01*
X95909962Y-105402207D01*
X95972630Y-105087156D01*
X95972630Y-103192844D01*
X95859619Y-102624701D01*
X95537792Y-102143052D01*
X95056143Y-101821225D01*
X94488000Y-101708214D01*
X93919857Y-101821225D01*
X93438208Y-102143052D01*
X93218000Y-102472617D01*
X92997792Y-102143052D01*
X92516143Y-101821225D01*
X91948000Y-101708214D01*
X91379857Y-101821225D01*
X90898208Y-102143052D01*
X90672484Y-102480873D01*
X90367989Y-102099976D01*
X89858810Y-101819351D01*
X89764832Y-101798460D01*
X89535000Y-101919786D01*
X89281000Y-101919786D01*
X89051168Y-101798460D01*
X88957190Y-101819351D01*
X88448011Y-102099976D01*
X88084982Y-102554094D01*
X87923370Y-103112570D01*
X73728290Y-103112570D01*
X72916433Y-102775458D01*
X71868166Y-102774543D01*
X70899342Y-103174853D01*
X70157458Y-103915443D01*
X69755458Y-104883567D01*
X69754543Y-105931834D01*
X69022009Y-105931834D01*
X69029639Y-105912988D01*
X69021233Y-104864753D01*
X68636263Y-103935353D01*
X68265542Y-103714584D01*
X66570125Y-105410000D01*
X66210915Y-105410000D01*
X64515498Y-103714584D01*
X64144777Y-103935353D01*
X63751401Y-104907012D01*
X59131200Y-104907012D01*
X59131200Y-103534978D01*
X64695104Y-103534978D01*
X66390520Y-105230395D01*
X68085936Y-103534978D01*
X67865167Y-103164257D01*
X66893508Y-102770881D01*
X65845273Y-102779287D01*
X64915873Y-103164257D01*
X64695104Y-103534978D01*
X59131200Y-103534978D01*
X59131200Y-100646000D01*
X75948560Y-100646000D01*
X75948560Y-102046000D01*
X75992838Y-102281317D01*
X76131910Y-102497441D01*
X76344110Y-102642431D01*
X76596000Y-102693440D01*
X77996000Y-102693440D01*
X78231317Y-102649162D01*
X78447441Y-102510090D01*
X78592431Y-102297890D01*
X78595795Y-102281275D01*
X81540331Y-102281275D01*
X81602169Y-102517042D01*
X82103122Y-102693419D01*
X82633440Y-102664664D01*
X82989831Y-102517042D01*
X83051669Y-102281275D01*
X82296000Y-101525605D01*
X81540331Y-102281275D01*
X78595795Y-102281275D01*
X78643440Y-102046000D01*
X78643440Y-101153122D01*
X80948581Y-101153122D01*
X80977336Y-101683440D01*
X81124958Y-102039831D01*
X81360725Y-102101669D01*
X82116395Y-101346000D01*
X82475605Y-101346000D01*
X83231275Y-102101669D01*
X83467042Y-102039831D01*
X83643419Y-101538878D01*
X83614664Y-101008560D01*
X83467042Y-100652169D01*
X83231275Y-100590331D01*
X82475605Y-101346000D01*
X82116395Y-101346000D01*
X81360725Y-100590331D01*
X81124958Y-100652169D01*
X80948581Y-101153122D01*
X78643440Y-101153122D01*
X78643440Y-100646000D01*
X78599170Y-100410725D01*
X81540331Y-100410725D01*
X82296000Y-101166395D01*
X83051669Y-100410725D01*
X82989831Y-100174958D01*
X82488878Y-99998581D01*
X81958560Y-100027336D01*
X81602169Y-100174958D01*
X81540331Y-100410725D01*
X78599170Y-100410725D01*
X78599162Y-100410683D01*
X78460090Y-100194559D01*
X78247890Y-100049569D01*
X77996000Y-99998560D01*
X76596000Y-99998560D01*
X76360683Y-100042838D01*
X76144559Y-100181910D01*
X75999569Y-100394110D01*
X75948560Y-100646000D01*
X59131200Y-100646000D01*
X59131200Y-94742000D01*
X60292655Y-94742000D01*
X60418330Y-95373810D01*
X60645499Y-95713792D01*
X60508559Y-95801910D01*
X60363569Y-96014110D01*
X60312560Y-96266000D01*
X60312560Y-98298000D01*
X60356838Y-98533317D01*
X60495910Y-98749441D01*
X60708110Y-98894431D01*
X60960000Y-98945440D01*
X62992000Y-98945440D01*
X63227317Y-98901162D01*
X63443441Y-98762090D01*
X63588431Y-98549890D01*
X63639440Y-98298000D01*
X63639440Y-97264000D01*
X67994560Y-97264000D01*
X67994560Y-98664000D01*
X68038838Y-98899317D01*
X68177910Y-99115441D01*
X68390110Y-99260431D01*
X68642000Y-99311440D01*
X70042000Y-99311440D01*
X70277317Y-99267162D01*
X70493441Y-99128090D01*
X70638431Y-98915890D01*
X70689440Y-98664000D01*
X70689440Y-98367694D01*
X84471226Y-98367694D01*
X84719538Y-98968655D01*
X85178927Y-99428846D01*
X85779453Y-99678206D01*
X86429694Y-99678774D01*
X86672779Y-99578333D01*
X101860854Y-99578333D01*
X101941231Y-99875710D01*
X102417045Y-100677009D01*
X103163284Y-101235227D01*
X104066340Y-101465380D01*
X105816400Y-101465380D01*
X105816400Y-99207320D01*
X106070400Y-99207320D01*
X106070400Y-101465380D01*
X107820460Y-101465380D01*
X108723516Y-101235227D01*
X109469755Y-100677009D01*
X109945569Y-99875710D01*
X110025946Y-99578333D01*
X109916145Y-99207320D01*
X106070400Y-99207320D01*
X105816400Y-99207320D01*
X101970655Y-99207320D01*
X101860854Y-99578333D01*
X86672779Y-99578333D01*
X87030655Y-99430462D01*
X87314612Y-99147000D01*
X89681208Y-99147000D01*
X89817910Y-99359441D01*
X90030110Y-99504431D01*
X90282000Y-99555440D01*
X91582000Y-99555440D01*
X91817317Y-99511162D01*
X92033441Y-99372090D01*
X92178431Y-99159890D01*
X92229440Y-98908000D01*
X92229440Y-97608000D01*
X92185162Y-97372683D01*
X92046090Y-97156559D01*
X91833890Y-97011569D01*
X91582000Y-96960560D01*
X91386540Y-96960560D01*
X91658943Y-96848005D01*
X91970983Y-96536510D01*
X94105990Y-96536510D01*
X94105990Y-98535490D01*
X94150268Y-98770807D01*
X94289340Y-98986931D01*
X94501540Y-99131921D01*
X94753430Y-99182930D01*
X96752410Y-99182930D01*
X96987727Y-99138652D01*
X97203851Y-98999580D01*
X97348841Y-98787380D01*
X97390369Y-98582307D01*
X101860854Y-98582307D01*
X101970655Y-98953320D01*
X105816400Y-98953320D01*
X105816400Y-96695260D01*
X106070400Y-96695260D01*
X106070400Y-98953320D01*
X109916145Y-98953320D01*
X110025946Y-98582307D01*
X109945569Y-98284930D01*
X109469755Y-97483631D01*
X108723516Y-96925413D01*
X107820460Y-96695260D01*
X106070400Y-96695260D01*
X105816400Y-96695260D01*
X104066340Y-96695260D01*
X103163284Y-96925413D01*
X102417045Y-97483631D01*
X101941231Y-98284930D01*
X101860854Y-98582307D01*
X97390369Y-98582307D01*
X97399850Y-98535490D01*
X97399850Y-96536510D01*
X97355572Y-96301193D01*
X97216500Y-96085069D01*
X97004300Y-95940079D01*
X96752410Y-95889070D01*
X94753430Y-95889070D01*
X94518113Y-95933348D01*
X94301989Y-96072420D01*
X94156999Y-96284620D01*
X94105990Y-96536510D01*
X91970983Y-96536510D01*
X92020735Y-96486845D01*
X92216777Y-96014724D01*
X92217025Y-95730211D01*
X93078236Y-94869000D01*
X100093432Y-94869000D01*
X100177468Y-94994769D01*
X100643048Y-95305860D01*
X101192237Y-95415100D01*
X102165243Y-95415100D01*
X102714432Y-95305860D01*
X103180012Y-94994769D01*
X103491103Y-94529189D01*
X103600343Y-93980000D01*
X103491103Y-93430811D01*
X103180012Y-92965231D01*
X102828821Y-92730572D01*
X103232892Y-92405607D01*
X103502781Y-91912497D01*
X103520323Y-91829695D01*
X103398336Y-91607640D01*
X101805740Y-91607640D01*
X101805740Y-91627640D01*
X101551740Y-91627640D01*
X101551740Y-91607640D01*
X99959144Y-91607640D01*
X99837157Y-91829695D01*
X99854699Y-91912497D01*
X100124588Y-92405607D01*
X100528659Y-92730572D01*
X100177468Y-92965231D01*
X100093432Y-93091000D01*
X92710000Y-93091000D01*
X92369794Y-93158671D01*
X92135707Y-93315083D01*
X92081382Y-93351382D01*
X90959741Y-94473023D01*
X90677519Y-94472777D01*
X90205057Y-94667995D01*
X89843265Y-95029155D01*
X89647223Y-95501276D01*
X89646777Y-96012481D01*
X89841995Y-96484943D01*
X90203155Y-96846735D01*
X90477276Y-96960560D01*
X90282000Y-96960560D01*
X90046683Y-97004838D01*
X89830559Y-97143910D01*
X89685569Y-97356110D01*
X89682959Y-97369000D01*
X87595617Y-97369000D01*
X87492462Y-97119345D01*
X87033073Y-96659154D01*
X86432547Y-96409794D01*
X85782306Y-96409226D01*
X85181345Y-96657538D01*
X84721154Y-97116927D01*
X84471794Y-97717453D01*
X84471226Y-98367694D01*
X70689440Y-98367694D01*
X70689440Y-97264000D01*
X70645162Y-97028683D01*
X70506090Y-96812559D01*
X70293890Y-96667569D01*
X70042000Y-96616560D01*
X68642000Y-96616560D01*
X68406683Y-96660838D01*
X68190559Y-96799910D01*
X68045569Y-97012110D01*
X67994560Y-97264000D01*
X63639440Y-97264000D01*
X63639440Y-96335694D01*
X72279226Y-96335694D01*
X72527538Y-96936655D01*
X72986927Y-97396846D01*
X73587453Y-97646206D01*
X74237694Y-97646774D01*
X74838655Y-97398462D01*
X75298846Y-96939073D01*
X75548206Y-96338547D01*
X75548208Y-96335694D01*
X75835226Y-96335694D01*
X76083538Y-96936655D01*
X76542927Y-97396846D01*
X77143453Y-97646206D01*
X77793694Y-97646774D01*
X78394655Y-97398462D01*
X78854846Y-96939073D01*
X79104206Y-96338547D01*
X79104774Y-95688306D01*
X78856462Y-95087345D01*
X78397073Y-94627154D01*
X77796547Y-94377794D01*
X77146306Y-94377226D01*
X76545345Y-94625538D01*
X76085154Y-95084927D01*
X75835794Y-95685453D01*
X75835226Y-96335694D01*
X75548208Y-96335694D01*
X75548774Y-95688306D01*
X75300462Y-95087345D01*
X74841073Y-94627154D01*
X74240547Y-94377794D01*
X73590306Y-94377226D01*
X72989345Y-94625538D01*
X72529154Y-95084927D01*
X72279794Y-95685453D01*
X72279226Y-96335694D01*
X63639440Y-96335694D01*
X63639440Y-96266000D01*
X63595162Y-96030683D01*
X63456090Y-95814559D01*
X63307163Y-95712802D01*
X63533670Y-95373810D01*
X63659345Y-94742000D01*
X63533670Y-94110190D01*
X63175778Y-93574567D01*
X62657678Y-93228383D01*
X68006769Y-93228383D01*
X68209582Y-93719229D01*
X68584796Y-94095098D01*
X69075287Y-94298768D01*
X69606383Y-94299231D01*
X70097229Y-94096418D01*
X70473098Y-93721204D01*
X70676768Y-93230713D01*
X70677231Y-92699617D01*
X70474418Y-92208771D01*
X70099204Y-91832902D01*
X69608713Y-91629232D01*
X69077617Y-91628769D01*
X68586771Y-91831582D01*
X68210902Y-92206796D01*
X68007232Y-92697287D01*
X68006769Y-93228383D01*
X62657678Y-93228383D01*
X62640155Y-93216675D01*
X62008345Y-93091000D01*
X61943655Y-93091000D01*
X61311845Y-93216675D01*
X60776222Y-93574567D01*
X60418330Y-94110190D01*
X60292655Y-94742000D01*
X59131200Y-94742000D01*
X59131200Y-87438000D01*
X59184560Y-87438000D01*
X59184560Y-88838000D01*
X59228838Y-89073317D01*
X59367910Y-89289441D01*
X59580110Y-89434431D01*
X59832000Y-89485440D01*
X61232000Y-89485440D01*
X61467317Y-89441162D01*
X61683441Y-89302090D01*
X61828431Y-89089890D01*
X61831795Y-89073275D01*
X64776331Y-89073275D01*
X64838169Y-89309042D01*
X65339122Y-89485419D01*
X65869440Y-89456664D01*
X66225831Y-89309042D01*
X66287669Y-89073275D01*
X65532000Y-88317605D01*
X64776331Y-89073275D01*
X61831795Y-89073275D01*
X61879440Y-88838000D01*
X61879440Y-87945122D01*
X64184581Y-87945122D01*
X64213336Y-88475440D01*
X64360958Y-88831831D01*
X64596725Y-88893669D01*
X65352395Y-88138000D01*
X65711605Y-88138000D01*
X66467275Y-88893669D01*
X66703042Y-88831831D01*
X66743931Y-88715694D01*
X72279226Y-88715694D01*
X72527538Y-89316655D01*
X72986927Y-89776846D01*
X73587453Y-90026206D01*
X74237694Y-90026774D01*
X74803000Y-89793194D01*
X74803000Y-92090081D01*
X74788138Y-92104917D01*
X74625385Y-92496869D01*
X74625015Y-92921269D01*
X74787084Y-93313504D01*
X75086917Y-93613862D01*
X75478869Y-93776615D01*
X75903269Y-93776985D01*
X76295504Y-93614916D01*
X76595862Y-93315083D01*
X76758615Y-92923131D01*
X76758985Y-92498731D01*
X76596916Y-92106496D01*
X76581000Y-92090552D01*
X76581000Y-89792655D01*
X77143453Y-90026206D01*
X77793694Y-90026774D01*
X78394655Y-89778462D01*
X78854846Y-89319073D01*
X79104206Y-88718547D01*
X79104774Y-88068306D01*
X78856462Y-87467345D01*
X78397073Y-87007154D01*
X77796547Y-86757794D01*
X77146306Y-86757226D01*
X76581000Y-86990806D01*
X76581000Y-84582000D01*
X76513329Y-84241794D01*
X76320618Y-83953382D01*
X76041412Y-83674176D01*
X76056206Y-83638547D01*
X76056774Y-82988306D01*
X75808462Y-82387345D01*
X75674620Y-82253269D01*
X79197015Y-82253269D01*
X79359084Y-82645504D01*
X79375000Y-82661448D01*
X79375000Y-93868081D01*
X79360138Y-93882917D01*
X79197385Y-94274869D01*
X79197015Y-94699269D01*
X79359084Y-95091504D01*
X79658917Y-95391862D01*
X80050869Y-95554615D01*
X80475269Y-95554985D01*
X80687076Y-95467468D01*
X80629285Y-95758000D01*
X80711844Y-96173051D01*
X80946951Y-96524914D01*
X81298814Y-96760021D01*
X81713865Y-96842580D01*
X82370135Y-96842580D01*
X82785186Y-96760021D01*
X83137049Y-96524914D01*
X83372156Y-96173051D01*
X83454715Y-95758000D01*
X83372156Y-95342949D01*
X83225191Y-95123000D01*
X83372156Y-94903051D01*
X83454715Y-94488000D01*
X83372156Y-94072949D01*
X83225191Y-93853000D01*
X83372156Y-93633051D01*
X83454715Y-93218000D01*
X83372156Y-92802949D01*
X83137049Y-92451086D01*
X82785186Y-92215979D01*
X82370135Y-92133420D01*
X81713865Y-92133420D01*
X81298814Y-92215979D01*
X81153000Y-92313409D01*
X81153000Y-90312591D01*
X81298814Y-90410021D01*
X81713865Y-90492580D01*
X82370135Y-90492580D01*
X82785186Y-90410021D01*
X83137049Y-90174914D01*
X83372156Y-89823051D01*
X83439000Y-89487004D01*
X83439000Y-91328081D01*
X83424138Y-91342917D01*
X83261385Y-91734869D01*
X83261015Y-92159269D01*
X83423084Y-92551504D01*
X83722917Y-92851862D01*
X84114869Y-93014615D01*
X84539269Y-93014985D01*
X84931504Y-92852916D01*
X85231862Y-92553083D01*
X85394615Y-92161131D01*
X85394844Y-91898502D01*
X85779453Y-92058206D01*
X86429694Y-92058774D01*
X87030655Y-91810462D01*
X87490846Y-91351073D01*
X87740206Y-90750547D01*
X87740774Y-90100306D01*
X87492462Y-89499345D01*
X87033073Y-89039154D01*
X86432547Y-88789794D01*
X85782306Y-88789226D01*
X85217000Y-89022806D01*
X85217000Y-87741919D01*
X85231862Y-87727083D01*
X85394615Y-87335131D01*
X85394985Y-86910731D01*
X85359673Y-86825269D01*
X85801015Y-86825269D01*
X85963084Y-87217504D01*
X86262917Y-87517862D01*
X86654869Y-87680615D01*
X87079269Y-87680985D01*
X87471504Y-87518916D01*
X87487448Y-87503000D01*
X89296081Y-87503000D01*
X89310917Y-87517862D01*
X89651325Y-87659212D01*
X89634560Y-87742000D01*
X89634560Y-89042000D01*
X89678838Y-89277317D01*
X89817910Y-89493441D01*
X90030110Y-89638431D01*
X90282000Y-89689440D01*
X90477460Y-89689440D01*
X90205057Y-89801995D01*
X89843265Y-90163155D01*
X89647223Y-90635276D01*
X89646777Y-91146481D01*
X89841995Y-91618943D01*
X90203155Y-91980735D01*
X90675276Y-92176777D01*
X91186481Y-92177223D01*
X91658943Y-91982005D01*
X92020735Y-91620845D01*
X92216777Y-91148724D01*
X92216791Y-91131585D01*
X99837157Y-91131585D01*
X99959144Y-91353640D01*
X101551740Y-91353640D01*
X101551740Y-90045540D01*
X101805740Y-90045540D01*
X101805740Y-91353640D01*
X103398336Y-91353640D01*
X103520323Y-91131585D01*
X103519547Y-91127924D01*
X104066340Y-91267280D01*
X105816400Y-91267280D01*
X105816400Y-89009220D01*
X106070400Y-89009220D01*
X106070400Y-91267280D01*
X107820460Y-91267280D01*
X108723516Y-91037127D01*
X109469755Y-90478909D01*
X109945569Y-89677610D01*
X110025946Y-89380233D01*
X109916145Y-89009220D01*
X106070400Y-89009220D01*
X105816400Y-89009220D01*
X101970655Y-89009220D01*
X101860854Y-89380233D01*
X101941231Y-89677610D01*
X102159709Y-90045540D01*
X101805740Y-90045540D01*
X101551740Y-90045540D01*
X101102160Y-90045540D01*
X100562638Y-90203381D01*
X100124588Y-90555673D01*
X99854699Y-91048783D01*
X99837157Y-91131585D01*
X92216791Y-91131585D01*
X92217223Y-90637519D01*
X92022005Y-90165057D01*
X91660845Y-89803265D01*
X91386724Y-89689440D01*
X91582000Y-89689440D01*
X91817317Y-89645162D01*
X92033441Y-89506090D01*
X92178431Y-89293890D01*
X92229440Y-89042000D01*
X92229440Y-87742000D01*
X92221480Y-87699694D01*
X94118146Y-87699694D01*
X94366458Y-88300655D01*
X94825847Y-88760846D01*
X95426373Y-89010206D01*
X96076614Y-89010774D01*
X96677575Y-88762462D01*
X97056490Y-88384207D01*
X101860854Y-88384207D01*
X101970655Y-88755220D01*
X105816400Y-88755220D01*
X105816400Y-86497160D01*
X106070400Y-86497160D01*
X106070400Y-88755220D01*
X109916145Y-88755220D01*
X110025946Y-88384207D01*
X109945569Y-88086830D01*
X109469755Y-87285531D01*
X108723516Y-86727313D01*
X107820460Y-86497160D01*
X106070400Y-86497160D01*
X105816400Y-86497160D01*
X104066340Y-86497160D01*
X103163284Y-86727313D01*
X102417045Y-87285531D01*
X101941231Y-88086830D01*
X101860854Y-88384207D01*
X97056490Y-88384207D01*
X97137766Y-88303073D01*
X97387126Y-87702547D01*
X97387694Y-87052306D01*
X97139382Y-86451345D01*
X96679993Y-85991154D01*
X96079467Y-85741794D01*
X95429226Y-85741226D01*
X94828265Y-85989538D01*
X94368074Y-86448927D01*
X94118714Y-87049453D01*
X94118146Y-87699694D01*
X92221480Y-87699694D01*
X92185162Y-87506683D01*
X92046090Y-87290559D01*
X91833890Y-87145569D01*
X91582000Y-87094560D01*
X90871569Y-87094560D01*
X90982615Y-86827131D01*
X90982985Y-86402731D01*
X90820916Y-86010496D01*
X90521083Y-85710138D01*
X90129131Y-85547385D01*
X89704731Y-85547015D01*
X89312496Y-85709084D01*
X89296552Y-85725000D01*
X87487919Y-85725000D01*
X87473083Y-85710138D01*
X87081131Y-85547385D01*
X86656731Y-85547015D01*
X86264496Y-85709084D01*
X85964138Y-86008917D01*
X85801385Y-86400869D01*
X85801015Y-86825269D01*
X85359673Y-86825269D01*
X85232916Y-86518496D01*
X84933083Y-86218138D01*
X84541131Y-86055385D01*
X84116731Y-86055015D01*
X83724496Y-86217084D01*
X83424138Y-86516917D01*
X83397595Y-86580839D01*
X83372156Y-86452949D01*
X83137049Y-86101086D01*
X82785186Y-85865979D01*
X82370135Y-85783420D01*
X81713865Y-85783420D01*
X81298814Y-85865979D01*
X81153000Y-85963409D01*
X81153000Y-83714107D01*
X110775498Y-83714107D01*
X110876120Y-83982622D01*
X111491642Y-84211816D01*
X112148019Y-84188014D01*
X112643880Y-83982622D01*
X112744502Y-83714107D01*
X111760000Y-82729605D01*
X110775498Y-83714107D01*
X81153000Y-83714107D01*
X81153000Y-82661919D01*
X81167862Y-82647083D01*
X81330615Y-82255131D01*
X81330717Y-82137039D01*
X83602096Y-82137039D01*
X83619633Y-82219819D01*
X83889500Y-82712896D01*
X84327517Y-83065166D01*
X84867000Y-83223000D01*
X85217000Y-83223000D01*
X85217000Y-81915000D01*
X85471000Y-81915000D01*
X85471000Y-83223000D01*
X85821000Y-83223000D01*
X86360483Y-83065166D01*
X86798500Y-82712896D01*
X87068367Y-82219819D01*
X87085904Y-82137039D01*
X86963915Y-81915000D01*
X85471000Y-81915000D01*
X85217000Y-81915000D01*
X83724085Y-81915000D01*
X83602096Y-82137039D01*
X81330717Y-82137039D01*
X81330985Y-81830731D01*
X81168916Y-81438496D01*
X80869083Y-81138138D01*
X80477131Y-80975385D01*
X80052731Y-80975015D01*
X79660496Y-81137084D01*
X79360138Y-81436917D01*
X79197385Y-81828869D01*
X79197015Y-82253269D01*
X75674620Y-82253269D01*
X75349073Y-81927154D01*
X74748547Y-81677794D01*
X74098306Y-81677226D01*
X73497345Y-81925538D01*
X73037154Y-82384927D01*
X72787794Y-82985453D01*
X72787226Y-83635694D01*
X73035538Y-84236655D01*
X73494927Y-84696846D01*
X74095453Y-84946206D01*
X74745694Y-84946774D01*
X74783795Y-84931031D01*
X74803000Y-84950236D01*
X74803000Y-86991345D01*
X74240547Y-86757794D01*
X73590306Y-86757226D01*
X72989345Y-87005538D01*
X72529154Y-87464927D01*
X72279794Y-88065453D01*
X72279226Y-88715694D01*
X66743931Y-88715694D01*
X66879419Y-88330878D01*
X66850664Y-87800560D01*
X66703042Y-87444169D01*
X66467275Y-87382331D01*
X65711605Y-88138000D01*
X65352395Y-88138000D01*
X64596725Y-87382331D01*
X64360958Y-87444169D01*
X64184581Y-87945122D01*
X61879440Y-87945122D01*
X61879440Y-87438000D01*
X61835170Y-87202725D01*
X64776331Y-87202725D01*
X65532000Y-87958395D01*
X66287669Y-87202725D01*
X66225831Y-86966958D01*
X65724878Y-86790581D01*
X65194560Y-86819336D01*
X64838169Y-86966958D01*
X64776331Y-87202725D01*
X61835170Y-87202725D01*
X61835162Y-87202683D01*
X61696090Y-86986559D01*
X61483890Y-86841569D01*
X61232000Y-86790560D01*
X59832000Y-86790560D01*
X59596683Y-86834838D01*
X59380559Y-86973910D01*
X59235569Y-87186110D01*
X59184560Y-87438000D01*
X59131200Y-87438000D01*
X59131200Y-83739275D01*
X62490331Y-83739275D01*
X62552169Y-83975042D01*
X63053122Y-84151419D01*
X63583440Y-84122664D01*
X63939831Y-83975042D01*
X64001669Y-83739275D01*
X63246000Y-82983605D01*
X62490331Y-83739275D01*
X59131200Y-83739275D01*
X59131200Y-82611122D01*
X61898581Y-82611122D01*
X61927336Y-83141440D01*
X62074958Y-83497831D01*
X62310725Y-83559669D01*
X63066395Y-82804000D01*
X63425605Y-82804000D01*
X64181275Y-83559669D01*
X64417042Y-83497831D01*
X64457931Y-83381694D01*
X67961226Y-83381694D01*
X68209538Y-83982655D01*
X68668927Y-84442846D01*
X69269453Y-84692206D01*
X69919694Y-84692774D01*
X70520655Y-84444462D01*
X70980846Y-83985073D01*
X71230206Y-83384547D01*
X71230774Y-82734306D01*
X70982462Y-82133345D01*
X70523073Y-81673154D01*
X69922547Y-81423794D01*
X69272306Y-81423226D01*
X68671345Y-81671538D01*
X68211154Y-82130927D01*
X67961794Y-82731453D01*
X67961226Y-83381694D01*
X64457931Y-83381694D01*
X64593419Y-82996878D01*
X64564664Y-82466560D01*
X64417042Y-82110169D01*
X64181275Y-82048331D01*
X63425605Y-82804000D01*
X63066395Y-82804000D01*
X62310725Y-82048331D01*
X62074958Y-82110169D01*
X61898581Y-82611122D01*
X59131200Y-82611122D01*
X59131200Y-81868725D01*
X62490331Y-81868725D01*
X63246000Y-82624395D01*
X64001669Y-81868725D01*
X63939831Y-81632958D01*
X63438878Y-81456581D01*
X62908560Y-81485336D01*
X62552169Y-81632958D01*
X62490331Y-81868725D01*
X59131200Y-81868725D01*
X59131200Y-77104000D01*
X61898560Y-77104000D01*
X61898560Y-78504000D01*
X61942838Y-78739317D01*
X62081910Y-78955441D01*
X62294110Y-79100431D01*
X62546000Y-79151440D01*
X63946000Y-79151440D01*
X64181317Y-79107162D01*
X64397441Y-78968090D01*
X64542431Y-78755890D01*
X64593440Y-78504000D01*
X64593440Y-77104000D01*
X64549162Y-76868683D01*
X64410090Y-76652559D01*
X64197890Y-76507569D01*
X63946000Y-76456560D01*
X62546000Y-76456560D01*
X62310683Y-76500838D01*
X62094559Y-76639910D01*
X61949569Y-76852110D01*
X61898560Y-77104000D01*
X59131200Y-77104000D01*
X59131200Y-72502000D01*
X60424560Y-72502000D01*
X60424560Y-73802000D01*
X60468838Y-74037317D01*
X60607910Y-74253441D01*
X60820110Y-74398431D01*
X61072000Y-74449440D01*
X62372000Y-74449440D01*
X62607317Y-74405162D01*
X62823441Y-74266090D01*
X62968431Y-74053890D01*
X62969012Y-74051016D01*
X63502590Y-74051016D01*
X63558271Y-74281611D01*
X64041078Y-74449622D01*
X64551428Y-74420083D01*
X64885729Y-74281611D01*
X64941410Y-74051016D01*
X64222000Y-73331605D01*
X63502590Y-74051016D01*
X62969012Y-74051016D01*
X63019440Y-73802000D01*
X63019440Y-73639615D01*
X63092389Y-73815729D01*
X63322984Y-73871410D01*
X64042395Y-73152000D01*
X64401605Y-73152000D01*
X65121016Y-73871410D01*
X65351611Y-73815729D01*
X65519622Y-73332922D01*
X65490083Y-72822572D01*
X65351611Y-72488271D01*
X65121016Y-72432590D01*
X64401605Y-73152000D01*
X64042395Y-73152000D01*
X63322984Y-72432590D01*
X63092389Y-72488271D01*
X63019440Y-72697902D01*
X63019440Y-72502000D01*
X62975162Y-72266683D01*
X62966347Y-72252984D01*
X63502590Y-72252984D01*
X64222000Y-72972395D01*
X64941410Y-72252984D01*
X64885729Y-72022389D01*
X64402922Y-71854378D01*
X63892572Y-71883917D01*
X63558271Y-72022389D01*
X63502590Y-72252984D01*
X62966347Y-72252984D01*
X62836090Y-72050559D01*
X62623890Y-71905569D01*
X62372000Y-71854560D01*
X61072000Y-71854560D01*
X60836683Y-71898838D01*
X60620559Y-72037910D01*
X60475569Y-72250110D01*
X60424560Y-72502000D01*
X59131200Y-72502000D01*
X59131200Y-66356000D01*
X61390560Y-66356000D01*
X61390560Y-67756000D01*
X61434838Y-67991317D01*
X61573910Y-68207441D01*
X61786110Y-68352431D01*
X61869968Y-68369413D01*
X61916671Y-68604206D01*
X62030861Y-68775103D01*
X62109382Y-68892618D01*
X63441382Y-70224618D01*
X63729794Y-70417329D01*
X64070000Y-70485000D01*
X66182081Y-70485000D01*
X66196917Y-70499862D01*
X66588869Y-70662615D01*
X67013269Y-70662985D01*
X67405504Y-70500916D01*
X67691000Y-70215919D01*
X67691000Y-74422000D01*
X67758671Y-74762206D01*
X67879180Y-74942560D01*
X67951382Y-75050618D01*
X67976588Y-75075824D01*
X67961794Y-75111453D01*
X67961226Y-75761694D01*
X68209538Y-76362655D01*
X68668927Y-76822846D01*
X69269453Y-77072206D01*
X69919694Y-77072774D01*
X70520655Y-76824462D01*
X70980846Y-76365073D01*
X71125920Y-76015694D01*
X72787226Y-76015694D01*
X73035538Y-76616655D01*
X73494927Y-77076846D01*
X74095453Y-77326206D01*
X74745694Y-77326774D01*
X75346655Y-77078462D01*
X75806846Y-76619073D01*
X76056206Y-76018547D01*
X76056580Y-75590000D01*
X78966560Y-75590000D01*
X78966560Y-76890000D01*
X79010838Y-77125317D01*
X79149910Y-77341441D01*
X79362110Y-77486431D01*
X79614000Y-77537440D01*
X79809460Y-77537440D01*
X79537057Y-77649995D01*
X79175265Y-78011155D01*
X78979223Y-78483276D01*
X78978777Y-78994481D01*
X79173995Y-79466943D01*
X79535155Y-79828735D01*
X80007276Y-80024777D01*
X80518481Y-80025223D01*
X80990943Y-79830005D01*
X81352735Y-79468845D01*
X81548777Y-78996724D01*
X81549223Y-78485519D01*
X81354005Y-78013057D01*
X80992845Y-77651265D01*
X80718724Y-77537440D01*
X80914000Y-77537440D01*
X81149317Y-77493162D01*
X81365441Y-77354090D01*
X81510431Y-77141890D01*
X81561440Y-76890000D01*
X81561440Y-75590000D01*
X81517162Y-75354683D01*
X81378090Y-75138559D01*
X81165890Y-74993569D01*
X80914000Y-74942560D01*
X79614000Y-74942560D01*
X79378683Y-74986838D01*
X79162559Y-75125910D01*
X79017569Y-75338110D01*
X78966560Y-75590000D01*
X76056580Y-75590000D01*
X76056774Y-75368306D01*
X75808462Y-74767345D01*
X75349073Y-74307154D01*
X75013953Y-74168000D01*
X83524030Y-74168000D01*
X83633263Y-74717151D01*
X83944332Y-75182698D01*
X84326418Y-75438000D01*
X83944332Y-75693302D01*
X83633263Y-76158849D01*
X83524030Y-76708000D01*
X83633263Y-77257151D01*
X83944332Y-77722698D01*
X84326418Y-77978000D01*
X83944332Y-78233302D01*
X83633263Y-78698849D01*
X83524030Y-79248000D01*
X83633263Y-79797151D01*
X83944332Y-80262698D01*
X84322151Y-80515149D01*
X83889500Y-80863104D01*
X83619633Y-81356181D01*
X83602096Y-81438961D01*
X83724085Y-81661000D01*
X85217000Y-81661000D01*
X85217000Y-81641000D01*
X85471000Y-81641000D01*
X85471000Y-81661000D01*
X86963915Y-81661000D01*
X87085904Y-81438961D01*
X87068367Y-81356181D01*
X86798500Y-80863104D01*
X86365849Y-80515149D01*
X86743668Y-80262698D01*
X87054737Y-79797151D01*
X87163970Y-79248000D01*
X87054737Y-78698849D01*
X86743668Y-78233302D01*
X86361582Y-77978000D01*
X86743668Y-77722698D01*
X87054737Y-77257151D01*
X87163970Y-76708000D01*
X87054737Y-76158849D01*
X86743668Y-75693302D01*
X86361582Y-75438000D01*
X86743668Y-75182698D01*
X86827657Y-75057000D01*
X91480343Y-75057000D01*
X91564332Y-75182698D01*
X91946418Y-75438000D01*
X91564332Y-75693302D01*
X91253263Y-76158849D01*
X91144030Y-76708000D01*
X91253263Y-77257151D01*
X91564332Y-77722698D01*
X91946418Y-77978000D01*
X91564332Y-78233302D01*
X91253263Y-78698849D01*
X91144030Y-79248000D01*
X91253263Y-79797151D01*
X91564332Y-80262698D01*
X91946418Y-80518000D01*
X91564332Y-80773302D01*
X91253263Y-81238849D01*
X91144030Y-81788000D01*
X91253263Y-82337151D01*
X91564332Y-82802698D01*
X92029879Y-83113767D01*
X92579030Y-83223000D01*
X93348970Y-83223000D01*
X93898121Y-83113767D01*
X94363668Y-82802698D01*
X94586454Y-82469275D01*
X102368331Y-82469275D01*
X102430169Y-82705042D01*
X102931122Y-82881419D01*
X103461440Y-82852664D01*
X103817831Y-82705042D01*
X103879669Y-82469275D01*
X103124000Y-81713605D01*
X102368331Y-82469275D01*
X94586454Y-82469275D01*
X94674737Y-82337151D01*
X94783970Y-81788000D01*
X94674737Y-81238849D01*
X94363668Y-80773302D01*
X94085887Y-80587694D01*
X95901226Y-80587694D01*
X96149538Y-81188655D01*
X96608927Y-81648846D01*
X97209453Y-81898206D01*
X97859694Y-81898774D01*
X98460655Y-81650462D01*
X98770535Y-81341122D01*
X101776581Y-81341122D01*
X101805336Y-81871440D01*
X101952958Y-82227831D01*
X102188725Y-82289669D01*
X102944395Y-81534000D01*
X103303605Y-81534000D01*
X104059275Y-82289669D01*
X104089879Y-82281642D01*
X110098184Y-82281642D01*
X110121986Y-82938019D01*
X110327378Y-83433880D01*
X110595893Y-83534502D01*
X111580395Y-82550000D01*
X111939605Y-82550000D01*
X112924107Y-83534502D01*
X113192622Y-83433880D01*
X113421816Y-82818358D01*
X113398014Y-82161981D01*
X113192622Y-81666120D01*
X112924107Y-81565498D01*
X111939605Y-82550000D01*
X111580395Y-82550000D01*
X110595893Y-81565498D01*
X110327378Y-81666120D01*
X110098184Y-82281642D01*
X104089879Y-82281642D01*
X104295042Y-82227831D01*
X104471419Y-81726878D01*
X104452931Y-81385893D01*
X110775498Y-81385893D01*
X111760000Y-82370395D01*
X112744502Y-81385893D01*
X112643880Y-81117378D01*
X112028358Y-80888184D01*
X111371981Y-80911986D01*
X110876120Y-81117378D01*
X110775498Y-81385893D01*
X104452931Y-81385893D01*
X104442664Y-81196560D01*
X104295042Y-80840169D01*
X104059275Y-80778331D01*
X103303605Y-81534000D01*
X102944395Y-81534000D01*
X102188725Y-80778331D01*
X101952958Y-80840169D01*
X101776581Y-81341122D01*
X98770535Y-81341122D01*
X98920846Y-81191073D01*
X99166810Y-80598725D01*
X102368331Y-80598725D01*
X103124000Y-81354395D01*
X103879669Y-80598725D01*
X103817831Y-80362958D01*
X103316878Y-80186581D01*
X102786560Y-80215336D01*
X102430169Y-80362958D01*
X102368331Y-80598725D01*
X99166810Y-80598725D01*
X99170206Y-80590547D01*
X99170774Y-79940306D01*
X98922462Y-79339345D01*
X98463073Y-78879154D01*
X97862547Y-78629794D01*
X97212306Y-78629226D01*
X96611345Y-78877538D01*
X96151154Y-79336927D01*
X95901794Y-79937453D01*
X95901226Y-80587694D01*
X94085887Y-80587694D01*
X93981582Y-80518000D01*
X94363668Y-80262698D01*
X94674737Y-79797151D01*
X94783970Y-79248000D01*
X94674737Y-78698849D01*
X94363668Y-78233302D01*
X93981582Y-77978000D01*
X94363668Y-77722698D01*
X94674737Y-77257151D01*
X94783970Y-76708000D01*
X94674737Y-76158849D01*
X94457680Y-75834000D01*
X101776560Y-75834000D01*
X101776560Y-77234000D01*
X101820838Y-77469317D01*
X101959910Y-77685441D01*
X102172110Y-77830431D01*
X102424000Y-77881440D01*
X103824000Y-77881440D01*
X104059317Y-77837162D01*
X104275441Y-77698090D01*
X104420431Y-77485890D01*
X104471440Y-77234000D01*
X104471440Y-75834000D01*
X104427162Y-75598683D01*
X104288090Y-75382559D01*
X104075890Y-75237569D01*
X103824000Y-75186560D01*
X102424000Y-75186560D01*
X102188683Y-75230838D01*
X101972559Y-75369910D01*
X101827569Y-75582110D01*
X101776560Y-75834000D01*
X94457680Y-75834000D01*
X94363668Y-75693302D01*
X93981582Y-75438000D01*
X94363668Y-75182698D01*
X94674737Y-74717151D01*
X94783970Y-74168000D01*
X94674737Y-73618849D01*
X94363668Y-73153302D01*
X94085887Y-72967694D01*
X95901226Y-72967694D01*
X96149538Y-73568655D01*
X96608927Y-74028846D01*
X97209453Y-74278206D01*
X97859694Y-74278774D01*
X98460655Y-74030462D01*
X98920846Y-73571073D01*
X99170206Y-72970547D01*
X99170712Y-72390481D01*
X100354777Y-72390481D01*
X100549995Y-72862943D01*
X100911155Y-73224735D01*
X101383276Y-73420777D01*
X101894481Y-73421223D01*
X102366943Y-73226005D01*
X102728735Y-72864845D01*
X102842560Y-72590724D01*
X102842560Y-72786000D01*
X102886838Y-73021317D01*
X103025910Y-73237441D01*
X103238110Y-73382431D01*
X103490000Y-73433440D01*
X104790000Y-73433440D01*
X105025317Y-73389162D01*
X105241441Y-73250090D01*
X105386431Y-73037890D01*
X105437440Y-72786000D01*
X105437440Y-71486000D01*
X105393162Y-71250683D01*
X105254090Y-71034559D01*
X105041890Y-70889569D01*
X104790000Y-70838560D01*
X103490000Y-70838560D01*
X103254683Y-70882838D01*
X103038559Y-71021910D01*
X102893569Y-71234110D01*
X102842560Y-71486000D01*
X102842560Y-71681460D01*
X102730005Y-71409057D01*
X102368845Y-71047265D01*
X101896724Y-70851223D01*
X101385519Y-70850777D01*
X100913057Y-71045995D01*
X100551265Y-71407155D01*
X100355223Y-71879276D01*
X100354777Y-72390481D01*
X99170712Y-72390481D01*
X99170774Y-72320306D01*
X98922462Y-71719345D01*
X98463073Y-71259154D01*
X97862547Y-71009794D01*
X97212306Y-71009226D01*
X96611345Y-71257538D01*
X96151154Y-71716927D01*
X95901794Y-72317453D01*
X95901226Y-72967694D01*
X94085887Y-72967694D01*
X93898121Y-72842233D01*
X93348970Y-72733000D01*
X92579030Y-72733000D01*
X92029879Y-72842233D01*
X91564332Y-73153302D01*
X91480343Y-73279000D01*
X86827657Y-73279000D01*
X86743668Y-73153302D01*
X86278121Y-72842233D01*
X85728970Y-72733000D01*
X84959030Y-72733000D01*
X84409879Y-72842233D01*
X83944332Y-73153302D01*
X83633263Y-73618849D01*
X83524030Y-74168000D01*
X75013953Y-74168000D01*
X74748547Y-74057794D01*
X74098306Y-74057226D01*
X73497345Y-74305538D01*
X73037154Y-74764927D01*
X72787794Y-75365453D01*
X72787226Y-76015694D01*
X71125920Y-76015694D01*
X71230206Y-75764547D01*
X71230774Y-75114306D01*
X70982462Y-74513345D01*
X70523073Y-74053154D01*
X69922547Y-73803794D01*
X69469000Y-73803398D01*
X69469000Y-68964554D01*
X69720332Y-69340698D01*
X70185879Y-69651767D01*
X70735030Y-69761000D01*
X71504970Y-69761000D01*
X72054121Y-69651767D01*
X72519668Y-69340698D01*
X72830737Y-68875151D01*
X72939970Y-68326000D01*
X72830737Y-67776849D01*
X72519668Y-67311302D01*
X72137582Y-67056000D01*
X72519668Y-66800698D01*
X72830737Y-66335151D01*
X72939970Y-65786000D01*
X72830737Y-65236849D01*
X72519668Y-64771302D01*
X72137582Y-64516000D01*
X72519668Y-64260698D01*
X72830737Y-63795151D01*
X72939970Y-63246000D01*
X72830737Y-62696849D01*
X72519668Y-62231302D01*
X72137582Y-61976000D01*
X72519668Y-61720698D01*
X72830737Y-61255151D01*
X72939970Y-60706000D01*
X76920030Y-60706000D01*
X77029263Y-61255151D01*
X77340332Y-61720698D01*
X77722418Y-61976000D01*
X77340332Y-62231302D01*
X77029263Y-62696849D01*
X76920030Y-63246000D01*
X77029263Y-63795151D01*
X77340332Y-64260698D01*
X77722418Y-64516000D01*
X77340332Y-64771302D01*
X77029263Y-65236849D01*
X76920030Y-65786000D01*
X77029263Y-66335151D01*
X77340332Y-66800698D01*
X77722418Y-67056000D01*
X77340332Y-67311302D01*
X77029263Y-67776849D01*
X76920030Y-68326000D01*
X77029263Y-68875151D01*
X77340332Y-69340698D01*
X77805879Y-69651767D01*
X78355030Y-69761000D01*
X79124970Y-69761000D01*
X79674121Y-69651767D01*
X80139668Y-69340698D01*
X80450737Y-68875151D01*
X80559970Y-68326000D01*
X80523310Y-68141694D01*
X83455226Y-68141694D01*
X83703538Y-68742655D01*
X84162927Y-69202846D01*
X84763453Y-69452206D01*
X85413694Y-69452774D01*
X86014655Y-69204462D01*
X86474846Y-68745073D01*
X86724206Y-68144547D01*
X86724774Y-67494306D01*
X86476462Y-66893345D01*
X86017073Y-66433154D01*
X85416547Y-66183794D01*
X84766306Y-66183226D01*
X84165345Y-66431538D01*
X83705154Y-66890927D01*
X83455794Y-67491453D01*
X83455226Y-68141694D01*
X80523310Y-68141694D01*
X80450737Y-67776849D01*
X80139668Y-67311302D01*
X79757582Y-67056000D01*
X80139668Y-66800698D01*
X80450737Y-66335151D01*
X80559970Y-65786000D01*
X80450737Y-65236849D01*
X80139668Y-64771302D01*
X79757582Y-64516000D01*
X80139668Y-64260698D01*
X80386681Y-63891016D01*
X89704590Y-63891016D01*
X89760271Y-64121611D01*
X90243078Y-64289622D01*
X90753428Y-64260083D01*
X91087729Y-64121611D01*
X91143410Y-63891016D01*
X90424000Y-63171605D01*
X89704590Y-63891016D01*
X80386681Y-63891016D01*
X80450737Y-63795151D01*
X80559970Y-63246000D01*
X80473459Y-62811078D01*
X89126378Y-62811078D01*
X89155917Y-63321428D01*
X89294389Y-63655729D01*
X89524984Y-63711410D01*
X90244395Y-62992000D01*
X90603605Y-62992000D01*
X91323016Y-63711410D01*
X91553611Y-63655729D01*
X91626560Y-63446098D01*
X91626560Y-63642000D01*
X91670838Y-63877317D01*
X91809910Y-64093441D01*
X92022110Y-64238431D01*
X92035000Y-64241041D01*
X92035000Y-64404000D01*
X92102671Y-64744206D01*
X92295382Y-65032618D01*
X94107000Y-66844236D01*
X94107000Y-66918849D01*
X94096462Y-66893345D01*
X93637073Y-66433154D01*
X93036547Y-66183794D01*
X92386306Y-66183226D01*
X91785345Y-66431538D01*
X91325154Y-66890927D01*
X91075794Y-67491453D01*
X91075226Y-68141694D01*
X91323538Y-68742655D01*
X91782927Y-69202846D01*
X92383453Y-69452206D01*
X93033694Y-69452774D01*
X93634655Y-69204462D01*
X94094846Y-68745073D01*
X94210684Y-68466103D01*
X94361012Y-68691084D01*
X94367382Y-68700618D01*
X95891382Y-70224618D01*
X96179794Y-70417329D01*
X96520000Y-70485000D01*
X105803764Y-70485000D01*
X106807000Y-71488236D01*
X106807000Y-75692000D01*
X106874671Y-76032206D01*
X107026430Y-76259329D01*
X107067382Y-76320618D01*
X108845382Y-78098618D01*
X109133794Y-78291329D01*
X109474000Y-78359000D01*
X110340942Y-78359000D01*
X110359534Y-78403995D01*
X110823563Y-78868834D01*
X111430155Y-79120713D01*
X112086963Y-79121286D01*
X112693995Y-78870466D01*
X113158834Y-78406437D01*
X113410713Y-77799845D01*
X113411286Y-77143037D01*
X113160466Y-76536005D01*
X112696437Y-76071166D01*
X112089845Y-75819287D01*
X111433037Y-75818714D01*
X110826005Y-76069534D01*
X110361166Y-76533563D01*
X110341468Y-76581000D01*
X109842236Y-76581000D01*
X108585000Y-75323764D01*
X108585000Y-72716963D01*
X110108714Y-72716963D01*
X110359534Y-73323995D01*
X110823563Y-73788834D01*
X111430155Y-74040713D01*
X112086963Y-74041286D01*
X112693995Y-73790466D01*
X113158834Y-73326437D01*
X113410713Y-72719845D01*
X113411286Y-72063037D01*
X113160466Y-71456005D01*
X112696437Y-70991166D01*
X112089845Y-70739287D01*
X111433037Y-70738714D01*
X110826005Y-70989534D01*
X110361166Y-71453563D01*
X110109287Y-72060155D01*
X110108714Y-72716963D01*
X108585000Y-72716963D01*
X108585000Y-71120000D01*
X108517329Y-70779794D01*
X108324618Y-70491382D01*
X106800618Y-68967382D01*
X106688726Y-68892618D01*
X106512206Y-68774671D01*
X106172000Y-68707000D01*
X96888236Y-68707000D01*
X95885000Y-67703764D01*
X95885000Y-66476000D01*
X95817330Y-66135795D01*
X95658440Y-65898000D01*
X96746560Y-65898000D01*
X96746560Y-67198000D01*
X96790838Y-67433317D01*
X96929910Y-67649441D01*
X97142110Y-67794431D01*
X97394000Y-67845440D01*
X98694000Y-67845440D01*
X98929317Y-67801162D01*
X99145441Y-67662090D01*
X99290431Y-67449890D01*
X99291012Y-67447016D01*
X99824590Y-67447016D01*
X99880271Y-67677611D01*
X100363078Y-67845622D01*
X100873428Y-67816083D01*
X101207729Y-67677611D01*
X101235155Y-67564026D01*
X103111077Y-67564026D01*
X103305945Y-68035642D01*
X103666460Y-68396786D01*
X104137736Y-68592477D01*
X104648026Y-68592923D01*
X105119642Y-68398055D01*
X105480786Y-68037540D01*
X105664209Y-67595808D01*
X105845945Y-68035642D01*
X106206460Y-68396786D01*
X106677736Y-68592477D01*
X107188026Y-68592923D01*
X107659642Y-68398055D01*
X108020786Y-68037540D01*
X108216477Y-67566264D01*
X108216923Y-67055974D01*
X108022055Y-66584358D01*
X107661540Y-66223214D01*
X107190264Y-66027523D01*
X106679974Y-66027077D01*
X106208358Y-66221945D01*
X105847214Y-66582460D01*
X105663791Y-67024192D01*
X105482055Y-66584358D01*
X105121540Y-66223214D01*
X104650264Y-66027523D01*
X104139974Y-66027077D01*
X103668358Y-66221945D01*
X103307214Y-66582460D01*
X103111523Y-67053736D01*
X103111077Y-67564026D01*
X101235155Y-67564026D01*
X101263410Y-67447016D01*
X100544000Y-66727605D01*
X99824590Y-67447016D01*
X99291012Y-67447016D01*
X99341440Y-67198000D01*
X99341440Y-67035615D01*
X99414389Y-67211729D01*
X99644984Y-67267410D01*
X100364395Y-66548000D01*
X100723605Y-66548000D01*
X101443016Y-67267410D01*
X101673611Y-67211729D01*
X101841622Y-66728922D01*
X101812083Y-66218572D01*
X101673611Y-65884271D01*
X101443016Y-65828590D01*
X100723605Y-66548000D01*
X100364395Y-66548000D01*
X99644984Y-65828590D01*
X99414389Y-65884271D01*
X99341440Y-66093902D01*
X99341440Y-65898000D01*
X99297162Y-65662683D01*
X99288347Y-65648984D01*
X99824590Y-65648984D01*
X100544000Y-66368395D01*
X101263410Y-65648984D01*
X101207729Y-65418389D01*
X100724922Y-65250378D01*
X100214572Y-65279917D01*
X99880271Y-65418389D01*
X99824590Y-65648984D01*
X99288347Y-65648984D01*
X99158090Y-65446559D01*
X98945890Y-65301569D01*
X98694000Y-65250560D01*
X97394000Y-65250560D01*
X97158683Y-65294838D01*
X96942559Y-65433910D01*
X96797569Y-65646110D01*
X96746560Y-65898000D01*
X95658440Y-65898000D01*
X95624618Y-65847382D01*
X93938969Y-64161733D01*
X94025441Y-64106090D01*
X94170431Y-63893890D01*
X94221440Y-63642000D01*
X94221440Y-62342000D01*
X94177162Y-62106683D01*
X94038090Y-61890559D01*
X93825890Y-61745569D01*
X93620617Y-61704000D01*
X98220560Y-61704000D01*
X98220560Y-63104000D01*
X98264838Y-63339317D01*
X98403910Y-63555441D01*
X98616110Y-63700431D01*
X98868000Y-63751440D01*
X100268000Y-63751440D01*
X100503317Y-63707162D01*
X100719441Y-63568090D01*
X100800656Y-63449227D01*
X105894378Y-63449227D01*
X106004328Y-63725649D01*
X106647455Y-63967569D01*
X107334206Y-63944961D01*
X107863672Y-63725649D01*
X107973622Y-63449227D01*
X106934000Y-62409605D01*
X105894378Y-63449227D01*
X100800656Y-63449227D01*
X100864431Y-63355890D01*
X100915440Y-63104000D01*
X100915440Y-61943455D01*
X105196431Y-61943455D01*
X105219039Y-62630206D01*
X105438351Y-63159672D01*
X105714773Y-63269622D01*
X106754395Y-62230000D01*
X107113605Y-62230000D01*
X108153227Y-63269622D01*
X108429649Y-63159672D01*
X108671569Y-62516545D01*
X108648961Y-61829794D01*
X108429649Y-61300328D01*
X108153227Y-61190378D01*
X107113605Y-62230000D01*
X106754395Y-62230000D01*
X105714773Y-61190378D01*
X105438351Y-61300328D01*
X105196431Y-61943455D01*
X100915440Y-61943455D01*
X100915440Y-61704000D01*
X100871162Y-61468683D01*
X100732090Y-61252559D01*
X100519890Y-61107569D01*
X100268000Y-61056560D01*
X98868000Y-61056560D01*
X98632683Y-61100838D01*
X98416559Y-61239910D01*
X98271569Y-61452110D01*
X98220560Y-61704000D01*
X93620617Y-61704000D01*
X93574000Y-61694560D01*
X92274000Y-61694560D01*
X92038683Y-61738838D01*
X91822559Y-61877910D01*
X91677569Y-62090110D01*
X91626560Y-62342000D01*
X91626560Y-62504385D01*
X91553611Y-62328271D01*
X91323016Y-62272590D01*
X90603605Y-62992000D01*
X90244395Y-62992000D01*
X89524984Y-62272590D01*
X89294389Y-62328271D01*
X89126378Y-62811078D01*
X80473459Y-62811078D01*
X80450737Y-62696849D01*
X80139668Y-62231302D01*
X79932661Y-62092984D01*
X89704590Y-62092984D01*
X90424000Y-62812395D01*
X91143410Y-62092984D01*
X91087729Y-61862389D01*
X90604922Y-61694378D01*
X90094572Y-61723917D01*
X89760271Y-61862389D01*
X89704590Y-62092984D01*
X79932661Y-62092984D01*
X79757582Y-61976000D01*
X80139668Y-61720698D01*
X80450737Y-61255151D01*
X80499346Y-61010773D01*
X105894378Y-61010773D01*
X106934000Y-62050395D01*
X107973622Y-61010773D01*
X107863672Y-60734351D01*
X107220545Y-60492431D01*
X106533794Y-60515039D01*
X106004328Y-60734351D01*
X105894378Y-61010773D01*
X80499346Y-61010773D01*
X80559970Y-60706000D01*
X80450737Y-60156849D01*
X80139668Y-59691302D01*
X79674121Y-59380233D01*
X79124970Y-59271000D01*
X78355030Y-59271000D01*
X77805879Y-59380233D01*
X77340332Y-59691302D01*
X77029263Y-60156849D01*
X76920030Y-60706000D01*
X72939970Y-60706000D01*
X72830737Y-60156849D01*
X72519668Y-59691302D01*
X72054121Y-59380233D01*
X71504970Y-59271000D01*
X70735030Y-59271000D01*
X70185879Y-59380233D01*
X69720332Y-59691302D01*
X69409263Y-60156849D01*
X69300030Y-60706000D01*
X69409263Y-61255151D01*
X69720332Y-61720698D01*
X70102418Y-61976000D01*
X69720332Y-62231302D01*
X69409263Y-62696849D01*
X69300030Y-63246000D01*
X69409263Y-63795151D01*
X69720332Y-64260698D01*
X70102418Y-64516000D01*
X69720332Y-64771302D01*
X69469000Y-65147446D01*
X69469000Y-65135919D01*
X69483862Y-65121083D01*
X69646615Y-64729131D01*
X69646985Y-64304731D01*
X69484916Y-63912496D01*
X69185083Y-63612138D01*
X68793131Y-63449385D01*
X68368731Y-63449015D01*
X67976496Y-63611084D01*
X67676138Y-63910917D01*
X67513385Y-64302869D01*
X67513015Y-64727269D01*
X67675084Y-65119504D01*
X67691000Y-65135448D01*
X67691000Y-68976552D01*
X67407083Y-68692138D01*
X67015131Y-68529385D01*
X66590731Y-68529015D01*
X66198496Y-68691084D01*
X66182552Y-68707000D01*
X64438236Y-68707000D01*
X63914561Y-68183325D01*
X64034431Y-68007890D01*
X64085440Y-67756000D01*
X64085440Y-66356000D01*
X64041162Y-66120683D01*
X63902090Y-65904559D01*
X63689890Y-65759569D01*
X63438000Y-65708560D01*
X62038000Y-65708560D01*
X61802683Y-65752838D01*
X61586559Y-65891910D01*
X61441569Y-66104110D01*
X61390560Y-66356000D01*
X59131200Y-66356000D01*
X59131200Y-62320383D01*
X61402769Y-62320383D01*
X61605582Y-62811229D01*
X61980796Y-63187098D01*
X62471287Y-63390768D01*
X63002383Y-63391231D01*
X63493229Y-63188418D01*
X63869098Y-62813204D01*
X64072768Y-62322713D01*
X64073231Y-61791617D01*
X63870418Y-61300771D01*
X63495204Y-60924902D01*
X63004713Y-60721232D01*
X62473617Y-60720769D01*
X61982771Y-60923582D01*
X61606902Y-61298796D01*
X61403232Y-61789287D01*
X61402769Y-62320383D01*
X59131200Y-62320383D01*
X59131200Y-59251694D01*
X83455226Y-59251694D01*
X83703538Y-59852655D01*
X84162927Y-60312846D01*
X84763453Y-60562206D01*
X85413694Y-60562774D01*
X86014655Y-60314462D01*
X86474846Y-59855073D01*
X86724206Y-59254547D01*
X86724208Y-59251694D01*
X91075226Y-59251694D01*
X91323538Y-59852655D01*
X91782927Y-60312846D01*
X92383453Y-60562206D01*
X93033694Y-60562774D01*
X93634655Y-60314462D01*
X94094846Y-59855073D01*
X94282374Y-59403455D01*
X110276431Y-59403455D01*
X110299039Y-60090206D01*
X110518351Y-60619672D01*
X110794773Y-60729622D01*
X111834395Y-59690000D01*
X110794773Y-58650378D01*
X110518351Y-58760328D01*
X110276431Y-59403455D01*
X94282374Y-59403455D01*
X94344206Y-59254547D01*
X94344774Y-58604306D01*
X94096462Y-58003345D01*
X93762084Y-57668383D01*
X98232769Y-57668383D01*
X98435582Y-58159229D01*
X98810796Y-58535098D01*
X99301287Y-58738768D01*
X99832383Y-58739231D01*
X100323229Y-58536418D01*
X100699098Y-58161204D01*
X100902768Y-57670713D01*
X100903000Y-57404026D01*
X103111077Y-57404026D01*
X103305945Y-57875642D01*
X103666460Y-58236786D01*
X104137736Y-58432477D01*
X104648026Y-58432923D01*
X105119642Y-58238055D01*
X105480786Y-57877540D01*
X105664209Y-57435808D01*
X105845945Y-57875642D01*
X106206460Y-58236786D01*
X106677736Y-58432477D01*
X107188026Y-58432923D01*
X107342181Y-58369227D01*
X110974378Y-58369227D01*
X110994574Y-58420000D01*
X110974378Y-58470773D01*
X111041446Y-58537841D01*
X111084328Y-58645649D01*
X111188403Y-58684798D01*
X112014000Y-59510395D01*
X112832836Y-58691559D01*
X112943672Y-58645649D01*
X112986554Y-58537841D01*
X113053622Y-58470773D01*
X113033426Y-58420000D01*
X113053622Y-58369227D01*
X112986554Y-58302159D01*
X112943672Y-58194351D01*
X112839597Y-58155202D01*
X112014000Y-57329605D01*
X111195164Y-58148441D01*
X111084328Y-58194351D01*
X111041446Y-58302159D01*
X110974378Y-58369227D01*
X107342181Y-58369227D01*
X107659642Y-58238055D01*
X108020786Y-57877540D01*
X108216477Y-57406264D01*
X108216923Y-56895974D01*
X108203487Y-56863455D01*
X110276431Y-56863455D01*
X110299039Y-57550206D01*
X110518351Y-58079672D01*
X110794773Y-58189622D01*
X111834395Y-57150000D01*
X110794773Y-56110378D01*
X110518351Y-56220328D01*
X110276431Y-56863455D01*
X108203487Y-56863455D01*
X108022055Y-56424358D01*
X107661540Y-56063214D01*
X107342587Y-55930773D01*
X110974378Y-55930773D01*
X112014000Y-56970395D01*
X113053622Y-55930773D01*
X112943672Y-55654351D01*
X112300545Y-55412431D01*
X111613794Y-55435039D01*
X111084328Y-55654351D01*
X110974378Y-55930773D01*
X107342587Y-55930773D01*
X107190264Y-55867523D01*
X106679974Y-55867077D01*
X106208358Y-56061945D01*
X105847214Y-56422460D01*
X105663791Y-56864192D01*
X105482055Y-56424358D01*
X105121540Y-56063214D01*
X104650264Y-55867523D01*
X104139974Y-55867077D01*
X103668358Y-56061945D01*
X103307214Y-56422460D01*
X103111523Y-56893736D01*
X103111077Y-57404026D01*
X100903000Y-57404026D01*
X100903231Y-57139617D01*
X100700418Y-56648771D01*
X100325204Y-56272902D01*
X99834713Y-56069232D01*
X99303617Y-56068769D01*
X98812771Y-56271582D01*
X98436902Y-56646796D01*
X98233232Y-57137287D01*
X98232769Y-57668383D01*
X93762084Y-57668383D01*
X93637073Y-57543154D01*
X93036547Y-57293794D01*
X92386306Y-57293226D01*
X91785345Y-57541538D01*
X91325154Y-58000927D01*
X91075794Y-58601453D01*
X91075226Y-59251694D01*
X86724208Y-59251694D01*
X86724774Y-58604306D01*
X86476462Y-58003345D01*
X86017073Y-57543154D01*
X85416547Y-57293794D01*
X84766306Y-57293226D01*
X84165345Y-57541538D01*
X83705154Y-58000927D01*
X83455794Y-58601453D01*
X83455226Y-59251694D01*
X59131200Y-59251694D01*
X59131200Y-54789865D01*
X61399420Y-54789865D01*
X61399420Y-55446135D01*
X61481979Y-55861186D01*
X61717086Y-56213049D01*
X62068949Y-56448156D01*
X62484000Y-56530715D01*
X62899051Y-56448156D01*
X63123238Y-56298359D01*
X63460065Y-56462981D01*
X63627000Y-56336068D01*
X63627000Y-55245000D01*
X63881000Y-55245000D01*
X63881000Y-56336068D01*
X64047935Y-56462981D01*
X64389000Y-56296288D01*
X64730065Y-56462981D01*
X64897000Y-56336068D01*
X64897000Y-55245000D01*
X65151000Y-55245000D01*
X65151000Y-56336068D01*
X65317935Y-56462981D01*
X65701111Y-56275706D01*
X65977420Y-55951373D01*
X66108580Y-55545990D01*
X66108580Y-55245000D01*
X65151000Y-55245000D01*
X64897000Y-55245000D01*
X63881000Y-55245000D01*
X63627000Y-55245000D01*
X63607000Y-55245000D01*
X63607000Y-54991000D01*
X63627000Y-54991000D01*
X63627000Y-53899932D01*
X63881000Y-53899932D01*
X63881000Y-54991000D01*
X64897000Y-54991000D01*
X64897000Y-53899932D01*
X65151000Y-53899932D01*
X65151000Y-54991000D01*
X66108580Y-54991000D01*
X66108580Y-54933694D01*
X83455226Y-54933694D01*
X83703538Y-55534655D01*
X84162927Y-55994846D01*
X84763453Y-56244206D01*
X85413694Y-56244774D01*
X86014655Y-55996462D01*
X86474846Y-55537073D01*
X86724206Y-54936547D01*
X86724208Y-54933694D01*
X91075226Y-54933694D01*
X91323538Y-55534655D01*
X91782927Y-55994846D01*
X92383453Y-56244206D01*
X93033694Y-56244774D01*
X93634655Y-55996462D01*
X94094846Y-55537073D01*
X94344206Y-54936547D01*
X94344774Y-54286306D01*
X94096462Y-53685345D01*
X93637073Y-53225154D01*
X93036547Y-52975794D01*
X92386306Y-52975226D01*
X91785345Y-53223538D01*
X91325154Y-53682927D01*
X91075794Y-54283453D01*
X91075226Y-54933694D01*
X86724208Y-54933694D01*
X86724774Y-54286306D01*
X86476462Y-53685345D01*
X86017073Y-53225154D01*
X85416547Y-52975794D01*
X84766306Y-52975226D01*
X84165345Y-53223538D01*
X83705154Y-53682927D01*
X83455794Y-54283453D01*
X83455226Y-54933694D01*
X66108580Y-54933694D01*
X66108580Y-54690010D01*
X65977420Y-54284627D01*
X65701111Y-53960294D01*
X65317935Y-53773019D01*
X65151000Y-53899932D01*
X64897000Y-53899932D01*
X64730065Y-53773019D01*
X64389000Y-53939712D01*
X64047935Y-53773019D01*
X63881000Y-53899932D01*
X63627000Y-53899932D01*
X63460065Y-53773019D01*
X63123238Y-53937641D01*
X62899051Y-53787844D01*
X62484000Y-53705285D01*
X62068949Y-53787844D01*
X61717086Y-54022951D01*
X61481979Y-54374814D01*
X61399420Y-54789865D01*
X59131200Y-54789865D01*
X59131200Y-52901694D01*
X69485226Y-52901694D01*
X69733538Y-53502655D01*
X70192927Y-53962846D01*
X70793453Y-54212206D01*
X71443694Y-54212774D01*
X72044655Y-53964462D01*
X72504846Y-53505073D01*
X72754206Y-52904547D01*
X72754208Y-52901694D01*
X77105226Y-52901694D01*
X77353538Y-53502655D01*
X77812927Y-53962846D01*
X78413453Y-54212206D01*
X79063694Y-54212774D01*
X79664655Y-53964462D01*
X80124846Y-53505073D01*
X80374206Y-52904547D01*
X80374774Y-52254306D01*
X80205286Y-51844113D01*
X101835454Y-51844113D01*
X101915831Y-52141490D01*
X102391645Y-52942789D01*
X103137884Y-53501007D01*
X104040940Y-53731160D01*
X105791000Y-53731160D01*
X105791000Y-51473100D01*
X106045000Y-51473100D01*
X106045000Y-53731160D01*
X107795060Y-53731160D01*
X108698116Y-53501007D01*
X109444355Y-52942789D01*
X109920169Y-52141490D01*
X110000546Y-51844113D01*
X109890745Y-51473100D01*
X106045000Y-51473100D01*
X105791000Y-51473100D01*
X101945255Y-51473100D01*
X101835454Y-51844113D01*
X80205286Y-51844113D01*
X80126462Y-51653345D01*
X79667073Y-51193154D01*
X79659870Y-51190163D01*
X81323443Y-51190163D01*
X81422042Y-51456965D01*
X82031582Y-51683401D01*
X82681377Y-51659341D01*
X83169958Y-51456965D01*
X83268557Y-51190163D01*
X82296000Y-50217605D01*
X81323443Y-51190163D01*
X79659870Y-51190163D01*
X79066547Y-50943794D01*
X78416306Y-50943226D01*
X77815345Y-51191538D01*
X77355154Y-51650927D01*
X77105794Y-52251453D01*
X77105226Y-52901694D01*
X72754208Y-52901694D01*
X72754774Y-52254306D01*
X72506462Y-51653345D01*
X72047073Y-51193154D01*
X71446547Y-50943794D01*
X70796306Y-50943226D01*
X70195345Y-51191538D01*
X69735154Y-51650927D01*
X69485794Y-52251453D01*
X69485226Y-52901694D01*
X59131200Y-52901694D01*
X59131200Y-48524383D01*
X60132769Y-48524383D01*
X60335582Y-49015229D01*
X60710796Y-49391098D01*
X61201287Y-49594768D01*
X61732383Y-49595231D01*
X62223229Y-49392418D01*
X62599098Y-49017204D01*
X62802768Y-48526713D01*
X62803231Y-47995617D01*
X62623239Y-47560000D01*
X65120560Y-47560000D01*
X65120560Y-48960000D01*
X65164838Y-49195317D01*
X65303910Y-49411441D01*
X65516110Y-49556431D01*
X65768000Y-49607440D01*
X67168000Y-49607440D01*
X67403317Y-49563162D01*
X67619441Y-49424090D01*
X67764431Y-49211890D01*
X67815440Y-48960000D01*
X67815440Y-48837694D01*
X69485226Y-48837694D01*
X69733538Y-49438655D01*
X70192927Y-49898846D01*
X70793453Y-50148206D01*
X71443694Y-50148774D01*
X72044655Y-49900462D01*
X72504846Y-49441073D01*
X72754206Y-48840547D01*
X72754208Y-48837694D01*
X77105226Y-48837694D01*
X77353538Y-49438655D01*
X77812927Y-49898846D01*
X78413453Y-50148206D01*
X79063694Y-50148774D01*
X79664655Y-49900462D01*
X79791756Y-49773582D01*
X80650599Y-49773582D01*
X80674659Y-50423377D01*
X80877035Y-50911958D01*
X81143837Y-51010557D01*
X82116395Y-50038000D01*
X82475605Y-50038000D01*
X83448163Y-51010557D01*
X83714965Y-50911958D01*
X83919380Y-50361694D01*
X88281226Y-50361694D01*
X88529538Y-50962655D01*
X88988927Y-51422846D01*
X89589453Y-51672206D01*
X90239694Y-51672774D01*
X90840655Y-51424462D01*
X91300846Y-50965073D01*
X91349422Y-50848087D01*
X101835454Y-50848087D01*
X101945255Y-51219100D01*
X105791000Y-51219100D01*
X105791000Y-48961040D01*
X106045000Y-48961040D01*
X106045000Y-51219100D01*
X109890745Y-51219100D01*
X110000546Y-50848087D01*
X109920169Y-50550710D01*
X109444355Y-49749411D01*
X108698116Y-49191193D01*
X107795060Y-48961040D01*
X106045000Y-48961040D01*
X105791000Y-48961040D01*
X104040940Y-48961040D01*
X103137884Y-49191193D01*
X102391645Y-49749411D01*
X101915831Y-50550710D01*
X101835454Y-50848087D01*
X91349422Y-50848087D01*
X91550206Y-50364547D01*
X91550774Y-49714306D01*
X91302462Y-49113345D01*
X90843073Y-48653154D01*
X90242547Y-48403794D01*
X89592306Y-48403226D01*
X88991345Y-48651538D01*
X88531154Y-49110927D01*
X88281794Y-49711453D01*
X88281226Y-50361694D01*
X83919380Y-50361694D01*
X83941401Y-50302418D01*
X83917341Y-49652623D01*
X83714965Y-49164042D01*
X83448163Y-49065443D01*
X82475605Y-50038000D01*
X82116395Y-50038000D01*
X81143837Y-49065443D01*
X80877035Y-49164042D01*
X80650599Y-49773582D01*
X79791756Y-49773582D01*
X80124846Y-49441073D01*
X80355399Y-48885837D01*
X81323443Y-48885837D01*
X82296000Y-49858395D01*
X83268557Y-48885837D01*
X83169958Y-48619035D01*
X82560418Y-48392599D01*
X81910623Y-48416659D01*
X81422042Y-48619035D01*
X81323443Y-48885837D01*
X80355399Y-48885837D01*
X80374206Y-48840547D01*
X80374774Y-48190306D01*
X80180305Y-47719655D01*
X92329000Y-47719655D01*
X92329000Y-47784345D01*
X92454675Y-48416155D01*
X92812567Y-48951778D01*
X93348190Y-49309670D01*
X93980000Y-49435345D01*
X94611810Y-49309670D01*
X94951792Y-49082501D01*
X95039910Y-49219441D01*
X95252110Y-49364431D01*
X95504000Y-49415440D01*
X97536000Y-49415440D01*
X97771317Y-49371162D01*
X97987441Y-49232090D01*
X98132431Y-49019890D01*
X98183440Y-48768000D01*
X98183440Y-46736000D01*
X98139162Y-46500683D01*
X98000090Y-46284559D01*
X97943336Y-46245780D01*
X99731737Y-46245780D01*
X99840977Y-46794969D01*
X100152068Y-47260549D01*
X100617648Y-47571640D01*
X101166837Y-47680880D01*
X102139843Y-47680880D01*
X102689032Y-47571640D01*
X103154612Y-47260549D01*
X103465703Y-46794969D01*
X103574943Y-46245780D01*
X103465703Y-45696591D01*
X103154612Y-45231011D01*
X102803421Y-44996352D01*
X103207492Y-44671387D01*
X103477381Y-44178277D01*
X103494923Y-44095475D01*
X103372936Y-43873420D01*
X101780340Y-43873420D01*
X101780340Y-43893420D01*
X101526340Y-43893420D01*
X101526340Y-43873420D01*
X99933744Y-43873420D01*
X99811757Y-44095475D01*
X99829299Y-44178277D01*
X100099188Y-44671387D01*
X100503259Y-44996352D01*
X100152068Y-45231011D01*
X99840977Y-45696591D01*
X99731737Y-46245780D01*
X97943336Y-46245780D01*
X97787890Y-46139569D01*
X97536000Y-46088560D01*
X95504000Y-46088560D01*
X95268683Y-46132838D01*
X95052559Y-46271910D01*
X94950802Y-46420837D01*
X94611810Y-46194330D01*
X93980000Y-46068655D01*
X93348190Y-46194330D01*
X92812567Y-46552222D01*
X92454675Y-47087845D01*
X92329000Y-47719655D01*
X80180305Y-47719655D01*
X80126462Y-47589345D01*
X79667073Y-47129154D01*
X79081604Y-46886046D01*
X82579559Y-46886046D01*
X82723469Y-47191312D01*
X83467186Y-47479605D01*
X84264615Y-47461344D01*
X84916531Y-47191312D01*
X85060441Y-46886046D01*
X87659559Y-46886046D01*
X87803469Y-47191312D01*
X88547186Y-47479605D01*
X89344615Y-47461344D01*
X89996531Y-47191312D01*
X90140441Y-46886046D01*
X88900000Y-45645605D01*
X87659559Y-46886046D01*
X85060441Y-46886046D01*
X83820000Y-45645605D01*
X82579559Y-46886046D01*
X79081604Y-46886046D01*
X79066547Y-46879794D01*
X78416306Y-46879226D01*
X77815345Y-47127538D01*
X77355154Y-47586927D01*
X77105794Y-48187453D01*
X77105226Y-48837694D01*
X72754208Y-48837694D01*
X72754774Y-48190306D01*
X72506462Y-47589345D01*
X72047073Y-47129154D01*
X71446547Y-46879794D01*
X70796306Y-46879226D01*
X70195345Y-47127538D01*
X69735154Y-47586927D01*
X69485794Y-48187453D01*
X69485226Y-48837694D01*
X67815440Y-48837694D01*
X67815440Y-47560000D01*
X67771162Y-47324683D01*
X67632090Y-47108559D01*
X67419890Y-46963569D01*
X67168000Y-46912560D01*
X65768000Y-46912560D01*
X65532683Y-46956838D01*
X65316559Y-47095910D01*
X65171569Y-47308110D01*
X65120560Y-47560000D01*
X62623239Y-47560000D01*
X62600418Y-47504771D01*
X62225204Y-47128902D01*
X61734713Y-46925232D01*
X61203617Y-46924769D01*
X60712771Y-47127582D01*
X60336902Y-47502796D01*
X60133232Y-47993287D01*
X60132769Y-48524383D01*
X59131200Y-48524383D01*
X59131200Y-38811200D01*
X62790221Y-38811200D01*
X61726485Y-39250727D01*
X61726485Y-39250727D01*
G37*
X61726485Y-39250727D02*
X60843826Y-40131847D01*
X60365546Y-41283674D01*
X60364457Y-42530854D01*
X60840727Y-43683515D01*
X61721847Y-44566174D01*
X62873674Y-45044454D01*
X64120854Y-45045543D01*
X64164051Y-45027694D01*
X69485226Y-45027694D01*
X69733538Y-45628655D01*
X70192927Y-46088846D01*
X70793453Y-46338206D01*
X71443694Y-46338774D01*
X72044655Y-46090462D01*
X72504846Y-45631073D01*
X72754206Y-45030547D01*
X72754208Y-45027694D01*
X77105226Y-45027694D01*
X77353538Y-45628655D01*
X77812927Y-46088846D01*
X78413453Y-46338206D01*
X79063694Y-46338774D01*
X79664655Y-46090462D01*
X80124846Y-45631073D01*
X80339891Y-45113186D01*
X81806395Y-45113186D01*
X81824656Y-45910615D01*
X82094688Y-46562531D01*
X82399954Y-46706441D01*
X83640395Y-45466000D01*
X82399954Y-44225559D01*
X82094688Y-44369469D01*
X81806395Y-45113186D01*
X80339891Y-45113186D01*
X80374206Y-45030547D01*
X80374774Y-44380306D01*
X80126462Y-43779345D01*
X79667073Y-43319154D01*
X79066547Y-43069794D01*
X78416306Y-43069226D01*
X77815345Y-43317538D01*
X77355154Y-43776927D01*
X77105794Y-44377453D01*
X77105226Y-45027694D01*
X72754208Y-45027694D01*
X72754774Y-44380306D01*
X72506462Y-43779345D01*
X72047073Y-43319154D01*
X71446547Y-43069794D01*
X70796306Y-43069226D01*
X70195345Y-43317538D01*
X69735154Y-43776927D01*
X69485794Y-44377453D01*
X69485226Y-45027694D01*
X64164051Y-45027694D01*
X65273515Y-44569273D01*
X66156174Y-43688153D01*
X66634454Y-42536326D01*
X66635543Y-41289146D01*
X66606020Y-41217694D01*
X69485226Y-41217694D01*
X69733538Y-41818655D01*
X70192927Y-42278846D01*
X70793453Y-42528206D01*
X71443694Y-42528774D01*
X72044655Y-42280462D01*
X72279363Y-42046163D01*
X77767443Y-42046163D01*
X77866042Y-42312965D01*
X78475582Y-42539401D01*
X79125377Y-42515341D01*
X79613958Y-42312965D01*
X79712557Y-42046163D01*
X78740000Y-41073605D01*
X77767443Y-42046163D01*
X72279363Y-42046163D01*
X72504846Y-41821073D01*
X72754206Y-41220547D01*
X72754722Y-40629582D01*
X77094599Y-40629582D01*
X77118659Y-41279377D01*
X77321035Y-41767958D01*
X77587837Y-41866557D01*
X78560395Y-40894000D01*
X78919605Y-40894000D01*
X79892163Y-41866557D01*
X80055901Y-41806046D01*
X82579559Y-41806046D01*
X82723469Y-42111312D01*
X83467186Y-42399605D01*
X84264615Y-42381344D01*
X84773381Y-42170606D01*
X84605306Y-42575377D01*
X84604697Y-43273559D01*
X84775049Y-43685844D01*
X84172814Y-43452395D01*
X83375385Y-43470656D01*
X82723469Y-43740688D01*
X82579559Y-44045954D01*
X83820000Y-45286395D01*
X83834143Y-45272253D01*
X84013748Y-45451858D01*
X83999605Y-45466000D01*
X85240046Y-46706441D01*
X85545312Y-46562531D01*
X85833605Y-45818814D01*
X85815344Y-45021385D01*
X85604606Y-44512619D01*
X86009377Y-44680694D01*
X86707559Y-44681303D01*
X87119844Y-44510951D01*
X86886395Y-45113186D01*
X86904656Y-45910615D01*
X87174688Y-46562531D01*
X87479954Y-46706441D01*
X88720395Y-45466000D01*
X89079605Y-45466000D01*
X90320046Y-46706441D01*
X90625312Y-46562531D01*
X90913605Y-45818814D01*
X90895344Y-45021385D01*
X90625312Y-44369469D01*
X90320046Y-44225559D01*
X89079605Y-45466000D01*
X88720395Y-45466000D01*
X88706253Y-45451858D01*
X88885858Y-45272253D01*
X88900000Y-45286395D01*
X90140441Y-44045954D01*
X89996531Y-43740688D01*
X89252814Y-43452395D01*
X88455385Y-43470656D01*
X87946619Y-43681394D01*
X88114694Y-43276623D01*
X88115303Y-42578441D01*
X87944951Y-42166156D01*
X88547186Y-42399605D01*
X89344615Y-42381344D01*
X89996531Y-42111312D01*
X90140441Y-41806046D01*
X88900000Y-40565605D01*
X88885858Y-40579748D01*
X88706253Y-40400143D01*
X88720395Y-40386000D01*
X89079605Y-40386000D01*
X90320046Y-41626441D01*
X90625312Y-41482531D01*
X90913605Y-40738814D01*
X90895344Y-39941385D01*
X90625312Y-39289469D01*
X90320046Y-39145559D01*
X89079605Y-40386000D01*
X88720395Y-40386000D01*
X87479954Y-39145559D01*
X87174688Y-39289469D01*
X86886395Y-40033186D01*
X86904656Y-40830615D01*
X87115394Y-41339381D01*
X86710623Y-41171306D01*
X86012441Y-41170697D01*
X85600156Y-41341049D01*
X85833605Y-40738814D01*
X85815344Y-39941385D01*
X85545312Y-39289469D01*
X85240046Y-39145559D01*
X83999605Y-40386000D01*
X84013748Y-40400143D01*
X83834143Y-40579748D01*
X83820000Y-40565605D01*
X82579559Y-41806046D01*
X80055901Y-41806046D01*
X80158965Y-41767958D01*
X80385401Y-41158418D01*
X80361341Y-40508623D01*
X80164410Y-40033186D01*
X81806395Y-40033186D01*
X81824656Y-40830615D01*
X82094688Y-41482531D01*
X82399954Y-41626441D01*
X83640395Y-40386000D01*
X82399954Y-39145559D01*
X82094688Y-39289469D01*
X81806395Y-40033186D01*
X80164410Y-40033186D01*
X80158965Y-40020042D01*
X79892163Y-39921443D01*
X78919605Y-40894000D01*
X78560395Y-40894000D01*
X77587837Y-39921443D01*
X77321035Y-40020042D01*
X77094599Y-40629582D01*
X72754722Y-40629582D01*
X72754774Y-40570306D01*
X72506462Y-39969345D01*
X72279351Y-39741837D01*
X77767443Y-39741837D01*
X78740000Y-40714395D01*
X79712557Y-39741837D01*
X79613958Y-39475035D01*
X79004418Y-39248599D01*
X78354623Y-39272659D01*
X77866042Y-39475035D01*
X77767443Y-39741837D01*
X72279351Y-39741837D01*
X72047073Y-39509154D01*
X71446547Y-39259794D01*
X70796306Y-39259226D01*
X70195345Y-39507538D01*
X69735154Y-39966927D01*
X69485794Y-40567453D01*
X69485226Y-41217694D01*
X66606020Y-41217694D01*
X66159273Y-40136485D01*
X65278153Y-39253826D01*
X64212190Y-38811200D01*
X82652514Y-38811200D01*
X82579559Y-38965954D01*
X83820000Y-40206395D01*
X85060441Y-38965954D01*
X84987486Y-38811200D01*
X87732514Y-38811200D01*
X87659559Y-38965954D01*
X88900000Y-40206395D01*
X90140441Y-38965954D01*
X90067486Y-38811200D01*
X94540221Y-38811200D01*
X93476485Y-39250727D01*
X92593826Y-40131847D01*
X92115546Y-41283674D01*
X92114457Y-42530854D01*
X92590727Y-43683515D01*
X93471847Y-44566174D01*
X94623674Y-45044454D01*
X95870854Y-45045543D01*
X97023515Y-44569273D01*
X97906174Y-43688153D01*
X98026919Y-43397365D01*
X99811757Y-43397365D01*
X99933744Y-43619420D01*
X101526340Y-43619420D01*
X101526340Y-42311320D01*
X101780340Y-42311320D01*
X101780340Y-43619420D01*
X103372936Y-43619420D01*
X103494923Y-43397365D01*
X103494147Y-43393704D01*
X104040940Y-43533060D01*
X105791000Y-43533060D01*
X105791000Y-41275000D01*
X106045000Y-41275000D01*
X106045000Y-43533060D01*
X107795060Y-43533060D01*
X108698116Y-43302907D01*
X109444355Y-42744689D01*
X109920169Y-41943390D01*
X110000546Y-41646013D01*
X109890745Y-41275000D01*
X106045000Y-41275000D01*
X105791000Y-41275000D01*
X101945255Y-41275000D01*
X101835454Y-41646013D01*
X101915831Y-41943390D01*
X102134309Y-42311320D01*
X101780340Y-42311320D01*
X101526340Y-42311320D01*
X101076760Y-42311320D01*
X100537238Y-42469161D01*
X100099188Y-42821453D01*
X99829299Y-43314563D01*
X99811757Y-43397365D01*
X98026919Y-43397365D01*
X98384454Y-42536326D01*
X98385543Y-41289146D01*
X97909273Y-40136485D01*
X97028153Y-39253826D01*
X95962190Y-38811200D01*
X103851581Y-38811200D01*
X103137884Y-38993093D01*
X102391645Y-39551311D01*
X101915831Y-40352610D01*
X101835454Y-40649987D01*
X101945255Y-41021000D01*
X105791000Y-41021000D01*
X105791000Y-41001000D01*
X106045000Y-41001000D01*
X106045000Y-41021000D01*
X109890745Y-41021000D01*
X110000546Y-40649987D01*
X109920169Y-40352610D01*
X109444355Y-39551311D01*
X108698116Y-38993093D01*
X107984419Y-38811200D01*
X113588800Y-38811200D01*
X113588800Y-56411415D01*
X113509649Y-56220328D01*
X113233227Y-56110378D01*
X112193605Y-57150000D01*
X113233227Y-58189622D01*
X113509649Y-58079672D01*
X113588800Y-57869255D01*
X113588800Y-58951415D01*
X113509649Y-58760328D01*
X113233227Y-58650378D01*
X112193605Y-59690000D01*
X113233227Y-60729622D01*
X113509649Y-60619672D01*
X113588800Y-60409255D01*
X113588800Y-64058386D01*
X113479103Y-63792898D01*
X112993658Y-63306605D01*
X112822364Y-63235477D01*
X113100786Y-62957540D01*
X113296477Y-62486264D01*
X113296923Y-61975974D01*
X113102055Y-61504358D01*
X112830639Y-61232469D01*
X112943672Y-61185649D01*
X113053622Y-60909227D01*
X112014000Y-59869605D01*
X110974378Y-60909227D01*
X111084328Y-61185649D01*
X111200719Y-61229431D01*
X110927214Y-61502460D01*
X110731523Y-61973736D01*
X110731077Y-62484026D01*
X110925945Y-62955642D01*
X111205180Y-63235364D01*
X111036898Y-63304897D01*
X110550605Y-63790342D01*
X110287100Y-64424931D01*
X110286501Y-65112054D01*
X110548897Y-65747102D01*
X110841369Y-66040085D01*
X110550605Y-66330342D01*
X110287100Y-66964931D01*
X110286501Y-67652054D01*
X110548897Y-68287102D01*
X111034342Y-68773395D01*
X111668931Y-69036900D01*
X112356054Y-69037499D01*
X112991102Y-68775103D01*
X113477395Y-68289658D01*
X113588800Y-68021366D01*
X113588800Y-118668800D01*
X59131200Y-118668800D01*
X59131200Y-114920854D01*
X60364457Y-114920854D01*
X60840727Y-116073515D01*
X61721847Y-116956174D01*
X62873674Y-117434454D01*
X64120854Y-117435543D01*
X65273515Y-116959273D01*
X66156174Y-116078153D01*
X66169668Y-116045655D01*
X73533000Y-116045655D01*
X73533000Y-116110345D01*
X73658675Y-116742155D01*
X74016567Y-117277778D01*
X74552190Y-117635670D01*
X75184000Y-117761345D01*
X75815810Y-117635670D01*
X76155792Y-117408501D01*
X76243910Y-117545441D01*
X76456110Y-117690431D01*
X76708000Y-117741440D01*
X78740000Y-117741440D01*
X78975317Y-117697162D01*
X79191441Y-117558090D01*
X79336431Y-117345890D01*
X79373326Y-117163694D01*
X82185226Y-117163694D01*
X82433538Y-117764655D01*
X82892927Y-118224846D01*
X83493453Y-118474206D01*
X84143694Y-118474774D01*
X84744655Y-118226462D01*
X85204846Y-117767073D01*
X85358612Y-117396762D01*
X89617584Y-117396762D01*
X89838353Y-117767483D01*
X90810012Y-118160859D01*
X91858247Y-118152453D01*
X92787647Y-117767483D01*
X93008416Y-117396762D01*
X91313000Y-115701345D01*
X89617584Y-117396762D01*
X85358612Y-117396762D01*
X85454206Y-117166547D01*
X85454774Y-116516306D01*
X85206462Y-115915345D01*
X84747073Y-115455154D01*
X84146547Y-115205794D01*
X83496306Y-115205226D01*
X82895345Y-115453538D01*
X82435154Y-115912927D01*
X82185794Y-116513453D01*
X82185226Y-117163694D01*
X79373326Y-117163694D01*
X79387440Y-117094000D01*
X79387440Y-115062000D01*
X79379303Y-115018752D01*
X88673881Y-115018752D01*
X88682287Y-116066987D01*
X89067257Y-116996387D01*
X89437978Y-117217156D01*
X91133395Y-115521740D01*
X91492605Y-115521740D01*
X93188022Y-117217156D01*
X93558743Y-116996387D01*
X93720704Y-116596333D01*
X101860854Y-116596333D01*
X101941231Y-116893710D01*
X102417045Y-117695009D01*
X103163284Y-118253227D01*
X104066340Y-118483380D01*
X105816400Y-118483380D01*
X105816400Y-116225320D01*
X106070400Y-116225320D01*
X106070400Y-118483380D01*
X107820460Y-118483380D01*
X108723516Y-118253227D01*
X109469755Y-117695009D01*
X109945569Y-116893710D01*
X110025946Y-116596333D01*
X109916145Y-116225320D01*
X106070400Y-116225320D01*
X105816400Y-116225320D01*
X101970655Y-116225320D01*
X101860854Y-116596333D01*
X93720704Y-116596333D01*
X93952119Y-116024728D01*
X93948716Y-115600307D01*
X101860854Y-115600307D01*
X101970655Y-115971320D01*
X105816400Y-115971320D01*
X105816400Y-113713260D01*
X106070400Y-113713260D01*
X106070400Y-115971320D01*
X109916145Y-115971320D01*
X110025946Y-115600307D01*
X109945569Y-115302930D01*
X109469755Y-114501631D01*
X108723516Y-113943413D01*
X107820460Y-113713260D01*
X106070400Y-113713260D01*
X105816400Y-113713260D01*
X104066340Y-113713260D01*
X103163284Y-113943413D01*
X102417045Y-114501631D01*
X101941231Y-115302930D01*
X101860854Y-115600307D01*
X93948716Y-115600307D01*
X93943713Y-114976493D01*
X93703689Y-114397022D01*
X94316584Y-114397022D01*
X94537353Y-114767743D01*
X95509012Y-115161119D01*
X96557247Y-115152713D01*
X97486647Y-114767743D01*
X97707416Y-114397022D01*
X96012000Y-112701605D01*
X94316584Y-114397022D01*
X93703689Y-114397022D01*
X93558743Y-114047093D01*
X93188022Y-113826324D01*
X91492605Y-115521740D01*
X91133395Y-115521740D01*
X89437978Y-113826324D01*
X89067257Y-114047093D01*
X88673881Y-115018752D01*
X79379303Y-115018752D01*
X79343162Y-114826683D01*
X79204090Y-114610559D01*
X78991890Y-114465569D01*
X78740000Y-114414560D01*
X76708000Y-114414560D01*
X76472683Y-114458838D01*
X76256559Y-114597910D01*
X76154802Y-114746837D01*
X75815810Y-114520330D01*
X75184000Y-114394655D01*
X74552190Y-114520330D01*
X74016567Y-114878222D01*
X73658675Y-115413845D01*
X73533000Y-116045655D01*
X66169668Y-116045655D01*
X66634454Y-114926326D01*
X66635543Y-113679146D01*
X66622145Y-113646718D01*
X89617584Y-113646718D01*
X91313000Y-115342135D01*
X93008416Y-113646718D01*
X92787647Y-113275997D01*
X91815988Y-112882621D01*
X90767753Y-112891027D01*
X89838353Y-113275997D01*
X89617584Y-113646718D01*
X66622145Y-113646718D01*
X66159273Y-112526485D01*
X65617756Y-111984022D01*
X67694844Y-111984022D01*
X67915613Y-112354743D01*
X68887272Y-112748119D01*
X69935507Y-112739713D01*
X70864907Y-112354743D01*
X71085676Y-111984022D01*
X69390260Y-110288605D01*
X67694844Y-111984022D01*
X65617756Y-111984022D01*
X65278153Y-111643826D01*
X64126326Y-111165546D01*
X62879146Y-111164457D01*
X61726485Y-111640727D01*
X60843826Y-112521847D01*
X60365546Y-113673674D01*
X60364457Y-114920854D01*
X59131200Y-114920854D01*
X59131200Y-109606012D01*
X66751141Y-109606012D01*
X66759547Y-110654247D01*
X67144517Y-111583647D01*
X67515238Y-111804416D01*
X69210655Y-110109000D01*
X69569865Y-110109000D01*
X71265282Y-111804416D01*
X71636003Y-111583647D01*
X72029379Y-110611988D01*
X72020973Y-109563753D01*
X71798185Y-109025893D01*
X75630725Y-109025893D01*
X75871519Y-109608657D01*
X76316997Y-110054914D01*
X76899341Y-110296724D01*
X77529893Y-110297275D01*
X78112657Y-110056481D01*
X78217867Y-109951455D01*
X78267673Y-110071698D01*
X78446301Y-110250327D01*
X78679690Y-110347000D01*
X79470250Y-110347000D01*
X79629000Y-110188250D01*
X79629000Y-108839000D01*
X79883000Y-108839000D01*
X79883000Y-110188250D01*
X80041750Y-110347000D01*
X80832310Y-110347000D01*
X81065699Y-110250327D01*
X81244327Y-110071698D01*
X81255760Y-110044094D01*
X88677543Y-110044094D01*
X89077853Y-111012918D01*
X89818443Y-111754802D01*
X90786567Y-112156802D01*
X91834834Y-112157717D01*
X92170525Y-112019012D01*
X93372881Y-112019012D01*
X93381287Y-113067247D01*
X93766257Y-113996647D01*
X94136978Y-114217416D01*
X95832395Y-112522000D01*
X96191605Y-112522000D01*
X97887022Y-114217416D01*
X98257743Y-113996647D01*
X98651119Y-113024988D01*
X98642713Y-111976753D01*
X98257743Y-111047353D01*
X98174869Y-110998000D01*
X99757137Y-110998000D01*
X99866377Y-111547189D01*
X100177468Y-112012769D01*
X100643048Y-112323860D01*
X101192237Y-112433100D01*
X102165243Y-112433100D01*
X102714432Y-112323860D01*
X103180012Y-112012769D01*
X103491103Y-111547189D01*
X103600343Y-110998000D01*
X103491103Y-110448811D01*
X103180012Y-109983231D01*
X102828821Y-109748572D01*
X103232892Y-109423607D01*
X103502781Y-108930497D01*
X103520323Y-108847695D01*
X103398336Y-108625640D01*
X101805740Y-108625640D01*
X101805740Y-108645640D01*
X101551740Y-108645640D01*
X101551740Y-108625640D01*
X99959144Y-108625640D01*
X99837157Y-108847695D01*
X99854699Y-108930497D01*
X100124588Y-109423607D01*
X100528659Y-109748572D01*
X100177468Y-109983231D01*
X99866377Y-110448811D01*
X99757137Y-110998000D01*
X98174869Y-110998000D01*
X97887022Y-110826584D01*
X96191605Y-112522000D01*
X95832395Y-112522000D01*
X94136978Y-110826584D01*
X93766257Y-111047353D01*
X93372881Y-112019012D01*
X92170525Y-112019012D01*
X92803658Y-111757407D01*
X93545542Y-111016817D01*
X93699112Y-110646978D01*
X94316584Y-110646978D01*
X96012000Y-112342395D01*
X97707416Y-110646978D01*
X97486647Y-110276257D01*
X96514988Y-109882881D01*
X95466753Y-109891287D01*
X94537353Y-110276257D01*
X94316584Y-110646978D01*
X93699112Y-110646978D01*
X93947542Y-110048693D01*
X93948457Y-109000426D01*
X93596897Y-108149585D01*
X99837157Y-108149585D01*
X99959144Y-108371640D01*
X101551740Y-108371640D01*
X101551740Y-107063540D01*
X101805740Y-107063540D01*
X101805740Y-108371640D01*
X103398336Y-108371640D01*
X103520323Y-108149585D01*
X103519547Y-108145924D01*
X104066340Y-108285280D01*
X105816400Y-108285280D01*
X105816400Y-106027220D01*
X106070400Y-106027220D01*
X106070400Y-108285280D01*
X107820460Y-108285280D01*
X108723516Y-108055127D01*
X109469755Y-107496909D01*
X109945569Y-106695610D01*
X110025946Y-106398233D01*
X109916145Y-106027220D01*
X106070400Y-106027220D01*
X105816400Y-106027220D01*
X101970655Y-106027220D01*
X101860854Y-106398233D01*
X101941231Y-106695610D01*
X102159709Y-107063540D01*
X101805740Y-107063540D01*
X101551740Y-107063540D01*
X101102160Y-107063540D01*
X100562638Y-107221381D01*
X100124588Y-107573673D01*
X99854699Y-108066783D01*
X99837157Y-108149585D01*
X93596897Y-108149585D01*
X93548147Y-108031602D01*
X92807557Y-107289718D01*
X91839433Y-106887718D01*
X90791166Y-106886803D01*
X89822342Y-107287113D01*
X89080458Y-108027703D01*
X88678458Y-108995827D01*
X88677543Y-110044094D01*
X81255760Y-110044094D01*
X81341000Y-109838309D01*
X81341000Y-108997750D01*
X81182250Y-108839000D01*
X79883000Y-108839000D01*
X79629000Y-108839000D01*
X79609000Y-108839000D01*
X79609000Y-108585000D01*
X79629000Y-108585000D01*
X79629000Y-107235750D01*
X79883000Y-107235750D01*
X79883000Y-108585000D01*
X81182250Y-108585000D01*
X81341000Y-108426250D01*
X81341000Y-107585691D01*
X81244327Y-107352302D01*
X81065699Y-107173673D01*
X80832310Y-107077000D01*
X80041750Y-107077000D01*
X79883000Y-107235750D01*
X79629000Y-107235750D01*
X79470250Y-107077000D01*
X78679690Y-107077000D01*
X78446301Y-107173673D01*
X78267673Y-107352302D01*
X78217988Y-107472251D01*
X78115003Y-107369086D01*
X77532659Y-107127276D01*
X76902107Y-107126725D01*
X76319343Y-107367519D01*
X75873086Y-107812997D01*
X75631276Y-108395341D01*
X75630725Y-109025893D01*
X71798185Y-109025893D01*
X71636003Y-108634353D01*
X71265282Y-108413584D01*
X69569865Y-110109000D01*
X69210655Y-110109000D01*
X67515238Y-108413584D01*
X67144517Y-108634353D01*
X66751141Y-109606012D01*
X59131200Y-109606012D01*
X59131200Y-108233978D01*
X67694844Y-108233978D01*
X69390260Y-109929395D01*
X71085676Y-108233978D01*
X70864907Y-107863257D01*
X69893248Y-107469881D01*
X68845013Y-107478287D01*
X67915613Y-107863257D01*
X67694844Y-108233978D01*
X59131200Y-108233978D01*
X59131200Y-107285022D01*
X64695104Y-107285022D01*
X64915873Y-107655743D01*
X65887532Y-108049119D01*
X66935767Y-108040713D01*
X67865167Y-107655743D01*
X68085936Y-107285022D01*
X66390520Y-105589605D01*
X64695104Y-107285022D01*
X59131200Y-107285022D01*
X59131200Y-104907012D01*
X63751401Y-104907012D01*
X63759807Y-105955247D01*
X64144777Y-106884647D01*
X64515498Y-107105416D01*
X66210915Y-105410000D01*
X66570125Y-105410000D01*
X68265542Y-107105416D01*
X68636263Y-106884647D01*
X69022009Y-105931834D01*
X69754543Y-105931834D01*
X70154853Y-106900658D01*
X70895443Y-107642542D01*
X71863567Y-108044542D01*
X72911834Y-108045457D01*
X73880658Y-107645147D01*
X74622542Y-106904557D01*
X75024542Y-105936433D01*
X75024765Y-105680510D01*
X82173070Y-105680510D01*
X82173070Y-107679490D01*
X82217348Y-107914807D01*
X82356420Y-108130931D01*
X82568620Y-108275921D01*
X82820510Y-108326930D01*
X84819490Y-108326930D01*
X85054807Y-108282652D01*
X85270931Y-108143580D01*
X85415921Y-107931380D01*
X85466930Y-107679490D01*
X85466930Y-105680510D01*
X85422652Y-105445193D01*
X85283580Y-105229069D01*
X85071380Y-105084079D01*
X84819490Y-105033070D01*
X82820510Y-105033070D01*
X82585193Y-105077348D01*
X82369069Y-105216420D01*
X82224079Y-105428620D01*
X82173070Y-105680510D01*
X75024765Y-105680510D01*
X75025457Y-104888166D01*
X74768797Y-104267000D01*
X87923370Y-104267000D01*
X87923370Y-105167430D01*
X88084982Y-105725906D01*
X88448011Y-106180024D01*
X88957190Y-106460649D01*
X89051168Y-106481540D01*
X89281000Y-106360214D01*
X89281000Y-104267000D01*
X87923370Y-104267000D01*
X74768797Y-104267000D01*
X74625147Y-103919342D01*
X73884557Y-103177458D01*
X73728290Y-103112570D01*
X87923370Y-103112570D01*
X87923370Y-104013000D01*
X89281000Y-104013000D01*
X89281000Y-101919786D01*
X89535000Y-101919786D01*
X89535000Y-104013000D01*
X89555000Y-104013000D01*
X89555000Y-104267000D01*
X89535000Y-104267000D01*
X89535000Y-106360214D01*
X89764832Y-106481540D01*
X89858810Y-106460649D01*
X90367989Y-106180024D01*
X90672484Y-105799127D01*
X90898208Y-106136948D01*
X91379857Y-106458775D01*
X91948000Y-106571786D01*
X92516143Y-106458775D01*
X92997792Y-106136948D01*
X93218000Y-105807383D01*
X93438208Y-106136948D01*
X93919857Y-106458775D01*
X94488000Y-106571786D01*
X95056143Y-106458775D01*
X95537792Y-106136948D01*
X95859619Y-105655299D01*
X95909962Y-105402207D01*
X101860854Y-105402207D01*
X101970655Y-105773220D01*
X105816400Y-105773220D01*
X105816400Y-103515160D01*
X106070400Y-103515160D01*
X106070400Y-105773220D01*
X109916145Y-105773220D01*
X110025946Y-105402207D01*
X109945569Y-105104830D01*
X109469755Y-104303531D01*
X108723516Y-103745313D01*
X107820460Y-103515160D01*
X106070400Y-103515160D01*
X105816400Y-103515160D01*
X104066340Y-103515160D01*
X103163284Y-103745313D01*
X102417045Y-104303531D01*
X101941231Y-105104830D01*
X101860854Y-105402207D01*
X95909962Y-105402207D01*
X95972630Y-105087156D01*
X95972630Y-103192844D01*
X95859619Y-102624701D01*
X95537792Y-102143052D01*
X95056143Y-101821225D01*
X94488000Y-101708214D01*
X93919857Y-101821225D01*
X93438208Y-102143052D01*
X93218000Y-102472617D01*
X92997792Y-102143052D01*
X92516143Y-101821225D01*
X91948000Y-101708214D01*
X91379857Y-101821225D01*
X90898208Y-102143052D01*
X90672484Y-102480873D01*
X90367989Y-102099976D01*
X89858810Y-101819351D01*
X89764832Y-101798460D01*
X89535000Y-101919786D01*
X89281000Y-101919786D01*
X89051168Y-101798460D01*
X88957190Y-101819351D01*
X88448011Y-102099976D01*
X88084982Y-102554094D01*
X87923370Y-103112570D01*
X73728290Y-103112570D01*
X72916433Y-102775458D01*
X71868166Y-102774543D01*
X70899342Y-103174853D01*
X70157458Y-103915443D01*
X69755458Y-104883567D01*
X69754543Y-105931834D01*
X69022009Y-105931834D01*
X69029639Y-105912988D01*
X69021233Y-104864753D01*
X68636263Y-103935353D01*
X68265542Y-103714584D01*
X66570125Y-105410000D01*
X66210915Y-105410000D01*
X64515498Y-103714584D01*
X64144777Y-103935353D01*
X63751401Y-104907012D01*
X59131200Y-104907012D01*
X59131200Y-103534978D01*
X64695104Y-103534978D01*
X66390520Y-105230395D01*
X68085936Y-103534978D01*
X67865167Y-103164257D01*
X66893508Y-102770881D01*
X65845273Y-102779287D01*
X64915873Y-103164257D01*
X64695104Y-103534978D01*
X59131200Y-103534978D01*
X59131200Y-100646000D01*
X75948560Y-100646000D01*
X75948560Y-102046000D01*
X75992838Y-102281317D01*
X76131910Y-102497441D01*
X76344110Y-102642431D01*
X76596000Y-102693440D01*
X77996000Y-102693440D01*
X78231317Y-102649162D01*
X78447441Y-102510090D01*
X78592431Y-102297890D01*
X78595795Y-102281275D01*
X81540331Y-102281275D01*
X81602169Y-102517042D01*
X82103122Y-102693419D01*
X82633440Y-102664664D01*
X82989831Y-102517042D01*
X83051669Y-102281275D01*
X82296000Y-101525605D01*
X81540331Y-102281275D01*
X78595795Y-102281275D01*
X78643440Y-102046000D01*
X78643440Y-101153122D01*
X80948581Y-101153122D01*
X80977336Y-101683440D01*
X81124958Y-102039831D01*
X81360725Y-102101669D01*
X82116395Y-101346000D01*
X82475605Y-101346000D01*
X83231275Y-102101669D01*
X83467042Y-102039831D01*
X83643419Y-101538878D01*
X83614664Y-101008560D01*
X83467042Y-100652169D01*
X83231275Y-100590331D01*
X82475605Y-101346000D01*
X82116395Y-101346000D01*
X81360725Y-100590331D01*
X81124958Y-100652169D01*
X80948581Y-101153122D01*
X78643440Y-101153122D01*
X78643440Y-100646000D01*
X78599170Y-100410725D01*
X81540331Y-100410725D01*
X82296000Y-101166395D01*
X83051669Y-100410725D01*
X82989831Y-100174958D01*
X82488878Y-99998581D01*
X81958560Y-100027336D01*
X81602169Y-100174958D01*
X81540331Y-100410725D01*
X78599170Y-100410725D01*
X78599162Y-100410683D01*
X78460090Y-100194559D01*
X78247890Y-100049569D01*
X77996000Y-99998560D01*
X76596000Y-99998560D01*
X76360683Y-100042838D01*
X76144559Y-100181910D01*
X75999569Y-100394110D01*
X75948560Y-100646000D01*
X59131200Y-100646000D01*
X59131200Y-94742000D01*
X60292655Y-94742000D01*
X60418330Y-95373810D01*
X60645499Y-95713792D01*
X60508559Y-95801910D01*
X60363569Y-96014110D01*
X60312560Y-96266000D01*
X60312560Y-98298000D01*
X60356838Y-98533317D01*
X60495910Y-98749441D01*
X60708110Y-98894431D01*
X60960000Y-98945440D01*
X62992000Y-98945440D01*
X63227317Y-98901162D01*
X63443441Y-98762090D01*
X63588431Y-98549890D01*
X63639440Y-98298000D01*
X63639440Y-97264000D01*
X67994560Y-97264000D01*
X67994560Y-98664000D01*
X68038838Y-98899317D01*
X68177910Y-99115441D01*
X68390110Y-99260431D01*
X68642000Y-99311440D01*
X70042000Y-99311440D01*
X70277317Y-99267162D01*
X70493441Y-99128090D01*
X70638431Y-98915890D01*
X70689440Y-98664000D01*
X70689440Y-98367694D01*
X84471226Y-98367694D01*
X84719538Y-98968655D01*
X85178927Y-99428846D01*
X85779453Y-99678206D01*
X86429694Y-99678774D01*
X86672779Y-99578333D01*
X101860854Y-99578333D01*
X101941231Y-99875710D01*
X102417045Y-100677009D01*
X103163284Y-101235227D01*
X104066340Y-101465380D01*
X105816400Y-101465380D01*
X105816400Y-99207320D01*
X106070400Y-99207320D01*
X106070400Y-101465380D01*
X107820460Y-101465380D01*
X108723516Y-101235227D01*
X109469755Y-100677009D01*
X109945569Y-99875710D01*
X110025946Y-99578333D01*
X109916145Y-99207320D01*
X106070400Y-99207320D01*
X105816400Y-99207320D01*
X101970655Y-99207320D01*
X101860854Y-99578333D01*
X86672779Y-99578333D01*
X87030655Y-99430462D01*
X87314612Y-99147000D01*
X89681208Y-99147000D01*
X89817910Y-99359441D01*
X90030110Y-99504431D01*
X90282000Y-99555440D01*
X91582000Y-99555440D01*
X91817317Y-99511162D01*
X92033441Y-99372090D01*
X92178431Y-99159890D01*
X92229440Y-98908000D01*
X92229440Y-97608000D01*
X92185162Y-97372683D01*
X92046090Y-97156559D01*
X91833890Y-97011569D01*
X91582000Y-96960560D01*
X91386540Y-96960560D01*
X91658943Y-96848005D01*
X91970983Y-96536510D01*
X94105990Y-96536510D01*
X94105990Y-98535490D01*
X94150268Y-98770807D01*
X94289340Y-98986931D01*
X94501540Y-99131921D01*
X94753430Y-99182930D01*
X96752410Y-99182930D01*
X96987727Y-99138652D01*
X97203851Y-98999580D01*
X97348841Y-98787380D01*
X97390369Y-98582307D01*
X101860854Y-98582307D01*
X101970655Y-98953320D01*
X105816400Y-98953320D01*
X105816400Y-96695260D01*
X106070400Y-96695260D01*
X106070400Y-98953320D01*
X109916145Y-98953320D01*
X110025946Y-98582307D01*
X109945569Y-98284930D01*
X109469755Y-97483631D01*
X108723516Y-96925413D01*
X107820460Y-96695260D01*
X106070400Y-96695260D01*
X105816400Y-96695260D01*
X104066340Y-96695260D01*
X103163284Y-96925413D01*
X102417045Y-97483631D01*
X101941231Y-98284930D01*
X101860854Y-98582307D01*
X97390369Y-98582307D01*
X97399850Y-98535490D01*
X97399850Y-96536510D01*
X97355572Y-96301193D01*
X97216500Y-96085069D01*
X97004300Y-95940079D01*
X96752410Y-95889070D01*
X94753430Y-95889070D01*
X94518113Y-95933348D01*
X94301989Y-96072420D01*
X94156999Y-96284620D01*
X94105990Y-96536510D01*
X91970983Y-96536510D01*
X92020735Y-96486845D01*
X92216777Y-96014724D01*
X92217025Y-95730211D01*
X93078236Y-94869000D01*
X100093432Y-94869000D01*
X100177468Y-94994769D01*
X100643048Y-95305860D01*
X101192237Y-95415100D01*
X102165243Y-95415100D01*
X102714432Y-95305860D01*
X103180012Y-94994769D01*
X103491103Y-94529189D01*
X103600343Y-93980000D01*
X103491103Y-93430811D01*
X103180012Y-92965231D01*
X102828821Y-92730572D01*
X103232892Y-92405607D01*
X103502781Y-91912497D01*
X103520323Y-91829695D01*
X103398336Y-91607640D01*
X101805740Y-91607640D01*
X101805740Y-91627640D01*
X101551740Y-91627640D01*
X101551740Y-91607640D01*
X99959144Y-91607640D01*
X99837157Y-91829695D01*
X99854699Y-91912497D01*
X100124588Y-92405607D01*
X100528659Y-92730572D01*
X100177468Y-92965231D01*
X100093432Y-93091000D01*
X92710000Y-93091000D01*
X92369794Y-93158671D01*
X92135707Y-93315083D01*
X92081382Y-93351382D01*
X90959741Y-94473023D01*
X90677519Y-94472777D01*
X90205057Y-94667995D01*
X89843265Y-95029155D01*
X89647223Y-95501276D01*
X89646777Y-96012481D01*
X89841995Y-96484943D01*
X90203155Y-96846735D01*
X90477276Y-96960560D01*
X90282000Y-96960560D01*
X90046683Y-97004838D01*
X89830559Y-97143910D01*
X89685569Y-97356110D01*
X89682959Y-97369000D01*
X87595617Y-97369000D01*
X87492462Y-97119345D01*
X87033073Y-96659154D01*
X86432547Y-96409794D01*
X85782306Y-96409226D01*
X85181345Y-96657538D01*
X84721154Y-97116927D01*
X84471794Y-97717453D01*
X84471226Y-98367694D01*
X70689440Y-98367694D01*
X70689440Y-97264000D01*
X70645162Y-97028683D01*
X70506090Y-96812559D01*
X70293890Y-96667569D01*
X70042000Y-96616560D01*
X68642000Y-96616560D01*
X68406683Y-96660838D01*
X68190559Y-96799910D01*
X68045569Y-97012110D01*
X67994560Y-97264000D01*
X63639440Y-97264000D01*
X63639440Y-96335694D01*
X72279226Y-96335694D01*
X72527538Y-96936655D01*
X72986927Y-97396846D01*
X73587453Y-97646206D01*
X74237694Y-97646774D01*
X74838655Y-97398462D01*
X75298846Y-96939073D01*
X75548206Y-96338547D01*
X75548208Y-96335694D01*
X75835226Y-96335694D01*
X76083538Y-96936655D01*
X76542927Y-97396846D01*
X77143453Y-97646206D01*
X77793694Y-97646774D01*
X78394655Y-97398462D01*
X78854846Y-96939073D01*
X79104206Y-96338547D01*
X79104774Y-95688306D01*
X78856462Y-95087345D01*
X78397073Y-94627154D01*
X77796547Y-94377794D01*
X77146306Y-94377226D01*
X76545345Y-94625538D01*
X76085154Y-95084927D01*
X75835794Y-95685453D01*
X75835226Y-96335694D01*
X75548208Y-96335694D01*
X75548774Y-95688306D01*
X75300462Y-95087345D01*
X74841073Y-94627154D01*
X74240547Y-94377794D01*
X73590306Y-94377226D01*
X72989345Y-94625538D01*
X72529154Y-95084927D01*
X72279794Y-95685453D01*
X72279226Y-96335694D01*
X63639440Y-96335694D01*
X63639440Y-96266000D01*
X63595162Y-96030683D01*
X63456090Y-95814559D01*
X63307163Y-95712802D01*
X63533670Y-95373810D01*
X63659345Y-94742000D01*
X63533670Y-94110190D01*
X63175778Y-93574567D01*
X62657678Y-93228383D01*
X68006769Y-93228383D01*
X68209582Y-93719229D01*
X68584796Y-94095098D01*
X69075287Y-94298768D01*
X69606383Y-94299231D01*
X70097229Y-94096418D01*
X70473098Y-93721204D01*
X70676768Y-93230713D01*
X70677231Y-92699617D01*
X70474418Y-92208771D01*
X70099204Y-91832902D01*
X69608713Y-91629232D01*
X69077617Y-91628769D01*
X68586771Y-91831582D01*
X68210902Y-92206796D01*
X68007232Y-92697287D01*
X68006769Y-93228383D01*
X62657678Y-93228383D01*
X62640155Y-93216675D01*
X62008345Y-93091000D01*
X61943655Y-93091000D01*
X61311845Y-93216675D01*
X60776222Y-93574567D01*
X60418330Y-94110190D01*
X60292655Y-94742000D01*
X59131200Y-94742000D01*
X59131200Y-87438000D01*
X59184560Y-87438000D01*
X59184560Y-88838000D01*
X59228838Y-89073317D01*
X59367910Y-89289441D01*
X59580110Y-89434431D01*
X59832000Y-89485440D01*
X61232000Y-89485440D01*
X61467317Y-89441162D01*
X61683441Y-89302090D01*
X61828431Y-89089890D01*
X61831795Y-89073275D01*
X64776331Y-89073275D01*
X64838169Y-89309042D01*
X65339122Y-89485419D01*
X65869440Y-89456664D01*
X66225831Y-89309042D01*
X66287669Y-89073275D01*
X65532000Y-88317605D01*
X64776331Y-89073275D01*
X61831795Y-89073275D01*
X61879440Y-88838000D01*
X61879440Y-87945122D01*
X64184581Y-87945122D01*
X64213336Y-88475440D01*
X64360958Y-88831831D01*
X64596725Y-88893669D01*
X65352395Y-88138000D01*
X65711605Y-88138000D01*
X66467275Y-88893669D01*
X66703042Y-88831831D01*
X66743931Y-88715694D01*
X72279226Y-88715694D01*
X72527538Y-89316655D01*
X72986927Y-89776846D01*
X73587453Y-90026206D01*
X74237694Y-90026774D01*
X74803000Y-89793194D01*
X74803000Y-92090081D01*
X74788138Y-92104917D01*
X74625385Y-92496869D01*
X74625015Y-92921269D01*
X74787084Y-93313504D01*
X75086917Y-93613862D01*
X75478869Y-93776615D01*
X75903269Y-93776985D01*
X76295504Y-93614916D01*
X76595862Y-93315083D01*
X76758615Y-92923131D01*
X76758985Y-92498731D01*
X76596916Y-92106496D01*
X76581000Y-92090552D01*
X76581000Y-89792655D01*
X77143453Y-90026206D01*
X77793694Y-90026774D01*
X78394655Y-89778462D01*
X78854846Y-89319073D01*
X79104206Y-88718547D01*
X79104774Y-88068306D01*
X78856462Y-87467345D01*
X78397073Y-87007154D01*
X77796547Y-86757794D01*
X77146306Y-86757226D01*
X76581000Y-86990806D01*
X76581000Y-84582000D01*
X76513329Y-84241794D01*
X76320618Y-83953382D01*
X76041412Y-83674176D01*
X76056206Y-83638547D01*
X76056774Y-82988306D01*
X75808462Y-82387345D01*
X75674620Y-82253269D01*
X79197015Y-82253269D01*
X79359084Y-82645504D01*
X79375000Y-82661448D01*
X79375000Y-93868081D01*
X79360138Y-93882917D01*
X79197385Y-94274869D01*
X79197015Y-94699269D01*
X79359084Y-95091504D01*
X79658917Y-95391862D01*
X80050869Y-95554615D01*
X80475269Y-95554985D01*
X80687076Y-95467468D01*
X80629285Y-95758000D01*
X80711844Y-96173051D01*
X80946951Y-96524914D01*
X81298814Y-96760021D01*
X81713865Y-96842580D01*
X82370135Y-96842580D01*
X82785186Y-96760021D01*
X83137049Y-96524914D01*
X83372156Y-96173051D01*
X83454715Y-95758000D01*
X83372156Y-95342949D01*
X83225191Y-95123000D01*
X83372156Y-94903051D01*
X83454715Y-94488000D01*
X83372156Y-94072949D01*
X83225191Y-93853000D01*
X83372156Y-93633051D01*
X83454715Y-93218000D01*
X83372156Y-92802949D01*
X83137049Y-92451086D01*
X82785186Y-92215979D01*
X82370135Y-92133420D01*
X81713865Y-92133420D01*
X81298814Y-92215979D01*
X81153000Y-92313409D01*
X81153000Y-90312591D01*
X81298814Y-90410021D01*
X81713865Y-90492580D01*
X82370135Y-90492580D01*
X82785186Y-90410021D01*
X83137049Y-90174914D01*
X83372156Y-89823051D01*
X83439000Y-89487004D01*
X83439000Y-91328081D01*
X83424138Y-91342917D01*
X83261385Y-91734869D01*
X83261015Y-92159269D01*
X83423084Y-92551504D01*
X83722917Y-92851862D01*
X84114869Y-93014615D01*
X84539269Y-93014985D01*
X84931504Y-92852916D01*
X85231862Y-92553083D01*
X85394615Y-92161131D01*
X85394844Y-91898502D01*
X85779453Y-92058206D01*
X86429694Y-92058774D01*
X87030655Y-91810462D01*
X87490846Y-91351073D01*
X87740206Y-90750547D01*
X87740774Y-90100306D01*
X87492462Y-89499345D01*
X87033073Y-89039154D01*
X86432547Y-88789794D01*
X85782306Y-88789226D01*
X85217000Y-89022806D01*
X85217000Y-87741919D01*
X85231862Y-87727083D01*
X85394615Y-87335131D01*
X85394985Y-86910731D01*
X85359673Y-86825269D01*
X85801015Y-86825269D01*
X85963084Y-87217504D01*
X86262917Y-87517862D01*
X86654869Y-87680615D01*
X87079269Y-87680985D01*
X87471504Y-87518916D01*
X87487448Y-87503000D01*
X89296081Y-87503000D01*
X89310917Y-87517862D01*
X89651325Y-87659212D01*
X89634560Y-87742000D01*
X89634560Y-89042000D01*
X89678838Y-89277317D01*
X89817910Y-89493441D01*
X90030110Y-89638431D01*
X90282000Y-89689440D01*
X90477460Y-89689440D01*
X90205057Y-89801995D01*
X89843265Y-90163155D01*
X89647223Y-90635276D01*
X89646777Y-91146481D01*
X89841995Y-91618943D01*
X90203155Y-91980735D01*
X90675276Y-92176777D01*
X91186481Y-92177223D01*
X91658943Y-91982005D01*
X92020735Y-91620845D01*
X92216777Y-91148724D01*
X92216791Y-91131585D01*
X99837157Y-91131585D01*
X99959144Y-91353640D01*
X101551740Y-91353640D01*
X101551740Y-90045540D01*
X101805740Y-90045540D01*
X101805740Y-91353640D01*
X103398336Y-91353640D01*
X103520323Y-91131585D01*
X103519547Y-91127924D01*
X104066340Y-91267280D01*
X105816400Y-91267280D01*
X105816400Y-89009220D01*
X106070400Y-89009220D01*
X106070400Y-91267280D01*
X107820460Y-91267280D01*
X108723516Y-91037127D01*
X109469755Y-90478909D01*
X109945569Y-89677610D01*
X110025946Y-89380233D01*
X109916145Y-89009220D01*
X106070400Y-89009220D01*
X105816400Y-89009220D01*
X101970655Y-89009220D01*
X101860854Y-89380233D01*
X101941231Y-89677610D01*
X102159709Y-90045540D01*
X101805740Y-90045540D01*
X101551740Y-90045540D01*
X101102160Y-90045540D01*
X100562638Y-90203381D01*
X100124588Y-90555673D01*
X99854699Y-91048783D01*
X99837157Y-91131585D01*
X92216791Y-91131585D01*
X92217223Y-90637519D01*
X92022005Y-90165057D01*
X91660845Y-89803265D01*
X91386724Y-89689440D01*
X91582000Y-89689440D01*
X91817317Y-89645162D01*
X92033441Y-89506090D01*
X92178431Y-89293890D01*
X92229440Y-89042000D01*
X92229440Y-87742000D01*
X92221480Y-87699694D01*
X94118146Y-87699694D01*
X94366458Y-88300655D01*
X94825847Y-88760846D01*
X95426373Y-89010206D01*
X96076614Y-89010774D01*
X96677575Y-88762462D01*
X97056490Y-88384207D01*
X101860854Y-88384207D01*
X101970655Y-88755220D01*
X105816400Y-88755220D01*
X105816400Y-86497160D01*
X106070400Y-86497160D01*
X106070400Y-88755220D01*
X109916145Y-88755220D01*
X110025946Y-88384207D01*
X109945569Y-88086830D01*
X109469755Y-87285531D01*
X108723516Y-86727313D01*
X107820460Y-86497160D01*
X106070400Y-86497160D01*
X105816400Y-86497160D01*
X104066340Y-86497160D01*
X103163284Y-86727313D01*
X102417045Y-87285531D01*
X101941231Y-88086830D01*
X101860854Y-88384207D01*
X97056490Y-88384207D01*
X97137766Y-88303073D01*
X97387126Y-87702547D01*
X97387694Y-87052306D01*
X97139382Y-86451345D01*
X96679993Y-85991154D01*
X96079467Y-85741794D01*
X95429226Y-85741226D01*
X94828265Y-85989538D01*
X94368074Y-86448927D01*
X94118714Y-87049453D01*
X94118146Y-87699694D01*
X92221480Y-87699694D01*
X92185162Y-87506683D01*
X92046090Y-87290559D01*
X91833890Y-87145569D01*
X91582000Y-87094560D01*
X90871569Y-87094560D01*
X90982615Y-86827131D01*
X90982985Y-86402731D01*
X90820916Y-86010496D01*
X90521083Y-85710138D01*
X90129131Y-85547385D01*
X89704731Y-85547015D01*
X89312496Y-85709084D01*
X89296552Y-85725000D01*
X87487919Y-85725000D01*
X87473083Y-85710138D01*
X87081131Y-85547385D01*
X86656731Y-85547015D01*
X86264496Y-85709084D01*
X85964138Y-86008917D01*
X85801385Y-86400869D01*
X85801015Y-86825269D01*
X85359673Y-86825269D01*
X85232916Y-86518496D01*
X84933083Y-86218138D01*
X84541131Y-86055385D01*
X84116731Y-86055015D01*
X83724496Y-86217084D01*
X83424138Y-86516917D01*
X83397595Y-86580839D01*
X83372156Y-86452949D01*
X83137049Y-86101086D01*
X82785186Y-85865979D01*
X82370135Y-85783420D01*
X81713865Y-85783420D01*
X81298814Y-85865979D01*
X81153000Y-85963409D01*
X81153000Y-83714107D01*
X110775498Y-83714107D01*
X110876120Y-83982622D01*
X111491642Y-84211816D01*
X112148019Y-84188014D01*
X112643880Y-83982622D01*
X112744502Y-83714107D01*
X111760000Y-82729605D01*
X110775498Y-83714107D01*
X81153000Y-83714107D01*
X81153000Y-82661919D01*
X81167862Y-82647083D01*
X81330615Y-82255131D01*
X81330717Y-82137039D01*
X83602096Y-82137039D01*
X83619633Y-82219819D01*
X83889500Y-82712896D01*
X84327517Y-83065166D01*
X84867000Y-83223000D01*
X85217000Y-83223000D01*
X85217000Y-81915000D01*
X85471000Y-81915000D01*
X85471000Y-83223000D01*
X85821000Y-83223000D01*
X86360483Y-83065166D01*
X86798500Y-82712896D01*
X87068367Y-82219819D01*
X87085904Y-82137039D01*
X86963915Y-81915000D01*
X85471000Y-81915000D01*
X85217000Y-81915000D01*
X83724085Y-81915000D01*
X83602096Y-82137039D01*
X81330717Y-82137039D01*
X81330985Y-81830731D01*
X81168916Y-81438496D01*
X80869083Y-81138138D01*
X80477131Y-80975385D01*
X80052731Y-80975015D01*
X79660496Y-81137084D01*
X79360138Y-81436917D01*
X79197385Y-81828869D01*
X79197015Y-82253269D01*
X75674620Y-82253269D01*
X75349073Y-81927154D01*
X74748547Y-81677794D01*
X74098306Y-81677226D01*
X73497345Y-81925538D01*
X73037154Y-82384927D01*
X72787794Y-82985453D01*
X72787226Y-83635694D01*
X73035538Y-84236655D01*
X73494927Y-84696846D01*
X74095453Y-84946206D01*
X74745694Y-84946774D01*
X74783795Y-84931031D01*
X74803000Y-84950236D01*
X74803000Y-86991345D01*
X74240547Y-86757794D01*
X73590306Y-86757226D01*
X72989345Y-87005538D01*
X72529154Y-87464927D01*
X72279794Y-88065453D01*
X72279226Y-88715694D01*
X66743931Y-88715694D01*
X66879419Y-88330878D01*
X66850664Y-87800560D01*
X66703042Y-87444169D01*
X66467275Y-87382331D01*
X65711605Y-88138000D01*
X65352395Y-88138000D01*
X64596725Y-87382331D01*
X64360958Y-87444169D01*
X64184581Y-87945122D01*
X61879440Y-87945122D01*
X61879440Y-87438000D01*
X61835170Y-87202725D01*
X64776331Y-87202725D01*
X65532000Y-87958395D01*
X66287669Y-87202725D01*
X66225831Y-86966958D01*
X65724878Y-86790581D01*
X65194560Y-86819336D01*
X64838169Y-86966958D01*
X64776331Y-87202725D01*
X61835170Y-87202725D01*
X61835162Y-87202683D01*
X61696090Y-86986559D01*
X61483890Y-86841569D01*
X61232000Y-86790560D01*
X59832000Y-86790560D01*
X59596683Y-86834838D01*
X59380559Y-86973910D01*
X59235569Y-87186110D01*
X59184560Y-87438000D01*
X59131200Y-87438000D01*
X59131200Y-83739275D01*
X62490331Y-83739275D01*
X62552169Y-83975042D01*
X63053122Y-84151419D01*
X63583440Y-84122664D01*
X63939831Y-83975042D01*
X64001669Y-83739275D01*
X63246000Y-82983605D01*
X62490331Y-83739275D01*
X59131200Y-83739275D01*
X59131200Y-82611122D01*
X61898581Y-82611122D01*
X61927336Y-83141440D01*
X62074958Y-83497831D01*
X62310725Y-83559669D01*
X63066395Y-82804000D01*
X63425605Y-82804000D01*
X64181275Y-83559669D01*
X64417042Y-83497831D01*
X64457931Y-83381694D01*
X67961226Y-83381694D01*
X68209538Y-83982655D01*
X68668927Y-84442846D01*
X69269453Y-84692206D01*
X69919694Y-84692774D01*
X70520655Y-84444462D01*
X70980846Y-83985073D01*
X71230206Y-83384547D01*
X71230774Y-82734306D01*
X70982462Y-82133345D01*
X70523073Y-81673154D01*
X69922547Y-81423794D01*
X69272306Y-81423226D01*
X68671345Y-81671538D01*
X68211154Y-82130927D01*
X67961794Y-82731453D01*
X67961226Y-83381694D01*
X64457931Y-83381694D01*
X64593419Y-82996878D01*
X64564664Y-82466560D01*
X64417042Y-82110169D01*
X64181275Y-82048331D01*
X63425605Y-82804000D01*
X63066395Y-82804000D01*
X62310725Y-82048331D01*
X62074958Y-82110169D01*
X61898581Y-82611122D01*
X59131200Y-82611122D01*
X59131200Y-81868725D01*
X62490331Y-81868725D01*
X63246000Y-82624395D01*
X64001669Y-81868725D01*
X63939831Y-81632958D01*
X63438878Y-81456581D01*
X62908560Y-81485336D01*
X62552169Y-81632958D01*
X62490331Y-81868725D01*
X59131200Y-81868725D01*
X59131200Y-77104000D01*
X61898560Y-77104000D01*
X61898560Y-78504000D01*
X61942838Y-78739317D01*
X62081910Y-78955441D01*
X62294110Y-79100431D01*
X62546000Y-79151440D01*
X63946000Y-79151440D01*
X64181317Y-79107162D01*
X64397441Y-78968090D01*
X64542431Y-78755890D01*
X64593440Y-78504000D01*
X64593440Y-77104000D01*
X64549162Y-76868683D01*
X64410090Y-76652559D01*
X64197890Y-76507569D01*
X63946000Y-76456560D01*
X62546000Y-76456560D01*
X62310683Y-76500838D01*
X62094559Y-76639910D01*
X61949569Y-76852110D01*
X61898560Y-77104000D01*
X59131200Y-77104000D01*
X59131200Y-72502000D01*
X60424560Y-72502000D01*
X60424560Y-73802000D01*
X60468838Y-74037317D01*
X60607910Y-74253441D01*
X60820110Y-74398431D01*
X61072000Y-74449440D01*
X62372000Y-74449440D01*
X62607317Y-74405162D01*
X62823441Y-74266090D01*
X62968431Y-74053890D01*
X62969012Y-74051016D01*
X63502590Y-74051016D01*
X63558271Y-74281611D01*
X64041078Y-74449622D01*
X64551428Y-74420083D01*
X64885729Y-74281611D01*
X64941410Y-74051016D01*
X64222000Y-73331605D01*
X63502590Y-74051016D01*
X62969012Y-74051016D01*
X63019440Y-73802000D01*
X63019440Y-73639615D01*
X63092389Y-73815729D01*
X63322984Y-73871410D01*
X64042395Y-73152000D01*
X64401605Y-73152000D01*
X65121016Y-73871410D01*
X65351611Y-73815729D01*
X65519622Y-73332922D01*
X65490083Y-72822572D01*
X65351611Y-72488271D01*
X65121016Y-72432590D01*
X64401605Y-73152000D01*
X64042395Y-73152000D01*
X63322984Y-72432590D01*
X63092389Y-72488271D01*
X63019440Y-72697902D01*
X63019440Y-72502000D01*
X62975162Y-72266683D01*
X62966347Y-72252984D01*
X63502590Y-72252984D01*
X64222000Y-72972395D01*
X64941410Y-72252984D01*
X64885729Y-72022389D01*
X64402922Y-71854378D01*
X63892572Y-71883917D01*
X63558271Y-72022389D01*
X63502590Y-72252984D01*
X62966347Y-72252984D01*
X62836090Y-72050559D01*
X62623890Y-71905569D01*
X62372000Y-71854560D01*
X61072000Y-71854560D01*
X60836683Y-71898838D01*
X60620559Y-72037910D01*
X60475569Y-72250110D01*
X60424560Y-72502000D01*
X59131200Y-72502000D01*
X59131200Y-66356000D01*
X61390560Y-66356000D01*
X61390560Y-67756000D01*
X61434838Y-67991317D01*
X61573910Y-68207441D01*
X61786110Y-68352431D01*
X61869968Y-68369413D01*
X61916671Y-68604206D01*
X62030861Y-68775103D01*
X62109382Y-68892618D01*
X63441382Y-70224618D01*
X63729794Y-70417329D01*
X64070000Y-70485000D01*
X66182081Y-70485000D01*
X66196917Y-70499862D01*
X66588869Y-70662615D01*
X67013269Y-70662985D01*
X67405504Y-70500916D01*
X67691000Y-70215919D01*
X67691000Y-74422000D01*
X67758671Y-74762206D01*
X67879180Y-74942560D01*
X67951382Y-75050618D01*
X67976588Y-75075824D01*
X67961794Y-75111453D01*
X67961226Y-75761694D01*
X68209538Y-76362655D01*
X68668927Y-76822846D01*
X69269453Y-77072206D01*
X69919694Y-77072774D01*
X70520655Y-76824462D01*
X70980846Y-76365073D01*
X71125920Y-76015694D01*
X72787226Y-76015694D01*
X73035538Y-76616655D01*
X73494927Y-77076846D01*
X74095453Y-77326206D01*
X74745694Y-77326774D01*
X75346655Y-77078462D01*
X75806846Y-76619073D01*
X76056206Y-76018547D01*
X76056580Y-75590000D01*
X78966560Y-75590000D01*
X78966560Y-76890000D01*
X79010838Y-77125317D01*
X79149910Y-77341441D01*
X79362110Y-77486431D01*
X79614000Y-77537440D01*
X79809460Y-77537440D01*
X79537057Y-77649995D01*
X79175265Y-78011155D01*
X78979223Y-78483276D01*
X78978777Y-78994481D01*
X79173995Y-79466943D01*
X79535155Y-79828735D01*
X80007276Y-80024777D01*
X80518481Y-80025223D01*
X80990943Y-79830005D01*
X81352735Y-79468845D01*
X81548777Y-78996724D01*
X81549223Y-78485519D01*
X81354005Y-78013057D01*
X80992845Y-77651265D01*
X80718724Y-77537440D01*
X80914000Y-77537440D01*
X81149317Y-77493162D01*
X81365441Y-77354090D01*
X81510431Y-77141890D01*
X81561440Y-76890000D01*
X81561440Y-75590000D01*
X81517162Y-75354683D01*
X81378090Y-75138559D01*
X81165890Y-74993569D01*
X80914000Y-74942560D01*
X79614000Y-74942560D01*
X79378683Y-74986838D01*
X79162559Y-75125910D01*
X79017569Y-75338110D01*
X78966560Y-75590000D01*
X76056580Y-75590000D01*
X76056774Y-75368306D01*
X75808462Y-74767345D01*
X75349073Y-74307154D01*
X75013953Y-74168000D01*
X83524030Y-74168000D01*
X83633263Y-74717151D01*
X83944332Y-75182698D01*
X84326418Y-75438000D01*
X83944332Y-75693302D01*
X83633263Y-76158849D01*
X83524030Y-76708000D01*
X83633263Y-77257151D01*
X83944332Y-77722698D01*
X84326418Y-77978000D01*
X83944332Y-78233302D01*
X83633263Y-78698849D01*
X83524030Y-79248000D01*
X83633263Y-79797151D01*
X83944332Y-80262698D01*
X84322151Y-80515149D01*
X83889500Y-80863104D01*
X83619633Y-81356181D01*
X83602096Y-81438961D01*
X83724085Y-81661000D01*
X85217000Y-81661000D01*
X85217000Y-81641000D01*
X85471000Y-81641000D01*
X85471000Y-81661000D01*
X86963915Y-81661000D01*
X87085904Y-81438961D01*
X87068367Y-81356181D01*
X86798500Y-80863104D01*
X86365849Y-80515149D01*
X86743668Y-80262698D01*
X87054737Y-79797151D01*
X87163970Y-79248000D01*
X87054737Y-78698849D01*
X86743668Y-78233302D01*
X86361582Y-77978000D01*
X86743668Y-77722698D01*
X87054737Y-77257151D01*
X87163970Y-76708000D01*
X87054737Y-76158849D01*
X86743668Y-75693302D01*
X86361582Y-75438000D01*
X86743668Y-75182698D01*
X86827657Y-75057000D01*
X91480343Y-75057000D01*
X91564332Y-75182698D01*
X91946418Y-75438000D01*
X91564332Y-75693302D01*
X91253263Y-76158849D01*
X91144030Y-76708000D01*
X91253263Y-77257151D01*
X91564332Y-77722698D01*
X91946418Y-77978000D01*
X91564332Y-78233302D01*
X91253263Y-78698849D01*
X91144030Y-79248000D01*
X91253263Y-79797151D01*
X91564332Y-80262698D01*
X91946418Y-80518000D01*
X91564332Y-80773302D01*
X91253263Y-81238849D01*
X91144030Y-81788000D01*
X91253263Y-82337151D01*
X91564332Y-82802698D01*
X92029879Y-83113767D01*
X92579030Y-83223000D01*
X93348970Y-83223000D01*
X93898121Y-83113767D01*
X94363668Y-82802698D01*
X94586454Y-82469275D01*
X102368331Y-82469275D01*
X102430169Y-82705042D01*
X102931122Y-82881419D01*
X103461440Y-82852664D01*
X103817831Y-82705042D01*
X103879669Y-82469275D01*
X103124000Y-81713605D01*
X102368331Y-82469275D01*
X94586454Y-82469275D01*
X94674737Y-82337151D01*
X94783970Y-81788000D01*
X94674737Y-81238849D01*
X94363668Y-80773302D01*
X94085887Y-80587694D01*
X95901226Y-80587694D01*
X96149538Y-81188655D01*
X96608927Y-81648846D01*
X97209453Y-81898206D01*
X97859694Y-81898774D01*
X98460655Y-81650462D01*
X98770535Y-81341122D01*
X101776581Y-81341122D01*
X101805336Y-81871440D01*
X101952958Y-82227831D01*
X102188725Y-82289669D01*
X102944395Y-81534000D01*
X103303605Y-81534000D01*
X104059275Y-82289669D01*
X104089879Y-82281642D01*
X110098184Y-82281642D01*
X110121986Y-82938019D01*
X110327378Y-83433880D01*
X110595893Y-83534502D01*
X111580395Y-82550000D01*
X111939605Y-82550000D01*
X112924107Y-83534502D01*
X113192622Y-83433880D01*
X113421816Y-82818358D01*
X113398014Y-82161981D01*
X113192622Y-81666120D01*
X112924107Y-81565498D01*
X111939605Y-82550000D01*
X111580395Y-82550000D01*
X110595893Y-81565498D01*
X110327378Y-81666120D01*
X110098184Y-82281642D01*
X104089879Y-82281642D01*
X104295042Y-82227831D01*
X104471419Y-81726878D01*
X104452931Y-81385893D01*
X110775498Y-81385893D01*
X111760000Y-82370395D01*
X112744502Y-81385893D01*
X112643880Y-81117378D01*
X112028358Y-80888184D01*
X111371981Y-80911986D01*
X110876120Y-81117378D01*
X110775498Y-81385893D01*
X104452931Y-81385893D01*
X104442664Y-81196560D01*
X104295042Y-80840169D01*
X104059275Y-80778331D01*
X103303605Y-81534000D01*
X102944395Y-81534000D01*
X102188725Y-80778331D01*
X101952958Y-80840169D01*
X101776581Y-81341122D01*
X98770535Y-81341122D01*
X98920846Y-81191073D01*
X99166810Y-80598725D01*
X102368331Y-80598725D01*
X103124000Y-81354395D01*
X103879669Y-80598725D01*
X103817831Y-80362958D01*
X103316878Y-80186581D01*
X102786560Y-80215336D01*
X102430169Y-80362958D01*
X102368331Y-80598725D01*
X99166810Y-80598725D01*
X99170206Y-80590547D01*
X99170774Y-79940306D01*
X98922462Y-79339345D01*
X98463073Y-78879154D01*
X97862547Y-78629794D01*
X97212306Y-78629226D01*
X96611345Y-78877538D01*
X96151154Y-79336927D01*
X95901794Y-79937453D01*
X95901226Y-80587694D01*
X94085887Y-80587694D01*
X93981582Y-80518000D01*
X94363668Y-80262698D01*
X94674737Y-79797151D01*
X94783970Y-79248000D01*
X94674737Y-78698849D01*
X94363668Y-78233302D01*
X93981582Y-77978000D01*
X94363668Y-77722698D01*
X94674737Y-77257151D01*
X94783970Y-76708000D01*
X94674737Y-76158849D01*
X94457680Y-75834000D01*
X101776560Y-75834000D01*
X101776560Y-77234000D01*
X101820838Y-77469317D01*
X101959910Y-77685441D01*
X102172110Y-77830431D01*
X102424000Y-77881440D01*
X103824000Y-77881440D01*
X104059317Y-77837162D01*
X104275441Y-77698090D01*
X104420431Y-77485890D01*
X104471440Y-77234000D01*
X104471440Y-75834000D01*
X104427162Y-75598683D01*
X104288090Y-75382559D01*
X104075890Y-75237569D01*
X103824000Y-75186560D01*
X102424000Y-75186560D01*
X102188683Y-75230838D01*
X101972559Y-75369910D01*
X101827569Y-75582110D01*
X101776560Y-75834000D01*
X94457680Y-75834000D01*
X94363668Y-75693302D01*
X93981582Y-75438000D01*
X94363668Y-75182698D01*
X94674737Y-74717151D01*
X94783970Y-74168000D01*
X94674737Y-73618849D01*
X94363668Y-73153302D01*
X94085887Y-72967694D01*
X95901226Y-72967694D01*
X96149538Y-73568655D01*
X96608927Y-74028846D01*
X97209453Y-74278206D01*
X97859694Y-74278774D01*
X98460655Y-74030462D01*
X98920846Y-73571073D01*
X99170206Y-72970547D01*
X99170712Y-72390481D01*
X100354777Y-72390481D01*
X100549995Y-72862943D01*
X100911155Y-73224735D01*
X101383276Y-73420777D01*
X101894481Y-73421223D01*
X102366943Y-73226005D01*
X102728735Y-72864845D01*
X102842560Y-72590724D01*
X102842560Y-72786000D01*
X102886838Y-73021317D01*
X103025910Y-73237441D01*
X103238110Y-73382431D01*
X103490000Y-73433440D01*
X104790000Y-73433440D01*
X105025317Y-73389162D01*
X105241441Y-73250090D01*
X105386431Y-73037890D01*
X105437440Y-72786000D01*
X105437440Y-71486000D01*
X105393162Y-71250683D01*
X105254090Y-71034559D01*
X105041890Y-70889569D01*
X104790000Y-70838560D01*
X103490000Y-70838560D01*
X103254683Y-70882838D01*
X103038559Y-71021910D01*
X102893569Y-71234110D01*
X102842560Y-71486000D01*
X102842560Y-71681460D01*
X102730005Y-71409057D01*
X102368845Y-71047265D01*
X101896724Y-70851223D01*
X101385519Y-70850777D01*
X100913057Y-71045995D01*
X100551265Y-71407155D01*
X100355223Y-71879276D01*
X100354777Y-72390481D01*
X99170712Y-72390481D01*
X99170774Y-72320306D01*
X98922462Y-71719345D01*
X98463073Y-71259154D01*
X97862547Y-71009794D01*
X97212306Y-71009226D01*
X96611345Y-71257538D01*
X96151154Y-71716927D01*
X95901794Y-72317453D01*
X95901226Y-72967694D01*
X94085887Y-72967694D01*
X93898121Y-72842233D01*
X93348970Y-72733000D01*
X92579030Y-72733000D01*
X92029879Y-72842233D01*
X91564332Y-73153302D01*
X91480343Y-73279000D01*
X86827657Y-73279000D01*
X86743668Y-73153302D01*
X86278121Y-72842233D01*
X85728970Y-72733000D01*
X84959030Y-72733000D01*
X84409879Y-72842233D01*
X83944332Y-73153302D01*
X83633263Y-73618849D01*
X83524030Y-74168000D01*
X75013953Y-74168000D01*
X74748547Y-74057794D01*
X74098306Y-74057226D01*
X73497345Y-74305538D01*
X73037154Y-74764927D01*
X72787794Y-75365453D01*
X72787226Y-76015694D01*
X71125920Y-76015694D01*
X71230206Y-75764547D01*
X71230774Y-75114306D01*
X70982462Y-74513345D01*
X70523073Y-74053154D01*
X69922547Y-73803794D01*
X69469000Y-73803398D01*
X69469000Y-68964554D01*
X69720332Y-69340698D01*
X70185879Y-69651767D01*
X70735030Y-69761000D01*
X71504970Y-69761000D01*
X72054121Y-69651767D01*
X72519668Y-69340698D01*
X72830737Y-68875151D01*
X72939970Y-68326000D01*
X72830737Y-67776849D01*
X72519668Y-67311302D01*
X72137582Y-67056000D01*
X72519668Y-66800698D01*
X72830737Y-66335151D01*
X72939970Y-65786000D01*
X72830737Y-65236849D01*
X72519668Y-64771302D01*
X72137582Y-64516000D01*
X72519668Y-64260698D01*
X72830737Y-63795151D01*
X72939970Y-63246000D01*
X72830737Y-62696849D01*
X72519668Y-62231302D01*
X72137582Y-61976000D01*
X72519668Y-61720698D01*
X72830737Y-61255151D01*
X72939970Y-60706000D01*
X76920030Y-60706000D01*
X77029263Y-61255151D01*
X77340332Y-61720698D01*
X77722418Y-61976000D01*
X77340332Y-62231302D01*
X77029263Y-62696849D01*
X76920030Y-63246000D01*
X77029263Y-63795151D01*
X77340332Y-64260698D01*
X77722418Y-64516000D01*
X77340332Y-64771302D01*
X77029263Y-65236849D01*
X76920030Y-65786000D01*
X77029263Y-66335151D01*
X77340332Y-66800698D01*
X77722418Y-67056000D01*
X77340332Y-67311302D01*
X77029263Y-67776849D01*
X76920030Y-68326000D01*
X77029263Y-68875151D01*
X77340332Y-69340698D01*
X77805879Y-69651767D01*
X78355030Y-69761000D01*
X79124970Y-69761000D01*
X79674121Y-69651767D01*
X80139668Y-69340698D01*
X80450737Y-68875151D01*
X80559970Y-68326000D01*
X80523310Y-68141694D01*
X83455226Y-68141694D01*
X83703538Y-68742655D01*
X84162927Y-69202846D01*
X84763453Y-69452206D01*
X85413694Y-69452774D01*
X86014655Y-69204462D01*
X86474846Y-68745073D01*
X86724206Y-68144547D01*
X86724774Y-67494306D01*
X86476462Y-66893345D01*
X86017073Y-66433154D01*
X85416547Y-66183794D01*
X84766306Y-66183226D01*
X84165345Y-66431538D01*
X83705154Y-66890927D01*
X83455794Y-67491453D01*
X83455226Y-68141694D01*
X80523310Y-68141694D01*
X80450737Y-67776849D01*
X80139668Y-67311302D01*
X79757582Y-67056000D01*
X80139668Y-66800698D01*
X80450737Y-66335151D01*
X80559970Y-65786000D01*
X80450737Y-65236849D01*
X80139668Y-64771302D01*
X79757582Y-64516000D01*
X80139668Y-64260698D01*
X80386681Y-63891016D01*
X89704590Y-63891016D01*
X89760271Y-64121611D01*
X90243078Y-64289622D01*
X90753428Y-64260083D01*
X91087729Y-64121611D01*
X91143410Y-63891016D01*
X90424000Y-63171605D01*
X89704590Y-63891016D01*
X80386681Y-63891016D01*
X80450737Y-63795151D01*
X80559970Y-63246000D01*
X80473459Y-62811078D01*
X89126378Y-62811078D01*
X89155917Y-63321428D01*
X89294389Y-63655729D01*
X89524984Y-63711410D01*
X90244395Y-62992000D01*
X90603605Y-62992000D01*
X91323016Y-63711410D01*
X91553611Y-63655729D01*
X91626560Y-63446098D01*
X91626560Y-63642000D01*
X91670838Y-63877317D01*
X91809910Y-64093441D01*
X92022110Y-64238431D01*
X92035000Y-64241041D01*
X92035000Y-64404000D01*
X92102671Y-64744206D01*
X92295382Y-65032618D01*
X94107000Y-66844236D01*
X94107000Y-66918849D01*
X94096462Y-66893345D01*
X93637073Y-66433154D01*
X93036547Y-66183794D01*
X92386306Y-66183226D01*
X91785345Y-66431538D01*
X91325154Y-66890927D01*
X91075794Y-67491453D01*
X91075226Y-68141694D01*
X91323538Y-68742655D01*
X91782927Y-69202846D01*
X92383453Y-69452206D01*
X93033694Y-69452774D01*
X93634655Y-69204462D01*
X94094846Y-68745073D01*
X94210684Y-68466103D01*
X94361012Y-68691084D01*
X94367382Y-68700618D01*
X95891382Y-70224618D01*
X96179794Y-70417329D01*
X96520000Y-70485000D01*
X105803764Y-70485000D01*
X106807000Y-71488236D01*
X106807000Y-75692000D01*
X106874671Y-76032206D01*
X107026430Y-76259329D01*
X107067382Y-76320618D01*
X108845382Y-78098618D01*
X109133794Y-78291329D01*
X109474000Y-78359000D01*
X110340942Y-78359000D01*
X110359534Y-78403995D01*
X110823563Y-78868834D01*
X111430155Y-79120713D01*
X112086963Y-79121286D01*
X112693995Y-78870466D01*
X113158834Y-78406437D01*
X113410713Y-77799845D01*
X113411286Y-77143037D01*
X113160466Y-76536005D01*
X112696437Y-76071166D01*
X112089845Y-75819287D01*
X111433037Y-75818714D01*
X110826005Y-76069534D01*
X110361166Y-76533563D01*
X110341468Y-76581000D01*
X109842236Y-76581000D01*
X108585000Y-75323764D01*
X108585000Y-72716963D01*
X110108714Y-72716963D01*
X110359534Y-73323995D01*
X110823563Y-73788834D01*
X111430155Y-74040713D01*
X112086963Y-74041286D01*
X112693995Y-73790466D01*
X113158834Y-73326437D01*
X113410713Y-72719845D01*
X113411286Y-72063037D01*
X113160466Y-71456005D01*
X112696437Y-70991166D01*
X112089845Y-70739287D01*
X111433037Y-70738714D01*
X110826005Y-70989534D01*
X110361166Y-71453563D01*
X110109287Y-72060155D01*
X110108714Y-72716963D01*
X108585000Y-72716963D01*
X108585000Y-71120000D01*
X108517329Y-70779794D01*
X108324618Y-70491382D01*
X106800618Y-68967382D01*
X106688726Y-68892618D01*
X106512206Y-68774671D01*
X106172000Y-68707000D01*
X96888236Y-68707000D01*
X95885000Y-67703764D01*
X95885000Y-66476000D01*
X95817330Y-66135795D01*
X95658440Y-65898000D01*
X96746560Y-65898000D01*
X96746560Y-67198000D01*
X96790838Y-67433317D01*
X96929910Y-67649441D01*
X97142110Y-67794431D01*
X97394000Y-67845440D01*
X98694000Y-67845440D01*
X98929317Y-67801162D01*
X99145441Y-67662090D01*
X99290431Y-67449890D01*
X99291012Y-67447016D01*
X99824590Y-67447016D01*
X99880271Y-67677611D01*
X100363078Y-67845622D01*
X100873428Y-67816083D01*
X101207729Y-67677611D01*
X101235155Y-67564026D01*
X103111077Y-67564026D01*
X103305945Y-68035642D01*
X103666460Y-68396786D01*
X104137736Y-68592477D01*
X104648026Y-68592923D01*
X105119642Y-68398055D01*
X105480786Y-68037540D01*
X105664209Y-67595808D01*
X105845945Y-68035642D01*
X106206460Y-68396786D01*
X106677736Y-68592477D01*
X107188026Y-68592923D01*
X107659642Y-68398055D01*
X108020786Y-68037540D01*
X108216477Y-67566264D01*
X108216923Y-67055974D01*
X108022055Y-66584358D01*
X107661540Y-66223214D01*
X107190264Y-66027523D01*
X106679974Y-66027077D01*
X106208358Y-66221945D01*
X105847214Y-66582460D01*
X105663791Y-67024192D01*
X105482055Y-66584358D01*
X105121540Y-66223214D01*
X104650264Y-66027523D01*
X104139974Y-66027077D01*
X103668358Y-66221945D01*
X103307214Y-66582460D01*
X103111523Y-67053736D01*
X103111077Y-67564026D01*
X101235155Y-67564026D01*
X101263410Y-67447016D01*
X100544000Y-66727605D01*
X99824590Y-67447016D01*
X99291012Y-67447016D01*
X99341440Y-67198000D01*
X99341440Y-67035615D01*
X99414389Y-67211729D01*
X99644984Y-67267410D01*
X100364395Y-66548000D01*
X100723605Y-66548000D01*
X101443016Y-67267410D01*
X101673611Y-67211729D01*
X101841622Y-66728922D01*
X101812083Y-66218572D01*
X101673611Y-65884271D01*
X101443016Y-65828590D01*
X100723605Y-66548000D01*
X100364395Y-66548000D01*
X99644984Y-65828590D01*
X99414389Y-65884271D01*
X99341440Y-66093902D01*
X99341440Y-65898000D01*
X99297162Y-65662683D01*
X99288347Y-65648984D01*
X99824590Y-65648984D01*
X100544000Y-66368395D01*
X101263410Y-65648984D01*
X101207729Y-65418389D01*
X100724922Y-65250378D01*
X100214572Y-65279917D01*
X99880271Y-65418389D01*
X99824590Y-65648984D01*
X99288347Y-65648984D01*
X99158090Y-65446559D01*
X98945890Y-65301569D01*
X98694000Y-65250560D01*
X97394000Y-65250560D01*
X97158683Y-65294838D01*
X96942559Y-65433910D01*
X96797569Y-65646110D01*
X96746560Y-65898000D01*
X95658440Y-65898000D01*
X95624618Y-65847382D01*
X93938969Y-64161733D01*
X94025441Y-64106090D01*
X94170431Y-63893890D01*
X94221440Y-63642000D01*
X94221440Y-62342000D01*
X94177162Y-62106683D01*
X94038090Y-61890559D01*
X93825890Y-61745569D01*
X93620617Y-61704000D01*
X98220560Y-61704000D01*
X98220560Y-63104000D01*
X98264838Y-63339317D01*
X98403910Y-63555441D01*
X98616110Y-63700431D01*
X98868000Y-63751440D01*
X100268000Y-63751440D01*
X100503317Y-63707162D01*
X100719441Y-63568090D01*
X100800656Y-63449227D01*
X105894378Y-63449227D01*
X106004328Y-63725649D01*
X106647455Y-63967569D01*
X107334206Y-63944961D01*
X107863672Y-63725649D01*
X107973622Y-63449227D01*
X106934000Y-62409605D01*
X105894378Y-63449227D01*
X100800656Y-63449227D01*
X100864431Y-63355890D01*
X100915440Y-63104000D01*
X100915440Y-61943455D01*
X105196431Y-61943455D01*
X105219039Y-62630206D01*
X105438351Y-63159672D01*
X105714773Y-63269622D01*
X106754395Y-62230000D01*
X107113605Y-62230000D01*
X108153227Y-63269622D01*
X108429649Y-63159672D01*
X108671569Y-62516545D01*
X108648961Y-61829794D01*
X108429649Y-61300328D01*
X108153227Y-61190378D01*
X107113605Y-62230000D01*
X106754395Y-62230000D01*
X105714773Y-61190378D01*
X105438351Y-61300328D01*
X105196431Y-61943455D01*
X100915440Y-61943455D01*
X100915440Y-61704000D01*
X100871162Y-61468683D01*
X100732090Y-61252559D01*
X100519890Y-61107569D01*
X100268000Y-61056560D01*
X98868000Y-61056560D01*
X98632683Y-61100838D01*
X98416559Y-61239910D01*
X98271569Y-61452110D01*
X98220560Y-61704000D01*
X93620617Y-61704000D01*
X93574000Y-61694560D01*
X92274000Y-61694560D01*
X92038683Y-61738838D01*
X91822559Y-61877910D01*
X91677569Y-62090110D01*
X91626560Y-62342000D01*
X91626560Y-62504385D01*
X91553611Y-62328271D01*
X91323016Y-62272590D01*
X90603605Y-62992000D01*
X90244395Y-62992000D01*
X89524984Y-62272590D01*
X89294389Y-62328271D01*
X89126378Y-62811078D01*
X80473459Y-62811078D01*
X80450737Y-62696849D01*
X80139668Y-62231302D01*
X79932661Y-62092984D01*
X89704590Y-62092984D01*
X90424000Y-62812395D01*
X91143410Y-62092984D01*
X91087729Y-61862389D01*
X90604922Y-61694378D01*
X90094572Y-61723917D01*
X89760271Y-61862389D01*
X89704590Y-62092984D01*
X79932661Y-62092984D01*
X79757582Y-61976000D01*
X80139668Y-61720698D01*
X80450737Y-61255151D01*
X80499346Y-61010773D01*
X105894378Y-61010773D01*
X106934000Y-62050395D01*
X107973622Y-61010773D01*
X107863672Y-60734351D01*
X107220545Y-60492431D01*
X106533794Y-60515039D01*
X106004328Y-60734351D01*
X105894378Y-61010773D01*
X80499346Y-61010773D01*
X80559970Y-60706000D01*
X80450737Y-60156849D01*
X80139668Y-59691302D01*
X79674121Y-59380233D01*
X79124970Y-59271000D01*
X78355030Y-59271000D01*
X77805879Y-59380233D01*
X77340332Y-59691302D01*
X77029263Y-60156849D01*
X76920030Y-60706000D01*
X72939970Y-60706000D01*
X72830737Y-60156849D01*
X72519668Y-59691302D01*
X72054121Y-59380233D01*
X71504970Y-59271000D01*
X70735030Y-59271000D01*
X70185879Y-59380233D01*
X69720332Y-59691302D01*
X69409263Y-60156849D01*
X69300030Y-60706000D01*
X69409263Y-61255151D01*
X69720332Y-61720698D01*
X70102418Y-61976000D01*
X69720332Y-62231302D01*
X69409263Y-62696849D01*
X69300030Y-63246000D01*
X69409263Y-63795151D01*
X69720332Y-64260698D01*
X70102418Y-64516000D01*
X69720332Y-64771302D01*
X69469000Y-65147446D01*
X69469000Y-65135919D01*
X69483862Y-65121083D01*
X69646615Y-64729131D01*
X69646985Y-64304731D01*
X69484916Y-63912496D01*
X69185083Y-63612138D01*
X68793131Y-63449385D01*
X68368731Y-63449015D01*
X67976496Y-63611084D01*
X67676138Y-63910917D01*
X67513385Y-64302869D01*
X67513015Y-64727269D01*
X67675084Y-65119504D01*
X67691000Y-65135448D01*
X67691000Y-68976552D01*
X67407083Y-68692138D01*
X67015131Y-68529385D01*
X66590731Y-68529015D01*
X66198496Y-68691084D01*
X66182552Y-68707000D01*
X64438236Y-68707000D01*
X63914561Y-68183325D01*
X64034431Y-68007890D01*
X64085440Y-67756000D01*
X64085440Y-66356000D01*
X64041162Y-66120683D01*
X63902090Y-65904559D01*
X63689890Y-65759569D01*
X63438000Y-65708560D01*
X62038000Y-65708560D01*
X61802683Y-65752838D01*
X61586559Y-65891910D01*
X61441569Y-66104110D01*
X61390560Y-66356000D01*
X59131200Y-66356000D01*
X59131200Y-62320383D01*
X61402769Y-62320383D01*
X61605582Y-62811229D01*
X61980796Y-63187098D01*
X62471287Y-63390768D01*
X63002383Y-63391231D01*
X63493229Y-63188418D01*
X63869098Y-62813204D01*
X64072768Y-62322713D01*
X64073231Y-61791617D01*
X63870418Y-61300771D01*
X63495204Y-60924902D01*
X63004713Y-60721232D01*
X62473617Y-60720769D01*
X61982771Y-60923582D01*
X61606902Y-61298796D01*
X61403232Y-61789287D01*
X61402769Y-62320383D01*
X59131200Y-62320383D01*
X59131200Y-59251694D01*
X83455226Y-59251694D01*
X83703538Y-59852655D01*
X84162927Y-60312846D01*
X84763453Y-60562206D01*
X85413694Y-60562774D01*
X86014655Y-60314462D01*
X86474846Y-59855073D01*
X86724206Y-59254547D01*
X86724208Y-59251694D01*
X91075226Y-59251694D01*
X91323538Y-59852655D01*
X91782927Y-60312846D01*
X92383453Y-60562206D01*
X93033694Y-60562774D01*
X93634655Y-60314462D01*
X94094846Y-59855073D01*
X94282374Y-59403455D01*
X110276431Y-59403455D01*
X110299039Y-60090206D01*
X110518351Y-60619672D01*
X110794773Y-60729622D01*
X111834395Y-59690000D01*
X110794773Y-58650378D01*
X110518351Y-58760328D01*
X110276431Y-59403455D01*
X94282374Y-59403455D01*
X94344206Y-59254547D01*
X94344774Y-58604306D01*
X94096462Y-58003345D01*
X93762084Y-57668383D01*
X98232769Y-57668383D01*
X98435582Y-58159229D01*
X98810796Y-58535098D01*
X99301287Y-58738768D01*
X99832383Y-58739231D01*
X100323229Y-58536418D01*
X100699098Y-58161204D01*
X100902768Y-57670713D01*
X100903000Y-57404026D01*
X103111077Y-57404026D01*
X103305945Y-57875642D01*
X103666460Y-58236786D01*
X104137736Y-58432477D01*
X104648026Y-58432923D01*
X105119642Y-58238055D01*
X105480786Y-57877540D01*
X105664209Y-57435808D01*
X105845945Y-57875642D01*
X106206460Y-58236786D01*
X106677736Y-58432477D01*
X107188026Y-58432923D01*
X107342181Y-58369227D01*
X110974378Y-58369227D01*
X110994574Y-58420000D01*
X110974378Y-58470773D01*
X111041446Y-58537841D01*
X111084328Y-58645649D01*
X111188403Y-58684798D01*
X112014000Y-59510395D01*
X112832836Y-58691559D01*
X112943672Y-58645649D01*
X112986554Y-58537841D01*
X113053622Y-58470773D01*
X113033426Y-58420000D01*
X113053622Y-58369227D01*
X112986554Y-58302159D01*
X112943672Y-58194351D01*
X112839597Y-58155202D01*
X112014000Y-57329605D01*
X111195164Y-58148441D01*
X111084328Y-58194351D01*
X111041446Y-58302159D01*
X110974378Y-58369227D01*
X107342181Y-58369227D01*
X107659642Y-58238055D01*
X108020786Y-57877540D01*
X108216477Y-57406264D01*
X108216923Y-56895974D01*
X108203487Y-56863455D01*
X110276431Y-56863455D01*
X110299039Y-57550206D01*
X110518351Y-58079672D01*
X110794773Y-58189622D01*
X111834395Y-57150000D01*
X110794773Y-56110378D01*
X110518351Y-56220328D01*
X110276431Y-56863455D01*
X108203487Y-56863455D01*
X108022055Y-56424358D01*
X107661540Y-56063214D01*
X107342587Y-55930773D01*
X110974378Y-55930773D01*
X112014000Y-56970395D01*
X113053622Y-55930773D01*
X112943672Y-55654351D01*
X112300545Y-55412431D01*
X111613794Y-55435039D01*
X111084328Y-55654351D01*
X110974378Y-55930773D01*
X107342587Y-55930773D01*
X107190264Y-55867523D01*
X106679974Y-55867077D01*
X106208358Y-56061945D01*
X105847214Y-56422460D01*
X105663791Y-56864192D01*
X105482055Y-56424358D01*
X105121540Y-56063214D01*
X104650264Y-55867523D01*
X104139974Y-55867077D01*
X103668358Y-56061945D01*
X103307214Y-56422460D01*
X103111523Y-56893736D01*
X103111077Y-57404026D01*
X100903000Y-57404026D01*
X100903231Y-57139617D01*
X100700418Y-56648771D01*
X100325204Y-56272902D01*
X99834713Y-56069232D01*
X99303617Y-56068769D01*
X98812771Y-56271582D01*
X98436902Y-56646796D01*
X98233232Y-57137287D01*
X98232769Y-57668383D01*
X93762084Y-57668383D01*
X93637073Y-57543154D01*
X93036547Y-57293794D01*
X92386306Y-57293226D01*
X91785345Y-57541538D01*
X91325154Y-58000927D01*
X91075794Y-58601453D01*
X91075226Y-59251694D01*
X86724208Y-59251694D01*
X86724774Y-58604306D01*
X86476462Y-58003345D01*
X86017073Y-57543154D01*
X85416547Y-57293794D01*
X84766306Y-57293226D01*
X84165345Y-57541538D01*
X83705154Y-58000927D01*
X83455794Y-58601453D01*
X83455226Y-59251694D01*
X59131200Y-59251694D01*
X59131200Y-54789865D01*
X61399420Y-54789865D01*
X61399420Y-55446135D01*
X61481979Y-55861186D01*
X61717086Y-56213049D01*
X62068949Y-56448156D01*
X62484000Y-56530715D01*
X62899051Y-56448156D01*
X63123238Y-56298359D01*
X63460065Y-56462981D01*
X63627000Y-56336068D01*
X63627000Y-55245000D01*
X63881000Y-55245000D01*
X63881000Y-56336068D01*
X64047935Y-56462981D01*
X64389000Y-56296288D01*
X64730065Y-56462981D01*
X64897000Y-56336068D01*
X64897000Y-55245000D01*
X65151000Y-55245000D01*
X65151000Y-56336068D01*
X65317935Y-56462981D01*
X65701111Y-56275706D01*
X65977420Y-55951373D01*
X66108580Y-55545990D01*
X66108580Y-55245000D01*
X65151000Y-55245000D01*
X64897000Y-55245000D01*
X63881000Y-55245000D01*
X63627000Y-55245000D01*
X63607000Y-55245000D01*
X63607000Y-54991000D01*
X63627000Y-54991000D01*
X63627000Y-53899932D01*
X63881000Y-53899932D01*
X63881000Y-54991000D01*
X64897000Y-54991000D01*
X64897000Y-53899932D01*
X65151000Y-53899932D01*
X65151000Y-54991000D01*
X66108580Y-54991000D01*
X66108580Y-54933694D01*
X83455226Y-54933694D01*
X83703538Y-55534655D01*
X84162927Y-55994846D01*
X84763453Y-56244206D01*
X85413694Y-56244774D01*
X86014655Y-55996462D01*
X86474846Y-55537073D01*
X86724206Y-54936547D01*
X86724208Y-54933694D01*
X91075226Y-54933694D01*
X91323538Y-55534655D01*
X91782927Y-55994846D01*
X92383453Y-56244206D01*
X93033694Y-56244774D01*
X93634655Y-55996462D01*
X94094846Y-55537073D01*
X94344206Y-54936547D01*
X94344774Y-54286306D01*
X94096462Y-53685345D01*
X93637073Y-53225154D01*
X93036547Y-52975794D01*
X92386306Y-52975226D01*
X91785345Y-53223538D01*
X91325154Y-53682927D01*
X91075794Y-54283453D01*
X91075226Y-54933694D01*
X86724208Y-54933694D01*
X86724774Y-54286306D01*
X86476462Y-53685345D01*
X86017073Y-53225154D01*
X85416547Y-52975794D01*
X84766306Y-52975226D01*
X84165345Y-53223538D01*
X83705154Y-53682927D01*
X83455794Y-54283453D01*
X83455226Y-54933694D01*
X66108580Y-54933694D01*
X66108580Y-54690010D01*
X65977420Y-54284627D01*
X65701111Y-53960294D01*
X65317935Y-53773019D01*
X65151000Y-53899932D01*
X64897000Y-53899932D01*
X64730065Y-53773019D01*
X64389000Y-53939712D01*
X64047935Y-53773019D01*
X63881000Y-53899932D01*
X63627000Y-53899932D01*
X63460065Y-53773019D01*
X63123238Y-53937641D01*
X62899051Y-53787844D01*
X62484000Y-53705285D01*
X62068949Y-53787844D01*
X61717086Y-54022951D01*
X61481979Y-54374814D01*
X61399420Y-54789865D01*
X59131200Y-54789865D01*
X59131200Y-52901694D01*
X69485226Y-52901694D01*
X69733538Y-53502655D01*
X70192927Y-53962846D01*
X70793453Y-54212206D01*
X71443694Y-54212774D01*
X72044655Y-53964462D01*
X72504846Y-53505073D01*
X72754206Y-52904547D01*
X72754208Y-52901694D01*
X77105226Y-52901694D01*
X77353538Y-53502655D01*
X77812927Y-53962846D01*
X78413453Y-54212206D01*
X79063694Y-54212774D01*
X79664655Y-53964462D01*
X80124846Y-53505073D01*
X80374206Y-52904547D01*
X80374774Y-52254306D01*
X80205286Y-51844113D01*
X101835454Y-51844113D01*
X101915831Y-52141490D01*
X102391645Y-52942789D01*
X103137884Y-53501007D01*
X104040940Y-53731160D01*
X105791000Y-53731160D01*
X105791000Y-51473100D01*
X106045000Y-51473100D01*
X106045000Y-53731160D01*
X107795060Y-53731160D01*
X108698116Y-53501007D01*
X109444355Y-52942789D01*
X109920169Y-52141490D01*
X110000546Y-51844113D01*
X109890745Y-51473100D01*
X106045000Y-51473100D01*
X105791000Y-51473100D01*
X101945255Y-51473100D01*
X101835454Y-51844113D01*
X80205286Y-51844113D01*
X80126462Y-51653345D01*
X79667073Y-51193154D01*
X79659870Y-51190163D01*
X81323443Y-51190163D01*
X81422042Y-51456965D01*
X82031582Y-51683401D01*
X82681377Y-51659341D01*
X83169958Y-51456965D01*
X83268557Y-51190163D01*
X82296000Y-50217605D01*
X81323443Y-51190163D01*
X79659870Y-51190163D01*
X79066547Y-50943794D01*
X78416306Y-50943226D01*
X77815345Y-51191538D01*
X77355154Y-51650927D01*
X77105794Y-52251453D01*
X77105226Y-52901694D01*
X72754208Y-52901694D01*
X72754774Y-52254306D01*
X72506462Y-51653345D01*
X72047073Y-51193154D01*
X71446547Y-50943794D01*
X70796306Y-50943226D01*
X70195345Y-51191538D01*
X69735154Y-51650927D01*
X69485794Y-52251453D01*
X69485226Y-52901694D01*
X59131200Y-52901694D01*
X59131200Y-48524383D01*
X60132769Y-48524383D01*
X60335582Y-49015229D01*
X60710796Y-49391098D01*
X61201287Y-49594768D01*
X61732383Y-49595231D01*
X62223229Y-49392418D01*
X62599098Y-49017204D01*
X62802768Y-48526713D01*
X62803231Y-47995617D01*
X62623239Y-47560000D01*
X65120560Y-47560000D01*
X65120560Y-48960000D01*
X65164838Y-49195317D01*
X65303910Y-49411441D01*
X65516110Y-49556431D01*
X65768000Y-49607440D01*
X67168000Y-49607440D01*
X67403317Y-49563162D01*
X67619441Y-49424090D01*
X67764431Y-49211890D01*
X67815440Y-48960000D01*
X67815440Y-48837694D01*
X69485226Y-48837694D01*
X69733538Y-49438655D01*
X70192927Y-49898846D01*
X70793453Y-50148206D01*
X71443694Y-50148774D01*
X72044655Y-49900462D01*
X72504846Y-49441073D01*
X72754206Y-48840547D01*
X72754208Y-48837694D01*
X77105226Y-48837694D01*
X77353538Y-49438655D01*
X77812927Y-49898846D01*
X78413453Y-50148206D01*
X79063694Y-50148774D01*
X79664655Y-49900462D01*
X79791756Y-49773582D01*
X80650599Y-49773582D01*
X80674659Y-50423377D01*
X80877035Y-50911958D01*
X81143837Y-51010557D01*
X82116395Y-50038000D01*
X82475605Y-50038000D01*
X83448163Y-51010557D01*
X83714965Y-50911958D01*
X83919380Y-50361694D01*
X88281226Y-50361694D01*
X88529538Y-50962655D01*
X88988927Y-51422846D01*
X89589453Y-51672206D01*
X90239694Y-51672774D01*
X90840655Y-51424462D01*
X91300846Y-50965073D01*
X91349422Y-50848087D01*
X101835454Y-50848087D01*
X101945255Y-51219100D01*
X105791000Y-51219100D01*
X105791000Y-48961040D01*
X106045000Y-48961040D01*
X106045000Y-51219100D01*
X109890745Y-51219100D01*
X110000546Y-50848087D01*
X109920169Y-50550710D01*
X109444355Y-49749411D01*
X108698116Y-49191193D01*
X107795060Y-48961040D01*
X106045000Y-48961040D01*
X105791000Y-48961040D01*
X104040940Y-48961040D01*
X103137884Y-49191193D01*
X102391645Y-49749411D01*
X101915831Y-50550710D01*
X101835454Y-50848087D01*
X91349422Y-50848087D01*
X91550206Y-50364547D01*
X91550774Y-49714306D01*
X91302462Y-49113345D01*
X90843073Y-48653154D01*
X90242547Y-48403794D01*
X89592306Y-48403226D01*
X88991345Y-48651538D01*
X88531154Y-49110927D01*
X88281794Y-49711453D01*
X88281226Y-50361694D01*
X83919380Y-50361694D01*
X83941401Y-50302418D01*
X83917341Y-49652623D01*
X83714965Y-49164042D01*
X83448163Y-49065443D01*
X82475605Y-50038000D01*
X82116395Y-50038000D01*
X81143837Y-49065443D01*
X80877035Y-49164042D01*
X80650599Y-49773582D01*
X79791756Y-49773582D01*
X80124846Y-49441073D01*
X80355399Y-48885837D01*
X81323443Y-48885837D01*
X82296000Y-49858395D01*
X83268557Y-48885837D01*
X83169958Y-48619035D01*
X82560418Y-48392599D01*
X81910623Y-48416659D01*
X81422042Y-48619035D01*
X81323443Y-48885837D01*
X80355399Y-48885837D01*
X80374206Y-48840547D01*
X80374774Y-48190306D01*
X80180305Y-47719655D01*
X92329000Y-47719655D01*
X92329000Y-47784345D01*
X92454675Y-48416155D01*
X92812567Y-48951778D01*
X93348190Y-49309670D01*
X93980000Y-49435345D01*
X94611810Y-49309670D01*
X94951792Y-49082501D01*
X95039910Y-49219441D01*
X95252110Y-49364431D01*
X95504000Y-49415440D01*
X97536000Y-49415440D01*
X97771317Y-49371162D01*
X97987441Y-49232090D01*
X98132431Y-49019890D01*
X98183440Y-48768000D01*
X98183440Y-46736000D01*
X98139162Y-46500683D01*
X98000090Y-46284559D01*
X97943336Y-46245780D01*
X99731737Y-46245780D01*
X99840977Y-46794969D01*
X100152068Y-47260549D01*
X100617648Y-47571640D01*
X101166837Y-47680880D01*
X102139843Y-47680880D01*
X102689032Y-47571640D01*
X103154612Y-47260549D01*
X103465703Y-46794969D01*
X103574943Y-46245780D01*
X103465703Y-45696591D01*
X103154612Y-45231011D01*
X102803421Y-44996352D01*
X103207492Y-44671387D01*
X103477381Y-44178277D01*
X103494923Y-44095475D01*
X103372936Y-43873420D01*
X101780340Y-43873420D01*
X101780340Y-43893420D01*
X101526340Y-43893420D01*
X101526340Y-43873420D01*
X99933744Y-43873420D01*
X99811757Y-44095475D01*
X99829299Y-44178277D01*
X100099188Y-44671387D01*
X100503259Y-44996352D01*
X100152068Y-45231011D01*
X99840977Y-45696591D01*
X99731737Y-46245780D01*
X97943336Y-46245780D01*
X97787890Y-46139569D01*
X97536000Y-46088560D01*
X95504000Y-46088560D01*
X95268683Y-46132838D01*
X95052559Y-46271910D01*
X94950802Y-46420837D01*
X94611810Y-46194330D01*
X93980000Y-46068655D01*
X93348190Y-46194330D01*
X92812567Y-46552222D01*
X92454675Y-47087845D01*
X92329000Y-47719655D01*
X80180305Y-47719655D01*
X80126462Y-47589345D01*
X79667073Y-47129154D01*
X79081604Y-46886046D01*
X82579559Y-46886046D01*
X82723469Y-47191312D01*
X83467186Y-47479605D01*
X84264615Y-47461344D01*
X84916531Y-47191312D01*
X85060441Y-46886046D01*
X87659559Y-46886046D01*
X87803469Y-47191312D01*
X88547186Y-47479605D01*
X89344615Y-47461344D01*
X89996531Y-47191312D01*
X90140441Y-46886046D01*
X88900000Y-45645605D01*
X87659559Y-46886046D01*
X85060441Y-46886046D01*
X83820000Y-45645605D01*
X82579559Y-46886046D01*
X79081604Y-46886046D01*
X79066547Y-46879794D01*
X78416306Y-46879226D01*
X77815345Y-47127538D01*
X77355154Y-47586927D01*
X77105794Y-48187453D01*
X77105226Y-48837694D01*
X72754208Y-48837694D01*
X72754774Y-48190306D01*
X72506462Y-47589345D01*
X72047073Y-47129154D01*
X71446547Y-46879794D01*
X70796306Y-46879226D01*
X70195345Y-47127538D01*
X69735154Y-47586927D01*
X69485794Y-48187453D01*
X69485226Y-48837694D01*
X67815440Y-48837694D01*
X67815440Y-47560000D01*
X67771162Y-47324683D01*
X67632090Y-47108559D01*
X67419890Y-46963569D01*
X67168000Y-46912560D01*
X65768000Y-46912560D01*
X65532683Y-46956838D01*
X65316559Y-47095910D01*
X65171569Y-47308110D01*
X65120560Y-47560000D01*
X62623239Y-47560000D01*
X62600418Y-47504771D01*
X62225204Y-47128902D01*
X61734713Y-46925232D01*
X61203617Y-46924769D01*
X60712771Y-47127582D01*
X60336902Y-47502796D01*
X60133232Y-47993287D01*
X60132769Y-48524383D01*
X59131200Y-48524383D01*
X59131200Y-38811200D01*
X62790221Y-38811200D01*
X61726485Y-39250727D01*
G36*
X83423084Y-87725504D02*
X83439000Y-87741448D01*
X83439000Y-89328996D01*
X83372156Y-88992949D01*
X83222359Y-88768762D01*
X83386981Y-88431935D01*
X83260068Y-88265000D01*
X82169000Y-88265000D01*
X82169000Y-88285000D01*
X81915000Y-88285000D01*
X81915000Y-88265000D01*
X81895000Y-88265000D01*
X81895000Y-88011000D01*
X81915000Y-88011000D01*
X81915000Y-87991000D01*
X82169000Y-87991000D01*
X82169000Y-88011000D01*
X83260068Y-88011000D01*
X83386981Y-87844065D01*
X83222359Y-87507238D01*
X83290661Y-87405017D01*
X83423084Y-87725504D01*
X83423084Y-87725504D01*
G37*
X83423084Y-87725504D02*
X83439000Y-87741448D01*
X83439000Y-89328996D01*
X83372156Y-88992949D01*
X83222359Y-88768762D01*
X83386981Y-88431935D01*
X83260068Y-88265000D01*
X82169000Y-88265000D01*
X82169000Y-88285000D01*
X81915000Y-88285000D01*
X81915000Y-88265000D01*
X81895000Y-88265000D01*
X81895000Y-88011000D01*
X81915000Y-88011000D01*
X81915000Y-87991000D01*
X82169000Y-87991000D01*
X82169000Y-88011000D01*
X83260068Y-88011000D01*
X83386981Y-87844065D01*
X83222359Y-87507238D01*
X83290661Y-87405017D01*
X83423084Y-87725504D01*
D36*
X80264000Y-82042000D03*
X80264000Y-94488000D03*
X66802000Y-69596000D03*
X86868000Y-86614000D03*
X89916000Y-86614000D03*
X68580000Y-64516000D03*
X75692000Y-92710000D03*
X84328000Y-91948000D03*
X84328000Y-87122000D03*
X91313000Y-109522260D03*
X91313000Y-115521740D03*
X96012000Y-112522000D03*
X72390000Y-105410000D03*
X66390520Y-105410000D03*
X69390260Y-110109000D03*
X83820000Y-45466000D03*
X88900000Y-45466000D03*
X88900000Y-40386000D03*
X83820000Y-40386000D03*
X86360000Y-42926000D03*
X105943400Y-105900220D03*
X105943400Y-116098320D03*
X101678740Y-110998000D03*
X101678740Y-108498640D03*
X105918000Y-41148000D03*
X105918000Y-51346100D03*
X101653340Y-46245780D03*
X101653340Y-43746420D03*
X105943400Y-88882220D03*
X105943400Y-99080320D03*
X101678740Y-93980000D03*
X101678740Y-91480640D03*
X60532000Y-88138000D03*
X65532000Y-88138000D03*
X66468000Y-48260000D03*
X61468000Y-48260000D03*
X62738000Y-67056000D03*
X62738000Y-62056000D03*
X80264000Y-76240000D03*
X80264000Y-78740000D03*
X90932000Y-88392000D03*
X90932000Y-90892000D03*
X104140000Y-72136000D03*
X101640000Y-72136000D03*
X103124000Y-76534000D03*
X103124000Y-81534000D03*
X61722000Y-73152000D03*
X64222000Y-73152000D03*
X99568000Y-62404000D03*
X99568000Y-57404000D03*
X98044000Y-66548000D03*
X100544000Y-66548000D03*
X90932000Y-98258000D03*
X90932000Y-95758000D03*
X63246000Y-77804000D03*
X63246000Y-82804000D03*
X92924000Y-62992000D03*
X90424000Y-62992000D03*
X69342000Y-97964000D03*
X69342000Y-92964000D03*
X83820000Y-116840000D03*
X83820000Y-106680000D03*
X95752920Y-87376000D03*
X95752920Y-97536000D03*
X77724000Y-116078000D03*
X75184000Y-116078000D03*
X61976000Y-97282000D03*
X61976000Y-94742000D03*
X96520000Y-47752000D03*
X93980000Y-47752000D03*
X82042000Y-94488000D03*
X82042000Y-93218000D03*
X82042000Y-95758000D03*
X63754000Y-55118000D03*
X62484000Y-55118000D03*
X65024000Y-55118000D03*
X78740000Y-52578000D03*
X71120000Y-52578000D03*
X85090000Y-67818000D03*
X92710000Y-67818000D03*
X74422000Y-75692000D03*
X74422000Y-83312000D03*
X71120000Y-40894000D03*
X78740000Y-40894000D03*
X89916000Y-50038000D03*
X82296000Y-50038000D03*
X85090000Y-58928000D03*
X92710000Y-58928000D03*
X97536000Y-72644000D03*
X97536000Y-80264000D03*
X92710000Y-54610000D03*
X85090000Y-54610000D03*
X111760000Y-72390000D03*
X111760000Y-77470000D03*
X111760000Y-82550000D03*
X86106000Y-98044000D03*
X86106000Y-90424000D03*
X77470000Y-88392000D03*
X77470000Y-96012000D03*
X73914000Y-88392000D03*
X73914000Y-96012000D03*
X69596000Y-83058000D03*
X69596000Y-75438000D03*
X91948000Y-104140000D03*
X89408000Y-104140000D03*
X94488000Y-104140000D03*
X82042000Y-88138000D03*
X82042000Y-86868000D03*
X82042000Y-89408000D03*
X78740000Y-68326000D03*
X78740000Y-65786000D03*
X78740000Y-63246000D03*
X78740000Y-60706000D03*
X71120000Y-60706000D03*
X71120000Y-63246000D03*
X71120000Y-65786000D03*
X71120000Y-68326000D03*
X85344000Y-74168000D03*
X85344000Y-76708000D03*
X85344000Y-79248000D03*
X85344000Y-81788000D03*
X92964000Y-81788000D03*
X92964000Y-79248000D03*
X92964000Y-76708000D03*
X92964000Y-74168000D03*
X78740000Y-44704000D03*
X71120000Y-44704000D03*
X63500000Y-41910000D03*
X63500000Y-114300000D03*
X95250000Y-41910000D03*
X112014000Y-57150000D03*
X112014000Y-59690000D03*
X112014000Y-62230000D03*
X112014000Y-64770000D03*
X112014000Y-67310000D03*
X106934000Y-62230000D03*
X106934000Y-57150000D03*
X104394000Y-57150000D03*
X106934000Y-67310000D03*
X104394000Y-67310000D03*
X71120000Y-48514000D03*
X78740000Y-48514000D03*
X77296000Y-101346000D03*
X82296000Y-101346000D03*
X79756000Y-108712000D03*
X77216000Y-108712000D03*
M02*
