G04 This is an RS-274x file exported by *
G04 gerbv version 2.6.0 *
G04 More information is available about gerbv at *
G04 http://gerbv.gpleda.org/ *
G04 --End of header info--*
%MOIN*%
%FSLAX34Y34*%
%IPPOS*%
G04 --Define apertures--*
%ADD10C,0.0050*%
%ADD11C,0.0060*%
%ADD12C,0.0079*%
%ADD13C,0.0118*%
%ADD14C,0.0138*%
%ADD15C,0.0059*%
G04 --Start main section--*
G54D11*
G01X0044500Y-015000D02*
G01X0045000Y-015000D01*
G01X0023000Y-015000D02*
G01X0044500Y-015000D01*
G01X0023000Y-047000D02*
G01X0023000Y-015000D01*
G01X0045000Y-047000D02*
G01X0023000Y-047000D01*
G01X0045000Y-015000D02*
G01X0045000Y-047000D01*
G54D12*
G01X0027031Y-024714D02*
G01X0027161Y-024844D01*
G01X0027161Y-024714D02*
G01X0027031Y-024844D01*
G01X0027049Y-023308D02*
G01X0027179Y-023438D01*
G01X0027179Y-023308D02*
G01X0027049Y-023438D01*
G01X0031010Y-033385D02*
G01X0031140Y-033515D01*
G01X0031140Y-033385D02*
G01X0031010Y-033515D01*
G01X0032935Y-025560D02*
G01X0033065Y-025690D01*
G01X0033065Y-025560D02*
G01X0032935Y-025690D01*
G01X0034010Y-028910D02*
G01X0034140Y-029040D01*
G01X0034140Y-028910D02*
G01X0034010Y-029040D01*
G01X0034735Y-027885D02*
G01X0034865Y-028015D01*
G01X0034865Y-027885D02*
G01X0034735Y-028015D01*
G01X0036485Y-025560D02*
G01X0036615Y-025690D01*
G01X0036615Y-025560D02*
G01X0036485Y-025690D01*
G01X0036535Y-037100D02*
G01X0036665Y-037230D01*
G01X0036665Y-037100D02*
G01X0036535Y-037230D01*
G01X0037385Y-025585D02*
G01X0037515Y-025715D01*
G01X0037515Y-025585D02*
G01X0037385Y-025715D01*
G01X0024557Y-021200D02*
G75*
G03X0024557Y-021200I-000157J0000000D01*
G01X0025257Y-021200D02*
G75*
G03X0025257Y-021200I-000157J0000000D01*
G01X0025957Y-021200D02*
G75*
G03X0025957Y-021200I-000157J0000000D01*
G01X0026932Y-035800D02*
G75*
G03X0026932Y-035800I-000157J0000000D01*
G01X0026932Y-036500D02*
G75*
G03X0026932Y-036500I-000157J0000000D01*
G01X0026932Y-037200D02*
G75*
G03X0026932Y-037200I-000157J0000000D01*
G01X0028159Y-022546D02*
G75*
G03X0028159Y-022546I-000157J0000000D01*
G01X0028159Y-023546D02*
G75*
G03X0028159Y-023546I-000157J0000000D01*
G01X0028159Y-024546D02*
G75*
G03X0028159Y-024546I-000157J0000000D01*
G01X0028159Y-025546D02*
G75*
G03X0028159Y-025546I-000157J0000000D01*
G01X0031159Y-022546D02*
G75*
G03X0031159Y-022546I-000157J0000000D01*
G01X0031159Y-023546D02*
G75*
G03X0031159Y-023546I-000157J0000000D01*
G01X0031159Y-024546D02*
G75*
G03X0031159Y-024546I-000157J0000000D01*
G01X0031159Y-025546D02*
G75*
G03X0031159Y-025546I-000157J0000000D01*
G01X0032907Y-032050D02*
G75*
G03X0032907Y-032050I-000157J0000000D01*
G01X0032907Y-032750D02*
G75*
G03X0032907Y-032750I-000157J0000000D01*
G01X0032907Y-033450D02*
G75*
G03X0032907Y-033450I-000157J0000000D01*
G01X0033303Y-026457D02*
G75*
G03X0033303Y-026457I-000157J0000000D01*
G01X0033303Y-027457D02*
G75*
G03X0033303Y-027457I-000157J0000000D01*
G01X0033303Y-028457D02*
G75*
G03X0033303Y-028457I-000157J0000000D01*
G01X0033303Y-029457D02*
G75*
G03X0033303Y-029457I-000157J0000000D01*
G01X0036303Y-026457D02*
G75*
G03X0036303Y-026457I-000157J0000000D01*
G01X0036303Y-027457D02*
G75*
G03X0036303Y-027457I-000157J0000000D01*
G01X0036303Y-028457D02*
G75*
G03X0036303Y-028457I-000157J0000000D01*
G01X0036303Y-029457D02*
G75*
G03X0036303Y-029457I-000157J0000000D01*
G01X0024200Y-018803D02*
G01X0024200Y-019197D01*
G01X0024003Y-019000D02*
G01X0024397Y-019000D01*
G01X0024224Y-025021D02*
G01X0024224Y-025415D01*
G01X0024027Y-025218D02*
G01X0024421Y-025218D01*
G01X0024275Y-033478D02*
G01X0024275Y-033872D01*
G01X0024078Y-033675D02*
G01X0024472Y-033675D01*
G01X0024680Y-027004D02*
G01X0024680Y-027397D01*
G01X0024483Y-027200D02*
G01X0024877Y-027200D01*
G01X0024680Y-028972D02*
G01X0024680Y-029366D01*
G01X0024483Y-029169D02*
G01X0024877Y-029169D01*
G01X0024700Y-035410D02*
G01X0024700Y-035803D01*
G01X0024503Y-035606D02*
G01X0024897Y-035606D01*
G01X0024700Y-037378D02*
G01X0024700Y-037772D01*
G01X0024503Y-037575D02*
G01X0024897Y-037575D01*
G01X0024841Y-023068D02*
G01X0024841Y-023462D01*
G01X0024644Y-023265D02*
G01X0025038Y-023265D01*
G01X0025825Y-023068D02*
G01X0025825Y-023462D01*
G01X0025628Y-023265D02*
G01X0026022Y-023265D01*
G01X0026169Y-018803D02*
G01X0026169Y-019197D01*
G01X0025972Y-019000D02*
G01X0026365Y-019000D01*
G01X0026193Y-025021D02*
G01X0026193Y-025415D01*
G01X0025996Y-025218D02*
G01X0026389Y-025218D01*
G01X0026244Y-033478D02*
G01X0026244Y-033872D01*
G01X0026047Y-033675D02*
G01X0026440Y-033675D01*
G01X0026250Y-027053D02*
G01X0026250Y-027447D01*
G01X0026053Y-027250D02*
G01X0026447Y-027250D01*
G01X0027234Y-027053D02*
G01X0027234Y-027447D01*
G01X0027037Y-027250D02*
G01X0027431Y-027250D01*
G01X0028375Y-032285D02*
G01X0028375Y-032678D01*
G01X0028178Y-032481D02*
G01X0028572Y-032481D01*
G01X0028375Y-034253D02*
G01X0028375Y-034647D01*
G01X0028178Y-034450D02*
G01X0028572Y-034450D01*
G01X0032500Y-034553D02*
G01X0032500Y-034947D01*
G01X0032303Y-034750D02*
G01X0032697Y-034750D01*
G01X0033484Y-034553D02*
G01X0033484Y-034947D01*
G01X0033287Y-034750D02*
G01X0033681Y-034750D01*
G01X0035750Y-031053D02*
G01X0035750Y-031447D01*
G01X0035553Y-031250D02*
G01X0035947Y-031250D01*
G01X0036734Y-031053D02*
G01X0036734Y-031447D01*
G01X0036537Y-031250D02*
G01X0036931Y-031250D01*
G01X0038600Y-026003D02*
G01X0038600Y-026397D01*
G01X0038403Y-026200D02*
G01X0038797Y-026200D01*
G01X0039200Y-022403D02*
G01X0039200Y-022797D01*
G01X0039003Y-022600D02*
G01X0039397Y-022600D01*
G01X0039200Y-024372D02*
G01X0039200Y-024765D01*
G01X0039003Y-024569D02*
G01X0039397Y-024569D01*
G01X0039584Y-026003D02*
G01X0039584Y-026397D01*
G01X0039387Y-026200D02*
G01X0039781Y-026200D01*
G01X0039625Y-027828D02*
G01X0039625Y-028222D01*
G01X0039428Y-028025D02*
G01X0039822Y-028025D01*
G01X0039875Y-032818D02*
G01X0039875Y-033212D01*
G01X0039678Y-033015D02*
G01X0040072Y-033015D01*
G01X0040225Y-029203D02*
G01X0040225Y-029597D01*
G01X0040028Y-029400D02*
G01X0040422Y-029400D01*
G01X0040225Y-031172D02*
G01X0040225Y-031565D01*
G01X0040028Y-031369D02*
G01X0040422Y-031369D01*
G01X0040609Y-027828D02*
G01X0040609Y-028222D01*
G01X0040412Y-028025D02*
G01X0040806Y-028025D01*
G01X0040859Y-032818D02*
G01X0040859Y-033212D01*
G01X0040662Y-033015D02*
G01X0041056Y-033015D01*
G01X0027289Y-045089D02*
G01X0027289Y-044811D01*
G01X0027289Y-044811D02*
G01X0027011Y-044811D01*
G01X0027011Y-044811D02*
G01X0027011Y-045089D01*
G01X0027011Y-045089D02*
G01X0027289Y-045089D01*
G01X0027596Y-017739D02*
G01X0027596Y-017461D01*
G01X0027596Y-017461D02*
G01X0027317Y-017461D01*
G01X0027317Y-017461D02*
G01X0027317Y-017739D01*
G01X0027317Y-017739D02*
G01X0027596Y-017739D01*
G01X0027596Y-020839D02*
G01X0027596Y-020561D01*
G01X0027596Y-020561D02*
G01X0027317Y-020561D01*
G01X0027317Y-020561D02*
G01X0027317Y-020839D01*
G01X0027317Y-020839D02*
G01X0027596Y-020839D01*
G01X0027602Y-016236D02*
G01X0027602Y-015958D01*
G01X0027602Y-015958D02*
G01X0027323Y-015958D01*
G01X0027323Y-015958D02*
G01X0027323Y-016236D01*
G01X0027323Y-016236D02*
G01X0027602Y-016236D01*
G01X0027641Y-019257D02*
G01X0027641Y-018979D01*
G01X0027641Y-018979D02*
G01X0027363Y-018979D01*
G01X0027363Y-018979D02*
G01X0027363Y-019257D01*
G01X0027363Y-019257D02*
G01X0027641Y-019257D01*
G01X0028289Y-045089D02*
G01X0028289Y-044811D01*
G01X0028289Y-044811D02*
G01X0028011Y-044811D01*
G01X0028011Y-044811D02*
G01X0028011Y-045089D01*
G01X0028011Y-045089D02*
G01X0028289Y-045089D01*
G01X0028639Y-027639D02*
G01X0028639Y-027361D01*
G01X0028639Y-027361D02*
G01X0028361Y-027361D01*
G01X0028361Y-027361D02*
G01X0028361Y-027639D01*
G01X0028361Y-027639D02*
G01X0028639Y-027639D01*
G01X0028639Y-031183D02*
G01X0028639Y-030904D01*
G01X0028639Y-030904D02*
G01X0028361Y-030904D01*
G01X0028361Y-030904D02*
G01X0028361Y-031183D01*
G01X0028361Y-031183D02*
G01X0028639Y-031183D01*
G01X0030139Y-027596D02*
G01X0030139Y-027317D01*
G01X0030139Y-027317D02*
G01X0029861Y-027317D01*
G01X0029861Y-027317D02*
G01X0029861Y-027596D01*
G01X0029861Y-027596D02*
G01X0030139Y-027596D01*
G01X0030139Y-031139D02*
G01X0030139Y-030861D01*
G01X0030139Y-030861D02*
G01X0029861Y-030861D01*
G01X0029861Y-030861D02*
G01X0029861Y-031139D01*
G01X0029861Y-031139D02*
G01X0030139Y-031139D01*
G01X0030314Y-038414D02*
G01X0030314Y-038136D01*
G01X0030314Y-038136D02*
G01X0030036Y-038136D01*
G01X0030036Y-038136D02*
G01X0030036Y-038414D01*
G01X0030036Y-038414D02*
G01X0030314Y-038414D01*
G01X0030314Y-041958D02*
G01X0030314Y-041679D01*
G01X0030314Y-041679D02*
G01X0030036Y-041679D01*
G01X0030036Y-041679D02*
G01X0030036Y-041958D01*
G01X0030036Y-041958D02*
G01X0030314Y-041958D01*
G01X0031139Y-017739D02*
G01X0031139Y-017461D01*
G01X0031139Y-017461D02*
G01X0030861Y-017461D01*
G01X0030861Y-017461D02*
G01X0030861Y-017739D01*
G01X0030861Y-017739D02*
G01X0031139Y-017739D01*
G01X0031139Y-020839D02*
G01X0031139Y-020561D01*
G01X0031139Y-020561D02*
G01X0030861Y-020561D01*
G01X0030861Y-020561D02*
G01X0030861Y-020839D01*
G01X0030861Y-020839D02*
G01X0031139Y-020839D01*
G01X0031145Y-016236D02*
G01X0031145Y-015958D01*
G01X0031145Y-015958D02*
G01X0030867Y-015958D01*
G01X0030867Y-015958D02*
G01X0030867Y-016236D01*
G01X0030867Y-016236D02*
G01X0031145Y-016236D01*
G01X0031185Y-019257D02*
G01X0031185Y-018979D01*
G01X0031185Y-018979D02*
G01X0030906Y-018979D01*
G01X0030906Y-018979D02*
G01X0030906Y-019257D01*
G01X0030906Y-019257D02*
G01X0031185Y-019257D01*
G01X0031639Y-027639D02*
G01X0031639Y-027361D01*
G01X0031639Y-027361D02*
G01X0031361Y-027361D01*
G01X0031361Y-027361D02*
G01X0031361Y-027639D01*
G01X0031361Y-027639D02*
G01X0031639Y-027639D01*
G01X0031639Y-031183D02*
G01X0031639Y-030904D01*
G01X0031639Y-030904D02*
G01X0031361Y-030904D01*
G01X0031361Y-030904D02*
G01X0031361Y-031183D01*
G01X0031361Y-031183D02*
G01X0031639Y-031183D01*
G01X0031689Y-038464D02*
G01X0031689Y-038186D01*
G01X0031689Y-038186D02*
G01X0031411Y-038186D01*
G01X0031411Y-038186D02*
G01X0031411Y-038464D01*
G01X0031411Y-038464D02*
G01X0031689Y-038464D01*
G01X0031689Y-042008D02*
G01X0031689Y-041729D01*
G01X0031689Y-041729D02*
G01X0031411Y-041729D01*
G01X0031411Y-041729D02*
G01X0031411Y-042008D01*
G01X0031411Y-042008D02*
G01X0031689Y-042008D01*
G01X0032869Y-024293D02*
G01X0032869Y-024015D01*
G01X0032869Y-024015D02*
G01X0032590Y-024015D01*
G01X0032590Y-024015D02*
G01X0032590Y-024293D01*
G01X0032590Y-024293D02*
G01X0032869Y-024293D01*
G01X0032875Y-022624D02*
G01X0032875Y-022346D01*
G01X0032875Y-022346D02*
G01X0032597Y-022346D01*
G01X0032597Y-022346D02*
G01X0032597Y-022624D01*
G01X0032597Y-022624D02*
G01X0032875Y-022624D01*
G01X0032892Y-019678D02*
G01X0032892Y-019400D01*
G01X0032892Y-019400D02*
G01X0032614Y-019400D01*
G01X0032614Y-019400D02*
G01X0032614Y-019678D01*
G01X0032614Y-019678D02*
G01X0032892Y-019678D01*
G01X0032892Y-021121D02*
G01X0032892Y-020843D01*
G01X0032892Y-020843D02*
G01X0032614Y-020843D01*
G01X0032614Y-020843D02*
G01X0032614Y-021121D01*
G01X0032614Y-021121D02*
G01X0032892Y-021121D01*
G01X0033139Y-042139D02*
G01X0033139Y-041861D01*
G01X0033139Y-041861D02*
G01X0032861Y-041861D01*
G01X0032861Y-041861D02*
G01X0032861Y-042139D01*
G01X0032861Y-042139D02*
G01X0033139Y-042139D01*
G01X0033153Y-036444D02*
G01X0033153Y-036166D01*
G01X0033153Y-036166D02*
G01X0032875Y-036166D01*
G01X0032875Y-036166D02*
G01X0032875Y-036444D01*
G01X0032875Y-036444D02*
G01X0033153Y-036444D01*
G01X0035739Y-041314D02*
G01X0035739Y-041036D01*
G01X0035739Y-041036D02*
G01X0035461Y-041036D01*
G01X0035461Y-041036D02*
G01X0035461Y-041314D01*
G01X0035461Y-041314D02*
G01X0035739Y-041314D01*
G01X0036412Y-024293D02*
G01X0036412Y-024015D01*
G01X0036412Y-024015D02*
G01X0036134Y-024015D01*
G01X0036134Y-024015D02*
G01X0036134Y-024293D01*
G01X0036134Y-024293D02*
G01X0036412Y-024293D01*
G01X0036419Y-022624D02*
G01X0036419Y-022346D01*
G01X0036419Y-022346D02*
G01X0036140Y-022346D01*
G01X0036140Y-022346D02*
G01X0036140Y-022624D01*
G01X0036140Y-022624D02*
G01X0036419Y-022624D01*
G01X0036436Y-019678D02*
G01X0036436Y-019400D01*
G01X0036436Y-019400D02*
G01X0036157Y-019400D01*
G01X0036157Y-019400D02*
G01X0036157Y-019678D01*
G01X0036157Y-019678D02*
G01X0036436Y-019678D01*
G01X0036436Y-021121D02*
G01X0036436Y-020843D01*
G01X0036436Y-020843D02*
G01X0036157Y-020843D01*
G01X0036157Y-020843D02*
G01X0036157Y-021121D01*
G01X0036157Y-021121D02*
G01X0036436Y-021121D01*
G01X0036739Y-041314D02*
G01X0036739Y-041036D01*
G01X0036739Y-041036D02*
G01X0036461Y-041036D01*
G01X0036461Y-041036D02*
G01X0036461Y-041314D01*
G01X0036461Y-041314D02*
G01X0036739Y-041314D01*
G01X0037739Y-041314D02*
G01X0037739Y-041036D01*
G01X0037739Y-041036D02*
G01X0037461Y-041036D01*
G01X0037461Y-041036D02*
G01X0037461Y-041314D01*
G01X0037461Y-041314D02*
G01X0037739Y-041314D01*
G01X0038464Y-027889D02*
G01X0038464Y-027611D01*
G01X0038464Y-027611D02*
G01X0038186Y-027611D01*
G01X0038186Y-027611D02*
G01X0038186Y-027889D01*
G01X0038186Y-027889D02*
G01X0038464Y-027889D01*
G01X0038464Y-031433D02*
G01X0038464Y-031154D01*
G01X0038464Y-031154D02*
G01X0038186Y-031154D01*
G01X0038186Y-031154D02*
G01X0038186Y-031433D01*
G01X0038186Y-031433D02*
G01X0038464Y-031433D01*
G01X0040160Y-017362D02*
G01X0040160Y-017084D01*
G01X0040160Y-017084D02*
G01X0039882Y-017084D01*
G01X0039882Y-017084D02*
G01X0039882Y-017362D01*
G01X0039882Y-017362D02*
G01X0040160Y-017362D01*
G01X0040160Y-018346D02*
G01X0040160Y-018068D01*
G01X0040160Y-018068D02*
G01X0039882Y-018068D01*
G01X0039882Y-018068D02*
G01X0039882Y-018346D01*
G01X0039882Y-018346D02*
G01X0040160Y-018346D01*
G01X0040170Y-036155D02*
G01X0040170Y-035877D01*
G01X0040170Y-035877D02*
G01X0039892Y-035877D01*
G01X0039892Y-035877D02*
G01X0039892Y-036155D01*
G01X0039892Y-036155D02*
G01X0040170Y-036155D01*
G01X0040170Y-037139D02*
G01X0040170Y-036861D01*
G01X0040170Y-036861D02*
G01X0039892Y-036861D01*
G01X0039892Y-036861D02*
G01X0039892Y-037139D01*
G01X0039892Y-037139D02*
G01X0040170Y-037139D01*
G01X0040170Y-042855D02*
G01X0040170Y-042577D01*
G01X0040170Y-042577D02*
G01X0039892Y-042577D01*
G01X0039892Y-042577D02*
G01X0039892Y-042855D01*
G01X0039892Y-042855D02*
G01X0040170Y-042855D01*
G01X0040170Y-043839D02*
G01X0040170Y-043561D01*
G01X0040170Y-043561D02*
G01X0039892Y-043561D01*
G01X0039892Y-043561D02*
G01X0039892Y-043839D01*
G01X0039892Y-043839D02*
G01X0040170Y-043839D01*
G01X0025500Y-030950D02*
G01X0025700Y-030750D01*
G01X0025700Y-030750D02*
G01X0025500Y-030550D01*
G01X0025500Y-030550D02*
G01X0025300Y-030750D01*
G01X0025300Y-030750D02*
G01X0025500Y-030950D01*
G01X0025500Y-031950D02*
G01X0025700Y-031750D01*
G01X0025700Y-031750D02*
G01X0025500Y-031550D01*
G01X0025500Y-031550D02*
G01X0025300Y-031750D01*
G01X0025300Y-031750D02*
G01X0025500Y-031950D01*
G01X0030153Y-045000D02*
G01X0030353Y-044800D01*
G01X0030353Y-044800D02*
G01X0030153Y-044600D01*
G01X0030153Y-044600D02*
G01X0029953Y-044800D01*
G01X0029953Y-044800D02*
G01X0030153Y-045000D01*
G01X0031153Y-045000D02*
G01X0031353Y-044800D01*
G01X0031353Y-044800D02*
G01X0031153Y-044600D01*
G01X0031153Y-044600D02*
G01X0030953Y-044800D01*
G01X0030953Y-044800D02*
G01X0031153Y-045000D01*
G01X0037952Y-018988D02*
G01X0038152Y-018788D01*
G01X0038152Y-018788D02*
G01X0037952Y-018588D01*
G01X0037952Y-018588D02*
G01X0037752Y-018788D01*
G01X0037752Y-018788D02*
G01X0037952Y-018988D01*
G01X0037952Y-019988D02*
G01X0038152Y-019788D01*
G01X0038152Y-019788D02*
G01X0037952Y-019588D01*
G01X0037952Y-019588D02*
G01X0037752Y-019788D01*
G01X0037752Y-019788D02*
G01X0037952Y-019988D01*
G01X0032750Y-045750D02*
G01X0033250Y-046250D01*
G01X0033250Y-045750D02*
G01X0032750Y-046250D01*
G01X0033250Y-046000D02*
G75*
G03X0033250Y-046000I-000250J0000000D01*
G01X0032764Y-040055D02*
G01X0033264Y-040555D01*
G01X0033264Y-040055D02*
G01X0032764Y-040555D01*
G01X0033264Y-040305D02*
G75*
G03X0033264Y-040305I-000250J0000000D01*
G01X0040832Y-022238D02*
G01X0041342Y-022748D01*
G01X0041342Y-022238D02*
G01X0040832Y-022748D01*
G01X0041087Y-022238D02*
G01X0041087Y-022748D01*
G01X0040832Y-022493D02*
G01X0041342Y-022493D01*
G01X0040832Y-023238D02*
G01X0041342Y-023748D01*
G01X0041342Y-023238D02*
G01X0040832Y-023748D01*
G01X0041087Y-023238D02*
G01X0041087Y-023748D01*
G01X0040832Y-023493D02*
G01X0041342Y-023493D01*
G01X0040832Y-025238D02*
G01X0041342Y-025748D01*
G01X0041342Y-025238D02*
G01X0040832Y-025748D01*
G01X0041087Y-025238D02*
G01X0041087Y-025748D01*
G01X0040832Y-025493D02*
G01X0041342Y-025493D01*
G01X0040832Y-026238D02*
G01X0041342Y-026748D01*
G01X0041342Y-026238D02*
G01X0040832Y-026748D01*
G01X0041087Y-026238D02*
G01X0041087Y-026748D01*
G01X0040832Y-026493D02*
G01X0041342Y-026493D01*
G01X0042832Y-024238D02*
G01X0043342Y-024748D01*
G01X0043342Y-024238D02*
G01X0042832Y-024748D01*
G01X0043087Y-024238D02*
G01X0043087Y-024748D01*
G01X0042832Y-024493D02*
G01X0043342Y-024493D01*
G01X0043700Y-028200D02*
G01X0044300Y-028800D01*
G01X0044300Y-028200D02*
G01X0043700Y-028800D01*
G01X0044212Y-028712D02*
G01X0044212Y-028288D01*
G01X0044212Y-028288D02*
G01X0043788Y-028288D01*
G01X0043788Y-028288D02*
G01X0043788Y-028712D01*
G01X0043788Y-028712D02*
G01X0044212Y-028712D01*
G01X0043700Y-030200D02*
G01X0044300Y-030800D01*
G01X0044300Y-030200D02*
G01X0043700Y-030800D01*
G01X0044212Y-030712D02*
G01X0044212Y-030288D01*
G01X0044212Y-030288D02*
G01X0043788Y-030288D01*
G01X0043788Y-030288D02*
G01X0043788Y-030712D01*
G01X0043788Y-030712D02*
G01X0044212Y-030712D01*
G01X0043700Y-032200D02*
G01X0044300Y-032800D01*
G01X0044300Y-032200D02*
G01X0043700Y-032800D01*
G01X0044212Y-032712D02*
G01X0044212Y-032288D01*
G01X0044212Y-032288D02*
G01X0043788Y-032288D01*
G01X0043788Y-032288D02*
G01X0043788Y-032712D01*
G01X0043788Y-032712D02*
G01X0044212Y-032712D01*
G01X0041267Y-015767D02*
G01X0042133Y-016633D01*
G01X0042133Y-015767D02*
G01X0041267Y-016633D01*
G01X0041700Y-016633D02*
G01X0042133Y-016200D01*
G01X0042133Y-016200D02*
G01X0041700Y-015767D01*
G01X0041700Y-015767D02*
G01X0041267Y-016200D01*
G01X0041267Y-016200D02*
G01X0041700Y-016633D01*
G01X0041267Y-019782D02*
G01X0042133Y-020648D01*
G01X0042133Y-019782D02*
G01X0041267Y-020648D01*
G01X0041700Y-020648D02*
G01X0042133Y-020215D01*
G01X0042133Y-020215D02*
G01X0041700Y-019782D01*
G01X0041700Y-019782D02*
G01X0041267Y-020215D01*
G01X0041267Y-020215D02*
G01X0041700Y-020648D01*
G01X0041277Y-034560D02*
G01X0042143Y-035426D01*
G01X0042143Y-034560D02*
G01X0041277Y-035426D01*
G01X0041710Y-035426D02*
G01X0042143Y-034993D01*
G01X0042143Y-034993D02*
G01X0041710Y-034560D01*
G01X0041710Y-034560D02*
G01X0041277Y-034993D01*
G01X0041277Y-034993D02*
G01X0041710Y-035426D01*
G01X0041277Y-038575D02*
G01X0042143Y-039441D01*
G01X0042143Y-038575D02*
G01X0041277Y-039441D01*
G01X0041710Y-039441D02*
G01X0042143Y-039008D01*
G01X0042143Y-039008D02*
G01X0041710Y-038575D01*
G01X0041710Y-038575D02*
G01X0041277Y-039008D01*
G01X0041277Y-039008D02*
G01X0041710Y-039441D01*
G01X0041277Y-041260D02*
G01X0042143Y-042126D01*
G01X0042143Y-041260D02*
G01X0041277Y-042126D01*
G01X0041710Y-042126D02*
G01X0042143Y-041693D01*
G01X0042143Y-041693D02*
G01X0041710Y-041260D01*
G01X0041710Y-041260D02*
G01X0041277Y-041693D01*
G01X0041277Y-041693D02*
G01X0041710Y-042126D01*
G01X0041277Y-045275D02*
G01X0042143Y-046141D01*
G01X0042143Y-045275D02*
G01X0041277Y-046141D01*
G01X0041710Y-046141D02*
G01X0042143Y-045708D01*
G01X0042143Y-045708D02*
G01X0041710Y-045275D01*
G01X0041710Y-045275D02*
G01X0041277Y-045708D01*
G01X0041277Y-045708D02*
G01X0041710Y-046141D01*
G01X0026013Y-039834D02*
G01X0026013Y-041015D01*
G01X0025423Y-040425D02*
G01X0026604Y-040425D01*
G01X0026604Y-040425D02*
G75*
G03X0026604Y-040425I-000591J0000000D01*
G01X0027194Y-041684D02*
G01X0027194Y-042865D01*
G01X0026604Y-042275D02*
G01X0027785Y-042275D01*
G01X0027785Y-042275D02*
G75*
G03X0027785Y-042275I-000591J0000000D01*
G01X0028375Y-039834D02*
G01X0028375Y-041015D01*
G01X0027785Y-040425D02*
G01X0028966Y-040425D01*
G01X0028966Y-040425D02*
G75*
G03X0028966Y-040425I-000591J0000000D01*
G01X0035950Y-042528D02*
G01X0035950Y-043709D01*
G01X0035360Y-043119D02*
G01X0036541Y-043119D01*
G01X0036541Y-043119D02*
G75*
G03X0036541Y-043119I-000591J0000000D01*
G01X0035950Y-044890D02*
G01X0035950Y-046071D01*
G01X0035360Y-045481D02*
G01X0036541Y-045481D01*
G01X0036541Y-045481D02*
G75*
G03X0036541Y-045481I-000591J0000000D01*
G01X0037800Y-043709D02*
G01X0037800Y-044890D01*
G01X0037210Y-044300D02*
G01X0038391Y-044300D01*
G01X0038391Y-044300D02*
G75*
G03X0038391Y-044300I-000591J0000000D01*
G01X0041267Y-024673D02*
G01X0041267Y-024313D01*
G01X0041267Y-024313D02*
G01X0040907Y-024313D01*
G01X0040907Y-024313D02*
G01X0040907Y-024673D01*
G01X0040907Y-024673D02*
G01X0041267Y-024673D01*
G01X0041342Y-024493D02*
G75*
G03X0041342Y-024493I-000255J0000000D01*
G01X0043267Y-022673D02*
G01X0043267Y-022313D01*
G01X0043267Y-022313D02*
G01X0042907Y-022313D01*
G01X0042907Y-022313D02*
G01X0042907Y-022673D01*
G01X0042907Y-022673D02*
G01X0043267Y-022673D01*
G01X0043342Y-022493D02*
G75*
G03X0043342Y-022493I-000255J0000000D01*
G01X0043267Y-026673D02*
G01X0043267Y-026313D01*
G01X0043267Y-026313D02*
G01X0042907Y-026313D01*
G01X0042907Y-026313D02*
G01X0042907Y-026673D01*
G01X0042907Y-026673D02*
G01X0043267Y-026673D01*
G01X0043342Y-026493D02*
G75*
G03X0043342Y-026493I-000255J0000000D01*
G01X0044267Y-022673D02*
G01X0044267Y-022313D01*
G01X0044267Y-022313D02*
G01X0043907Y-022313D01*
G01X0043907Y-022313D02*
G01X0043907Y-022673D01*
G01X0043907Y-022673D02*
G01X0044267Y-022673D01*
G01X0044342Y-022493D02*
G75*
G03X0044342Y-022493I-000255J0000000D01*
G01X0044267Y-026673D02*
G01X0044267Y-026313D01*
G01X0044267Y-026313D02*
G01X0043907Y-026313D01*
G01X0043907Y-026313D02*
G01X0043907Y-026673D01*
G01X0043907Y-026673D02*
G01X0044267Y-026673D01*
G01X0044342Y-026493D02*
G75*
G03X0044342Y-026493I-000255J0000000D01*
G54D13*
G01X0024039Y-048864D02*
G01X0024039Y-047682D01*
G01X0024039Y-047682D02*
G01X0024320Y-047682D01*
G01X0024320Y-047682D02*
G01X0024489Y-047739D01*
G01X0024489Y-047739D02*
G01X0024601Y-047851D01*
G01X0024601Y-047851D02*
G01X0024657Y-047964D01*
G01X0024657Y-047964D02*
G01X0024714Y-048189D01*
G01X0024714Y-048189D02*
G01X0024714Y-048357D01*
G01X0024714Y-048357D02*
G01X0024657Y-048582D01*
G01X0024657Y-048582D02*
G01X0024601Y-048695D01*
G01X0024601Y-048695D02*
G01X0024489Y-048807D01*
G01X0024489Y-048807D02*
G01X0024320Y-048864D01*
G01X0024320Y-048864D02*
G01X0024039Y-048864D01*
G01X0025220Y-048864D02*
G01X0025220Y-048076D01*
G01X0025220Y-048301D02*
G01X0025276Y-048189D01*
G01X0025276Y-048189D02*
G01X0025332Y-048132D01*
G01X0025332Y-048132D02*
G01X0025445Y-048076D01*
G01X0025445Y-048076D02*
G01X0025557Y-048076D01*
G01X0025951Y-048864D02*
G01X0025951Y-048076D01*
G01X0025951Y-047682D02*
G01X0025895Y-047739D01*
G01X0025895Y-047739D02*
G01X0025951Y-047795D01*
G01X0025951Y-047795D02*
G01X0026007Y-047739D01*
G01X0026007Y-047739D02*
G01X0025951Y-047682D01*
G01X0025951Y-047682D02*
G01X0025951Y-047795D01*
G01X0026682Y-048864D02*
G01X0026570Y-048807D01*
G01X0026570Y-048807D02*
G01X0026513Y-048695D01*
G01X0026513Y-048695D02*
G01X0026513Y-047682D01*
G01X0027301Y-048864D02*
G01X0027188Y-048807D01*
G01X0027188Y-048807D02*
G01X0027132Y-048695D01*
G01X0027132Y-048695D02*
G01X0027132Y-047682D01*
G01X0028651Y-048864D02*
G01X0028651Y-047682D01*
G01X0028651Y-047682D02*
G01X0029044Y-048526D01*
G01X0029044Y-048526D02*
G01X0029438Y-047682D01*
G01X0029438Y-047682D02*
G01X0029438Y-048864D01*
G01X0030507Y-048864D02*
G01X0030507Y-048245D01*
G01X0030507Y-048245D02*
G01X0030450Y-048132D01*
G01X0030450Y-048132D02*
G01X0030338Y-048076D01*
G01X0030338Y-048076D02*
G01X0030113Y-048076D01*
G01X0030113Y-048076D02*
G01X0030000Y-048132D01*
G01X0030507Y-048807D02*
G01X0030394Y-048864D01*
G01X0030394Y-048864D02*
G01X0030113Y-048864D01*
G01X0030113Y-048864D02*
G01X0030000Y-048807D01*
G01X0030000Y-048807D02*
G01X0029944Y-048695D01*
G01X0029944Y-048695D02*
G01X0029944Y-048582D01*
G01X0029944Y-048582D02*
G01X0030000Y-048470D01*
G01X0030000Y-048470D02*
G01X0030113Y-048414D01*
G01X0030113Y-048414D02*
G01X0030394Y-048414D01*
G01X0030394Y-048414D02*
G01X0030507Y-048357D01*
G01X0031069Y-048076D02*
G01X0031069Y-049257D01*
G01X0031069Y-048132D02*
G01X0031181Y-048076D01*
G01X0031181Y-048076D02*
G01X0031406Y-048076D01*
G01X0031406Y-048076D02*
G01X0031519Y-048132D01*
G01X0031519Y-048132D02*
G01X0031575Y-048189D01*
G01X0031575Y-048189D02*
G01X0031631Y-048301D01*
G01X0031631Y-048301D02*
G01X0031631Y-048639D01*
G01X0031631Y-048639D02*
G01X0031575Y-048751D01*
G01X0031575Y-048751D02*
G01X0031519Y-048807D01*
G01X0031519Y-048807D02*
G01X0031406Y-048864D01*
G01X0031406Y-048864D02*
G01X0031181Y-048864D01*
G01X0031181Y-048864D02*
G01X0031069Y-048807D01*
G01X0032138Y-048751D02*
G01X0032194Y-048807D01*
G01X0032194Y-048807D02*
G01X0032138Y-048864D01*
G01X0032138Y-048864D02*
G01X0032081Y-048807D01*
G01X0032081Y-048807D02*
G01X0032138Y-048751D01*
G01X0032138Y-048751D02*
G01X0032138Y-048864D01*
G01X0032138Y-048132D02*
G01X0032194Y-048189D01*
G01X0032194Y-048189D02*
G01X0032138Y-048245D01*
G01X0032138Y-048245D02*
G01X0032081Y-048189D01*
G01X0032081Y-048189D02*
G01X0032138Y-048132D01*
G01X0032138Y-048132D02*
G01X0032138Y-048245D01*
G01X0022840Y-050745D02*
G01X0022970Y-050875D01*
G01X0022970Y-050745D02*
G01X0022840Y-050875D01*
G01X0024264Y-050163D02*
G01X0024376Y-050163D01*
G01X0024376Y-050163D02*
G01X0024489Y-050219D01*
G01X0024489Y-050219D02*
G01X0024545Y-050275D01*
G01X0024545Y-050275D02*
G01X0024601Y-050388D01*
G01X0024601Y-050388D02*
G01X0024657Y-050613D01*
G01X0024657Y-050613D02*
G01X0024657Y-050894D01*
G01X0024657Y-050894D02*
G01X0024601Y-051119D01*
G01X0024601Y-051119D02*
G01X0024545Y-051231D01*
G01X0024545Y-051231D02*
G01X0024489Y-051288D01*
G01X0024489Y-051288D02*
G01X0024376Y-051344D01*
G01X0024376Y-051344D02*
G01X0024264Y-051344D01*
G01X0024264Y-051344D02*
G01X0024151Y-051288D01*
G01X0024151Y-051288D02*
G01X0024095Y-051231D01*
G01X0024095Y-051231D02*
G01X0024039Y-051119D01*
G01X0024039Y-051119D02*
G01X0023982Y-050894D01*
G01X0023982Y-050894D02*
G01X0023982Y-050613D01*
G01X0023982Y-050613D02*
G01X0024039Y-050388D01*
G01X0024039Y-050388D02*
G01X0024095Y-050275D01*
G01X0024095Y-050275D02*
G01X0024151Y-050219D01*
G01X0024151Y-050219D02*
G01X0024264Y-050163D01*
G01X0025163Y-051231D02*
G01X0025220Y-051288D01*
G01X0025220Y-051288D02*
G01X0025163Y-051344D01*
G01X0025163Y-051344D02*
G01X0025107Y-051288D01*
G01X0025107Y-051288D02*
G01X0025163Y-051231D01*
G01X0025163Y-051231D02*
G01X0025163Y-051344D01*
G01X0025613Y-050163D02*
G01X0026345Y-050163D01*
G01X0026345Y-050163D02*
G01X0025951Y-050613D01*
G01X0025951Y-050613D02*
G01X0026120Y-050613D01*
G01X0026120Y-050613D02*
G01X0026232Y-050669D01*
G01X0026232Y-050669D02*
G01X0026288Y-050725D01*
G01X0026288Y-050725D02*
G01X0026345Y-050838D01*
G01X0026345Y-050838D02*
G01X0026345Y-051119D01*
G01X0026345Y-051119D02*
G01X0026288Y-051231D01*
G01X0026288Y-051231D02*
G01X0026232Y-051288D01*
G01X0026232Y-051288D02*
G01X0026120Y-051344D01*
G01X0026120Y-051344D02*
G01X0025782Y-051344D01*
G01X0025782Y-051344D02*
G01X0025670Y-051288D01*
G01X0025670Y-051288D02*
G01X0025613Y-051231D01*
G01X0026738Y-050163D02*
G01X0027469Y-050163D01*
G01X0027469Y-050163D02*
G01X0027076Y-050613D01*
G01X0027076Y-050613D02*
G01X0027244Y-050613D01*
G01X0027244Y-050613D02*
G01X0027357Y-050669D01*
G01X0027357Y-050669D02*
G01X0027413Y-050725D01*
G01X0027413Y-050725D02*
G01X0027469Y-050838D01*
G01X0027469Y-050838D02*
G01X0027469Y-051119D01*
G01X0027469Y-051119D02*
G01X0027413Y-051231D01*
G01X0027413Y-051231D02*
G01X0027357Y-051288D01*
G01X0027357Y-051288D02*
G01X0027244Y-051344D01*
G01X0027244Y-051344D02*
G01X0026907Y-051344D01*
G01X0026907Y-051344D02*
G01X0026795Y-051288D01*
G01X0026795Y-051288D02*
G01X0026738Y-051231D01*
G01X0027976Y-051344D02*
G01X0027976Y-050556D01*
G01X0027976Y-050669D02*
G01X0028032Y-050613D01*
G01X0028032Y-050613D02*
G01X0028144Y-050556D01*
G01X0028144Y-050556D02*
G01X0028313Y-050556D01*
G01X0028313Y-050556D02*
G01X0028426Y-050613D01*
G01X0028426Y-050613D02*
G01X0028482Y-050725D01*
G01X0028482Y-050725D02*
G01X0028482Y-051344D01*
G01X0028482Y-050725D02*
G01X0028538Y-050613D01*
G01X0028538Y-050613D02*
G01X0028651Y-050556D01*
G01X0028651Y-050556D02*
G01X0028819Y-050556D01*
G01X0028819Y-050556D02*
G01X0028932Y-050613D01*
G01X0028932Y-050613D02*
G01X0028988Y-050725D01*
G01X0028988Y-050725D02*
G01X0028988Y-051344D01*
G01X0029550Y-051344D02*
G01X0029550Y-050556D01*
G01X0029550Y-050669D02*
G01X0029607Y-050613D01*
G01X0029607Y-050613D02*
G01X0029719Y-050556D01*
G01X0029719Y-050556D02*
G01X0029888Y-050556D01*
G01X0029888Y-050556D02*
G01X0030000Y-050613D01*
G01X0030000Y-050613D02*
G01X0030057Y-050725D01*
G01X0030057Y-050725D02*
G01X0030057Y-051344D01*
G01X0030057Y-050725D02*
G01X0030113Y-050613D01*
G01X0030113Y-050613D02*
G01X0030225Y-050556D01*
G01X0030225Y-050556D02*
G01X0030394Y-050556D01*
G01X0030394Y-050556D02*
G01X0030507Y-050613D01*
G01X0030507Y-050613D02*
G01X0030563Y-050725D01*
G01X0030563Y-050725D02*
G01X0030563Y-051344D01*
G01X0032869Y-050106D02*
G01X0031856Y-051625D01*
G01X0034387Y-050163D02*
G01X0034500Y-050163D01*
G01X0034500Y-050163D02*
G01X0034612Y-050219D01*
G01X0034612Y-050219D02*
G01X0034669Y-050275D01*
G01X0034669Y-050275D02*
G01X0034725Y-050388D01*
G01X0034725Y-050388D02*
G01X0034781Y-050613D01*
G01X0034781Y-050613D02*
G01X0034781Y-050894D01*
G01X0034781Y-050894D02*
G01X0034725Y-051119D01*
G01X0034725Y-051119D02*
G01X0034669Y-051231D01*
G01X0034669Y-051231D02*
G01X0034612Y-051288D01*
G01X0034612Y-051288D02*
G01X0034500Y-051344D01*
G01X0034500Y-051344D02*
G01X0034387Y-051344D01*
G01X0034387Y-051344D02*
G01X0034275Y-051288D01*
G01X0034275Y-051288D02*
G01X0034219Y-051231D01*
G01X0034219Y-051231D02*
G01X0034162Y-051119D01*
G01X0034162Y-051119D02*
G01X0034106Y-050894D01*
G01X0034106Y-050894D02*
G01X0034106Y-050613D01*
G01X0034106Y-050613D02*
G01X0034162Y-050388D01*
G01X0034162Y-050388D02*
G01X0034219Y-050275D01*
G01X0034219Y-050275D02*
G01X0034275Y-050219D01*
G01X0034275Y-050219D02*
G01X0034387Y-050163D01*
G01X0035287Y-051231D02*
G01X0035343Y-051288D01*
G01X0035343Y-051288D02*
G01X0035287Y-051344D01*
G01X0035287Y-051344D02*
G01X0035231Y-051288D01*
G01X0035231Y-051288D02*
G01X0035287Y-051231D01*
G01X0035287Y-051231D02*
G01X0035287Y-051344D01*
G01X0036075Y-050163D02*
G01X0036187Y-050163D01*
G01X0036187Y-050163D02*
G01X0036300Y-050219D01*
G01X0036300Y-050219D02*
G01X0036356Y-050275D01*
G01X0036356Y-050275D02*
G01X0036412Y-050388D01*
G01X0036412Y-050388D02*
G01X0036468Y-050613D01*
G01X0036468Y-050613D02*
G01X0036468Y-050894D01*
G01X0036468Y-050894D02*
G01X0036412Y-051119D01*
G01X0036412Y-051119D02*
G01X0036356Y-051231D01*
G01X0036356Y-051231D02*
G01X0036300Y-051288D01*
G01X0036300Y-051288D02*
G01X0036187Y-051344D01*
G01X0036187Y-051344D02*
G01X0036075Y-051344D01*
G01X0036075Y-051344D02*
G01X0035962Y-051288D01*
G01X0035962Y-051288D02*
G01X0035906Y-051231D01*
G01X0035906Y-051231D02*
G01X0035850Y-051119D01*
G01X0035850Y-051119D02*
G01X0035793Y-050894D01*
G01X0035793Y-050894D02*
G01X0035793Y-050613D01*
G01X0035793Y-050613D02*
G01X0035850Y-050388D01*
G01X0035850Y-050388D02*
G01X0035906Y-050275D01*
G01X0035906Y-050275D02*
G01X0035962Y-050219D01*
G01X0035962Y-050219D02*
G01X0036075Y-050163D01*
G01X0037593Y-051344D02*
G01X0036918Y-051344D01*
G01X0037256Y-051344D02*
G01X0037256Y-050163D01*
G01X0037256Y-050163D02*
G01X0037143Y-050331D01*
G01X0037143Y-050331D02*
G01X0037031Y-050444D01*
G01X0037031Y-050444D02*
G01X0036918Y-050500D01*
G01X0037987Y-050163D02*
G01X0038718Y-050163D01*
G01X0038718Y-050163D02*
G01X0038324Y-050613D01*
G01X0038324Y-050613D02*
G01X0038493Y-050613D01*
G01X0038493Y-050613D02*
G01X0038606Y-050669D01*
G01X0038606Y-050669D02*
G01X0038662Y-050725D01*
G01X0038662Y-050725D02*
G01X0038718Y-050838D01*
G01X0038718Y-050838D02*
G01X0038718Y-051119D01*
G01X0038718Y-051119D02*
G01X0038662Y-051231D01*
G01X0038662Y-051231D02*
G01X0038606Y-051288D01*
G01X0038606Y-051288D02*
G01X0038493Y-051344D01*
G01X0038493Y-051344D02*
G01X0038156Y-051344D01*
G01X0038156Y-051344D02*
G01X0038043Y-051288D01*
G01X0038043Y-051288D02*
G01X0037987Y-051231D01*
G01X0039168Y-050163D02*
G01X0039168Y-050388D01*
G01X0039618Y-050163D02*
G01X0039618Y-050388D01*
G01X0041361Y-051794D02*
G01X0041305Y-051738D01*
G01X0041305Y-051738D02*
G01X0041193Y-051569D01*
G01X0041193Y-051569D02*
G01X0041136Y-051456D01*
G01X0041136Y-051456D02*
G01X0041080Y-051288D01*
G01X0041080Y-051288D02*
G01X0041024Y-051006D01*
G01X0041024Y-051006D02*
G01X0041024Y-050781D01*
G01X0041024Y-050781D02*
G01X0041080Y-050500D01*
G01X0041080Y-050500D02*
G01X0041136Y-050331D01*
G01X0041136Y-050331D02*
G01X0041193Y-050219D01*
G01X0041193Y-050219D02*
G01X0041305Y-050050D01*
G01X0041305Y-050050D02*
G01X0041361Y-049994D01*
G01X0041868Y-051344D02*
G01X0042093Y-051344D01*
G01X0042093Y-051344D02*
G01X0042205Y-051288D01*
G01X0042205Y-051288D02*
G01X0042261Y-051231D01*
G01X0042261Y-051231D02*
G01X0042374Y-051063D01*
G01X0042374Y-051063D02*
G01X0042430Y-050838D01*
G01X0042430Y-050838D02*
G01X0042430Y-050388D01*
G01X0042430Y-050388D02*
G01X0042374Y-050275D01*
G01X0042374Y-050275D02*
G01X0042318Y-050219D01*
G01X0042318Y-050219D02*
G01X0042205Y-050163D01*
G01X0042205Y-050163D02*
G01X0041980Y-050163D01*
G01X0041980Y-050163D02*
G01X0041868Y-050219D01*
G01X0041868Y-050219D02*
G01X0041811Y-050275D01*
G01X0041811Y-050275D02*
G01X0041755Y-050388D01*
G01X0041755Y-050388D02*
G01X0041755Y-050669D01*
G01X0041755Y-050669D02*
G01X0041811Y-050781D01*
G01X0041811Y-050781D02*
G01X0041868Y-050838D01*
G01X0041868Y-050838D02*
G01X0041980Y-050894D01*
G01X0041980Y-050894D02*
G01X0042205Y-050894D01*
G01X0042205Y-050894D02*
G01X0042318Y-050838D01*
G01X0042318Y-050838D02*
G01X0042374Y-050781D01*
G01X0042374Y-050781D02*
G01X0042430Y-050669D01*
G01X0043836Y-051344D02*
G01X0043836Y-050163D01*
G01X0044342Y-051344D02*
G01X0044342Y-050725D01*
G01X0044342Y-050725D02*
G01X0044286Y-050613D01*
G01X0044286Y-050613D02*
G01X0044174Y-050556D01*
G01X0044174Y-050556D02*
G01X0044005Y-050556D01*
G01X0044005Y-050556D02*
G01X0043892Y-050613D01*
G01X0043892Y-050613D02*
G01X0043836Y-050669D01*
G01X0045073Y-051344D02*
G01X0044961Y-051288D01*
G01X0044961Y-051288D02*
G01X0044905Y-051231D01*
G01X0044905Y-051231D02*
G01X0044849Y-051119D01*
G01X0044849Y-051119D02*
G01X0044849Y-050781D01*
G01X0044849Y-050781D02*
G01X0044905Y-050669D01*
G01X0044905Y-050669D02*
G01X0044961Y-050613D01*
G01X0044961Y-050613D02*
G01X0045073Y-050556D01*
G01X0045073Y-050556D02*
G01X0045242Y-050556D01*
G01X0045242Y-050556D02*
G01X0045355Y-050613D01*
G01X0045355Y-050613D02*
G01X0045411Y-050669D01*
G01X0045411Y-050669D02*
G01X0045467Y-050781D01*
G01X0045467Y-050781D02*
G01X0045467Y-051119D01*
G01X0045467Y-051119D02*
G01X0045411Y-051231D01*
G01X0045411Y-051231D02*
G01X0045355Y-051288D01*
G01X0045355Y-051288D02*
G01X0045242Y-051344D01*
G01X0045242Y-051344D02*
G01X0045073Y-051344D01*
G01X0046142Y-051344D02*
G01X0046030Y-051288D01*
G01X0046030Y-051288D02*
G01X0045973Y-051175D01*
G01X0045973Y-051175D02*
G01X0045973Y-050163D01*
G01X0047042Y-051288D02*
G01X0046930Y-051344D01*
G01X0046930Y-051344D02*
G01X0046705Y-051344D01*
G01X0046705Y-051344D02*
G01X0046592Y-051288D01*
G01X0046592Y-051288D02*
G01X0046536Y-051175D01*
G01X0046536Y-051175D02*
G01X0046536Y-050725D01*
G01X0046536Y-050725D02*
G01X0046592Y-050613D01*
G01X0046592Y-050613D02*
G01X0046705Y-050556D01*
G01X0046705Y-050556D02*
G01X0046930Y-050556D01*
G01X0046930Y-050556D02*
G01X0047042Y-050613D01*
G01X0047042Y-050613D02*
G01X0047098Y-050725D01*
G01X0047098Y-050725D02*
G01X0047098Y-050838D01*
G01X0047098Y-050838D02*
G01X0046536Y-050950D01*
G01X0047548Y-051288D02*
G01X0047661Y-051344D01*
G01X0047661Y-051344D02*
G01X0047886Y-051344D01*
G01X0047886Y-051344D02*
G01X0047998Y-051288D01*
G01X0047998Y-051288D02*
G01X0048054Y-051175D01*
G01X0048054Y-051175D02*
G01X0048054Y-051119D01*
G01X0048054Y-051119D02*
G01X0047998Y-051006D01*
G01X0047998Y-051006D02*
G01X0047886Y-050950D01*
G01X0047886Y-050950D02*
G01X0047717Y-050950D01*
G01X0047717Y-050950D02*
G01X0047604Y-050894D01*
G01X0047604Y-050894D02*
G01X0047548Y-050781D01*
G01X0047548Y-050781D02*
G01X0047548Y-050725D01*
G01X0047548Y-050725D02*
G01X0047604Y-050613D01*
G01X0047604Y-050613D02*
G01X0047717Y-050556D01*
G01X0047717Y-050556D02*
G01X0047886Y-050556D01*
G01X0047886Y-050556D02*
G01X0047998Y-050613D01*
G01X0048448Y-051794D02*
G01X0048504Y-051738D01*
G01X0048504Y-051738D02*
G01X0048617Y-051569D01*
G01X0048617Y-051569D02*
G01X0048673Y-051456D01*
G01X0048673Y-051456D02*
G01X0048729Y-051288D01*
G01X0048729Y-051288D02*
G01X0048786Y-051006D01*
G01X0048786Y-051006D02*
G01X0048786Y-050781D01*
G01X0048786Y-050781D02*
G01X0048729Y-050500D01*
G01X0048729Y-050500D02*
G01X0048673Y-050331D01*
G01X0048673Y-050331D02*
G01X0048617Y-050219D01*
G01X0048617Y-050219D02*
G01X0048504Y-050050D01*
G01X0048504Y-050050D02*
G01X0048448Y-049994D01*
G01X0022970Y-052369D02*
G75*
G03X0022970Y-052369I-000157J0000000D01*
G01X0024264Y-051722D02*
G01X0024376Y-051722D01*
G01X0024376Y-051722D02*
G01X0024489Y-051778D01*
G01X0024489Y-051778D02*
G01X0024545Y-051834D01*
G01X0024545Y-051834D02*
G01X0024601Y-051947D01*
G01X0024601Y-051947D02*
G01X0024657Y-052172D01*
G01X0024657Y-052172D02*
G01X0024657Y-052453D01*
G01X0024657Y-052453D02*
G01X0024601Y-052678D01*
G01X0024601Y-052678D02*
G01X0024545Y-052790D01*
G01X0024545Y-052790D02*
G01X0024489Y-052847D01*
G01X0024489Y-052847D02*
G01X0024376Y-052903D01*
G01X0024376Y-052903D02*
G01X0024264Y-052903D01*
G01X0024264Y-052903D02*
G01X0024151Y-052847D01*
G01X0024151Y-052847D02*
G01X0024095Y-052790D01*
G01X0024095Y-052790D02*
G01X0024039Y-052678D01*
G01X0024039Y-052678D02*
G01X0023982Y-052453D01*
G01X0023982Y-052453D02*
G01X0023982Y-052172D01*
G01X0023982Y-052172D02*
G01X0024039Y-051947D01*
G01X0024039Y-051947D02*
G01X0024095Y-051834D01*
G01X0024095Y-051834D02*
G01X0024151Y-051778D01*
G01X0024151Y-051778D02*
G01X0024264Y-051722D01*
G01X0025163Y-052790D02*
G01X0025220Y-052847D01*
G01X0025220Y-052847D02*
G01X0025163Y-052903D01*
G01X0025163Y-052903D02*
G01X0025107Y-052847D01*
G01X0025107Y-052847D02*
G01X0025163Y-052790D01*
G01X0025163Y-052790D02*
G01X0025163Y-052903D01*
G01X0025895Y-052228D02*
G01X0025782Y-052172D01*
G01X0025782Y-052172D02*
G01X0025726Y-052115D01*
G01X0025726Y-052115D02*
G01X0025670Y-052003D01*
G01X0025670Y-052003D02*
G01X0025670Y-051947D01*
G01X0025670Y-051947D02*
G01X0025726Y-051834D01*
G01X0025726Y-051834D02*
G01X0025782Y-051778D01*
G01X0025782Y-051778D02*
G01X0025895Y-051722D01*
G01X0025895Y-051722D02*
G01X0026120Y-051722D01*
G01X0026120Y-051722D02*
G01X0026232Y-051778D01*
G01X0026232Y-051778D02*
G01X0026288Y-051834D01*
G01X0026288Y-051834D02*
G01X0026345Y-051947D01*
G01X0026345Y-051947D02*
G01X0026345Y-052003D01*
G01X0026345Y-052003D02*
G01X0026288Y-052115D01*
G01X0026288Y-052115D02*
G01X0026232Y-052172D01*
G01X0026232Y-052172D02*
G01X0026120Y-052228D01*
G01X0026120Y-052228D02*
G01X0025895Y-052228D01*
G01X0025895Y-052228D02*
G01X0025782Y-052284D01*
G01X0025782Y-052284D02*
G01X0025726Y-052340D01*
G01X0025726Y-052340D02*
G01X0025670Y-052453D01*
G01X0025670Y-052453D02*
G01X0025670Y-052678D01*
G01X0025670Y-052678D02*
G01X0025726Y-052790D01*
G01X0025726Y-052790D02*
G01X0025782Y-052847D01*
G01X0025782Y-052847D02*
G01X0025895Y-052903D01*
G01X0025895Y-052903D02*
G01X0026120Y-052903D01*
G01X0026120Y-052903D02*
G01X0026232Y-052847D01*
G01X0026232Y-052847D02*
G01X0026288Y-052790D01*
G01X0026288Y-052790D02*
G01X0026345Y-052678D01*
G01X0026345Y-052678D02*
G01X0026345Y-052453D01*
G01X0026345Y-052453D02*
G01X0026288Y-052340D01*
G01X0026288Y-052340D02*
G01X0026232Y-052284D01*
G01X0026232Y-052284D02*
G01X0026120Y-052228D01*
G01X0027076Y-051722D02*
G01X0027188Y-051722D01*
G01X0027188Y-051722D02*
G01X0027301Y-051778D01*
G01X0027301Y-051778D02*
G01X0027357Y-051834D01*
G01X0027357Y-051834D02*
G01X0027413Y-051947D01*
G01X0027413Y-051947D02*
G01X0027469Y-052172D01*
G01X0027469Y-052172D02*
G01X0027469Y-052453D01*
G01X0027469Y-052453D02*
G01X0027413Y-052678D01*
G01X0027413Y-052678D02*
G01X0027357Y-052790D01*
G01X0027357Y-052790D02*
G01X0027301Y-052847D01*
G01X0027301Y-052847D02*
G01X0027188Y-052903D01*
G01X0027188Y-052903D02*
G01X0027076Y-052903D01*
G01X0027076Y-052903D02*
G01X0026963Y-052847D01*
G01X0026963Y-052847D02*
G01X0026907Y-052790D01*
G01X0026907Y-052790D02*
G01X0026851Y-052678D01*
G01X0026851Y-052678D02*
G01X0026795Y-052453D01*
G01X0026795Y-052453D02*
G01X0026795Y-052172D01*
G01X0026795Y-052172D02*
G01X0026851Y-051947D01*
G01X0026851Y-051947D02*
G01X0026907Y-051834D01*
G01X0026907Y-051834D02*
G01X0026963Y-051778D01*
G01X0026963Y-051778D02*
G01X0027076Y-051722D01*
G01X0027976Y-052903D02*
G01X0027976Y-052115D01*
G01X0027976Y-052228D02*
G01X0028032Y-052172D01*
G01X0028032Y-052172D02*
G01X0028144Y-052115D01*
G01X0028144Y-052115D02*
G01X0028313Y-052115D01*
G01X0028313Y-052115D02*
G01X0028426Y-052172D01*
G01X0028426Y-052172D02*
G01X0028482Y-052284D01*
G01X0028482Y-052284D02*
G01X0028482Y-052903D01*
G01X0028482Y-052284D02*
G01X0028538Y-052172D01*
G01X0028538Y-052172D02*
G01X0028651Y-052115D01*
G01X0028651Y-052115D02*
G01X0028819Y-052115D01*
G01X0028819Y-052115D02*
G01X0028932Y-052172D01*
G01X0028932Y-052172D02*
G01X0028988Y-052284D01*
G01X0028988Y-052284D02*
G01X0028988Y-052903D01*
G01X0029550Y-052903D02*
G01X0029550Y-052115D01*
G01X0029550Y-052228D02*
G01X0029607Y-052172D01*
G01X0029607Y-052172D02*
G01X0029719Y-052115D01*
G01X0029719Y-052115D02*
G01X0029888Y-052115D01*
G01X0029888Y-052115D02*
G01X0030000Y-052172D01*
G01X0030000Y-052172D02*
G01X0030057Y-052284D01*
G01X0030057Y-052284D02*
G01X0030057Y-052903D01*
G01X0030057Y-052284D02*
G01X0030113Y-052172D01*
G01X0030113Y-052172D02*
G01X0030225Y-052115D01*
G01X0030225Y-052115D02*
G01X0030394Y-052115D01*
G01X0030394Y-052115D02*
G01X0030507Y-052172D01*
G01X0030507Y-052172D02*
G01X0030563Y-052284D01*
G01X0030563Y-052284D02*
G01X0030563Y-052903D01*
G01X0032869Y-051666D02*
G01X0031856Y-053184D01*
G01X0034387Y-051722D02*
G01X0034500Y-051722D01*
G01X0034500Y-051722D02*
G01X0034612Y-051778D01*
G01X0034612Y-051778D02*
G01X0034669Y-051834D01*
G01X0034669Y-051834D02*
G01X0034725Y-051947D01*
G01X0034725Y-051947D02*
G01X0034781Y-052172D01*
G01X0034781Y-052172D02*
G01X0034781Y-052453D01*
G01X0034781Y-052453D02*
G01X0034725Y-052678D01*
G01X0034725Y-052678D02*
G01X0034669Y-052790D01*
G01X0034669Y-052790D02*
G01X0034612Y-052847D01*
G01X0034612Y-052847D02*
G01X0034500Y-052903D01*
G01X0034500Y-052903D02*
G01X0034387Y-052903D01*
G01X0034387Y-052903D02*
G01X0034275Y-052847D01*
G01X0034275Y-052847D02*
G01X0034219Y-052790D01*
G01X0034219Y-052790D02*
G01X0034162Y-052678D01*
G01X0034162Y-052678D02*
G01X0034106Y-052453D01*
G01X0034106Y-052453D02*
G01X0034106Y-052172D01*
G01X0034106Y-052172D02*
G01X0034162Y-051947D01*
G01X0034162Y-051947D02*
G01X0034219Y-051834D01*
G01X0034219Y-051834D02*
G01X0034275Y-051778D01*
G01X0034275Y-051778D02*
G01X0034387Y-051722D01*
G01X0035287Y-052790D02*
G01X0035343Y-052847D01*
G01X0035343Y-052847D02*
G01X0035287Y-052903D01*
G01X0035287Y-052903D02*
G01X0035231Y-052847D01*
G01X0035231Y-052847D02*
G01X0035287Y-052790D01*
G01X0035287Y-052790D02*
G01X0035287Y-052903D01*
G01X0036075Y-051722D02*
G01X0036187Y-051722D01*
G01X0036187Y-051722D02*
G01X0036300Y-051778D01*
G01X0036300Y-051778D02*
G01X0036356Y-051834D01*
G01X0036356Y-051834D02*
G01X0036412Y-051947D01*
G01X0036412Y-051947D02*
G01X0036468Y-052172D01*
G01X0036468Y-052172D02*
G01X0036468Y-052453D01*
G01X0036468Y-052453D02*
G01X0036412Y-052678D01*
G01X0036412Y-052678D02*
G01X0036356Y-052790D01*
G01X0036356Y-052790D02*
G01X0036300Y-052847D01*
G01X0036300Y-052847D02*
G01X0036187Y-052903D01*
G01X0036187Y-052903D02*
G01X0036075Y-052903D01*
G01X0036075Y-052903D02*
G01X0035962Y-052847D01*
G01X0035962Y-052847D02*
G01X0035906Y-052790D01*
G01X0035906Y-052790D02*
G01X0035850Y-052678D01*
G01X0035850Y-052678D02*
G01X0035793Y-052453D01*
G01X0035793Y-052453D02*
G01X0035793Y-052172D01*
G01X0035793Y-052172D02*
G01X0035850Y-051947D01*
G01X0035850Y-051947D02*
G01X0035906Y-051834D01*
G01X0035906Y-051834D02*
G01X0035962Y-051778D01*
G01X0035962Y-051778D02*
G01X0036075Y-051722D01*
G01X0036862Y-051722D02*
G01X0037593Y-051722D01*
G01X0037593Y-051722D02*
G01X0037199Y-052172D01*
G01X0037199Y-052172D02*
G01X0037368Y-052172D01*
G01X0037368Y-052172D02*
G01X0037481Y-052228D01*
G01X0037481Y-052228D02*
G01X0037537Y-052284D01*
G01X0037537Y-052284D02*
G01X0037593Y-052397D01*
G01X0037593Y-052397D02*
G01X0037593Y-052678D01*
G01X0037593Y-052678D02*
G01X0037537Y-052790D01*
G01X0037537Y-052790D02*
G01X0037481Y-052847D01*
G01X0037481Y-052847D02*
G01X0037368Y-052903D01*
G01X0037368Y-052903D02*
G01X0037031Y-052903D01*
G01X0037031Y-052903D02*
G01X0036918Y-052847D01*
G01X0036918Y-052847D02*
G01X0036862Y-052790D01*
G01X0038718Y-052903D02*
G01X0038043Y-052903D01*
G01X0038381Y-052903D02*
G01X0038381Y-051722D01*
G01X0038381Y-051722D02*
G01X0038268Y-051891D01*
G01X0038268Y-051891D02*
G01X0038156Y-052003D01*
G01X0038156Y-052003D02*
G01X0038043Y-052059D01*
G01X0039168Y-051722D02*
G01X0039168Y-051947D01*
G01X0039618Y-051722D02*
G01X0039618Y-051947D01*
G01X0041361Y-053353D02*
G01X0041305Y-053297D01*
G01X0041305Y-053297D02*
G01X0041193Y-053128D01*
G01X0041193Y-053128D02*
G01X0041136Y-053015D01*
G01X0041136Y-053015D02*
G01X0041080Y-052847D01*
G01X0041080Y-052847D02*
G01X0041024Y-052565D01*
G01X0041024Y-052565D02*
G01X0041024Y-052340D01*
G01X0041024Y-052340D02*
G01X0041080Y-052059D01*
G01X0041080Y-052059D02*
G01X0041136Y-051891D01*
G01X0041136Y-051891D02*
G01X0041193Y-051778D01*
G01X0041193Y-051778D02*
G01X0041305Y-051609D01*
G01X0041305Y-051609D02*
G01X0041361Y-051553D01*
G01X0041755Y-051834D02*
G01X0041811Y-051778D01*
G01X0041811Y-051778D02*
G01X0041924Y-051722D01*
G01X0041924Y-051722D02*
G01X0042205Y-051722D01*
G01X0042205Y-051722D02*
G01X0042318Y-051778D01*
G01X0042318Y-051778D02*
G01X0042374Y-051834D01*
G01X0042374Y-051834D02*
G01X0042430Y-051947D01*
G01X0042430Y-051947D02*
G01X0042430Y-052059D01*
G01X0042430Y-052059D02*
G01X0042374Y-052228D01*
G01X0042374Y-052228D02*
G01X0041699Y-052903D01*
G01X0041699Y-052903D02*
G01X0042430Y-052903D01*
G01X0043499Y-051722D02*
G01X0042936Y-051722D01*
G01X0042936Y-051722D02*
G01X0042880Y-052284D01*
G01X0042880Y-052284D02*
G01X0042936Y-052228D01*
G01X0042936Y-052228D02*
G01X0043049Y-052172D01*
G01X0043049Y-052172D02*
G01X0043330Y-052172D01*
G01X0043330Y-052172D02*
G01X0043442Y-052228D01*
G01X0043442Y-052228D02*
G01X0043499Y-052284D01*
G01X0043499Y-052284D02*
G01X0043555Y-052397D01*
G01X0043555Y-052397D02*
G01X0043555Y-052678D01*
G01X0043555Y-052678D02*
G01X0043499Y-052790D01*
G01X0043499Y-052790D02*
G01X0043442Y-052847D01*
G01X0043442Y-052847D02*
G01X0043330Y-052903D01*
G01X0043330Y-052903D02*
G01X0043049Y-052903D01*
G01X0043049Y-052903D02*
G01X0042936Y-052847D01*
G01X0042936Y-052847D02*
G01X0042880Y-052790D01*
G01X0044961Y-052903D02*
G01X0044961Y-051722D01*
G01X0045467Y-052903D02*
G01X0045467Y-052284D01*
G01X0045467Y-052284D02*
G01X0045411Y-052172D01*
G01X0045411Y-052172D02*
G01X0045298Y-052115D01*
G01X0045298Y-052115D02*
G01X0045130Y-052115D01*
G01X0045130Y-052115D02*
G01X0045017Y-052172D01*
G01X0045017Y-052172D02*
G01X0044961Y-052228D01*
G01X0046198Y-052903D02*
G01X0046086Y-052847D01*
G01X0046086Y-052847D02*
G01X0046030Y-052790D01*
G01X0046030Y-052790D02*
G01X0045973Y-052678D01*
G01X0045973Y-052678D02*
G01X0045973Y-052340D01*
G01X0045973Y-052340D02*
G01X0046030Y-052228D01*
G01X0046030Y-052228D02*
G01X0046086Y-052172D01*
G01X0046086Y-052172D02*
G01X0046198Y-052115D01*
G01X0046198Y-052115D02*
G01X0046367Y-052115D01*
G01X0046367Y-052115D02*
G01X0046480Y-052172D01*
G01X0046480Y-052172D02*
G01X0046536Y-052228D01*
G01X0046536Y-052228D02*
G01X0046592Y-052340D01*
G01X0046592Y-052340D02*
G01X0046592Y-052678D01*
G01X0046592Y-052678D02*
G01X0046536Y-052790D01*
G01X0046536Y-052790D02*
G01X0046480Y-052847D01*
G01X0046480Y-052847D02*
G01X0046367Y-052903D01*
G01X0046367Y-052903D02*
G01X0046198Y-052903D01*
G01X0047267Y-052903D02*
G01X0047154Y-052847D01*
G01X0047154Y-052847D02*
G01X0047098Y-052734D01*
G01X0047098Y-052734D02*
G01X0047098Y-051722D01*
G01X0048167Y-052847D02*
G01X0048054Y-052903D01*
G01X0048054Y-052903D02*
G01X0047829Y-052903D01*
G01X0047829Y-052903D02*
G01X0047717Y-052847D01*
G01X0047717Y-052847D02*
G01X0047661Y-052734D01*
G01X0047661Y-052734D02*
G01X0047661Y-052284D01*
G01X0047661Y-052284D02*
G01X0047717Y-052172D01*
G01X0047717Y-052172D02*
G01X0047829Y-052115D01*
G01X0047829Y-052115D02*
G01X0048054Y-052115D01*
G01X0048054Y-052115D02*
G01X0048167Y-052172D01*
G01X0048167Y-052172D02*
G01X0048223Y-052284D01*
G01X0048223Y-052284D02*
G01X0048223Y-052397D01*
G01X0048223Y-052397D02*
G01X0047661Y-052509D01*
G01X0048673Y-052847D02*
G01X0048786Y-052903D01*
G01X0048786Y-052903D02*
G01X0049010Y-052903D01*
G01X0049010Y-052903D02*
G01X0049123Y-052847D01*
G01X0049123Y-052847D02*
G01X0049179Y-052734D01*
G01X0049179Y-052734D02*
G01X0049179Y-052678D01*
G01X0049179Y-052678D02*
G01X0049123Y-052565D01*
G01X0049123Y-052565D02*
G01X0049010Y-052509D01*
G01X0049010Y-052509D02*
G01X0048842Y-052509D01*
G01X0048842Y-052509D02*
G01X0048729Y-052453D01*
G01X0048729Y-052453D02*
G01X0048673Y-052340D01*
G01X0048673Y-052340D02*
G01X0048673Y-052284D01*
G01X0048673Y-052284D02*
G01X0048729Y-052172D01*
G01X0048729Y-052172D02*
G01X0048842Y-052115D01*
G01X0048842Y-052115D02*
G01X0049010Y-052115D01*
G01X0049010Y-052115D02*
G01X0049123Y-052172D01*
G01X0049573Y-053353D02*
G01X0049629Y-053297D01*
G01X0049629Y-053297D02*
G01X0049742Y-053128D01*
G01X0049742Y-053128D02*
G01X0049798Y-053015D01*
G01X0049798Y-053015D02*
G01X0049854Y-052847D01*
G01X0049854Y-052847D02*
G01X0049910Y-052565D01*
G01X0049910Y-052565D02*
G01X0049910Y-052340D01*
G01X0049910Y-052340D02*
G01X0049854Y-052059D01*
G01X0049854Y-052059D02*
G01X0049798Y-051891D01*
G01X0049798Y-051891D02*
G01X0049742Y-051778D01*
G01X0049742Y-051778D02*
G01X0049629Y-051609D01*
G01X0049629Y-051609D02*
G01X0049573Y-051553D01*
G01X0022773Y-053731D02*
G01X0022773Y-054124D01*
G01X0022576Y-053928D02*
G01X0022970Y-053928D01*
G01X0024657Y-054462D02*
G01X0023982Y-054462D01*
G01X0024320Y-054462D02*
G01X0024320Y-053281D01*
G01X0024320Y-053281D02*
G01X0024207Y-053450D01*
G01X0024207Y-053450D02*
G01X0024095Y-053562D01*
G01X0024095Y-053562D02*
G01X0023982Y-053618D01*
G01X0025163Y-054349D02*
G01X0025220Y-054406D01*
G01X0025220Y-054406D02*
G01X0025163Y-054462D01*
G01X0025163Y-054462D02*
G01X0025107Y-054406D01*
G01X0025107Y-054406D02*
G01X0025163Y-054349D01*
G01X0025163Y-054349D02*
G01X0025163Y-054462D01*
G01X0025951Y-053281D02*
G01X0026063Y-053281D01*
G01X0026063Y-053281D02*
G01X0026176Y-053337D01*
G01X0026176Y-053337D02*
G01X0026232Y-053393D01*
G01X0026232Y-053393D02*
G01X0026288Y-053506D01*
G01X0026288Y-053506D02*
G01X0026345Y-053731D01*
G01X0026345Y-053731D02*
G01X0026345Y-054012D01*
G01X0026345Y-054012D02*
G01X0026288Y-054237D01*
G01X0026288Y-054237D02*
G01X0026232Y-054349D01*
G01X0026232Y-054349D02*
G01X0026176Y-054406D01*
G01X0026176Y-054406D02*
G01X0026063Y-054462D01*
G01X0026063Y-054462D02*
G01X0025951Y-054462D01*
G01X0025951Y-054462D02*
G01X0025838Y-054406D01*
G01X0025838Y-054406D02*
G01X0025782Y-054349D01*
G01X0025782Y-054349D02*
G01X0025726Y-054237D01*
G01X0025726Y-054237D02*
G01X0025670Y-054012D01*
G01X0025670Y-054012D02*
G01X0025670Y-053731D01*
G01X0025670Y-053731D02*
G01X0025726Y-053506D01*
G01X0025726Y-053506D02*
G01X0025782Y-053393D01*
G01X0025782Y-053393D02*
G01X0025838Y-053337D01*
G01X0025838Y-053337D02*
G01X0025951Y-053281D01*
G01X0027076Y-053281D02*
G01X0027188Y-053281D01*
G01X0027188Y-053281D02*
G01X0027301Y-053337D01*
G01X0027301Y-053337D02*
G01X0027357Y-053393D01*
G01X0027357Y-053393D02*
G01X0027413Y-053506D01*
G01X0027413Y-053506D02*
G01X0027469Y-053731D01*
G01X0027469Y-053731D02*
G01X0027469Y-054012D01*
G01X0027469Y-054012D02*
G01X0027413Y-054237D01*
G01X0027413Y-054237D02*
G01X0027357Y-054349D01*
G01X0027357Y-054349D02*
G01X0027301Y-054406D01*
G01X0027301Y-054406D02*
G01X0027188Y-054462D01*
G01X0027188Y-054462D02*
G01X0027076Y-054462D01*
G01X0027076Y-054462D02*
G01X0026963Y-054406D01*
G01X0026963Y-054406D02*
G01X0026907Y-054349D01*
G01X0026907Y-054349D02*
G01X0026851Y-054237D01*
G01X0026851Y-054237D02*
G01X0026795Y-054012D01*
G01X0026795Y-054012D02*
G01X0026795Y-053731D01*
G01X0026795Y-053731D02*
G01X0026851Y-053506D01*
G01X0026851Y-053506D02*
G01X0026907Y-053393D01*
G01X0026907Y-053393D02*
G01X0026963Y-053337D01*
G01X0026963Y-053337D02*
G01X0027076Y-053281D01*
G01X0027976Y-054462D02*
G01X0027976Y-053675D01*
G01X0027976Y-053787D02*
G01X0028032Y-053731D01*
G01X0028032Y-053731D02*
G01X0028144Y-053675D01*
G01X0028144Y-053675D02*
G01X0028313Y-053675D01*
G01X0028313Y-053675D02*
G01X0028426Y-053731D01*
G01X0028426Y-053731D02*
G01X0028482Y-053843D01*
G01X0028482Y-053843D02*
G01X0028482Y-054462D01*
G01X0028482Y-053843D02*
G01X0028538Y-053731D01*
G01X0028538Y-053731D02*
G01X0028651Y-053675D01*
G01X0028651Y-053675D02*
G01X0028819Y-053675D01*
G01X0028819Y-053675D02*
G01X0028932Y-053731D01*
G01X0028932Y-053731D02*
G01X0028988Y-053843D01*
G01X0028988Y-053843D02*
G01X0028988Y-054462D01*
G01X0029550Y-054462D02*
G01X0029550Y-053675D01*
G01X0029550Y-053787D02*
G01X0029607Y-053731D01*
G01X0029607Y-053731D02*
G01X0029719Y-053675D01*
G01X0029719Y-053675D02*
G01X0029888Y-053675D01*
G01X0029888Y-053675D02*
G01X0030000Y-053731D01*
G01X0030000Y-053731D02*
G01X0030057Y-053843D01*
G01X0030057Y-053843D02*
G01X0030057Y-054462D01*
G01X0030057Y-053843D02*
G01X0030113Y-053731D01*
G01X0030113Y-053731D02*
G01X0030225Y-053675D01*
G01X0030225Y-053675D02*
G01X0030394Y-053675D01*
G01X0030394Y-053675D02*
G01X0030507Y-053731D01*
G01X0030507Y-053731D02*
G01X0030563Y-053843D01*
G01X0030563Y-053843D02*
G01X0030563Y-054462D01*
G01X0032869Y-053225D02*
G01X0031856Y-054743D01*
G01X0034387Y-053281D02*
G01X0034500Y-053281D01*
G01X0034500Y-053281D02*
G01X0034612Y-053337D01*
G01X0034612Y-053337D02*
G01X0034669Y-053393D01*
G01X0034669Y-053393D02*
G01X0034725Y-053506D01*
G01X0034725Y-053506D02*
G01X0034781Y-053731D01*
G01X0034781Y-053731D02*
G01X0034781Y-054012D01*
G01X0034781Y-054012D02*
G01X0034725Y-054237D01*
G01X0034725Y-054237D02*
G01X0034669Y-054349D01*
G01X0034669Y-054349D02*
G01X0034612Y-054406D01*
G01X0034612Y-054406D02*
G01X0034500Y-054462D01*
G01X0034500Y-054462D02*
G01X0034387Y-054462D01*
G01X0034387Y-054462D02*
G01X0034275Y-054406D01*
G01X0034275Y-054406D02*
G01X0034219Y-054349D01*
G01X0034219Y-054349D02*
G01X0034162Y-054237D01*
G01X0034162Y-054237D02*
G01X0034106Y-054012D01*
G01X0034106Y-054012D02*
G01X0034106Y-053731D01*
G01X0034106Y-053731D02*
G01X0034162Y-053506D01*
G01X0034162Y-053506D02*
G01X0034219Y-053393D01*
G01X0034219Y-053393D02*
G01X0034275Y-053337D01*
G01X0034275Y-053337D02*
G01X0034387Y-053281D01*
G01X0035287Y-054349D02*
G01X0035343Y-054406D01*
G01X0035343Y-054406D02*
G01X0035287Y-054462D01*
G01X0035287Y-054462D02*
G01X0035231Y-054406D01*
G01X0035231Y-054406D02*
G01X0035287Y-054349D01*
G01X0035287Y-054349D02*
G01X0035287Y-054462D01*
G01X0036075Y-053281D02*
G01X0036187Y-053281D01*
G01X0036187Y-053281D02*
G01X0036300Y-053337D01*
G01X0036300Y-053337D02*
G01X0036356Y-053393D01*
G01X0036356Y-053393D02*
G01X0036412Y-053506D01*
G01X0036412Y-053506D02*
G01X0036468Y-053731D01*
G01X0036468Y-053731D02*
G01X0036468Y-054012D01*
G01X0036468Y-054012D02*
G01X0036412Y-054237D01*
G01X0036412Y-054237D02*
G01X0036356Y-054349D01*
G01X0036356Y-054349D02*
G01X0036300Y-054406D01*
G01X0036300Y-054406D02*
G01X0036187Y-054462D01*
G01X0036187Y-054462D02*
G01X0036075Y-054462D01*
G01X0036075Y-054462D02*
G01X0035962Y-054406D01*
G01X0035962Y-054406D02*
G01X0035906Y-054349D01*
G01X0035906Y-054349D02*
G01X0035850Y-054237D01*
G01X0035850Y-054237D02*
G01X0035793Y-054012D01*
G01X0035793Y-054012D02*
G01X0035793Y-053731D01*
G01X0035793Y-053731D02*
G01X0035850Y-053506D01*
G01X0035850Y-053506D02*
G01X0035906Y-053393D01*
G01X0035906Y-053393D02*
G01X0035962Y-053337D01*
G01X0035962Y-053337D02*
G01X0036075Y-053281D01*
G01X0036862Y-053281D02*
G01X0037593Y-053281D01*
G01X0037593Y-053281D02*
G01X0037199Y-053731D01*
G01X0037199Y-053731D02*
G01X0037368Y-053731D01*
G01X0037368Y-053731D02*
G01X0037481Y-053787D01*
G01X0037481Y-053787D02*
G01X0037537Y-053843D01*
G01X0037537Y-053843D02*
G01X0037593Y-053956D01*
G01X0037593Y-053956D02*
G01X0037593Y-054237D01*
G01X0037593Y-054237D02*
G01X0037537Y-054349D01*
G01X0037537Y-054349D02*
G01X0037481Y-054406D01*
G01X0037481Y-054406D02*
G01X0037368Y-054462D01*
G01X0037368Y-054462D02*
G01X0037031Y-054462D01*
G01X0037031Y-054462D02*
G01X0036918Y-054406D01*
G01X0036918Y-054406D02*
G01X0036862Y-054349D01*
G01X0038156Y-054462D02*
G01X0038381Y-054462D01*
G01X0038381Y-054462D02*
G01X0038493Y-054406D01*
G01X0038493Y-054406D02*
G01X0038549Y-054349D01*
G01X0038549Y-054349D02*
G01X0038662Y-054181D01*
G01X0038662Y-054181D02*
G01X0038718Y-053956D01*
G01X0038718Y-053956D02*
G01X0038718Y-053506D01*
G01X0038718Y-053506D02*
G01X0038662Y-053393D01*
G01X0038662Y-053393D02*
G01X0038606Y-053337D01*
G01X0038606Y-053337D02*
G01X0038493Y-053281D01*
G01X0038493Y-053281D02*
G01X0038268Y-053281D01*
G01X0038268Y-053281D02*
G01X0038156Y-053337D01*
G01X0038156Y-053337D02*
G01X0038099Y-053393D01*
G01X0038099Y-053393D02*
G01X0038043Y-053506D01*
G01X0038043Y-053506D02*
G01X0038043Y-053787D01*
G01X0038043Y-053787D02*
G01X0038099Y-053900D01*
G01X0038099Y-053900D02*
G01X0038156Y-053956D01*
G01X0038156Y-053956D02*
G01X0038268Y-054012D01*
G01X0038268Y-054012D02*
G01X0038493Y-054012D01*
G01X0038493Y-054012D02*
G01X0038606Y-053956D01*
G01X0038606Y-053956D02*
G01X0038662Y-053900D01*
G01X0038662Y-053900D02*
G01X0038718Y-053787D01*
G01X0039168Y-053281D02*
G01X0039168Y-053506D01*
G01X0039618Y-053281D02*
G01X0039618Y-053506D01*
G01X0041361Y-054912D02*
G01X0041305Y-054856D01*
G01X0041305Y-054856D02*
G01X0041193Y-054687D01*
G01X0041193Y-054687D02*
G01X0041136Y-054574D01*
G01X0041136Y-054574D02*
G01X0041080Y-054406D01*
G01X0041080Y-054406D02*
G01X0041024Y-054124D01*
G01X0041024Y-054124D02*
G01X0041024Y-053900D01*
G01X0041024Y-053900D02*
G01X0041080Y-053618D01*
G01X0041080Y-053618D02*
G01X0041136Y-053450D01*
G01X0041136Y-053450D02*
G01X0041193Y-053337D01*
G01X0041193Y-053337D02*
G01X0041305Y-053168D01*
G01X0041305Y-053168D02*
G01X0041361Y-053112D01*
G01X0041699Y-053281D02*
G01X0042430Y-053281D01*
G01X0042430Y-053281D02*
G01X0042036Y-053731D01*
G01X0042036Y-053731D02*
G01X0042205Y-053731D01*
G01X0042205Y-053731D02*
G01X0042318Y-053787D01*
G01X0042318Y-053787D02*
G01X0042374Y-053843D01*
G01X0042374Y-053843D02*
G01X0042430Y-053956D01*
G01X0042430Y-053956D02*
G01X0042430Y-054237D01*
G01X0042430Y-054237D02*
G01X0042374Y-054349D01*
G01X0042374Y-054349D02*
G01X0042318Y-054406D01*
G01X0042318Y-054406D02*
G01X0042205Y-054462D01*
G01X0042205Y-054462D02*
G01X0041868Y-054462D01*
G01X0041868Y-054462D02*
G01X0041755Y-054406D01*
G01X0041755Y-054406D02*
G01X0041699Y-054349D01*
G01X0043161Y-053281D02*
G01X0043274Y-053281D01*
G01X0043274Y-053281D02*
G01X0043386Y-053337D01*
G01X0043386Y-053337D02*
G01X0043442Y-053393D01*
G01X0043442Y-053393D02*
G01X0043499Y-053506D01*
G01X0043499Y-053506D02*
G01X0043555Y-053731D01*
G01X0043555Y-053731D02*
G01X0043555Y-054012D01*
G01X0043555Y-054012D02*
G01X0043499Y-054237D01*
G01X0043499Y-054237D02*
G01X0043442Y-054349D01*
G01X0043442Y-054349D02*
G01X0043386Y-054406D01*
G01X0043386Y-054406D02*
G01X0043274Y-054462D01*
G01X0043274Y-054462D02*
G01X0043161Y-054462D01*
G01X0043161Y-054462D02*
G01X0043049Y-054406D01*
G01X0043049Y-054406D02*
G01X0042992Y-054349D01*
G01X0042992Y-054349D02*
G01X0042936Y-054237D01*
G01X0042936Y-054237D02*
G01X0042880Y-054012D01*
G01X0042880Y-054012D02*
G01X0042880Y-053731D01*
G01X0042880Y-053731D02*
G01X0042936Y-053506D01*
G01X0042936Y-053506D02*
G01X0042992Y-053393D01*
G01X0042992Y-053393D02*
G01X0043049Y-053337D01*
G01X0043049Y-053337D02*
G01X0043161Y-053281D01*
G01X0044961Y-054462D02*
G01X0044961Y-053281D01*
G01X0045467Y-054462D02*
G01X0045467Y-053843D01*
G01X0045467Y-053843D02*
G01X0045411Y-053731D01*
G01X0045411Y-053731D02*
G01X0045298Y-053675D01*
G01X0045298Y-053675D02*
G01X0045130Y-053675D01*
G01X0045130Y-053675D02*
G01X0045017Y-053731D01*
G01X0045017Y-053731D02*
G01X0044961Y-053787D01*
G01X0046198Y-054462D02*
G01X0046086Y-054406D01*
G01X0046086Y-054406D02*
G01X0046030Y-054349D01*
G01X0046030Y-054349D02*
G01X0045973Y-054237D01*
G01X0045973Y-054237D02*
G01X0045973Y-053900D01*
G01X0045973Y-053900D02*
G01X0046030Y-053787D01*
G01X0046030Y-053787D02*
G01X0046086Y-053731D01*
G01X0046086Y-053731D02*
G01X0046198Y-053675D01*
G01X0046198Y-053675D02*
G01X0046367Y-053675D01*
G01X0046367Y-053675D02*
G01X0046480Y-053731D01*
G01X0046480Y-053731D02*
G01X0046536Y-053787D01*
G01X0046536Y-053787D02*
G01X0046592Y-053900D01*
G01X0046592Y-053900D02*
G01X0046592Y-054237D01*
G01X0046592Y-054237D02*
G01X0046536Y-054349D01*
G01X0046536Y-054349D02*
G01X0046480Y-054406D01*
G01X0046480Y-054406D02*
G01X0046367Y-054462D01*
G01X0046367Y-054462D02*
G01X0046198Y-054462D01*
G01X0047267Y-054462D02*
G01X0047154Y-054406D01*
G01X0047154Y-054406D02*
G01X0047098Y-054293D01*
G01X0047098Y-054293D02*
G01X0047098Y-053281D01*
G01X0048167Y-054406D02*
G01X0048054Y-054462D01*
G01X0048054Y-054462D02*
G01X0047829Y-054462D01*
G01X0047829Y-054462D02*
G01X0047717Y-054406D01*
G01X0047717Y-054406D02*
G01X0047661Y-054293D01*
G01X0047661Y-054293D02*
G01X0047661Y-053843D01*
G01X0047661Y-053843D02*
G01X0047717Y-053731D01*
G01X0047717Y-053731D02*
G01X0047829Y-053675D01*
G01X0047829Y-053675D02*
G01X0048054Y-053675D01*
G01X0048054Y-053675D02*
G01X0048167Y-053731D01*
G01X0048167Y-053731D02*
G01X0048223Y-053843D01*
G01X0048223Y-053843D02*
G01X0048223Y-053956D01*
G01X0048223Y-053956D02*
G01X0047661Y-054068D01*
G01X0048673Y-054406D02*
G01X0048786Y-054462D01*
G01X0048786Y-054462D02*
G01X0049010Y-054462D01*
G01X0049010Y-054462D02*
G01X0049123Y-054406D01*
G01X0049123Y-054406D02*
G01X0049179Y-054293D01*
G01X0049179Y-054293D02*
G01X0049179Y-054237D01*
G01X0049179Y-054237D02*
G01X0049123Y-054124D01*
G01X0049123Y-054124D02*
G01X0049010Y-054068D01*
G01X0049010Y-054068D02*
G01X0048842Y-054068D01*
G01X0048842Y-054068D02*
G01X0048729Y-054012D01*
G01X0048729Y-054012D02*
G01X0048673Y-053900D01*
G01X0048673Y-053900D02*
G01X0048673Y-053843D01*
G01X0048673Y-053843D02*
G01X0048729Y-053731D01*
G01X0048729Y-053731D02*
G01X0048842Y-053675D01*
G01X0048842Y-053675D02*
G01X0049010Y-053675D01*
G01X0049010Y-053675D02*
G01X0049123Y-053731D01*
G01X0049573Y-054912D02*
G01X0049629Y-054856D01*
G01X0049629Y-054856D02*
G01X0049742Y-054687D01*
G01X0049742Y-054687D02*
G01X0049798Y-054574D01*
G01X0049798Y-054574D02*
G01X0049854Y-054406D01*
G01X0049854Y-054406D02*
G01X0049910Y-054124D01*
G01X0049910Y-054124D02*
G01X0049910Y-053900D01*
G01X0049910Y-053900D02*
G01X0049854Y-053618D01*
G01X0049854Y-053618D02*
G01X0049798Y-053450D01*
G01X0049798Y-053450D02*
G01X0049742Y-053337D01*
G01X0049742Y-053337D02*
G01X0049629Y-053168D01*
G01X0049629Y-053168D02*
G01X0049573Y-053112D01*
G01X0022912Y-055626D02*
G01X0022912Y-055347D01*
G01X0022912Y-055347D02*
G01X0022634Y-055347D01*
G01X0022634Y-055347D02*
G01X0022634Y-055626D01*
G01X0022634Y-055626D02*
G01X0022912Y-055626D01*
G01X0024657Y-056021D02*
G01X0023982Y-056021D01*
G01X0024320Y-056021D02*
G01X0024320Y-054840D01*
G01X0024320Y-054840D02*
G01X0024207Y-055009D01*
G01X0024207Y-055009D02*
G01X0024095Y-055121D01*
G01X0024095Y-055121D02*
G01X0023982Y-055177D01*
G01X0025163Y-055909D02*
G01X0025220Y-055965D01*
G01X0025220Y-055965D02*
G01X0025163Y-056021D01*
G01X0025163Y-056021D02*
G01X0025107Y-055965D01*
G01X0025107Y-055965D02*
G01X0025163Y-055909D01*
G01X0025163Y-055909D02*
G01X0025163Y-056021D01*
G01X0025951Y-054840D02*
G01X0026063Y-054840D01*
G01X0026063Y-054840D02*
G01X0026176Y-054896D01*
G01X0026176Y-054896D02*
G01X0026232Y-054952D01*
G01X0026232Y-054952D02*
G01X0026288Y-055065D01*
G01X0026288Y-055065D02*
G01X0026345Y-055290D01*
G01X0026345Y-055290D02*
G01X0026345Y-055571D01*
G01X0026345Y-055571D02*
G01X0026288Y-055796D01*
G01X0026288Y-055796D02*
G01X0026232Y-055909D01*
G01X0026232Y-055909D02*
G01X0026176Y-055965D01*
G01X0026176Y-055965D02*
G01X0026063Y-056021D01*
G01X0026063Y-056021D02*
G01X0025951Y-056021D01*
G01X0025951Y-056021D02*
G01X0025838Y-055965D01*
G01X0025838Y-055965D02*
G01X0025782Y-055909D01*
G01X0025782Y-055909D02*
G01X0025726Y-055796D01*
G01X0025726Y-055796D02*
G01X0025670Y-055571D01*
G01X0025670Y-055571D02*
G01X0025670Y-055290D01*
G01X0025670Y-055290D02*
G01X0025726Y-055065D01*
G01X0025726Y-055065D02*
G01X0025782Y-054952D01*
G01X0025782Y-054952D02*
G01X0025838Y-054896D01*
G01X0025838Y-054896D02*
G01X0025951Y-054840D01*
G01X0027076Y-054840D02*
G01X0027188Y-054840D01*
G01X0027188Y-054840D02*
G01X0027301Y-054896D01*
G01X0027301Y-054896D02*
G01X0027357Y-054952D01*
G01X0027357Y-054952D02*
G01X0027413Y-055065D01*
G01X0027413Y-055065D02*
G01X0027469Y-055290D01*
G01X0027469Y-055290D02*
G01X0027469Y-055571D01*
G01X0027469Y-055571D02*
G01X0027413Y-055796D01*
G01X0027413Y-055796D02*
G01X0027357Y-055909D01*
G01X0027357Y-055909D02*
G01X0027301Y-055965D01*
G01X0027301Y-055965D02*
G01X0027188Y-056021D01*
G01X0027188Y-056021D02*
G01X0027076Y-056021D01*
G01X0027076Y-056021D02*
G01X0026963Y-055965D01*
G01X0026963Y-055965D02*
G01X0026907Y-055909D01*
G01X0026907Y-055909D02*
G01X0026851Y-055796D01*
G01X0026851Y-055796D02*
G01X0026795Y-055571D01*
G01X0026795Y-055571D02*
G01X0026795Y-055290D01*
G01X0026795Y-055290D02*
G01X0026851Y-055065D01*
G01X0026851Y-055065D02*
G01X0026907Y-054952D01*
G01X0026907Y-054952D02*
G01X0026963Y-054896D01*
G01X0026963Y-054896D02*
G01X0027076Y-054840D01*
G01X0027976Y-056021D02*
G01X0027976Y-055234D01*
G01X0027976Y-055346D02*
G01X0028032Y-055290D01*
G01X0028032Y-055290D02*
G01X0028144Y-055234D01*
G01X0028144Y-055234D02*
G01X0028313Y-055234D01*
G01X0028313Y-055234D02*
G01X0028426Y-055290D01*
G01X0028426Y-055290D02*
G01X0028482Y-055402D01*
G01X0028482Y-055402D02*
G01X0028482Y-056021D01*
G01X0028482Y-055402D02*
G01X0028538Y-055290D01*
G01X0028538Y-055290D02*
G01X0028651Y-055234D01*
G01X0028651Y-055234D02*
G01X0028819Y-055234D01*
G01X0028819Y-055234D02*
G01X0028932Y-055290D01*
G01X0028932Y-055290D02*
G01X0028988Y-055402D01*
G01X0028988Y-055402D02*
G01X0028988Y-056021D01*
G01X0029550Y-056021D02*
G01X0029550Y-055234D01*
G01X0029550Y-055346D02*
G01X0029607Y-055290D01*
G01X0029607Y-055290D02*
G01X0029719Y-055234D01*
G01X0029719Y-055234D02*
G01X0029888Y-055234D01*
G01X0029888Y-055234D02*
G01X0030000Y-055290D01*
G01X0030000Y-055290D02*
G01X0030057Y-055402D01*
G01X0030057Y-055402D02*
G01X0030057Y-056021D01*
G01X0030057Y-055402D02*
G01X0030113Y-055290D01*
G01X0030113Y-055290D02*
G01X0030225Y-055234D01*
G01X0030225Y-055234D02*
G01X0030394Y-055234D01*
G01X0030394Y-055234D02*
G01X0030507Y-055290D01*
G01X0030507Y-055290D02*
G01X0030563Y-055402D01*
G01X0030563Y-055402D02*
G01X0030563Y-056021D01*
G01X0032869Y-054784D02*
G01X0031856Y-056302D01*
G01X0034387Y-054840D02*
G01X0034500Y-054840D01*
G01X0034500Y-054840D02*
G01X0034612Y-054896D01*
G01X0034612Y-054896D02*
G01X0034669Y-054952D01*
G01X0034669Y-054952D02*
G01X0034725Y-055065D01*
G01X0034725Y-055065D02*
G01X0034781Y-055290D01*
G01X0034781Y-055290D02*
G01X0034781Y-055571D01*
G01X0034781Y-055571D02*
G01X0034725Y-055796D01*
G01X0034725Y-055796D02*
G01X0034669Y-055909D01*
G01X0034669Y-055909D02*
G01X0034612Y-055965D01*
G01X0034612Y-055965D02*
G01X0034500Y-056021D01*
G01X0034500Y-056021D02*
G01X0034387Y-056021D01*
G01X0034387Y-056021D02*
G01X0034275Y-055965D01*
G01X0034275Y-055965D02*
G01X0034219Y-055909D01*
G01X0034219Y-055909D02*
G01X0034162Y-055796D01*
G01X0034162Y-055796D02*
G01X0034106Y-055571D01*
G01X0034106Y-055571D02*
G01X0034106Y-055290D01*
G01X0034106Y-055290D02*
G01X0034162Y-055065D01*
G01X0034162Y-055065D02*
G01X0034219Y-054952D01*
G01X0034219Y-054952D02*
G01X0034275Y-054896D01*
G01X0034275Y-054896D02*
G01X0034387Y-054840D01*
G01X0035287Y-055909D02*
G01X0035343Y-055965D01*
G01X0035343Y-055965D02*
G01X0035287Y-056021D01*
G01X0035287Y-056021D02*
G01X0035231Y-055965D01*
G01X0035231Y-055965D02*
G01X0035287Y-055909D01*
G01X0035287Y-055909D02*
G01X0035287Y-056021D01*
G01X0036075Y-054840D02*
G01X0036187Y-054840D01*
G01X0036187Y-054840D02*
G01X0036300Y-054896D01*
G01X0036300Y-054896D02*
G01X0036356Y-054952D01*
G01X0036356Y-054952D02*
G01X0036412Y-055065D01*
G01X0036412Y-055065D02*
G01X0036468Y-055290D01*
G01X0036468Y-055290D02*
G01X0036468Y-055571D01*
G01X0036468Y-055571D02*
G01X0036412Y-055796D01*
G01X0036412Y-055796D02*
G01X0036356Y-055909D01*
G01X0036356Y-055909D02*
G01X0036300Y-055965D01*
G01X0036300Y-055965D02*
G01X0036187Y-056021D01*
G01X0036187Y-056021D02*
G01X0036075Y-056021D01*
G01X0036075Y-056021D02*
G01X0035962Y-055965D01*
G01X0035962Y-055965D02*
G01X0035906Y-055909D01*
G01X0035906Y-055909D02*
G01X0035850Y-055796D01*
G01X0035850Y-055796D02*
G01X0035793Y-055571D01*
G01X0035793Y-055571D02*
G01X0035793Y-055290D01*
G01X0035793Y-055290D02*
G01X0035850Y-055065D01*
G01X0035850Y-055065D02*
G01X0035906Y-054952D01*
G01X0035906Y-054952D02*
G01X0035962Y-054896D01*
G01X0035962Y-054896D02*
G01X0036075Y-054840D01*
G01X0036862Y-054840D02*
G01X0037593Y-054840D01*
G01X0037593Y-054840D02*
G01X0037199Y-055290D01*
G01X0037199Y-055290D02*
G01X0037368Y-055290D01*
G01X0037368Y-055290D02*
G01X0037481Y-055346D01*
G01X0037481Y-055346D02*
G01X0037537Y-055402D01*
G01X0037537Y-055402D02*
G01X0037593Y-055515D01*
G01X0037593Y-055515D02*
G01X0037593Y-055796D01*
G01X0037593Y-055796D02*
G01X0037537Y-055909D01*
G01X0037537Y-055909D02*
G01X0037481Y-055965D01*
G01X0037481Y-055965D02*
G01X0037368Y-056021D01*
G01X0037368Y-056021D02*
G01X0037031Y-056021D01*
G01X0037031Y-056021D02*
G01X0036918Y-055965D01*
G01X0036918Y-055965D02*
G01X0036862Y-055909D01*
G01X0038156Y-056021D02*
G01X0038381Y-056021D01*
G01X0038381Y-056021D02*
G01X0038493Y-055965D01*
G01X0038493Y-055965D02*
G01X0038549Y-055909D01*
G01X0038549Y-055909D02*
G01X0038662Y-055740D01*
G01X0038662Y-055740D02*
G01X0038718Y-055515D01*
G01X0038718Y-055515D02*
G01X0038718Y-055065D01*
G01X0038718Y-055065D02*
G01X0038662Y-054952D01*
G01X0038662Y-054952D02*
G01X0038606Y-054896D01*
G01X0038606Y-054896D02*
G01X0038493Y-054840D01*
G01X0038493Y-054840D02*
G01X0038268Y-054840D01*
G01X0038268Y-054840D02*
G01X0038156Y-054896D01*
G01X0038156Y-054896D02*
G01X0038099Y-054952D01*
G01X0038099Y-054952D02*
G01X0038043Y-055065D01*
G01X0038043Y-055065D02*
G01X0038043Y-055346D01*
G01X0038043Y-055346D02*
G01X0038099Y-055459D01*
G01X0038099Y-055459D02*
G01X0038156Y-055515D01*
G01X0038156Y-055515D02*
G01X0038268Y-055571D01*
G01X0038268Y-055571D02*
G01X0038493Y-055571D01*
G01X0038493Y-055571D02*
G01X0038606Y-055515D01*
G01X0038606Y-055515D02*
G01X0038662Y-055459D01*
G01X0038662Y-055459D02*
G01X0038718Y-055346D01*
G01X0039168Y-054840D02*
G01X0039168Y-055065D01*
G01X0039618Y-054840D02*
G01X0039618Y-055065D01*
G01X0041361Y-056471D02*
G01X0041305Y-056415D01*
G01X0041305Y-056415D02*
G01X0041193Y-056246D01*
G01X0041193Y-056246D02*
G01X0041136Y-056133D01*
G01X0041136Y-056133D02*
G01X0041080Y-055965D01*
G01X0041080Y-055965D02*
G01X0041024Y-055684D01*
G01X0041024Y-055684D02*
G01X0041024Y-055459D01*
G01X0041024Y-055459D02*
G01X0041080Y-055177D01*
G01X0041080Y-055177D02*
G01X0041136Y-055009D01*
G01X0041136Y-055009D02*
G01X0041193Y-054896D01*
G01X0041193Y-054896D02*
G01X0041305Y-054727D01*
G01X0041305Y-054727D02*
G01X0041361Y-054671D01*
G01X0042318Y-055234D02*
G01X0042318Y-056021D01*
G01X0042036Y-054784D02*
G01X0041755Y-055627D01*
G01X0041755Y-055627D02*
G01X0042486Y-055627D01*
G01X0043555Y-056021D02*
G01X0042880Y-056021D01*
G01X0043217Y-056021D02*
G01X0043217Y-054840D01*
G01X0043217Y-054840D02*
G01X0043105Y-055009D01*
G01X0043105Y-055009D02*
G01X0042992Y-055121D01*
G01X0042992Y-055121D02*
G01X0042880Y-055177D01*
G01X0044961Y-056021D02*
G01X0044961Y-054840D01*
G01X0045467Y-056021D02*
G01X0045467Y-055402D01*
G01X0045467Y-055402D02*
G01X0045411Y-055290D01*
G01X0045411Y-055290D02*
G01X0045298Y-055234D01*
G01X0045298Y-055234D02*
G01X0045130Y-055234D01*
G01X0045130Y-055234D02*
G01X0045017Y-055290D01*
G01X0045017Y-055290D02*
G01X0044961Y-055346D01*
G01X0046198Y-056021D02*
G01X0046086Y-055965D01*
G01X0046086Y-055965D02*
G01X0046030Y-055909D01*
G01X0046030Y-055909D02*
G01X0045973Y-055796D01*
G01X0045973Y-055796D02*
G01X0045973Y-055459D01*
G01X0045973Y-055459D02*
G01X0046030Y-055346D01*
G01X0046030Y-055346D02*
G01X0046086Y-055290D01*
G01X0046086Y-055290D02*
G01X0046198Y-055234D01*
G01X0046198Y-055234D02*
G01X0046367Y-055234D01*
G01X0046367Y-055234D02*
G01X0046480Y-055290D01*
G01X0046480Y-055290D02*
G01X0046536Y-055346D01*
G01X0046536Y-055346D02*
G01X0046592Y-055459D01*
G01X0046592Y-055459D02*
G01X0046592Y-055796D01*
G01X0046592Y-055796D02*
G01X0046536Y-055909D01*
G01X0046536Y-055909D02*
G01X0046480Y-055965D01*
G01X0046480Y-055965D02*
G01X0046367Y-056021D01*
G01X0046367Y-056021D02*
G01X0046198Y-056021D01*
G01X0047267Y-056021D02*
G01X0047154Y-055965D01*
G01X0047154Y-055965D02*
G01X0047098Y-055852D01*
G01X0047098Y-055852D02*
G01X0047098Y-054840D01*
G01X0048167Y-055965D02*
G01X0048054Y-056021D01*
G01X0048054Y-056021D02*
G01X0047829Y-056021D01*
G01X0047829Y-056021D02*
G01X0047717Y-055965D01*
G01X0047717Y-055965D02*
G01X0047661Y-055852D01*
G01X0047661Y-055852D02*
G01X0047661Y-055402D01*
G01X0047661Y-055402D02*
G01X0047717Y-055290D01*
G01X0047717Y-055290D02*
G01X0047829Y-055234D01*
G01X0047829Y-055234D02*
G01X0048054Y-055234D01*
G01X0048054Y-055234D02*
G01X0048167Y-055290D01*
G01X0048167Y-055290D02*
G01X0048223Y-055402D01*
G01X0048223Y-055402D02*
G01X0048223Y-055515D01*
G01X0048223Y-055515D02*
G01X0047661Y-055627D01*
G01X0048673Y-055965D02*
G01X0048786Y-056021D01*
G01X0048786Y-056021D02*
G01X0049010Y-056021D01*
G01X0049010Y-056021D02*
G01X0049123Y-055965D01*
G01X0049123Y-055965D02*
G01X0049179Y-055852D01*
G01X0049179Y-055852D02*
G01X0049179Y-055796D01*
G01X0049179Y-055796D02*
G01X0049123Y-055684D01*
G01X0049123Y-055684D02*
G01X0049010Y-055627D01*
G01X0049010Y-055627D02*
G01X0048842Y-055627D01*
G01X0048842Y-055627D02*
G01X0048729Y-055571D01*
G01X0048729Y-055571D02*
G01X0048673Y-055459D01*
G01X0048673Y-055459D02*
G01X0048673Y-055402D01*
G01X0048673Y-055402D02*
G01X0048729Y-055290D01*
G01X0048729Y-055290D02*
G01X0048842Y-055234D01*
G01X0048842Y-055234D02*
G01X0049010Y-055234D01*
G01X0049010Y-055234D02*
G01X0049123Y-055290D01*
G01X0049573Y-056471D02*
G01X0049629Y-056415D01*
G01X0049629Y-056415D02*
G01X0049742Y-056246D01*
G01X0049742Y-056246D02*
G01X0049798Y-056133D01*
G01X0049798Y-056133D02*
G01X0049854Y-055965D01*
G01X0049854Y-055965D02*
G01X0049910Y-055684D01*
G01X0049910Y-055684D02*
G01X0049910Y-055459D01*
G01X0049910Y-055459D02*
G01X0049854Y-055177D01*
G01X0049854Y-055177D02*
G01X0049798Y-055009D01*
G01X0049798Y-055009D02*
G01X0049742Y-054896D01*
G01X0049742Y-054896D02*
G01X0049629Y-054727D01*
G01X0049629Y-054727D02*
G01X0049573Y-054671D01*
G01X0022770Y-057246D02*
G01X0022970Y-057046D01*
G01X0022970Y-057046D02*
G01X0022770Y-056846D01*
G01X0022770Y-056846D02*
G01X0022570Y-057046D01*
G01X0022570Y-057046D02*
G01X0022770Y-057246D01*
G01X0024657Y-057580D02*
G01X0023982Y-057580D01*
G01X0024320Y-057580D02*
G01X0024320Y-056399D01*
G01X0024320Y-056399D02*
G01X0024207Y-056568D01*
G01X0024207Y-056568D02*
G01X0024095Y-056680D01*
G01X0024095Y-056680D02*
G01X0023982Y-056736D01*
G01X0025163Y-057468D02*
G01X0025220Y-057524D01*
G01X0025220Y-057524D02*
G01X0025163Y-057580D01*
G01X0025163Y-057580D02*
G01X0025107Y-057524D01*
G01X0025107Y-057524D02*
G01X0025163Y-057468D01*
G01X0025163Y-057468D02*
G01X0025163Y-057580D01*
G01X0025951Y-056399D02*
G01X0026063Y-056399D01*
G01X0026063Y-056399D02*
G01X0026176Y-056455D01*
G01X0026176Y-056455D02*
G01X0026232Y-056511D01*
G01X0026232Y-056511D02*
G01X0026288Y-056624D01*
G01X0026288Y-056624D02*
G01X0026345Y-056849D01*
G01X0026345Y-056849D02*
G01X0026345Y-057130D01*
G01X0026345Y-057130D02*
G01X0026288Y-057355D01*
G01X0026288Y-057355D02*
G01X0026232Y-057468D01*
G01X0026232Y-057468D02*
G01X0026176Y-057524D01*
G01X0026176Y-057524D02*
G01X0026063Y-057580D01*
G01X0026063Y-057580D02*
G01X0025951Y-057580D01*
G01X0025951Y-057580D02*
G01X0025838Y-057524D01*
G01X0025838Y-057524D02*
G01X0025782Y-057468D01*
G01X0025782Y-057468D02*
G01X0025726Y-057355D01*
G01X0025726Y-057355D02*
G01X0025670Y-057130D01*
G01X0025670Y-057130D02*
G01X0025670Y-056849D01*
G01X0025670Y-056849D02*
G01X0025726Y-056624D01*
G01X0025726Y-056624D02*
G01X0025782Y-056511D01*
G01X0025782Y-056511D02*
G01X0025838Y-056455D01*
G01X0025838Y-056455D02*
G01X0025951Y-056399D01*
G01X0026795Y-056511D02*
G01X0026851Y-056455D01*
G01X0026851Y-056455D02*
G01X0026963Y-056399D01*
G01X0026963Y-056399D02*
G01X0027244Y-056399D01*
G01X0027244Y-056399D02*
G01X0027357Y-056455D01*
G01X0027357Y-056455D02*
G01X0027413Y-056511D01*
G01X0027413Y-056511D02*
G01X0027469Y-056624D01*
G01X0027469Y-056624D02*
G01X0027469Y-056736D01*
G01X0027469Y-056736D02*
G01X0027413Y-056905D01*
G01X0027413Y-056905D02*
G01X0026738Y-057580D01*
G01X0026738Y-057580D02*
G01X0027469Y-057580D01*
G01X0027976Y-057580D02*
G01X0027976Y-056793D01*
G01X0027976Y-056905D02*
G01X0028032Y-056849D01*
G01X0028032Y-056849D02*
G01X0028144Y-056793D01*
G01X0028144Y-056793D02*
G01X0028313Y-056793D01*
G01X0028313Y-056793D02*
G01X0028426Y-056849D01*
G01X0028426Y-056849D02*
G01X0028482Y-056961D01*
G01X0028482Y-056961D02*
G01X0028482Y-057580D01*
G01X0028482Y-056961D02*
G01X0028538Y-056849D01*
G01X0028538Y-056849D02*
G01X0028651Y-056793D01*
G01X0028651Y-056793D02*
G01X0028819Y-056793D01*
G01X0028819Y-056793D02*
G01X0028932Y-056849D01*
G01X0028932Y-056849D02*
G01X0028988Y-056961D01*
G01X0028988Y-056961D02*
G01X0028988Y-057580D01*
G01X0029550Y-057580D02*
G01X0029550Y-056793D01*
G01X0029550Y-056905D02*
G01X0029607Y-056849D01*
G01X0029607Y-056849D02*
G01X0029719Y-056793D01*
G01X0029719Y-056793D02*
G01X0029888Y-056793D01*
G01X0029888Y-056793D02*
G01X0030000Y-056849D01*
G01X0030000Y-056849D02*
G01X0030057Y-056961D01*
G01X0030057Y-056961D02*
G01X0030057Y-057580D01*
G01X0030057Y-056961D02*
G01X0030113Y-056849D01*
G01X0030113Y-056849D02*
G01X0030225Y-056793D01*
G01X0030225Y-056793D02*
G01X0030394Y-056793D01*
G01X0030394Y-056793D02*
G01X0030507Y-056849D01*
G01X0030507Y-056849D02*
G01X0030563Y-056961D01*
G01X0030563Y-056961D02*
G01X0030563Y-057580D01*
G01X0032869Y-056343D02*
G01X0031856Y-057861D01*
G01X0034387Y-056399D02*
G01X0034500Y-056399D01*
G01X0034500Y-056399D02*
G01X0034612Y-056455D01*
G01X0034612Y-056455D02*
G01X0034669Y-056511D01*
G01X0034669Y-056511D02*
G01X0034725Y-056624D01*
G01X0034725Y-056624D02*
G01X0034781Y-056849D01*
G01X0034781Y-056849D02*
G01X0034781Y-057130D01*
G01X0034781Y-057130D02*
G01X0034725Y-057355D01*
G01X0034725Y-057355D02*
G01X0034669Y-057468D01*
G01X0034669Y-057468D02*
G01X0034612Y-057524D01*
G01X0034612Y-057524D02*
G01X0034500Y-057580D01*
G01X0034500Y-057580D02*
G01X0034387Y-057580D01*
G01X0034387Y-057580D02*
G01X0034275Y-057524D01*
G01X0034275Y-057524D02*
G01X0034219Y-057468D01*
G01X0034219Y-057468D02*
G01X0034162Y-057355D01*
G01X0034162Y-057355D02*
G01X0034106Y-057130D01*
G01X0034106Y-057130D02*
G01X0034106Y-056849D01*
G01X0034106Y-056849D02*
G01X0034162Y-056624D01*
G01X0034162Y-056624D02*
G01X0034219Y-056511D01*
G01X0034219Y-056511D02*
G01X0034275Y-056455D01*
G01X0034275Y-056455D02*
G01X0034387Y-056399D01*
G01X0035287Y-057468D02*
G01X0035343Y-057524D01*
G01X0035343Y-057524D02*
G01X0035287Y-057580D01*
G01X0035287Y-057580D02*
G01X0035231Y-057524D01*
G01X0035231Y-057524D02*
G01X0035287Y-057468D01*
G01X0035287Y-057468D02*
G01X0035287Y-057580D01*
G01X0036075Y-056399D02*
G01X0036187Y-056399D01*
G01X0036187Y-056399D02*
G01X0036300Y-056455D01*
G01X0036300Y-056455D02*
G01X0036356Y-056511D01*
G01X0036356Y-056511D02*
G01X0036412Y-056624D01*
G01X0036412Y-056624D02*
G01X0036468Y-056849D01*
G01X0036468Y-056849D02*
G01X0036468Y-057130D01*
G01X0036468Y-057130D02*
G01X0036412Y-057355D01*
G01X0036412Y-057355D02*
G01X0036356Y-057468D01*
G01X0036356Y-057468D02*
G01X0036300Y-057524D01*
G01X0036300Y-057524D02*
G01X0036187Y-057580D01*
G01X0036187Y-057580D02*
G01X0036075Y-057580D01*
G01X0036075Y-057580D02*
G01X0035962Y-057524D01*
G01X0035962Y-057524D02*
G01X0035906Y-057468D01*
G01X0035906Y-057468D02*
G01X0035850Y-057355D01*
G01X0035850Y-057355D02*
G01X0035793Y-057130D01*
G01X0035793Y-057130D02*
G01X0035793Y-056849D01*
G01X0035793Y-056849D02*
G01X0035850Y-056624D01*
G01X0035850Y-056624D02*
G01X0035906Y-056511D01*
G01X0035906Y-056511D02*
G01X0035962Y-056455D01*
G01X0035962Y-056455D02*
G01X0036075Y-056399D01*
G01X0037481Y-056793D02*
G01X0037481Y-057580D01*
G01X0037199Y-056343D02*
G01X0036918Y-057186D01*
G01X0036918Y-057186D02*
G01X0037649Y-057186D01*
G01X0038324Y-056399D02*
G01X0038437Y-056399D01*
G01X0038437Y-056399D02*
G01X0038549Y-056455D01*
G01X0038549Y-056455D02*
G01X0038606Y-056511D01*
G01X0038606Y-056511D02*
G01X0038662Y-056624D01*
G01X0038662Y-056624D02*
G01X0038718Y-056849D01*
G01X0038718Y-056849D02*
G01X0038718Y-057130D01*
G01X0038718Y-057130D02*
G01X0038662Y-057355D01*
G01X0038662Y-057355D02*
G01X0038606Y-057468D01*
G01X0038606Y-057468D02*
G01X0038549Y-057524D01*
G01X0038549Y-057524D02*
G01X0038437Y-057580D01*
G01X0038437Y-057580D02*
G01X0038324Y-057580D01*
G01X0038324Y-057580D02*
G01X0038212Y-057524D01*
G01X0038212Y-057524D02*
G01X0038156Y-057468D01*
G01X0038156Y-057468D02*
G01X0038099Y-057355D01*
G01X0038099Y-057355D02*
G01X0038043Y-057130D01*
G01X0038043Y-057130D02*
G01X0038043Y-056849D01*
G01X0038043Y-056849D02*
G01X0038099Y-056624D01*
G01X0038099Y-056624D02*
G01X0038156Y-056511D01*
G01X0038156Y-056511D02*
G01X0038212Y-056455D01*
G01X0038212Y-056455D02*
G01X0038324Y-056399D01*
G01X0039168Y-056399D02*
G01X0039168Y-056624D01*
G01X0039618Y-056399D02*
G01X0039618Y-056624D01*
G01X0041361Y-058030D02*
G01X0041305Y-057974D01*
G01X0041305Y-057974D02*
G01X0041193Y-057805D01*
G01X0041193Y-057805D02*
G01X0041136Y-057693D01*
G01X0041136Y-057693D02*
G01X0041080Y-057524D01*
G01X0041080Y-057524D02*
G01X0041024Y-057243D01*
G01X0041024Y-057243D02*
G01X0041024Y-057018D01*
G01X0041024Y-057018D02*
G01X0041080Y-056736D01*
G01X0041080Y-056736D02*
G01X0041136Y-056568D01*
G01X0041136Y-056568D02*
G01X0041193Y-056455D01*
G01X0041193Y-056455D02*
G01X0041305Y-056286D01*
G01X0041305Y-056286D02*
G01X0041361Y-056230D01*
G01X0042318Y-056399D02*
G01X0042093Y-056399D01*
G01X0042093Y-056399D02*
G01X0041980Y-056455D01*
G01X0041980Y-056455D02*
G01X0041924Y-056511D01*
G01X0041924Y-056511D02*
G01X0041811Y-056680D01*
G01X0041811Y-056680D02*
G01X0041755Y-056905D01*
G01X0041755Y-056905D02*
G01X0041755Y-057355D01*
G01X0041755Y-057355D02*
G01X0041811Y-057468D01*
G01X0041811Y-057468D02*
G01X0041868Y-057524D01*
G01X0041868Y-057524D02*
G01X0041980Y-057580D01*
G01X0041980Y-057580D02*
G01X0042205Y-057580D01*
G01X0042205Y-057580D02*
G01X0042318Y-057524D01*
G01X0042318Y-057524D02*
G01X0042374Y-057468D01*
G01X0042374Y-057468D02*
G01X0042430Y-057355D01*
G01X0042430Y-057355D02*
G01X0042430Y-057074D01*
G01X0042430Y-057074D02*
G01X0042374Y-056961D01*
G01X0042374Y-056961D02*
G01X0042318Y-056905D01*
G01X0042318Y-056905D02*
G01X0042205Y-056849D01*
G01X0042205Y-056849D02*
G01X0041980Y-056849D01*
G01X0041980Y-056849D02*
G01X0041868Y-056905D01*
G01X0041868Y-056905D02*
G01X0041811Y-056961D01*
G01X0041811Y-056961D02*
G01X0041755Y-057074D01*
G01X0043836Y-057580D02*
G01X0043836Y-056399D01*
G01X0044342Y-057580D02*
G01X0044342Y-056961D01*
G01X0044342Y-056961D02*
G01X0044286Y-056849D01*
G01X0044286Y-056849D02*
G01X0044174Y-056793D01*
G01X0044174Y-056793D02*
G01X0044005Y-056793D01*
G01X0044005Y-056793D02*
G01X0043892Y-056849D01*
G01X0043892Y-056849D02*
G01X0043836Y-056905D01*
G01X0045073Y-057580D02*
G01X0044961Y-057524D01*
G01X0044961Y-057524D02*
G01X0044905Y-057468D01*
G01X0044905Y-057468D02*
G01X0044849Y-057355D01*
G01X0044849Y-057355D02*
G01X0044849Y-057018D01*
G01X0044849Y-057018D02*
G01X0044905Y-056905D01*
G01X0044905Y-056905D02*
G01X0044961Y-056849D01*
G01X0044961Y-056849D02*
G01X0045073Y-056793D01*
G01X0045073Y-056793D02*
G01X0045242Y-056793D01*
G01X0045242Y-056793D02*
G01X0045355Y-056849D01*
G01X0045355Y-056849D02*
G01X0045411Y-056905D01*
G01X0045411Y-056905D02*
G01X0045467Y-057018D01*
G01X0045467Y-057018D02*
G01X0045467Y-057355D01*
G01X0045467Y-057355D02*
G01X0045411Y-057468D01*
G01X0045411Y-057468D02*
G01X0045355Y-057524D01*
G01X0045355Y-057524D02*
G01X0045242Y-057580D01*
G01X0045242Y-057580D02*
G01X0045073Y-057580D01*
G01X0046142Y-057580D02*
G01X0046030Y-057524D01*
G01X0046030Y-057524D02*
G01X0045973Y-057411D01*
G01X0045973Y-057411D02*
G01X0045973Y-056399D01*
G01X0047042Y-057524D02*
G01X0046930Y-057580D01*
G01X0046930Y-057580D02*
G01X0046705Y-057580D01*
G01X0046705Y-057580D02*
G01X0046592Y-057524D01*
G01X0046592Y-057524D02*
G01X0046536Y-057411D01*
G01X0046536Y-057411D02*
G01X0046536Y-056961D01*
G01X0046536Y-056961D02*
G01X0046592Y-056849D01*
G01X0046592Y-056849D02*
G01X0046705Y-056793D01*
G01X0046705Y-056793D02*
G01X0046930Y-056793D01*
G01X0046930Y-056793D02*
G01X0047042Y-056849D01*
G01X0047042Y-056849D02*
G01X0047098Y-056961D01*
G01X0047098Y-056961D02*
G01X0047098Y-057074D01*
G01X0047098Y-057074D02*
G01X0046536Y-057186D01*
G01X0047548Y-057524D02*
G01X0047661Y-057580D01*
G01X0047661Y-057580D02*
G01X0047886Y-057580D01*
G01X0047886Y-057580D02*
G01X0047998Y-057524D01*
G01X0047998Y-057524D02*
G01X0048054Y-057411D01*
G01X0048054Y-057411D02*
G01X0048054Y-057355D01*
G01X0048054Y-057355D02*
G01X0047998Y-057243D01*
G01X0047998Y-057243D02*
G01X0047886Y-057186D01*
G01X0047886Y-057186D02*
G01X0047717Y-057186D01*
G01X0047717Y-057186D02*
G01X0047604Y-057130D01*
G01X0047604Y-057130D02*
G01X0047548Y-057018D01*
G01X0047548Y-057018D02*
G01X0047548Y-056961D01*
G01X0047548Y-056961D02*
G01X0047604Y-056849D01*
G01X0047604Y-056849D02*
G01X0047717Y-056793D01*
G01X0047717Y-056793D02*
G01X0047886Y-056793D01*
G01X0047886Y-056793D02*
G01X0047998Y-056849D01*
G01X0048448Y-058030D02*
G01X0048504Y-057974D01*
G01X0048504Y-057974D02*
G01X0048617Y-057805D01*
G01X0048617Y-057805D02*
G01X0048673Y-057693D01*
G01X0048673Y-057693D02*
G01X0048729Y-057524D01*
G01X0048729Y-057524D02*
G01X0048786Y-057243D01*
G01X0048786Y-057243D02*
G01X0048786Y-057018D01*
G01X0048786Y-057018D02*
G01X0048729Y-056736D01*
G01X0048729Y-056736D02*
G01X0048673Y-056568D01*
G01X0048673Y-056568D02*
G01X0048617Y-056455D01*
G01X0048617Y-056455D02*
G01X0048504Y-056286D01*
G01X0048504Y-056286D02*
G01X0048448Y-056230D01*
G01X0022470Y-058355D02*
G01X0022970Y-058855D01*
G01X0022970Y-058355D02*
G01X0022470Y-058855D01*
G01X0022970Y-058605D02*
G75*
G03X0022970Y-058605I-000250J0000000D01*
G01X0024657Y-059139D02*
G01X0023982Y-059139D01*
G01X0024320Y-059139D02*
G01X0024320Y-057958D01*
G01X0024320Y-057958D02*
G01X0024207Y-058127D01*
G01X0024207Y-058127D02*
G01X0024095Y-058239D01*
G01X0024095Y-058239D02*
G01X0023982Y-058295D01*
G01X0025163Y-059027D02*
G01X0025220Y-059083D01*
G01X0025220Y-059083D02*
G01X0025163Y-059139D01*
G01X0025163Y-059139D02*
G01X0025107Y-059083D01*
G01X0025107Y-059083D02*
G01X0025163Y-059027D01*
G01X0025163Y-059027D02*
G01X0025163Y-059139D01*
G01X0025670Y-058070D02*
G01X0025726Y-058014D01*
G01X0025726Y-058014D02*
G01X0025838Y-057958D01*
G01X0025838Y-057958D02*
G01X0026120Y-057958D01*
G01X0026120Y-057958D02*
G01X0026232Y-058014D01*
G01X0026232Y-058014D02*
G01X0026288Y-058070D01*
G01X0026288Y-058070D02*
G01X0026345Y-058183D01*
G01X0026345Y-058183D02*
G01X0026345Y-058295D01*
G01X0026345Y-058295D02*
G01X0026288Y-058464D01*
G01X0026288Y-058464D02*
G01X0025613Y-059139D01*
G01X0025613Y-059139D02*
G01X0026345Y-059139D01*
G01X0026738Y-057958D02*
G01X0027526Y-057958D01*
G01X0027526Y-057958D02*
G01X0027019Y-059139D01*
G01X0027976Y-059139D02*
G01X0027976Y-058352D01*
G01X0027976Y-058464D02*
G01X0028032Y-058408D01*
G01X0028032Y-058408D02*
G01X0028144Y-058352D01*
G01X0028144Y-058352D02*
G01X0028313Y-058352D01*
G01X0028313Y-058352D02*
G01X0028426Y-058408D01*
G01X0028426Y-058408D02*
G01X0028482Y-058520D01*
G01X0028482Y-058520D02*
G01X0028482Y-059139D01*
G01X0028482Y-058520D02*
G01X0028538Y-058408D01*
G01X0028538Y-058408D02*
G01X0028651Y-058352D01*
G01X0028651Y-058352D02*
G01X0028819Y-058352D01*
G01X0028819Y-058352D02*
G01X0028932Y-058408D01*
G01X0028932Y-058408D02*
G01X0028988Y-058520D01*
G01X0028988Y-058520D02*
G01X0028988Y-059139D01*
G01X0029550Y-059139D02*
G01X0029550Y-058352D01*
G01X0029550Y-058464D02*
G01X0029607Y-058408D01*
G01X0029607Y-058408D02*
G01X0029719Y-058352D01*
G01X0029719Y-058352D02*
G01X0029888Y-058352D01*
G01X0029888Y-058352D02*
G01X0030000Y-058408D01*
G01X0030000Y-058408D02*
G01X0030057Y-058520D01*
G01X0030057Y-058520D02*
G01X0030057Y-059139D01*
G01X0030057Y-058520D02*
G01X0030113Y-058408D01*
G01X0030113Y-058408D02*
G01X0030225Y-058352D01*
G01X0030225Y-058352D02*
G01X0030394Y-058352D01*
G01X0030394Y-058352D02*
G01X0030507Y-058408D01*
G01X0030507Y-058408D02*
G01X0030563Y-058520D01*
G01X0030563Y-058520D02*
G01X0030563Y-059139D01*
G01X0032869Y-057902D02*
G01X0031856Y-059420D01*
G01X0034387Y-057958D02*
G01X0034500Y-057958D01*
G01X0034500Y-057958D02*
G01X0034612Y-058014D01*
G01X0034612Y-058014D02*
G01X0034669Y-058070D01*
G01X0034669Y-058070D02*
G01X0034725Y-058183D01*
G01X0034725Y-058183D02*
G01X0034781Y-058408D01*
G01X0034781Y-058408D02*
G01X0034781Y-058689D01*
G01X0034781Y-058689D02*
G01X0034725Y-058914D01*
G01X0034725Y-058914D02*
G01X0034669Y-059027D01*
G01X0034669Y-059027D02*
G01X0034612Y-059083D01*
G01X0034612Y-059083D02*
G01X0034500Y-059139D01*
G01X0034500Y-059139D02*
G01X0034387Y-059139D01*
G01X0034387Y-059139D02*
G01X0034275Y-059083D01*
G01X0034275Y-059083D02*
G01X0034219Y-059027D01*
G01X0034219Y-059027D02*
G01X0034162Y-058914D01*
G01X0034162Y-058914D02*
G01X0034106Y-058689D01*
G01X0034106Y-058689D02*
G01X0034106Y-058408D01*
G01X0034106Y-058408D02*
G01X0034162Y-058183D01*
G01X0034162Y-058183D02*
G01X0034219Y-058070D01*
G01X0034219Y-058070D02*
G01X0034275Y-058014D01*
G01X0034275Y-058014D02*
G01X0034387Y-057958D01*
G01X0035287Y-059027D02*
G01X0035343Y-059083D01*
G01X0035343Y-059083D02*
G01X0035287Y-059139D01*
G01X0035287Y-059139D02*
G01X0035231Y-059083D01*
G01X0035231Y-059083D02*
G01X0035287Y-059027D01*
G01X0035287Y-059027D02*
G01X0035287Y-059139D01*
G01X0036075Y-057958D02*
G01X0036187Y-057958D01*
G01X0036187Y-057958D02*
G01X0036300Y-058014D01*
G01X0036300Y-058014D02*
G01X0036356Y-058070D01*
G01X0036356Y-058070D02*
G01X0036412Y-058183D01*
G01X0036412Y-058183D02*
G01X0036468Y-058408D01*
G01X0036468Y-058408D02*
G01X0036468Y-058689D01*
G01X0036468Y-058689D02*
G01X0036412Y-058914D01*
G01X0036412Y-058914D02*
G01X0036356Y-059027D01*
G01X0036356Y-059027D02*
G01X0036300Y-059083D01*
G01X0036300Y-059083D02*
G01X0036187Y-059139D01*
G01X0036187Y-059139D02*
G01X0036075Y-059139D01*
G01X0036075Y-059139D02*
G01X0035962Y-059083D01*
G01X0035962Y-059083D02*
G01X0035906Y-059027D01*
G01X0035906Y-059027D02*
G01X0035850Y-058914D01*
G01X0035850Y-058914D02*
G01X0035793Y-058689D01*
G01X0035793Y-058689D02*
G01X0035793Y-058408D01*
G01X0035793Y-058408D02*
G01X0035850Y-058183D01*
G01X0035850Y-058183D02*
G01X0035906Y-058070D01*
G01X0035906Y-058070D02*
G01X0035962Y-058014D01*
G01X0035962Y-058014D02*
G01X0036075Y-057958D01*
G01X0037537Y-057958D02*
G01X0036975Y-057958D01*
G01X0036975Y-057958D02*
G01X0036918Y-058520D01*
G01X0036918Y-058520D02*
G01X0036975Y-058464D01*
G01X0036975Y-058464D02*
G01X0037087Y-058408D01*
G01X0037087Y-058408D02*
G01X0037368Y-058408D01*
G01X0037368Y-058408D02*
G01X0037481Y-058464D01*
G01X0037481Y-058464D02*
G01X0037537Y-058520D01*
G01X0037537Y-058520D02*
G01X0037593Y-058633D01*
G01X0037593Y-058633D02*
G01X0037593Y-058914D01*
G01X0037593Y-058914D02*
G01X0037537Y-059027D01*
G01X0037537Y-059027D02*
G01X0037481Y-059083D01*
G01X0037481Y-059083D02*
G01X0037368Y-059139D01*
G01X0037368Y-059139D02*
G01X0037087Y-059139D01*
G01X0037087Y-059139D02*
G01X0036975Y-059083D01*
G01X0036975Y-059083D02*
G01X0036918Y-059027D01*
G01X0038324Y-057958D02*
G01X0038437Y-057958D01*
G01X0038437Y-057958D02*
G01X0038549Y-058014D01*
G01X0038549Y-058014D02*
G01X0038606Y-058070D01*
G01X0038606Y-058070D02*
G01X0038662Y-058183D01*
G01X0038662Y-058183D02*
G01X0038718Y-058408D01*
G01X0038718Y-058408D02*
G01X0038718Y-058689D01*
G01X0038718Y-058689D02*
G01X0038662Y-058914D01*
G01X0038662Y-058914D02*
G01X0038606Y-059027D01*
G01X0038606Y-059027D02*
G01X0038549Y-059083D01*
G01X0038549Y-059083D02*
G01X0038437Y-059139D01*
G01X0038437Y-059139D02*
G01X0038324Y-059139D01*
G01X0038324Y-059139D02*
G01X0038212Y-059083D01*
G01X0038212Y-059083D02*
G01X0038156Y-059027D01*
G01X0038156Y-059027D02*
G01X0038099Y-058914D01*
G01X0038099Y-058914D02*
G01X0038043Y-058689D01*
G01X0038043Y-058689D02*
G01X0038043Y-058408D01*
G01X0038043Y-058408D02*
G01X0038099Y-058183D01*
G01X0038099Y-058183D02*
G01X0038156Y-058070D01*
G01X0038156Y-058070D02*
G01X0038212Y-058014D01*
G01X0038212Y-058014D02*
G01X0038324Y-057958D01*
G01X0039168Y-057958D02*
G01X0039168Y-058183D01*
G01X0039618Y-057958D02*
G01X0039618Y-058183D01*
G01X0041361Y-059589D02*
G01X0041305Y-059533D01*
G01X0041305Y-059533D02*
G01X0041193Y-059364D01*
G01X0041193Y-059364D02*
G01X0041136Y-059252D01*
G01X0041136Y-059252D02*
G01X0041080Y-059083D01*
G01X0041080Y-059083D02*
G01X0041024Y-058802D01*
G01X0041024Y-058802D02*
G01X0041024Y-058577D01*
G01X0041024Y-058577D02*
G01X0041080Y-058295D01*
G01X0041080Y-058295D02*
G01X0041136Y-058127D01*
G01X0041136Y-058127D02*
G01X0041193Y-058014D01*
G01X0041193Y-058014D02*
G01X0041305Y-057846D01*
G01X0041305Y-057846D02*
G01X0041361Y-057789D01*
G01X0041755Y-058070D02*
G01X0041811Y-058014D01*
G01X0041811Y-058014D02*
G01X0041924Y-057958D01*
G01X0041924Y-057958D02*
G01X0042205Y-057958D01*
G01X0042205Y-057958D02*
G01X0042318Y-058014D01*
G01X0042318Y-058014D02*
G01X0042374Y-058070D01*
G01X0042374Y-058070D02*
G01X0042430Y-058183D01*
G01X0042430Y-058183D02*
G01X0042430Y-058295D01*
G01X0042430Y-058295D02*
G01X0042374Y-058464D01*
G01X0042374Y-058464D02*
G01X0041699Y-059139D01*
G01X0041699Y-059139D02*
G01X0042430Y-059139D01*
G01X0043836Y-059139D02*
G01X0043836Y-057958D01*
G01X0044342Y-059139D02*
G01X0044342Y-058520D01*
G01X0044342Y-058520D02*
G01X0044286Y-058408D01*
G01X0044286Y-058408D02*
G01X0044174Y-058352D01*
G01X0044174Y-058352D02*
G01X0044005Y-058352D01*
G01X0044005Y-058352D02*
G01X0043892Y-058408D01*
G01X0043892Y-058408D02*
G01X0043836Y-058464D01*
G01X0045073Y-059139D02*
G01X0044961Y-059083D01*
G01X0044961Y-059083D02*
G01X0044905Y-059027D01*
G01X0044905Y-059027D02*
G01X0044849Y-058914D01*
G01X0044849Y-058914D02*
G01X0044849Y-058577D01*
G01X0044849Y-058577D02*
G01X0044905Y-058464D01*
G01X0044905Y-058464D02*
G01X0044961Y-058408D01*
G01X0044961Y-058408D02*
G01X0045073Y-058352D01*
G01X0045073Y-058352D02*
G01X0045242Y-058352D01*
G01X0045242Y-058352D02*
G01X0045355Y-058408D01*
G01X0045355Y-058408D02*
G01X0045411Y-058464D01*
G01X0045411Y-058464D02*
G01X0045467Y-058577D01*
G01X0045467Y-058577D02*
G01X0045467Y-058914D01*
G01X0045467Y-058914D02*
G01X0045411Y-059027D01*
G01X0045411Y-059027D02*
G01X0045355Y-059083D01*
G01X0045355Y-059083D02*
G01X0045242Y-059139D01*
G01X0045242Y-059139D02*
G01X0045073Y-059139D01*
G01X0046142Y-059139D02*
G01X0046030Y-059083D01*
G01X0046030Y-059083D02*
G01X0045973Y-058970D01*
G01X0045973Y-058970D02*
G01X0045973Y-057958D01*
G01X0047042Y-059083D02*
G01X0046930Y-059139D01*
G01X0046930Y-059139D02*
G01X0046705Y-059139D01*
G01X0046705Y-059139D02*
G01X0046592Y-059083D01*
G01X0046592Y-059083D02*
G01X0046536Y-058970D01*
G01X0046536Y-058970D02*
G01X0046536Y-058520D01*
G01X0046536Y-058520D02*
G01X0046592Y-058408D01*
G01X0046592Y-058408D02*
G01X0046705Y-058352D01*
G01X0046705Y-058352D02*
G01X0046930Y-058352D01*
G01X0046930Y-058352D02*
G01X0047042Y-058408D01*
G01X0047042Y-058408D02*
G01X0047098Y-058520D01*
G01X0047098Y-058520D02*
G01X0047098Y-058633D01*
G01X0047098Y-058633D02*
G01X0046536Y-058745D01*
G01X0047548Y-059083D02*
G01X0047661Y-059139D01*
G01X0047661Y-059139D02*
G01X0047886Y-059139D01*
G01X0047886Y-059139D02*
G01X0047998Y-059083D01*
G01X0047998Y-059083D02*
G01X0048054Y-058970D01*
G01X0048054Y-058970D02*
G01X0048054Y-058914D01*
G01X0048054Y-058914D02*
G01X0047998Y-058802D01*
G01X0047998Y-058802D02*
G01X0047886Y-058745D01*
G01X0047886Y-058745D02*
G01X0047717Y-058745D01*
G01X0047717Y-058745D02*
G01X0047604Y-058689D01*
G01X0047604Y-058689D02*
G01X0047548Y-058577D01*
G01X0047548Y-058577D02*
G01X0047548Y-058520D01*
G01X0047548Y-058520D02*
G01X0047604Y-058408D01*
G01X0047604Y-058408D02*
G01X0047717Y-058352D01*
G01X0047717Y-058352D02*
G01X0047886Y-058352D01*
G01X0047886Y-058352D02*
G01X0047998Y-058408D01*
G01X0048448Y-059589D02*
G01X0048504Y-059533D01*
G01X0048504Y-059533D02*
G01X0048617Y-059364D01*
G01X0048617Y-059364D02*
G01X0048673Y-059252D01*
G01X0048673Y-059252D02*
G01X0048729Y-059083D01*
G01X0048729Y-059083D02*
G01X0048786Y-058802D01*
G01X0048786Y-058802D02*
G01X0048786Y-058577D01*
G01X0048786Y-058577D02*
G01X0048729Y-058295D01*
G01X0048729Y-058295D02*
G01X0048673Y-058127D01*
G01X0048673Y-058127D02*
G01X0048617Y-058014D01*
G01X0048617Y-058014D02*
G01X0048504Y-057846D01*
G01X0048504Y-057846D02*
G01X0048448Y-057789D01*
G01X0022460Y-059909D02*
G01X0022970Y-060419D01*
G01X0022970Y-059909D02*
G01X0022460Y-060419D01*
G01X0022715Y-059909D02*
G01X0022715Y-060419D01*
G01X0022460Y-060164D02*
G01X0022970Y-060164D01*
G01X0024657Y-060698D02*
G01X0023982Y-060698D01*
G01X0024320Y-060698D02*
G01X0024320Y-059517D01*
G01X0024320Y-059517D02*
G01X0024207Y-059686D01*
G01X0024207Y-059686D02*
G01X0024095Y-059798D01*
G01X0024095Y-059798D02*
G01X0023982Y-059855D01*
G01X0025163Y-060586D02*
G01X0025220Y-060642D01*
G01X0025220Y-060642D02*
G01X0025163Y-060698D01*
G01X0025163Y-060698D02*
G01X0025107Y-060642D01*
G01X0025107Y-060642D02*
G01X0025163Y-060586D01*
G01X0025163Y-060586D02*
G01X0025163Y-060698D01*
G01X0025613Y-059517D02*
G01X0026345Y-059517D01*
G01X0026345Y-059517D02*
G01X0025951Y-059967D01*
G01X0025951Y-059967D02*
G01X0026120Y-059967D01*
G01X0026120Y-059967D02*
G01X0026232Y-060023D01*
G01X0026232Y-060023D02*
G01X0026288Y-060079D01*
G01X0026288Y-060079D02*
G01X0026345Y-060192D01*
G01X0026345Y-060192D02*
G01X0026345Y-060473D01*
G01X0026345Y-060473D02*
G01X0026288Y-060586D01*
G01X0026288Y-060586D02*
G01X0026232Y-060642D01*
G01X0026232Y-060642D02*
G01X0026120Y-060698D01*
G01X0026120Y-060698D02*
G01X0025782Y-060698D01*
G01X0025782Y-060698D02*
G01X0025670Y-060642D01*
G01X0025670Y-060642D02*
G01X0025613Y-060586D01*
G01X0027076Y-059517D02*
G01X0027188Y-059517D01*
G01X0027188Y-059517D02*
G01X0027301Y-059573D01*
G01X0027301Y-059573D02*
G01X0027357Y-059630D01*
G01X0027357Y-059630D02*
G01X0027413Y-059742D01*
G01X0027413Y-059742D02*
G01X0027469Y-059967D01*
G01X0027469Y-059967D02*
G01X0027469Y-060248D01*
G01X0027469Y-060248D02*
G01X0027413Y-060473D01*
G01X0027413Y-060473D02*
G01X0027357Y-060586D01*
G01X0027357Y-060586D02*
G01X0027301Y-060642D01*
G01X0027301Y-060642D02*
G01X0027188Y-060698D01*
G01X0027188Y-060698D02*
G01X0027076Y-060698D01*
G01X0027076Y-060698D02*
G01X0026963Y-060642D01*
G01X0026963Y-060642D02*
G01X0026907Y-060586D01*
G01X0026907Y-060586D02*
G01X0026851Y-060473D01*
G01X0026851Y-060473D02*
G01X0026795Y-060248D01*
G01X0026795Y-060248D02*
G01X0026795Y-059967D01*
G01X0026795Y-059967D02*
G01X0026851Y-059742D01*
G01X0026851Y-059742D02*
G01X0026907Y-059630D01*
G01X0026907Y-059630D02*
G01X0026963Y-059573D01*
G01X0026963Y-059573D02*
G01X0027076Y-059517D01*
G01X0027976Y-060698D02*
G01X0027976Y-059911D01*
G01X0027976Y-060023D02*
G01X0028032Y-059967D01*
G01X0028032Y-059967D02*
G01X0028144Y-059911D01*
G01X0028144Y-059911D02*
G01X0028313Y-059911D01*
G01X0028313Y-059911D02*
G01X0028426Y-059967D01*
G01X0028426Y-059967D02*
G01X0028482Y-060079D01*
G01X0028482Y-060079D02*
G01X0028482Y-060698D01*
G01X0028482Y-060079D02*
G01X0028538Y-059967D01*
G01X0028538Y-059967D02*
G01X0028651Y-059911D01*
G01X0028651Y-059911D02*
G01X0028819Y-059911D01*
G01X0028819Y-059911D02*
G01X0028932Y-059967D01*
G01X0028932Y-059967D02*
G01X0028988Y-060079D01*
G01X0028988Y-060079D02*
G01X0028988Y-060698D01*
G01X0029550Y-060698D02*
G01X0029550Y-059911D01*
G01X0029550Y-060023D02*
G01X0029607Y-059967D01*
G01X0029607Y-059967D02*
G01X0029719Y-059911D01*
G01X0029719Y-059911D02*
G01X0029888Y-059911D01*
G01X0029888Y-059911D02*
G01X0030000Y-059967D01*
G01X0030000Y-059967D02*
G01X0030057Y-060079D01*
G01X0030057Y-060079D02*
G01X0030057Y-060698D01*
G01X0030057Y-060079D02*
G01X0030113Y-059967D01*
G01X0030113Y-059967D02*
G01X0030225Y-059911D01*
G01X0030225Y-059911D02*
G01X0030394Y-059911D01*
G01X0030394Y-059911D02*
G01X0030507Y-059967D01*
G01X0030507Y-059967D02*
G01X0030563Y-060079D01*
G01X0030563Y-060079D02*
G01X0030563Y-060698D01*
G01X0032869Y-059461D02*
G01X0031856Y-060979D01*
G01X0034387Y-059517D02*
G01X0034500Y-059517D01*
G01X0034500Y-059517D02*
G01X0034612Y-059573D01*
G01X0034612Y-059573D02*
G01X0034669Y-059630D01*
G01X0034669Y-059630D02*
G01X0034725Y-059742D01*
G01X0034725Y-059742D02*
G01X0034781Y-059967D01*
G01X0034781Y-059967D02*
G01X0034781Y-060248D01*
G01X0034781Y-060248D02*
G01X0034725Y-060473D01*
G01X0034725Y-060473D02*
G01X0034669Y-060586D01*
G01X0034669Y-060586D02*
G01X0034612Y-060642D01*
G01X0034612Y-060642D02*
G01X0034500Y-060698D01*
G01X0034500Y-060698D02*
G01X0034387Y-060698D01*
G01X0034387Y-060698D02*
G01X0034275Y-060642D01*
G01X0034275Y-060642D02*
G01X0034219Y-060586D01*
G01X0034219Y-060586D02*
G01X0034162Y-060473D01*
G01X0034162Y-060473D02*
G01X0034106Y-060248D01*
G01X0034106Y-060248D02*
G01X0034106Y-059967D01*
G01X0034106Y-059967D02*
G01X0034162Y-059742D01*
G01X0034162Y-059742D02*
G01X0034219Y-059630D01*
G01X0034219Y-059630D02*
G01X0034275Y-059573D01*
G01X0034275Y-059573D02*
G01X0034387Y-059517D01*
G01X0035287Y-060586D02*
G01X0035343Y-060642D01*
G01X0035343Y-060642D02*
G01X0035287Y-060698D01*
G01X0035287Y-060698D02*
G01X0035231Y-060642D01*
G01X0035231Y-060642D02*
G01X0035287Y-060586D01*
G01X0035287Y-060586D02*
G01X0035287Y-060698D01*
G01X0036075Y-059517D02*
G01X0036187Y-059517D01*
G01X0036187Y-059517D02*
G01X0036300Y-059573D01*
G01X0036300Y-059573D02*
G01X0036356Y-059630D01*
G01X0036356Y-059630D02*
G01X0036412Y-059742D01*
G01X0036412Y-059742D02*
G01X0036468Y-059967D01*
G01X0036468Y-059967D02*
G01X0036468Y-060248D01*
G01X0036468Y-060248D02*
G01X0036412Y-060473D01*
G01X0036412Y-060473D02*
G01X0036356Y-060586D01*
G01X0036356Y-060586D02*
G01X0036300Y-060642D01*
G01X0036300Y-060642D02*
G01X0036187Y-060698D01*
G01X0036187Y-060698D02*
G01X0036075Y-060698D01*
G01X0036075Y-060698D02*
G01X0035962Y-060642D01*
G01X0035962Y-060642D02*
G01X0035906Y-060586D01*
G01X0035906Y-060586D02*
G01X0035850Y-060473D01*
G01X0035850Y-060473D02*
G01X0035793Y-060248D01*
G01X0035793Y-060248D02*
G01X0035793Y-059967D01*
G01X0035793Y-059967D02*
G01X0035850Y-059742D01*
G01X0035850Y-059742D02*
G01X0035906Y-059630D01*
G01X0035906Y-059630D02*
G01X0035962Y-059573D01*
G01X0035962Y-059573D02*
G01X0036075Y-059517D01*
G01X0037537Y-059517D02*
G01X0036975Y-059517D01*
G01X0036975Y-059517D02*
G01X0036918Y-060079D01*
G01X0036918Y-060079D02*
G01X0036975Y-060023D01*
G01X0036975Y-060023D02*
G01X0037087Y-059967D01*
G01X0037087Y-059967D02*
G01X0037368Y-059967D01*
G01X0037368Y-059967D02*
G01X0037481Y-060023D01*
G01X0037481Y-060023D02*
G01X0037537Y-060079D01*
G01X0037537Y-060079D02*
G01X0037593Y-060192D01*
G01X0037593Y-060192D02*
G01X0037593Y-060473D01*
G01X0037593Y-060473D02*
G01X0037537Y-060586D01*
G01X0037537Y-060586D02*
G01X0037481Y-060642D01*
G01X0037481Y-060642D02*
G01X0037368Y-060698D01*
G01X0037368Y-060698D02*
G01X0037087Y-060698D01*
G01X0037087Y-060698D02*
G01X0036975Y-060642D01*
G01X0036975Y-060642D02*
G01X0036918Y-060586D01*
G01X0038718Y-060698D02*
G01X0038043Y-060698D01*
G01X0038381Y-060698D02*
G01X0038381Y-059517D01*
G01X0038381Y-059517D02*
G01X0038268Y-059686D01*
G01X0038268Y-059686D02*
G01X0038156Y-059798D01*
G01X0038156Y-059798D02*
G01X0038043Y-059855D01*
G01X0039168Y-059517D02*
G01X0039168Y-059742D01*
G01X0039618Y-059517D02*
G01X0039618Y-059742D01*
G01X0041361Y-061148D02*
G01X0041305Y-061092D01*
G01X0041305Y-061092D02*
G01X0041193Y-060923D01*
G01X0041193Y-060923D02*
G01X0041136Y-060811D01*
G01X0041136Y-060811D02*
G01X0041080Y-060642D01*
G01X0041080Y-060642D02*
G01X0041024Y-060361D01*
G01X0041024Y-060361D02*
G01X0041024Y-060136D01*
G01X0041024Y-060136D02*
G01X0041080Y-059855D01*
G01X0041080Y-059855D02*
G01X0041136Y-059686D01*
G01X0041136Y-059686D02*
G01X0041193Y-059573D01*
G01X0041193Y-059573D02*
G01X0041305Y-059405D01*
G01X0041305Y-059405D02*
G01X0041361Y-059348D01*
G01X0042374Y-059517D02*
G01X0041811Y-059517D01*
G01X0041811Y-059517D02*
G01X0041755Y-060079D01*
G01X0041755Y-060079D02*
G01X0041811Y-060023D01*
G01X0041811Y-060023D02*
G01X0041924Y-059967D01*
G01X0041924Y-059967D02*
G01X0042205Y-059967D01*
G01X0042205Y-059967D02*
G01X0042318Y-060023D01*
G01X0042318Y-060023D02*
G01X0042374Y-060079D01*
G01X0042374Y-060079D02*
G01X0042430Y-060192D01*
G01X0042430Y-060192D02*
G01X0042430Y-060473D01*
G01X0042430Y-060473D02*
G01X0042374Y-060586D01*
G01X0042374Y-060586D02*
G01X0042318Y-060642D01*
G01X0042318Y-060642D02*
G01X0042205Y-060698D01*
G01X0042205Y-060698D02*
G01X0041924Y-060698D01*
G01X0041924Y-060698D02*
G01X0041811Y-060642D01*
G01X0041811Y-060642D02*
G01X0041755Y-060586D01*
G01X0043836Y-060698D02*
G01X0043836Y-059517D01*
G01X0044342Y-060698D02*
G01X0044342Y-060079D01*
G01X0044342Y-060079D02*
G01X0044286Y-059967D01*
G01X0044286Y-059967D02*
G01X0044174Y-059911D01*
G01X0044174Y-059911D02*
G01X0044005Y-059911D01*
G01X0044005Y-059911D02*
G01X0043892Y-059967D01*
G01X0043892Y-059967D02*
G01X0043836Y-060023D01*
G01X0045073Y-060698D02*
G01X0044961Y-060642D01*
G01X0044961Y-060642D02*
G01X0044905Y-060586D01*
G01X0044905Y-060586D02*
G01X0044849Y-060473D01*
G01X0044849Y-060473D02*
G01X0044849Y-060136D01*
G01X0044849Y-060136D02*
G01X0044905Y-060023D01*
G01X0044905Y-060023D02*
G01X0044961Y-059967D01*
G01X0044961Y-059967D02*
G01X0045073Y-059911D01*
G01X0045073Y-059911D02*
G01X0045242Y-059911D01*
G01X0045242Y-059911D02*
G01X0045355Y-059967D01*
G01X0045355Y-059967D02*
G01X0045411Y-060023D01*
G01X0045411Y-060023D02*
G01X0045467Y-060136D01*
G01X0045467Y-060136D02*
G01X0045467Y-060473D01*
G01X0045467Y-060473D02*
G01X0045411Y-060586D01*
G01X0045411Y-060586D02*
G01X0045355Y-060642D01*
G01X0045355Y-060642D02*
G01X0045242Y-060698D01*
G01X0045242Y-060698D02*
G01X0045073Y-060698D01*
G01X0046142Y-060698D02*
G01X0046030Y-060642D01*
G01X0046030Y-060642D02*
G01X0045973Y-060529D01*
G01X0045973Y-060529D02*
G01X0045973Y-059517D01*
G01X0047042Y-060642D02*
G01X0046930Y-060698D01*
G01X0046930Y-060698D02*
G01X0046705Y-060698D01*
G01X0046705Y-060698D02*
G01X0046592Y-060642D01*
G01X0046592Y-060642D02*
G01X0046536Y-060529D01*
G01X0046536Y-060529D02*
G01X0046536Y-060079D01*
G01X0046536Y-060079D02*
G01X0046592Y-059967D01*
G01X0046592Y-059967D02*
G01X0046705Y-059911D01*
G01X0046705Y-059911D02*
G01X0046930Y-059911D01*
G01X0046930Y-059911D02*
G01X0047042Y-059967D01*
G01X0047042Y-059967D02*
G01X0047098Y-060079D01*
G01X0047098Y-060079D02*
G01X0047098Y-060192D01*
G01X0047098Y-060192D02*
G01X0046536Y-060304D01*
G01X0047548Y-060642D02*
G01X0047661Y-060698D01*
G01X0047661Y-060698D02*
G01X0047886Y-060698D01*
G01X0047886Y-060698D02*
G01X0047998Y-060642D01*
G01X0047998Y-060642D02*
G01X0048054Y-060529D01*
G01X0048054Y-060529D02*
G01X0048054Y-060473D01*
G01X0048054Y-060473D02*
G01X0047998Y-060361D01*
G01X0047998Y-060361D02*
G01X0047886Y-060304D01*
G01X0047886Y-060304D02*
G01X0047717Y-060304D01*
G01X0047717Y-060304D02*
G01X0047604Y-060248D01*
G01X0047604Y-060248D02*
G01X0047548Y-060136D01*
G01X0047548Y-060136D02*
G01X0047548Y-060079D01*
G01X0047548Y-060079D02*
G01X0047604Y-059967D01*
G01X0047604Y-059967D02*
G01X0047717Y-059911D01*
G01X0047717Y-059911D02*
G01X0047886Y-059911D01*
G01X0047886Y-059911D02*
G01X0047998Y-059967D01*
G01X0048448Y-061148D02*
G01X0048504Y-061092D01*
G01X0048504Y-061092D02*
G01X0048617Y-060923D01*
G01X0048617Y-060923D02*
G01X0048673Y-060811D01*
G01X0048673Y-060811D02*
G01X0048729Y-060642D01*
G01X0048729Y-060642D02*
G01X0048786Y-060361D01*
G01X0048786Y-060361D02*
G01X0048786Y-060136D01*
G01X0048786Y-060136D02*
G01X0048729Y-059855D01*
G01X0048729Y-059855D02*
G01X0048673Y-059686D01*
G01X0048673Y-059686D02*
G01X0048617Y-059573D01*
G01X0048617Y-059573D02*
G01X0048504Y-059405D01*
G01X0048504Y-059405D02*
G01X0048448Y-059348D01*
G01X0022370Y-061423D02*
G01X0022970Y-062023D01*
G01X0022970Y-061423D02*
G01X0022370Y-062023D01*
G01X0022882Y-061935D02*
G01X0022882Y-061511D01*
G01X0022882Y-061511D02*
G01X0022458Y-061511D01*
G01X0022458Y-061511D02*
G01X0022458Y-061935D01*
G01X0022458Y-061935D02*
G01X0022882Y-061935D01*
G01X0024657Y-062257D02*
G01X0023982Y-062257D01*
G01X0024320Y-062257D02*
G01X0024320Y-061076D01*
G01X0024320Y-061076D02*
G01X0024207Y-061245D01*
G01X0024207Y-061245D02*
G01X0024095Y-061357D01*
G01X0024095Y-061357D02*
G01X0023982Y-061414D01*
G01X0025163Y-062145D02*
G01X0025220Y-062201D01*
G01X0025220Y-062201D02*
G01X0025163Y-062257D01*
G01X0025163Y-062257D02*
G01X0025107Y-062201D01*
G01X0025107Y-062201D02*
G01X0025163Y-062145D01*
G01X0025163Y-062145D02*
G01X0025163Y-062257D01*
G01X0026288Y-061076D02*
G01X0025726Y-061076D01*
G01X0025726Y-061076D02*
G01X0025670Y-061639D01*
G01X0025670Y-061639D02*
G01X0025726Y-061582D01*
G01X0025726Y-061582D02*
G01X0025838Y-061526D01*
G01X0025838Y-061526D02*
G01X0026120Y-061526D01*
G01X0026120Y-061526D02*
G01X0026232Y-061582D01*
G01X0026232Y-061582D02*
G01X0026288Y-061639D01*
G01X0026288Y-061639D02*
G01X0026345Y-061751D01*
G01X0026345Y-061751D02*
G01X0026345Y-062032D01*
G01X0026345Y-062032D02*
G01X0026288Y-062145D01*
G01X0026288Y-062145D02*
G01X0026232Y-062201D01*
G01X0026232Y-062201D02*
G01X0026120Y-062257D01*
G01X0026120Y-062257D02*
G01X0025838Y-062257D01*
G01X0025838Y-062257D02*
G01X0025726Y-062201D01*
G01X0025726Y-062201D02*
G01X0025670Y-062145D01*
G01X0026795Y-061189D02*
G01X0026851Y-061132D01*
G01X0026851Y-061132D02*
G01X0026963Y-061076D01*
G01X0026963Y-061076D02*
G01X0027244Y-061076D01*
G01X0027244Y-061076D02*
G01X0027357Y-061132D01*
G01X0027357Y-061132D02*
G01X0027413Y-061189D01*
G01X0027413Y-061189D02*
G01X0027469Y-061301D01*
G01X0027469Y-061301D02*
G01X0027469Y-061414D01*
G01X0027469Y-061414D02*
G01X0027413Y-061582D01*
G01X0027413Y-061582D02*
G01X0026738Y-062257D01*
G01X0026738Y-062257D02*
G01X0027469Y-062257D01*
G01X0027976Y-062257D02*
G01X0027976Y-061470D01*
G01X0027976Y-061582D02*
G01X0028032Y-061526D01*
G01X0028032Y-061526D02*
G01X0028144Y-061470D01*
G01X0028144Y-061470D02*
G01X0028313Y-061470D01*
G01X0028313Y-061470D02*
G01X0028426Y-061526D01*
G01X0028426Y-061526D02*
G01X0028482Y-061639D01*
G01X0028482Y-061639D02*
G01X0028482Y-062257D01*
G01X0028482Y-061639D02*
G01X0028538Y-061526D01*
G01X0028538Y-061526D02*
G01X0028651Y-061470D01*
G01X0028651Y-061470D02*
G01X0028819Y-061470D01*
G01X0028819Y-061470D02*
G01X0028932Y-061526D01*
G01X0028932Y-061526D02*
G01X0028988Y-061639D01*
G01X0028988Y-061639D02*
G01X0028988Y-062257D01*
G01X0029550Y-062257D02*
G01X0029550Y-061470D01*
G01X0029550Y-061582D02*
G01X0029607Y-061526D01*
G01X0029607Y-061526D02*
G01X0029719Y-061470D01*
G01X0029719Y-061470D02*
G01X0029888Y-061470D01*
G01X0029888Y-061470D02*
G01X0030000Y-061526D01*
G01X0030000Y-061526D02*
G01X0030057Y-061639D01*
G01X0030057Y-061639D02*
G01X0030057Y-062257D01*
G01X0030057Y-061639D02*
G01X0030113Y-061526D01*
G01X0030113Y-061526D02*
G01X0030225Y-061470D01*
G01X0030225Y-061470D02*
G01X0030394Y-061470D01*
G01X0030394Y-061470D02*
G01X0030507Y-061526D01*
G01X0030507Y-061526D02*
G01X0030563Y-061639D01*
G01X0030563Y-061639D02*
G01X0030563Y-062257D01*
G01X0032869Y-061020D02*
G01X0031856Y-062538D01*
G01X0034387Y-061076D02*
G01X0034500Y-061076D01*
G01X0034500Y-061076D02*
G01X0034612Y-061132D01*
G01X0034612Y-061132D02*
G01X0034669Y-061189D01*
G01X0034669Y-061189D02*
G01X0034725Y-061301D01*
G01X0034725Y-061301D02*
G01X0034781Y-061526D01*
G01X0034781Y-061526D02*
G01X0034781Y-061807D01*
G01X0034781Y-061807D02*
G01X0034725Y-062032D01*
G01X0034725Y-062032D02*
G01X0034669Y-062145D01*
G01X0034669Y-062145D02*
G01X0034612Y-062201D01*
G01X0034612Y-062201D02*
G01X0034500Y-062257D01*
G01X0034500Y-062257D02*
G01X0034387Y-062257D01*
G01X0034387Y-062257D02*
G01X0034275Y-062201D01*
G01X0034275Y-062201D02*
G01X0034219Y-062145D01*
G01X0034219Y-062145D02*
G01X0034162Y-062032D01*
G01X0034162Y-062032D02*
G01X0034106Y-061807D01*
G01X0034106Y-061807D02*
G01X0034106Y-061526D01*
G01X0034106Y-061526D02*
G01X0034162Y-061301D01*
G01X0034162Y-061301D02*
G01X0034219Y-061189D01*
G01X0034219Y-061189D02*
G01X0034275Y-061132D01*
G01X0034275Y-061132D02*
G01X0034387Y-061076D01*
G01X0035287Y-062145D02*
G01X0035343Y-062201D01*
G01X0035343Y-062201D02*
G01X0035287Y-062257D01*
G01X0035287Y-062257D02*
G01X0035231Y-062201D01*
G01X0035231Y-062201D02*
G01X0035287Y-062145D01*
G01X0035287Y-062145D02*
G01X0035287Y-062257D01*
G01X0036075Y-061076D02*
G01X0036187Y-061076D01*
G01X0036187Y-061076D02*
G01X0036300Y-061132D01*
G01X0036300Y-061132D02*
G01X0036356Y-061189D01*
G01X0036356Y-061189D02*
G01X0036412Y-061301D01*
G01X0036412Y-061301D02*
G01X0036468Y-061526D01*
G01X0036468Y-061526D02*
G01X0036468Y-061807D01*
G01X0036468Y-061807D02*
G01X0036412Y-062032D01*
G01X0036412Y-062032D02*
G01X0036356Y-062145D01*
G01X0036356Y-062145D02*
G01X0036300Y-062201D01*
G01X0036300Y-062201D02*
G01X0036187Y-062257D01*
G01X0036187Y-062257D02*
G01X0036075Y-062257D01*
G01X0036075Y-062257D02*
G01X0035962Y-062201D01*
G01X0035962Y-062201D02*
G01X0035906Y-062145D01*
G01X0035906Y-062145D02*
G01X0035850Y-062032D01*
G01X0035850Y-062032D02*
G01X0035793Y-061807D01*
G01X0035793Y-061807D02*
G01X0035793Y-061526D01*
G01X0035793Y-061526D02*
G01X0035850Y-061301D01*
G01X0035850Y-061301D02*
G01X0035906Y-061189D01*
G01X0035906Y-061189D02*
G01X0035962Y-061132D01*
G01X0035962Y-061132D02*
G01X0036075Y-061076D01*
G01X0037481Y-061076D02*
G01X0037256Y-061076D01*
G01X0037256Y-061076D02*
G01X0037143Y-061132D01*
G01X0037143Y-061132D02*
G01X0037087Y-061189D01*
G01X0037087Y-061189D02*
G01X0036975Y-061357D01*
G01X0036975Y-061357D02*
G01X0036918Y-061582D01*
G01X0036918Y-061582D02*
G01X0036918Y-062032D01*
G01X0036918Y-062032D02*
G01X0036975Y-062145D01*
G01X0036975Y-062145D02*
G01X0037031Y-062201D01*
G01X0037031Y-062201D02*
G01X0037143Y-062257D01*
G01X0037143Y-062257D02*
G01X0037368Y-062257D01*
G01X0037368Y-062257D02*
G01X0037481Y-062201D01*
G01X0037481Y-062201D02*
G01X0037537Y-062145D01*
G01X0037537Y-062145D02*
G01X0037593Y-062032D01*
G01X0037593Y-062032D02*
G01X0037593Y-061751D01*
G01X0037593Y-061751D02*
G01X0037537Y-061639D01*
G01X0037537Y-061639D02*
G01X0037481Y-061582D01*
G01X0037481Y-061582D02*
G01X0037368Y-061526D01*
G01X0037368Y-061526D02*
G01X0037143Y-061526D01*
G01X0037143Y-061526D02*
G01X0037031Y-061582D01*
G01X0037031Y-061582D02*
G01X0036975Y-061639D01*
G01X0036975Y-061639D02*
G01X0036918Y-061751D01*
G01X0038324Y-061076D02*
G01X0038437Y-061076D01*
G01X0038437Y-061076D02*
G01X0038549Y-061132D01*
G01X0038549Y-061132D02*
G01X0038606Y-061189D01*
G01X0038606Y-061189D02*
G01X0038662Y-061301D01*
G01X0038662Y-061301D02*
G01X0038718Y-061526D01*
G01X0038718Y-061526D02*
G01X0038718Y-061807D01*
G01X0038718Y-061807D02*
G01X0038662Y-062032D01*
G01X0038662Y-062032D02*
G01X0038606Y-062145D01*
G01X0038606Y-062145D02*
G01X0038549Y-062201D01*
G01X0038549Y-062201D02*
G01X0038437Y-062257D01*
G01X0038437Y-062257D02*
G01X0038324Y-062257D01*
G01X0038324Y-062257D02*
G01X0038212Y-062201D01*
G01X0038212Y-062201D02*
G01X0038156Y-062145D01*
G01X0038156Y-062145D02*
G01X0038099Y-062032D01*
G01X0038099Y-062032D02*
G01X0038043Y-061807D01*
G01X0038043Y-061807D02*
G01X0038043Y-061526D01*
G01X0038043Y-061526D02*
G01X0038099Y-061301D01*
G01X0038099Y-061301D02*
G01X0038156Y-061189D01*
G01X0038156Y-061189D02*
G01X0038212Y-061132D01*
G01X0038212Y-061132D02*
G01X0038324Y-061076D01*
G01X0039168Y-061076D02*
G01X0039168Y-061301D01*
G01X0039618Y-061076D02*
G01X0039618Y-061301D01*
G01X0041361Y-062707D02*
G01X0041305Y-062651D01*
G01X0041305Y-062651D02*
G01X0041193Y-062482D01*
G01X0041193Y-062482D02*
G01X0041136Y-062370D01*
G01X0041136Y-062370D02*
G01X0041080Y-062201D01*
G01X0041080Y-062201D02*
G01X0041024Y-061920D01*
G01X0041024Y-061920D02*
G01X0041024Y-061695D01*
G01X0041024Y-061695D02*
G01X0041080Y-061414D01*
G01X0041080Y-061414D02*
G01X0041136Y-061245D01*
G01X0041136Y-061245D02*
G01X0041193Y-061132D01*
G01X0041193Y-061132D02*
G01X0041305Y-060964D01*
G01X0041305Y-060964D02*
G01X0041361Y-060907D01*
G01X0041699Y-061076D02*
G01X0042430Y-061076D01*
G01X0042430Y-061076D02*
G01X0042036Y-061526D01*
G01X0042036Y-061526D02*
G01X0042205Y-061526D01*
G01X0042205Y-061526D02*
G01X0042318Y-061582D01*
G01X0042318Y-061582D02*
G01X0042374Y-061639D01*
G01X0042374Y-061639D02*
G01X0042430Y-061751D01*
G01X0042430Y-061751D02*
G01X0042430Y-062032D01*
G01X0042430Y-062032D02*
G01X0042374Y-062145D01*
G01X0042374Y-062145D02*
G01X0042318Y-062201D01*
G01X0042318Y-062201D02*
G01X0042205Y-062257D01*
G01X0042205Y-062257D02*
G01X0041868Y-062257D01*
G01X0041868Y-062257D02*
G01X0041755Y-062201D01*
G01X0041755Y-062201D02*
G01X0041699Y-062145D01*
G01X0043836Y-062257D02*
G01X0043836Y-061076D01*
G01X0044342Y-062257D02*
G01X0044342Y-061639D01*
G01X0044342Y-061639D02*
G01X0044286Y-061526D01*
G01X0044286Y-061526D02*
G01X0044174Y-061470D01*
G01X0044174Y-061470D02*
G01X0044005Y-061470D01*
G01X0044005Y-061470D02*
G01X0043892Y-061526D01*
G01X0043892Y-061526D02*
G01X0043836Y-061582D01*
G01X0045073Y-062257D02*
G01X0044961Y-062201D01*
G01X0044961Y-062201D02*
G01X0044905Y-062145D01*
G01X0044905Y-062145D02*
G01X0044849Y-062032D01*
G01X0044849Y-062032D02*
G01X0044849Y-061695D01*
G01X0044849Y-061695D02*
G01X0044905Y-061582D01*
G01X0044905Y-061582D02*
G01X0044961Y-061526D01*
G01X0044961Y-061526D02*
G01X0045073Y-061470D01*
G01X0045073Y-061470D02*
G01X0045242Y-061470D01*
G01X0045242Y-061470D02*
G01X0045355Y-061526D01*
G01X0045355Y-061526D02*
G01X0045411Y-061582D01*
G01X0045411Y-061582D02*
G01X0045467Y-061695D01*
G01X0045467Y-061695D02*
G01X0045467Y-062032D01*
G01X0045467Y-062032D02*
G01X0045411Y-062145D01*
G01X0045411Y-062145D02*
G01X0045355Y-062201D01*
G01X0045355Y-062201D02*
G01X0045242Y-062257D01*
G01X0045242Y-062257D02*
G01X0045073Y-062257D01*
G01X0046142Y-062257D02*
G01X0046030Y-062201D01*
G01X0046030Y-062201D02*
G01X0045973Y-062088D01*
G01X0045973Y-062088D02*
G01X0045973Y-061076D01*
G01X0047042Y-062201D02*
G01X0046930Y-062257D01*
G01X0046930Y-062257D02*
G01X0046705Y-062257D01*
G01X0046705Y-062257D02*
G01X0046592Y-062201D01*
G01X0046592Y-062201D02*
G01X0046536Y-062088D01*
G01X0046536Y-062088D02*
G01X0046536Y-061639D01*
G01X0046536Y-061639D02*
G01X0046592Y-061526D01*
G01X0046592Y-061526D02*
G01X0046705Y-061470D01*
G01X0046705Y-061470D02*
G01X0046930Y-061470D01*
G01X0046930Y-061470D02*
G01X0047042Y-061526D01*
G01X0047042Y-061526D02*
G01X0047098Y-061639D01*
G01X0047098Y-061639D02*
G01X0047098Y-061751D01*
G01X0047098Y-061751D02*
G01X0046536Y-061864D01*
G01X0047548Y-062201D02*
G01X0047661Y-062257D01*
G01X0047661Y-062257D02*
G01X0047886Y-062257D01*
G01X0047886Y-062257D02*
G01X0047998Y-062201D01*
G01X0047998Y-062201D02*
G01X0048054Y-062088D01*
G01X0048054Y-062088D02*
G01X0048054Y-062032D01*
G01X0048054Y-062032D02*
G01X0047998Y-061920D01*
G01X0047998Y-061920D02*
G01X0047886Y-061864D01*
G01X0047886Y-061864D02*
G01X0047717Y-061864D01*
G01X0047717Y-061864D02*
G01X0047604Y-061807D01*
G01X0047604Y-061807D02*
G01X0047548Y-061695D01*
G01X0047548Y-061695D02*
G01X0047548Y-061639D01*
G01X0047548Y-061639D02*
G01X0047604Y-061526D01*
G01X0047604Y-061526D02*
G01X0047717Y-061470D01*
G01X0047717Y-061470D02*
G01X0047886Y-061470D01*
G01X0047886Y-061470D02*
G01X0047998Y-061526D01*
G01X0048448Y-062707D02*
G01X0048504Y-062651D01*
G01X0048504Y-062651D02*
G01X0048617Y-062482D01*
G01X0048617Y-062482D02*
G01X0048673Y-062370D01*
G01X0048673Y-062370D02*
G01X0048729Y-062201D01*
G01X0048729Y-062201D02*
G01X0048786Y-061920D01*
G01X0048786Y-061920D02*
G01X0048786Y-061695D01*
G01X0048786Y-061695D02*
G01X0048729Y-061414D01*
G01X0048729Y-061414D02*
G01X0048673Y-061245D01*
G01X0048673Y-061245D02*
G01X0048617Y-061132D01*
G01X0048617Y-061132D02*
G01X0048504Y-060964D01*
G01X0048504Y-060964D02*
G01X0048448Y-060907D01*
G01X0022104Y-062849D02*
G01X0022970Y-063715D01*
G01X0022970Y-062849D02*
G01X0022104Y-063715D01*
G01X0022537Y-063715D02*
G01X0022970Y-063282D01*
G01X0022970Y-063282D02*
G01X0022537Y-062849D01*
G01X0022537Y-062849D02*
G01X0022104Y-063282D01*
G01X0022104Y-063282D02*
G01X0022537Y-063715D01*
G01X0023982Y-062748D02*
G01X0024039Y-062691D01*
G01X0024039Y-062691D02*
G01X0024151Y-062635D01*
G01X0024151Y-062635D02*
G01X0024432Y-062635D01*
G01X0024432Y-062635D02*
G01X0024545Y-062691D01*
G01X0024545Y-062691D02*
G01X0024601Y-062748D01*
G01X0024601Y-062748D02*
G01X0024657Y-062860D01*
G01X0024657Y-062860D02*
G01X0024657Y-062973D01*
G01X0024657Y-062973D02*
G01X0024601Y-063141D01*
G01X0024601Y-063141D02*
G01X0023926Y-063816D01*
G01X0023926Y-063816D02*
G01X0024657Y-063816D01*
G01X0025163Y-063704D02*
G01X0025220Y-063760D01*
G01X0025220Y-063760D02*
G01X0025163Y-063816D01*
G01X0025163Y-063816D02*
G01X0025107Y-063760D01*
G01X0025107Y-063760D02*
G01X0025163Y-063704D01*
G01X0025163Y-063704D02*
G01X0025163Y-063816D01*
G01X0025670Y-062748D02*
G01X0025726Y-062691D01*
G01X0025726Y-062691D02*
G01X0025838Y-062635D01*
G01X0025838Y-062635D02*
G01X0026120Y-062635D01*
G01X0026120Y-062635D02*
G01X0026232Y-062691D01*
G01X0026232Y-062691D02*
G01X0026288Y-062748D01*
G01X0026288Y-062748D02*
G01X0026345Y-062860D01*
G01X0026345Y-062860D02*
G01X0026345Y-062973D01*
G01X0026345Y-062973D02*
G01X0026288Y-063141D01*
G01X0026288Y-063141D02*
G01X0025613Y-063816D01*
G01X0025613Y-063816D02*
G01X0026345Y-063816D01*
G01X0027076Y-062635D02*
G01X0027188Y-062635D01*
G01X0027188Y-062635D02*
G01X0027301Y-062691D01*
G01X0027301Y-062691D02*
G01X0027357Y-062748D01*
G01X0027357Y-062748D02*
G01X0027413Y-062860D01*
G01X0027413Y-062860D02*
G01X0027469Y-063085D01*
G01X0027469Y-063085D02*
G01X0027469Y-063366D01*
G01X0027469Y-063366D02*
G01X0027413Y-063591D01*
G01X0027413Y-063591D02*
G01X0027357Y-063704D01*
G01X0027357Y-063704D02*
G01X0027301Y-063760D01*
G01X0027301Y-063760D02*
G01X0027188Y-063816D01*
G01X0027188Y-063816D02*
G01X0027076Y-063816D01*
G01X0027076Y-063816D02*
G01X0026963Y-063760D01*
G01X0026963Y-063760D02*
G01X0026907Y-063704D01*
G01X0026907Y-063704D02*
G01X0026851Y-063591D01*
G01X0026851Y-063591D02*
G01X0026795Y-063366D01*
G01X0026795Y-063366D02*
G01X0026795Y-063085D01*
G01X0026795Y-063085D02*
G01X0026851Y-062860D01*
G01X0026851Y-062860D02*
G01X0026907Y-062748D01*
G01X0026907Y-062748D02*
G01X0026963Y-062691D01*
G01X0026963Y-062691D02*
G01X0027076Y-062635D01*
G01X0027976Y-063816D02*
G01X0027976Y-063029D01*
G01X0027976Y-063141D02*
G01X0028032Y-063085D01*
G01X0028032Y-063085D02*
G01X0028144Y-063029D01*
G01X0028144Y-063029D02*
G01X0028313Y-063029D01*
G01X0028313Y-063029D02*
G01X0028426Y-063085D01*
G01X0028426Y-063085D02*
G01X0028482Y-063198D01*
G01X0028482Y-063198D02*
G01X0028482Y-063816D01*
G01X0028482Y-063198D02*
G01X0028538Y-063085D01*
G01X0028538Y-063085D02*
G01X0028651Y-063029D01*
G01X0028651Y-063029D02*
G01X0028819Y-063029D01*
G01X0028819Y-063029D02*
G01X0028932Y-063085D01*
G01X0028932Y-063085D02*
G01X0028988Y-063198D01*
G01X0028988Y-063198D02*
G01X0028988Y-063816D01*
G01X0029550Y-063816D02*
G01X0029550Y-063029D01*
G01X0029550Y-063141D02*
G01X0029607Y-063085D01*
G01X0029607Y-063085D02*
G01X0029719Y-063029D01*
G01X0029719Y-063029D02*
G01X0029888Y-063029D01*
G01X0029888Y-063029D02*
G01X0030000Y-063085D01*
G01X0030000Y-063085D02*
G01X0030057Y-063198D01*
G01X0030057Y-063198D02*
G01X0030057Y-063816D01*
G01X0030057Y-063198D02*
G01X0030113Y-063085D01*
G01X0030113Y-063085D02*
G01X0030225Y-063029D01*
G01X0030225Y-063029D02*
G01X0030394Y-063029D01*
G01X0030394Y-063029D02*
G01X0030507Y-063085D01*
G01X0030507Y-063085D02*
G01X0030563Y-063198D01*
G01X0030563Y-063198D02*
G01X0030563Y-063816D01*
G01X0032869Y-062579D02*
G01X0031856Y-064097D01*
G01X0034387Y-062635D02*
G01X0034500Y-062635D01*
G01X0034500Y-062635D02*
G01X0034612Y-062691D01*
G01X0034612Y-062691D02*
G01X0034669Y-062748D01*
G01X0034669Y-062748D02*
G01X0034725Y-062860D01*
G01X0034725Y-062860D02*
G01X0034781Y-063085D01*
G01X0034781Y-063085D02*
G01X0034781Y-063366D01*
G01X0034781Y-063366D02*
G01X0034725Y-063591D01*
G01X0034725Y-063591D02*
G01X0034669Y-063704D01*
G01X0034669Y-063704D02*
G01X0034612Y-063760D01*
G01X0034612Y-063760D02*
G01X0034500Y-063816D01*
G01X0034500Y-063816D02*
G01X0034387Y-063816D01*
G01X0034387Y-063816D02*
G01X0034275Y-063760D01*
G01X0034275Y-063760D02*
G01X0034219Y-063704D01*
G01X0034219Y-063704D02*
G01X0034162Y-063591D01*
G01X0034162Y-063591D02*
G01X0034106Y-063366D01*
G01X0034106Y-063366D02*
G01X0034106Y-063085D01*
G01X0034106Y-063085D02*
G01X0034162Y-062860D01*
G01X0034162Y-062860D02*
G01X0034219Y-062748D01*
G01X0034219Y-062748D02*
G01X0034275Y-062691D01*
G01X0034275Y-062691D02*
G01X0034387Y-062635D01*
G01X0035287Y-063704D02*
G01X0035343Y-063760D01*
G01X0035343Y-063760D02*
G01X0035287Y-063816D01*
G01X0035287Y-063816D02*
G01X0035231Y-063760D01*
G01X0035231Y-063760D02*
G01X0035287Y-063704D01*
G01X0035287Y-063704D02*
G01X0035287Y-063816D01*
G01X0036075Y-062635D02*
G01X0036187Y-062635D01*
G01X0036187Y-062635D02*
G01X0036300Y-062691D01*
G01X0036300Y-062691D02*
G01X0036356Y-062748D01*
G01X0036356Y-062748D02*
G01X0036412Y-062860D01*
G01X0036412Y-062860D02*
G01X0036468Y-063085D01*
G01X0036468Y-063085D02*
G01X0036468Y-063366D01*
G01X0036468Y-063366D02*
G01X0036412Y-063591D01*
G01X0036412Y-063591D02*
G01X0036356Y-063704D01*
G01X0036356Y-063704D02*
G01X0036300Y-063760D01*
G01X0036300Y-063760D02*
G01X0036187Y-063816D01*
G01X0036187Y-063816D02*
G01X0036075Y-063816D01*
G01X0036075Y-063816D02*
G01X0035962Y-063760D01*
G01X0035962Y-063760D02*
G01X0035906Y-063704D01*
G01X0035906Y-063704D02*
G01X0035850Y-063591D01*
G01X0035850Y-063591D02*
G01X0035793Y-063366D01*
G01X0035793Y-063366D02*
G01X0035793Y-063085D01*
G01X0035793Y-063085D02*
G01X0035850Y-062860D01*
G01X0035850Y-062860D02*
G01X0035906Y-062748D01*
G01X0035906Y-062748D02*
G01X0035962Y-062691D01*
G01X0035962Y-062691D02*
G01X0036075Y-062635D01*
G01X0037143Y-063141D02*
G01X0037031Y-063085D01*
G01X0037031Y-063085D02*
G01X0036975Y-063029D01*
G01X0036975Y-063029D02*
G01X0036918Y-062916D01*
G01X0036918Y-062916D02*
G01X0036918Y-062860D01*
G01X0036918Y-062860D02*
G01X0036975Y-062748D01*
G01X0036975Y-062748D02*
G01X0037031Y-062691D01*
G01X0037031Y-062691D02*
G01X0037143Y-062635D01*
G01X0037143Y-062635D02*
G01X0037368Y-062635D01*
G01X0037368Y-062635D02*
G01X0037481Y-062691D01*
G01X0037481Y-062691D02*
G01X0037537Y-062748D01*
G01X0037537Y-062748D02*
G01X0037593Y-062860D01*
G01X0037593Y-062860D02*
G01X0037593Y-062916D01*
G01X0037593Y-062916D02*
G01X0037537Y-063029D01*
G01X0037537Y-063029D02*
G01X0037481Y-063085D01*
G01X0037481Y-063085D02*
G01X0037368Y-063141D01*
G01X0037368Y-063141D02*
G01X0037143Y-063141D01*
G01X0037143Y-063141D02*
G01X0037031Y-063198D01*
G01X0037031Y-063198D02*
G01X0036975Y-063254D01*
G01X0036975Y-063254D02*
G01X0036918Y-063366D01*
G01X0036918Y-063366D02*
G01X0036918Y-063591D01*
G01X0036918Y-063591D02*
G01X0036975Y-063704D01*
G01X0036975Y-063704D02*
G01X0037031Y-063760D01*
G01X0037031Y-063760D02*
G01X0037143Y-063816D01*
G01X0037143Y-063816D02*
G01X0037368Y-063816D01*
G01X0037368Y-063816D02*
G01X0037481Y-063760D01*
G01X0037481Y-063760D02*
G01X0037537Y-063704D01*
G01X0037537Y-063704D02*
G01X0037593Y-063591D01*
G01X0037593Y-063591D02*
G01X0037593Y-063366D01*
G01X0037593Y-063366D02*
G01X0037537Y-063254D01*
G01X0037537Y-063254D02*
G01X0037481Y-063198D01*
G01X0037481Y-063198D02*
G01X0037368Y-063141D01*
G01X0037987Y-062635D02*
G01X0038774Y-062635D01*
G01X0038774Y-062635D02*
G01X0038268Y-063816D01*
G01X0039168Y-062635D02*
G01X0039168Y-062860D01*
G01X0039618Y-062635D02*
G01X0039618Y-062860D01*
G01X0041361Y-064266D02*
G01X0041305Y-064210D01*
G01X0041305Y-064210D02*
G01X0041193Y-064041D01*
G01X0041193Y-064041D02*
G01X0041136Y-063929D01*
G01X0041136Y-063929D02*
G01X0041080Y-063760D01*
G01X0041080Y-063760D02*
G01X0041024Y-063479D01*
G01X0041024Y-063479D02*
G01X0041024Y-063254D01*
G01X0041024Y-063254D02*
G01X0041080Y-062973D01*
G01X0041080Y-062973D02*
G01X0041136Y-062804D01*
G01X0041136Y-062804D02*
G01X0041193Y-062691D01*
G01X0041193Y-062691D02*
G01X0041305Y-062523D01*
G01X0041305Y-062523D02*
G01X0041361Y-062466D01*
G01X0042318Y-062635D02*
G01X0042093Y-062635D01*
G01X0042093Y-062635D02*
G01X0041980Y-062691D01*
G01X0041980Y-062691D02*
G01X0041924Y-062748D01*
G01X0041924Y-062748D02*
G01X0041811Y-062916D01*
G01X0041811Y-062916D02*
G01X0041755Y-063141D01*
G01X0041755Y-063141D02*
G01X0041755Y-063591D01*
G01X0041755Y-063591D02*
G01X0041811Y-063704D01*
G01X0041811Y-063704D02*
G01X0041868Y-063760D01*
G01X0041868Y-063760D02*
G01X0041980Y-063816D01*
G01X0041980Y-063816D02*
G01X0042205Y-063816D01*
G01X0042205Y-063816D02*
G01X0042318Y-063760D01*
G01X0042318Y-063760D02*
G01X0042374Y-063704D01*
G01X0042374Y-063704D02*
G01X0042430Y-063591D01*
G01X0042430Y-063591D02*
G01X0042430Y-063310D01*
G01X0042430Y-063310D02*
G01X0042374Y-063198D01*
G01X0042374Y-063198D02*
G01X0042318Y-063141D01*
G01X0042318Y-063141D02*
G01X0042205Y-063085D01*
G01X0042205Y-063085D02*
G01X0041980Y-063085D01*
G01X0041980Y-063085D02*
G01X0041868Y-063141D01*
G01X0041868Y-063141D02*
G01X0041811Y-063198D01*
G01X0041811Y-063198D02*
G01X0041755Y-063310D01*
G01X0043836Y-063816D02*
G01X0043836Y-062635D01*
G01X0044342Y-063816D02*
G01X0044342Y-063198D01*
G01X0044342Y-063198D02*
G01X0044286Y-063085D01*
G01X0044286Y-063085D02*
G01X0044174Y-063029D01*
G01X0044174Y-063029D02*
G01X0044005Y-063029D01*
G01X0044005Y-063029D02*
G01X0043892Y-063085D01*
G01X0043892Y-063085D02*
G01X0043836Y-063141D01*
G01X0045073Y-063816D02*
G01X0044961Y-063760D01*
G01X0044961Y-063760D02*
G01X0044905Y-063704D01*
G01X0044905Y-063704D02*
G01X0044849Y-063591D01*
G01X0044849Y-063591D02*
G01X0044849Y-063254D01*
G01X0044849Y-063254D02*
G01X0044905Y-063141D01*
G01X0044905Y-063141D02*
G01X0044961Y-063085D01*
G01X0044961Y-063085D02*
G01X0045073Y-063029D01*
G01X0045073Y-063029D02*
G01X0045242Y-063029D01*
G01X0045242Y-063029D02*
G01X0045355Y-063085D01*
G01X0045355Y-063085D02*
G01X0045411Y-063141D01*
G01X0045411Y-063141D02*
G01X0045467Y-063254D01*
G01X0045467Y-063254D02*
G01X0045467Y-063591D01*
G01X0045467Y-063591D02*
G01X0045411Y-063704D01*
G01X0045411Y-063704D02*
G01X0045355Y-063760D01*
G01X0045355Y-063760D02*
G01X0045242Y-063816D01*
G01X0045242Y-063816D02*
G01X0045073Y-063816D01*
G01X0046142Y-063816D02*
G01X0046030Y-063760D01*
G01X0046030Y-063760D02*
G01X0045973Y-063648D01*
G01X0045973Y-063648D02*
G01X0045973Y-062635D01*
G01X0047042Y-063760D02*
G01X0046930Y-063816D01*
G01X0046930Y-063816D02*
G01X0046705Y-063816D01*
G01X0046705Y-063816D02*
G01X0046592Y-063760D01*
G01X0046592Y-063760D02*
G01X0046536Y-063648D01*
G01X0046536Y-063648D02*
G01X0046536Y-063198D01*
G01X0046536Y-063198D02*
G01X0046592Y-063085D01*
G01X0046592Y-063085D02*
G01X0046705Y-063029D01*
G01X0046705Y-063029D02*
G01X0046930Y-063029D01*
G01X0046930Y-063029D02*
G01X0047042Y-063085D01*
G01X0047042Y-063085D02*
G01X0047098Y-063198D01*
G01X0047098Y-063198D02*
G01X0047098Y-063310D01*
G01X0047098Y-063310D02*
G01X0046536Y-063423D01*
G01X0047548Y-063760D02*
G01X0047661Y-063816D01*
G01X0047661Y-063816D02*
G01X0047886Y-063816D01*
G01X0047886Y-063816D02*
G01X0047998Y-063760D01*
G01X0047998Y-063760D02*
G01X0048054Y-063648D01*
G01X0048054Y-063648D02*
G01X0048054Y-063591D01*
G01X0048054Y-063591D02*
G01X0047998Y-063479D01*
G01X0047998Y-063479D02*
G01X0047886Y-063423D01*
G01X0047886Y-063423D02*
G01X0047717Y-063423D01*
G01X0047717Y-063423D02*
G01X0047604Y-063366D01*
G01X0047604Y-063366D02*
G01X0047548Y-063254D01*
G01X0047548Y-063254D02*
G01X0047548Y-063198D01*
G01X0047548Y-063198D02*
G01X0047604Y-063085D01*
G01X0047604Y-063085D02*
G01X0047717Y-063029D01*
G01X0047717Y-063029D02*
G01X0047886Y-063029D01*
G01X0047886Y-063029D02*
G01X0047998Y-063085D01*
G01X0048448Y-064266D02*
G01X0048504Y-064210D01*
G01X0048504Y-064210D02*
G01X0048617Y-064041D01*
G01X0048617Y-064041D02*
G01X0048673Y-063929D01*
G01X0048673Y-063929D02*
G01X0048729Y-063760D01*
G01X0048729Y-063760D02*
G01X0048786Y-063479D01*
G01X0048786Y-063479D02*
G01X0048786Y-063254D01*
G01X0048786Y-063254D02*
G01X0048729Y-062973D01*
G01X0048729Y-062973D02*
G01X0048673Y-062804D01*
G01X0048673Y-062804D02*
G01X0048617Y-062691D01*
G01X0048617Y-062691D02*
G01X0048504Y-062523D01*
G01X0048504Y-062523D02*
G01X0048448Y-062466D01*
G01X0022380Y-064251D02*
G01X0022380Y-065432D01*
G01X0021789Y-064841D02*
G01X0022970Y-064841D01*
G01X0022970Y-064841D02*
G75*
G03X0022970Y-064841I-000591J0000000D01*
G01X0023926Y-064194D02*
G01X0024657Y-064194D01*
G01X0024657Y-064194D02*
G01X0024264Y-064644D01*
G01X0024264Y-064644D02*
G01X0024432Y-064644D01*
G01X0024432Y-064644D02*
G01X0024545Y-064700D01*
G01X0024545Y-064700D02*
G01X0024601Y-064757D01*
G01X0024601Y-064757D02*
G01X0024657Y-064869D01*
G01X0024657Y-064869D02*
G01X0024657Y-065150D01*
G01X0024657Y-065150D02*
G01X0024601Y-065263D01*
G01X0024601Y-065263D02*
G01X0024545Y-065319D01*
G01X0024545Y-065319D02*
G01X0024432Y-065375D01*
G01X0024432Y-065375D02*
G01X0024095Y-065375D01*
G01X0024095Y-065375D02*
G01X0023982Y-065319D01*
G01X0023982Y-065319D02*
G01X0023926Y-065263D01*
G01X0025163Y-065263D02*
G01X0025220Y-065319D01*
G01X0025220Y-065319D02*
G01X0025163Y-065375D01*
G01X0025163Y-065375D02*
G01X0025107Y-065319D01*
G01X0025107Y-065319D02*
G01X0025163Y-065263D01*
G01X0025163Y-065263D02*
G01X0025163Y-065375D01*
G01X0025951Y-064194D02*
G01X0026063Y-064194D01*
G01X0026063Y-064194D02*
G01X0026176Y-064250D01*
G01X0026176Y-064250D02*
G01X0026232Y-064307D01*
G01X0026232Y-064307D02*
G01X0026288Y-064419D01*
G01X0026288Y-064419D02*
G01X0026345Y-064644D01*
G01X0026345Y-064644D02*
G01X0026345Y-064925D01*
G01X0026345Y-064925D02*
G01X0026288Y-065150D01*
G01X0026288Y-065150D02*
G01X0026232Y-065263D01*
G01X0026232Y-065263D02*
G01X0026176Y-065319D01*
G01X0026176Y-065319D02*
G01X0026063Y-065375D01*
G01X0026063Y-065375D02*
G01X0025951Y-065375D01*
G01X0025951Y-065375D02*
G01X0025838Y-065319D01*
G01X0025838Y-065319D02*
G01X0025782Y-065263D01*
G01X0025782Y-065263D02*
G01X0025726Y-065150D01*
G01X0025726Y-065150D02*
G01X0025670Y-064925D01*
G01X0025670Y-064925D02*
G01X0025670Y-064644D01*
G01X0025670Y-064644D02*
G01X0025726Y-064419D01*
G01X0025726Y-064419D02*
G01X0025782Y-064307D01*
G01X0025782Y-064307D02*
G01X0025838Y-064250D01*
G01X0025838Y-064250D02*
G01X0025951Y-064194D01*
G01X0027076Y-064194D02*
G01X0027188Y-064194D01*
G01X0027188Y-064194D02*
G01X0027301Y-064250D01*
G01X0027301Y-064250D02*
G01X0027357Y-064307D01*
G01X0027357Y-064307D02*
G01X0027413Y-064419D01*
G01X0027413Y-064419D02*
G01X0027469Y-064644D01*
G01X0027469Y-064644D02*
G01X0027469Y-064925D01*
G01X0027469Y-064925D02*
G01X0027413Y-065150D01*
G01X0027413Y-065150D02*
G01X0027357Y-065263D01*
G01X0027357Y-065263D02*
G01X0027301Y-065319D01*
G01X0027301Y-065319D02*
G01X0027188Y-065375D01*
G01X0027188Y-065375D02*
G01X0027076Y-065375D01*
G01X0027076Y-065375D02*
G01X0026963Y-065319D01*
G01X0026963Y-065319D02*
G01X0026907Y-065263D01*
G01X0026907Y-065263D02*
G01X0026851Y-065150D01*
G01X0026851Y-065150D02*
G01X0026795Y-064925D01*
G01X0026795Y-064925D02*
G01X0026795Y-064644D01*
G01X0026795Y-064644D02*
G01X0026851Y-064419D01*
G01X0026851Y-064419D02*
G01X0026907Y-064307D01*
G01X0026907Y-064307D02*
G01X0026963Y-064250D01*
G01X0026963Y-064250D02*
G01X0027076Y-064194D01*
G01X0027976Y-065375D02*
G01X0027976Y-064588D01*
G01X0027976Y-064700D02*
G01X0028032Y-064644D01*
G01X0028032Y-064644D02*
G01X0028144Y-064588D01*
G01X0028144Y-064588D02*
G01X0028313Y-064588D01*
G01X0028313Y-064588D02*
G01X0028426Y-064644D01*
G01X0028426Y-064644D02*
G01X0028482Y-064757D01*
G01X0028482Y-064757D02*
G01X0028482Y-065375D01*
G01X0028482Y-064757D02*
G01X0028538Y-064644D01*
G01X0028538Y-064644D02*
G01X0028651Y-064588D01*
G01X0028651Y-064588D02*
G01X0028819Y-064588D01*
G01X0028819Y-064588D02*
G01X0028932Y-064644D01*
G01X0028932Y-064644D02*
G01X0028988Y-064757D01*
G01X0028988Y-064757D02*
G01X0028988Y-065375D01*
G01X0029550Y-065375D02*
G01X0029550Y-064588D01*
G01X0029550Y-064700D02*
G01X0029607Y-064644D01*
G01X0029607Y-064644D02*
G01X0029719Y-064588D01*
G01X0029719Y-064588D02*
G01X0029888Y-064588D01*
G01X0029888Y-064588D02*
G01X0030000Y-064644D01*
G01X0030000Y-064644D02*
G01X0030057Y-064757D01*
G01X0030057Y-064757D02*
G01X0030057Y-065375D01*
G01X0030057Y-064757D02*
G01X0030113Y-064644D01*
G01X0030113Y-064644D02*
G01X0030225Y-064588D01*
G01X0030225Y-064588D02*
G01X0030394Y-064588D01*
G01X0030394Y-064588D02*
G01X0030507Y-064644D01*
G01X0030507Y-064644D02*
G01X0030563Y-064757D01*
G01X0030563Y-064757D02*
G01X0030563Y-065375D01*
G01X0032869Y-064138D02*
G01X0031856Y-065657D01*
G01X0034387Y-064194D02*
G01X0034500Y-064194D01*
G01X0034500Y-064194D02*
G01X0034612Y-064250D01*
G01X0034612Y-064250D02*
G01X0034669Y-064307D01*
G01X0034669Y-064307D02*
G01X0034725Y-064419D01*
G01X0034725Y-064419D02*
G01X0034781Y-064644D01*
G01X0034781Y-064644D02*
G01X0034781Y-064925D01*
G01X0034781Y-064925D02*
G01X0034725Y-065150D01*
G01X0034725Y-065150D02*
G01X0034669Y-065263D01*
G01X0034669Y-065263D02*
G01X0034612Y-065319D01*
G01X0034612Y-065319D02*
G01X0034500Y-065375D01*
G01X0034500Y-065375D02*
G01X0034387Y-065375D01*
G01X0034387Y-065375D02*
G01X0034275Y-065319D01*
G01X0034275Y-065319D02*
G01X0034219Y-065263D01*
G01X0034219Y-065263D02*
G01X0034162Y-065150D01*
G01X0034162Y-065150D02*
G01X0034106Y-064925D01*
G01X0034106Y-064925D02*
G01X0034106Y-064644D01*
G01X0034106Y-064644D02*
G01X0034162Y-064419D01*
G01X0034162Y-064419D02*
G01X0034219Y-064307D01*
G01X0034219Y-064307D02*
G01X0034275Y-064250D01*
G01X0034275Y-064250D02*
G01X0034387Y-064194D01*
G01X0035287Y-065263D02*
G01X0035343Y-065319D01*
G01X0035343Y-065319D02*
G01X0035287Y-065375D01*
G01X0035287Y-065375D02*
G01X0035231Y-065319D01*
G01X0035231Y-065319D02*
G01X0035287Y-065263D01*
G01X0035287Y-065263D02*
G01X0035287Y-065375D01*
G01X0036468Y-065375D02*
G01X0035793Y-065375D01*
G01X0036131Y-065375D02*
G01X0036131Y-064194D01*
G01X0036131Y-064194D02*
G01X0036018Y-064363D01*
G01X0036018Y-064363D02*
G01X0035906Y-064475D01*
G01X0035906Y-064475D02*
G01X0035793Y-064532D01*
G01X0037593Y-065375D02*
G01X0036918Y-065375D01*
G01X0037256Y-065375D02*
G01X0037256Y-064194D01*
G01X0037256Y-064194D02*
G01X0037143Y-064363D01*
G01X0037143Y-064363D02*
G01X0037031Y-064475D01*
G01X0037031Y-064475D02*
G01X0036918Y-064532D01*
G01X0038268Y-064700D02*
G01X0038156Y-064644D01*
G01X0038156Y-064644D02*
G01X0038099Y-064588D01*
G01X0038099Y-064588D02*
G01X0038043Y-064475D01*
G01X0038043Y-064475D02*
G01X0038043Y-064419D01*
G01X0038043Y-064419D02*
G01X0038099Y-064307D01*
G01X0038099Y-064307D02*
G01X0038156Y-064250D01*
G01X0038156Y-064250D02*
G01X0038268Y-064194D01*
G01X0038268Y-064194D02*
G01X0038493Y-064194D01*
G01X0038493Y-064194D02*
G01X0038606Y-064250D01*
G01X0038606Y-064250D02*
G01X0038662Y-064307D01*
G01X0038662Y-064307D02*
G01X0038718Y-064419D01*
G01X0038718Y-064419D02*
G01X0038718Y-064475D01*
G01X0038718Y-064475D02*
G01X0038662Y-064588D01*
G01X0038662Y-064588D02*
G01X0038606Y-064644D01*
G01X0038606Y-064644D02*
G01X0038493Y-064700D01*
G01X0038493Y-064700D02*
G01X0038268Y-064700D01*
G01X0038268Y-064700D02*
G01X0038156Y-064757D01*
G01X0038156Y-064757D02*
G01X0038099Y-064813D01*
G01X0038099Y-064813D02*
G01X0038043Y-064925D01*
G01X0038043Y-064925D02*
G01X0038043Y-065150D01*
G01X0038043Y-065150D02*
G01X0038099Y-065263D01*
G01X0038099Y-065263D02*
G01X0038156Y-065319D01*
G01X0038156Y-065319D02*
G01X0038268Y-065375D01*
G01X0038268Y-065375D02*
G01X0038493Y-065375D01*
G01X0038493Y-065375D02*
G01X0038606Y-065319D01*
G01X0038606Y-065319D02*
G01X0038662Y-065263D01*
G01X0038662Y-065263D02*
G01X0038718Y-065150D01*
G01X0038718Y-065150D02*
G01X0038718Y-064925D01*
G01X0038718Y-064925D02*
G01X0038662Y-064813D01*
G01X0038662Y-064813D02*
G01X0038606Y-064757D01*
G01X0038606Y-064757D02*
G01X0038493Y-064700D01*
G01X0039168Y-064194D02*
G01X0039168Y-064419D01*
G01X0039618Y-064194D02*
G01X0039618Y-064419D01*
G01X0041361Y-065825D02*
G01X0041305Y-065769D01*
G01X0041305Y-065769D02*
G01X0041193Y-065600D01*
G01X0041193Y-065600D02*
G01X0041136Y-065488D01*
G01X0041136Y-065488D02*
G01X0041080Y-065319D01*
G01X0041080Y-065319D02*
G01X0041024Y-065038D01*
G01X0041024Y-065038D02*
G01X0041024Y-064813D01*
G01X0041024Y-064813D02*
G01X0041080Y-064532D01*
G01X0041080Y-064532D02*
G01X0041136Y-064363D01*
G01X0041136Y-064363D02*
G01X0041193Y-064250D01*
G01X0041193Y-064250D02*
G01X0041305Y-064082D01*
G01X0041305Y-064082D02*
G01X0041361Y-064025D01*
G01X0042318Y-064194D02*
G01X0042093Y-064194D01*
G01X0042093Y-064194D02*
G01X0041980Y-064250D01*
G01X0041980Y-064250D02*
G01X0041924Y-064307D01*
G01X0041924Y-064307D02*
G01X0041811Y-064475D01*
G01X0041811Y-064475D02*
G01X0041755Y-064700D01*
G01X0041755Y-064700D02*
G01X0041755Y-065150D01*
G01X0041755Y-065150D02*
G01X0041811Y-065263D01*
G01X0041811Y-065263D02*
G01X0041868Y-065319D01*
G01X0041868Y-065319D02*
G01X0041980Y-065375D01*
G01X0041980Y-065375D02*
G01X0042205Y-065375D01*
G01X0042205Y-065375D02*
G01X0042318Y-065319D01*
G01X0042318Y-065319D02*
G01X0042374Y-065263D01*
G01X0042374Y-065263D02*
G01X0042430Y-065150D01*
G01X0042430Y-065150D02*
G01X0042430Y-064869D01*
G01X0042430Y-064869D02*
G01X0042374Y-064757D01*
G01X0042374Y-064757D02*
G01X0042318Y-064700D01*
G01X0042318Y-064700D02*
G01X0042205Y-064644D01*
G01X0042205Y-064644D02*
G01X0041980Y-064644D01*
G01X0041980Y-064644D02*
G01X0041868Y-064700D01*
G01X0041868Y-064700D02*
G01X0041811Y-064757D01*
G01X0041811Y-064757D02*
G01X0041755Y-064869D01*
G01X0043836Y-065375D02*
G01X0043836Y-064194D01*
G01X0044342Y-065375D02*
G01X0044342Y-064757D01*
G01X0044342Y-064757D02*
G01X0044286Y-064644D01*
G01X0044286Y-064644D02*
G01X0044174Y-064588D01*
G01X0044174Y-064588D02*
G01X0044005Y-064588D01*
G01X0044005Y-064588D02*
G01X0043892Y-064644D01*
G01X0043892Y-064644D02*
G01X0043836Y-064700D01*
G01X0045073Y-065375D02*
G01X0044961Y-065319D01*
G01X0044961Y-065319D02*
G01X0044905Y-065263D01*
G01X0044905Y-065263D02*
G01X0044849Y-065150D01*
G01X0044849Y-065150D02*
G01X0044849Y-064813D01*
G01X0044849Y-064813D02*
G01X0044905Y-064700D01*
G01X0044905Y-064700D02*
G01X0044961Y-064644D01*
G01X0044961Y-064644D02*
G01X0045073Y-064588D01*
G01X0045073Y-064588D02*
G01X0045242Y-064588D01*
G01X0045242Y-064588D02*
G01X0045355Y-064644D01*
G01X0045355Y-064644D02*
G01X0045411Y-064700D01*
G01X0045411Y-064700D02*
G01X0045467Y-064813D01*
G01X0045467Y-064813D02*
G01X0045467Y-065150D01*
G01X0045467Y-065150D02*
G01X0045411Y-065263D01*
G01X0045411Y-065263D02*
G01X0045355Y-065319D01*
G01X0045355Y-065319D02*
G01X0045242Y-065375D01*
G01X0045242Y-065375D02*
G01X0045073Y-065375D01*
G01X0046142Y-065375D02*
G01X0046030Y-065319D01*
G01X0046030Y-065319D02*
G01X0045973Y-065207D01*
G01X0045973Y-065207D02*
G01X0045973Y-064194D01*
G01X0047042Y-065319D02*
G01X0046930Y-065375D01*
G01X0046930Y-065375D02*
G01X0046705Y-065375D01*
G01X0046705Y-065375D02*
G01X0046592Y-065319D01*
G01X0046592Y-065319D02*
G01X0046536Y-065207D01*
G01X0046536Y-065207D02*
G01X0046536Y-064757D01*
G01X0046536Y-064757D02*
G01X0046592Y-064644D01*
G01X0046592Y-064644D02*
G01X0046705Y-064588D01*
G01X0046705Y-064588D02*
G01X0046930Y-064588D01*
G01X0046930Y-064588D02*
G01X0047042Y-064644D01*
G01X0047042Y-064644D02*
G01X0047098Y-064757D01*
G01X0047098Y-064757D02*
G01X0047098Y-064869D01*
G01X0047098Y-064869D02*
G01X0046536Y-064982D01*
G01X0047548Y-065319D02*
G01X0047661Y-065375D01*
G01X0047661Y-065375D02*
G01X0047886Y-065375D01*
G01X0047886Y-065375D02*
G01X0047998Y-065319D01*
G01X0047998Y-065319D02*
G01X0048054Y-065207D01*
G01X0048054Y-065207D02*
G01X0048054Y-065150D01*
G01X0048054Y-065150D02*
G01X0047998Y-065038D01*
G01X0047998Y-065038D02*
G01X0047886Y-064982D01*
G01X0047886Y-064982D02*
G01X0047717Y-064982D01*
G01X0047717Y-064982D02*
G01X0047604Y-064925D01*
G01X0047604Y-064925D02*
G01X0047548Y-064813D01*
G01X0047548Y-064813D02*
G01X0047548Y-064757D01*
G01X0047548Y-064757D02*
G01X0047604Y-064644D01*
G01X0047604Y-064644D02*
G01X0047717Y-064588D01*
G01X0047717Y-064588D02*
G01X0047886Y-064588D01*
G01X0047886Y-064588D02*
G01X0047998Y-064644D01*
G01X0048448Y-065825D02*
G01X0048504Y-065769D01*
G01X0048504Y-065769D02*
G01X0048617Y-065600D01*
G01X0048617Y-065600D02*
G01X0048673Y-065488D01*
G01X0048673Y-065488D02*
G01X0048729Y-065319D01*
G01X0048729Y-065319D02*
G01X0048786Y-065038D01*
G01X0048786Y-065038D02*
G01X0048786Y-064813D01*
G01X0048786Y-064813D02*
G01X0048729Y-064532D01*
G01X0048729Y-064532D02*
G01X0048673Y-064363D01*
G01X0048673Y-064363D02*
G01X0048617Y-064250D01*
G01X0048617Y-064250D02*
G01X0048504Y-064082D01*
G01X0048504Y-064082D02*
G01X0048448Y-064025D01*
G01X0022895Y-066714D02*
G01X0022895Y-066354D01*
G01X0022895Y-066354D02*
G01X0022535Y-066354D01*
G01X0022535Y-066354D02*
G01X0022535Y-066714D01*
G01X0022535Y-066714D02*
G01X0022895Y-066714D01*
G01X0022970Y-066534D02*
G75*
G03X0022970Y-066534I-000255J0000000D01*
G01X0024657Y-067068D02*
G01X0023982Y-067068D01*
G01X0024320Y-067068D02*
G01X0024320Y-065887D01*
G01X0024320Y-065887D02*
G01X0024207Y-066056D01*
G01X0024207Y-066056D02*
G01X0024095Y-066168D01*
G01X0024095Y-066168D02*
G01X0023982Y-066224D01*
G01X0025163Y-066956D02*
G01X0025220Y-067012D01*
G01X0025220Y-067012D02*
G01X0025163Y-067068D01*
G01X0025163Y-067068D02*
G01X0025107Y-067012D01*
G01X0025107Y-067012D02*
G01X0025163Y-066956D01*
G01X0025163Y-066956D02*
G01X0025163Y-067068D01*
G01X0025613Y-065887D02*
G01X0026345Y-065887D01*
G01X0026345Y-065887D02*
G01X0025951Y-066337D01*
G01X0025951Y-066337D02*
G01X0026120Y-066337D01*
G01X0026120Y-066337D02*
G01X0026232Y-066393D01*
G01X0026232Y-066393D02*
G01X0026288Y-066449D01*
G01X0026288Y-066449D02*
G01X0026345Y-066562D01*
G01X0026345Y-066562D02*
G01X0026345Y-066843D01*
G01X0026345Y-066843D02*
G01X0026288Y-066956D01*
G01X0026288Y-066956D02*
G01X0026232Y-067012D01*
G01X0026232Y-067012D02*
G01X0026120Y-067068D01*
G01X0026120Y-067068D02*
G01X0025782Y-067068D01*
G01X0025782Y-067068D02*
G01X0025670Y-067012D01*
G01X0025670Y-067012D02*
G01X0025613Y-066956D01*
G01X0027076Y-065887D02*
G01X0027188Y-065887D01*
G01X0027188Y-065887D02*
G01X0027301Y-065943D01*
G01X0027301Y-065943D02*
G01X0027357Y-066000D01*
G01X0027357Y-066000D02*
G01X0027413Y-066112D01*
G01X0027413Y-066112D02*
G01X0027469Y-066337D01*
G01X0027469Y-066337D02*
G01X0027469Y-066618D01*
G01X0027469Y-066618D02*
G01X0027413Y-066843D01*
G01X0027413Y-066843D02*
G01X0027357Y-066956D01*
G01X0027357Y-066956D02*
G01X0027301Y-067012D01*
G01X0027301Y-067012D02*
G01X0027188Y-067068D01*
G01X0027188Y-067068D02*
G01X0027076Y-067068D01*
G01X0027076Y-067068D02*
G01X0026963Y-067012D01*
G01X0026963Y-067012D02*
G01X0026907Y-066956D01*
G01X0026907Y-066956D02*
G01X0026851Y-066843D01*
G01X0026851Y-066843D02*
G01X0026795Y-066618D01*
G01X0026795Y-066618D02*
G01X0026795Y-066337D01*
G01X0026795Y-066337D02*
G01X0026851Y-066112D01*
G01X0026851Y-066112D02*
G01X0026907Y-066000D01*
G01X0026907Y-066000D02*
G01X0026963Y-065943D01*
G01X0026963Y-065943D02*
G01X0027076Y-065887D01*
G01X0027976Y-067068D02*
G01X0027976Y-066281D01*
G01X0027976Y-066393D02*
G01X0028032Y-066337D01*
G01X0028032Y-066337D02*
G01X0028144Y-066281D01*
G01X0028144Y-066281D02*
G01X0028313Y-066281D01*
G01X0028313Y-066281D02*
G01X0028426Y-066337D01*
G01X0028426Y-066337D02*
G01X0028482Y-066449D01*
G01X0028482Y-066449D02*
G01X0028482Y-067068D01*
G01X0028482Y-066449D02*
G01X0028538Y-066337D01*
G01X0028538Y-066337D02*
G01X0028651Y-066281D01*
G01X0028651Y-066281D02*
G01X0028819Y-066281D01*
G01X0028819Y-066281D02*
G01X0028932Y-066337D01*
G01X0028932Y-066337D02*
G01X0028988Y-066449D01*
G01X0028988Y-066449D02*
G01X0028988Y-067068D01*
G01X0029550Y-067068D02*
G01X0029550Y-066281D01*
G01X0029550Y-066393D02*
G01X0029607Y-066337D01*
G01X0029607Y-066337D02*
G01X0029719Y-066281D01*
G01X0029719Y-066281D02*
G01X0029888Y-066281D01*
G01X0029888Y-066281D02*
G01X0030000Y-066337D01*
G01X0030000Y-066337D02*
G01X0030057Y-066449D01*
G01X0030057Y-066449D02*
G01X0030057Y-067068D01*
G01X0030057Y-066449D02*
G01X0030113Y-066337D01*
G01X0030113Y-066337D02*
G01X0030225Y-066281D01*
G01X0030225Y-066281D02*
G01X0030394Y-066281D01*
G01X0030394Y-066281D02*
G01X0030507Y-066337D01*
G01X0030507Y-066337D02*
G01X0030563Y-066449D01*
G01X0030563Y-066449D02*
G01X0030563Y-067068D01*
G01X0032869Y-065831D02*
G01X0031856Y-067349D01*
G01X0034387Y-065887D02*
G01X0034500Y-065887D01*
G01X0034500Y-065887D02*
G01X0034612Y-065943D01*
G01X0034612Y-065943D02*
G01X0034669Y-066000D01*
G01X0034669Y-066000D02*
G01X0034725Y-066112D01*
G01X0034725Y-066112D02*
G01X0034781Y-066337D01*
G01X0034781Y-066337D02*
G01X0034781Y-066618D01*
G01X0034781Y-066618D02*
G01X0034725Y-066843D01*
G01X0034725Y-066843D02*
G01X0034669Y-066956D01*
G01X0034669Y-066956D02*
G01X0034612Y-067012D01*
G01X0034612Y-067012D02*
G01X0034500Y-067068D01*
G01X0034500Y-067068D02*
G01X0034387Y-067068D01*
G01X0034387Y-067068D02*
G01X0034275Y-067012D01*
G01X0034275Y-067012D02*
G01X0034219Y-066956D01*
G01X0034219Y-066956D02*
G01X0034162Y-066843D01*
G01X0034162Y-066843D02*
G01X0034106Y-066618D01*
G01X0034106Y-066618D02*
G01X0034106Y-066337D01*
G01X0034106Y-066337D02*
G01X0034162Y-066112D01*
G01X0034162Y-066112D02*
G01X0034219Y-066000D01*
G01X0034219Y-066000D02*
G01X0034275Y-065943D01*
G01X0034275Y-065943D02*
G01X0034387Y-065887D01*
G01X0035287Y-066956D02*
G01X0035343Y-067012D01*
G01X0035343Y-067012D02*
G01X0035287Y-067068D01*
G01X0035287Y-067068D02*
G01X0035231Y-067012D01*
G01X0035231Y-067012D02*
G01X0035287Y-066956D01*
G01X0035287Y-066956D02*
G01X0035287Y-067068D01*
G01X0036075Y-065887D02*
G01X0036187Y-065887D01*
G01X0036187Y-065887D02*
G01X0036300Y-065943D01*
G01X0036300Y-065943D02*
G01X0036356Y-066000D01*
G01X0036356Y-066000D02*
G01X0036412Y-066112D01*
G01X0036412Y-066112D02*
G01X0036468Y-066337D01*
G01X0036468Y-066337D02*
G01X0036468Y-066618D01*
G01X0036468Y-066618D02*
G01X0036412Y-066843D01*
G01X0036412Y-066843D02*
G01X0036356Y-066956D01*
G01X0036356Y-066956D02*
G01X0036300Y-067012D01*
G01X0036300Y-067012D02*
G01X0036187Y-067068D01*
G01X0036187Y-067068D02*
G01X0036075Y-067068D01*
G01X0036075Y-067068D02*
G01X0035962Y-067012D01*
G01X0035962Y-067012D02*
G01X0035906Y-066956D01*
G01X0035906Y-066956D02*
G01X0035850Y-066843D01*
G01X0035850Y-066843D02*
G01X0035793Y-066618D01*
G01X0035793Y-066618D02*
G01X0035793Y-066337D01*
G01X0035793Y-066337D02*
G01X0035850Y-066112D01*
G01X0035850Y-066112D02*
G01X0035906Y-066000D01*
G01X0035906Y-066000D02*
G01X0035962Y-065943D01*
G01X0035962Y-065943D02*
G01X0036075Y-065887D01*
G01X0037537Y-065887D02*
G01X0036975Y-065887D01*
G01X0036975Y-065887D02*
G01X0036918Y-066449D01*
G01X0036918Y-066449D02*
G01X0036975Y-066393D01*
G01X0036975Y-066393D02*
G01X0037087Y-066337D01*
G01X0037087Y-066337D02*
G01X0037368Y-066337D01*
G01X0037368Y-066337D02*
G01X0037481Y-066393D01*
G01X0037481Y-066393D02*
G01X0037537Y-066449D01*
G01X0037537Y-066449D02*
G01X0037593Y-066562D01*
G01X0037593Y-066562D02*
G01X0037593Y-066843D01*
G01X0037593Y-066843D02*
G01X0037537Y-066956D01*
G01X0037537Y-066956D02*
G01X0037481Y-067012D01*
G01X0037481Y-067012D02*
G01X0037368Y-067068D01*
G01X0037368Y-067068D02*
G01X0037087Y-067068D01*
G01X0037087Y-067068D02*
G01X0036975Y-067012D01*
G01X0036975Y-067012D02*
G01X0036918Y-066956D01*
G01X0038718Y-067068D02*
G01X0038043Y-067068D01*
G01X0038381Y-067068D02*
G01X0038381Y-065887D01*
G01X0038381Y-065887D02*
G01X0038268Y-066056D01*
G01X0038268Y-066056D02*
G01X0038156Y-066168D01*
G01X0038156Y-066168D02*
G01X0038043Y-066224D01*
G01X0039168Y-065887D02*
G01X0039168Y-066112D01*
G01X0039618Y-065887D02*
G01X0039618Y-066112D01*
G01X0041361Y-067518D02*
G01X0041305Y-067462D01*
G01X0041305Y-067462D02*
G01X0041193Y-067293D01*
G01X0041193Y-067293D02*
G01X0041136Y-067181D01*
G01X0041136Y-067181D02*
G01X0041080Y-067012D01*
G01X0041080Y-067012D02*
G01X0041024Y-066731D01*
G01X0041024Y-066731D02*
G01X0041024Y-066506D01*
G01X0041024Y-066506D02*
G01X0041080Y-066224D01*
G01X0041080Y-066224D02*
G01X0041136Y-066056D01*
G01X0041136Y-066056D02*
G01X0041193Y-065943D01*
G01X0041193Y-065943D02*
G01X0041305Y-065775D01*
G01X0041305Y-065775D02*
G01X0041361Y-065718D01*
G01X0042374Y-065887D02*
G01X0041811Y-065887D01*
G01X0041811Y-065887D02*
G01X0041755Y-066449D01*
G01X0041755Y-066449D02*
G01X0041811Y-066393D01*
G01X0041811Y-066393D02*
G01X0041924Y-066337D01*
G01X0041924Y-066337D02*
G01X0042205Y-066337D01*
G01X0042205Y-066337D02*
G01X0042318Y-066393D01*
G01X0042318Y-066393D02*
G01X0042374Y-066449D01*
G01X0042374Y-066449D02*
G01X0042430Y-066562D01*
G01X0042430Y-066562D02*
G01X0042430Y-066843D01*
G01X0042430Y-066843D02*
G01X0042374Y-066956D01*
G01X0042374Y-066956D02*
G01X0042318Y-067012D01*
G01X0042318Y-067012D02*
G01X0042205Y-067068D01*
G01X0042205Y-067068D02*
G01X0041924Y-067068D01*
G01X0041924Y-067068D02*
G01X0041811Y-067012D01*
G01X0041811Y-067012D02*
G01X0041755Y-066956D01*
G01X0043836Y-067068D02*
G01X0043836Y-065887D01*
G01X0044342Y-067068D02*
G01X0044342Y-066449D01*
G01X0044342Y-066449D02*
G01X0044286Y-066337D01*
G01X0044286Y-066337D02*
G01X0044174Y-066281D01*
G01X0044174Y-066281D02*
G01X0044005Y-066281D01*
G01X0044005Y-066281D02*
G01X0043892Y-066337D01*
G01X0043892Y-066337D02*
G01X0043836Y-066393D01*
G01X0045073Y-067068D02*
G01X0044961Y-067012D01*
G01X0044961Y-067012D02*
G01X0044905Y-066956D01*
G01X0044905Y-066956D02*
G01X0044849Y-066843D01*
G01X0044849Y-066843D02*
G01X0044849Y-066506D01*
G01X0044849Y-066506D02*
G01X0044905Y-066393D01*
G01X0044905Y-066393D02*
G01X0044961Y-066337D01*
G01X0044961Y-066337D02*
G01X0045073Y-066281D01*
G01X0045073Y-066281D02*
G01X0045242Y-066281D01*
G01X0045242Y-066281D02*
G01X0045355Y-066337D01*
G01X0045355Y-066337D02*
G01X0045411Y-066393D01*
G01X0045411Y-066393D02*
G01X0045467Y-066506D01*
G01X0045467Y-066506D02*
G01X0045467Y-066843D01*
G01X0045467Y-066843D02*
G01X0045411Y-066956D01*
G01X0045411Y-066956D02*
G01X0045355Y-067012D01*
G01X0045355Y-067012D02*
G01X0045242Y-067068D01*
G01X0045242Y-067068D02*
G01X0045073Y-067068D01*
G01X0046142Y-067068D02*
G01X0046030Y-067012D01*
G01X0046030Y-067012D02*
G01X0045973Y-066899D01*
G01X0045973Y-066899D02*
G01X0045973Y-065887D01*
G01X0047042Y-067012D02*
G01X0046930Y-067068D01*
G01X0046930Y-067068D02*
G01X0046705Y-067068D01*
G01X0046705Y-067068D02*
G01X0046592Y-067012D01*
G01X0046592Y-067012D02*
G01X0046536Y-066899D01*
G01X0046536Y-066899D02*
G01X0046536Y-066449D01*
G01X0046536Y-066449D02*
G01X0046592Y-066337D01*
G01X0046592Y-066337D02*
G01X0046705Y-066281D01*
G01X0046705Y-066281D02*
G01X0046930Y-066281D01*
G01X0046930Y-066281D02*
G01X0047042Y-066337D01*
G01X0047042Y-066337D02*
G01X0047098Y-066449D01*
G01X0047098Y-066449D02*
G01X0047098Y-066562D01*
G01X0047098Y-066562D02*
G01X0046536Y-066674D01*
G01X0047548Y-067012D02*
G01X0047661Y-067068D01*
G01X0047661Y-067068D02*
G01X0047886Y-067068D01*
G01X0047886Y-067068D02*
G01X0047998Y-067012D01*
G01X0047998Y-067012D02*
G01X0048054Y-066899D01*
G01X0048054Y-066899D02*
G01X0048054Y-066843D01*
G01X0048054Y-066843D02*
G01X0047998Y-066731D01*
G01X0047998Y-066731D02*
G01X0047886Y-066674D01*
G01X0047886Y-066674D02*
G01X0047717Y-066674D01*
G01X0047717Y-066674D02*
G01X0047604Y-066618D01*
G01X0047604Y-066618D02*
G01X0047548Y-066506D01*
G01X0047548Y-066506D02*
G01X0047548Y-066449D01*
G01X0047548Y-066449D02*
G01X0047604Y-066337D01*
G01X0047604Y-066337D02*
G01X0047717Y-066281D01*
G01X0047717Y-066281D02*
G01X0047886Y-066281D01*
G01X0047886Y-066281D02*
G01X0047998Y-066337D01*
G01X0048448Y-067518D02*
G01X0048504Y-067462D01*
G01X0048504Y-067462D02*
G01X0048617Y-067293D01*
G01X0048617Y-067293D02*
G01X0048673Y-067181D01*
G01X0048673Y-067181D02*
G01X0048729Y-067012D01*
G01X0048729Y-067012D02*
G01X0048786Y-066731D01*
G01X0048786Y-066731D02*
G01X0048786Y-066506D01*
G01X0048786Y-066506D02*
G01X0048729Y-066224D01*
G01X0048729Y-066224D02*
G01X0048673Y-066056D01*
G01X0048673Y-066056D02*
G01X0048617Y-065943D01*
G01X0048617Y-065943D02*
G01X0048504Y-065775D01*
G01X0048504Y-065775D02*
G01X0048448Y-065718D01*
G01X0050585Y-067518D02*
G01X0050529Y-067462D01*
G01X0050529Y-067462D02*
G01X0050417Y-067293D01*
G01X0050417Y-067293D02*
G01X0050360Y-067181D01*
G01X0050360Y-067181D02*
G01X0050304Y-067012D01*
G01X0050304Y-067012D02*
G01X0050248Y-066731D01*
G01X0050248Y-066731D02*
G01X0050248Y-066506D01*
G01X0050248Y-066506D02*
G01X0050304Y-066224D01*
G01X0050304Y-066224D02*
G01X0050360Y-066056D01*
G01X0050360Y-066056D02*
G01X0050417Y-065943D01*
G01X0050417Y-065943D02*
G01X0050529Y-065775D01*
G01X0050529Y-065775D02*
G01X0050585Y-065718D01*
G01X0051035Y-066281D02*
G01X0051035Y-067068D01*
G01X0051035Y-066393D02*
G01X0051091Y-066337D01*
G01X0051091Y-066337D02*
G01X0051204Y-066281D01*
G01X0051204Y-066281D02*
G01X0051373Y-066281D01*
G01X0051373Y-066281D02*
G01X0051485Y-066337D01*
G01X0051485Y-066337D02*
G01X0051541Y-066449D01*
G01X0051541Y-066449D02*
G01X0051541Y-067068D01*
G01X0052273Y-067068D02*
G01X0052160Y-067012D01*
G01X0052160Y-067012D02*
G01X0052104Y-066956D01*
G01X0052104Y-066956D02*
G01X0052048Y-066843D01*
G01X0052048Y-066843D02*
G01X0052048Y-066506D01*
G01X0052048Y-066506D02*
G01X0052104Y-066393D01*
G01X0052104Y-066393D02*
G01X0052160Y-066337D01*
G01X0052160Y-066337D02*
G01X0052273Y-066281D01*
G01X0052273Y-066281D02*
G01X0052441Y-066281D01*
G01X0052441Y-066281D02*
G01X0052554Y-066337D01*
G01X0052554Y-066337D02*
G01X0052610Y-066393D01*
G01X0052610Y-066393D02*
G01X0052666Y-066506D01*
G01X0052666Y-066506D02*
G01X0052666Y-066843D01*
G01X0052666Y-066843D02*
G01X0052610Y-066956D01*
G01X0052610Y-066956D02*
G01X0052554Y-067012D01*
G01X0052554Y-067012D02*
G01X0052441Y-067068D01*
G01X0052441Y-067068D02*
G01X0052273Y-067068D01*
G01X0053004Y-066281D02*
G01X0053454Y-066281D01*
G01X0053172Y-065887D02*
G01X0053172Y-066899D01*
G01X0053172Y-066899D02*
G01X0053229Y-067012D01*
G01X0053229Y-067012D02*
G01X0053341Y-067068D01*
G01X0053341Y-067068D02*
G01X0053454Y-067068D01*
G01X0054747Y-066281D02*
G01X0054747Y-067462D01*
G01X0054747Y-066337D02*
G01X0054860Y-066281D01*
G01X0054860Y-066281D02*
G01X0055085Y-066281D01*
G01X0055085Y-066281D02*
G01X0055197Y-066337D01*
G01X0055197Y-066337D02*
G01X0055253Y-066393D01*
G01X0055253Y-066393D02*
G01X0055310Y-066506D01*
G01X0055310Y-066506D02*
G01X0055310Y-066843D01*
G01X0055310Y-066843D02*
G01X0055253Y-066956D01*
G01X0055253Y-066956D02*
G01X0055197Y-067012D01*
G01X0055197Y-067012D02*
G01X0055085Y-067068D01*
G01X0055085Y-067068D02*
G01X0054860Y-067068D01*
G01X0054860Y-067068D02*
G01X0054747Y-067012D01*
G01X0055985Y-067068D02*
G01X0055872Y-067012D01*
G01X0055872Y-067012D02*
G01X0055816Y-066899D01*
G01X0055816Y-066899D02*
G01X0055816Y-065887D01*
G01X0056941Y-067068D02*
G01X0056941Y-066449D01*
G01X0056941Y-066449D02*
G01X0056885Y-066337D01*
G01X0056885Y-066337D02*
G01X0056772Y-066281D01*
G01X0056772Y-066281D02*
G01X0056547Y-066281D01*
G01X0056547Y-066281D02*
G01X0056435Y-066337D01*
G01X0056941Y-067012D02*
G01X0056828Y-067068D01*
G01X0056828Y-067068D02*
G01X0056547Y-067068D01*
G01X0056547Y-067068D02*
G01X0056435Y-067012D01*
G01X0056435Y-067012D02*
G01X0056378Y-066899D01*
G01X0056378Y-066899D02*
G01X0056378Y-066787D01*
G01X0056378Y-066787D02*
G01X0056435Y-066674D01*
G01X0056435Y-066674D02*
G01X0056547Y-066618D01*
G01X0056547Y-066618D02*
G01X0056828Y-066618D01*
G01X0056828Y-066618D02*
G01X0056941Y-066562D01*
G01X0057334Y-066281D02*
G01X0057784Y-066281D01*
G01X0057503Y-065887D02*
G01X0057503Y-066899D01*
G01X0057503Y-066899D02*
G01X0057559Y-067012D01*
G01X0057559Y-067012D02*
G01X0057672Y-067068D01*
G01X0057672Y-067068D02*
G01X0057784Y-067068D01*
G01X0058628Y-067012D02*
G01X0058516Y-067068D01*
G01X0058516Y-067068D02*
G01X0058291Y-067068D01*
G01X0058291Y-067068D02*
G01X0058178Y-067012D01*
G01X0058178Y-067012D02*
G01X0058122Y-066899D01*
G01X0058122Y-066899D02*
G01X0058122Y-066449D01*
G01X0058122Y-066449D02*
G01X0058178Y-066337D01*
G01X0058178Y-066337D02*
G01X0058291Y-066281D01*
G01X0058291Y-066281D02*
G01X0058516Y-066281D01*
G01X0058516Y-066281D02*
G01X0058628Y-066337D01*
G01X0058628Y-066337D02*
G01X0058684Y-066449D01*
G01X0058684Y-066449D02*
G01X0058684Y-066562D01*
G01X0058684Y-066562D02*
G01X0058122Y-066674D01*
G01X0059697Y-067068D02*
G01X0059697Y-065887D01*
G01X0059697Y-067012D02*
G01X0059584Y-067068D01*
G01X0059584Y-067068D02*
G01X0059359Y-067068D01*
G01X0059359Y-067068D02*
G01X0059247Y-067012D01*
G01X0059247Y-067012D02*
G01X0059190Y-066956D01*
G01X0059190Y-066956D02*
G01X0059134Y-066843D01*
G01X0059134Y-066843D02*
G01X0059134Y-066506D01*
G01X0059134Y-066506D02*
G01X0059190Y-066393D01*
G01X0059190Y-066393D02*
G01X0059247Y-066337D01*
G01X0059247Y-066337D02*
G01X0059359Y-066281D01*
G01X0059359Y-066281D02*
G01X0059584Y-066281D01*
G01X0059584Y-066281D02*
G01X0059697Y-066337D01*
G01X0060147Y-067518D02*
G01X0060203Y-067462D01*
G01X0060203Y-067462D02*
G01X0060315Y-067293D01*
G01X0060315Y-067293D02*
G01X0060372Y-067181D01*
G01X0060372Y-067181D02*
G01X0060428Y-067012D01*
G01X0060428Y-067012D02*
G01X0060484Y-066731D01*
G01X0060484Y-066731D02*
G01X0060484Y-066506D01*
G01X0060484Y-066506D02*
G01X0060428Y-066224D01*
G01X0060428Y-066224D02*
G01X0060372Y-066056D01*
G01X0060372Y-066056D02*
G01X0060315Y-065943D01*
G01X0060315Y-065943D02*
G01X0060203Y-065775D01*
G01X0060203Y-065775D02*
G01X0060147Y-065718D01*
G01X0000000Y0000000D02*
G54D11*
G01X0044500Y-015000D02*
G01X0045000Y-015000D01*
G01X0023000Y-015000D02*
G01X0044500Y-015000D01*
G01X0023000Y-047000D02*
G01X0023000Y-015000D01*
G01X0045000Y-047000D02*
G01X0023000Y-047000D01*
G01X0045000Y-015000D02*
G01X0045000Y-047000D01*
G01X0000000Y0000000D02*
G54D15*
G01X0046700Y-030300D02*
G75*
G03X0046700Y-030300I-000500J0000000D01*
G01X0045050Y-031100D02*
G01X0045050Y-029500D01*
G01X0047350Y-031100D02*
G01X0045050Y-031100D01*
G01X0047350Y-029500D02*
G01X0047350Y-031100D01*
G01X0045050Y-029500D02*
G01X0047350Y-029500D01*
G01X0047450Y-037000D02*
G01X0041200Y-037000D01*
G01X0068250Y-040250D02*
G01X0068250Y-037250D01*
G01X0070250Y-040250D02*
G01X0068250Y-040250D01*
G01X0070250Y-037250D02*
G01X0070250Y-040250D01*
G01X0068250Y-037250D02*
G01X0070250Y-037250D01*
G01X0042950Y-048500D02*
G01X0042950Y-045000D01*
G01X0048200Y-048500D02*
G01X0042950Y-048500D01*
G01X0048200Y-045000D02*
G01X0048200Y-048500D01*
G01X0042950Y-045000D02*
G01X0048200Y-045000D01*
G01X0041200Y-037000D02*
G01X0041200Y-032500D01*
G01X0047450Y-032500D02*
G01X0047450Y-037000D01*
G01X0041200Y-032500D02*
G01X0047450Y-032500D01*
M02*
