G04 This is an RS-274x file exported by *
G04 gerbv version 2.6.0 *
G04 More information is available about gerbv at *
G04 http://gerbv.gpleda.org/ *
G04 --End of header info--*
%MOIN*%
%FSLAX34Y34*%
%IPPOS*%
G04 --Define apertures--*
%ADD10C,0.0138*%
%ADD11C,0.0060*%
%ADD12C,0.0020*%
%ADD13C,0.0100*%
%ADD14C,0.0020*%
%ADD15C,0.0016*%
%ADD16C,0.0059*%
G04 --Start main section--*
G54D11*
G01X0038010Y-014314D02*
G01X0038105Y-014581D01*
G01X0038105Y-014581D02*
G01X0038200Y-014314D01*
G01X0038562Y-014581D02*
G01X0038333Y-014581D01*
G01X0038448Y-014581D02*
G01X0038448Y-014181D01*
G01X0038448Y-014181D02*
G01X0038410Y-014238D01*
G01X0038410Y-014238D02*
G01X0038371Y-014276D01*
G01X0038371Y-014276D02*
G01X0038333Y-014295D01*
G01X0038733Y-014543D02*
G01X0038752Y-014562D01*
G01X0038752Y-014562D02*
G01X0038733Y-014581D01*
G01X0038733Y-014581D02*
G01X0038714Y-014562D01*
G01X0038714Y-014562D02*
G01X0038733Y-014543D01*
G01X0038733Y-014543D02*
G01X0038733Y-014581D01*
G01X0039095Y-014314D02*
G01X0039095Y-014581D01*
G01X0039000Y-014162D02*
G01X0038905Y-014448D01*
G01X0038905Y-014448D02*
G01X0039152Y-014448D01*
G01X0041419Y-014219D02*
G01X0041438Y-014200D01*
G01X0041438Y-014200D02*
G01X0041476Y-014181D01*
G01X0041476Y-014181D02*
G01X0041571Y-014181D01*
G01X0041571Y-014181D02*
G01X0041610Y-014200D01*
G01X0041610Y-014200D02*
G01X0041629Y-014219D01*
G01X0041629Y-014219D02*
G01X0041648Y-014257D01*
G01X0041648Y-014257D02*
G01X0041648Y-014295D01*
G01X0041648Y-014295D02*
G01X0041629Y-014352D01*
G01X0041629Y-014352D02*
G01X0041400Y-014581D01*
G01X0041400Y-014581D02*
G01X0041648Y-014581D01*
G01X0042105Y-014162D02*
G01X0041762Y-014676D01*
G01X0042219Y-014219D02*
G01X0042238Y-014200D01*
G01X0042238Y-014200D02*
G01X0042276Y-014181D01*
G01X0042276Y-014181D02*
G01X0042371Y-014181D01*
G01X0042371Y-014181D02*
G01X0042410Y-014200D01*
G01X0042410Y-014200D02*
G01X0042429Y-014219D01*
G01X0042429Y-014219D02*
G01X0042448Y-014257D01*
G01X0042448Y-014257D02*
G01X0042448Y-014295D01*
G01X0042448Y-014295D02*
G01X0042429Y-014352D01*
G01X0042429Y-014352D02*
G01X0042200Y-014581D01*
G01X0042200Y-014581D02*
G01X0042448Y-014581D01*
G01X0042581Y-014181D02*
G01X0042829Y-014181D01*
G01X0042829Y-014181D02*
G01X0042695Y-014333D01*
G01X0042695Y-014333D02*
G01X0042752Y-014333D01*
G01X0042752Y-014333D02*
G01X0042790Y-014352D01*
G01X0042790Y-014352D02*
G01X0042810Y-014371D01*
G01X0042810Y-014371D02*
G01X0042829Y-014410D01*
G01X0042829Y-014410D02*
G01X0042829Y-014505D01*
G01X0042829Y-014505D02*
G01X0042810Y-014543D01*
G01X0042810Y-014543D02*
G01X0042790Y-014562D01*
G01X0042790Y-014562D02*
G01X0042752Y-014581D01*
G01X0042752Y-014581D02*
G01X0042638Y-014581D01*
G01X0042638Y-014581D02*
G01X0042600Y-014562D01*
G01X0042600Y-014562D02*
G01X0042581Y-014543D01*
G01X0043286Y-014162D02*
G01X0042943Y-014676D01*
G01X0043400Y-014219D02*
G01X0043419Y-014200D01*
G01X0043419Y-014200D02*
G01X0043457Y-014181D01*
G01X0043457Y-014181D02*
G01X0043552Y-014181D01*
G01X0043552Y-014181D02*
G01X0043590Y-014200D01*
G01X0043590Y-014200D02*
G01X0043610Y-014219D01*
G01X0043610Y-014219D02*
G01X0043629Y-014257D01*
G01X0043629Y-014257D02*
G01X0043629Y-014295D01*
G01X0043629Y-014295D02*
G01X0043610Y-014352D01*
G01X0043610Y-014352D02*
G01X0043381Y-014581D01*
G01X0043381Y-014581D02*
G01X0043629Y-014581D01*
G01X0043876Y-014181D02*
G01X0043914Y-014181D01*
G01X0043914Y-014181D02*
G01X0043952Y-014200D01*
G01X0043952Y-014200D02*
G01X0043971Y-014219D01*
G01X0043971Y-014219D02*
G01X0043990Y-014257D01*
G01X0043990Y-014257D02*
G01X0044010Y-014333D01*
G01X0044010Y-014333D02*
G01X0044010Y-014429D01*
G01X0044010Y-014429D02*
G01X0043990Y-014505D01*
G01X0043990Y-014505D02*
G01X0043971Y-014543D01*
G01X0043971Y-014543D02*
G01X0043952Y-014562D01*
G01X0043952Y-014562D02*
G01X0043914Y-014581D01*
G01X0043914Y-014581D02*
G01X0043876Y-014581D01*
G01X0043876Y-014581D02*
G01X0043838Y-014562D01*
G01X0043838Y-014562D02*
G01X0043819Y-014543D01*
G01X0043819Y-014543D02*
G01X0043800Y-014505D01*
G01X0043800Y-014505D02*
G01X0043781Y-014429D01*
G01X0043781Y-014429D02*
G01X0043781Y-014333D01*
G01X0043781Y-014333D02*
G01X0043800Y-014257D01*
G01X0043800Y-014257D02*
G01X0043819Y-014219D01*
G01X0043819Y-014219D02*
G01X0043838Y-014200D01*
G01X0043838Y-014200D02*
G01X0043876Y-014181D01*
G01X0044390Y-014581D02*
G01X0044162Y-014581D01*
G01X0044276Y-014581D02*
G01X0044276Y-014181D01*
G01X0044276Y-014181D02*
G01X0044238Y-014238D01*
G01X0044238Y-014238D02*
G01X0044200Y-014276D01*
G01X0044200Y-014276D02*
G01X0044162Y-014295D01*
G01X0044524Y-014181D02*
G01X0044790Y-014181D01*
G01X0044790Y-014181D02*
G01X0044619Y-014581D01*
G01X0033695Y-013471D02*
G01X0033829Y-013471D01*
G01X0033886Y-013681D02*
G01X0033695Y-013681D01*
G01X0033695Y-013681D02*
G01X0033695Y-013281D01*
G01X0033695Y-013281D02*
G01X0033886Y-013281D01*
G01X0034038Y-013319D02*
G01X0034057Y-013300D01*
G01X0034057Y-013300D02*
G01X0034095Y-013281D01*
G01X0034095Y-013281D02*
G01X0034190Y-013281D01*
G01X0034190Y-013281D02*
G01X0034229Y-013300D01*
G01X0034229Y-013300D02*
G01X0034248Y-013319D01*
G01X0034248Y-013319D02*
G01X0034267Y-013357D01*
G01X0034267Y-013357D02*
G01X0034267Y-013395D01*
G01X0034267Y-013395D02*
G01X0034248Y-013452D01*
G01X0034248Y-013452D02*
G01X0034019Y-013681D01*
G01X0034019Y-013681D02*
G01X0034267Y-013681D01*
G01X0034514Y-013281D02*
G01X0034552Y-013281D01*
G01X0034552Y-013281D02*
G01X0034590Y-013300D01*
G01X0034590Y-013300D02*
G01X0034610Y-013319D01*
G01X0034610Y-013319D02*
G01X0034629Y-013357D01*
G01X0034629Y-013357D02*
G01X0034648Y-013433D01*
G01X0034648Y-013433D02*
G01X0034648Y-013529D01*
G01X0034648Y-013529D02*
G01X0034629Y-013605D01*
G01X0034629Y-013605D02*
G01X0034610Y-013643D01*
G01X0034610Y-013643D02*
G01X0034590Y-013662D01*
G01X0034590Y-013662D02*
G01X0034552Y-013681D01*
G01X0034552Y-013681D02*
G01X0034514Y-013681D01*
G01X0034514Y-013681D02*
G01X0034476Y-013662D01*
G01X0034476Y-013662D02*
G01X0034457Y-013643D01*
G01X0034457Y-013643D02*
G01X0034438Y-013605D01*
G01X0034438Y-013605D02*
G01X0034419Y-013529D01*
G01X0034419Y-013529D02*
G01X0034419Y-013433D01*
G01X0034419Y-013433D02*
G01X0034438Y-013357D01*
G01X0034438Y-013357D02*
G01X0034457Y-013319D01*
G01X0034457Y-013319D02*
G01X0034476Y-013300D01*
G01X0034476Y-013300D02*
G01X0034514Y-013281D01*
G01X0034800Y-013319D02*
G01X0034819Y-013300D01*
G01X0034819Y-013300D02*
G01X0034857Y-013281D01*
G01X0034857Y-013281D02*
G01X0034952Y-013281D01*
G01X0034952Y-013281D02*
G01X0034990Y-013300D01*
G01X0034990Y-013300D02*
G01X0035010Y-013319D01*
G01X0035010Y-013319D02*
G01X0035029Y-013357D01*
G01X0035029Y-013357D02*
G01X0035029Y-013395D01*
G01X0035029Y-013395D02*
G01X0035010Y-013452D01*
G01X0035010Y-013452D02*
G01X0034781Y-013681D01*
G01X0034781Y-013681D02*
G01X0035029Y-013681D01*
G01X0035143Y-013281D02*
G01X0035276Y-013681D01*
G01X0035276Y-013681D02*
G01X0035410Y-013281D01*
G01X0035524Y-013567D02*
G01X0035714Y-013567D01*
G01X0035486Y-013681D02*
G01X0035619Y-013281D01*
G01X0035619Y-013281D02*
G01X0035752Y-013681D01*
G01X0036114Y-013681D02*
G01X0035981Y-013490D01*
G01X0035886Y-013681D02*
G01X0035886Y-013281D01*
G01X0035886Y-013281D02*
G01X0036038Y-013281D01*
G01X0036038Y-013281D02*
G01X0036076Y-013300D01*
G01X0036076Y-013300D02*
G01X0036095Y-013319D01*
G01X0036095Y-013319D02*
G01X0036114Y-013357D01*
G01X0036114Y-013357D02*
G01X0036114Y-013414D01*
G01X0036114Y-013414D02*
G01X0036095Y-013452D01*
G01X0036095Y-013452D02*
G01X0036076Y-013471D01*
G01X0036076Y-013471D02*
G01X0036038Y-013490D01*
G01X0036038Y-013490D02*
G01X0035886Y-013490D01*
G01X0036533Y-013281D02*
G01X0036667Y-013681D01*
G01X0036667Y-013681D02*
G01X0036800Y-013281D01*
G01X0037124Y-013681D02*
G01X0036933Y-013681D01*
G01X0036933Y-013681D02*
G01X0036933Y-013281D01*
G01X0037390Y-013471D02*
G01X0037257Y-013471D01*
G01X0037257Y-013681D02*
G01X0037257Y-013281D01*
G01X0037257Y-013281D02*
G01X0037448Y-013281D01*
G01X0037905Y-013681D02*
G01X0037905Y-013281D01*
G01X0037905Y-013281D02*
G01X0038133Y-013681D01*
G01X0038133Y-013681D02*
G01X0038133Y-013281D01*
G01X0038495Y-013681D02*
G01X0038495Y-013471D01*
G01X0038495Y-013471D02*
G01X0038476Y-013433D01*
G01X0038476Y-013433D02*
G01X0038438Y-013414D01*
G01X0038438Y-013414D02*
G01X0038362Y-013414D01*
G01X0038362Y-013414D02*
G01X0038324Y-013433D01*
G01X0038495Y-013662D02*
G01X0038457Y-013681D01*
G01X0038457Y-013681D02*
G01X0038362Y-013681D01*
G01X0038362Y-013681D02*
G01X0038324Y-013662D01*
G01X0038324Y-013662D02*
G01X0038305Y-013624D01*
G01X0038305Y-013624D02*
G01X0038305Y-013586D01*
G01X0038305Y-013586D02*
G01X0038324Y-013548D01*
G01X0038324Y-013548D02*
G01X0038362Y-013529D01*
G01X0038362Y-013529D02*
G01X0038457Y-013529D01*
G01X0038457Y-013529D02*
G01X0038495Y-013510D01*
G01X0038629Y-013414D02*
G01X0038781Y-013414D01*
G01X0038686Y-013281D02*
G01X0038686Y-013624D01*
G01X0038686Y-013624D02*
G01X0038705Y-013662D01*
G01X0038705Y-013662D02*
G01X0038743Y-013681D01*
G01X0038743Y-013681D02*
G01X0038781Y-013681D01*
G01X0039086Y-013414D02*
G01X0039086Y-013681D01*
G01X0038914Y-013414D02*
G01X0038914Y-013624D01*
G01X0038914Y-013624D02*
G01X0038933Y-013662D01*
G01X0038933Y-013662D02*
G01X0038971Y-013681D01*
G01X0038971Y-013681D02*
G01X0039029Y-013681D01*
G01X0039029Y-013681D02*
G01X0039067Y-013662D01*
G01X0039067Y-013662D02*
G01X0039086Y-013643D01*
G01X0039276Y-013681D02*
G01X0039276Y-013414D01*
G01X0039276Y-013490D02*
G01X0039295Y-013452D01*
G01X0039295Y-013452D02*
G01X0039314Y-013433D01*
G01X0039314Y-013433D02*
G01X0039352Y-013414D01*
G01X0039352Y-013414D02*
G01X0039390Y-013414D01*
G01X0039695Y-013681D02*
G01X0039695Y-013471D01*
G01X0039695Y-013471D02*
G01X0039676Y-013433D01*
G01X0039676Y-013433D02*
G01X0039638Y-013414D01*
G01X0039638Y-013414D02*
G01X0039562Y-013414D01*
G01X0039562Y-013414D02*
G01X0039524Y-013433D01*
G01X0039695Y-013662D02*
G01X0039657Y-013681D01*
G01X0039657Y-013681D02*
G01X0039562Y-013681D01*
G01X0039562Y-013681D02*
G01X0039524Y-013662D01*
G01X0039524Y-013662D02*
G01X0039505Y-013624D01*
G01X0039505Y-013624D02*
G01X0039505Y-013586D01*
G01X0039505Y-013586D02*
G01X0039524Y-013548D01*
G01X0039524Y-013548D02*
G01X0039562Y-013529D01*
G01X0039562Y-013529D02*
G01X0039657Y-013529D01*
G01X0039657Y-013529D02*
G01X0039695Y-013510D01*
G01X0039943Y-013681D02*
G01X0039905Y-013662D01*
G01X0039905Y-013662D02*
G01X0039886Y-013624D01*
G01X0039886Y-013624D02*
G01X0039886Y-013281D01*
G01X0040629Y-013681D02*
G01X0040495Y-013490D01*
G01X0040400Y-013681D02*
G01X0040400Y-013281D01*
G01X0040400Y-013281D02*
G01X0040552Y-013281D01*
G01X0040552Y-013281D02*
G01X0040590Y-013300D01*
G01X0040590Y-013300D02*
G01X0040610Y-013319D01*
G01X0040610Y-013319D02*
G01X0040629Y-013357D01*
G01X0040629Y-013357D02*
G01X0040629Y-013414D01*
G01X0040629Y-013414D02*
G01X0040610Y-013452D01*
G01X0040610Y-013452D02*
G01X0040590Y-013471D01*
G01X0040590Y-013471D02*
G01X0040552Y-013490D01*
G01X0040552Y-013490D02*
G01X0040400Y-013490D01*
G01X0040971Y-013681D02*
G01X0040971Y-013471D01*
G01X0040971Y-013471D02*
G01X0040952Y-013433D01*
G01X0040952Y-013433D02*
G01X0040914Y-013414D01*
G01X0040914Y-013414D02*
G01X0040838Y-013414D01*
G01X0040838Y-013414D02*
G01X0040800Y-013433D01*
G01X0040971Y-013662D02*
G01X0040933Y-013681D01*
G01X0040933Y-013681D02*
G01X0040838Y-013681D01*
G01X0040838Y-013681D02*
G01X0040800Y-013662D01*
G01X0040800Y-013662D02*
G01X0040781Y-013624D01*
G01X0040781Y-013624D02*
G01X0040781Y-013586D01*
G01X0040781Y-013586D02*
G01X0040800Y-013548D01*
G01X0040800Y-013548D02*
G01X0040838Y-013529D01*
G01X0040838Y-013529D02*
G01X0040933Y-013529D01*
G01X0040933Y-013529D02*
G01X0040971Y-013510D01*
G01X0041333Y-013681D02*
G01X0041333Y-013281D01*
G01X0041333Y-013662D02*
G01X0041295Y-013681D01*
G01X0041295Y-013681D02*
G01X0041219Y-013681D01*
G01X0041219Y-013681D02*
G01X0041181Y-013662D01*
G01X0041181Y-013662D02*
G01X0041162Y-013643D01*
G01X0041162Y-013643D02*
G01X0041143Y-013605D01*
G01X0041143Y-013605D02*
G01X0041143Y-013490D01*
G01X0041143Y-013490D02*
G01X0041162Y-013452D01*
G01X0041162Y-013452D02*
G01X0041181Y-013433D01*
G01X0041181Y-013433D02*
G01X0041219Y-013414D01*
G01X0041219Y-013414D02*
G01X0041295Y-013414D01*
G01X0041295Y-013414D02*
G01X0041333Y-013433D01*
G01X0041524Y-013681D02*
G01X0041524Y-013414D01*
G01X0041524Y-013281D02*
G01X0041505Y-013300D01*
G01X0041505Y-013300D02*
G01X0041524Y-013319D01*
G01X0041524Y-013319D02*
G01X0041543Y-013300D01*
G01X0041543Y-013300D02*
G01X0041524Y-013281D01*
G01X0041524Y-013281D02*
G01X0041524Y-013319D01*
G01X0041771Y-013681D02*
G01X0041733Y-013662D01*
G01X0041733Y-013662D02*
G01X0041714Y-013643D01*
G01X0041714Y-013643D02*
G01X0041695Y-013605D01*
G01X0041695Y-013605D02*
G01X0041695Y-013490D01*
G01X0041695Y-013490D02*
G01X0041714Y-013452D01*
G01X0041714Y-013452D02*
G01X0041733Y-013433D01*
G01X0041733Y-013433D02*
G01X0041771Y-013414D01*
G01X0041771Y-013414D02*
G01X0041829Y-013414D01*
G01X0041829Y-013414D02*
G01X0041867Y-013433D01*
G01X0041867Y-013433D02*
G01X0041886Y-013452D01*
G01X0041886Y-013452D02*
G01X0041905Y-013490D01*
G01X0041905Y-013490D02*
G01X0041905Y-013605D01*
G01X0041905Y-013605D02*
G01X0041886Y-013643D01*
G01X0041886Y-013643D02*
G01X0041867Y-013662D01*
G01X0041867Y-013662D02*
G01X0041829Y-013681D01*
G01X0041829Y-013681D02*
G01X0041771Y-013681D01*
G01X0042610Y-013681D02*
G01X0042476Y-013490D01*
G01X0042381Y-013681D02*
G01X0042381Y-013281D01*
G01X0042381Y-013281D02*
G01X0042533Y-013281D01*
G01X0042533Y-013281D02*
G01X0042571Y-013300D01*
G01X0042571Y-013300D02*
G01X0042590Y-013319D01*
G01X0042590Y-013319D02*
G01X0042610Y-013357D01*
G01X0042610Y-013357D02*
G01X0042610Y-013414D01*
G01X0042610Y-013414D02*
G01X0042590Y-013452D01*
G01X0042590Y-013452D02*
G01X0042571Y-013471D01*
G01X0042571Y-013471D02*
G01X0042533Y-013490D01*
G01X0042533Y-013490D02*
G01X0042381Y-013490D01*
G01X0042933Y-013662D02*
G01X0042895Y-013681D01*
G01X0042895Y-013681D02*
G01X0042819Y-013681D01*
G01X0042819Y-013681D02*
G01X0042781Y-013662D01*
G01X0042781Y-013662D02*
G01X0042762Y-013624D01*
G01X0042762Y-013624D02*
G01X0042762Y-013471D01*
G01X0042762Y-013471D02*
G01X0042781Y-013433D01*
G01X0042781Y-013433D02*
G01X0042819Y-013414D01*
G01X0042819Y-013414D02*
G01X0042895Y-013414D01*
G01X0042895Y-013414D02*
G01X0042933Y-013433D01*
G01X0042933Y-013433D02*
G01X0042952Y-013471D01*
G01X0042952Y-013471D02*
G01X0042952Y-013510D01*
G01X0042952Y-013510D02*
G01X0042762Y-013548D01*
G01X0043295Y-013662D02*
G01X0043257Y-013681D01*
G01X0043257Y-013681D02*
G01X0043181Y-013681D01*
G01X0043181Y-013681D02*
G01X0043143Y-013662D01*
G01X0043143Y-013662D02*
G01X0043124Y-013643D01*
G01X0043124Y-013643D02*
G01X0043105Y-013605D01*
G01X0043105Y-013605D02*
G01X0043105Y-013490D01*
G01X0043105Y-013490D02*
G01X0043124Y-013452D01*
G01X0043124Y-013452D02*
G01X0043143Y-013433D01*
G01X0043143Y-013433D02*
G01X0043181Y-013414D01*
G01X0043181Y-013414D02*
G01X0043257Y-013414D01*
G01X0043257Y-013414D02*
G01X0043295Y-013433D01*
G01X0043619Y-013662D02*
G01X0043581Y-013681D01*
G01X0043581Y-013681D02*
G01X0043505Y-013681D01*
G01X0043505Y-013681D02*
G01X0043467Y-013662D01*
G01X0043467Y-013662D02*
G01X0043448Y-013624D01*
G01X0043448Y-013624D02*
G01X0043448Y-013471D01*
G01X0043448Y-013471D02*
G01X0043467Y-013433D01*
G01X0043467Y-013433D02*
G01X0043505Y-013414D01*
G01X0043505Y-013414D02*
G01X0043581Y-013414D01*
G01X0043581Y-013414D02*
G01X0043619Y-013433D01*
G01X0043619Y-013433D02*
G01X0043638Y-013471D01*
G01X0043638Y-013471D02*
G01X0043638Y-013510D01*
G01X0043638Y-013510D02*
G01X0043448Y-013548D01*
G01X0043810Y-013681D02*
G01X0043810Y-013414D01*
G01X0043810Y-013281D02*
G01X0043790Y-013300D01*
G01X0043790Y-013300D02*
G01X0043810Y-013319D01*
G01X0043810Y-013319D02*
G01X0043829Y-013300D01*
G01X0043829Y-013300D02*
G01X0043810Y-013281D01*
G01X0043810Y-013281D02*
G01X0043810Y-013319D01*
G01X0043962Y-013414D02*
G01X0044057Y-013681D01*
G01X0044057Y-013681D02*
G01X0044152Y-013414D01*
G01X0044457Y-013662D02*
G01X0044419Y-013681D01*
G01X0044419Y-013681D02*
G01X0044343Y-013681D01*
G01X0044343Y-013681D02*
G01X0044305Y-013662D01*
G01X0044305Y-013662D02*
G01X0044286Y-013624D01*
G01X0044286Y-013624D02*
G01X0044286Y-013471D01*
G01X0044286Y-013471D02*
G01X0044305Y-013433D01*
G01X0044305Y-013433D02*
G01X0044343Y-013414D01*
G01X0044343Y-013414D02*
G01X0044419Y-013414D01*
G01X0044419Y-013414D02*
G01X0044457Y-013433D01*
G01X0044457Y-013433D02*
G01X0044476Y-013471D01*
G01X0044476Y-013471D02*
G01X0044476Y-013510D01*
G01X0044476Y-013510D02*
G01X0044286Y-013548D01*
G01X0044648Y-013681D02*
G01X0044648Y-013414D01*
G01X0044648Y-013490D02*
G01X0044667Y-013452D01*
G01X0044667Y-013452D02*
G01X0044686Y-013433D01*
G01X0044686Y-013433D02*
G01X0044724Y-013414D01*
G01X0044724Y-013414D02*
G01X0044762Y-013414D01*
G01X0023000Y-015000D02*
G01X0045000Y-015000D01*
G01X0023000Y-047000D02*
G01X0023000Y-015000D01*
G01X0045000Y-047000D02*
G01X0023000Y-047000D01*
G01X0045000Y-015000D02*
G01X0045000Y-047000D01*
G54D12*
G01X0027360Y-026530D02*
G01X0031593Y-026530D01*
G01X0027360Y-021511D02*
G01X0027360Y-026530D01*
G01X0027459Y-021511D02*
G01X0027360Y-021511D01*
G01X0031593Y-021511D02*
G01X0027459Y-021511D01*
G01X0031593Y-026530D02*
G01X0031593Y-021511D01*
G54D13*
G01X0031141Y-025546D02*
G75*
G03X0031141Y-025546I-000139J0000000D01*
G54D14*
G01X0026799Y-032459D02*
G01X0024201Y-032459D01*
G01X0026799Y-032459D02*
G01X0026799Y-030057D01*
G01X0024201Y-032459D02*
G01X0024201Y-030057D01*
G01X0026799Y-030057D02*
G01X0024201Y-030057D01*
G54D12*
G01X0030950Y-037768D02*
G01X0030950Y-042368D01*
G01X0032141Y-037768D02*
G01X0030959Y-037768D01*
G01X0032150Y-042368D02*
G01X0032150Y-037768D01*
G01X0030950Y-042368D02*
G01X0032150Y-042368D01*
G01X0031602Y-018518D02*
G01X0027002Y-018518D01*
G01X0031602Y-019709D02*
G01X0031602Y-018527D01*
G01X0027002Y-019718D02*
G01X0031602Y-019718D01*
G01X0027002Y-018518D02*
G01X0027002Y-019718D01*
G54D14*
G01X0027589Y-027841D02*
G01X0025896Y-027841D01*
G01X0027589Y-026659D02*
G01X0027589Y-027841D01*
G01X0025896Y-026659D02*
G01X0027589Y-026659D01*
G01X0025896Y-027841D02*
G01X0025896Y-026659D01*
G01X0037089Y-031841D02*
G01X0035396Y-031841D01*
G01X0037089Y-030659D02*
G01X0037089Y-031841D01*
G01X0035396Y-030659D02*
G01X0037089Y-030659D01*
G01X0035396Y-031841D02*
G01X0035396Y-030659D01*
G01X0040964Y-028616D02*
G01X0039271Y-028616D01*
G01X0040964Y-027434D02*
G01X0040964Y-028616D01*
G01X0039271Y-027434D02*
G01X0040964Y-027434D01*
G01X0039271Y-028616D02*
G01X0039271Y-027434D01*
G01X0038246Y-025609D02*
G01X0039939Y-025609D01*
G01X0038246Y-026791D02*
G01X0038246Y-025609D01*
G01X0039939Y-026791D02*
G01X0038246Y-026791D01*
G01X0039939Y-025609D02*
G01X0039939Y-026791D01*
G01X0032146Y-034159D02*
G01X0033839Y-034159D01*
G01X0032146Y-035341D02*
G01X0032146Y-034159D01*
G01X0033839Y-035341D02*
G01X0032146Y-035341D01*
G01X0033839Y-034159D02*
G01X0033839Y-035341D01*
G01X0031862Y-043501D02*
G01X0031862Y-046099D01*
G01X0031862Y-043501D02*
G01X0029460Y-043501D01*
G01X0031862Y-046099D02*
G01X0029460Y-046099D01*
G01X0029460Y-043501D02*
G01X0029460Y-046099D01*
G01X0038641Y-020461D02*
G01X0038641Y-018099D01*
G01X0038641Y-020461D02*
G01X0037263Y-020461D01*
G01X0037263Y-018099D02*
G01X0037263Y-020461D01*
G01X0038641Y-018099D02*
G01X0037263Y-018099D01*
G54D15*
G01X0032075Y-033415D02*
G75*
G03X0032080Y-032080I0000675J0000665D01*
G01X0032080Y-032080D02*
G01X0032080Y-033410D01*
G01X0024435Y-020525D02*
G75*
G03X0025770Y-020530I0000665J-000675D01*
G01X0025770Y-020530D02*
G01X0024440Y-020530D01*
G54D12*
G01X0026900Y-021300D02*
G01X0031500Y-021300D01*
G01X0026900Y-020109D02*
G01X0026900Y-021291D01*
G01X0031500Y-020100D02*
G01X0026900Y-020100D01*
G01X0031500Y-021300D02*
G01X0031500Y-020100D01*
G01X0036830Y-023554D02*
G01X0032230Y-023554D01*
G01X0036830Y-024745D02*
G01X0036830Y-023563D01*
G01X0032230Y-024754D02*
G01X0036830Y-024754D01*
G01X0032230Y-023554D02*
G01X0032230Y-024754D01*
G01X0029100Y-031600D02*
G01X0029100Y-027000D01*
G01X0027909Y-031600D02*
G01X0029091Y-031600D01*
G01X0027900Y-027000D02*
G01X0027900Y-031600D01*
G01X0029100Y-027000D02*
G01X0027900Y-027000D01*
G01X0031563Y-015497D02*
G01X0026963Y-015497D01*
G01X0031563Y-016688D02*
G01X0031563Y-015506D01*
G01X0026963Y-016697D02*
G01X0031563Y-016697D01*
G01X0026963Y-015497D02*
G01X0026963Y-016697D01*
G01X0032196Y-020139D02*
G01X0036796Y-020139D01*
G01X0032196Y-018948D02*
G01X0032196Y-020130D01*
G01X0036796Y-018939D02*
G01X0032196Y-018939D01*
G01X0036796Y-020139D02*
G01X0036796Y-018939D01*
G01X0036836Y-021885D02*
G01X0032236Y-021885D01*
G01X0036836Y-023076D02*
G01X0036836Y-021894D01*
G01X0032236Y-023085D02*
G01X0036836Y-023085D01*
G01X0032236Y-021885D02*
G01X0032236Y-023085D01*
G54D15*
G01X0026118Y-016500D02*
G75*
G03X0026118Y-016500I-001118J0000000D01*
G01X0026118Y-045000D02*
G75*
G03X0026118Y-045000I-001118J0000000D01*
G01X0038618Y-016500D02*
G75*
G03X0038618Y-016500I-001118J0000000D01*
G54D12*
G01X0038925Y-031850D02*
G01X0038925Y-027250D01*
G01X0037734Y-031850D02*
G01X0038916Y-031850D01*
G01X0037725Y-027250D02*
G01X0037725Y-031850D01*
G01X0038925Y-027250D02*
G01X0037725Y-027250D01*
G01X0032196Y-021582D02*
G01X0036796Y-021582D01*
G01X0032196Y-020391D02*
G01X0032196Y-021573D01*
G01X0036796Y-020382D02*
G01X0032196Y-020382D01*
G01X0036796Y-021582D02*
G01X0036796Y-020382D01*
G01X0030900Y-026943D02*
G01X0030900Y-031543D01*
G01X0032091Y-026943D02*
G01X0030909Y-026943D01*
G01X0032100Y-031543D02*
G01X0032100Y-026943D01*
G01X0030900Y-031543D02*
G01X0032100Y-031543D01*
G01X0030775Y-042375D02*
G01X0030775Y-037775D01*
G01X0029584Y-042375D02*
G01X0030766Y-042375D01*
G01X0029575Y-037775D02*
G01X0029575Y-042375D01*
G01X0030775Y-037775D02*
G01X0029575Y-037775D01*
G01X0029400Y-026900D02*
G01X0029400Y-031500D01*
G01X0030591Y-026900D02*
G01X0029409Y-026900D01*
G01X0030600Y-031500D02*
G01X0030600Y-026900D01*
G01X0029400Y-031500D02*
G01X0030600Y-031500D01*
G54D15*
G01X0026100Y-037165D02*
G75*
G03X0026105Y-035830I0000675J0000665D01*
G01X0026105Y-035830D02*
G01X0026105Y-037160D01*
G54D12*
G01X0026900Y-018200D02*
G01X0031500Y-018200D01*
G01X0026900Y-017009D02*
G01X0026900Y-018191D01*
G01X0031500Y-017000D02*
G01X0026900Y-017000D01*
G01X0031500Y-018200D02*
G01X0031500Y-017000D01*
G54D14*
G01X0026560Y-044339D02*
G75*
G02X0026559Y-045560I0001102J-000611D01*
G01X0026559Y-044340D02*
G01X0026559Y-045560D01*
G01X0029359Y-031891D02*
G01X0029359Y-035041D01*
G01X0027391Y-031891D02*
G01X0029359Y-031891D01*
G01X0027391Y-035041D02*
G01X0027391Y-031891D01*
G01X0029359Y-035041D02*
G01X0027391Y-035041D01*
G54D12*
G01X0036788Y-025473D02*
G01X0032555Y-025473D01*
G01X0036788Y-030492D02*
G01X0036788Y-025473D01*
G01X0036689Y-030492D02*
G01X0036788Y-030492D01*
G01X0032555Y-030492D02*
G01X0036689Y-030492D01*
G01X0032555Y-025473D02*
G01X0032555Y-030492D01*
G54D13*
G01X0033285Y-026457D02*
G75*
G03X0033285Y-026457I-000139J0000000D01*
G54D15*
G01X0046760Y-029290D02*
G01X0044790Y-029290D01*
G54D13*
G01X0044088Y-028500D02*
G75*
G03X0044088Y-028500I-000088J0000000D01*
G54D12*
G01X0043291Y-033224D02*
G01X0044709Y-033224D01*
G01X0043291Y-027791D02*
G01X0043291Y-033224D01*
G01X0044709Y-027791D02*
G01X0043291Y-027791D01*
G54D15*
G01X0044780Y-031660D02*
G01X0046760Y-031660D01*
G01X0044710Y-033220D02*
G01X0044710Y-031660D01*
G01X0044710Y-031660D02*
G01X0044790Y-031660D01*
G01X0044710Y-027790D02*
G01X0044710Y-029290D01*
G01X0044710Y-029290D02*
G01X0044790Y-029290D01*
G01X0046760Y-031660D02*
G01X0046760Y-030490D01*
G01X0046760Y-030490D02*
G01X0046760Y-029290D01*
G54D12*
G01X0033702Y-035714D02*
G01X0033604Y-035714D01*
G01X0033702Y-040931D02*
G01X0033702Y-035714D01*
G01X0032324Y-040931D02*
G01X0033702Y-040931D01*
G01X0032324Y-040833D02*
G01X0032324Y-040931D01*
G01X0032324Y-035714D02*
G01X0032324Y-040833D01*
G01X0033604Y-035714D02*
G01X0032324Y-035714D01*
G01X0033702Y-036108D02*
G01X0032324Y-036108D01*
G01X0033688Y-041409D02*
G01X0033590Y-041409D01*
G01X0033688Y-046626D02*
G01X0033688Y-041409D01*
G01X0032310Y-046626D02*
G01X0033688Y-046626D01*
G01X0032310Y-046528D02*
G01X0032310Y-046626D01*
G01X0032310Y-041409D02*
G01X0032310Y-046528D01*
G01X0033590Y-041409D02*
G01X0032310Y-041409D01*
G01X0033688Y-041803D02*
G01X0032310Y-041803D01*
G54D14*
G01X0026834Y-034659D02*
G01X0023684Y-034659D01*
G01X0026834Y-032691D02*
G01X0026834Y-034659D01*
G01X0023684Y-032691D02*
G01X0026834Y-032691D01*
G01X0023684Y-034659D02*
G01X0023684Y-032691D01*
G01X0025664Y-026610D02*
G01X0025664Y-029760D01*
G01X0023696Y-026610D02*
G01X0025664Y-026610D01*
G01X0023696Y-029760D02*
G01X0023696Y-026610D01*
G01X0025664Y-029760D02*
G01X0023696Y-029760D01*
G01X0038216Y-025159D02*
G01X0038216Y-022009D01*
G01X0040184Y-025159D02*
G01X0038216Y-025159D01*
G01X0040184Y-022009D02*
G01X0040184Y-025159D01*
G01X0038216Y-022009D02*
G01X0040184Y-022009D01*
G01X0041209Y-028809D02*
G01X0041209Y-031959D01*
G01X0039241Y-028809D02*
G01X0041209Y-028809D01*
G01X0039241Y-031959D02*
G01X0039241Y-028809D01*
G01X0041209Y-031959D02*
G01X0039241Y-031959D01*
G01X0023633Y-024234D02*
G01X0026783Y-024234D01*
G01X0023633Y-026202D02*
G01X0023633Y-024234D01*
G01X0026783Y-026202D02*
G01X0023633Y-026202D01*
G01X0026783Y-024234D02*
G01X0026783Y-026202D01*
G01X0026759Y-019984D02*
G01X0023609Y-019984D01*
G01X0026759Y-018016D02*
G01X0026759Y-019984D01*
G01X0023609Y-018016D02*
G01X0026759Y-018016D01*
G01X0023609Y-019984D02*
G01X0023609Y-018016D01*
G01X0025684Y-035016D02*
G01X0025684Y-038166D01*
G01X0023716Y-035016D02*
G01X0025684Y-035016D01*
G01X0023716Y-038166D02*
G01X0023716Y-035016D01*
G01X0025684Y-038166D02*
G01X0023716Y-038166D01*
G54D15*
G01X0028105Y-042354D02*
G01X0029285Y-042354D01*
G01X0026245Y-042364D02*
G75*
G03X0028105Y-042354I0000930J0000010D01*
G01X0022885Y-042364D02*
G01X0026245Y-042364D01*
G54D14*
G01X0027963Y-042295D02*
G75*
G03X0027963Y-042295I-000769J0000000D01*
G01X0026800Y-040425D02*
G75*
G03X0026800Y-040425I-000769J0000000D01*
G01X0029144Y-040425D02*
G75*
G03X0029144Y-040425I-000750J0000000D01*
G01X0029280Y-038554D02*
G01X0022885Y-038554D01*
G01X0029285Y-042374D02*
G01X0029280Y-038554D01*
G01X0022885Y-038554D02*
G01X0022885Y-042364D01*
G54D15*
G01X0037879Y-043389D02*
G01X0037879Y-042209D01*
G01X0037889Y-045249D02*
G75*
G03X0037879Y-043389I-000010J0000930D01*
G01X0037889Y-048609D02*
G01X0037889Y-045249D01*
G54D14*
G01X0038589Y-044300D02*
G75*
G03X0038589Y-044300I-000769J0000000D01*
G01X0036719Y-045463D02*
G75*
G03X0036719Y-045463I-000769J0000000D01*
G01X0036700Y-043099D02*
G75*
G03X0036700Y-043099I-000750J0000000D01*
G01X0034079Y-042214D02*
G01X0034079Y-048609D01*
G01X0037899Y-042209D02*
G01X0034079Y-042214D01*
G01X0034079Y-048609D02*
G01X0037889Y-048609D01*
G54D15*
G01X0044587Y-021993D02*
G01X0040587Y-021993D01*
G01X0044587Y-026993D02*
G01X0044587Y-021993D01*
G01X0040587Y-026993D02*
G01X0044587Y-026993D01*
G01X0040587Y-026993D02*
G01X0040587Y-021993D01*
G54D12*
G01X0044953Y-040550D02*
G01X0044953Y-046850D01*
G01X0039047Y-040550D02*
G01X0044953Y-040550D01*
G01X0039047Y-046850D02*
G01X0039047Y-040550D01*
G01X0044953Y-046850D02*
G01X0039047Y-046850D01*
G01X0044943Y-015057D02*
G01X0044943Y-021357D01*
G01X0039037Y-015057D02*
G01X0044943Y-015057D01*
G01X0039037Y-021357D02*
G01X0039037Y-015057D01*
G01X0044943Y-021357D02*
G01X0039037Y-021357D01*
G01X0044953Y-033850D02*
G01X0044953Y-040150D01*
G01X0039047Y-033850D02*
G01X0044953Y-033850D01*
G01X0039047Y-040150D02*
G01X0039047Y-033850D01*
G01X0044953Y-040150D02*
G01X0039047Y-040150D01*
G54D14*
G01X0034500Y-032675D02*
G01X0035000Y-032075D01*
G01X0038200Y-032075D02*
G01X0038700Y-032675D01*
G01X0038700Y-039875D02*
G01X0034500Y-039875D01*
G01X0035200Y-040375D02*
G01X0034500Y-040375D01*
G01X0036009Y-040388D02*
G01X0036009Y-039895D01*
G01X0036206Y-040388D02*
G01X0036009Y-040388D01*
G01X0037289Y-040388D02*
G01X0037289Y-039895D01*
G01X0037289Y-040388D02*
G01X0036895Y-040388D01*
G01X0038700Y-040375D02*
G01X0037900Y-040375D01*
G01X0038200Y-032075D02*
G01X0035000Y-032075D01*
G01X0034500Y-041975D02*
G01X0034500Y-032675D01*
G01X0038700Y-041975D02*
G01X0034500Y-041975D01*
G01X0038700Y-032675D02*
G01X0038700Y-041975D01*
G01X0026179Y-023856D02*
G01X0024486Y-023856D01*
G01X0026179Y-022674D02*
G01X0026179Y-023856D01*
G01X0024486Y-022674D02*
G01X0026179Y-022674D01*
G01X0024486Y-023856D02*
G01X0024486Y-022674D01*
G01X0041214Y-033606D02*
G01X0039521Y-033606D01*
G01X0041214Y-032424D02*
G01X0041214Y-033606D01*
G01X0039521Y-032424D02*
G01X0041214Y-032424D01*
G01X0039521Y-033606D02*
G01X0039521Y-032424D01*
G54D11*
G01X0029221Y-023752D02*
G01X0029221Y-024076D01*
G01X0029221Y-024076D02*
G01X0029240Y-024114D01*
G01X0029240Y-024114D02*
G01X0029259Y-024133D01*
G01X0029259Y-024133D02*
G01X0029297Y-024152D01*
G01X0029297Y-024152D02*
G01X0029373Y-024152D01*
G01X0029373Y-024152D02*
G01X0029411Y-024133D01*
G01X0029411Y-024133D02*
G01X0029430Y-024114D01*
G01X0029430Y-024114D02*
G01X0029449Y-024076D01*
G01X0029449Y-024076D02*
G01X0029449Y-023752D01*
G01X0029602Y-023752D02*
G01X0029849Y-023752D01*
G01X0029849Y-023752D02*
G01X0029716Y-023905D01*
G01X0029716Y-023905D02*
G01X0029773Y-023905D01*
G01X0029773Y-023905D02*
G01X0029811Y-023924D01*
G01X0029811Y-023924D02*
G01X0029830Y-023943D01*
G01X0029830Y-023943D02*
G01X0029849Y-023981D01*
G01X0029849Y-023981D02*
G01X0029849Y-024076D01*
G01X0029849Y-024076D02*
G01X0029830Y-024114D01*
G01X0029830Y-024114D02*
G01X0029811Y-024133D01*
G01X0029811Y-024133D02*
G01X0029773Y-024152D01*
G01X0029773Y-024152D02*
G01X0029659Y-024152D01*
G01X0029659Y-024152D02*
G01X0029621Y-024133D01*
G01X0029621Y-024133D02*
G01X0029602Y-024114D01*
G01X0025367Y-031031D02*
G01X0025367Y-031317D01*
G01X0025367Y-031317D02*
G01X0025348Y-031374D01*
G01X0025348Y-031374D02*
G01X0025310Y-031412D01*
G01X0025310Y-031412D02*
G01X0025252Y-031431D01*
G01X0025252Y-031431D02*
G01X0025214Y-031431D01*
G01X0025748Y-031031D02*
G01X0025557Y-031031D01*
G01X0025557Y-031031D02*
G01X0025538Y-031221D01*
G01X0025538Y-031221D02*
G01X0025557Y-031202D01*
G01X0025557Y-031202D02*
G01X0025595Y-031183D01*
G01X0025595Y-031183D02*
G01X0025690Y-031183D01*
G01X0025690Y-031183D02*
G01X0025729Y-031202D01*
G01X0025729Y-031202D02*
G01X0025748Y-031221D01*
G01X0025748Y-031221D02*
G01X0025767Y-031260D01*
G01X0025767Y-031260D02*
G01X0025767Y-031355D01*
G01X0025767Y-031355D02*
G01X0025748Y-031393D01*
G01X0025748Y-031393D02*
G01X0025729Y-031412D01*
G01X0025729Y-031412D02*
G01X0025690Y-031431D01*
G01X0025690Y-031431D02*
G01X0025595Y-031431D01*
G01X0025595Y-031431D02*
G01X0025557Y-031412D01*
G01X0025557Y-031412D02*
G01X0025538Y-031393D01*
G54D16*
G01X0031728Y-040625D02*
G01X0031541Y-040757D01*
G01X0031728Y-040850D02*
G01X0031334Y-040850D01*
G01X0031334Y-040850D02*
G01X0031334Y-040700D01*
G01X0031334Y-040700D02*
G01X0031353Y-040663D01*
G01X0031353Y-040663D02*
G01X0031372Y-040644D01*
G01X0031372Y-040644D02*
G01X0031409Y-040625D01*
G01X0031409Y-040625D02*
G01X0031466Y-040625D01*
G01X0031466Y-040625D02*
G01X0031503Y-040644D01*
G01X0031503Y-040644D02*
G01X0031522Y-040663D01*
G01X0031522Y-040663D02*
G01X0031541Y-040700D01*
G01X0031541Y-040700D02*
G01X0031541Y-040850D01*
G01X0031728Y-040250D02*
G01X0031728Y-040475D01*
G01X0031728Y-040363D02*
G01X0031334Y-040363D01*
G01X0031334Y-040363D02*
G01X0031391Y-040400D01*
G01X0031391Y-040400D02*
G01X0031428Y-040438D01*
G01X0031428Y-040438D02*
G01X0031447Y-040475D01*
G01X0031334Y-040119D02*
G01X0031334Y-039875D01*
G01X0031334Y-039875D02*
G01X0031484Y-040007D01*
G01X0031484Y-040007D02*
G01X0031484Y-039950D01*
G01X0031484Y-039950D02*
G01X0031503Y-039913D01*
G01X0031503Y-039913D02*
G01X0031522Y-039894D01*
G01X0031522Y-039894D02*
G01X0031559Y-039875D01*
G01X0031559Y-039875D02*
G01X0031653Y-039875D01*
G01X0031653Y-039875D02*
G01X0031691Y-039894D01*
G01X0031691Y-039894D02*
G01X0031709Y-039913D01*
G01X0031709Y-039913D02*
G01X0031728Y-039950D01*
G01X0031728Y-039950D02*
G01X0031728Y-040063D01*
G01X0031728Y-040063D02*
G01X0031709Y-040100D01*
G01X0031709Y-040100D02*
G01X0031691Y-040119D01*
G01X0029259Y-019303D02*
G01X0029128Y-019116D01*
G01X0029034Y-019303D02*
G01X0029034Y-018909D01*
G01X0029034Y-018909D02*
G01X0029184Y-018909D01*
G01X0029184Y-018909D02*
G01X0029222Y-018928D01*
G01X0029222Y-018928D02*
G01X0029241Y-018947D01*
G01X0029241Y-018947D02*
G01X0029259Y-018984D01*
G01X0029259Y-018984D02*
G01X0029259Y-019041D01*
G01X0029259Y-019041D02*
G01X0029241Y-019078D01*
G01X0029241Y-019078D02*
G01X0029222Y-019097D01*
G01X0029222Y-019097D02*
G01X0029184Y-019116D01*
G01X0029184Y-019116D02*
G01X0029034Y-019116D01*
G01X0029409Y-018947D02*
G01X0029428Y-018928D01*
G01X0029428Y-018928D02*
G01X0029466Y-018909D01*
G01X0029466Y-018909D02*
G01X0029559Y-018909D01*
G01X0029559Y-018909D02*
G01X0029597Y-018928D01*
G01X0029597Y-018928D02*
G01X0029616Y-018947D01*
G01X0029616Y-018947D02*
G01X0029634Y-018984D01*
G01X0029634Y-018984D02*
G01X0029634Y-019022D01*
G01X0029634Y-019022D02*
G01X0029616Y-019078D01*
G01X0029616Y-019078D02*
G01X0029391Y-019303D01*
G01X0029391Y-019303D02*
G01X0029634Y-019303D01*
G01X0026677Y-027391D02*
G01X0026658Y-027409D01*
G01X0026658Y-027409D02*
G01X0026602Y-027428D01*
G01X0026602Y-027428D02*
G01X0026564Y-027428D01*
G01X0026564Y-027428D02*
G01X0026508Y-027409D01*
G01X0026508Y-027409D02*
G01X0026470Y-027372D01*
G01X0026470Y-027372D02*
G01X0026452Y-027334D01*
G01X0026452Y-027334D02*
G01X0026433Y-027259D01*
G01X0026433Y-027259D02*
G01X0026433Y-027203D01*
G01X0026433Y-027203D02*
G01X0026452Y-027128D01*
G01X0026452Y-027128D02*
G01X0026470Y-027091D01*
G01X0026470Y-027091D02*
G01X0026508Y-027053D01*
G01X0026508Y-027053D02*
G01X0026564Y-027034D01*
G01X0026564Y-027034D02*
G01X0026602Y-027034D01*
G01X0026602Y-027034D02*
G01X0026658Y-027053D01*
G01X0026658Y-027053D02*
G01X0026677Y-027072D01*
G01X0027014Y-027166D02*
G01X0027014Y-027428D01*
G01X0026920Y-027016D02*
G01X0026826Y-027297D01*
G01X0026826Y-027297D02*
G01X0027070Y-027297D01*
G01X0036177Y-031391D02*
G01X0036158Y-031409D01*
G01X0036158Y-031409D02*
G01X0036102Y-031428D01*
G01X0036102Y-031428D02*
G01X0036064Y-031428D01*
G01X0036064Y-031428D02*
G01X0036008Y-031409D01*
G01X0036008Y-031409D02*
G01X0035970Y-031372D01*
G01X0035970Y-031372D02*
G01X0035952Y-031334D01*
G01X0035952Y-031334D02*
G01X0035933Y-031259D01*
G01X0035933Y-031259D02*
G01X0035933Y-031203D01*
G01X0035933Y-031203D02*
G01X0035952Y-031128D01*
G01X0035952Y-031128D02*
G01X0035970Y-031091D01*
G01X0035970Y-031091D02*
G01X0036008Y-031053D01*
G01X0036008Y-031053D02*
G01X0036064Y-031034D01*
G01X0036064Y-031034D02*
G01X0036102Y-031034D01*
G01X0036102Y-031034D02*
G01X0036158Y-031053D01*
G01X0036158Y-031053D02*
G01X0036177Y-031072D01*
G01X0036533Y-031034D02*
G01X0036345Y-031034D01*
G01X0036345Y-031034D02*
G01X0036326Y-031222D01*
G01X0036326Y-031222D02*
G01X0036345Y-031203D01*
G01X0036345Y-031203D02*
G01X0036383Y-031184D01*
G01X0036383Y-031184D02*
G01X0036476Y-031184D01*
G01X0036476Y-031184D02*
G01X0036514Y-031203D01*
G01X0036514Y-031203D02*
G01X0036533Y-031222D01*
G01X0036533Y-031222D02*
G01X0036551Y-031259D01*
G01X0036551Y-031259D02*
G01X0036551Y-031353D01*
G01X0036551Y-031353D02*
G01X0036533Y-031391D01*
G01X0036533Y-031391D02*
G01X0036514Y-031409D01*
G01X0036514Y-031409D02*
G01X0036476Y-031428D01*
G01X0036476Y-031428D02*
G01X0036383Y-031428D01*
G01X0036383Y-031428D02*
G01X0036345Y-031409D01*
G01X0036345Y-031409D02*
G01X0036326Y-031391D01*
G01X0040052Y-028166D02*
G01X0040033Y-028184D01*
G01X0040033Y-028184D02*
G01X0039977Y-028203D01*
G01X0039977Y-028203D02*
G01X0039939Y-028203D01*
G01X0039939Y-028203D02*
G01X0039883Y-028184D01*
G01X0039883Y-028184D02*
G01X0039845Y-028147D01*
G01X0039845Y-028147D02*
G01X0039827Y-028109D01*
G01X0039827Y-028109D02*
G01X0039808Y-028034D01*
G01X0039808Y-028034D02*
G01X0039808Y-027978D01*
G01X0039808Y-027978D02*
G01X0039827Y-027903D01*
G01X0039827Y-027903D02*
G01X0039845Y-027866D01*
G01X0039845Y-027866D02*
G01X0039883Y-027828D01*
G01X0039883Y-027828D02*
G01X0039939Y-027809D01*
G01X0039939Y-027809D02*
G01X0039977Y-027809D01*
G01X0039977Y-027809D02*
G01X0040033Y-027828D01*
G01X0040033Y-027828D02*
G01X0040052Y-027847D01*
G01X0040389Y-027809D02*
G01X0040314Y-027809D01*
G01X0040314Y-027809D02*
G01X0040276Y-027828D01*
G01X0040276Y-027828D02*
G01X0040258Y-027847D01*
G01X0040258Y-027847D02*
G01X0040220Y-027903D01*
G01X0040220Y-027903D02*
G01X0040201Y-027978D01*
G01X0040201Y-027978D02*
G01X0040201Y-028128D01*
G01X0040201Y-028128D02*
G01X0040220Y-028166D01*
G01X0040220Y-028166D02*
G01X0040239Y-028184D01*
G01X0040239Y-028184D02*
G01X0040276Y-028203D01*
G01X0040276Y-028203D02*
G01X0040351Y-028203D01*
G01X0040351Y-028203D02*
G01X0040389Y-028184D01*
G01X0040389Y-028184D02*
G01X0040408Y-028166D01*
G01X0040408Y-028166D02*
G01X0040426Y-028128D01*
G01X0040426Y-028128D02*
G01X0040426Y-028034D01*
G01X0040426Y-028034D02*
G01X0040408Y-027997D01*
G01X0040408Y-027997D02*
G01X0040389Y-027978D01*
G01X0040389Y-027978D02*
G01X0040351Y-027959D01*
G01X0040351Y-027959D02*
G01X0040276Y-027959D01*
G01X0040276Y-027959D02*
G01X0040239Y-027978D01*
G01X0040239Y-027978D02*
G01X0040220Y-027997D01*
G01X0040220Y-027997D02*
G01X0040201Y-028034D01*
G01X0038839Y-026341D02*
G01X0038820Y-026359D01*
G01X0038820Y-026359D02*
G01X0038764Y-026378D01*
G01X0038764Y-026378D02*
G01X0038727Y-026378D01*
G01X0038727Y-026378D02*
G01X0038670Y-026359D01*
G01X0038670Y-026359D02*
G01X0038633Y-026322D01*
G01X0038633Y-026322D02*
G01X0038614Y-026284D01*
G01X0038614Y-026284D02*
G01X0038595Y-026209D01*
G01X0038595Y-026209D02*
G01X0038595Y-026153D01*
G01X0038595Y-026153D02*
G01X0038614Y-026078D01*
G01X0038614Y-026078D02*
G01X0038633Y-026041D01*
G01X0038633Y-026041D02*
G01X0038670Y-026003D01*
G01X0038670Y-026003D02*
G01X0038727Y-025984D01*
G01X0038727Y-025984D02*
G01X0038764Y-025984D01*
G01X0038764Y-025984D02*
G01X0038820Y-026003D01*
G01X0038820Y-026003D02*
G01X0038839Y-026022D01*
G01X0039214Y-026378D02*
G01X0038989Y-026378D01*
G01X0039101Y-026378D02*
G01X0039101Y-025984D01*
G01X0039101Y-025984D02*
G01X0039064Y-026041D01*
G01X0039064Y-026041D02*
G01X0039027Y-026078D01*
G01X0039027Y-026078D02*
G01X0038989Y-026097D01*
G01X0039458Y-025984D02*
G01X0039495Y-025984D01*
G01X0039495Y-025984D02*
G01X0039533Y-026003D01*
G01X0039533Y-026003D02*
G01X0039551Y-026022D01*
G01X0039551Y-026022D02*
G01X0039570Y-026059D01*
G01X0039570Y-026059D02*
G01X0039589Y-026134D01*
G01X0039589Y-026134D02*
G01X0039589Y-026228D01*
G01X0039589Y-026228D02*
G01X0039570Y-026303D01*
G01X0039570Y-026303D02*
G01X0039551Y-026341D01*
G01X0039551Y-026341D02*
G01X0039533Y-026359D01*
G01X0039533Y-026359D02*
G01X0039495Y-026378D01*
G01X0039495Y-026378D02*
G01X0039458Y-026378D01*
G01X0039458Y-026378D02*
G01X0039420Y-026359D01*
G01X0039420Y-026359D02*
G01X0039401Y-026341D01*
G01X0039401Y-026341D02*
G01X0039383Y-026303D01*
G01X0039383Y-026303D02*
G01X0039364Y-026228D01*
G01X0039364Y-026228D02*
G01X0039364Y-026134D01*
G01X0039364Y-026134D02*
G01X0039383Y-026059D01*
G01X0039383Y-026059D02*
G01X0039401Y-026022D01*
G01X0039401Y-026022D02*
G01X0039420Y-026003D01*
G01X0039420Y-026003D02*
G01X0039458Y-025984D01*
G01X0032739Y-034891D02*
G01X0032720Y-034909D01*
G01X0032720Y-034909D02*
G01X0032664Y-034928D01*
G01X0032664Y-034928D02*
G01X0032627Y-034928D01*
G01X0032627Y-034928D02*
G01X0032570Y-034909D01*
G01X0032570Y-034909D02*
G01X0032533Y-034872D01*
G01X0032533Y-034872D02*
G01X0032514Y-034834D01*
G01X0032514Y-034834D02*
G01X0032495Y-034759D01*
G01X0032495Y-034759D02*
G01X0032495Y-034703D01*
G01X0032495Y-034703D02*
G01X0032514Y-034628D01*
G01X0032514Y-034628D02*
G01X0032533Y-034591D01*
G01X0032533Y-034591D02*
G01X0032570Y-034553D01*
G01X0032570Y-034553D02*
G01X0032627Y-034534D01*
G01X0032627Y-034534D02*
G01X0032664Y-034534D01*
G01X0032664Y-034534D02*
G01X0032720Y-034553D01*
G01X0032720Y-034553D02*
G01X0032739Y-034572D01*
G01X0033114Y-034928D02*
G01X0032889Y-034928D01*
G01X0033001Y-034928D02*
G01X0033001Y-034534D01*
G01X0033001Y-034534D02*
G01X0032964Y-034591D01*
G01X0032964Y-034591D02*
G01X0032927Y-034628D01*
G01X0032927Y-034628D02*
G01X0032889Y-034647D01*
G01X0033264Y-034572D02*
G01X0033283Y-034553D01*
G01X0033283Y-034553D02*
G01X0033320Y-034534D01*
G01X0033320Y-034534D02*
G01X0033414Y-034534D01*
G01X0033414Y-034534D02*
G01X0033451Y-034553D01*
G01X0033451Y-034553D02*
G01X0033470Y-034572D01*
G01X0033470Y-034572D02*
G01X0033489Y-034609D01*
G01X0033489Y-034609D02*
G01X0033489Y-034647D01*
G01X0033489Y-034647D02*
G01X0033470Y-034703D01*
G01X0033470Y-034703D02*
G01X0033245Y-034928D01*
G01X0033245Y-034928D02*
G01X0033489Y-034928D01*
G54D11*
G01X0030520Y-044581D02*
G01X0030520Y-044867D01*
G01X0030520Y-044867D02*
G01X0030501Y-044924D01*
G01X0030501Y-044924D02*
G01X0030463Y-044962D01*
G01X0030463Y-044962D02*
G01X0030405Y-044981D01*
G01X0030405Y-044981D02*
G01X0030367Y-044981D01*
G01X0030691Y-044619D02*
G01X0030710Y-044600D01*
G01X0030710Y-044600D02*
G01X0030748Y-044581D01*
G01X0030748Y-044581D02*
G01X0030843Y-044581D01*
G01X0030843Y-044581D02*
G01X0030882Y-044600D01*
G01X0030882Y-044600D02*
G01X0030901Y-044619D01*
G01X0030901Y-044619D02*
G01X0030920Y-044657D01*
G01X0030920Y-044657D02*
G01X0030920Y-044695D01*
G01X0030920Y-044695D02*
G01X0030901Y-044752D01*
G01X0030901Y-044752D02*
G01X0030672Y-044981D01*
G01X0030672Y-044981D02*
G01X0030920Y-044981D01*
G01X0038133Y-019947D02*
G01X0038133Y-020137D01*
G01X0038133Y-020137D02*
G01X0037733Y-020137D01*
G01X0038019Y-019833D02*
G01X0038019Y-019642D01*
G01X0038133Y-019871D02*
G01X0037733Y-019737D01*
G01X0037733Y-019737D02*
G01X0038133Y-019604D01*
G01X0038133Y-019471D02*
G01X0037733Y-019471D01*
G01X0037733Y-019471D02*
G01X0038019Y-019337D01*
G01X0038019Y-019337D02*
G01X0037733Y-019204D01*
G01X0037733Y-019204D02*
G01X0038133Y-019204D01*
G01X0038133Y-019013D02*
G01X0037733Y-019013D01*
G01X0037733Y-019013D02*
G01X0037733Y-018861D01*
G01X0037733Y-018861D02*
G01X0037752Y-018823D01*
G01X0037752Y-018823D02*
G01X0037771Y-018804D01*
G01X0037771Y-018804D02*
G01X0037809Y-018785D01*
G01X0037809Y-018785D02*
G01X0037866Y-018785D01*
G01X0037866Y-018785D02*
G01X0037904Y-018804D01*
G01X0037904Y-018804D02*
G01X0037923Y-018823D01*
G01X0037923Y-018823D02*
G01X0037942Y-018861D01*
G01X0037942Y-018861D02*
G01X0037942Y-019013D01*
G01X0038133Y-018404D02*
G01X0038133Y-018633D01*
G01X0038133Y-018518D02*
G01X0037733Y-018518D01*
G01X0037733Y-018518D02*
G01X0037790Y-018556D01*
G01X0037790Y-018556D02*
G01X0037828Y-018594D01*
G01X0037828Y-018594D02*
G01X0037847Y-018633D01*
G54D16*
G01X0032713Y-032938D02*
G01X0032675Y-032919D01*
G01X0032675Y-032919D02*
G01X0032638Y-032882D01*
G01X0032638Y-032882D02*
G01X0032581Y-032826D01*
G01X0032581Y-032826D02*
G01X0032544Y-032807D01*
G01X0032544Y-032807D02*
G01X0032506Y-032807D01*
G01X0032525Y-032901D02*
G01X0032488Y-032882D01*
G01X0032488Y-032882D02*
G01X0032450Y-032844D01*
G01X0032450Y-032844D02*
G01X0032431Y-032769D01*
G01X0032431Y-032769D02*
G01X0032431Y-032638D01*
G01X0032431Y-032638D02*
G01X0032450Y-032563D01*
G01X0032450Y-032563D02*
G01X0032488Y-032526D01*
G01X0032488Y-032526D02*
G01X0032525Y-032507D01*
G01X0032525Y-032507D02*
G01X0032600Y-032507D01*
G01X0032600Y-032507D02*
G01X0032638Y-032526D01*
G01X0032638Y-032526D02*
G01X0032675Y-032563D01*
G01X0032675Y-032563D02*
G01X0032694Y-032638D01*
G01X0032694Y-032638D02*
G01X0032694Y-032769D01*
G01X0032694Y-032769D02*
G01X0032675Y-032844D01*
G01X0032675Y-032844D02*
G01X0032638Y-032882D01*
G01X0032638Y-032882D02*
G01X0032600Y-032901D01*
G01X0032600Y-032901D02*
G01X0032525Y-032901D01*
G01X0033069Y-032901D02*
G01X0032844Y-032901D01*
G01X0032956Y-032901D02*
G01X0032956Y-032507D01*
G01X0032956Y-032507D02*
G01X0032919Y-032563D01*
G01X0032919Y-032563D02*
G01X0032881Y-032601D01*
G01X0032881Y-032601D02*
G01X0032844Y-032619D01*
G01X0025090Y-021416D02*
G01X0025053Y-021397D01*
G01X0025053Y-021397D02*
G01X0025015Y-021359D01*
G01X0025015Y-021359D02*
G01X0024959Y-021303D01*
G01X0024959Y-021303D02*
G01X0024921Y-021284D01*
G01X0024921Y-021284D02*
G01X0024884Y-021284D01*
G01X0024903Y-021378D02*
G01X0024865Y-021359D01*
G01X0024865Y-021359D02*
G01X0024828Y-021322D01*
G01X0024828Y-021322D02*
G01X0024809Y-021247D01*
G01X0024809Y-021247D02*
G01X0024809Y-021116D01*
G01X0024809Y-021116D02*
G01X0024828Y-021041D01*
G01X0024828Y-021041D02*
G01X0024865Y-021003D01*
G01X0024865Y-021003D02*
G01X0024903Y-020984D01*
G01X0024903Y-020984D02*
G01X0024978Y-020984D01*
G01X0024978Y-020984D02*
G01X0025015Y-021003D01*
G01X0025015Y-021003D02*
G01X0025053Y-021041D01*
G01X0025053Y-021041D02*
G01X0025071Y-021116D01*
G01X0025071Y-021116D02*
G01X0025071Y-021247D01*
G01X0025071Y-021247D02*
G01X0025053Y-021322D01*
G01X0025053Y-021322D02*
G01X0025015Y-021359D01*
G01X0025015Y-021359D02*
G01X0024978Y-021378D01*
G01X0024978Y-021378D02*
G01X0024903Y-021378D01*
G01X0025221Y-021022D02*
G01X0025240Y-021003D01*
G01X0025240Y-021003D02*
G01X0025278Y-020984D01*
G01X0025278Y-020984D02*
G01X0025371Y-020984D01*
G01X0025371Y-020984D02*
G01X0025409Y-021003D01*
G01X0025409Y-021003D02*
G01X0025428Y-021022D01*
G01X0025428Y-021022D02*
G01X0025446Y-021059D01*
G01X0025446Y-021059D02*
G01X0025446Y-021097D01*
G01X0025446Y-021097D02*
G01X0025428Y-021153D01*
G01X0025428Y-021153D02*
G01X0025203Y-021378D01*
G01X0025203Y-021378D02*
G01X0025446Y-021378D01*
G01X0029259Y-020878D02*
G01X0029128Y-020691D01*
G01X0029034Y-020878D02*
G01X0029034Y-020484D01*
G01X0029034Y-020484D02*
G01X0029184Y-020484D01*
G01X0029184Y-020484D02*
G01X0029222Y-020503D01*
G01X0029222Y-020503D02*
G01X0029241Y-020522D01*
G01X0029241Y-020522D02*
G01X0029259Y-020559D01*
G01X0029259Y-020559D02*
G01X0029259Y-020616D01*
G01X0029259Y-020616D02*
G01X0029241Y-020653D01*
G01X0029241Y-020653D02*
G01X0029222Y-020672D01*
G01X0029222Y-020672D02*
G01X0029184Y-020691D01*
G01X0029184Y-020691D02*
G01X0029034Y-020691D01*
G01X0029634Y-020878D02*
G01X0029409Y-020878D01*
G01X0029522Y-020878D02*
G01X0029522Y-020484D01*
G01X0029522Y-020484D02*
G01X0029484Y-020541D01*
G01X0029484Y-020541D02*
G01X0029447Y-020578D01*
G01X0029447Y-020578D02*
G01X0029409Y-020597D01*
G01X0034460Y-024332D02*
G01X0034329Y-024145D01*
G01X0034235Y-024332D02*
G01X0034235Y-023938D01*
G01X0034235Y-023938D02*
G01X0034385Y-023938D01*
G01X0034385Y-023938D02*
G01X0034423Y-023957D01*
G01X0034423Y-023957D02*
G01X0034441Y-023976D01*
G01X0034441Y-023976D02*
G01X0034460Y-024013D01*
G01X0034460Y-024013D02*
G01X0034460Y-024070D01*
G01X0034460Y-024070D02*
G01X0034441Y-024107D01*
G01X0034441Y-024107D02*
G01X0034423Y-024126D01*
G01X0034423Y-024126D02*
G01X0034385Y-024145D01*
G01X0034385Y-024145D02*
G01X0034235Y-024145D01*
G01X0034591Y-023938D02*
G01X0034835Y-023938D01*
G01X0034835Y-023938D02*
G01X0034704Y-024088D01*
G01X0034704Y-024088D02*
G01X0034760Y-024088D01*
G01X0034760Y-024088D02*
G01X0034798Y-024107D01*
G01X0034798Y-024107D02*
G01X0034816Y-024126D01*
G01X0034816Y-024126D02*
G01X0034835Y-024163D01*
G01X0034835Y-024163D02*
G01X0034835Y-024257D01*
G01X0034835Y-024257D02*
G01X0034816Y-024295D01*
G01X0034816Y-024295D02*
G01X0034798Y-024313D01*
G01X0034798Y-024313D02*
G01X0034760Y-024332D01*
G01X0034760Y-024332D02*
G01X0034648Y-024332D01*
G01X0034648Y-024332D02*
G01X0034610Y-024313D01*
G01X0034610Y-024313D02*
G01X0034591Y-024295D01*
G01X0028434Y-029174D02*
G01X0028303Y-028987D01*
G01X0028209Y-029174D02*
G01X0028209Y-028780D01*
G01X0028209Y-028780D02*
G01X0028359Y-028780D01*
G01X0028359Y-028780D02*
G01X0028397Y-028799D01*
G01X0028397Y-028799D02*
G01X0028416Y-028818D01*
G01X0028416Y-028818D02*
G01X0028434Y-028855D01*
G01X0028434Y-028855D02*
G01X0028434Y-028912D01*
G01X0028434Y-028912D02*
G01X0028416Y-028949D01*
G01X0028416Y-028949D02*
G01X0028397Y-028968D01*
G01X0028397Y-028968D02*
G01X0028359Y-028987D01*
G01X0028359Y-028987D02*
G01X0028209Y-028987D01*
G01X0028772Y-028912D02*
G01X0028772Y-029174D01*
G01X0028678Y-028762D02*
G01X0028584Y-029043D01*
G01X0028584Y-029043D02*
G01X0028828Y-029043D01*
G01X0029159Y-016353D02*
G01X0029028Y-016166D01*
G01X0028934Y-016353D02*
G01X0028934Y-015959D01*
G01X0028934Y-015959D02*
G01X0029084Y-015959D01*
G01X0029084Y-015959D02*
G01X0029122Y-015978D01*
G01X0029122Y-015978D02*
G01X0029141Y-015997D01*
G01X0029141Y-015997D02*
G01X0029159Y-016034D01*
G01X0029159Y-016034D02*
G01X0029159Y-016091D01*
G01X0029159Y-016091D02*
G01X0029141Y-016128D01*
G01X0029141Y-016128D02*
G01X0029122Y-016147D01*
G01X0029122Y-016147D02*
G01X0029084Y-016166D01*
G01X0029084Y-016166D02*
G01X0028934Y-016166D01*
G01X0029516Y-015959D02*
G01X0029328Y-015959D01*
G01X0029328Y-015959D02*
G01X0029309Y-016147D01*
G01X0029309Y-016147D02*
G01X0029328Y-016128D01*
G01X0029328Y-016128D02*
G01X0029366Y-016109D01*
G01X0029366Y-016109D02*
G01X0029459Y-016109D01*
G01X0029459Y-016109D02*
G01X0029497Y-016128D01*
G01X0029497Y-016128D02*
G01X0029516Y-016147D01*
G01X0029516Y-016147D02*
G01X0029534Y-016184D01*
G01X0029534Y-016184D02*
G01X0029534Y-016278D01*
G01X0029534Y-016278D02*
G01X0029516Y-016316D01*
G01X0029516Y-016316D02*
G01X0029497Y-016334D01*
G01X0029497Y-016334D02*
G01X0029459Y-016353D01*
G01X0029459Y-016353D02*
G01X0029366Y-016353D01*
G01X0029366Y-016353D02*
G01X0029328Y-016334D01*
G01X0029328Y-016334D02*
G01X0029309Y-016316D01*
G01X0034460Y-019717D02*
G01X0034329Y-019530D01*
G01X0034235Y-019717D02*
G01X0034235Y-019323D01*
G01X0034235Y-019323D02*
G01X0034385Y-019323D01*
G01X0034385Y-019323D02*
G01X0034423Y-019342D01*
G01X0034423Y-019342D02*
G01X0034441Y-019361D01*
G01X0034441Y-019361D02*
G01X0034460Y-019398D01*
G01X0034460Y-019398D02*
G01X0034460Y-019455D01*
G01X0034460Y-019455D02*
G01X0034441Y-019492D01*
G01X0034441Y-019492D02*
G01X0034423Y-019511D01*
G01X0034423Y-019511D02*
G01X0034385Y-019530D01*
G01X0034385Y-019530D02*
G01X0034235Y-019530D01*
G01X0034798Y-019323D02*
G01X0034723Y-019323D01*
G01X0034723Y-019323D02*
G01X0034685Y-019342D01*
G01X0034685Y-019342D02*
G01X0034666Y-019361D01*
G01X0034666Y-019361D02*
G01X0034629Y-019417D01*
G01X0034629Y-019417D02*
G01X0034610Y-019492D01*
G01X0034610Y-019492D02*
G01X0034610Y-019642D01*
G01X0034610Y-019642D02*
G01X0034629Y-019680D01*
G01X0034629Y-019680D02*
G01X0034648Y-019698D01*
G01X0034648Y-019698D02*
G01X0034685Y-019717D01*
G01X0034685Y-019717D02*
G01X0034760Y-019717D01*
G01X0034760Y-019717D02*
G01X0034798Y-019698D01*
G01X0034798Y-019698D02*
G01X0034816Y-019680D01*
G01X0034816Y-019680D02*
G01X0034835Y-019642D01*
G01X0034835Y-019642D02*
G01X0034835Y-019548D01*
G01X0034835Y-019548D02*
G01X0034816Y-019511D01*
G01X0034816Y-019511D02*
G01X0034798Y-019492D01*
G01X0034798Y-019492D02*
G01X0034760Y-019473D01*
G01X0034760Y-019473D02*
G01X0034685Y-019473D01*
G01X0034685Y-019473D02*
G01X0034648Y-019492D01*
G01X0034648Y-019492D02*
G01X0034629Y-019511D01*
G01X0034629Y-019511D02*
G01X0034610Y-019548D01*
G01X0034460Y-022638D02*
G01X0034329Y-022451D01*
G01X0034235Y-022638D02*
G01X0034235Y-022244D01*
G01X0034235Y-022244D02*
G01X0034385Y-022244D01*
G01X0034385Y-022244D02*
G01X0034423Y-022263D01*
G01X0034423Y-022263D02*
G01X0034441Y-022282D01*
G01X0034441Y-022282D02*
G01X0034460Y-022319D01*
G01X0034460Y-022319D02*
G01X0034460Y-022376D01*
G01X0034460Y-022376D02*
G01X0034441Y-022413D01*
G01X0034441Y-022413D02*
G01X0034423Y-022432D01*
G01X0034423Y-022432D02*
G01X0034385Y-022451D01*
G01X0034385Y-022451D02*
G01X0034235Y-022451D01*
G01X0034591Y-022244D02*
G01X0034854Y-022244D01*
G01X0034854Y-022244D02*
G01X0034685Y-022638D01*
G01X0024700Y-016678D02*
G01X0024700Y-016284D01*
G01X0024700Y-016472D02*
G01X0024925Y-016472D01*
G01X0024925Y-016678D02*
G01X0024925Y-016284D01*
G01X0025094Y-016322D02*
G01X0025112Y-016303D01*
G01X0025112Y-016303D02*
G01X0025150Y-016284D01*
G01X0025150Y-016284D02*
G01X0025244Y-016284D01*
G01X0025244Y-016284D02*
G01X0025281Y-016303D01*
G01X0025281Y-016303D02*
G01X0025300Y-016322D01*
G01X0025300Y-016322D02*
G01X0025319Y-016359D01*
G01X0025319Y-016359D02*
G01X0025319Y-016397D01*
G01X0025319Y-016397D02*
G01X0025300Y-016453D01*
G01X0025300Y-016453D02*
G01X0025075Y-016678D01*
G01X0025075Y-016678D02*
G01X0025319Y-016678D01*
G01X0024700Y-045178D02*
G01X0024700Y-044784D01*
G01X0024700Y-044972D02*
G01X0024925Y-044972D01*
G01X0024925Y-045178D02*
G01X0024925Y-044784D01*
G01X0025075Y-044784D02*
G01X0025319Y-044784D01*
G01X0025319Y-044784D02*
G01X0025187Y-044934D01*
G01X0025187Y-044934D02*
G01X0025244Y-044934D01*
G01X0025244Y-044934D02*
G01X0025281Y-044953D01*
G01X0025281Y-044953D02*
G01X0025300Y-044972D01*
G01X0025300Y-044972D02*
G01X0025319Y-045009D01*
G01X0025319Y-045009D02*
G01X0025319Y-045103D01*
G01X0025319Y-045103D02*
G01X0025300Y-045141D01*
G01X0025300Y-045141D02*
G01X0025281Y-045159D01*
G01X0025281Y-045159D02*
G01X0025244Y-045178D01*
G01X0025244Y-045178D02*
G01X0025131Y-045178D01*
G01X0025131Y-045178D02*
G01X0025094Y-045159D01*
G01X0025094Y-045159D02*
G01X0025075Y-045141D01*
G01X0037200Y-016678D02*
G01X0037200Y-016284D01*
G01X0037200Y-016472D02*
G01X0037425Y-016472D01*
G01X0037425Y-016678D02*
G01X0037425Y-016284D01*
G01X0037819Y-016678D02*
G01X0037594Y-016678D01*
G01X0037706Y-016678D02*
G01X0037706Y-016284D01*
G01X0037706Y-016284D02*
G01X0037669Y-016341D01*
G01X0037669Y-016341D02*
G01X0037631Y-016378D01*
G01X0037631Y-016378D02*
G01X0037594Y-016397D01*
G01X0038503Y-029312D02*
G01X0038316Y-029443D01*
G01X0038503Y-029537D02*
G01X0038109Y-029537D01*
G01X0038109Y-029537D02*
G01X0038109Y-029387D01*
G01X0038109Y-029387D02*
G01X0038128Y-029349D01*
G01X0038128Y-029349D02*
G01X0038147Y-029330D01*
G01X0038147Y-029330D02*
G01X0038184Y-029312D01*
G01X0038184Y-029312D02*
G01X0038241Y-029312D01*
G01X0038241Y-029312D02*
G01X0038278Y-029330D01*
G01X0038278Y-029330D02*
G01X0038297Y-029349D01*
G01X0038297Y-029349D02*
G01X0038316Y-029387D01*
G01X0038316Y-029387D02*
G01X0038316Y-029537D01*
G01X0038278Y-029087D02*
G01X0038259Y-029124D01*
G01X0038259Y-029124D02*
G01X0038241Y-029143D01*
G01X0038241Y-029143D02*
G01X0038203Y-029162D01*
G01X0038203Y-029162D02*
G01X0038184Y-029162D01*
G01X0038184Y-029162D02*
G01X0038147Y-029143D01*
G01X0038147Y-029143D02*
G01X0038128Y-029124D01*
G01X0038128Y-029124D02*
G01X0038109Y-029087D01*
G01X0038109Y-029087D02*
G01X0038109Y-029012D01*
G01X0038109Y-029012D02*
G01X0038128Y-028974D01*
G01X0038128Y-028974D02*
G01X0038147Y-028955D01*
G01X0038147Y-028955D02*
G01X0038184Y-028937D01*
G01X0038184Y-028937D02*
G01X0038203Y-028937D01*
G01X0038203Y-028937D02*
G01X0038241Y-028955D01*
G01X0038241Y-028955D02*
G01X0038259Y-028974D01*
G01X0038259Y-028974D02*
G01X0038278Y-029012D01*
G01X0038278Y-029012D02*
G01X0038278Y-029087D01*
G01X0038278Y-029087D02*
G01X0038297Y-029124D01*
G01X0038297Y-029124D02*
G01X0038316Y-029143D01*
G01X0038316Y-029143D02*
G01X0038353Y-029162D01*
G01X0038353Y-029162D02*
G01X0038428Y-029162D01*
G01X0038428Y-029162D02*
G01X0038466Y-029143D01*
G01X0038466Y-029143D02*
G01X0038484Y-029124D01*
G01X0038484Y-029124D02*
G01X0038503Y-029087D01*
G01X0038503Y-029087D02*
G01X0038503Y-029012D01*
G01X0038503Y-029012D02*
G01X0038484Y-028974D01*
G01X0038484Y-028974D02*
G01X0038466Y-028955D01*
G01X0038466Y-028955D02*
G01X0038428Y-028937D01*
G01X0038428Y-028937D02*
G01X0038353Y-028937D01*
G01X0038353Y-028937D02*
G01X0038316Y-028955D01*
G01X0038316Y-028955D02*
G01X0038297Y-028974D01*
G01X0038297Y-028974D02*
G01X0038278Y-029012D01*
G01X0034460Y-021160D02*
G01X0034329Y-020973D01*
G01X0034235Y-021160D02*
G01X0034235Y-020766D01*
G01X0034235Y-020766D02*
G01X0034385Y-020766D01*
G01X0034385Y-020766D02*
G01X0034423Y-020785D01*
G01X0034423Y-020785D02*
G01X0034441Y-020804D01*
G01X0034441Y-020804D02*
G01X0034460Y-020841D01*
G01X0034460Y-020841D02*
G01X0034460Y-020898D01*
G01X0034460Y-020898D02*
G01X0034441Y-020935D01*
G01X0034441Y-020935D02*
G01X0034423Y-020954D01*
G01X0034423Y-020954D02*
G01X0034385Y-020973D01*
G01X0034385Y-020973D02*
G01X0034235Y-020973D01*
G01X0034648Y-021160D02*
G01X0034723Y-021160D01*
G01X0034723Y-021160D02*
G01X0034760Y-021141D01*
G01X0034760Y-021141D02*
G01X0034779Y-021123D01*
G01X0034779Y-021123D02*
G01X0034816Y-021066D01*
G01X0034816Y-021066D02*
G01X0034835Y-020991D01*
G01X0034835Y-020991D02*
G01X0034835Y-020841D01*
G01X0034835Y-020841D02*
G01X0034816Y-020804D01*
G01X0034816Y-020804D02*
G01X0034798Y-020785D01*
G01X0034798Y-020785D02*
G01X0034760Y-020766D01*
G01X0034760Y-020766D02*
G01X0034685Y-020766D01*
G01X0034685Y-020766D02*
G01X0034648Y-020785D01*
G01X0034648Y-020785D02*
G01X0034629Y-020804D01*
G01X0034629Y-020804D02*
G01X0034610Y-020841D01*
G01X0034610Y-020841D02*
G01X0034610Y-020935D01*
G01X0034610Y-020935D02*
G01X0034629Y-020973D01*
G01X0034629Y-020973D02*
G01X0034648Y-020991D01*
G01X0034648Y-020991D02*
G01X0034685Y-021010D01*
G01X0034685Y-021010D02*
G01X0034760Y-021010D01*
G01X0034760Y-021010D02*
G01X0034798Y-020991D01*
G01X0034798Y-020991D02*
G01X0034816Y-020973D01*
G01X0034816Y-020973D02*
G01X0034835Y-020935D01*
G01X0031678Y-029800D02*
G01X0031491Y-029932D01*
G01X0031678Y-030025D02*
G01X0031284Y-030025D01*
G01X0031284Y-030025D02*
G01X0031284Y-029875D01*
G01X0031284Y-029875D02*
G01X0031303Y-029838D01*
G01X0031303Y-029838D02*
G01X0031322Y-029819D01*
G01X0031322Y-029819D02*
G01X0031359Y-029800D01*
G01X0031359Y-029800D02*
G01X0031416Y-029800D01*
G01X0031416Y-029800D02*
G01X0031453Y-029819D01*
G01X0031453Y-029819D02*
G01X0031472Y-029838D01*
G01X0031472Y-029838D02*
G01X0031491Y-029875D01*
G01X0031491Y-029875D02*
G01X0031491Y-030025D01*
G01X0031678Y-029425D02*
G01X0031678Y-029650D01*
G01X0031678Y-029538D02*
G01X0031284Y-029538D01*
G01X0031284Y-029538D02*
G01X0031341Y-029575D01*
G01X0031341Y-029575D02*
G01X0031378Y-029613D01*
G01X0031378Y-029613D02*
G01X0031397Y-029650D01*
G01X0031678Y-029050D02*
G01X0031678Y-029275D01*
G01X0031678Y-029163D02*
G01X0031284Y-029163D01*
G01X0031284Y-029163D02*
G01X0031341Y-029200D01*
G01X0031341Y-029200D02*
G01X0031378Y-029238D01*
G01X0031378Y-029238D02*
G01X0031397Y-029275D01*
G01X0030353Y-040024D02*
G01X0030166Y-040155D01*
G01X0030353Y-040249D02*
G01X0029959Y-040249D01*
G01X0029959Y-040249D02*
G01X0029959Y-040099D01*
G01X0029959Y-040099D02*
G01X0029978Y-040062D01*
G01X0029978Y-040062D02*
G01X0029997Y-040043D01*
G01X0029997Y-040043D02*
G01X0030034Y-040024D01*
G01X0030034Y-040024D02*
G01X0030091Y-040024D01*
G01X0030091Y-040024D02*
G01X0030128Y-040043D01*
G01X0030128Y-040043D02*
G01X0030147Y-040062D01*
G01X0030147Y-040062D02*
G01X0030166Y-040099D01*
G01X0030166Y-040099D02*
G01X0030166Y-040249D01*
G01X0030353Y-039649D02*
G01X0030353Y-039874D01*
G01X0030353Y-039762D02*
G01X0029959Y-039762D01*
G01X0029959Y-039762D02*
G01X0030016Y-039799D01*
G01X0030016Y-039799D02*
G01X0030053Y-039837D01*
G01X0030053Y-039837D02*
G01X0030072Y-039874D01*
G01X0029997Y-039499D02*
G01X0029978Y-039480D01*
G01X0029978Y-039480D02*
G01X0029959Y-039443D01*
G01X0029959Y-039443D02*
G01X0029959Y-039349D01*
G01X0029959Y-039349D02*
G01X0029978Y-039312D01*
G01X0029978Y-039312D02*
G01X0029997Y-039293D01*
G01X0029997Y-039293D02*
G01X0030034Y-039274D01*
G01X0030034Y-039274D02*
G01X0030072Y-039274D01*
G01X0030072Y-039274D02*
G01X0030128Y-039293D01*
G01X0030128Y-039293D02*
G01X0030353Y-039518D01*
G01X0030353Y-039518D02*
G01X0030353Y-039274D01*
G01X0030178Y-029757D02*
G01X0029991Y-029888D01*
G01X0030178Y-029982D02*
G01X0029784Y-029982D01*
G01X0029784Y-029982D02*
G01X0029784Y-029832D01*
G01X0029784Y-029832D02*
G01X0029803Y-029795D01*
G01X0029803Y-029795D02*
G01X0029822Y-029776D01*
G01X0029822Y-029776D02*
G01X0029859Y-029757D01*
G01X0029859Y-029757D02*
G01X0029916Y-029757D01*
G01X0029916Y-029757D02*
G01X0029953Y-029776D01*
G01X0029953Y-029776D02*
G01X0029972Y-029795D01*
G01X0029972Y-029795D02*
G01X0029991Y-029832D01*
G01X0029991Y-029832D02*
G01X0029991Y-029982D01*
G01X0030178Y-029382D02*
G01X0030178Y-029607D01*
G01X0030178Y-029495D02*
G01X0029784Y-029495D01*
G01X0029784Y-029495D02*
G01X0029841Y-029532D01*
G01X0029841Y-029532D02*
G01X0029878Y-029570D01*
G01X0029878Y-029570D02*
G01X0029897Y-029607D01*
G01X0029784Y-029251D02*
G01X0029784Y-028988D01*
G01X0029784Y-028988D02*
G01X0030178Y-029157D01*
G01X0026475Y-036257D02*
G01X0026475Y-036576D01*
G01X0026475Y-036576D02*
G01X0026494Y-036613D01*
G01X0026494Y-036613D02*
G01X0026513Y-036632D01*
G01X0026513Y-036632D02*
G01X0026550Y-036651D01*
G01X0026550Y-036651D02*
G01X0026625Y-036651D01*
G01X0026625Y-036651D02*
G01X0026663Y-036632D01*
G01X0026663Y-036632D02*
G01X0026681Y-036613D01*
G01X0026681Y-036613D02*
G01X0026700Y-036576D01*
G01X0026700Y-036576D02*
G01X0026700Y-036257D01*
G01X0026869Y-036294D02*
G01X0026887Y-036276D01*
G01X0026887Y-036276D02*
G01X0026925Y-036257D01*
G01X0026925Y-036257D02*
G01X0027019Y-036257D01*
G01X0027019Y-036257D02*
G01X0027056Y-036276D01*
G01X0027056Y-036276D02*
G01X0027075Y-036294D01*
G01X0027075Y-036294D02*
G01X0027094Y-036332D01*
G01X0027094Y-036332D02*
G01X0027094Y-036369D01*
G01X0027094Y-036369D02*
G01X0027075Y-036426D01*
G01X0027075Y-036426D02*
G01X0026850Y-036651D01*
G01X0026850Y-036651D02*
G01X0027094Y-036651D01*
G01X0029184Y-017803D02*
G01X0028997Y-017803D01*
G01X0028997Y-017803D02*
G01X0028997Y-017409D01*
G01X0029522Y-017803D02*
G01X0029297Y-017803D01*
G01X0029409Y-017803D02*
G01X0029409Y-017409D01*
G01X0029409Y-017409D02*
G01X0029372Y-017466D01*
G01X0029372Y-017466D02*
G01X0029334Y-017503D01*
G01X0029334Y-017503D02*
G01X0029297Y-017522D01*
G01X0027352Y-045128D02*
G01X0027352Y-044734D01*
G01X0027352Y-044734D02*
G01X0027445Y-044734D01*
G01X0027445Y-044734D02*
G01X0027502Y-044753D01*
G01X0027502Y-044753D02*
G01X0027539Y-044791D01*
G01X0027539Y-044791D02*
G01X0027558Y-044828D01*
G01X0027558Y-044828D02*
G01X0027577Y-044903D01*
G01X0027577Y-044903D02*
G01X0027577Y-044959D01*
G01X0027577Y-044959D02*
G01X0027558Y-045034D01*
G01X0027558Y-045034D02*
G01X0027539Y-045072D01*
G01X0027539Y-045072D02*
G01X0027502Y-045109D01*
G01X0027502Y-045109D02*
G01X0027445Y-045128D01*
G01X0027445Y-045128D02*
G01X0027352Y-045128D01*
G01X0027708Y-044734D02*
G01X0027951Y-044734D01*
G01X0027951Y-044734D02*
G01X0027820Y-044884D01*
G01X0027820Y-044884D02*
G01X0027876Y-044884D01*
G01X0027876Y-044884D02*
G01X0027914Y-044903D01*
G01X0027914Y-044903D02*
G01X0027933Y-044922D01*
G01X0027933Y-044922D02*
G01X0027951Y-044959D01*
G01X0027951Y-044959D02*
G01X0027951Y-045053D01*
G01X0027951Y-045053D02*
G01X0027933Y-045091D01*
G01X0027933Y-045091D02*
G01X0027914Y-045109D01*
G01X0027914Y-045109D02*
G01X0027876Y-045128D01*
G01X0027876Y-045128D02*
G01X0027764Y-045128D01*
G01X0027764Y-045128D02*
G01X0027726Y-045109D01*
G01X0027726Y-045109D02*
G01X0027708Y-045091D01*
G01X0028516Y-033699D02*
G01X0028534Y-033718D01*
G01X0028534Y-033718D02*
G01X0028553Y-033774D01*
G01X0028553Y-033774D02*
G01X0028553Y-033812D01*
G01X0028553Y-033812D02*
G01X0028534Y-033868D01*
G01X0028534Y-033868D02*
G01X0028497Y-033905D01*
G01X0028497Y-033905D02*
G01X0028459Y-033924D01*
G01X0028459Y-033924D02*
G01X0028384Y-033943D01*
G01X0028384Y-033943D02*
G01X0028328Y-033943D01*
G01X0028328Y-033943D02*
G01X0028253Y-033924D01*
G01X0028253Y-033924D02*
G01X0028216Y-033905D01*
G01X0028216Y-033905D02*
G01X0028178Y-033868D01*
G01X0028178Y-033868D02*
G01X0028159Y-033812D01*
G01X0028159Y-033812D02*
G01X0028159Y-033774D01*
G01X0028159Y-033774D02*
G01X0028178Y-033718D01*
G01X0028178Y-033718D02*
G01X0028197Y-033699D01*
G01X0028553Y-033324D02*
G01X0028553Y-033549D01*
G01X0028553Y-033437D02*
G01X0028159Y-033437D01*
G01X0028159Y-033437D02*
G01X0028216Y-033474D01*
G01X0028216Y-033474D02*
G01X0028253Y-033512D01*
G01X0028253Y-033512D02*
G01X0028272Y-033549D01*
G01X0028553Y-032949D02*
G01X0028553Y-033174D01*
G01X0028553Y-033062D02*
G01X0028159Y-033062D01*
G01X0028159Y-033062D02*
G01X0028216Y-033099D01*
G01X0028216Y-033099D02*
G01X0028253Y-033137D01*
G01X0028253Y-033137D02*
G01X0028272Y-033174D01*
G54D11*
G01X0034318Y-027813D02*
G01X0034318Y-028137D01*
G01X0034318Y-028137D02*
G01X0034337Y-028175D01*
G01X0034337Y-028175D02*
G01X0034356Y-028194D01*
G01X0034356Y-028194D02*
G01X0034394Y-028213D01*
G01X0034394Y-028213D02*
G01X0034470Y-028213D01*
G01X0034470Y-028213D02*
G01X0034508Y-028194D01*
G01X0034508Y-028194D02*
G01X0034527Y-028175D01*
G01X0034527Y-028175D02*
G01X0034546Y-028137D01*
G01X0034546Y-028137D02*
G01X0034546Y-027813D01*
G01X0034908Y-027946D02*
G01X0034908Y-028213D01*
G01X0034813Y-027794D02*
G01X0034718Y-028079D01*
G01X0034718Y-028079D02*
G01X0034965Y-028079D01*
G54D16*
G01X0043747Y-030528D02*
G01X0043616Y-030341D01*
G01X0043522Y-030528D02*
G01X0043522Y-030135D01*
G01X0043522Y-030135D02*
G01X0043672Y-030135D01*
G01X0043672Y-030135D02*
G01X0043709Y-030154D01*
G01X0043709Y-030154D02*
G01X0043728Y-030172D01*
G01X0043728Y-030172D02*
G01X0043747Y-030210D01*
G01X0043747Y-030210D02*
G01X0043747Y-030266D01*
G01X0043747Y-030266D02*
G01X0043728Y-030304D01*
G01X0043728Y-030304D02*
G01X0043709Y-030322D01*
G01X0043709Y-030322D02*
G01X0043672Y-030341D01*
G01X0043672Y-030341D02*
G01X0043522Y-030341D01*
G01X0044122Y-030528D02*
G01X0043897Y-030528D01*
G01X0044009Y-030528D02*
G01X0044009Y-030135D01*
G01X0044009Y-030135D02*
G01X0043972Y-030191D01*
G01X0043972Y-030191D02*
G01X0043934Y-030229D01*
G01X0043934Y-030229D02*
G01X0043897Y-030247D01*
G01X0044366Y-030135D02*
G01X0044403Y-030135D01*
G01X0044403Y-030135D02*
G01X0044441Y-030154D01*
G01X0044441Y-030154D02*
G01X0044459Y-030172D01*
G01X0044459Y-030172D02*
G01X0044478Y-030210D01*
G01X0044478Y-030210D02*
G01X0044497Y-030285D01*
G01X0044497Y-030285D02*
G01X0044497Y-030379D01*
G01X0044497Y-030379D02*
G01X0044478Y-030454D01*
G01X0044478Y-030454D02*
G01X0044459Y-030491D01*
G01X0044459Y-030491D02*
G01X0044441Y-030510D01*
G01X0044441Y-030510D02*
G01X0044403Y-030528D01*
G01X0044403Y-030528D02*
G01X0044366Y-030528D01*
G01X0044366Y-030528D02*
G01X0044328Y-030510D01*
G01X0044328Y-030510D02*
G01X0044309Y-030491D01*
G01X0044309Y-030491D02*
G01X0044291Y-030454D01*
G01X0044291Y-030454D02*
G01X0044272Y-030379D01*
G01X0044272Y-030379D02*
G01X0044272Y-030285D01*
G01X0044272Y-030285D02*
G01X0044291Y-030210D01*
G01X0044291Y-030210D02*
G01X0044309Y-030172D01*
G01X0044309Y-030172D02*
G01X0044328Y-030154D01*
G01X0044328Y-030154D02*
G01X0044366Y-030135D01*
G54D11*
G01X0033194Y-038667D02*
G01X0032794Y-038667D01*
G01X0032794Y-038667D02*
G01X0032794Y-038572D01*
G01X0032794Y-038572D02*
G01X0032813Y-038515D01*
G01X0032813Y-038515D02*
G01X0032851Y-038477D01*
G01X0032851Y-038477D02*
G01X0032889Y-038458D01*
G01X0032889Y-038458D02*
G01X0032965Y-038439D01*
G01X0032965Y-038439D02*
G01X0033023Y-038439D01*
G01X0033023Y-038439D02*
G01X0033099Y-038458D01*
G01X0033099Y-038458D02*
G01X0033137Y-038477D01*
G01X0033137Y-038477D02*
G01X0033175Y-038515D01*
G01X0033175Y-038515D02*
G01X0033194Y-038572D01*
G01X0033194Y-038572D02*
G01X0033194Y-038667D01*
G01X0032832Y-038286D02*
G01X0032813Y-038267D01*
G01X0032813Y-038267D02*
G01X0032794Y-038229D01*
G01X0032794Y-038229D02*
G01X0032794Y-038134D01*
G01X0032794Y-038134D02*
G01X0032813Y-038096D01*
G01X0032813Y-038096D02*
G01X0032832Y-038077D01*
G01X0032832Y-038077D02*
G01X0032870Y-038058D01*
G01X0032870Y-038058D02*
G01X0032908Y-038058D01*
G01X0032908Y-038058D02*
G01X0032965Y-038077D01*
G01X0032965Y-038077D02*
G01X0033194Y-038305D01*
G01X0033194Y-038305D02*
G01X0033194Y-038058D01*
G01X0033180Y-044362D02*
G01X0032780Y-044362D01*
G01X0032780Y-044362D02*
G01X0032780Y-044267D01*
G01X0032780Y-044267D02*
G01X0032799Y-044210D01*
G01X0032799Y-044210D02*
G01X0032837Y-044172D01*
G01X0032837Y-044172D02*
G01X0032875Y-044153D01*
G01X0032875Y-044153D02*
G01X0032951Y-044134D01*
G01X0032951Y-044134D02*
G01X0033009Y-044134D01*
G01X0033009Y-044134D02*
G01X0033085Y-044153D01*
G01X0033085Y-044153D02*
G01X0033123Y-044172D01*
G01X0033123Y-044172D02*
G01X0033161Y-044210D01*
G01X0033161Y-044210D02*
G01X0033180Y-044267D01*
G01X0033180Y-044267D02*
G01X0033180Y-044362D01*
G01X0033180Y-043753D02*
G01X0033180Y-043981D01*
G01X0033180Y-043867D02*
G01X0032780Y-043867D01*
G01X0032780Y-043867D02*
G01X0032837Y-043905D01*
G01X0032837Y-043905D02*
G01X0032875Y-043943D01*
G01X0032875Y-043943D02*
G01X0032894Y-043981D01*
G54D16*
G01X0025026Y-033816D02*
G01X0025007Y-033834D01*
G01X0025007Y-033834D02*
G01X0024951Y-033853D01*
G01X0024951Y-033853D02*
G01X0024913Y-033853D01*
G01X0024913Y-033853D02*
G01X0024857Y-033834D01*
G01X0024857Y-033834D02*
G01X0024820Y-033797D01*
G01X0024820Y-033797D02*
G01X0024801Y-033759D01*
G01X0024801Y-033759D02*
G01X0024782Y-033684D01*
G01X0024782Y-033684D02*
G01X0024782Y-033628D01*
G01X0024782Y-033628D02*
G01X0024801Y-033553D01*
G01X0024801Y-033553D02*
G01X0024820Y-033516D01*
G01X0024820Y-033516D02*
G01X0024857Y-033478D01*
G01X0024857Y-033478D02*
G01X0024913Y-033459D01*
G01X0024913Y-033459D02*
G01X0024951Y-033459D01*
G01X0024951Y-033459D02*
G01X0025007Y-033478D01*
G01X0025007Y-033478D02*
G01X0025026Y-033497D01*
G01X0025401Y-033853D02*
G01X0025176Y-033853D01*
G01X0025288Y-033853D02*
G01X0025288Y-033459D01*
G01X0025288Y-033459D02*
G01X0025251Y-033516D01*
G01X0025251Y-033516D02*
G01X0025213Y-033553D01*
G01X0025213Y-033553D02*
G01X0025176Y-033572D01*
G01X0025738Y-033459D02*
G01X0025663Y-033459D01*
G01X0025663Y-033459D02*
G01X0025626Y-033478D01*
G01X0025626Y-033478D02*
G01X0025607Y-033497D01*
G01X0025607Y-033497D02*
G01X0025570Y-033553D01*
G01X0025570Y-033553D02*
G01X0025551Y-033628D01*
G01X0025551Y-033628D02*
G01X0025551Y-033778D01*
G01X0025551Y-033778D02*
G01X0025570Y-033816D01*
G01X0025570Y-033816D02*
G01X0025588Y-033834D01*
G01X0025588Y-033834D02*
G01X0025626Y-033853D01*
G01X0025626Y-033853D02*
G01X0025701Y-033853D01*
G01X0025701Y-033853D02*
G01X0025738Y-033834D01*
G01X0025738Y-033834D02*
G01X0025757Y-033816D01*
G01X0025757Y-033816D02*
G01X0025776Y-033778D01*
G01X0025776Y-033778D02*
G01X0025776Y-033684D01*
G01X0025776Y-033684D02*
G01X0025757Y-033647D01*
G01X0025757Y-033647D02*
G01X0025738Y-033628D01*
G01X0025738Y-033628D02*
G01X0025701Y-033609D01*
G01X0025701Y-033609D02*
G01X0025626Y-033609D01*
G01X0025626Y-033609D02*
G01X0025588Y-033628D01*
G01X0025588Y-033628D02*
G01X0025570Y-033647D01*
G01X0025570Y-033647D02*
G01X0025551Y-033684D01*
G01X0024427Y-028306D02*
G01X0024408Y-028324D01*
G01X0024408Y-028324D02*
G01X0024352Y-028343D01*
G01X0024352Y-028343D02*
G01X0024314Y-028343D01*
G01X0024314Y-028343D02*
G01X0024258Y-028324D01*
G01X0024258Y-028324D02*
G01X0024221Y-028287D01*
G01X0024221Y-028287D02*
G01X0024202Y-028249D01*
G01X0024202Y-028249D02*
G01X0024183Y-028174D01*
G01X0024183Y-028174D02*
G01X0024183Y-028118D01*
G01X0024183Y-028118D02*
G01X0024202Y-028043D01*
G01X0024202Y-028043D02*
G01X0024221Y-028006D01*
G01X0024221Y-028006D02*
G01X0024258Y-027968D01*
G01X0024258Y-027968D02*
G01X0024314Y-027949D01*
G01X0024314Y-027949D02*
G01X0024352Y-027949D01*
G01X0024352Y-027949D02*
G01X0024408Y-027968D01*
G01X0024408Y-027968D02*
G01X0024427Y-027987D01*
G01X0024802Y-028343D02*
G01X0024577Y-028343D01*
G01X0024689Y-028343D02*
G01X0024689Y-027949D01*
G01X0024689Y-027949D02*
G01X0024652Y-028006D01*
G01X0024652Y-028006D02*
G01X0024614Y-028043D01*
G01X0024614Y-028043D02*
G01X0024577Y-028062D01*
G01X0024933Y-027949D02*
G01X0025177Y-027949D01*
G01X0025177Y-027949D02*
G01X0025046Y-028099D01*
G01X0025046Y-028099D02*
G01X0025102Y-028099D01*
G01X0025102Y-028099D02*
G01X0025139Y-028118D01*
G01X0025139Y-028118D02*
G01X0025158Y-028137D01*
G01X0025158Y-028137D02*
G01X0025177Y-028174D01*
G01X0025177Y-028174D02*
G01X0025177Y-028268D01*
G01X0025177Y-028268D02*
G01X0025158Y-028306D01*
G01X0025158Y-028306D02*
G01X0025139Y-028324D01*
G01X0025139Y-028324D02*
G01X0025102Y-028343D01*
G01X0025102Y-028343D02*
G01X0024989Y-028343D01*
G01X0024989Y-028343D02*
G01X0024952Y-028324D01*
G01X0024952Y-028324D02*
G01X0024933Y-028306D01*
G01X0039134Y-023745D02*
G01X0039116Y-023763D01*
G01X0039116Y-023763D02*
G01X0039059Y-023782D01*
G01X0039059Y-023782D02*
G01X0039022Y-023782D01*
G01X0039022Y-023782D02*
G01X0038966Y-023763D01*
G01X0038966Y-023763D02*
G01X0038928Y-023726D01*
G01X0038928Y-023726D02*
G01X0038909Y-023688D01*
G01X0038909Y-023688D02*
G01X0038891Y-023613D01*
G01X0038891Y-023613D02*
G01X0038891Y-023557D01*
G01X0038891Y-023557D02*
G01X0038909Y-023482D01*
G01X0038909Y-023482D02*
G01X0038928Y-023445D01*
G01X0038928Y-023445D02*
G01X0038966Y-023407D01*
G01X0038966Y-023407D02*
G01X0039022Y-023388D01*
G01X0039022Y-023388D02*
G01X0039059Y-023388D01*
G01X0039059Y-023388D02*
G01X0039116Y-023407D01*
G01X0039116Y-023407D02*
G01X0039134Y-023426D01*
G01X0039322Y-023782D02*
G01X0039397Y-023782D01*
G01X0039397Y-023782D02*
G01X0039434Y-023763D01*
G01X0039434Y-023763D02*
G01X0039453Y-023745D01*
G01X0039453Y-023745D02*
G01X0039491Y-023688D01*
G01X0039491Y-023688D02*
G01X0039509Y-023613D01*
G01X0039509Y-023613D02*
G01X0039509Y-023463D01*
G01X0039509Y-023463D02*
G01X0039491Y-023426D01*
G01X0039491Y-023426D02*
G01X0039472Y-023407D01*
G01X0039472Y-023407D02*
G01X0039434Y-023388D01*
G01X0039434Y-023388D02*
G01X0039359Y-023388D01*
G01X0039359Y-023388D02*
G01X0039322Y-023407D01*
G01X0039322Y-023407D02*
G01X0039303Y-023426D01*
G01X0039303Y-023426D02*
G01X0039284Y-023463D01*
G01X0039284Y-023463D02*
G01X0039284Y-023557D01*
G01X0039284Y-023557D02*
G01X0039303Y-023595D01*
G01X0039303Y-023595D02*
G01X0039322Y-023613D01*
G01X0039322Y-023613D02*
G01X0039359Y-023632D01*
G01X0039359Y-023632D02*
G01X0039434Y-023632D01*
G01X0039434Y-023632D02*
G01X0039472Y-023613D01*
G01X0039472Y-023613D02*
G01X0039491Y-023595D01*
G01X0039491Y-023595D02*
G01X0039509Y-023557D01*
G01X0040159Y-030505D02*
G01X0040141Y-030524D01*
G01X0040141Y-030524D02*
G01X0040084Y-030543D01*
G01X0040084Y-030543D02*
G01X0040047Y-030543D01*
G01X0040047Y-030543D02*
G01X0039991Y-030524D01*
G01X0039991Y-030524D02*
G01X0039953Y-030486D01*
G01X0039953Y-030486D02*
G01X0039934Y-030449D01*
G01X0039934Y-030449D02*
G01X0039916Y-030374D01*
G01X0039916Y-030374D02*
G01X0039916Y-030318D01*
G01X0039916Y-030318D02*
G01X0039934Y-030243D01*
G01X0039934Y-030243D02*
G01X0039953Y-030205D01*
G01X0039953Y-030205D02*
G01X0039991Y-030168D01*
G01X0039991Y-030168D02*
G01X0040047Y-030149D01*
G01X0040047Y-030149D02*
G01X0040084Y-030149D01*
G01X0040084Y-030149D02*
G01X0040141Y-030168D01*
G01X0040141Y-030168D02*
G01X0040159Y-030186D01*
G01X0040291Y-030149D02*
G01X0040553Y-030149D01*
G01X0040553Y-030149D02*
G01X0040384Y-030543D01*
G01X0025123Y-025359D02*
G01X0025104Y-025377D01*
G01X0025104Y-025377D02*
G01X0025048Y-025396D01*
G01X0025048Y-025396D02*
G01X0025010Y-025396D01*
G01X0025010Y-025396D02*
G01X0024954Y-025377D01*
G01X0024954Y-025377D02*
G01X0024917Y-025340D01*
G01X0024917Y-025340D02*
G01X0024898Y-025302D01*
G01X0024898Y-025302D02*
G01X0024879Y-025227D01*
G01X0024879Y-025227D02*
G01X0024879Y-025171D01*
G01X0024879Y-025171D02*
G01X0024898Y-025096D01*
G01X0024898Y-025096D02*
G01X0024917Y-025059D01*
G01X0024917Y-025059D02*
G01X0024954Y-025021D01*
G01X0024954Y-025021D02*
G01X0025010Y-025002D01*
G01X0025010Y-025002D02*
G01X0025048Y-025002D01*
G01X0025048Y-025002D02*
G01X0025104Y-025021D01*
G01X0025104Y-025021D02*
G01X0025123Y-025040D01*
G01X0025254Y-025002D02*
G01X0025498Y-025002D01*
G01X0025498Y-025002D02*
G01X0025367Y-025152D01*
G01X0025367Y-025152D02*
G01X0025423Y-025152D01*
G01X0025423Y-025152D02*
G01X0025460Y-025171D01*
G01X0025460Y-025171D02*
G01X0025479Y-025190D01*
G01X0025479Y-025190D02*
G01X0025498Y-025227D01*
G01X0025498Y-025227D02*
G01X0025498Y-025321D01*
G01X0025498Y-025321D02*
G01X0025479Y-025359D01*
G01X0025479Y-025359D02*
G01X0025460Y-025377D01*
G01X0025460Y-025377D02*
G01X0025423Y-025396D01*
G01X0025423Y-025396D02*
G01X0025310Y-025396D01*
G01X0025310Y-025396D02*
G01X0025273Y-025377D01*
G01X0025273Y-025377D02*
G01X0025254Y-025359D01*
G01X0025138Y-019141D02*
G01X0025120Y-019159D01*
G01X0025120Y-019159D02*
G01X0025063Y-019178D01*
G01X0025063Y-019178D02*
G01X0025026Y-019178D01*
G01X0025026Y-019178D02*
G01X0024970Y-019159D01*
G01X0024970Y-019159D02*
G01X0024932Y-019122D01*
G01X0024932Y-019122D02*
G01X0024913Y-019084D01*
G01X0024913Y-019084D02*
G01X0024895Y-019009D01*
G01X0024895Y-019009D02*
G01X0024895Y-018953D01*
G01X0024895Y-018953D02*
G01X0024913Y-018878D01*
G01X0024913Y-018878D02*
G01X0024932Y-018841D01*
G01X0024932Y-018841D02*
G01X0024970Y-018803D01*
G01X0024970Y-018803D02*
G01X0025026Y-018784D01*
G01X0025026Y-018784D02*
G01X0025063Y-018784D01*
G01X0025063Y-018784D02*
G01X0025120Y-018803D01*
G01X0025120Y-018803D02*
G01X0025138Y-018822D01*
G01X0025288Y-018822D02*
G01X0025307Y-018803D01*
G01X0025307Y-018803D02*
G01X0025345Y-018784D01*
G01X0025345Y-018784D02*
G01X0025438Y-018784D01*
G01X0025438Y-018784D02*
G01X0025476Y-018803D01*
G01X0025476Y-018803D02*
G01X0025495Y-018822D01*
G01X0025495Y-018822D02*
G01X0025513Y-018859D01*
G01X0025513Y-018859D02*
G01X0025513Y-018897D01*
G01X0025513Y-018897D02*
G01X0025495Y-018953D01*
G01X0025495Y-018953D02*
G01X0025270Y-019178D01*
G01X0025270Y-019178D02*
G01X0025513Y-019178D01*
G01X0024841Y-036637D02*
G01X0024859Y-036655D01*
G01X0024859Y-036655D02*
G01X0024878Y-036712D01*
G01X0024878Y-036712D02*
G01X0024878Y-036749D01*
G01X0024878Y-036749D02*
G01X0024859Y-036805D01*
G01X0024859Y-036805D02*
G01X0024822Y-036843D01*
G01X0024822Y-036843D02*
G01X0024784Y-036862D01*
G01X0024784Y-036862D02*
G01X0024709Y-036880D01*
G01X0024709Y-036880D02*
G01X0024653Y-036880D01*
G01X0024653Y-036880D02*
G01X0024578Y-036862D01*
G01X0024578Y-036862D02*
G01X0024541Y-036843D01*
G01X0024541Y-036843D02*
G01X0024503Y-036805D01*
G01X0024503Y-036805D02*
G01X0024484Y-036749D01*
G01X0024484Y-036749D02*
G01X0024484Y-036712D01*
G01X0024484Y-036712D02*
G01X0024503Y-036655D01*
G01X0024503Y-036655D02*
G01X0024522Y-036637D01*
G01X0024878Y-036262D02*
G01X0024878Y-036487D01*
G01X0024878Y-036374D02*
G01X0024484Y-036374D01*
G01X0024484Y-036374D02*
G01X0024541Y-036412D01*
G01X0024541Y-036412D02*
G01X0024578Y-036449D01*
G01X0024578Y-036449D02*
G01X0024597Y-036487D01*
G01X0024504Y-041627D02*
G01X0024504Y-041908D01*
G01X0024504Y-041908D02*
G01X0024485Y-041964D01*
G01X0024485Y-041964D02*
G01X0024447Y-042002D01*
G01X0024447Y-042002D02*
G01X0024391Y-042020D01*
G01X0024391Y-042020D02*
G01X0024354Y-042020D01*
G01X0024897Y-042020D02*
G01X0024672Y-042020D01*
G01X0024785Y-042020D02*
G01X0024785Y-041627D01*
G01X0024785Y-041627D02*
G01X0024747Y-041683D01*
G01X0024747Y-041683D02*
G01X0024710Y-041720D01*
G01X0024710Y-041720D02*
G01X0024672Y-041739D01*
G01X0035819Y-044284D02*
G01X0035819Y-044566D01*
G01X0035819Y-044566D02*
G01X0035800Y-044622D01*
G01X0035800Y-044622D02*
G01X0035763Y-044659D01*
G01X0035763Y-044659D02*
G01X0035706Y-044678D01*
G01X0035706Y-044678D02*
G01X0035669Y-044678D01*
G01X0036175Y-044416D02*
G01X0036175Y-044678D01*
G01X0036081Y-044266D02*
G01X0035987Y-044547D01*
G01X0035987Y-044547D02*
G01X0036231Y-044547D01*
G01X0042456Y-024227D02*
G01X0042456Y-024509D01*
G01X0042456Y-024509D02*
G01X0042437Y-024565D01*
G01X0042437Y-024565D02*
G01X0042400Y-024602D01*
G01X0042400Y-024602D02*
G01X0042343Y-024621D01*
G01X0042343Y-024621D02*
G01X0042306Y-024621D01*
G01X0042606Y-024227D02*
G01X0042849Y-024227D01*
G01X0042849Y-024227D02*
G01X0042718Y-024377D01*
G01X0042718Y-024377D02*
G01X0042774Y-024377D01*
G01X0042774Y-024377D02*
G01X0042812Y-024396D01*
G01X0042812Y-024396D02*
G01X0042831Y-024415D01*
G01X0042831Y-024415D02*
G01X0042849Y-024452D01*
G01X0042849Y-024452D02*
G01X0042849Y-024546D01*
G01X0042849Y-024546D02*
G01X0042831Y-024584D01*
G01X0042831Y-024584D02*
G01X0042812Y-024602D01*
G01X0042812Y-024602D02*
G01X0042774Y-024621D01*
G01X0042774Y-024621D02*
G01X0042662Y-024621D01*
G01X0042662Y-024621D02*
G01X0042624Y-024602D01*
G01X0042624Y-024602D02*
G01X0042606Y-024584D01*
G54D11*
G01X0042137Y-043790D02*
G01X0042194Y-043809D01*
G01X0042194Y-043809D02*
G01X0042213Y-043828D01*
G01X0042213Y-043828D02*
G01X0042232Y-043866D01*
G01X0042232Y-043866D02*
G01X0042232Y-043923D01*
G01X0042232Y-043923D02*
G01X0042213Y-043961D01*
G01X0042213Y-043961D02*
G01X0042194Y-043980D01*
G01X0042194Y-043980D02*
G01X0042156Y-043999D01*
G01X0042156Y-043999D02*
G01X0042004Y-043999D01*
G01X0042004Y-043999D02*
G01X0042004Y-043599D01*
G01X0042004Y-043599D02*
G01X0042137Y-043599D01*
G01X0042137Y-043599D02*
G01X0042175Y-043618D01*
G01X0042175Y-043618D02*
G01X0042194Y-043637D01*
G01X0042194Y-043637D02*
G01X0042213Y-043675D01*
G01X0042213Y-043675D02*
G01X0042213Y-043713D01*
G01X0042213Y-043713D02*
G01X0042194Y-043751D01*
G01X0042194Y-043751D02*
G01X0042175Y-043770D01*
G01X0042175Y-043770D02*
G01X0042137Y-043790D01*
G01X0042137Y-043790D02*
G01X0042004Y-043790D01*
G01X0042404Y-043999D02*
G01X0042404Y-043599D01*
G01X0042404Y-043599D02*
G01X0042632Y-043999D01*
G01X0042632Y-043999D02*
G01X0042632Y-043599D01*
G01X0043052Y-043961D02*
G01X0043032Y-043980D01*
G01X0043032Y-043980D02*
G01X0042975Y-043999D01*
G01X0042975Y-043999D02*
G01X0042937Y-043999D01*
G01X0042937Y-043999D02*
G01X0042880Y-043980D01*
G01X0042880Y-043980D02*
G01X0042842Y-043942D01*
G01X0042842Y-043942D02*
G01X0042823Y-043904D01*
G01X0042823Y-043904D02*
G01X0042804Y-043828D01*
G01X0042804Y-043828D02*
G01X0042804Y-043770D01*
G01X0042804Y-043770D02*
G01X0042823Y-043694D01*
G01X0042823Y-043694D02*
G01X0042842Y-043656D01*
G01X0042842Y-043656D02*
G01X0042880Y-043618D01*
G01X0042880Y-043618D02*
G01X0042937Y-043599D01*
G01X0042937Y-043599D02*
G01X0042975Y-043599D01*
G01X0042975Y-043599D02*
G01X0043032Y-043618D01*
G01X0043032Y-043618D02*
G01X0043052Y-043637D01*
G01X0043432Y-043999D02*
G01X0043204Y-043999D01*
G01X0043318Y-043999D02*
G01X0043318Y-043599D01*
G01X0043318Y-043599D02*
G01X0043280Y-043656D01*
G01X0043280Y-043656D02*
G01X0043242Y-043694D01*
G01X0043242Y-043694D02*
G01X0043204Y-043713D01*
G01X0042127Y-018297D02*
G01X0042184Y-018316D01*
G01X0042184Y-018316D02*
G01X0042203Y-018335D01*
G01X0042203Y-018335D02*
G01X0042222Y-018373D01*
G01X0042222Y-018373D02*
G01X0042222Y-018430D01*
G01X0042222Y-018430D02*
G01X0042203Y-018468D01*
G01X0042203Y-018468D02*
G01X0042184Y-018487D01*
G01X0042184Y-018487D02*
G01X0042146Y-018506D01*
G01X0042146Y-018506D02*
G01X0041994Y-018506D01*
G01X0041994Y-018506D02*
G01X0041994Y-018106D01*
G01X0041994Y-018106D02*
G01X0042127Y-018106D01*
G01X0042127Y-018106D02*
G01X0042165Y-018125D01*
G01X0042165Y-018125D02*
G01X0042184Y-018144D01*
G01X0042184Y-018144D02*
G01X0042203Y-018182D01*
G01X0042203Y-018182D02*
G01X0042203Y-018220D01*
G01X0042203Y-018220D02*
G01X0042184Y-018258D01*
G01X0042184Y-018258D02*
G01X0042165Y-018277D01*
G01X0042165Y-018277D02*
G01X0042127Y-018297D01*
G01X0042127Y-018297D02*
G01X0041994Y-018297D01*
G01X0042394Y-018506D02*
G01X0042394Y-018106D01*
G01X0042394Y-018106D02*
G01X0042622Y-018506D01*
G01X0042622Y-018506D02*
G01X0042622Y-018106D01*
G01X0043042Y-018468D02*
G01X0043022Y-018487D01*
G01X0043022Y-018487D02*
G01X0042965Y-018506D01*
G01X0042965Y-018506D02*
G01X0042927Y-018506D01*
G01X0042927Y-018506D02*
G01X0042870Y-018487D01*
G01X0042870Y-018487D02*
G01X0042832Y-018449D01*
G01X0042832Y-018449D02*
G01X0042813Y-018411D01*
G01X0042813Y-018411D02*
G01X0042794Y-018335D01*
G01X0042794Y-018335D02*
G01X0042794Y-018277D01*
G01X0042794Y-018277D02*
G01X0042813Y-018201D01*
G01X0042813Y-018201D02*
G01X0042832Y-018163D01*
G01X0042832Y-018163D02*
G01X0042870Y-018125D01*
G01X0042870Y-018125D02*
G01X0042927Y-018106D01*
G01X0042927Y-018106D02*
G01X0042965Y-018106D01*
G01X0042965Y-018106D02*
G01X0043022Y-018125D01*
G01X0043022Y-018125D02*
G01X0043042Y-018144D01*
G01X0043194Y-018144D02*
G01X0043213Y-018125D01*
G01X0043213Y-018125D02*
G01X0043251Y-018106D01*
G01X0043251Y-018106D02*
G01X0043346Y-018106D01*
G01X0043346Y-018106D02*
G01X0043384Y-018125D01*
G01X0043384Y-018125D02*
G01X0043403Y-018144D01*
G01X0043403Y-018144D02*
G01X0043422Y-018182D01*
G01X0043422Y-018182D02*
G01X0043422Y-018220D01*
G01X0043422Y-018220D02*
G01X0043403Y-018277D01*
G01X0043403Y-018277D02*
G01X0043175Y-018506D01*
G01X0043175Y-018506D02*
G01X0043422Y-018506D01*
G01X0042137Y-037090D02*
G01X0042194Y-037109D01*
G01X0042194Y-037109D02*
G01X0042213Y-037128D01*
G01X0042213Y-037128D02*
G01X0042232Y-037166D01*
G01X0042232Y-037166D02*
G01X0042232Y-037223D01*
G01X0042232Y-037223D02*
G01X0042213Y-037261D01*
G01X0042213Y-037261D02*
G01X0042194Y-037280D01*
G01X0042194Y-037280D02*
G01X0042156Y-037299D01*
G01X0042156Y-037299D02*
G01X0042004Y-037299D01*
G01X0042004Y-037299D02*
G01X0042004Y-036899D01*
G01X0042004Y-036899D02*
G01X0042137Y-036899D01*
G01X0042137Y-036899D02*
G01X0042175Y-036918D01*
G01X0042175Y-036918D02*
G01X0042194Y-036937D01*
G01X0042194Y-036937D02*
G01X0042213Y-036975D01*
G01X0042213Y-036975D02*
G01X0042213Y-037013D01*
G01X0042213Y-037013D02*
G01X0042194Y-037051D01*
G01X0042194Y-037051D02*
G01X0042175Y-037070D01*
G01X0042175Y-037070D02*
G01X0042137Y-037090D01*
G01X0042137Y-037090D02*
G01X0042004Y-037090D01*
G01X0042404Y-037299D02*
G01X0042404Y-036899D01*
G01X0042404Y-036899D02*
G01X0042632Y-037299D01*
G01X0042632Y-037299D02*
G01X0042632Y-036899D01*
G01X0043052Y-037261D02*
G01X0043032Y-037280D01*
G01X0043032Y-037280D02*
G01X0042975Y-037299D01*
G01X0042975Y-037299D02*
G01X0042937Y-037299D01*
G01X0042937Y-037299D02*
G01X0042880Y-037280D01*
G01X0042880Y-037280D02*
G01X0042842Y-037242D01*
G01X0042842Y-037242D02*
G01X0042823Y-037204D01*
G01X0042823Y-037204D02*
G01X0042804Y-037128D01*
G01X0042804Y-037128D02*
G01X0042804Y-037070D01*
G01X0042804Y-037070D02*
G01X0042823Y-036994D01*
G01X0042823Y-036994D02*
G01X0042842Y-036956D01*
G01X0042842Y-036956D02*
G01X0042880Y-036918D01*
G01X0042880Y-036918D02*
G01X0042937Y-036899D01*
G01X0042937Y-036899D02*
G01X0042975Y-036899D01*
G01X0042975Y-036899D02*
G01X0043032Y-036918D01*
G01X0043032Y-036918D02*
G01X0043052Y-036937D01*
G01X0043185Y-036899D02*
G01X0043432Y-036899D01*
G01X0043432Y-036899D02*
G01X0043299Y-037051D01*
G01X0043299Y-037051D02*
G01X0043356Y-037051D01*
G01X0043356Y-037051D02*
G01X0043394Y-037070D01*
G01X0043394Y-037070D02*
G01X0043413Y-037090D01*
G01X0043413Y-037090D02*
G01X0043432Y-037128D01*
G01X0043432Y-037128D02*
G01X0043432Y-037223D01*
G01X0043432Y-037223D02*
G01X0043413Y-037261D01*
G01X0043413Y-037261D02*
G01X0043394Y-037280D01*
G01X0043394Y-037280D02*
G01X0043356Y-037299D01*
G01X0043356Y-037299D02*
G01X0043242Y-037299D01*
G01X0043242Y-037299D02*
G01X0043204Y-037280D01*
G01X0043204Y-037280D02*
G01X0043185Y-037261D01*
G54D16*
G01X0036325Y-035934D02*
G01X0036325Y-036253D01*
G01X0036325Y-036253D02*
G01X0036344Y-036291D01*
G01X0036344Y-036291D02*
G01X0036363Y-036309D01*
G01X0036363Y-036309D02*
G01X0036400Y-036328D01*
G01X0036400Y-036328D02*
G01X0036475Y-036328D01*
G01X0036475Y-036328D02*
G01X0036513Y-036309D01*
G01X0036513Y-036309D02*
G01X0036531Y-036291D01*
G01X0036531Y-036291D02*
G01X0036550Y-036253D01*
G01X0036550Y-036253D02*
G01X0036550Y-035934D01*
G01X0036944Y-036328D02*
G01X0036719Y-036328D01*
G01X0036831Y-036328D02*
G01X0036831Y-035934D01*
G01X0036831Y-035934D02*
G01X0036794Y-035991D01*
G01X0036794Y-035991D02*
G01X0036756Y-036028D01*
G01X0036756Y-036028D02*
G01X0036719Y-036047D01*
G01X0025080Y-023406D02*
G01X0025061Y-023424D01*
G01X0025061Y-023424D02*
G01X0025005Y-023443D01*
G01X0025005Y-023443D02*
G01X0024967Y-023443D01*
G01X0024967Y-023443D02*
G01X0024911Y-023424D01*
G01X0024911Y-023424D02*
G01X0024874Y-023387D01*
G01X0024874Y-023387D02*
G01X0024855Y-023349D01*
G01X0024855Y-023349D02*
G01X0024836Y-023274D01*
G01X0024836Y-023274D02*
G01X0024836Y-023218D01*
G01X0024836Y-023218D02*
G01X0024855Y-023143D01*
G01X0024855Y-023143D02*
G01X0024874Y-023106D01*
G01X0024874Y-023106D02*
G01X0024911Y-023068D01*
G01X0024911Y-023068D02*
G01X0024967Y-023049D01*
G01X0024967Y-023049D02*
G01X0025005Y-023049D01*
G01X0025005Y-023049D02*
G01X0025061Y-023068D01*
G01X0025061Y-023068D02*
G01X0025080Y-023087D01*
G01X0025455Y-023443D02*
G01X0025230Y-023443D01*
G01X0025342Y-023443D02*
G01X0025342Y-023049D01*
G01X0025342Y-023049D02*
G01X0025305Y-023106D01*
G01X0025305Y-023106D02*
G01X0025267Y-023143D01*
G01X0025267Y-023143D02*
G01X0025230Y-023162D01*
G01X0025792Y-023181D02*
G01X0025792Y-023443D01*
G01X0025698Y-023031D02*
G01X0025605Y-023312D01*
G01X0025605Y-023312D02*
G01X0025848Y-023312D01*
G01X0040114Y-033156D02*
G01X0040095Y-033174D01*
G01X0040095Y-033174D02*
G01X0040039Y-033193D01*
G01X0040039Y-033193D02*
G01X0040002Y-033193D01*
G01X0040002Y-033193D02*
G01X0039945Y-033174D01*
G01X0039945Y-033174D02*
G01X0039908Y-033137D01*
G01X0039908Y-033137D02*
G01X0039889Y-033099D01*
G01X0039889Y-033099D02*
G01X0039870Y-033024D01*
G01X0039870Y-033024D02*
G01X0039870Y-032968D01*
G01X0039870Y-032968D02*
G01X0039889Y-032893D01*
G01X0039889Y-032893D02*
G01X0039908Y-032856D01*
G01X0039908Y-032856D02*
G01X0039945Y-032818D01*
G01X0039945Y-032818D02*
G01X0040002Y-032799D01*
G01X0040002Y-032799D02*
G01X0040039Y-032799D01*
G01X0040039Y-032799D02*
G01X0040095Y-032818D01*
G01X0040095Y-032818D02*
G01X0040114Y-032837D01*
G01X0040489Y-033193D02*
G01X0040264Y-033193D01*
G01X0040376Y-033193D02*
G01X0040376Y-032799D01*
G01X0040376Y-032799D02*
G01X0040339Y-032856D01*
G01X0040339Y-032856D02*
G01X0040302Y-032893D01*
G01X0040302Y-032893D02*
G01X0040264Y-032912D01*
G01X0040845Y-032799D02*
G01X0040658Y-032799D01*
G01X0040658Y-032799D02*
G01X0040639Y-032987D01*
G01X0040639Y-032987D02*
G01X0040658Y-032968D01*
G01X0040658Y-032968D02*
G01X0040695Y-032949D01*
G01X0040695Y-032949D02*
G01X0040789Y-032949D01*
G01X0040789Y-032949D02*
G01X0040826Y-032968D01*
G01X0040826Y-032968D02*
G01X0040845Y-032987D01*
G01X0040845Y-032987D02*
G01X0040864Y-033024D01*
G01X0040864Y-033024D02*
G01X0040864Y-033118D01*
G01X0040864Y-033118D02*
G01X0040845Y-033156D01*
G01X0040845Y-033156D02*
G01X0040826Y-033174D01*
G01X0040826Y-033174D02*
G01X0040789Y-033193D01*
G01X0040789Y-033193D02*
G01X0040695Y-033193D01*
G01X0040695Y-033193D02*
G01X0040658Y-033174D01*
G01X0040658Y-033174D02*
G01X0040639Y-033156D01*
G01X0000000Y0000000D02*
G54D11*
G01X0044500Y-015000D02*
G01X0045000Y-015000D01*
G01X0023000Y-015000D02*
G01X0044500Y-015000D01*
G01X0023000Y-047000D02*
G01X0023000Y-015000D01*
G01X0045000Y-047000D02*
G01X0023000Y-047000D01*
G01X0045000Y-015000D02*
G01X0045000Y-047000D01*
M02*
