%TF.GenerationSoftware,KiCad,Pcbnew,4.0.4+e1-6308~48~ubuntu16.04.1-stable*%
%TF.CreationDate,2016-12-26T15:21:58-08:00*%
%TF.ProjectId,e202var-vlf-radio-receiver,653230327661722D766C662D72616469,v1.3*%
%TF.FileFunction,Other,Fab,Top*%
%FSLAX46Y46*%
G04 Gerber Fmt 4.6, Leading zero omitted, Abs format (unit mm)*
G04 Created by KiCad (PCBNEW 4.0.4+e1-6308~48~ubuntu16.04.1-stable) date Mon Dec 26 15:21:58 2016*
%MOMM*%
%LPD*%
G01*
G04 APERTURE LIST*
%ADD10C,0.350000*%
%ADD11C,0.152400*%
%ADD12C,0.050000*%
%ADD13C,0.050800*%
%ADD14C,0.040640*%
%ADD15C,0.254000*%
%ADD16C,0.150000*%
%ADD17C,0.127000*%
G04 APERTURE END LIST*
D10*
D11*
X96060382Y-36358286D02*
X96302287Y-37035619D01*
X96544191Y-36358286D01*
X97463429Y-37035619D02*
X96882858Y-37035619D01*
X97173144Y-37035619D02*
X97173144Y-36019619D01*
X97076382Y-36164762D01*
X96979620Y-36261524D01*
X96882858Y-36309905D01*
X97898858Y-36938857D02*
X97947239Y-36987238D01*
X97898858Y-37035619D01*
X97850477Y-36987238D01*
X97898858Y-36938857D01*
X97898858Y-37035619D01*
X98285906Y-36019619D02*
X98914858Y-36019619D01*
X98576192Y-36406667D01*
X98721334Y-36406667D01*
X98818096Y-36455048D01*
X98866477Y-36503429D01*
X98914858Y-36600190D01*
X98914858Y-36842095D01*
X98866477Y-36938857D01*
X98818096Y-36987238D01*
X98721334Y-37035619D01*
X98431049Y-37035619D01*
X98334287Y-36987238D01*
X98285906Y-36938857D01*
X105301142Y-37035619D02*
X104720571Y-37035619D01*
X105010857Y-37035619D02*
X105010857Y-36019619D01*
X104914095Y-36164762D01*
X104817333Y-36261524D01*
X104720571Y-36309905D01*
X105688190Y-36116381D02*
X105736571Y-36068000D01*
X105833333Y-36019619D01*
X106075237Y-36019619D01*
X106171999Y-36068000D01*
X106220380Y-36116381D01*
X106268761Y-36213143D01*
X106268761Y-36309905D01*
X106220380Y-36455048D01*
X105639809Y-37035619D01*
X106268761Y-37035619D01*
X107429904Y-35971238D02*
X106559047Y-37277524D01*
X107720190Y-36116381D02*
X107768571Y-36068000D01*
X107865333Y-36019619D01*
X108107237Y-36019619D01*
X108203999Y-36068000D01*
X108252380Y-36116381D01*
X108300761Y-36213143D01*
X108300761Y-36309905D01*
X108252380Y-36455048D01*
X107671809Y-37035619D01*
X108300761Y-37035619D01*
X109171618Y-36019619D02*
X108978095Y-36019619D01*
X108881333Y-36068000D01*
X108832952Y-36116381D01*
X108736190Y-36261524D01*
X108687809Y-36455048D01*
X108687809Y-36842095D01*
X108736190Y-36938857D01*
X108784571Y-36987238D01*
X108881333Y-37035619D01*
X109074856Y-37035619D01*
X109171618Y-36987238D01*
X109219999Y-36938857D01*
X109268380Y-36842095D01*
X109268380Y-36600190D01*
X109219999Y-36503429D01*
X109171618Y-36455048D01*
X109074856Y-36406667D01*
X108881333Y-36406667D01*
X108784571Y-36455048D01*
X108736190Y-36503429D01*
X108687809Y-36600190D01*
X110429523Y-35971238D02*
X109558666Y-37277524D01*
X110719809Y-36116381D02*
X110768190Y-36068000D01*
X110864952Y-36019619D01*
X111106856Y-36019619D01*
X111203618Y-36068000D01*
X111251999Y-36116381D01*
X111300380Y-36213143D01*
X111300380Y-36309905D01*
X111251999Y-36455048D01*
X110671428Y-37035619D01*
X111300380Y-37035619D01*
X111929333Y-36019619D02*
X112026094Y-36019619D01*
X112122856Y-36068000D01*
X112171237Y-36116381D01*
X112219618Y-36213143D01*
X112267999Y-36406667D01*
X112267999Y-36648571D01*
X112219618Y-36842095D01*
X112171237Y-36938857D01*
X112122856Y-36987238D01*
X112026094Y-37035619D01*
X111929333Y-37035619D01*
X111832571Y-36987238D01*
X111784190Y-36938857D01*
X111735809Y-36842095D01*
X111687428Y-36648571D01*
X111687428Y-36406667D01*
X111735809Y-36213143D01*
X111784190Y-36116381D01*
X111832571Y-36068000D01*
X111929333Y-36019619D01*
X113235618Y-37035619D02*
X112655047Y-37035619D01*
X112945333Y-37035619D02*
X112945333Y-36019619D01*
X112848571Y-36164762D01*
X112751809Y-36261524D01*
X112655047Y-36309905D01*
X114106475Y-36019619D02*
X113912952Y-36019619D01*
X113816190Y-36068000D01*
X113767809Y-36116381D01*
X113671047Y-36261524D01*
X113622666Y-36455048D01*
X113622666Y-36842095D01*
X113671047Y-36938857D01*
X113719428Y-36987238D01*
X113816190Y-37035619D01*
X114009713Y-37035619D01*
X114106475Y-36987238D01*
X114154856Y-36938857D01*
X114203237Y-36842095D01*
X114203237Y-36600190D01*
X114154856Y-36503429D01*
X114106475Y-36455048D01*
X114009713Y-36406667D01*
X113816190Y-36406667D01*
X113719428Y-36455048D01*
X113671047Y-36503429D01*
X113622666Y-36600190D01*
X85585907Y-34217429D02*
X85924573Y-34217429D01*
X86069716Y-34749619D02*
X85585907Y-34749619D01*
X85585907Y-33733619D01*
X86069716Y-33733619D01*
X86456764Y-33830381D02*
X86505145Y-33782000D01*
X86601907Y-33733619D01*
X86843811Y-33733619D01*
X86940573Y-33782000D01*
X86988954Y-33830381D01*
X87037335Y-33927143D01*
X87037335Y-34023905D01*
X86988954Y-34169048D01*
X86408383Y-34749619D01*
X87037335Y-34749619D01*
X87666288Y-33733619D02*
X87763049Y-33733619D01*
X87859811Y-33782000D01*
X87908192Y-33830381D01*
X87956573Y-33927143D01*
X88004954Y-34120667D01*
X88004954Y-34362571D01*
X87956573Y-34556095D01*
X87908192Y-34652857D01*
X87859811Y-34701238D01*
X87763049Y-34749619D01*
X87666288Y-34749619D01*
X87569526Y-34701238D01*
X87521145Y-34652857D01*
X87472764Y-34556095D01*
X87424383Y-34362571D01*
X87424383Y-34120667D01*
X87472764Y-33927143D01*
X87521145Y-33830381D01*
X87569526Y-33782000D01*
X87666288Y-33733619D01*
X88392002Y-33830381D02*
X88440383Y-33782000D01*
X88537145Y-33733619D01*
X88779049Y-33733619D01*
X88875811Y-33782000D01*
X88924192Y-33830381D01*
X88972573Y-33927143D01*
X88972573Y-34023905D01*
X88924192Y-34169048D01*
X88343621Y-34749619D01*
X88972573Y-34749619D01*
X89262859Y-33733619D02*
X89601526Y-34749619D01*
X89940192Y-33733619D01*
X90230478Y-34459333D02*
X90714287Y-34459333D01*
X90133716Y-34749619D02*
X90472383Y-33733619D01*
X90811049Y-34749619D01*
X91730287Y-34749619D02*
X91391621Y-34265810D01*
X91149716Y-34749619D02*
X91149716Y-33733619D01*
X91536763Y-33733619D01*
X91633525Y-33782000D01*
X91681906Y-33830381D01*
X91730287Y-33927143D01*
X91730287Y-34072286D01*
X91681906Y-34169048D01*
X91633525Y-34217429D01*
X91536763Y-34265810D01*
X91149716Y-34265810D01*
X92794668Y-33733619D02*
X93133335Y-34749619D01*
X93472001Y-33733619D01*
X94294477Y-34749619D02*
X93810668Y-34749619D01*
X93810668Y-33733619D01*
X94971810Y-34217429D02*
X94633144Y-34217429D01*
X94633144Y-34749619D02*
X94633144Y-33733619D01*
X95116953Y-33733619D01*
X96278096Y-34749619D02*
X96278096Y-33733619D01*
X96858667Y-34749619D01*
X96858667Y-33733619D01*
X97777905Y-34749619D02*
X97777905Y-34217429D01*
X97729524Y-34120667D01*
X97632762Y-34072286D01*
X97439239Y-34072286D01*
X97342477Y-34120667D01*
X97777905Y-34701238D02*
X97681143Y-34749619D01*
X97439239Y-34749619D01*
X97342477Y-34701238D01*
X97294096Y-34604476D01*
X97294096Y-34507714D01*
X97342477Y-34410952D01*
X97439239Y-34362571D01*
X97681143Y-34362571D01*
X97777905Y-34314190D01*
X98116572Y-34072286D02*
X98503620Y-34072286D01*
X98261715Y-33733619D02*
X98261715Y-34604476D01*
X98310096Y-34701238D01*
X98406858Y-34749619D01*
X98503620Y-34749619D01*
X99277714Y-34072286D02*
X99277714Y-34749619D01*
X98842286Y-34072286D02*
X98842286Y-34604476D01*
X98890667Y-34701238D01*
X98987429Y-34749619D01*
X99132571Y-34749619D01*
X99229333Y-34701238D01*
X99277714Y-34652857D01*
X99761524Y-34749619D02*
X99761524Y-34072286D01*
X99761524Y-34265810D02*
X99809905Y-34169048D01*
X99858286Y-34120667D01*
X99955048Y-34072286D01*
X100051809Y-34072286D01*
X100825904Y-34749619D02*
X100825904Y-34217429D01*
X100777523Y-34120667D01*
X100680761Y-34072286D01*
X100487238Y-34072286D01*
X100390476Y-34120667D01*
X100825904Y-34701238D02*
X100729142Y-34749619D01*
X100487238Y-34749619D01*
X100390476Y-34701238D01*
X100342095Y-34604476D01*
X100342095Y-34507714D01*
X100390476Y-34410952D01*
X100487238Y-34362571D01*
X100729142Y-34362571D01*
X100825904Y-34314190D01*
X101454857Y-34749619D02*
X101358095Y-34701238D01*
X101309714Y-34604476D01*
X101309714Y-33733619D01*
X103196570Y-34749619D02*
X102857904Y-34265810D01*
X102615999Y-34749619D02*
X102615999Y-33733619D01*
X103003046Y-33733619D01*
X103099808Y-33782000D01*
X103148189Y-33830381D01*
X103196570Y-33927143D01*
X103196570Y-34072286D01*
X103148189Y-34169048D01*
X103099808Y-34217429D01*
X103003046Y-34265810D01*
X102615999Y-34265810D01*
X104067427Y-34749619D02*
X104067427Y-34217429D01*
X104019046Y-34120667D01*
X103922284Y-34072286D01*
X103728761Y-34072286D01*
X103631999Y-34120667D01*
X104067427Y-34701238D02*
X103970665Y-34749619D01*
X103728761Y-34749619D01*
X103631999Y-34701238D01*
X103583618Y-34604476D01*
X103583618Y-34507714D01*
X103631999Y-34410952D01*
X103728761Y-34362571D01*
X103970665Y-34362571D01*
X104067427Y-34314190D01*
X104986665Y-34749619D02*
X104986665Y-33733619D01*
X104986665Y-34701238D02*
X104889903Y-34749619D01*
X104696380Y-34749619D01*
X104599618Y-34701238D01*
X104551237Y-34652857D01*
X104502856Y-34556095D01*
X104502856Y-34265810D01*
X104551237Y-34169048D01*
X104599618Y-34120667D01*
X104696380Y-34072286D01*
X104889903Y-34072286D01*
X104986665Y-34120667D01*
X105470475Y-34749619D02*
X105470475Y-34072286D01*
X105470475Y-33733619D02*
X105422094Y-33782000D01*
X105470475Y-33830381D01*
X105518856Y-33782000D01*
X105470475Y-33733619D01*
X105470475Y-33830381D01*
X106099428Y-34749619D02*
X106002666Y-34701238D01*
X105954285Y-34652857D01*
X105905904Y-34556095D01*
X105905904Y-34265810D01*
X105954285Y-34169048D01*
X106002666Y-34120667D01*
X106099428Y-34072286D01*
X106244570Y-34072286D01*
X106341332Y-34120667D01*
X106389713Y-34169048D01*
X106438094Y-34265810D01*
X106438094Y-34556095D01*
X106389713Y-34652857D01*
X106341332Y-34701238D01*
X106244570Y-34749619D01*
X106099428Y-34749619D01*
X108228189Y-34749619D02*
X107889523Y-34265810D01*
X107647618Y-34749619D02*
X107647618Y-33733619D01*
X108034665Y-33733619D01*
X108131427Y-33782000D01*
X108179808Y-33830381D01*
X108228189Y-33927143D01*
X108228189Y-34072286D01*
X108179808Y-34169048D01*
X108131427Y-34217429D01*
X108034665Y-34265810D01*
X107647618Y-34265810D01*
X109050665Y-34701238D02*
X108953903Y-34749619D01*
X108760380Y-34749619D01*
X108663618Y-34701238D01*
X108615237Y-34604476D01*
X108615237Y-34217429D01*
X108663618Y-34120667D01*
X108760380Y-34072286D01*
X108953903Y-34072286D01*
X109050665Y-34120667D01*
X109099046Y-34217429D01*
X109099046Y-34314190D01*
X108615237Y-34410952D01*
X109969903Y-34701238D02*
X109873141Y-34749619D01*
X109679618Y-34749619D01*
X109582856Y-34701238D01*
X109534475Y-34652857D01*
X109486094Y-34556095D01*
X109486094Y-34265810D01*
X109534475Y-34169048D01*
X109582856Y-34120667D01*
X109679618Y-34072286D01*
X109873141Y-34072286D01*
X109969903Y-34120667D01*
X110792379Y-34701238D02*
X110695617Y-34749619D01*
X110502094Y-34749619D01*
X110405332Y-34701238D01*
X110356951Y-34604476D01*
X110356951Y-34217429D01*
X110405332Y-34120667D01*
X110502094Y-34072286D01*
X110695617Y-34072286D01*
X110792379Y-34120667D01*
X110840760Y-34217429D01*
X110840760Y-34314190D01*
X110356951Y-34410952D01*
X111276189Y-34749619D02*
X111276189Y-34072286D01*
X111276189Y-33733619D02*
X111227808Y-33782000D01*
X111276189Y-33830381D01*
X111324570Y-33782000D01*
X111276189Y-33733619D01*
X111276189Y-33830381D01*
X111663237Y-34072286D02*
X111905142Y-34749619D01*
X112147046Y-34072286D01*
X112921141Y-34701238D02*
X112824379Y-34749619D01*
X112630856Y-34749619D01*
X112534094Y-34701238D01*
X112485713Y-34604476D01*
X112485713Y-34217429D01*
X112534094Y-34120667D01*
X112630856Y-34072286D01*
X112824379Y-34072286D01*
X112921141Y-34120667D01*
X112969522Y-34217429D01*
X112969522Y-34314190D01*
X112485713Y-34410952D01*
X113404951Y-34749619D02*
X113404951Y-34072286D01*
X113404951Y-34265810D02*
X113453332Y-34169048D01*
X113501713Y-34120667D01*
X113598475Y-34072286D01*
X113695236Y-34072286D01*
X58420000Y-38100000D02*
X114300000Y-38100000D01*
X58420000Y-119380000D02*
X58420000Y-38100000D01*
X114300000Y-119380000D02*
X58420000Y-119380000D01*
X114300000Y-38100000D02*
X114300000Y-119380000D01*
D12*
X65174500Y-67589260D02*
X65174500Y-75589260D01*
X60174500Y-67589260D02*
X65174500Y-67589260D01*
X60174500Y-75589260D02*
X60174500Y-67589260D01*
X65174500Y-75589260D02*
X60174500Y-75589260D01*
X65174500Y-67589260D02*
X65174500Y-75589260D01*
X60174500Y-67589260D02*
X65174500Y-67589260D01*
X60174500Y-75589260D02*
X60174500Y-67589260D01*
X65174500Y-75589260D02*
X60174500Y-75589260D01*
X65174500Y-67589260D02*
X65174500Y-75589260D01*
X60174500Y-67589260D02*
X65174500Y-67589260D01*
X60174500Y-75589260D02*
X60174500Y-67589260D01*
X65174500Y-75589260D02*
X60174500Y-75589260D01*
X65174500Y-67589260D02*
X65174500Y-75589260D01*
X60174500Y-67589260D02*
X65174500Y-67589260D01*
X60174500Y-75589260D02*
X60174500Y-67589260D01*
X65174500Y-75589260D02*
X60174500Y-75589260D01*
X65174500Y-67589260D02*
X65174500Y-75589260D01*
X60174500Y-67589260D02*
X65174500Y-67589260D01*
X60174500Y-75589260D02*
X60174500Y-67589260D01*
X65174500Y-75589260D02*
X60174500Y-75589260D01*
X65174500Y-67589260D02*
X65174500Y-75589260D01*
X60174500Y-67589260D02*
X65174500Y-67589260D01*
X60174500Y-75589260D02*
X60174500Y-67589260D01*
X65174500Y-75589260D02*
X60174500Y-75589260D01*
X65174500Y-67589260D02*
X65174500Y-75589260D01*
X60174500Y-67589260D02*
X65174500Y-67589260D01*
X60174500Y-75589260D02*
X60174500Y-67589260D01*
X65174500Y-75589260D02*
X60174500Y-75589260D01*
X65174500Y-67589260D02*
X65174500Y-75589260D01*
X60174500Y-67589260D02*
X65174500Y-67589260D01*
X60174500Y-75589260D02*
X60174500Y-67589260D01*
X65174500Y-75589260D02*
X60174500Y-75589260D01*
X65174500Y-67589260D02*
X65174500Y-75589260D01*
X60174500Y-67589260D02*
X65174500Y-67589260D01*
X60174500Y-75589260D02*
X60174500Y-67589260D01*
X65174500Y-75589260D02*
X60174500Y-75589260D01*
X65174500Y-67589260D02*
X65174500Y-75589260D01*
X60174500Y-67589260D02*
X65174500Y-67589260D01*
X60174500Y-75589260D02*
X60174500Y-67589260D01*
X65174500Y-75589260D02*
X60174500Y-75589260D01*
X65174500Y-67589260D02*
X65174500Y-75589260D01*
X60174500Y-67589260D02*
X65174500Y-67589260D01*
X60174500Y-75589260D02*
X60174500Y-67589260D01*
X65174500Y-75589260D02*
X60174500Y-75589260D01*
X65174500Y-67589260D02*
X65174500Y-75589260D01*
X60174500Y-67589260D02*
X65174500Y-67589260D01*
X60174500Y-75589260D02*
X60174500Y-67589260D01*
X65174500Y-75589260D02*
X60174500Y-75589260D01*
X65174500Y-67589260D02*
X65174500Y-75589260D01*
X60174500Y-67589260D02*
X65174500Y-67589260D01*
X60174500Y-75589260D02*
X60174500Y-67589260D01*
X65174500Y-75589260D02*
X60174500Y-75589260D01*
X65174500Y-67589260D02*
X65174500Y-75589260D01*
X60174500Y-67589260D02*
X65174500Y-67589260D01*
X60174500Y-75589260D02*
X60174500Y-67589260D01*
X65174500Y-75589260D02*
X60174500Y-75589260D01*
X65174500Y-67589260D02*
X65174500Y-75589260D01*
X60174500Y-67589260D02*
X65174500Y-67589260D01*
X60174500Y-75589260D02*
X60174500Y-67589260D01*
X65174500Y-75589260D02*
X60174500Y-75589260D01*
X65174500Y-67589260D02*
X65174500Y-75589260D01*
X60174500Y-67589260D02*
X65174500Y-67589260D01*
X60174500Y-75589260D02*
X60174500Y-67589260D01*
X65174500Y-75589260D02*
X60174500Y-75589260D01*
X65174500Y-67589260D02*
X65174500Y-75589260D01*
X60174500Y-67589260D02*
X65174500Y-67589260D01*
X60174500Y-75589260D02*
X60174500Y-67589260D01*
X65174500Y-75589260D02*
X60174500Y-75589260D01*
X65174500Y-67589260D02*
X65174500Y-75589260D01*
X60174500Y-67589260D02*
X65174500Y-67589260D01*
X60174500Y-75589260D02*
X60174500Y-67589260D01*
X65174500Y-75589260D02*
X60174500Y-75589260D01*
X65174500Y-67589260D02*
X65174500Y-75589260D01*
X60174500Y-67589260D02*
X65174500Y-67589260D01*
X60174500Y-75589260D02*
X60174500Y-67589260D01*
X65174500Y-75589260D02*
X60174500Y-75589260D01*
X65174500Y-67589260D02*
X65174500Y-75589260D01*
X60174500Y-67589260D02*
X65174500Y-67589260D01*
X60174500Y-75589260D02*
X60174500Y-67589260D01*
X65174500Y-75589260D02*
X60174500Y-75589260D01*
D13*
X78613000Y-95931500D02*
X78613000Y-107615500D01*
X81637000Y-95931500D02*
X78637000Y-95931500D01*
X81661000Y-107615500D02*
X81661000Y-95931500D01*
X78613000Y-107615500D02*
X81661000Y-107615500D01*
X78486000Y-92837000D02*
X78486000Y-81153000D01*
X75462000Y-92837000D02*
X78462000Y-92837000D01*
X75438000Y-81153000D02*
X75438000Y-92837000D01*
X78486000Y-81153000D02*
X75438000Y-81153000D01*
D12*
X68070000Y-82445000D02*
X61470000Y-82445000D01*
X68070000Y-82445000D02*
X68070000Y-76345000D01*
X61470000Y-82445000D02*
X61470000Y-76345000D01*
X68070000Y-76345000D02*
X61470000Y-76345000D01*
X66544400Y-60608340D02*
X62244400Y-60608340D01*
X66544400Y-57608340D02*
X66544400Y-60608340D01*
X62244400Y-57608340D02*
X66544400Y-57608340D01*
X62244400Y-60608340D02*
X62244400Y-57608340D01*
D13*
X80269080Y-47035720D02*
X68585080Y-47035720D01*
X80269080Y-50059720D02*
X80269080Y-47059720D01*
X68585080Y-50083720D02*
X80269080Y-50083720D01*
X68585080Y-47035720D02*
X68585080Y-50083720D01*
D12*
X82110000Y-38676000D02*
X90610000Y-38676000D01*
X90610000Y-38676000D02*
X90610000Y-47176000D01*
X90610000Y-47176000D02*
X82110000Y-47176000D01*
X82110000Y-47176000D02*
X82110000Y-38676000D01*
X94205000Y-80875000D02*
X89905000Y-80875000D01*
X94205000Y-77875000D02*
X94205000Y-80875000D01*
X89905000Y-77875000D02*
X94205000Y-77875000D01*
X89905000Y-80875000D02*
X89905000Y-77875000D01*
X104047500Y-72683500D02*
X99747500Y-72683500D01*
X104047500Y-69683500D02*
X104047500Y-72683500D01*
X99747500Y-69683500D02*
X104047500Y-69683500D01*
X99747500Y-72683500D02*
X99747500Y-69683500D01*
X97144000Y-65048000D02*
X101444000Y-65048000D01*
X97144000Y-68048000D02*
X97144000Y-65048000D01*
X101444000Y-68048000D02*
X97144000Y-68048000D01*
X101444000Y-65048000D02*
X101444000Y-68048000D01*
X81650000Y-86765000D02*
X85950000Y-86765000D01*
X81650000Y-89765000D02*
X81650000Y-86765000D01*
X85950000Y-89765000D02*
X81650000Y-89765000D01*
X85950000Y-86765000D02*
X85950000Y-89765000D01*
X104722500Y-84621500D02*
X100422500Y-84621500D01*
X104722500Y-81621500D02*
X104722500Y-84621500D01*
X100422500Y-81621500D02*
X104722500Y-81621500D01*
X100422500Y-84621500D02*
X100422500Y-81621500D01*
X80928620Y-110492000D02*
X80928620Y-117092000D01*
X80928620Y-110492000D02*
X74828620Y-110492000D01*
X80928620Y-117092000D02*
X74828620Y-117092000D01*
X74828620Y-110492000D02*
X74828620Y-117092000D01*
X98148080Y-51971520D02*
X98148080Y-45971520D01*
X98148080Y-51971520D02*
X94648080Y-51971520D01*
X94648080Y-45971520D02*
X94648080Y-51971520D01*
X98148080Y-45971520D02*
X94648080Y-45971520D01*
D14*
X81470824Y-84874333D02*
G75*
G03X81483200Y-81483200I1714176J1689333D01*
G01*
X81483200Y-81483200D02*
X81483200Y-84861400D01*
X62064667Y-52133824D02*
G75*
G03X65455800Y-52146200I1689333J-1714176D01*
G01*
X65455800Y-52146200D02*
X62077600Y-52146200D01*
D13*
X68326000Y-54102000D02*
X80010000Y-54102000D01*
X68326000Y-51078000D02*
X68326000Y-54078000D01*
X80010000Y-51054000D02*
X68326000Y-51054000D01*
X80010000Y-54102000D02*
X80010000Y-51054000D01*
X93547420Y-59827160D02*
X81863420Y-59827160D01*
X93547420Y-62851160D02*
X93547420Y-59851160D01*
X81863420Y-62875160D02*
X93547420Y-62875160D01*
X81863420Y-59827160D02*
X81863420Y-62875160D01*
X73914000Y-80264000D02*
X73914000Y-68580000D01*
X70890000Y-80264000D02*
X73890000Y-80264000D01*
X70866000Y-68580000D02*
X70866000Y-80264000D01*
X73914000Y-68580000D02*
X70866000Y-68580000D01*
X80169240Y-39362380D02*
X68485240Y-39362380D01*
X80169240Y-42386380D02*
X80169240Y-39386380D01*
X68485240Y-42410380D02*
X80169240Y-42410380D01*
X68485240Y-39362380D02*
X68485240Y-42410380D01*
X81778620Y-51153060D02*
X93462620Y-51153060D01*
X81778620Y-48129060D02*
X81778620Y-51129060D01*
X93462620Y-48105060D02*
X81778620Y-48105060D01*
X93462620Y-51153060D02*
X93462620Y-48105060D01*
X93563440Y-55587900D02*
X81879440Y-55587900D01*
X93563440Y-58611900D02*
X93563440Y-55611900D01*
X81879440Y-58635900D02*
X93563440Y-58635900D01*
X81879440Y-55587900D02*
X81879440Y-58635900D01*
X98869500Y-80899000D02*
X98869500Y-69215000D01*
X95845500Y-80899000D02*
X98845500Y-80899000D01*
X95821500Y-69215000D02*
X95821500Y-80899000D01*
X98869500Y-69215000D02*
X95821500Y-69215000D01*
X81778620Y-54818280D02*
X93462620Y-54818280D01*
X81778620Y-51794280D02*
X81778620Y-54794280D01*
X93462620Y-51770280D02*
X81778620Y-51770280D01*
X93462620Y-54818280D02*
X93462620Y-51770280D01*
X78486000Y-68436000D02*
X78486000Y-80120000D01*
X81510000Y-68436000D02*
X78510000Y-68436000D01*
X81534000Y-80120000D02*
X81534000Y-68436000D01*
X78486000Y-80120000D02*
X81534000Y-80120000D01*
X78168500Y-107632500D02*
X78168500Y-95948500D01*
X75144500Y-107632500D02*
X78144500Y-107632500D01*
X75120500Y-95948500D02*
X75120500Y-107632500D01*
X78168500Y-95948500D02*
X75120500Y-95948500D01*
X74676000Y-68326000D02*
X74676000Y-80010000D01*
X77700000Y-68326000D02*
X74700000Y-68326000D01*
X77724000Y-80010000D02*
X77724000Y-68326000D01*
X74676000Y-80010000D02*
X77724000Y-80010000D01*
D14*
X66294324Y-94399333D02*
G75*
G03X66306700Y-91008200I1714176J1689333D01*
G01*
X66306700Y-91008200D02*
X66306700Y-94386400D01*
D13*
X68326000Y-46228000D02*
X80010000Y-46228000D01*
X68326000Y-43204000D02*
X68326000Y-46204000D01*
X80010000Y-43180000D02*
X68326000Y-43180000D01*
X80010000Y-46228000D02*
X80010000Y-43180000D01*
D14*
X66339806Y-41910000D02*
G75*
G03X66339806Y-41910000I-2839806J0D01*
G01*
X66339806Y-114300000D02*
G75*
G03X66339806Y-114300000I-2839806J0D01*
G01*
X98089806Y-41910000D02*
G75*
G03X98089806Y-41910000I-2839806J0D01*
G01*
D12*
X67462751Y-112619840D02*
G75*
G02X67461000Y-115723000I2798249J-1553160D01*
G01*
X67461000Y-112623000D02*
X67461000Y-115723000D01*
X74572500Y-81003000D02*
X74572500Y-89003000D01*
X69572500Y-81003000D02*
X74572500Y-81003000D01*
X69572500Y-89003000D02*
X69572500Y-81003000D01*
X74572500Y-89003000D02*
X69572500Y-89003000D01*
D13*
X93440840Y-64700780D02*
X82690840Y-64700780D01*
X93440840Y-77450780D02*
X93440840Y-64700780D01*
X93190840Y-77450780D02*
X93440840Y-77450780D01*
X82690840Y-77450780D02*
X93190840Y-77450780D01*
X82690840Y-64700780D02*
X82690840Y-77450780D01*
D15*
X84544393Y-67200780D02*
G75*
G03X84544393Y-67200780I-353553J0D01*
G01*
D13*
X69495080Y-67386840D02*
X80245080Y-67386840D01*
X69495080Y-54636840D02*
X69495080Y-67386840D01*
X69745080Y-54636840D02*
X69495080Y-54636840D01*
X80245080Y-54636840D02*
X69745080Y-54636840D01*
X80245080Y-67386840D02*
X80245080Y-54636840D01*
D15*
X79098633Y-64886840D02*
G75*
G03X79098633Y-64886840I-353553J0D01*
G01*
D14*
X118770400Y-74396600D02*
X113766600Y-74396600D01*
D15*
X111983607Y-72390000D02*
G75*
G03X111983607Y-72390000I-223607J0D01*
G01*
D13*
X109960000Y-84390000D02*
X113560000Y-84390000D01*
X109960000Y-70590000D02*
X109960000Y-84390000D01*
X113560000Y-70590000D02*
X109960000Y-70590000D01*
D14*
X113741200Y-80416400D02*
X118770400Y-80416400D01*
X113563400Y-84378800D02*
X113563400Y-80416400D01*
X113563400Y-80416400D02*
X113766600Y-80416400D01*
X113563400Y-70586600D02*
X113563400Y-74396600D01*
X113563400Y-74396600D02*
X113766600Y-74396600D01*
X118770400Y-80416400D02*
X118770400Y-77444600D01*
X118770400Y-77444600D02*
X118770400Y-74396600D01*
D13*
X85603020Y-90714700D02*
X85353020Y-90714700D01*
X85603020Y-103964700D02*
X85603020Y-90714700D01*
X82103020Y-103964700D02*
X85603020Y-103964700D01*
X82103020Y-103714700D02*
X82103020Y-103964700D01*
X82103020Y-90714700D02*
X82103020Y-103714700D01*
X85353020Y-90714700D02*
X82103020Y-90714700D01*
X85603020Y-91714700D02*
X82103020Y-91714700D01*
X85567460Y-105180000D02*
X85317460Y-105180000D01*
X85567460Y-118430000D02*
X85567460Y-105180000D01*
X82067460Y-118430000D02*
X85567460Y-118430000D01*
X82067460Y-118180000D02*
X82067460Y-118430000D01*
X82067460Y-105180000D02*
X82067460Y-118180000D01*
X85317460Y-105180000D02*
X82067460Y-105180000D01*
X85567460Y-106180000D02*
X82067460Y-106180000D01*
D12*
X68158500Y-88034500D02*
X60158500Y-88034500D01*
X68158500Y-83034500D02*
X68158500Y-88034500D01*
X60158500Y-83034500D02*
X68158500Y-83034500D01*
X60158500Y-88034500D02*
X60158500Y-83034500D01*
X65187200Y-67589260D02*
X65187200Y-75589260D01*
X60187200Y-67589260D02*
X65187200Y-67589260D01*
X60187200Y-75589260D02*
X60187200Y-67589260D01*
X65187200Y-75589260D02*
X60187200Y-75589260D01*
X97068000Y-63904000D02*
X97068000Y-55904000D01*
X102068000Y-63904000D02*
X97068000Y-63904000D01*
X102068000Y-55904000D02*
X102068000Y-63904000D01*
X97068000Y-55904000D02*
X102068000Y-55904000D01*
X104671500Y-73176000D02*
X104671500Y-81176000D01*
X99671500Y-73176000D02*
X104671500Y-73176000D01*
X99671500Y-81176000D02*
X99671500Y-73176000D01*
X104671500Y-81176000D02*
X99671500Y-81176000D01*
X60028960Y-61553720D02*
X68028960Y-61553720D01*
X60028960Y-66553720D02*
X60028960Y-61553720D01*
X68028960Y-66553720D02*
X60028960Y-66553720D01*
X68028960Y-61553720D02*
X68028960Y-66553720D01*
X67968000Y-50760000D02*
X59968000Y-50760000D01*
X67968000Y-45760000D02*
X67968000Y-50760000D01*
X59968000Y-45760000D02*
X67968000Y-45760000D01*
X59968000Y-50760000D02*
X59968000Y-45760000D01*
X65238000Y-88940500D02*
X65238000Y-96940500D01*
X60238000Y-88940500D02*
X65238000Y-88940500D01*
X60238000Y-96940500D02*
X60238000Y-88940500D01*
X65238000Y-96940500D02*
X60238000Y-96940500D01*
D13*
X114180000Y-85980000D02*
X114180000Y-101980000D01*
X99180000Y-85980000D02*
X114180000Y-85980000D01*
X99180000Y-101980000D02*
X99180000Y-85980000D01*
X114180000Y-101980000D02*
X99180000Y-101980000D01*
X114154600Y-38245780D02*
X114154600Y-54245780D01*
X99154600Y-38245780D02*
X114154600Y-38245780D01*
X99154600Y-54245780D02*
X99154600Y-38245780D01*
X114154600Y-54245780D02*
X99154600Y-54245780D01*
X114180000Y-102998000D02*
X114180000Y-118998000D01*
X99180000Y-102998000D02*
X114180000Y-102998000D01*
X99180000Y-118998000D02*
X99180000Y-102998000D01*
X114180000Y-118998000D02*
X99180000Y-118998000D01*
D14*
X71386560Y-107580100D02*
X74383760Y-107580100D01*
X66662297Y-107605498D02*
G75*
G03X71386560Y-107580100I2362063J25398D01*
G01*
X58127760Y-107605500D02*
X66662160Y-107605500D01*
D12*
X71024922Y-107429500D02*
G75*
G03X71024922Y-107429500I-1952562J0D01*
G01*
X68072360Y-102679500D02*
G75*
G03X68072360Y-102679500I-1952562J0D01*
G01*
X74026303Y-102679500D02*
G75*
G03X74026303Y-102679500I-1903943J0D01*
G01*
X74372360Y-97928100D02*
X58127760Y-97928100D01*
X74383760Y-107628700D02*
X74372360Y-97928100D01*
X58127760Y-97928100D02*
X58127760Y-107605500D01*
D14*
X96213600Y-110208200D02*
X96213600Y-107211000D01*
X96238998Y-114932463D02*
G75*
G03X96213600Y-110208200I-25398J2362063D01*
G01*
X96239000Y-123467000D02*
X96239000Y-114932600D01*
D12*
X98015562Y-112522400D02*
G75*
G03X98015562Y-112522400I-1952562J0D01*
G01*
X93265562Y-115474962D02*
G75*
G03X93265562Y-115474962I-1952562J0D01*
G01*
X93216943Y-109472400D02*
G75*
G03X93216943Y-109472400I-1903943J0D01*
G01*
X86561600Y-107222400D02*
X86561600Y-123467000D01*
X96262200Y-107211000D02*
X86561600Y-107222400D01*
X86561600Y-123467000D02*
X96239000Y-123467000D01*
D14*
X113250980Y-55862220D02*
X103090980Y-55862220D01*
X113250980Y-68562220D02*
X113250980Y-55862220D01*
X103090980Y-68562220D02*
X113250980Y-68562220D01*
X103090980Y-68562220D02*
X103090980Y-55862220D01*
D12*
X87630000Y-82994500D02*
X88900000Y-81470500D01*
X97028000Y-81470500D02*
X98298000Y-82994500D01*
X98298000Y-101282500D02*
X87630000Y-101282500D01*
X89408000Y-102552500D02*
X87630000Y-102552500D01*
X91464000Y-102584500D02*
X91464000Y-101334500D01*
X91964000Y-102584500D02*
X91464000Y-102584500D01*
X94714000Y-102584500D02*
X94714000Y-101334500D01*
X94714000Y-102584500D02*
X93714000Y-102584500D01*
X98298000Y-102552500D02*
X96266000Y-102552500D01*
X97028000Y-81470500D02*
X88900000Y-81470500D01*
X87630000Y-106616500D02*
X87630000Y-82994500D01*
X98298000Y-106616500D02*
X87630000Y-106616500D01*
X98298000Y-82994500D02*
X98298000Y-106616500D01*
D16*
X63031643Y-72182117D02*
X63079262Y-72229736D01*
X63126881Y-72372593D01*
X63126881Y-72467831D01*
X63079262Y-72610689D01*
X62984024Y-72705927D01*
X62888786Y-72753546D01*
X62698310Y-72801165D01*
X62555452Y-72801165D01*
X62364976Y-72753546D01*
X62269738Y-72705927D01*
X62174500Y-72610689D01*
X62126881Y-72467831D01*
X62126881Y-72372593D01*
X62174500Y-72229736D01*
X62222119Y-72182117D01*
X63126881Y-71229736D02*
X63126881Y-71801165D01*
X63126881Y-71515451D02*
X62126881Y-71515451D01*
X62269738Y-71610689D01*
X62364976Y-71705927D01*
X62412595Y-71801165D01*
X62126881Y-70896403D02*
X62126881Y-70277355D01*
X62507833Y-70610689D01*
X62507833Y-70467831D01*
X62555452Y-70372593D01*
X62603071Y-70324974D01*
X62698310Y-70277355D01*
X62936405Y-70277355D01*
X63031643Y-70324974D01*
X63079262Y-70372593D01*
X63126881Y-70467831D01*
X63126881Y-70753546D01*
X63079262Y-70848784D01*
X63031643Y-70896403D01*
X63031643Y-72182117D02*
X63079262Y-72229736D01*
X63126881Y-72372593D01*
X63126881Y-72467831D01*
X63079262Y-72610689D01*
X62984024Y-72705927D01*
X62888786Y-72753546D01*
X62698310Y-72801165D01*
X62555452Y-72801165D01*
X62364976Y-72753546D01*
X62269738Y-72705927D01*
X62174500Y-72610689D01*
X62126881Y-72467831D01*
X62126881Y-72372593D01*
X62174500Y-72229736D01*
X62222119Y-72182117D01*
X63126881Y-71229736D02*
X63126881Y-71801165D01*
X63126881Y-71515451D02*
X62126881Y-71515451D01*
X62269738Y-71610689D01*
X62364976Y-71705927D01*
X62412595Y-71801165D01*
X62126881Y-70896403D02*
X62126881Y-70277355D01*
X62507833Y-70610689D01*
X62507833Y-70467831D01*
X62555452Y-70372593D01*
X62603071Y-70324974D01*
X62698310Y-70277355D01*
X62936405Y-70277355D01*
X63031643Y-70324974D01*
X63079262Y-70372593D01*
X63126881Y-70467831D01*
X63126881Y-70753546D01*
X63079262Y-70848784D01*
X63031643Y-70896403D01*
X63031643Y-72182117D02*
X63079262Y-72229736D01*
X63126881Y-72372593D01*
X63126881Y-72467831D01*
X63079262Y-72610689D01*
X62984024Y-72705927D01*
X62888786Y-72753546D01*
X62698310Y-72801165D01*
X62555452Y-72801165D01*
X62364976Y-72753546D01*
X62269738Y-72705927D01*
X62174500Y-72610689D01*
X62126881Y-72467831D01*
X62126881Y-72372593D01*
X62174500Y-72229736D01*
X62222119Y-72182117D01*
X63126881Y-71229736D02*
X63126881Y-71801165D01*
X63126881Y-71515451D02*
X62126881Y-71515451D01*
X62269738Y-71610689D01*
X62364976Y-71705927D01*
X62412595Y-71801165D01*
X62126881Y-70896403D02*
X62126881Y-70277355D01*
X62507833Y-70610689D01*
X62507833Y-70467831D01*
X62555452Y-70372593D01*
X62603071Y-70324974D01*
X62698310Y-70277355D01*
X62936405Y-70277355D01*
X63031643Y-70324974D01*
X63079262Y-70372593D01*
X63126881Y-70467831D01*
X63126881Y-70753546D01*
X63079262Y-70848784D01*
X63031643Y-70896403D01*
X63031643Y-72182117D02*
X63079262Y-72229736D01*
X63126881Y-72372593D01*
X63126881Y-72467831D01*
X63079262Y-72610689D01*
X62984024Y-72705927D01*
X62888786Y-72753546D01*
X62698310Y-72801165D01*
X62555452Y-72801165D01*
X62364976Y-72753546D01*
X62269738Y-72705927D01*
X62174500Y-72610689D01*
X62126881Y-72467831D01*
X62126881Y-72372593D01*
X62174500Y-72229736D01*
X62222119Y-72182117D01*
X63126881Y-71229736D02*
X63126881Y-71801165D01*
X63126881Y-71515451D02*
X62126881Y-71515451D01*
X62269738Y-71610689D01*
X62364976Y-71705927D01*
X62412595Y-71801165D01*
X62126881Y-70896403D02*
X62126881Y-70277355D01*
X62507833Y-70610689D01*
X62507833Y-70467831D01*
X62555452Y-70372593D01*
X62603071Y-70324974D01*
X62698310Y-70277355D01*
X62936405Y-70277355D01*
X63031643Y-70324974D01*
X63079262Y-70372593D01*
X63126881Y-70467831D01*
X63126881Y-70753546D01*
X63079262Y-70848784D01*
X63031643Y-70896403D01*
X63031643Y-72182117D02*
X63079262Y-72229736D01*
X63126881Y-72372593D01*
X63126881Y-72467831D01*
X63079262Y-72610689D01*
X62984024Y-72705927D01*
X62888786Y-72753546D01*
X62698310Y-72801165D01*
X62555452Y-72801165D01*
X62364976Y-72753546D01*
X62269738Y-72705927D01*
X62174500Y-72610689D01*
X62126881Y-72467831D01*
X62126881Y-72372593D01*
X62174500Y-72229736D01*
X62222119Y-72182117D01*
X63126881Y-71229736D02*
X63126881Y-71801165D01*
X63126881Y-71515451D02*
X62126881Y-71515451D01*
X62269738Y-71610689D01*
X62364976Y-71705927D01*
X62412595Y-71801165D01*
X62126881Y-70896403D02*
X62126881Y-70277355D01*
X62507833Y-70610689D01*
X62507833Y-70467831D01*
X62555452Y-70372593D01*
X62603071Y-70324974D01*
X62698310Y-70277355D01*
X62936405Y-70277355D01*
X63031643Y-70324974D01*
X63079262Y-70372593D01*
X63126881Y-70467831D01*
X63126881Y-70753546D01*
X63079262Y-70848784D01*
X63031643Y-70896403D01*
X63031643Y-72182117D02*
X63079262Y-72229736D01*
X63126881Y-72372593D01*
X63126881Y-72467831D01*
X63079262Y-72610689D01*
X62984024Y-72705927D01*
X62888786Y-72753546D01*
X62698310Y-72801165D01*
X62555452Y-72801165D01*
X62364976Y-72753546D01*
X62269738Y-72705927D01*
X62174500Y-72610689D01*
X62126881Y-72467831D01*
X62126881Y-72372593D01*
X62174500Y-72229736D01*
X62222119Y-72182117D01*
X63126881Y-71229736D02*
X63126881Y-71801165D01*
X63126881Y-71515451D02*
X62126881Y-71515451D01*
X62269738Y-71610689D01*
X62364976Y-71705927D01*
X62412595Y-71801165D01*
X62126881Y-70896403D02*
X62126881Y-70277355D01*
X62507833Y-70610689D01*
X62507833Y-70467831D01*
X62555452Y-70372593D01*
X62603071Y-70324974D01*
X62698310Y-70277355D01*
X62936405Y-70277355D01*
X63031643Y-70324974D01*
X63079262Y-70372593D01*
X63126881Y-70467831D01*
X63126881Y-70753546D01*
X63079262Y-70848784D01*
X63031643Y-70896403D01*
X63031643Y-72182117D02*
X63079262Y-72229736D01*
X63126881Y-72372593D01*
X63126881Y-72467831D01*
X63079262Y-72610689D01*
X62984024Y-72705927D01*
X62888786Y-72753546D01*
X62698310Y-72801165D01*
X62555452Y-72801165D01*
X62364976Y-72753546D01*
X62269738Y-72705927D01*
X62174500Y-72610689D01*
X62126881Y-72467831D01*
X62126881Y-72372593D01*
X62174500Y-72229736D01*
X62222119Y-72182117D01*
X63126881Y-71229736D02*
X63126881Y-71801165D01*
X63126881Y-71515451D02*
X62126881Y-71515451D01*
X62269738Y-71610689D01*
X62364976Y-71705927D01*
X62412595Y-71801165D01*
X62126881Y-70896403D02*
X62126881Y-70277355D01*
X62507833Y-70610689D01*
X62507833Y-70467831D01*
X62555452Y-70372593D01*
X62603071Y-70324974D01*
X62698310Y-70277355D01*
X62936405Y-70277355D01*
X63031643Y-70324974D01*
X63079262Y-70372593D01*
X63126881Y-70467831D01*
X63126881Y-70753546D01*
X63079262Y-70848784D01*
X63031643Y-70896403D01*
X63031643Y-72182117D02*
X63079262Y-72229736D01*
X63126881Y-72372593D01*
X63126881Y-72467831D01*
X63079262Y-72610689D01*
X62984024Y-72705927D01*
X62888786Y-72753546D01*
X62698310Y-72801165D01*
X62555452Y-72801165D01*
X62364976Y-72753546D01*
X62269738Y-72705927D01*
X62174500Y-72610689D01*
X62126881Y-72467831D01*
X62126881Y-72372593D01*
X62174500Y-72229736D01*
X62222119Y-72182117D01*
X63126881Y-71229736D02*
X63126881Y-71801165D01*
X63126881Y-71515451D02*
X62126881Y-71515451D01*
X62269738Y-71610689D01*
X62364976Y-71705927D01*
X62412595Y-71801165D01*
X62126881Y-70896403D02*
X62126881Y-70277355D01*
X62507833Y-70610689D01*
X62507833Y-70467831D01*
X62555452Y-70372593D01*
X62603071Y-70324974D01*
X62698310Y-70277355D01*
X62936405Y-70277355D01*
X63031643Y-70324974D01*
X63079262Y-70372593D01*
X63126881Y-70467831D01*
X63126881Y-70753546D01*
X63079262Y-70848784D01*
X63031643Y-70896403D01*
X63031643Y-72182117D02*
X63079262Y-72229736D01*
X63126881Y-72372593D01*
X63126881Y-72467831D01*
X63079262Y-72610689D01*
X62984024Y-72705927D01*
X62888786Y-72753546D01*
X62698310Y-72801165D01*
X62555452Y-72801165D01*
X62364976Y-72753546D01*
X62269738Y-72705927D01*
X62174500Y-72610689D01*
X62126881Y-72467831D01*
X62126881Y-72372593D01*
X62174500Y-72229736D01*
X62222119Y-72182117D01*
X63126881Y-71229736D02*
X63126881Y-71801165D01*
X63126881Y-71515451D02*
X62126881Y-71515451D01*
X62269738Y-71610689D01*
X62364976Y-71705927D01*
X62412595Y-71801165D01*
X62126881Y-70896403D02*
X62126881Y-70277355D01*
X62507833Y-70610689D01*
X62507833Y-70467831D01*
X62555452Y-70372593D01*
X62603071Y-70324974D01*
X62698310Y-70277355D01*
X62936405Y-70277355D01*
X63031643Y-70324974D01*
X63079262Y-70372593D01*
X63126881Y-70467831D01*
X63126881Y-70753546D01*
X63079262Y-70848784D01*
X63031643Y-70896403D01*
X63031643Y-72182117D02*
X63079262Y-72229736D01*
X63126881Y-72372593D01*
X63126881Y-72467831D01*
X63079262Y-72610689D01*
X62984024Y-72705927D01*
X62888786Y-72753546D01*
X62698310Y-72801165D01*
X62555452Y-72801165D01*
X62364976Y-72753546D01*
X62269738Y-72705927D01*
X62174500Y-72610689D01*
X62126881Y-72467831D01*
X62126881Y-72372593D01*
X62174500Y-72229736D01*
X62222119Y-72182117D01*
X63126881Y-71229736D02*
X63126881Y-71801165D01*
X63126881Y-71515451D02*
X62126881Y-71515451D01*
X62269738Y-71610689D01*
X62364976Y-71705927D01*
X62412595Y-71801165D01*
X62126881Y-70896403D02*
X62126881Y-70277355D01*
X62507833Y-70610689D01*
X62507833Y-70467831D01*
X62555452Y-70372593D01*
X62603071Y-70324974D01*
X62698310Y-70277355D01*
X62936405Y-70277355D01*
X63031643Y-70324974D01*
X63079262Y-70372593D01*
X63126881Y-70467831D01*
X63126881Y-70753546D01*
X63079262Y-70848784D01*
X63031643Y-70896403D01*
X63031643Y-72182117D02*
X63079262Y-72229736D01*
X63126881Y-72372593D01*
X63126881Y-72467831D01*
X63079262Y-72610689D01*
X62984024Y-72705927D01*
X62888786Y-72753546D01*
X62698310Y-72801165D01*
X62555452Y-72801165D01*
X62364976Y-72753546D01*
X62269738Y-72705927D01*
X62174500Y-72610689D01*
X62126881Y-72467831D01*
X62126881Y-72372593D01*
X62174500Y-72229736D01*
X62222119Y-72182117D01*
X63126881Y-71229736D02*
X63126881Y-71801165D01*
X63126881Y-71515451D02*
X62126881Y-71515451D01*
X62269738Y-71610689D01*
X62364976Y-71705927D01*
X62412595Y-71801165D01*
X62126881Y-70896403D02*
X62126881Y-70277355D01*
X62507833Y-70610689D01*
X62507833Y-70467831D01*
X62555452Y-70372593D01*
X62603071Y-70324974D01*
X62698310Y-70277355D01*
X62936405Y-70277355D01*
X63031643Y-70324974D01*
X63079262Y-70372593D01*
X63126881Y-70467831D01*
X63126881Y-70753546D01*
X63079262Y-70848784D01*
X63031643Y-70896403D01*
X63031643Y-72182117D02*
X63079262Y-72229736D01*
X63126881Y-72372593D01*
X63126881Y-72467831D01*
X63079262Y-72610689D01*
X62984024Y-72705927D01*
X62888786Y-72753546D01*
X62698310Y-72801165D01*
X62555452Y-72801165D01*
X62364976Y-72753546D01*
X62269738Y-72705927D01*
X62174500Y-72610689D01*
X62126881Y-72467831D01*
X62126881Y-72372593D01*
X62174500Y-72229736D01*
X62222119Y-72182117D01*
X63126881Y-71229736D02*
X63126881Y-71801165D01*
X63126881Y-71515451D02*
X62126881Y-71515451D01*
X62269738Y-71610689D01*
X62364976Y-71705927D01*
X62412595Y-71801165D01*
X62126881Y-70896403D02*
X62126881Y-70277355D01*
X62507833Y-70610689D01*
X62507833Y-70467831D01*
X62555452Y-70372593D01*
X62603071Y-70324974D01*
X62698310Y-70277355D01*
X62936405Y-70277355D01*
X63031643Y-70324974D01*
X63079262Y-70372593D01*
X63126881Y-70467831D01*
X63126881Y-70753546D01*
X63079262Y-70848784D01*
X63031643Y-70896403D01*
X63031643Y-72182117D02*
X63079262Y-72229736D01*
X63126881Y-72372593D01*
X63126881Y-72467831D01*
X63079262Y-72610689D01*
X62984024Y-72705927D01*
X62888786Y-72753546D01*
X62698310Y-72801165D01*
X62555452Y-72801165D01*
X62364976Y-72753546D01*
X62269738Y-72705927D01*
X62174500Y-72610689D01*
X62126881Y-72467831D01*
X62126881Y-72372593D01*
X62174500Y-72229736D01*
X62222119Y-72182117D01*
X63126881Y-71229736D02*
X63126881Y-71801165D01*
X63126881Y-71515451D02*
X62126881Y-71515451D01*
X62269738Y-71610689D01*
X62364976Y-71705927D01*
X62412595Y-71801165D01*
X62126881Y-70896403D02*
X62126881Y-70277355D01*
X62507833Y-70610689D01*
X62507833Y-70467831D01*
X62555452Y-70372593D01*
X62603071Y-70324974D01*
X62698310Y-70277355D01*
X62936405Y-70277355D01*
X63031643Y-70324974D01*
X63079262Y-70372593D01*
X63126881Y-70467831D01*
X63126881Y-70753546D01*
X63079262Y-70848784D01*
X63031643Y-70896403D01*
X63031643Y-72182117D02*
X63079262Y-72229736D01*
X63126881Y-72372593D01*
X63126881Y-72467831D01*
X63079262Y-72610689D01*
X62984024Y-72705927D01*
X62888786Y-72753546D01*
X62698310Y-72801165D01*
X62555452Y-72801165D01*
X62364976Y-72753546D01*
X62269738Y-72705927D01*
X62174500Y-72610689D01*
X62126881Y-72467831D01*
X62126881Y-72372593D01*
X62174500Y-72229736D01*
X62222119Y-72182117D01*
X63126881Y-71229736D02*
X63126881Y-71801165D01*
X63126881Y-71515451D02*
X62126881Y-71515451D01*
X62269738Y-71610689D01*
X62364976Y-71705927D01*
X62412595Y-71801165D01*
X62126881Y-70896403D02*
X62126881Y-70277355D01*
X62507833Y-70610689D01*
X62507833Y-70467831D01*
X62555452Y-70372593D01*
X62603071Y-70324974D01*
X62698310Y-70277355D01*
X62936405Y-70277355D01*
X63031643Y-70324974D01*
X63079262Y-70372593D01*
X63126881Y-70467831D01*
X63126881Y-70753546D01*
X63079262Y-70848784D01*
X63031643Y-70896403D01*
X63031643Y-72182117D02*
X63079262Y-72229736D01*
X63126881Y-72372593D01*
X63126881Y-72467831D01*
X63079262Y-72610689D01*
X62984024Y-72705927D01*
X62888786Y-72753546D01*
X62698310Y-72801165D01*
X62555452Y-72801165D01*
X62364976Y-72753546D01*
X62269738Y-72705927D01*
X62174500Y-72610689D01*
X62126881Y-72467831D01*
X62126881Y-72372593D01*
X62174500Y-72229736D01*
X62222119Y-72182117D01*
X63126881Y-71229736D02*
X63126881Y-71801165D01*
X63126881Y-71515451D02*
X62126881Y-71515451D01*
X62269738Y-71610689D01*
X62364976Y-71705927D01*
X62412595Y-71801165D01*
X62126881Y-70896403D02*
X62126881Y-70277355D01*
X62507833Y-70610689D01*
X62507833Y-70467831D01*
X62555452Y-70372593D01*
X62603071Y-70324974D01*
X62698310Y-70277355D01*
X62936405Y-70277355D01*
X63031643Y-70324974D01*
X63079262Y-70372593D01*
X63126881Y-70467831D01*
X63126881Y-70753546D01*
X63079262Y-70848784D01*
X63031643Y-70896403D01*
X63031643Y-72182117D02*
X63079262Y-72229736D01*
X63126881Y-72372593D01*
X63126881Y-72467831D01*
X63079262Y-72610689D01*
X62984024Y-72705927D01*
X62888786Y-72753546D01*
X62698310Y-72801165D01*
X62555452Y-72801165D01*
X62364976Y-72753546D01*
X62269738Y-72705927D01*
X62174500Y-72610689D01*
X62126881Y-72467831D01*
X62126881Y-72372593D01*
X62174500Y-72229736D01*
X62222119Y-72182117D01*
X63126881Y-71229736D02*
X63126881Y-71801165D01*
X63126881Y-71515451D02*
X62126881Y-71515451D01*
X62269738Y-71610689D01*
X62364976Y-71705927D01*
X62412595Y-71801165D01*
X62126881Y-70896403D02*
X62126881Y-70277355D01*
X62507833Y-70610689D01*
X62507833Y-70467831D01*
X62555452Y-70372593D01*
X62603071Y-70324974D01*
X62698310Y-70277355D01*
X62936405Y-70277355D01*
X63031643Y-70324974D01*
X63079262Y-70372593D01*
X63126881Y-70467831D01*
X63126881Y-70753546D01*
X63079262Y-70848784D01*
X63031643Y-70896403D01*
X63031643Y-72182117D02*
X63079262Y-72229736D01*
X63126881Y-72372593D01*
X63126881Y-72467831D01*
X63079262Y-72610689D01*
X62984024Y-72705927D01*
X62888786Y-72753546D01*
X62698310Y-72801165D01*
X62555452Y-72801165D01*
X62364976Y-72753546D01*
X62269738Y-72705927D01*
X62174500Y-72610689D01*
X62126881Y-72467831D01*
X62126881Y-72372593D01*
X62174500Y-72229736D01*
X62222119Y-72182117D01*
X63126881Y-71229736D02*
X63126881Y-71801165D01*
X63126881Y-71515451D02*
X62126881Y-71515451D01*
X62269738Y-71610689D01*
X62364976Y-71705927D01*
X62412595Y-71801165D01*
X62126881Y-70896403D02*
X62126881Y-70277355D01*
X62507833Y-70610689D01*
X62507833Y-70467831D01*
X62555452Y-70372593D01*
X62603071Y-70324974D01*
X62698310Y-70277355D01*
X62936405Y-70277355D01*
X63031643Y-70324974D01*
X63079262Y-70372593D01*
X63126881Y-70467831D01*
X63126881Y-70753546D01*
X63079262Y-70848784D01*
X63031643Y-70896403D01*
X63031643Y-72182117D02*
X63079262Y-72229736D01*
X63126881Y-72372593D01*
X63126881Y-72467831D01*
X63079262Y-72610689D01*
X62984024Y-72705927D01*
X62888786Y-72753546D01*
X62698310Y-72801165D01*
X62555452Y-72801165D01*
X62364976Y-72753546D01*
X62269738Y-72705927D01*
X62174500Y-72610689D01*
X62126881Y-72467831D01*
X62126881Y-72372593D01*
X62174500Y-72229736D01*
X62222119Y-72182117D01*
X63126881Y-71229736D02*
X63126881Y-71801165D01*
X63126881Y-71515451D02*
X62126881Y-71515451D01*
X62269738Y-71610689D01*
X62364976Y-71705927D01*
X62412595Y-71801165D01*
X62126881Y-70896403D02*
X62126881Y-70277355D01*
X62507833Y-70610689D01*
X62507833Y-70467831D01*
X62555452Y-70372593D01*
X62603071Y-70324974D01*
X62698310Y-70277355D01*
X62936405Y-70277355D01*
X63031643Y-70324974D01*
X63079262Y-70372593D01*
X63126881Y-70467831D01*
X63126881Y-70753546D01*
X63079262Y-70848784D01*
X63031643Y-70896403D01*
X63031643Y-72182117D02*
X63079262Y-72229736D01*
X63126881Y-72372593D01*
X63126881Y-72467831D01*
X63079262Y-72610689D01*
X62984024Y-72705927D01*
X62888786Y-72753546D01*
X62698310Y-72801165D01*
X62555452Y-72801165D01*
X62364976Y-72753546D01*
X62269738Y-72705927D01*
X62174500Y-72610689D01*
X62126881Y-72467831D01*
X62126881Y-72372593D01*
X62174500Y-72229736D01*
X62222119Y-72182117D01*
X63126881Y-71229736D02*
X63126881Y-71801165D01*
X63126881Y-71515451D02*
X62126881Y-71515451D01*
X62269738Y-71610689D01*
X62364976Y-71705927D01*
X62412595Y-71801165D01*
X62126881Y-70896403D02*
X62126881Y-70277355D01*
X62507833Y-70610689D01*
X62507833Y-70467831D01*
X62555452Y-70372593D01*
X62603071Y-70324974D01*
X62698310Y-70277355D01*
X62936405Y-70277355D01*
X63031643Y-70324974D01*
X63079262Y-70372593D01*
X63126881Y-70467831D01*
X63126881Y-70753546D01*
X63079262Y-70848784D01*
X63031643Y-70896403D01*
X63031643Y-72182117D02*
X63079262Y-72229736D01*
X63126881Y-72372593D01*
X63126881Y-72467831D01*
X63079262Y-72610689D01*
X62984024Y-72705927D01*
X62888786Y-72753546D01*
X62698310Y-72801165D01*
X62555452Y-72801165D01*
X62364976Y-72753546D01*
X62269738Y-72705927D01*
X62174500Y-72610689D01*
X62126881Y-72467831D01*
X62126881Y-72372593D01*
X62174500Y-72229736D01*
X62222119Y-72182117D01*
X63126881Y-71229736D02*
X63126881Y-71801165D01*
X63126881Y-71515451D02*
X62126881Y-71515451D01*
X62269738Y-71610689D01*
X62364976Y-71705927D01*
X62412595Y-71801165D01*
X62126881Y-70896403D02*
X62126881Y-70277355D01*
X62507833Y-70610689D01*
X62507833Y-70467831D01*
X62555452Y-70372593D01*
X62603071Y-70324974D01*
X62698310Y-70277355D01*
X62936405Y-70277355D01*
X63031643Y-70324974D01*
X63079262Y-70372593D01*
X63126881Y-70467831D01*
X63126881Y-70753546D01*
X63079262Y-70848784D01*
X63031643Y-70896403D01*
X80589381Y-103188357D02*
X80113190Y-103521691D01*
X80589381Y-103759786D02*
X79589381Y-103759786D01*
X79589381Y-103378833D01*
X79637000Y-103283595D01*
X79684619Y-103235976D01*
X79779857Y-103188357D01*
X79922714Y-103188357D01*
X80017952Y-103235976D01*
X80065571Y-103283595D01*
X80113190Y-103378833D01*
X80113190Y-103759786D01*
X80589381Y-102235976D02*
X80589381Y-102807405D01*
X80589381Y-102521691D02*
X79589381Y-102521691D01*
X79732238Y-102616929D01*
X79827476Y-102712167D01*
X79875095Y-102807405D01*
X79589381Y-101902643D02*
X79589381Y-101283595D01*
X79970333Y-101616929D01*
X79970333Y-101474071D01*
X80017952Y-101378833D01*
X80065571Y-101331214D01*
X80160810Y-101283595D01*
X80398905Y-101283595D01*
X80494143Y-101331214D01*
X80541762Y-101378833D01*
X80589381Y-101474071D01*
X80589381Y-101759786D01*
X80541762Y-101855024D01*
X80494143Y-101902643D01*
X77414381Y-86865857D02*
X76938190Y-87199191D01*
X77414381Y-87437286D02*
X76414381Y-87437286D01*
X76414381Y-87056333D01*
X76462000Y-86961095D01*
X76509619Y-86913476D01*
X76604857Y-86865857D01*
X76747714Y-86865857D01*
X76842952Y-86913476D01*
X76890571Y-86961095D01*
X76938190Y-87056333D01*
X76938190Y-87437286D01*
X77414381Y-85913476D02*
X77414381Y-86484905D01*
X77414381Y-86199191D02*
X76414381Y-86199191D01*
X76557238Y-86294429D01*
X76652476Y-86389667D01*
X76700095Y-86484905D01*
X76747714Y-85056333D02*
X77414381Y-85056333D01*
X76366762Y-85294429D02*
X77081048Y-85532524D01*
X77081048Y-84913476D01*
D11*
X64431333Y-78818619D02*
X64431333Y-79544333D01*
X64382953Y-79689476D01*
X64286191Y-79786238D01*
X64141048Y-79834619D01*
X64044286Y-79834619D01*
X65398952Y-78818619D02*
X64915143Y-78818619D01*
X64866762Y-79302429D01*
X64915143Y-79254048D01*
X65011905Y-79205667D01*
X65253809Y-79205667D01*
X65350571Y-79254048D01*
X65398952Y-79302429D01*
X65447333Y-79399190D01*
X65447333Y-79641095D01*
X65398952Y-79737857D01*
X65350571Y-79786238D01*
X65253809Y-79834619D01*
X65011905Y-79834619D01*
X64915143Y-79786238D01*
X64866762Y-79737857D01*
D16*
X64227734Y-59465483D02*
X64180115Y-59513102D01*
X64037258Y-59560721D01*
X63942020Y-59560721D01*
X63799162Y-59513102D01*
X63703924Y-59417864D01*
X63656305Y-59322626D01*
X63608686Y-59132150D01*
X63608686Y-58989292D01*
X63656305Y-58798816D01*
X63703924Y-58703578D01*
X63799162Y-58608340D01*
X63942020Y-58560721D01*
X64037258Y-58560721D01*
X64180115Y-58608340D01*
X64227734Y-58655959D01*
X64799162Y-58989292D02*
X64703924Y-58941673D01*
X64656305Y-58894054D01*
X64608686Y-58798816D01*
X64608686Y-58751197D01*
X64656305Y-58655959D01*
X64703924Y-58608340D01*
X64799162Y-58560721D01*
X64989639Y-58560721D01*
X65084877Y-58608340D01*
X65132496Y-58655959D01*
X65180115Y-58751197D01*
X65180115Y-58798816D01*
X65132496Y-58894054D01*
X65084877Y-58941673D01*
X64989639Y-58989292D01*
X64799162Y-58989292D01*
X64703924Y-59036911D01*
X64656305Y-59084530D01*
X64608686Y-59179769D01*
X64608686Y-59370245D01*
X64656305Y-59465483D01*
X64703924Y-59513102D01*
X64799162Y-59560721D01*
X64989639Y-59560721D01*
X65084877Y-59513102D01*
X65132496Y-59465483D01*
X65180115Y-59370245D01*
X65180115Y-59179769D01*
X65132496Y-59084530D01*
X65084877Y-59036911D01*
X64989639Y-58989292D01*
X73488414Y-49012101D02*
X73155080Y-48535910D01*
X72916985Y-49012101D02*
X72916985Y-48012101D01*
X73297938Y-48012101D01*
X73393176Y-48059720D01*
X73440795Y-48107339D01*
X73488414Y-48202577D01*
X73488414Y-48345434D01*
X73440795Y-48440672D01*
X73393176Y-48488291D01*
X73297938Y-48535910D01*
X72916985Y-48535910D01*
X73869366Y-48107339D02*
X73916985Y-48059720D01*
X74012223Y-48012101D01*
X74250319Y-48012101D01*
X74345557Y-48059720D01*
X74393176Y-48107339D01*
X74440795Y-48202577D01*
X74440795Y-48297815D01*
X74393176Y-48440672D01*
X73821747Y-49012101D01*
X74440795Y-49012101D01*
D17*
X84569905Y-43337238D02*
X84715048Y-43385619D01*
X84956952Y-43385619D01*
X85053714Y-43337238D01*
X85102095Y-43288857D01*
X85150476Y-43192095D01*
X85150476Y-43095333D01*
X85102095Y-42998571D01*
X85053714Y-42950190D01*
X84956952Y-42901810D01*
X84763429Y-42853429D01*
X84666667Y-42805048D01*
X84618286Y-42756667D01*
X84569905Y-42659905D01*
X84569905Y-42563143D01*
X84618286Y-42466381D01*
X84666667Y-42418000D01*
X84763429Y-42369619D01*
X85005333Y-42369619D01*
X85150476Y-42418000D01*
X85585905Y-43385619D02*
X85585905Y-42369619D01*
X85924571Y-43095333D01*
X86263238Y-42369619D01*
X86263238Y-43385619D01*
X86698667Y-43095333D02*
X87182476Y-43095333D01*
X86601905Y-43385619D02*
X86940572Y-42369619D01*
X87279238Y-43385619D01*
X88150095Y-43385619D02*
X87569524Y-43385619D01*
X87859810Y-43385619D02*
X87859810Y-42369619D01*
X87763048Y-42514762D01*
X87666286Y-42611524D01*
X87569524Y-42659905D01*
D16*
X91888334Y-79732143D02*
X91840715Y-79779762D01*
X91697858Y-79827381D01*
X91602620Y-79827381D01*
X91459762Y-79779762D01*
X91364524Y-79684524D01*
X91316905Y-79589286D01*
X91269286Y-79398810D01*
X91269286Y-79255952D01*
X91316905Y-79065476D01*
X91364524Y-78970238D01*
X91459762Y-78875000D01*
X91602620Y-78827381D01*
X91697858Y-78827381D01*
X91840715Y-78875000D01*
X91888334Y-78922619D01*
X92793096Y-78827381D02*
X92316905Y-78827381D01*
X92269286Y-79303571D01*
X92316905Y-79255952D01*
X92412143Y-79208333D01*
X92650239Y-79208333D01*
X92745477Y-79255952D01*
X92793096Y-79303571D01*
X92840715Y-79398810D01*
X92840715Y-79636905D01*
X92793096Y-79732143D01*
X92745477Y-79779762D01*
X92650239Y-79827381D01*
X92412143Y-79827381D01*
X92316905Y-79779762D01*
X92269286Y-79732143D01*
X101730834Y-71540643D02*
X101683215Y-71588262D01*
X101540358Y-71635881D01*
X101445120Y-71635881D01*
X101302262Y-71588262D01*
X101207024Y-71493024D01*
X101159405Y-71397786D01*
X101111786Y-71207310D01*
X101111786Y-71064452D01*
X101159405Y-70873976D01*
X101207024Y-70778738D01*
X101302262Y-70683500D01*
X101445120Y-70635881D01*
X101540358Y-70635881D01*
X101683215Y-70683500D01*
X101730834Y-70731119D01*
X102587977Y-70635881D02*
X102397500Y-70635881D01*
X102302262Y-70683500D01*
X102254643Y-70731119D01*
X102159405Y-70873976D01*
X102111786Y-71064452D01*
X102111786Y-71445405D01*
X102159405Y-71540643D01*
X102207024Y-71588262D01*
X102302262Y-71635881D01*
X102492739Y-71635881D01*
X102587977Y-71588262D01*
X102635596Y-71540643D01*
X102683215Y-71445405D01*
X102683215Y-71207310D01*
X102635596Y-71112071D01*
X102587977Y-71064452D01*
X102492739Y-71016833D01*
X102302262Y-71016833D01*
X102207024Y-71064452D01*
X102159405Y-71112071D01*
X102111786Y-71207310D01*
X98651143Y-66905143D02*
X98603524Y-66952762D01*
X98460667Y-67000381D01*
X98365429Y-67000381D01*
X98222571Y-66952762D01*
X98127333Y-66857524D01*
X98079714Y-66762286D01*
X98032095Y-66571810D01*
X98032095Y-66428952D01*
X98079714Y-66238476D01*
X98127333Y-66143238D01*
X98222571Y-66048000D01*
X98365429Y-66000381D01*
X98460667Y-66000381D01*
X98603524Y-66048000D01*
X98651143Y-66095619D01*
X99603524Y-67000381D02*
X99032095Y-67000381D01*
X99317809Y-67000381D02*
X99317809Y-66000381D01*
X99222571Y-66143238D01*
X99127333Y-66238476D01*
X99032095Y-66286095D01*
X100222571Y-66000381D02*
X100317810Y-66000381D01*
X100413048Y-66048000D01*
X100460667Y-66095619D01*
X100508286Y-66190857D01*
X100555905Y-66381333D01*
X100555905Y-66619429D01*
X100508286Y-66809905D01*
X100460667Y-66905143D01*
X100413048Y-66952762D01*
X100317810Y-67000381D01*
X100222571Y-67000381D01*
X100127333Y-66952762D01*
X100079714Y-66905143D01*
X100032095Y-66809905D01*
X99984476Y-66619429D01*
X99984476Y-66381333D01*
X100032095Y-66190857D01*
X100079714Y-66095619D01*
X100127333Y-66048000D01*
X100222571Y-66000381D01*
X83157143Y-88622143D02*
X83109524Y-88669762D01*
X82966667Y-88717381D01*
X82871429Y-88717381D01*
X82728571Y-88669762D01*
X82633333Y-88574524D01*
X82585714Y-88479286D01*
X82538095Y-88288810D01*
X82538095Y-88145952D01*
X82585714Y-87955476D01*
X82633333Y-87860238D01*
X82728571Y-87765000D01*
X82871429Y-87717381D01*
X82966667Y-87717381D01*
X83109524Y-87765000D01*
X83157143Y-87812619D01*
X84109524Y-88717381D02*
X83538095Y-88717381D01*
X83823809Y-88717381D02*
X83823809Y-87717381D01*
X83728571Y-87860238D01*
X83633333Y-87955476D01*
X83538095Y-88003095D01*
X84490476Y-87812619D02*
X84538095Y-87765000D01*
X84633333Y-87717381D01*
X84871429Y-87717381D01*
X84966667Y-87765000D01*
X85014286Y-87812619D01*
X85061905Y-87907857D01*
X85061905Y-88003095D01*
X85014286Y-88145952D01*
X84442857Y-88717381D01*
X85061905Y-88717381D01*
X101929643Y-83478643D02*
X101882024Y-83526262D01*
X101739167Y-83573881D01*
X101643929Y-83573881D01*
X101501071Y-83526262D01*
X101405833Y-83431024D01*
X101358214Y-83335786D01*
X101310595Y-83145310D01*
X101310595Y-83002452D01*
X101358214Y-82811976D01*
X101405833Y-82716738D01*
X101501071Y-82621500D01*
X101643929Y-82573881D01*
X101739167Y-82573881D01*
X101882024Y-82621500D01*
X101929643Y-82669119D01*
X102882024Y-83573881D02*
X102310595Y-83573881D01*
X102596309Y-83573881D02*
X102596309Y-82573881D01*
X102501071Y-82716738D01*
X102405833Y-82811976D01*
X102310595Y-82859595D01*
X103786786Y-82573881D02*
X103310595Y-82573881D01*
X103262976Y-83050071D01*
X103310595Y-83002452D01*
X103405833Y-82954833D01*
X103643929Y-82954833D01*
X103739167Y-83002452D01*
X103786786Y-83050071D01*
X103834405Y-83145310D01*
X103834405Y-83383405D01*
X103786786Y-83478643D01*
X103739167Y-83526262D01*
X103643929Y-83573881D01*
X103405833Y-83573881D01*
X103310595Y-83526262D01*
X103262976Y-83478643D01*
D11*
X77302239Y-114130667D02*
X78027953Y-114130667D01*
X78173096Y-114179047D01*
X78269858Y-114275809D01*
X78318239Y-114420952D01*
X78318239Y-114517714D01*
X77399001Y-113695238D02*
X77350620Y-113646857D01*
X77302239Y-113550095D01*
X77302239Y-113308191D01*
X77350620Y-113211429D01*
X77399001Y-113163048D01*
X77495763Y-113114667D01*
X77592525Y-113114667D01*
X77737668Y-113163048D01*
X78318239Y-113743619D01*
X78318239Y-113114667D01*
X96857699Y-50664853D02*
X96857699Y-51148662D01*
X95841699Y-51148662D01*
X96567413Y-50374567D02*
X96567413Y-49890758D01*
X96857699Y-50471329D02*
X95841699Y-50132662D01*
X96857699Y-49793996D01*
X96857699Y-49455329D02*
X95841699Y-49455329D01*
X96567413Y-49116663D01*
X95841699Y-48777996D01*
X96857699Y-48777996D01*
X96857699Y-48294186D02*
X95841699Y-48294186D01*
X95841699Y-47907139D01*
X95890080Y-47810377D01*
X95938461Y-47761996D01*
X96035223Y-47713615D01*
X96180366Y-47713615D01*
X96277128Y-47761996D01*
X96325509Y-47810377D01*
X96373890Y-47907139D01*
X96373890Y-48294186D01*
X96857699Y-46745996D02*
X96857699Y-47326567D01*
X96857699Y-47036281D02*
X95841699Y-47036281D01*
X95986842Y-47133043D01*
X96083604Y-47229805D01*
X96131985Y-47326567D01*
D16*
X83089762Y-83662619D02*
X82994524Y-83615000D01*
X82899286Y-83519762D01*
X82756429Y-83376905D01*
X82661190Y-83329286D01*
X82565952Y-83329286D01*
X82613571Y-83567381D02*
X82518333Y-83519762D01*
X82423095Y-83424524D01*
X82375476Y-83234048D01*
X82375476Y-82900714D01*
X82423095Y-82710238D01*
X82518333Y-82615000D01*
X82613571Y-82567381D01*
X82804048Y-82567381D01*
X82899286Y-82615000D01*
X82994524Y-82710238D01*
X83042143Y-82900714D01*
X83042143Y-83234048D01*
X82994524Y-83424524D01*
X82899286Y-83519762D01*
X82804048Y-83567381D01*
X82613571Y-83567381D01*
X83994524Y-83567381D02*
X83423095Y-83567381D01*
X83708809Y-83567381D02*
X83708809Y-82567381D01*
X83613571Y-82710238D01*
X83518333Y-82805476D01*
X83423095Y-82853095D01*
X64371619Y-53943238D02*
X64324000Y-54038476D01*
X64228762Y-54133714D01*
X64085905Y-54276571D01*
X64038286Y-54371810D01*
X64038286Y-54467048D01*
X64276381Y-54419429D02*
X64228762Y-54514667D01*
X64133524Y-54609905D01*
X63943048Y-54657524D01*
X63609714Y-54657524D01*
X63419238Y-54609905D01*
X63324000Y-54514667D01*
X63276381Y-54419429D01*
X63276381Y-54228952D01*
X63324000Y-54133714D01*
X63419238Y-54038476D01*
X63609714Y-53990857D01*
X63943048Y-53990857D01*
X64133524Y-54038476D01*
X64228762Y-54133714D01*
X64276381Y-54228952D01*
X64276381Y-54419429D01*
X63371619Y-53609905D02*
X63324000Y-53562286D01*
X63276381Y-53467048D01*
X63276381Y-53228952D01*
X63324000Y-53133714D01*
X63371619Y-53086095D01*
X63466857Y-53038476D01*
X63562095Y-53038476D01*
X63704952Y-53086095D01*
X64276381Y-53657524D01*
X64276381Y-53038476D01*
X74773334Y-53030381D02*
X74440000Y-52554190D01*
X74201905Y-53030381D02*
X74201905Y-52030381D01*
X74582858Y-52030381D01*
X74678096Y-52078000D01*
X74725715Y-52125619D01*
X74773334Y-52220857D01*
X74773334Y-52363714D01*
X74725715Y-52458952D01*
X74678096Y-52506571D01*
X74582858Y-52554190D01*
X74201905Y-52554190D01*
X75725715Y-53030381D02*
X75154286Y-53030381D01*
X75440000Y-53030381D02*
X75440000Y-52030381D01*
X75344762Y-52173238D01*
X75249524Y-52268476D01*
X75154286Y-52316095D01*
X86766754Y-61803541D02*
X86433420Y-61327350D01*
X86195325Y-61803541D02*
X86195325Y-60803541D01*
X86576278Y-60803541D01*
X86671516Y-60851160D01*
X86719135Y-60898779D01*
X86766754Y-60994017D01*
X86766754Y-61136874D01*
X86719135Y-61232112D01*
X86671516Y-61279731D01*
X86576278Y-61327350D01*
X86195325Y-61327350D01*
X87100087Y-60803541D02*
X87719135Y-60803541D01*
X87385801Y-61184493D01*
X87528659Y-61184493D01*
X87623897Y-61232112D01*
X87671516Y-61279731D01*
X87719135Y-61374970D01*
X87719135Y-61613065D01*
X87671516Y-61708303D01*
X87623897Y-61755922D01*
X87528659Y-61803541D01*
X87242944Y-61803541D01*
X87147706Y-61755922D01*
X87100087Y-61708303D01*
X72842381Y-73816666D02*
X72366190Y-74150000D01*
X72842381Y-74388095D02*
X71842381Y-74388095D01*
X71842381Y-74007142D01*
X71890000Y-73911904D01*
X71937619Y-73864285D01*
X72032857Y-73816666D01*
X72175714Y-73816666D01*
X72270952Y-73864285D01*
X72318571Y-73911904D01*
X72366190Y-74007142D01*
X72366190Y-74388095D01*
X72175714Y-72959523D02*
X72842381Y-72959523D01*
X71794762Y-73197619D02*
X72509048Y-73435714D01*
X72509048Y-72816666D01*
X73388574Y-41338761D02*
X73055240Y-40862570D01*
X72817145Y-41338761D02*
X72817145Y-40338761D01*
X73198098Y-40338761D01*
X73293336Y-40386380D01*
X73340955Y-40433999D01*
X73388574Y-40529237D01*
X73388574Y-40672094D01*
X73340955Y-40767332D01*
X73293336Y-40814951D01*
X73198098Y-40862570D01*
X72817145Y-40862570D01*
X74293336Y-40338761D02*
X73817145Y-40338761D01*
X73769526Y-40814951D01*
X73817145Y-40767332D01*
X73912383Y-40719713D01*
X74150479Y-40719713D01*
X74245717Y-40767332D01*
X74293336Y-40814951D01*
X74340955Y-40910190D01*
X74340955Y-41148285D01*
X74293336Y-41243523D01*
X74245717Y-41291142D01*
X74150479Y-41338761D01*
X73912383Y-41338761D01*
X73817145Y-41291142D01*
X73769526Y-41243523D01*
X88225954Y-50081441D02*
X87892620Y-49605250D01*
X87654525Y-50081441D02*
X87654525Y-49081441D01*
X88035478Y-49081441D01*
X88130716Y-49129060D01*
X88178335Y-49176679D01*
X88225954Y-49271917D01*
X88225954Y-49414774D01*
X88178335Y-49510012D01*
X88130716Y-49557631D01*
X88035478Y-49605250D01*
X87654525Y-49605250D01*
X89083097Y-49081441D02*
X88892620Y-49081441D01*
X88797382Y-49129060D01*
X88749763Y-49176679D01*
X88654525Y-49319536D01*
X88606906Y-49510012D01*
X88606906Y-49890965D01*
X88654525Y-49986203D01*
X88702144Y-50033822D01*
X88797382Y-50081441D01*
X88987859Y-50081441D01*
X89083097Y-50033822D01*
X89130716Y-49986203D01*
X89178335Y-49890965D01*
X89178335Y-49652870D01*
X89130716Y-49557631D01*
X89083097Y-49510012D01*
X88987859Y-49462393D01*
X88797382Y-49462393D01*
X88702144Y-49510012D01*
X88654525Y-49557631D01*
X88606906Y-49652870D01*
X86782774Y-57564281D02*
X86449440Y-57088090D01*
X86211345Y-57564281D02*
X86211345Y-56564281D01*
X86592298Y-56564281D01*
X86687536Y-56611900D01*
X86735155Y-56659519D01*
X86782774Y-56754757D01*
X86782774Y-56897614D01*
X86735155Y-56992852D01*
X86687536Y-57040471D01*
X86592298Y-57088090D01*
X86211345Y-57088090D01*
X87116107Y-56564281D02*
X87782774Y-56564281D01*
X87354202Y-57564281D01*
X97797881Y-74451666D02*
X97321690Y-74785000D01*
X97797881Y-75023095D02*
X96797881Y-75023095D01*
X96797881Y-74642142D01*
X96845500Y-74546904D01*
X96893119Y-74499285D01*
X96988357Y-74451666D01*
X97131214Y-74451666D01*
X97226452Y-74499285D01*
X97274071Y-74546904D01*
X97321690Y-74642142D01*
X97321690Y-75023095D01*
X97226452Y-73880238D02*
X97178833Y-73975476D01*
X97131214Y-74023095D01*
X97035976Y-74070714D01*
X96988357Y-74070714D01*
X96893119Y-74023095D01*
X96845500Y-73975476D01*
X96797881Y-73880238D01*
X96797881Y-73689761D01*
X96845500Y-73594523D01*
X96893119Y-73546904D01*
X96988357Y-73499285D01*
X97035976Y-73499285D01*
X97131214Y-73546904D01*
X97178833Y-73594523D01*
X97226452Y-73689761D01*
X97226452Y-73880238D01*
X97274071Y-73975476D01*
X97321690Y-74023095D01*
X97416929Y-74070714D01*
X97607405Y-74070714D01*
X97702643Y-74023095D01*
X97750262Y-73975476D01*
X97797881Y-73880238D01*
X97797881Y-73689761D01*
X97750262Y-73594523D01*
X97702643Y-73546904D01*
X97607405Y-73499285D01*
X97416929Y-73499285D01*
X97321690Y-73546904D01*
X97274071Y-73594523D01*
X97226452Y-73689761D01*
X88225954Y-53746661D02*
X87892620Y-53270470D01*
X87654525Y-53746661D02*
X87654525Y-52746661D01*
X88035478Y-52746661D01*
X88130716Y-52794280D01*
X88178335Y-52841899D01*
X88225954Y-52937137D01*
X88225954Y-53079994D01*
X88178335Y-53175232D01*
X88130716Y-53222851D01*
X88035478Y-53270470D01*
X87654525Y-53270470D01*
X88702144Y-53746661D02*
X88892620Y-53746661D01*
X88987859Y-53699042D01*
X89035478Y-53651423D01*
X89130716Y-53508566D01*
X89178335Y-53318090D01*
X89178335Y-52937137D01*
X89130716Y-52841899D01*
X89083097Y-52794280D01*
X88987859Y-52746661D01*
X88797382Y-52746661D01*
X88702144Y-52794280D01*
X88654525Y-52841899D01*
X88606906Y-52937137D01*
X88606906Y-53175232D01*
X88654525Y-53270470D01*
X88702144Y-53318090D01*
X88797382Y-53365709D01*
X88987859Y-53365709D01*
X89083097Y-53318090D01*
X89130716Y-53270470D01*
X89178335Y-53175232D01*
X80462381Y-75692857D02*
X79986190Y-76026191D01*
X80462381Y-76264286D02*
X79462381Y-76264286D01*
X79462381Y-75883333D01*
X79510000Y-75788095D01*
X79557619Y-75740476D01*
X79652857Y-75692857D01*
X79795714Y-75692857D01*
X79890952Y-75740476D01*
X79938571Y-75788095D01*
X79986190Y-75883333D01*
X79986190Y-76264286D01*
X80462381Y-74740476D02*
X80462381Y-75311905D01*
X80462381Y-75026191D02*
X79462381Y-75026191D01*
X79605238Y-75121429D01*
X79700476Y-75216667D01*
X79748095Y-75311905D01*
X80462381Y-73788095D02*
X80462381Y-74359524D01*
X80462381Y-74073810D02*
X79462381Y-74073810D01*
X79605238Y-74169048D01*
X79700476Y-74264286D01*
X79748095Y-74359524D01*
X77096881Y-101661357D02*
X76620690Y-101994691D01*
X77096881Y-102232786D02*
X76096881Y-102232786D01*
X76096881Y-101851833D01*
X76144500Y-101756595D01*
X76192119Y-101708976D01*
X76287357Y-101661357D01*
X76430214Y-101661357D01*
X76525452Y-101708976D01*
X76573071Y-101756595D01*
X76620690Y-101851833D01*
X76620690Y-102232786D01*
X77096881Y-100708976D02*
X77096881Y-101280405D01*
X77096881Y-100994691D02*
X76096881Y-100994691D01*
X76239738Y-101089929D01*
X76334976Y-101185167D01*
X76382595Y-101280405D01*
X76192119Y-100328024D02*
X76144500Y-100280405D01*
X76096881Y-100185167D01*
X76096881Y-99947071D01*
X76144500Y-99851833D01*
X76192119Y-99804214D01*
X76287357Y-99756595D01*
X76382595Y-99756595D01*
X76525452Y-99804214D01*
X77096881Y-100375643D01*
X77096881Y-99756595D01*
X76652381Y-75582857D02*
X76176190Y-75916191D01*
X76652381Y-76154286D02*
X75652381Y-76154286D01*
X75652381Y-75773333D01*
X75700000Y-75678095D01*
X75747619Y-75630476D01*
X75842857Y-75582857D01*
X75985714Y-75582857D01*
X76080952Y-75630476D01*
X76128571Y-75678095D01*
X76176190Y-75773333D01*
X76176190Y-76154286D01*
X76652381Y-74630476D02*
X76652381Y-75201905D01*
X76652381Y-74916191D02*
X75652381Y-74916191D01*
X75795238Y-75011429D01*
X75890476Y-75106667D01*
X75938095Y-75201905D01*
X75652381Y-74297143D02*
X75652381Y-73630476D01*
X76652381Y-74059048D01*
X67246595Y-92092381D02*
X67246595Y-92901905D01*
X67294214Y-92997143D01*
X67341833Y-93044762D01*
X67437071Y-93092381D01*
X67627548Y-93092381D01*
X67722786Y-93044762D01*
X67770405Y-92997143D01*
X67818024Y-92901905D01*
X67818024Y-92092381D01*
X68246595Y-92187619D02*
X68294214Y-92140000D01*
X68389452Y-92092381D01*
X68627548Y-92092381D01*
X68722786Y-92140000D01*
X68770405Y-92187619D01*
X68818024Y-92282857D01*
X68818024Y-92378095D01*
X68770405Y-92520952D01*
X68198976Y-93092381D01*
X68818024Y-93092381D01*
X74773334Y-45156381D02*
X74297143Y-45156381D01*
X74297143Y-44156381D01*
X75630477Y-45156381D02*
X75059048Y-45156381D01*
X75344762Y-45156381D02*
X75344762Y-44156381D01*
X75249524Y-44299238D01*
X75154286Y-44394476D01*
X75059048Y-44442095D01*
X62738095Y-42362381D02*
X62738095Y-41362381D01*
X62738095Y-41838571D02*
X63309524Y-41838571D01*
X63309524Y-42362381D02*
X63309524Y-41362381D01*
X63738095Y-41457619D02*
X63785714Y-41410000D01*
X63880952Y-41362381D01*
X64119048Y-41362381D01*
X64214286Y-41410000D01*
X64261905Y-41457619D01*
X64309524Y-41552857D01*
X64309524Y-41648095D01*
X64261905Y-41790952D01*
X63690476Y-42362381D01*
X64309524Y-42362381D01*
X62738095Y-114752381D02*
X62738095Y-113752381D01*
X62738095Y-114228571D02*
X63309524Y-114228571D01*
X63309524Y-114752381D02*
X63309524Y-113752381D01*
X63690476Y-113752381D02*
X64309524Y-113752381D01*
X63976190Y-114133333D01*
X64119048Y-114133333D01*
X64214286Y-114180952D01*
X64261905Y-114228571D01*
X64309524Y-114323810D01*
X64309524Y-114561905D01*
X64261905Y-114657143D01*
X64214286Y-114704762D01*
X64119048Y-114752381D01*
X63833333Y-114752381D01*
X63738095Y-114704762D01*
X63690476Y-114657143D01*
X94488095Y-42362381D02*
X94488095Y-41362381D01*
X94488095Y-41838571D02*
X95059524Y-41838571D01*
X95059524Y-42362381D02*
X95059524Y-41362381D01*
X96059524Y-42362381D02*
X95488095Y-42362381D01*
X95773809Y-42362381D02*
X95773809Y-41362381D01*
X95678571Y-41505238D01*
X95583333Y-41600476D01*
X95488095Y-41648095D01*
X69472905Y-114625381D02*
X69472905Y-113625381D01*
X69711000Y-113625381D01*
X69853858Y-113673000D01*
X69949096Y-113768238D01*
X69996715Y-113863476D01*
X70044334Y-114053952D01*
X70044334Y-114196810D01*
X69996715Y-114387286D01*
X69949096Y-114482524D01*
X69853858Y-114577762D01*
X69711000Y-114625381D01*
X69472905Y-114625381D01*
X70377667Y-113625381D02*
X70996715Y-113625381D01*
X70663381Y-114006333D01*
X70806239Y-114006333D01*
X70901477Y-114053952D01*
X70949096Y-114101571D01*
X70996715Y-114196810D01*
X70996715Y-114434905D01*
X70949096Y-114530143D01*
X70901477Y-114577762D01*
X70806239Y-114625381D01*
X70520524Y-114625381D01*
X70425286Y-114577762D01*
X70377667Y-114530143D01*
X72429643Y-85595857D02*
X72477262Y-85643476D01*
X72524881Y-85786333D01*
X72524881Y-85881571D01*
X72477262Y-86024429D01*
X72382024Y-86119667D01*
X72286786Y-86167286D01*
X72096310Y-86214905D01*
X71953452Y-86214905D01*
X71762976Y-86167286D01*
X71667738Y-86119667D01*
X71572500Y-86024429D01*
X71524881Y-85881571D01*
X71524881Y-85786333D01*
X71572500Y-85643476D01*
X71620119Y-85595857D01*
X72524881Y-84643476D02*
X72524881Y-85214905D01*
X72524881Y-84929191D02*
X71524881Y-84929191D01*
X71667738Y-85024429D01*
X71762976Y-85119667D01*
X71810595Y-85214905D01*
X72524881Y-83691095D02*
X72524881Y-84262524D01*
X72524881Y-83976810D02*
X71524881Y-83976810D01*
X71667738Y-84072048D01*
X71762976Y-84167286D01*
X71810595Y-84262524D01*
D11*
X87166745Y-70644399D02*
X87166745Y-71466875D01*
X87215126Y-71563637D01*
X87263507Y-71612018D01*
X87360269Y-71660399D01*
X87553792Y-71660399D01*
X87650554Y-71612018D01*
X87698935Y-71563637D01*
X87747316Y-71466875D01*
X87747316Y-70644399D01*
X88666554Y-70983066D02*
X88666554Y-71660399D01*
X88424650Y-70596018D02*
X88182745Y-71321732D01*
X88811697Y-71321732D01*
X74220985Y-60330459D02*
X74220985Y-61152935D01*
X74269366Y-61249697D01*
X74317747Y-61298078D01*
X74414509Y-61346459D01*
X74608032Y-61346459D01*
X74704794Y-61298078D01*
X74753175Y-61249697D01*
X74801556Y-61152935D01*
X74801556Y-60330459D01*
X75188604Y-60330459D02*
X75817556Y-60330459D01*
X75478890Y-60717507D01*
X75624032Y-60717507D01*
X75720794Y-60765888D01*
X75769175Y-60814269D01*
X75817556Y-60911030D01*
X75817556Y-61152935D01*
X75769175Y-61249697D01*
X75720794Y-61298078D01*
X75624032Y-61346459D01*
X75333747Y-61346459D01*
X75236985Y-61298078D01*
X75188604Y-61249697D01*
D16*
X112212381Y-77732857D02*
X111736190Y-78066191D01*
X112212381Y-78304286D02*
X111212381Y-78304286D01*
X111212381Y-77923333D01*
X111260000Y-77828095D01*
X111307619Y-77780476D01*
X111402857Y-77732857D01*
X111545714Y-77732857D01*
X111640952Y-77780476D01*
X111688571Y-77828095D01*
X111736190Y-77923333D01*
X111736190Y-78304286D01*
X112212381Y-76780476D02*
X112212381Y-77351905D01*
X112212381Y-77066191D02*
X111212381Y-77066191D01*
X111355238Y-77161429D01*
X111450476Y-77256667D01*
X111498095Y-77351905D01*
X111212381Y-76161429D02*
X111212381Y-76066190D01*
X111260000Y-75970952D01*
X111307619Y-75923333D01*
X111402857Y-75875714D01*
X111593333Y-75828095D01*
X111831429Y-75828095D01*
X112021905Y-75875714D01*
X112117143Y-75923333D01*
X112164762Y-75970952D01*
X112212381Y-76066190D01*
X112212381Y-76161429D01*
X112164762Y-76256667D01*
X112117143Y-76304286D01*
X112021905Y-76351905D01*
X111831429Y-76399524D01*
X111593333Y-76399524D01*
X111402857Y-76351905D01*
X111307619Y-76304286D01*
X111260000Y-76256667D01*
X111212381Y-76161429D01*
D11*
X84312639Y-98214604D02*
X83296639Y-98214604D01*
X83296639Y-97972699D01*
X83345020Y-97827557D01*
X83441782Y-97730795D01*
X83538544Y-97682414D01*
X83732068Y-97634033D01*
X83877210Y-97634033D01*
X84070734Y-97682414D01*
X84167496Y-97730795D01*
X84264258Y-97827557D01*
X84312639Y-97972699D01*
X84312639Y-98214604D01*
X83393401Y-97246985D02*
X83345020Y-97198604D01*
X83296639Y-97101842D01*
X83296639Y-96859938D01*
X83345020Y-96763176D01*
X83393401Y-96714795D01*
X83490163Y-96666414D01*
X83586925Y-96666414D01*
X83732068Y-96714795D01*
X84312639Y-97295366D01*
X84312639Y-96666414D01*
X84277079Y-112679904D02*
X83261079Y-112679904D01*
X83261079Y-112437999D01*
X83309460Y-112292857D01*
X83406222Y-112196095D01*
X83502984Y-112147714D01*
X83696508Y-112099333D01*
X83841650Y-112099333D01*
X84035174Y-112147714D01*
X84131936Y-112196095D01*
X84228698Y-112292857D01*
X84277079Y-112437999D01*
X84277079Y-112679904D01*
X84277079Y-111131714D02*
X84277079Y-111712285D01*
X84277079Y-111421999D02*
X83261079Y-111421999D01*
X83406222Y-111518761D01*
X83502984Y-111615523D01*
X83551365Y-111712285D01*
D16*
X63565643Y-85891643D02*
X63518024Y-85939262D01*
X63375167Y-85986881D01*
X63279929Y-85986881D01*
X63137071Y-85939262D01*
X63041833Y-85844024D01*
X62994214Y-85748786D01*
X62946595Y-85558310D01*
X62946595Y-85415452D01*
X62994214Y-85224976D01*
X63041833Y-85129738D01*
X63137071Y-85034500D01*
X63279929Y-84986881D01*
X63375167Y-84986881D01*
X63518024Y-85034500D01*
X63565643Y-85082119D01*
X64518024Y-85986881D02*
X63946595Y-85986881D01*
X64232309Y-85986881D02*
X64232309Y-84986881D01*
X64137071Y-85129738D01*
X64041833Y-85224976D01*
X63946595Y-85272595D01*
X65375167Y-84986881D02*
X65184690Y-84986881D01*
X65089452Y-85034500D01*
X65041833Y-85082119D01*
X64946595Y-85224976D01*
X64898976Y-85415452D01*
X64898976Y-85796405D01*
X64946595Y-85891643D01*
X64994214Y-85939262D01*
X65089452Y-85986881D01*
X65279929Y-85986881D01*
X65375167Y-85939262D01*
X65422786Y-85891643D01*
X65470405Y-85796405D01*
X65470405Y-85558310D01*
X65422786Y-85463071D01*
X65375167Y-85415452D01*
X65279929Y-85367833D01*
X65089452Y-85367833D01*
X64994214Y-85415452D01*
X64946595Y-85463071D01*
X64898976Y-85558310D01*
X63044343Y-72182117D02*
X63091962Y-72229736D01*
X63139581Y-72372593D01*
X63139581Y-72467831D01*
X63091962Y-72610689D01*
X62996724Y-72705927D01*
X62901486Y-72753546D01*
X62711010Y-72801165D01*
X62568152Y-72801165D01*
X62377676Y-72753546D01*
X62282438Y-72705927D01*
X62187200Y-72610689D01*
X62139581Y-72467831D01*
X62139581Y-72372593D01*
X62187200Y-72229736D01*
X62234819Y-72182117D01*
X63139581Y-71229736D02*
X63139581Y-71801165D01*
X63139581Y-71515451D02*
X62139581Y-71515451D01*
X62282438Y-71610689D01*
X62377676Y-71705927D01*
X62425295Y-71801165D01*
X62139581Y-70896403D02*
X62139581Y-70277355D01*
X62520533Y-70610689D01*
X62520533Y-70467831D01*
X62568152Y-70372593D01*
X62615771Y-70324974D01*
X62711010Y-70277355D01*
X62949105Y-70277355D01*
X63044343Y-70324974D01*
X63091962Y-70372593D01*
X63139581Y-70467831D01*
X63139581Y-70753546D01*
X63091962Y-70848784D01*
X63044343Y-70896403D01*
X99925143Y-60120666D02*
X99972762Y-60168285D01*
X100020381Y-60311142D01*
X100020381Y-60406380D01*
X99972762Y-60549238D01*
X99877524Y-60644476D01*
X99782286Y-60692095D01*
X99591810Y-60739714D01*
X99448952Y-60739714D01*
X99258476Y-60692095D01*
X99163238Y-60644476D01*
X99068000Y-60549238D01*
X99020381Y-60406380D01*
X99020381Y-60311142D01*
X99068000Y-60168285D01*
X99115619Y-60120666D01*
X100020381Y-59644476D02*
X100020381Y-59454000D01*
X99972762Y-59358761D01*
X99925143Y-59311142D01*
X99782286Y-59215904D01*
X99591810Y-59168285D01*
X99210857Y-59168285D01*
X99115619Y-59215904D01*
X99068000Y-59263523D01*
X99020381Y-59358761D01*
X99020381Y-59549238D01*
X99068000Y-59644476D01*
X99115619Y-59692095D01*
X99210857Y-59739714D01*
X99448952Y-59739714D01*
X99544190Y-59692095D01*
X99591810Y-59644476D01*
X99639429Y-59549238D01*
X99639429Y-59358761D01*
X99591810Y-59263523D01*
X99544190Y-59215904D01*
X99448952Y-59168285D01*
X102528643Y-77292666D02*
X102576262Y-77340285D01*
X102623881Y-77483142D01*
X102623881Y-77578380D01*
X102576262Y-77721238D01*
X102481024Y-77816476D01*
X102385786Y-77864095D01*
X102195310Y-77911714D01*
X102052452Y-77911714D01*
X101861976Y-77864095D01*
X101766738Y-77816476D01*
X101671500Y-77721238D01*
X101623881Y-77578380D01*
X101623881Y-77483142D01*
X101671500Y-77340285D01*
X101719119Y-77292666D01*
X101623881Y-76959333D02*
X101623881Y-76292666D01*
X102623881Y-76721238D01*
X63812294Y-64410863D02*
X63764675Y-64458482D01*
X63621818Y-64506101D01*
X63526580Y-64506101D01*
X63383722Y-64458482D01*
X63288484Y-64363244D01*
X63240865Y-64268006D01*
X63193246Y-64077530D01*
X63193246Y-63934672D01*
X63240865Y-63744196D01*
X63288484Y-63648958D01*
X63383722Y-63553720D01*
X63526580Y-63506101D01*
X63621818Y-63506101D01*
X63764675Y-63553720D01*
X63812294Y-63601339D01*
X64145627Y-63506101D02*
X64764675Y-63506101D01*
X64431341Y-63887053D01*
X64574199Y-63887053D01*
X64669437Y-63934672D01*
X64717056Y-63982291D01*
X64764675Y-64077530D01*
X64764675Y-64315625D01*
X64717056Y-64410863D01*
X64669437Y-64458482D01*
X64574199Y-64506101D01*
X64288484Y-64506101D01*
X64193246Y-64458482D01*
X64145627Y-64410863D01*
X63851334Y-48617143D02*
X63803715Y-48664762D01*
X63660858Y-48712381D01*
X63565620Y-48712381D01*
X63422762Y-48664762D01*
X63327524Y-48569524D01*
X63279905Y-48474286D01*
X63232286Y-48283810D01*
X63232286Y-48140952D01*
X63279905Y-47950476D01*
X63327524Y-47855238D01*
X63422762Y-47760000D01*
X63565620Y-47712381D01*
X63660858Y-47712381D01*
X63803715Y-47760000D01*
X63851334Y-47807619D01*
X64232286Y-47807619D02*
X64279905Y-47760000D01*
X64375143Y-47712381D01*
X64613239Y-47712381D01*
X64708477Y-47760000D01*
X64756096Y-47807619D01*
X64803715Y-47902857D01*
X64803715Y-47998095D01*
X64756096Y-48140952D01*
X64184667Y-48712381D01*
X64803715Y-48712381D01*
X63095143Y-93057166D02*
X63142762Y-93104785D01*
X63190381Y-93247642D01*
X63190381Y-93342880D01*
X63142762Y-93485738D01*
X63047524Y-93580976D01*
X62952286Y-93628595D01*
X62761810Y-93676214D01*
X62618952Y-93676214D01*
X62428476Y-93628595D01*
X62333238Y-93580976D01*
X62238000Y-93485738D01*
X62190381Y-93342880D01*
X62190381Y-93247642D01*
X62238000Y-93104785D01*
X62285619Y-93057166D01*
X63190381Y-92104785D02*
X63190381Y-92676214D01*
X63190381Y-92390500D02*
X62190381Y-92390500D01*
X62333238Y-92485738D01*
X62428476Y-92580976D01*
X62476095Y-92676214D01*
D11*
X107028571Y-94207429D02*
X107173714Y-94255810D01*
X107222095Y-94304190D01*
X107270476Y-94400952D01*
X107270476Y-94546095D01*
X107222095Y-94642857D01*
X107173714Y-94691238D01*
X107076952Y-94739619D01*
X106689905Y-94739619D01*
X106689905Y-93723619D01*
X107028571Y-93723619D01*
X107125333Y-93772000D01*
X107173714Y-93820381D01*
X107222095Y-93917143D01*
X107222095Y-94013905D01*
X107173714Y-94110667D01*
X107125333Y-94159048D01*
X107028571Y-94207429D01*
X106689905Y-94207429D01*
X107705905Y-94739619D02*
X107705905Y-93723619D01*
X108286476Y-94739619D01*
X108286476Y-93723619D01*
X109350857Y-94642857D02*
X109302476Y-94691238D01*
X109157333Y-94739619D01*
X109060571Y-94739619D01*
X108915429Y-94691238D01*
X108818667Y-94594476D01*
X108770286Y-94497714D01*
X108721905Y-94304190D01*
X108721905Y-94159048D01*
X108770286Y-93965524D01*
X108818667Y-93868762D01*
X108915429Y-93772000D01*
X109060571Y-93723619D01*
X109157333Y-93723619D01*
X109302476Y-93772000D01*
X109350857Y-93820381D01*
X109689524Y-93723619D02*
X110318476Y-93723619D01*
X109979810Y-94110667D01*
X110124952Y-94110667D01*
X110221714Y-94159048D01*
X110270095Y-94207429D01*
X110318476Y-94304190D01*
X110318476Y-94546095D01*
X110270095Y-94642857D01*
X110221714Y-94691238D01*
X110124952Y-94739619D01*
X109834667Y-94739619D01*
X109737905Y-94691238D01*
X109689524Y-94642857D01*
X107003171Y-46473209D02*
X107148314Y-46521590D01*
X107196695Y-46569970D01*
X107245076Y-46666732D01*
X107245076Y-46811875D01*
X107196695Y-46908637D01*
X107148314Y-46957018D01*
X107051552Y-47005399D01*
X106664505Y-47005399D01*
X106664505Y-45989399D01*
X107003171Y-45989399D01*
X107099933Y-46037780D01*
X107148314Y-46086161D01*
X107196695Y-46182923D01*
X107196695Y-46279685D01*
X107148314Y-46376447D01*
X107099933Y-46424828D01*
X107003171Y-46473209D01*
X106664505Y-46473209D01*
X107680505Y-47005399D02*
X107680505Y-45989399D01*
X108261076Y-47005399D01*
X108261076Y-45989399D01*
X109325457Y-46908637D02*
X109277076Y-46957018D01*
X109131933Y-47005399D01*
X109035171Y-47005399D01*
X108890029Y-46957018D01*
X108793267Y-46860256D01*
X108744886Y-46763494D01*
X108696505Y-46569970D01*
X108696505Y-46424828D01*
X108744886Y-46231304D01*
X108793267Y-46134542D01*
X108890029Y-46037780D01*
X109035171Y-45989399D01*
X109131933Y-45989399D01*
X109277076Y-46037780D01*
X109325457Y-46086161D01*
X109712505Y-46086161D02*
X109760886Y-46037780D01*
X109857648Y-45989399D01*
X110099552Y-45989399D01*
X110196314Y-46037780D01*
X110244695Y-46086161D01*
X110293076Y-46182923D01*
X110293076Y-46279685D01*
X110244695Y-46424828D01*
X109664124Y-47005399D01*
X110293076Y-47005399D01*
X107028571Y-111225429D02*
X107173714Y-111273810D01*
X107222095Y-111322190D01*
X107270476Y-111418952D01*
X107270476Y-111564095D01*
X107222095Y-111660857D01*
X107173714Y-111709238D01*
X107076952Y-111757619D01*
X106689905Y-111757619D01*
X106689905Y-110741619D01*
X107028571Y-110741619D01*
X107125333Y-110790000D01*
X107173714Y-110838381D01*
X107222095Y-110935143D01*
X107222095Y-111031905D01*
X107173714Y-111128667D01*
X107125333Y-111177048D01*
X107028571Y-111225429D01*
X106689905Y-111225429D01*
X107705905Y-111757619D02*
X107705905Y-110741619D01*
X108286476Y-111757619D01*
X108286476Y-110741619D01*
X109350857Y-111660857D02*
X109302476Y-111709238D01*
X109157333Y-111757619D01*
X109060571Y-111757619D01*
X108915429Y-111709238D01*
X108818667Y-111612476D01*
X108770286Y-111515714D01*
X108721905Y-111322190D01*
X108721905Y-111177048D01*
X108770286Y-110983524D01*
X108818667Y-110886762D01*
X108915429Y-110790000D01*
X109060571Y-110741619D01*
X109157333Y-110741619D01*
X109302476Y-110790000D01*
X109350857Y-110838381D01*
X110318476Y-111757619D02*
X109737905Y-111757619D01*
X110028191Y-111757619D02*
X110028191Y-110741619D01*
X109931429Y-110886762D01*
X109834667Y-110983524D01*
X109737905Y-111031905D01*
D16*
X62239027Y-105731881D02*
X62239027Y-106446167D01*
X62191407Y-106589024D01*
X62096169Y-106684262D01*
X61953312Y-106731881D01*
X61858074Y-106731881D01*
X63239027Y-106731881D02*
X62667598Y-106731881D01*
X62953312Y-106731881D02*
X62953312Y-105731881D01*
X62858074Y-105874738D01*
X62762836Y-105969976D01*
X62667598Y-106017595D01*
X94365381Y-119355733D02*
X95079667Y-119355733D01*
X95222524Y-119403353D01*
X95317762Y-119498591D01*
X95365381Y-119641448D01*
X95365381Y-119736686D01*
X94698714Y-118450971D02*
X95365381Y-118450971D01*
X94317762Y-118689067D02*
X95032048Y-118927162D01*
X95032048Y-118308114D01*
X107837647Y-61537601D02*
X107837647Y-62251887D01*
X107790027Y-62394744D01*
X107694789Y-62489982D01*
X107551932Y-62537601D01*
X107456694Y-62537601D01*
X108218599Y-61537601D02*
X108837647Y-61537601D01*
X108504313Y-61918553D01*
X108647171Y-61918553D01*
X108742409Y-61966172D01*
X108790028Y-62013791D01*
X108837647Y-62109030D01*
X108837647Y-62347125D01*
X108790028Y-62442363D01*
X108742409Y-62489982D01*
X108647171Y-62537601D01*
X108361456Y-62537601D01*
X108266218Y-62489982D01*
X108218599Y-62442363D01*
X92202095Y-104036881D02*
X92202095Y-104846405D01*
X92249714Y-104941643D01*
X92297333Y-104989262D01*
X92392571Y-105036881D01*
X92583048Y-105036881D01*
X92678286Y-104989262D01*
X92725905Y-104941643D01*
X92773524Y-104846405D01*
X92773524Y-104036881D01*
X93773524Y-105036881D02*
X93202095Y-105036881D01*
X93487809Y-105036881D02*
X93487809Y-104036881D01*
X93392571Y-104179738D01*
X93297333Y-104274976D01*
X93202095Y-104322595D01*
M02*
