%TF.GenerationSoftware,KiCad,Pcbnew,4.0.4+e1-6308~48~ubuntu16.04.1-stable*%
%TF.CreationDate,2016-12-26T16:23:57-08:00*%
%TF.ProjectId,e202var-vlf-radio-receiver,653230327661722D766C662D72616469,v1.3*%
%TF.FileFunction,Legend,Bot*%
%FSLAX46Y46*%
G04 Gerber Fmt 4.6, Leading zero omitted, Abs format (unit mm)*
G04 Created by KiCad (PCBNEW 4.0.4+e1-6308~48~ubuntu16.04.1-stable) date Mon Dec 26 16:23:57 2016*
%MOMM*%
%LPD*%
G01*
G04 APERTURE LIST*
%ADD10C,0.350000*%
%ADD11C,0.254000*%
G04 APERTURE END LIST*
D10*
D11*
X109274429Y-108566857D02*
X110290429Y-108929714D01*
X109274429Y-109292572D01*
X110290429Y-110671429D02*
X110290429Y-109800572D01*
X110290429Y-110236000D02*
X108766429Y-110236000D01*
X108984143Y-110090857D01*
X109129286Y-109945715D01*
X109201857Y-109800572D01*
X110145286Y-111324572D02*
X110217857Y-111397144D01*
X110290429Y-111324572D01*
X110217857Y-111252001D01*
X110145286Y-111324572D01*
X110290429Y-111324572D01*
X108766429Y-111905143D02*
X108766429Y-112848572D01*
X109347000Y-112340572D01*
X109347000Y-112558286D01*
X109419571Y-112703429D01*
X109492143Y-112776000D01*
X109637286Y-112848572D01*
X110000143Y-112848572D01*
X110145286Y-112776000D01*
X110217857Y-112703429D01*
X110290429Y-112558286D01*
X110290429Y-112122858D01*
X110217857Y-111977715D01*
X110145286Y-111905143D01*
X91875429Y-83901643D02*
X92891429Y-84191929D01*
X92165714Y-84482215D01*
X92891429Y-84772500D01*
X91875429Y-85062786D01*
X92891429Y-85643357D02*
X91875429Y-85643357D01*
X91367429Y-85643357D02*
X91440000Y-85570786D01*
X91512571Y-85643357D01*
X91440000Y-85715929D01*
X91367429Y-85643357D01*
X91512571Y-85643357D01*
X92818857Y-87022214D02*
X92891429Y-86877071D01*
X92891429Y-86586785D01*
X92818857Y-86441643D01*
X92746286Y-86369071D01*
X92601143Y-86296500D01*
X92165714Y-86296500D01*
X92020571Y-86369071D01*
X91948000Y-86441643D01*
X91875429Y-86586785D01*
X91875429Y-86877071D01*
X91948000Y-87022214D01*
X92891429Y-87675357D02*
X91367429Y-87675357D01*
X92310857Y-87820500D02*
X92891429Y-88255929D01*
X91875429Y-88255929D02*
X92456000Y-87675357D01*
X92818857Y-89489643D02*
X92891429Y-89344500D01*
X92891429Y-89054214D01*
X92818857Y-88909071D01*
X92673714Y-88836500D01*
X92093143Y-88836500D01*
X91948000Y-88909071D01*
X91875429Y-89054214D01*
X91875429Y-89344500D01*
X91948000Y-89489643D01*
X92093143Y-89562214D01*
X92238286Y-89562214D01*
X92383429Y-88836500D01*
X92891429Y-90215357D02*
X91875429Y-90215357D01*
X92165714Y-90215357D02*
X92020571Y-90287929D01*
X91948000Y-90360500D01*
X91875429Y-90505643D01*
X91875429Y-90650786D01*
X92891429Y-91158786D02*
X91367429Y-91158786D01*
X91948000Y-91158786D02*
X91875429Y-91303929D01*
X91875429Y-91594215D01*
X91948000Y-91739358D01*
X92020571Y-91811929D01*
X92165714Y-91884500D01*
X92601143Y-91884500D01*
X92746286Y-91811929D01*
X92818857Y-91739358D01*
X92891429Y-91594215D01*
X92891429Y-91303929D01*
X92818857Y-91158786D01*
X92891429Y-92755357D02*
X92818857Y-92610215D01*
X92746286Y-92537643D01*
X92601143Y-92465072D01*
X92165714Y-92465072D01*
X92020571Y-92537643D01*
X91948000Y-92610215D01*
X91875429Y-92755357D01*
X91875429Y-92973072D01*
X91948000Y-93118215D01*
X92020571Y-93190786D01*
X92165714Y-93263357D01*
X92601143Y-93263357D01*
X92746286Y-93190786D01*
X92818857Y-93118215D01*
X92891429Y-92973072D01*
X92891429Y-92755357D01*
X92891429Y-93771357D02*
X91875429Y-94569643D01*
X91875429Y-93771357D02*
X92891429Y-94569643D01*
X92746286Y-95150214D02*
X92818857Y-95222786D01*
X92891429Y-95150214D01*
X92818857Y-95077643D01*
X92746286Y-95150214D01*
X92891429Y-95150214D01*
X91875429Y-95875928D02*
X92891429Y-95875928D01*
X92020571Y-95875928D02*
X91948000Y-95948500D01*
X91875429Y-96093642D01*
X91875429Y-96311357D01*
X91948000Y-96456500D01*
X92093143Y-96529071D01*
X92891429Y-96529071D01*
X92818857Y-97835357D02*
X92891429Y-97690214D01*
X92891429Y-97399928D01*
X92818857Y-97254785D01*
X92673714Y-97182214D01*
X92093143Y-97182214D01*
X91948000Y-97254785D01*
X91875429Y-97399928D01*
X91875429Y-97690214D01*
X91948000Y-97835357D01*
X92093143Y-97907928D01*
X92238286Y-97907928D01*
X92383429Y-97182214D01*
X91875429Y-98343357D02*
X91875429Y-98923928D01*
X91367429Y-98561071D02*
X92673714Y-98561071D01*
X92818857Y-98633643D01*
X92891429Y-98778785D01*
X92891429Y-98923928D01*
X111905143Y-85507284D02*
X111905143Y-86015284D01*
X112703429Y-86232998D02*
X112703429Y-85507284D01*
X111179429Y-85507284D01*
X111179429Y-86232998D01*
X111324571Y-86813570D02*
X111252000Y-86886141D01*
X111179429Y-87031284D01*
X111179429Y-87394141D01*
X111252000Y-87539284D01*
X111324571Y-87611855D01*
X111469714Y-87684427D01*
X111614857Y-87684427D01*
X111832571Y-87611855D01*
X112703429Y-86740998D01*
X112703429Y-87684427D01*
X111179429Y-88627856D02*
X111179429Y-88772999D01*
X111252000Y-88918142D01*
X111324571Y-88990713D01*
X111469714Y-89063284D01*
X111760000Y-89135856D01*
X112122857Y-89135856D01*
X112413143Y-89063284D01*
X112558286Y-88990713D01*
X112630857Y-88918142D01*
X112703429Y-88772999D01*
X112703429Y-88627856D01*
X112630857Y-88482713D01*
X112558286Y-88410142D01*
X112413143Y-88337570D01*
X112122857Y-88264999D01*
X111760000Y-88264999D01*
X111469714Y-88337570D01*
X111324571Y-88410142D01*
X111252000Y-88482713D01*
X111179429Y-88627856D01*
X111324571Y-89716428D02*
X111252000Y-89788999D01*
X111179429Y-89934142D01*
X111179429Y-90296999D01*
X111252000Y-90442142D01*
X111324571Y-90514713D01*
X111469714Y-90587285D01*
X111614857Y-90587285D01*
X111832571Y-90514713D01*
X112703429Y-89643856D01*
X112703429Y-90587285D01*
X111179429Y-91022714D02*
X112703429Y-91530714D01*
X111179429Y-92038714D01*
X112268000Y-92474143D02*
X112268000Y-93199857D01*
X112703429Y-92329000D02*
X111179429Y-92837000D01*
X112703429Y-93345000D01*
X112703429Y-94723857D02*
X111977714Y-94215857D01*
X112703429Y-93853000D02*
X111179429Y-93853000D01*
X111179429Y-94433572D01*
X111252000Y-94578714D01*
X111324571Y-94651286D01*
X111469714Y-94723857D01*
X111687429Y-94723857D01*
X111832571Y-94651286D01*
X111905143Y-94578714D01*
X111977714Y-94433572D01*
X111977714Y-93853000D01*
X111179429Y-96320429D02*
X112703429Y-96828429D01*
X111179429Y-97336429D01*
X112703429Y-98570143D02*
X112703429Y-97844429D01*
X111179429Y-97844429D01*
X111905143Y-99586143D02*
X111905143Y-99078143D01*
X112703429Y-99078143D02*
X111179429Y-99078143D01*
X111179429Y-99803857D01*
X112703429Y-102416429D02*
X111977714Y-101908429D01*
X112703429Y-101545572D02*
X111179429Y-101545572D01*
X111179429Y-102126144D01*
X111252000Y-102271286D01*
X111324571Y-102343858D01*
X111469714Y-102416429D01*
X111687429Y-102416429D01*
X111832571Y-102343858D01*
X111905143Y-102271286D01*
X111977714Y-102126144D01*
X111977714Y-101545572D01*
X112703429Y-103722715D02*
X111905143Y-103722715D01*
X111760000Y-103650144D01*
X111687429Y-103505001D01*
X111687429Y-103214715D01*
X111760000Y-103069572D01*
X112630857Y-103722715D02*
X112703429Y-103577572D01*
X112703429Y-103214715D01*
X112630857Y-103069572D01*
X112485714Y-102997001D01*
X112340571Y-102997001D01*
X112195429Y-103069572D01*
X112122857Y-103214715D01*
X112122857Y-103577572D01*
X112050286Y-103722715D01*
X112703429Y-105101572D02*
X111179429Y-105101572D01*
X112630857Y-105101572D02*
X112703429Y-104956429D01*
X112703429Y-104666143D01*
X112630857Y-104521001D01*
X112558286Y-104448429D01*
X112413143Y-104375858D01*
X111977714Y-104375858D01*
X111832571Y-104448429D01*
X111760000Y-104521001D01*
X111687429Y-104666143D01*
X111687429Y-104956429D01*
X111760000Y-105101572D01*
X112703429Y-105827286D02*
X111687429Y-105827286D01*
X111179429Y-105827286D02*
X111252000Y-105754715D01*
X111324571Y-105827286D01*
X111252000Y-105899858D01*
X111179429Y-105827286D01*
X111324571Y-105827286D01*
X112703429Y-106770714D02*
X112630857Y-106625572D01*
X112558286Y-106553000D01*
X112413143Y-106480429D01*
X111977714Y-106480429D01*
X111832571Y-106553000D01*
X111760000Y-106625572D01*
X111687429Y-106770714D01*
X111687429Y-106988429D01*
X111760000Y-107133572D01*
X111832571Y-107206143D01*
X111977714Y-107278714D01*
X112413143Y-107278714D01*
X112558286Y-107206143D01*
X112630857Y-107133572D01*
X112703429Y-106988429D01*
X112703429Y-106770714D01*
X112703429Y-109963857D02*
X111977714Y-109455857D01*
X112703429Y-109093000D02*
X111179429Y-109093000D01*
X111179429Y-109673572D01*
X111252000Y-109818714D01*
X111324571Y-109891286D01*
X111469714Y-109963857D01*
X111687429Y-109963857D01*
X111832571Y-109891286D01*
X111905143Y-109818714D01*
X111977714Y-109673572D01*
X111977714Y-109093000D01*
X112630857Y-111197572D02*
X112703429Y-111052429D01*
X112703429Y-110762143D01*
X112630857Y-110617000D01*
X112485714Y-110544429D01*
X111905143Y-110544429D01*
X111760000Y-110617000D01*
X111687429Y-110762143D01*
X111687429Y-111052429D01*
X111760000Y-111197572D01*
X111905143Y-111270143D01*
X112050286Y-111270143D01*
X112195429Y-110544429D01*
X112630857Y-112576429D02*
X112703429Y-112431286D01*
X112703429Y-112141000D01*
X112630857Y-111995858D01*
X112558286Y-111923286D01*
X112413143Y-111850715D01*
X111977714Y-111850715D01*
X111832571Y-111923286D01*
X111760000Y-111995858D01*
X111687429Y-112141000D01*
X111687429Y-112431286D01*
X111760000Y-112576429D01*
X112630857Y-113810144D02*
X112703429Y-113665001D01*
X112703429Y-113374715D01*
X112630857Y-113229572D01*
X112485714Y-113157001D01*
X111905143Y-113157001D01*
X111760000Y-113229572D01*
X111687429Y-113374715D01*
X111687429Y-113665001D01*
X111760000Y-113810144D01*
X111905143Y-113882715D01*
X112050286Y-113882715D01*
X112195429Y-113157001D01*
X112703429Y-114535858D02*
X111687429Y-114535858D01*
X111179429Y-114535858D02*
X111252000Y-114463287D01*
X111324571Y-114535858D01*
X111252000Y-114608430D01*
X111179429Y-114535858D01*
X111324571Y-114535858D01*
X111687429Y-115116429D02*
X112703429Y-115479286D01*
X111687429Y-115842144D01*
X112630857Y-117003287D02*
X112703429Y-116858144D01*
X112703429Y-116567858D01*
X112630857Y-116422715D01*
X112485714Y-116350144D01*
X111905143Y-116350144D01*
X111760000Y-116422715D01*
X111687429Y-116567858D01*
X111687429Y-116858144D01*
X111760000Y-117003287D01*
X111905143Y-117075858D01*
X112050286Y-117075858D01*
X112195429Y-116350144D01*
X112703429Y-117729001D02*
X111687429Y-117729001D01*
X111977714Y-117729001D02*
X111832571Y-117801573D01*
X111760000Y-117874144D01*
X111687429Y-118019287D01*
X111687429Y-118164430D01*
M02*
