%TF.GenerationSoftware,KiCad,Pcbnew,4.0.5-e0-6337~49~ubuntu16.04.1*%
%TF.CreationDate,2017-03-14T11:59:08-07:00*%
%TF.ProjectId,e202var-vlf-radio-receiver,653230327661722D766C662D72616469,v1.4*%
%TF.FileFunction,Legend,Bot*%
%FSLAX46Y46*%
G04 Gerber Fmt 4.6, Leading zero omitted, Abs format (unit mm)*
G04 Created by KiCad (PCBNEW 4.0.5-e0-6337~49~ubuntu16.04.1) date Tue Mar 14 11:59:08 2017*
%MOMM*%
%LPD*%
G01*
G04 APERTURE LIST*
%ADD10C,0.350000*%
%ADD11C,0.254000*%
%ADD12O,2.452400X1.752400*%
%ADD13R,2.184400X2.184400*%
%ADD14O,2.184400X2.184400*%
%ADD15C,2.151380*%
%ADD16R,1.752400X1.752400*%
%ADD17C,1.852400*%
%ADD18O,2.152000X1.552000*%
%ADD19O,1.552000X2.152000*%
%ADD20C,5.152400*%
%ADD21R,2.052400X2.152400*%
%ADD22C,2.052400*%
%ADD23R,2.152400X2.152400*%
%ADD24C,2.152400*%
%ADD25C,2.184400*%
%ADD26R,2.151380X2.151380*%
%ADD27C,4.152400*%
%ADD28C,2.336800*%
%ADD29O,7.152640X3.652520*%
%ADD30O,2.651760X1.752600*%
%ADD31O,1.851660X3.652520*%
G04 APERTURE END LIST*
D10*
D11*
X119485229Y-114139617D02*
X120501229Y-114502474D01*
X119485229Y-114865332D01*
X120501229Y-116244189D02*
X120501229Y-115373332D01*
X120501229Y-115808760D02*
X118977229Y-115808760D01*
X119194943Y-115663617D01*
X119340086Y-115518475D01*
X119412657Y-115373332D01*
X120356086Y-116897332D02*
X120428657Y-116969904D01*
X120501229Y-116897332D01*
X120428657Y-116824761D01*
X120356086Y-116897332D01*
X120501229Y-116897332D01*
X119485229Y-118276189D02*
X120501229Y-118276189D01*
X118904657Y-117913332D02*
X119993229Y-117550475D01*
X119993229Y-118493903D01*
X101286129Y-89474403D02*
X102302129Y-89764689D01*
X101576414Y-90054975D01*
X102302129Y-90345260D01*
X101286129Y-90635546D01*
X102302129Y-91216117D02*
X101286129Y-91216117D01*
X100778129Y-91216117D02*
X100850700Y-91143546D01*
X100923271Y-91216117D01*
X100850700Y-91288689D01*
X100778129Y-91216117D01*
X100923271Y-91216117D01*
X102229557Y-92594974D02*
X102302129Y-92449831D01*
X102302129Y-92159545D01*
X102229557Y-92014403D01*
X102156986Y-91941831D01*
X102011843Y-91869260D01*
X101576414Y-91869260D01*
X101431271Y-91941831D01*
X101358700Y-92014403D01*
X101286129Y-92159545D01*
X101286129Y-92449831D01*
X101358700Y-92594974D01*
X102302129Y-93248117D02*
X100778129Y-93248117D01*
X101721557Y-93393260D02*
X102302129Y-93828689D01*
X101286129Y-93828689D02*
X101866700Y-93248117D01*
X102229557Y-95062403D02*
X102302129Y-94917260D01*
X102302129Y-94626974D01*
X102229557Y-94481831D01*
X102084414Y-94409260D01*
X101503843Y-94409260D01*
X101358700Y-94481831D01*
X101286129Y-94626974D01*
X101286129Y-94917260D01*
X101358700Y-95062403D01*
X101503843Y-95134974D01*
X101648986Y-95134974D01*
X101794129Y-94409260D01*
X102302129Y-95788117D02*
X101286129Y-95788117D01*
X101576414Y-95788117D02*
X101431271Y-95860689D01*
X101358700Y-95933260D01*
X101286129Y-96078403D01*
X101286129Y-96223546D01*
X102302129Y-96731546D02*
X100778129Y-96731546D01*
X101358700Y-96731546D02*
X101286129Y-96876689D01*
X101286129Y-97166975D01*
X101358700Y-97312118D01*
X101431271Y-97384689D01*
X101576414Y-97457260D01*
X102011843Y-97457260D01*
X102156986Y-97384689D01*
X102229557Y-97312118D01*
X102302129Y-97166975D01*
X102302129Y-96876689D01*
X102229557Y-96731546D01*
X102302129Y-98328117D02*
X102229557Y-98182975D01*
X102156986Y-98110403D01*
X102011843Y-98037832D01*
X101576414Y-98037832D01*
X101431271Y-98110403D01*
X101358700Y-98182975D01*
X101286129Y-98328117D01*
X101286129Y-98545832D01*
X101358700Y-98690975D01*
X101431271Y-98763546D01*
X101576414Y-98836117D01*
X102011843Y-98836117D01*
X102156986Y-98763546D01*
X102229557Y-98690975D01*
X102302129Y-98545832D01*
X102302129Y-98328117D01*
X102302129Y-99344117D02*
X101286129Y-100142403D01*
X101286129Y-99344117D02*
X102302129Y-100142403D01*
X102156986Y-100722974D02*
X102229557Y-100795546D01*
X102302129Y-100722974D01*
X102229557Y-100650403D01*
X102156986Y-100722974D01*
X102302129Y-100722974D01*
X101286129Y-101448688D02*
X102302129Y-101448688D01*
X101431271Y-101448688D02*
X101358700Y-101521260D01*
X101286129Y-101666402D01*
X101286129Y-101884117D01*
X101358700Y-102029260D01*
X101503843Y-102101831D01*
X102302129Y-102101831D01*
X102229557Y-103408117D02*
X102302129Y-103262974D01*
X102302129Y-102972688D01*
X102229557Y-102827545D01*
X102084414Y-102754974D01*
X101503843Y-102754974D01*
X101358700Y-102827545D01*
X101286129Y-102972688D01*
X101286129Y-103262974D01*
X101358700Y-103408117D01*
X101503843Y-103480688D01*
X101648986Y-103480688D01*
X101794129Y-102754974D01*
X101286129Y-103916117D02*
X101286129Y-104496688D01*
X100778129Y-104133831D02*
X102084414Y-104133831D01*
X102229557Y-104206403D01*
X102302129Y-104351545D01*
X102302129Y-104496688D01*
X122115943Y-91080044D02*
X122115943Y-91588044D01*
X122914229Y-91805758D02*
X122914229Y-91080044D01*
X121390229Y-91080044D01*
X121390229Y-91805758D01*
X121535371Y-92386330D02*
X121462800Y-92458901D01*
X121390229Y-92604044D01*
X121390229Y-92966901D01*
X121462800Y-93112044D01*
X121535371Y-93184615D01*
X121680514Y-93257187D01*
X121825657Y-93257187D01*
X122043371Y-93184615D01*
X122914229Y-92313758D01*
X122914229Y-93257187D01*
X121390229Y-94200616D02*
X121390229Y-94345759D01*
X121462800Y-94490902D01*
X121535371Y-94563473D01*
X121680514Y-94636044D01*
X121970800Y-94708616D01*
X122333657Y-94708616D01*
X122623943Y-94636044D01*
X122769086Y-94563473D01*
X122841657Y-94490902D01*
X122914229Y-94345759D01*
X122914229Y-94200616D01*
X122841657Y-94055473D01*
X122769086Y-93982902D01*
X122623943Y-93910330D01*
X122333657Y-93837759D01*
X121970800Y-93837759D01*
X121680514Y-93910330D01*
X121535371Y-93982902D01*
X121462800Y-94055473D01*
X121390229Y-94200616D01*
X121535371Y-95289188D02*
X121462800Y-95361759D01*
X121390229Y-95506902D01*
X121390229Y-95869759D01*
X121462800Y-96014902D01*
X121535371Y-96087473D01*
X121680514Y-96160045D01*
X121825657Y-96160045D01*
X122043371Y-96087473D01*
X122914229Y-95216616D01*
X122914229Y-96160045D01*
X121390229Y-96595474D02*
X122914229Y-97103474D01*
X121390229Y-97611474D01*
X122478800Y-98046903D02*
X122478800Y-98772617D01*
X122914229Y-97901760D02*
X121390229Y-98409760D01*
X122914229Y-98917760D01*
X122914229Y-100296617D02*
X122188514Y-99788617D01*
X122914229Y-99425760D02*
X121390229Y-99425760D01*
X121390229Y-100006332D01*
X121462800Y-100151474D01*
X121535371Y-100224046D01*
X121680514Y-100296617D01*
X121898229Y-100296617D01*
X122043371Y-100224046D01*
X122115943Y-100151474D01*
X122188514Y-100006332D01*
X122188514Y-99425760D01*
X121390229Y-101893189D02*
X122914229Y-102401189D01*
X121390229Y-102909189D01*
X122914229Y-104142903D02*
X122914229Y-103417189D01*
X121390229Y-103417189D01*
X122115943Y-105158903D02*
X122115943Y-104650903D01*
X122914229Y-104650903D02*
X121390229Y-104650903D01*
X121390229Y-105376617D01*
X122914229Y-107989189D02*
X122188514Y-107481189D01*
X122914229Y-107118332D02*
X121390229Y-107118332D01*
X121390229Y-107698904D01*
X121462800Y-107844046D01*
X121535371Y-107916618D01*
X121680514Y-107989189D01*
X121898229Y-107989189D01*
X122043371Y-107916618D01*
X122115943Y-107844046D01*
X122188514Y-107698904D01*
X122188514Y-107118332D01*
X122914229Y-109295475D02*
X122115943Y-109295475D01*
X121970800Y-109222904D01*
X121898229Y-109077761D01*
X121898229Y-108787475D01*
X121970800Y-108642332D01*
X122841657Y-109295475D02*
X122914229Y-109150332D01*
X122914229Y-108787475D01*
X122841657Y-108642332D01*
X122696514Y-108569761D01*
X122551371Y-108569761D01*
X122406229Y-108642332D01*
X122333657Y-108787475D01*
X122333657Y-109150332D01*
X122261086Y-109295475D01*
X122914229Y-110674332D02*
X121390229Y-110674332D01*
X122841657Y-110674332D02*
X122914229Y-110529189D01*
X122914229Y-110238903D01*
X122841657Y-110093761D01*
X122769086Y-110021189D01*
X122623943Y-109948618D01*
X122188514Y-109948618D01*
X122043371Y-110021189D01*
X121970800Y-110093761D01*
X121898229Y-110238903D01*
X121898229Y-110529189D01*
X121970800Y-110674332D01*
X122914229Y-111400046D02*
X121898229Y-111400046D01*
X121390229Y-111400046D02*
X121462800Y-111327475D01*
X121535371Y-111400046D01*
X121462800Y-111472618D01*
X121390229Y-111400046D01*
X121535371Y-111400046D01*
X122914229Y-112343474D02*
X122841657Y-112198332D01*
X122769086Y-112125760D01*
X122623943Y-112053189D01*
X122188514Y-112053189D01*
X122043371Y-112125760D01*
X121970800Y-112198332D01*
X121898229Y-112343474D01*
X121898229Y-112561189D01*
X121970800Y-112706332D01*
X122043371Y-112778903D01*
X122188514Y-112851474D01*
X122623943Y-112851474D01*
X122769086Y-112778903D01*
X122841657Y-112706332D01*
X122914229Y-112561189D01*
X122914229Y-112343474D01*
X122914229Y-115536617D02*
X122188514Y-115028617D01*
X122914229Y-114665760D02*
X121390229Y-114665760D01*
X121390229Y-115246332D01*
X121462800Y-115391474D01*
X121535371Y-115464046D01*
X121680514Y-115536617D01*
X121898229Y-115536617D01*
X122043371Y-115464046D01*
X122115943Y-115391474D01*
X122188514Y-115246332D01*
X122188514Y-114665760D01*
X122841657Y-116770332D02*
X122914229Y-116625189D01*
X122914229Y-116334903D01*
X122841657Y-116189760D01*
X122696514Y-116117189D01*
X122115943Y-116117189D01*
X121970800Y-116189760D01*
X121898229Y-116334903D01*
X121898229Y-116625189D01*
X121970800Y-116770332D01*
X122115943Y-116842903D01*
X122261086Y-116842903D01*
X122406229Y-116117189D01*
X122841657Y-118149189D02*
X122914229Y-118004046D01*
X122914229Y-117713760D01*
X122841657Y-117568618D01*
X122769086Y-117496046D01*
X122623943Y-117423475D01*
X122188514Y-117423475D01*
X122043371Y-117496046D01*
X121970800Y-117568618D01*
X121898229Y-117713760D01*
X121898229Y-118004046D01*
X121970800Y-118149189D01*
X122841657Y-119382904D02*
X122914229Y-119237761D01*
X122914229Y-118947475D01*
X122841657Y-118802332D01*
X122696514Y-118729761D01*
X122115943Y-118729761D01*
X121970800Y-118802332D01*
X121898229Y-118947475D01*
X121898229Y-119237761D01*
X121970800Y-119382904D01*
X122115943Y-119455475D01*
X122261086Y-119455475D01*
X122406229Y-118729761D01*
X122914229Y-120108618D02*
X121898229Y-120108618D01*
X121390229Y-120108618D02*
X121462800Y-120036047D01*
X121535371Y-120108618D01*
X121462800Y-120181190D01*
X121390229Y-120108618D01*
X121535371Y-120108618D01*
X121898229Y-120689189D02*
X122914229Y-121052046D01*
X121898229Y-121414904D01*
X122841657Y-122576047D02*
X122914229Y-122430904D01*
X122914229Y-122140618D01*
X122841657Y-121995475D01*
X122696514Y-121922904D01*
X122115943Y-121922904D01*
X121970800Y-121995475D01*
X121898229Y-122140618D01*
X121898229Y-122430904D01*
X121970800Y-122576047D01*
X122115943Y-122648618D01*
X122261086Y-122648618D01*
X122406229Y-121922904D01*
X122914229Y-123301761D02*
X121898229Y-123301761D01*
X122188514Y-123301761D02*
X122043371Y-123374333D01*
X121970800Y-123446904D01*
X121898229Y-123592047D01*
X121898229Y-123737190D01*
%LPC*%
D12*
X88955880Y-70459600D03*
X88955880Y-67919600D03*
X88955880Y-65379600D03*
X88955880Y-62839600D03*
X81335880Y-62839600D03*
X81335880Y-65379600D03*
X81335880Y-67919600D03*
X81335880Y-70459600D03*
D13*
X74980800Y-86217760D03*
D14*
X74980800Y-83677760D03*
D15*
X90347800Y-111918260D03*
X90347800Y-102918260D03*
X80065880Y-54132480D03*
X89065880Y-54132480D03*
D16*
X79385800Y-74787760D03*
D17*
X76885800Y-74787760D03*
D16*
X103515800Y-84947760D03*
D17*
X101015800Y-84947760D03*
D16*
X113358300Y-76756260D03*
D17*
X110858300Y-76756260D03*
D16*
X108254800Y-72120760D03*
D17*
X110754800Y-72120760D03*
D16*
X92760800Y-93837760D03*
D17*
X95260800Y-93837760D03*
D13*
X89339420Y-119364760D03*
D14*
X86799420Y-119364760D03*
D13*
X106608880Y-53294280D03*
D14*
X106608880Y-55834280D03*
D18*
X93395800Y-88757760D03*
X93395800Y-90535760D03*
X93395800Y-86979760D03*
D19*
X73964800Y-59420760D03*
X72186800Y-59420760D03*
X75742800Y-59420760D03*
D15*
X88950800Y-58150760D03*
X79950800Y-58150760D03*
X93344220Y-66923920D03*
X102344220Y-66923920D03*
X82600800Y-75422760D03*
X82600800Y-84422760D03*
X79966040Y-46459140D03*
X88966040Y-46459140D03*
X102403420Y-55201820D03*
X93403420Y-55201820D03*
X93360240Y-62684660D03*
X102360240Y-62684660D03*
D20*
X73710800Y-47482760D03*
X73710800Y-119872760D03*
X105460800Y-47482760D03*
D15*
X107556300Y-76057760D03*
X107556300Y-85057760D03*
X102403420Y-58867040D03*
X93403420Y-58867040D03*
X90220800Y-84422760D03*
X90220800Y-75422760D03*
X86855300Y-102791260D03*
X86855300Y-111791260D03*
X86410800Y-84312760D03*
X86410800Y-75312760D03*
D18*
X78219300Y-98282760D03*
X78219300Y-100060760D03*
X78219300Y-96504760D03*
D15*
X88950800Y-50276760D03*
X79950800Y-50276760D03*
D21*
X79171800Y-119745760D03*
D22*
X81711800Y-119745760D03*
D23*
X82283300Y-88075760D03*
D24*
X82283300Y-93075760D03*
D12*
X94401640Y-72773540D03*
X94401640Y-75313540D03*
X94401640Y-77853540D03*
X94401640Y-80393540D03*
X102021640Y-80393540D03*
X102021640Y-77853540D03*
X102021640Y-75313540D03*
X102021640Y-72773540D03*
D25*
X121970800Y-77962760D03*
X121970800Y-83042760D03*
X121970800Y-88122760D03*
D15*
X94066360Y-107947460D03*
D26*
X94066360Y-97787460D03*
D15*
X94030800Y-122412760D03*
D26*
X94030800Y-112252760D03*
D23*
X76869300Y-91107260D03*
D24*
X71869300Y-91107260D03*
D23*
X72898000Y-74662020D03*
D24*
X72898000Y-79662020D03*
D23*
X109778800Y-67976760D03*
D24*
X109778800Y-62976760D03*
D23*
X112382300Y-80248760D03*
D24*
X112382300Y-85248760D03*
D23*
X71739760Y-69626480D03*
D24*
X76739760Y-69626480D03*
D23*
X76678800Y-53832760D03*
D24*
X71678800Y-53832760D03*
D23*
X72948800Y-96013260D03*
D24*
X72948800Y-101013260D03*
D27*
X82283300Y-108252260D03*
X76283820Y-108252260D03*
X79283560Y-112951260D03*
X101523800Y-115095020D03*
X101523800Y-121094500D03*
X106222800Y-118094760D03*
D28*
X114571780Y-72864980D03*
X114571780Y-70324980D03*
X114571780Y-65244980D03*
X114571780Y-62704980D03*
X119651780Y-67784980D03*
D29*
X116154200Y-111472980D03*
X116154200Y-121671080D03*
D30*
X111889540Y-116570760D03*
X111889540Y-114071400D03*
D29*
X116128800Y-46720760D03*
X116128800Y-56918860D03*
D30*
X111864140Y-51818540D03*
X111864140Y-49319180D03*
D29*
X116154200Y-94454980D03*
X116154200Y-104653080D03*
D30*
X111889540Y-99552760D03*
X111889540Y-97053400D03*
D31*
X103174800Y-110157260D03*
X100634800Y-110157260D03*
X105714800Y-110157260D03*
D16*
X75806300Y-64665860D03*
D17*
X73306300Y-64665860D03*
D16*
X113993300Y-89430860D03*
D17*
X111493300Y-89430860D03*
M02*
