%TF.GenerationSoftware,KiCad,Pcbnew,4.0.4+e1-6308~48~ubuntu16.04.1-stable*%
%TF.CreationDate,2016-12-26T16:23:57-08:00*%
%TF.ProjectId,e202var-vlf-radio-receiver,653230327661722D766C662D72616469,v1.3*%
%TF.FileFunction,Legend,Top*%
%FSLAX46Y46*%
G04 Gerber Fmt 4.6, Leading zero omitted, Abs format (unit mm)*
G04 Created by KiCad (PCBNEW 4.0.4+e1-6308~48~ubuntu16.04.1-stable) date Mon Dec 26 16:23:57 2016*
%MOMM*%
%LPD*%
G01*
G04 APERTURE LIST*
%ADD10C,0.350000*%
%ADD11C,0.152400*%
%ADD12C,0.150000*%
%ADD13C,0.508000*%
G04 APERTURE END LIST*
D10*
D11*
X59457167Y-108981119D02*
X59650691Y-108981119D01*
X59747452Y-108932738D01*
X59795833Y-108884357D01*
X59892595Y-108739214D01*
X59940976Y-108545690D01*
X59940976Y-108158643D01*
X59892595Y-108061881D01*
X59844214Y-108013500D01*
X59747452Y-107965119D01*
X59553929Y-107965119D01*
X59457167Y-108013500D01*
X59408786Y-108061881D01*
X59360405Y-108158643D01*
X59360405Y-108400548D01*
X59408786Y-108497310D01*
X59457167Y-108545690D01*
X59553929Y-108594071D01*
X59747452Y-108594071D01*
X59844214Y-108545690D01*
X59892595Y-108497310D01*
X59940976Y-108400548D01*
X60231262Y-107965119D02*
X60569929Y-108981119D01*
X60908595Y-107965119D01*
X62021357Y-108981119D02*
X62021357Y-107965119D01*
X62505167Y-108981119D02*
X62505167Y-107965119D01*
X63085738Y-108981119D01*
X63085738Y-107965119D01*
X63569548Y-108981119D02*
X63569548Y-107965119D01*
X63956595Y-107965119D01*
X64053357Y-108013500D01*
X64101738Y-108061881D01*
X64150119Y-108158643D01*
X64150119Y-108303786D01*
X64101738Y-108400548D01*
X64053357Y-108448929D01*
X63956595Y-108497310D01*
X63569548Y-108497310D01*
X64585548Y-107965119D02*
X64585548Y-108787595D01*
X64633929Y-108884357D01*
X64682310Y-108932738D01*
X64779072Y-108981119D01*
X64972595Y-108981119D01*
X65069357Y-108932738D01*
X65117738Y-108884357D01*
X65166119Y-108787595D01*
X65166119Y-107965119D01*
X65504786Y-107965119D02*
X66085357Y-107965119D01*
X65795072Y-108981119D02*
X65795072Y-107965119D01*
X106020810Y-69638333D02*
X106504619Y-69638333D01*
X105924048Y-69928619D02*
X106262715Y-68912619D01*
X106601381Y-69928619D01*
X106940048Y-68912619D02*
X106940048Y-69735095D01*
X106988429Y-69831857D01*
X107036810Y-69880238D01*
X107133572Y-69928619D01*
X107327095Y-69928619D01*
X107423857Y-69880238D01*
X107472238Y-69831857D01*
X107520619Y-69735095D01*
X107520619Y-68912619D01*
X108004429Y-69928619D02*
X108004429Y-68912619D01*
X108246334Y-68912619D01*
X108391476Y-68961000D01*
X108488238Y-69057762D01*
X108536619Y-69154524D01*
X108585000Y-69348048D01*
X108585000Y-69493190D01*
X108536619Y-69686714D01*
X108488238Y-69783476D01*
X108391476Y-69880238D01*
X108246334Y-69928619D01*
X108004429Y-69928619D01*
X109020429Y-69928619D02*
X109020429Y-68912619D01*
X109697763Y-68912619D02*
X109891286Y-68912619D01*
X109988048Y-68961000D01*
X110084810Y-69057762D01*
X110133191Y-69251286D01*
X110133191Y-69589952D01*
X110084810Y-69783476D01*
X109988048Y-69880238D01*
X109891286Y-69928619D01*
X109697763Y-69928619D01*
X109601001Y-69880238D01*
X109504239Y-69783476D01*
X109455858Y-69589952D01*
X109455858Y-69251286D01*
X109504239Y-69057762D01*
X109601001Y-68961000D01*
X109697763Y-68912619D01*
X104902000Y-85803619D02*
X104418191Y-85803619D01*
X104418191Y-84787619D01*
X105240667Y-85803619D02*
X105240667Y-84787619D01*
X105724477Y-85803619D02*
X105724477Y-84787619D01*
X106305048Y-85803619D01*
X106305048Y-84787619D01*
X106788858Y-85271429D02*
X107127524Y-85271429D01*
X107272667Y-85803619D02*
X106788858Y-85803619D01*
X106788858Y-84787619D01*
X107272667Y-84787619D01*
X108482191Y-85803619D02*
X108482191Y-84787619D01*
X108966001Y-85803619D02*
X108966001Y-84787619D01*
X109546572Y-85803619D01*
X109546572Y-84787619D01*
X110756096Y-84739238D02*
X109885239Y-86045524D01*
X111288287Y-84787619D02*
X111481810Y-84787619D01*
X111578572Y-84836000D01*
X111675334Y-84932762D01*
X111723715Y-85126286D01*
X111723715Y-85464952D01*
X111675334Y-85658476D01*
X111578572Y-85755238D01*
X111481810Y-85803619D01*
X111288287Y-85803619D01*
X111191525Y-85755238D01*
X111094763Y-85658476D01*
X111046382Y-85464952D01*
X111046382Y-85126286D01*
X111094763Y-84932762D01*
X111191525Y-84836000D01*
X111288287Y-84787619D01*
X112159144Y-84787619D02*
X112159144Y-85610095D01*
X112207525Y-85706857D01*
X112255906Y-85755238D01*
X112352668Y-85803619D01*
X112546191Y-85803619D01*
X112642953Y-85755238D01*
X112691334Y-85706857D01*
X112739715Y-85610095D01*
X112739715Y-84787619D01*
X113078382Y-84787619D02*
X113658953Y-84787619D01*
X113368668Y-85803619D02*
X113368668Y-84787619D01*
X108802715Y-55223833D02*
X109286524Y-55223833D01*
X108705953Y-55514119D02*
X109044620Y-54498119D01*
X109383286Y-55514119D01*
X109721953Y-55514119D02*
X109721953Y-54498119D01*
X110302524Y-55514119D01*
X110302524Y-54498119D01*
X110641191Y-54498119D02*
X111221762Y-54498119D01*
X110931477Y-55514119D02*
X110931477Y-54498119D01*
X111318524Y-55610881D02*
X112092619Y-55610881D01*
X112334524Y-55514119D02*
X112334524Y-54498119D01*
X112818334Y-55514119D02*
X112818334Y-54498119D01*
X113398905Y-55514119D01*
X113398905Y-54498119D01*
X96937286Y-116588419D02*
X96356715Y-116588419D01*
X96647001Y-116588419D02*
X96647001Y-115572419D01*
X96550239Y-115717562D01*
X96453477Y-115814324D01*
X96356715Y-115862705D01*
X97324334Y-115669181D02*
X97372715Y-115620800D01*
X97469477Y-115572419D01*
X97711381Y-115572419D01*
X97808143Y-115620800D01*
X97856524Y-115669181D01*
X97904905Y-115765943D01*
X97904905Y-115862705D01*
X97856524Y-116007848D01*
X97275953Y-116588419D01*
X97904905Y-116588419D01*
X99066048Y-115524038D02*
X98195191Y-116830324D01*
X97034048Y-118264819D02*
X96453477Y-118264819D01*
X96743763Y-118264819D02*
X96743763Y-117248819D01*
X96647001Y-117393962D01*
X96550239Y-117490724D01*
X96453477Y-117539105D01*
X97614620Y-117684248D02*
X97517858Y-117635867D01*
X97469477Y-117587486D01*
X97421096Y-117490724D01*
X97421096Y-117442343D01*
X97469477Y-117345581D01*
X97517858Y-117297200D01*
X97614620Y-117248819D01*
X97808143Y-117248819D01*
X97904905Y-117297200D01*
X97953286Y-117345581D01*
X98001667Y-117442343D01*
X98001667Y-117490724D01*
X97953286Y-117587486D01*
X97904905Y-117635867D01*
X97808143Y-117684248D01*
X97614620Y-117684248D01*
X97517858Y-117732629D01*
X97469477Y-117781010D01*
X97421096Y-117877771D01*
X97421096Y-118071295D01*
X97469477Y-118168057D01*
X97517858Y-118216438D01*
X97614620Y-118264819D01*
X97808143Y-118264819D01*
X97904905Y-118216438D01*
X97953286Y-118168057D01*
X98001667Y-118071295D01*
X98001667Y-117877771D01*
X97953286Y-117781010D01*
X97904905Y-117732629D01*
X97808143Y-117684248D01*
X98291953Y-117248819D02*
X98630620Y-118264819D01*
X98969286Y-117248819D01*
X60588071Y-77512333D02*
X60588071Y-77173667D01*
X60055881Y-77173667D02*
X61071881Y-77173667D01*
X61071881Y-77657476D01*
X60055881Y-78044524D02*
X61071881Y-78044524D01*
X60055881Y-79012143D02*
X60055881Y-78528334D01*
X61071881Y-78528334D01*
X61071881Y-79205667D02*
X61071881Y-79786238D01*
X60055881Y-79495953D02*
X61071881Y-79495953D01*
X60588071Y-80124905D02*
X60588071Y-80463571D01*
X60055881Y-80608714D02*
X60055881Y-80124905D01*
X61071881Y-80124905D01*
X61071881Y-80608714D01*
X60055881Y-81624714D02*
X60539690Y-81286048D01*
X60055881Y-81044143D02*
X61071881Y-81044143D01*
X61071881Y-81431190D01*
X61023500Y-81527952D01*
X60975119Y-81576333D01*
X60878357Y-81624714D01*
X60733214Y-81624714D01*
X60636452Y-81576333D01*
X60588071Y-81527952D01*
X60539690Y-81431190D01*
X60539690Y-81044143D01*
X75291890Y-117299619D02*
X75485413Y-117299619D01*
X75582175Y-117348000D01*
X75678937Y-117444762D01*
X75727318Y-117638286D01*
X75727318Y-117976952D01*
X75678937Y-118170476D01*
X75582175Y-118267238D01*
X75485413Y-118315619D01*
X75291890Y-118315619D01*
X75195128Y-118267238D01*
X75098366Y-118170476D01*
X75049985Y-117976952D01*
X75049985Y-117638286D01*
X75098366Y-117444762D01*
X75195128Y-117348000D01*
X75291890Y-117299619D01*
X76162747Y-118315619D02*
X76162747Y-117299619D01*
X76743318Y-118315619D01*
X76743318Y-117299619D01*
X77952842Y-117251238D02*
X77081985Y-118557524D01*
X78485033Y-117299619D02*
X78678556Y-117299619D01*
X78775318Y-117348000D01*
X78872080Y-117444762D01*
X78920461Y-117638286D01*
X78920461Y-117976952D01*
X78872080Y-118170476D01*
X78775318Y-118267238D01*
X78678556Y-118315619D01*
X78485033Y-118315619D01*
X78388271Y-118267238D01*
X78291509Y-118170476D01*
X78243128Y-117976952D01*
X78243128Y-117638286D01*
X78291509Y-117444762D01*
X78388271Y-117348000D01*
X78485033Y-117299619D01*
X79694556Y-117783429D02*
X79355890Y-117783429D01*
X79355890Y-118315619D02*
X79355890Y-117299619D01*
X79839699Y-117299619D01*
X80565413Y-117783429D02*
X80226747Y-117783429D01*
X80226747Y-118315619D02*
X80226747Y-117299619D01*
X80710556Y-117299619D01*
D12*
X65894400Y-60358340D02*
X62894400Y-60358340D01*
X62894400Y-57858340D02*
X65894400Y-57858340D01*
D13*
X79451986Y-66588640D02*
G75*
G03X79451986Y-66588640I-148106J0D01*
G01*
D12*
X78610080Y-67181840D02*
X78610080Y-65911840D01*
X71260080Y-67181840D02*
X71260080Y-65911840D01*
X71260080Y-54971840D02*
X71260080Y-56241840D01*
X78610080Y-54971840D02*
X78610080Y-56241840D01*
X78610080Y-67181840D02*
X71260080Y-67181840D01*
X78610080Y-54971840D02*
X71260080Y-54971840D01*
X78610080Y-65911840D02*
X79895080Y-65911840D01*
X63500000Y-79375000D02*
X63500000Y-76835000D01*
X63220000Y-82195000D02*
X63220000Y-80645000D01*
X63500000Y-79375000D02*
X66040000Y-79375000D01*
X66320000Y-80645000D02*
X66320000Y-82195000D01*
X66320000Y-82195000D02*
X63220000Y-82195000D01*
X66040000Y-79375000D02*
X66040000Y-76835000D01*
X66040000Y-76835000D02*
X63500000Y-76835000D01*
X78867000Y-105075500D02*
X78867000Y-98725500D01*
X78867000Y-98725500D02*
X81407000Y-98725500D01*
X81407000Y-98725500D02*
X81407000Y-105075500D01*
X81407000Y-105075500D02*
X78867000Y-105075500D01*
X78232000Y-83693000D02*
X78232000Y-90043000D01*
X78232000Y-90043000D02*
X75692000Y-90043000D01*
X75692000Y-90043000D02*
X75692000Y-83693000D01*
X75692000Y-83693000D02*
X78232000Y-83693000D01*
X71125080Y-47289720D02*
X77475080Y-47289720D01*
X77475080Y-47289720D02*
X77475080Y-49829720D01*
X77475080Y-49829720D02*
X71125080Y-49829720D01*
X71125080Y-49829720D02*
X71125080Y-47289720D01*
X85360000Y-39420800D02*
X87360000Y-39420800D01*
X89865200Y-41926000D02*
X89865200Y-43926000D01*
X87360000Y-46431200D02*
X85360000Y-46431200D01*
X82854800Y-43926000D02*
X82854800Y-41926000D01*
X69425000Y-70465000D02*
X66425000Y-70465000D01*
X66425000Y-67965000D02*
X69425000Y-67965000D01*
X93555000Y-80625000D02*
X90555000Y-80625000D01*
X90555000Y-78125000D02*
X93555000Y-78125000D01*
X103397500Y-72433500D02*
X100397500Y-72433500D01*
X100397500Y-69933500D02*
X103397500Y-69933500D01*
X97794000Y-65298000D02*
X100794000Y-65298000D01*
X100794000Y-67798000D02*
X97794000Y-67798000D01*
X82300000Y-87015000D02*
X85300000Y-87015000D01*
X85300000Y-89515000D02*
X82300000Y-89515000D01*
X104072500Y-84371500D02*
X101072500Y-84371500D01*
X101072500Y-81871500D02*
X104072500Y-81871500D01*
X77858620Y-115062000D02*
X75318620Y-115062000D01*
X80678620Y-115342000D02*
X79128620Y-115342000D01*
X77858620Y-115062000D02*
X77858620Y-112522000D01*
X79128620Y-112242000D02*
X80678620Y-112242000D01*
X80678620Y-112242000D02*
X80678620Y-115342000D01*
X77858620Y-112522000D02*
X75318620Y-112522000D01*
X75318620Y-112522000D02*
X75318620Y-115062000D01*
X97668080Y-48991520D02*
X97668080Y-51531520D01*
X97948080Y-46171520D02*
X97948080Y-47721520D01*
X97668080Y-48991520D02*
X95128080Y-48991520D01*
X94848080Y-47721520D02*
X94848080Y-46171520D01*
X94848080Y-46171520D02*
X97948080Y-46171520D01*
X95128080Y-48991520D02*
X95128080Y-51531520D01*
X95128080Y-51531520D02*
X97668080Y-51531520D01*
X81485000Y-81485000D02*
X81485000Y-84885000D01*
X81487944Y-81487944D02*
G75*
G02X85585000Y-83185000I1697056J-1697056D01*
G01*
X81487944Y-84882056D02*
G75*
G03X85585000Y-83185000I1697056J1697056D01*
G01*
X65454000Y-52148000D02*
X62054000Y-52148000D01*
X65451056Y-52150944D02*
G75*
G02X63754000Y-56248000I-1697056J-1697056D01*
G01*
X62056944Y-52150944D02*
G75*
G03X63754000Y-56248000I1697056J-1697056D01*
G01*
X77470000Y-53848000D02*
X71120000Y-53848000D01*
X71120000Y-53848000D02*
X71120000Y-51308000D01*
X71120000Y-51308000D02*
X77470000Y-51308000D01*
X77470000Y-51308000D02*
X77470000Y-53848000D01*
X84403420Y-60081160D02*
X90753420Y-60081160D01*
X90753420Y-60081160D02*
X90753420Y-62621160D01*
X90753420Y-62621160D02*
X84403420Y-62621160D01*
X84403420Y-62621160D02*
X84403420Y-60081160D01*
X73660000Y-71120000D02*
X73660000Y-77470000D01*
X73660000Y-77470000D02*
X71120000Y-77470000D01*
X71120000Y-77470000D02*
X71120000Y-71120000D01*
X71120000Y-71120000D02*
X73660000Y-71120000D01*
X71025240Y-39616380D02*
X77375240Y-39616380D01*
X77375240Y-39616380D02*
X77375240Y-42156380D01*
X77375240Y-42156380D02*
X71025240Y-42156380D01*
X71025240Y-42156380D02*
X71025240Y-39616380D01*
X90922620Y-50899060D02*
X84572620Y-50899060D01*
X84572620Y-50899060D02*
X84572620Y-48359060D01*
X84572620Y-48359060D02*
X90922620Y-48359060D01*
X90922620Y-48359060D02*
X90922620Y-50899060D01*
X84419440Y-55841900D02*
X90769440Y-55841900D01*
X90769440Y-55841900D02*
X90769440Y-58381900D01*
X90769440Y-58381900D02*
X84419440Y-58381900D01*
X84419440Y-58381900D02*
X84419440Y-55841900D01*
X98615500Y-71755000D02*
X98615500Y-78105000D01*
X98615500Y-78105000D02*
X96075500Y-78105000D01*
X96075500Y-78105000D02*
X96075500Y-71755000D01*
X96075500Y-71755000D02*
X98615500Y-71755000D01*
X90922620Y-54564280D02*
X84572620Y-54564280D01*
X84572620Y-54564280D02*
X84572620Y-52024280D01*
X84572620Y-52024280D02*
X90922620Y-52024280D01*
X90922620Y-52024280D02*
X90922620Y-54564280D01*
X78740000Y-77580000D02*
X78740000Y-71230000D01*
X78740000Y-71230000D02*
X81280000Y-71230000D01*
X81280000Y-71230000D02*
X81280000Y-77580000D01*
X81280000Y-77580000D02*
X78740000Y-77580000D01*
X77914500Y-98488500D02*
X77914500Y-104838500D01*
X77914500Y-104838500D02*
X75374500Y-104838500D01*
X75374500Y-104838500D02*
X75374500Y-98488500D01*
X75374500Y-98488500D02*
X77914500Y-98488500D01*
X74930000Y-77470000D02*
X74930000Y-71120000D01*
X74930000Y-71120000D02*
X77470000Y-71120000D01*
X77470000Y-71120000D02*
X77470000Y-77470000D01*
X77470000Y-77470000D02*
X74930000Y-77470000D01*
X66308500Y-91010000D02*
X66308500Y-94410000D01*
X66311444Y-91012944D02*
G75*
G02X70408500Y-92710000I1697056J-1697056D01*
G01*
X66311444Y-94407056D02*
G75*
G03X70408500Y-92710000I1697056J1697056D01*
G01*
X77470000Y-45974000D02*
X71120000Y-45974000D01*
X71120000Y-45974000D02*
X71120000Y-43434000D01*
X71120000Y-43434000D02*
X77470000Y-43434000D01*
X77470000Y-43434000D02*
X77470000Y-45974000D01*
X67746112Y-115697904D02*
G75*
G03X67731000Y-112673000I2484888J1524904D01*
G01*
X67731000Y-115673000D02*
X67731000Y-112673000D01*
X72748936Y-114173000D02*
G75*
G03X72748936Y-114173000I-2517936J0D01*
G01*
X74322500Y-81253000D02*
X74322500Y-88753000D01*
X74322500Y-88753000D02*
X69822500Y-88753000D01*
X69822500Y-88753000D02*
X69822500Y-81253000D01*
X69822500Y-81253000D02*
X74322500Y-81253000D01*
D13*
X83780146Y-65498980D02*
G75*
G03X83780146Y-65498980I-148106J0D01*
G01*
D12*
X84325840Y-64905780D02*
X84325840Y-66175780D01*
X91675840Y-64905780D02*
X91675840Y-66175780D01*
X91675840Y-77115780D02*
X91675840Y-75845780D01*
X84325840Y-77115780D02*
X84325840Y-75845780D01*
X84325840Y-64905780D02*
X91675840Y-64905780D01*
X84325840Y-77115780D02*
X91675840Y-77115780D01*
X84325840Y-66175780D02*
X83040840Y-66175780D01*
X110210000Y-72390000D02*
X110210000Y-70840000D01*
X110210000Y-70840000D02*
X113310000Y-70840000D01*
X113310000Y-70840000D02*
X113310000Y-72390000D01*
X113030000Y-73660000D02*
X113030000Y-83820000D01*
X113030000Y-83820000D02*
X110490000Y-83820000D01*
X110490000Y-83820000D02*
X110490000Y-73660000D01*
X113030000Y-73660000D02*
X110490000Y-73660000D01*
X83855560Y-99834700D02*
X83855560Y-100850700D01*
X83855560Y-95008700D02*
X83855560Y-93738700D01*
X85125560Y-95262700D02*
X82585560Y-95262700D01*
X85125560Y-95516700D02*
X82585560Y-95516700D01*
X85125560Y-95770700D02*
X82585560Y-95770700D01*
X85125560Y-95008700D02*
X82585560Y-95008700D01*
X85125560Y-96024700D02*
X82585560Y-94754700D01*
X85125560Y-94754700D02*
X82585560Y-96024700D01*
X85125560Y-96024700D02*
X82585560Y-96024700D01*
X85125560Y-95389700D02*
X82585560Y-95389700D01*
X82585560Y-94754700D02*
X85125560Y-94754700D01*
X85125560Y-94754700D02*
X85125560Y-99834700D01*
X85125560Y-99834700D02*
X82585560Y-99834700D01*
X82585560Y-99834700D02*
X82585560Y-94754700D01*
X83820000Y-114300000D02*
X83820000Y-115316000D01*
X83820000Y-109474000D02*
X83820000Y-108204000D01*
X85090000Y-109728000D02*
X82550000Y-109728000D01*
X85090000Y-109982000D02*
X82550000Y-109982000D01*
X85090000Y-110236000D02*
X82550000Y-110236000D01*
X85090000Y-109474000D02*
X82550000Y-109474000D01*
X85090000Y-110490000D02*
X82550000Y-109220000D01*
X85090000Y-109220000D02*
X82550000Y-110490000D01*
X85090000Y-110490000D02*
X82550000Y-110490000D01*
X85090000Y-109855000D02*
X82550000Y-109855000D01*
X82550000Y-109220000D02*
X85090000Y-109220000D01*
X85090000Y-109220000D02*
X85090000Y-114300000D01*
X85090000Y-114300000D02*
X82550000Y-114300000D01*
X82550000Y-114300000D02*
X82550000Y-109220000D01*
X67908500Y-87784500D02*
X60408500Y-87784500D01*
X60408500Y-87784500D02*
X60408500Y-83284500D01*
X60408500Y-83284500D02*
X67908500Y-83284500D01*
X67908500Y-83284500D02*
X67908500Y-87784500D01*
X64937200Y-67839260D02*
X64937200Y-75339260D01*
X64937200Y-75339260D02*
X60437200Y-75339260D01*
X60437200Y-75339260D02*
X60437200Y-67839260D01*
X60437200Y-67839260D02*
X64937200Y-67839260D01*
X97318000Y-63654000D02*
X97318000Y-56154000D01*
X97318000Y-56154000D02*
X101818000Y-56154000D01*
X101818000Y-56154000D02*
X101818000Y-63654000D01*
X101818000Y-63654000D02*
X97318000Y-63654000D01*
X104421500Y-73426000D02*
X104421500Y-80926000D01*
X104421500Y-80926000D02*
X99921500Y-80926000D01*
X99921500Y-80926000D02*
X99921500Y-73426000D01*
X99921500Y-73426000D02*
X104421500Y-73426000D01*
X60278960Y-61803720D02*
X67778960Y-61803720D01*
X67778960Y-61803720D02*
X67778960Y-66303720D01*
X67778960Y-66303720D02*
X60278960Y-66303720D01*
X60278960Y-66303720D02*
X60278960Y-61803720D01*
X67718000Y-50510000D02*
X60218000Y-50510000D01*
X60218000Y-50510000D02*
X60218000Y-46010000D01*
X60218000Y-46010000D02*
X67718000Y-46010000D01*
X67718000Y-46010000D02*
X67718000Y-50510000D01*
X64988000Y-89190500D02*
X64988000Y-96690500D01*
X64988000Y-96690500D02*
X60488000Y-96690500D01*
X60488000Y-96690500D02*
X60488000Y-89190500D01*
X60488000Y-89190500D02*
X64988000Y-89190500D01*
X61871860Y-98178620D02*
X61871860Y-107180380D01*
X58371740Y-98178620D02*
X58371740Y-107180380D01*
X58371740Y-107180380D02*
X72872600Y-107180380D01*
X72872600Y-107180380D02*
X72872600Y-98178620D01*
X72872600Y-98178620D02*
X58371740Y-98178620D01*
X86812120Y-119722900D02*
X95813880Y-119722900D01*
X86812120Y-123223020D02*
X95813880Y-123223020D01*
X95813880Y-123223020D02*
X95813880Y-108722160D01*
X95813880Y-108722160D02*
X86812120Y-108722160D01*
X86812120Y-108722160D02*
X86812120Y-123223020D01*
D11*
X114774980Y-59672220D02*
X113250980Y-59672220D01*
X114774980Y-64752220D02*
X114774980Y-59672220D01*
X113250980Y-64752220D02*
X114774980Y-64752220D01*
X113250980Y-55862220D02*
X103090980Y-55862220D01*
X113250980Y-68562220D02*
X113250980Y-55862220D01*
X103090980Y-68562220D02*
X113250980Y-68562220D01*
X103090980Y-55862220D02*
X103090980Y-68562220D01*
X87630000Y-81470500D02*
X98298000Y-81470500D01*
X98298000Y-101536500D02*
X98298000Y-81470500D01*
D12*
X98298000Y-102679500D02*
X96393000Y-102679500D01*
X93853000Y-102679500D02*
X94615000Y-102679500D01*
X91440000Y-102679500D02*
X91313000Y-102679500D01*
X91440000Y-102679500D02*
X92075000Y-102679500D01*
X87630000Y-102679500D02*
X89408000Y-102679500D01*
X87630000Y-106362500D02*
X89281000Y-106362500D01*
X91948000Y-106489500D02*
X91313000Y-106489500D01*
X94488000Y-106489500D02*
X93853000Y-106489500D01*
X98298000Y-106362500D02*
X96647000Y-106362500D01*
X91440000Y-101536500D02*
X91440000Y-102679500D01*
X94488000Y-101536500D02*
X94488000Y-102679500D01*
X98298000Y-102679500D02*
X98298000Y-106362500D01*
X87630000Y-106362500D02*
X87630000Y-102679500D01*
X98298000Y-101536500D02*
X98298000Y-102679500D01*
X87630000Y-102679500D02*
X87630000Y-101536500D01*
X92964000Y-101536500D02*
X87630000Y-101536500D01*
X92964000Y-101536500D02*
X98298000Y-101536500D01*
D11*
X87630000Y-101536500D02*
X87630000Y-81470500D01*
X115316000Y-105156000D02*
X114046000Y-105156000D01*
X115316000Y-116586000D02*
X115316000Y-105156000D01*
X114046000Y-116586000D02*
X115316000Y-116586000D01*
D12*
X99479100Y-103197660D02*
X99479100Y-118798340D01*
X99479100Y-118798340D02*
X113880900Y-118798340D01*
X113880900Y-118798340D02*
X113880900Y-103197660D01*
X113880900Y-103197660D02*
X99479100Y-103197660D01*
D11*
X115290600Y-40403780D02*
X114020600Y-40403780D01*
X115290600Y-51833780D02*
X115290600Y-40403780D01*
X114020600Y-51833780D02*
X115290600Y-51833780D01*
D12*
X99453700Y-38445440D02*
X99453700Y-54046120D01*
X99453700Y-54046120D02*
X113855500Y-54046120D01*
X113855500Y-54046120D02*
X113855500Y-38445440D01*
X113855500Y-38445440D02*
X99453700Y-38445440D01*
D11*
X115316000Y-88138000D02*
X114046000Y-88138000D01*
X115316000Y-99568000D02*
X115316000Y-88138000D01*
X114046000Y-99568000D02*
X115316000Y-99568000D01*
D12*
X99479100Y-86179660D02*
X99479100Y-101780340D01*
X99479100Y-101780340D02*
X113880900Y-101780340D01*
X113880900Y-101780340D02*
X113880900Y-86179660D01*
X113880900Y-86179660D02*
X99479100Y-86179660D01*
X61634643Y-59221666D02*
X61682262Y-59269285D01*
X61729881Y-59412142D01*
X61729881Y-59507380D01*
X61682262Y-59650238D01*
X61587024Y-59745476D01*
X61491786Y-59793095D01*
X61301310Y-59840714D01*
X61158452Y-59840714D01*
X60967976Y-59793095D01*
X60872738Y-59745476D01*
X60777500Y-59650238D01*
X60729881Y-59507380D01*
X60729881Y-59412142D01*
X60777500Y-59269285D01*
X60825119Y-59221666D01*
X61158452Y-58650238D02*
X61110833Y-58745476D01*
X61063214Y-58793095D01*
X60967976Y-58840714D01*
X60920357Y-58840714D01*
X60825119Y-58793095D01*
X60777500Y-58745476D01*
X60729881Y-58650238D01*
X60729881Y-58459761D01*
X60777500Y-58364523D01*
X60825119Y-58316904D01*
X60920357Y-58269285D01*
X60967976Y-58269285D01*
X61063214Y-58316904D01*
X61110833Y-58364523D01*
X61158452Y-58459761D01*
X61158452Y-58650238D01*
X61206071Y-58745476D01*
X61253690Y-58793095D01*
X61348929Y-58840714D01*
X61539405Y-58840714D01*
X61634643Y-58793095D01*
X61682262Y-58745476D01*
X61729881Y-58650238D01*
X61729881Y-58459761D01*
X61682262Y-58364523D01*
X61634643Y-58316904D01*
X61539405Y-58269285D01*
X61348929Y-58269285D01*
X61253690Y-58316904D01*
X61206071Y-58364523D01*
X61158452Y-58459761D01*
X68834095Y-54951381D02*
X68834095Y-55760905D01*
X68881714Y-55856143D01*
X68929333Y-55903762D01*
X69024571Y-55951381D01*
X69215048Y-55951381D01*
X69310286Y-55903762D01*
X69357905Y-55856143D01*
X69405524Y-55760905D01*
X69405524Y-54951381D01*
X69786476Y-54951381D02*
X70405524Y-54951381D01*
X70072190Y-55332333D01*
X70215048Y-55332333D01*
X70310286Y-55379952D01*
X70357905Y-55427571D01*
X70405524Y-55522810D01*
X70405524Y-55760905D01*
X70357905Y-55856143D01*
X70310286Y-55903762D01*
X70215048Y-55951381D01*
X69929333Y-55951381D01*
X69834095Y-55903762D01*
X69786476Y-55856143D01*
X80525881Y-102369857D02*
X80049690Y-102703191D01*
X80525881Y-102941286D02*
X79525881Y-102941286D01*
X79525881Y-102560333D01*
X79573500Y-102465095D01*
X79621119Y-102417476D01*
X79716357Y-102369857D01*
X79859214Y-102369857D01*
X79954452Y-102417476D01*
X80002071Y-102465095D01*
X80049690Y-102560333D01*
X80049690Y-102941286D01*
X80525881Y-101417476D02*
X80525881Y-101988905D01*
X80525881Y-101703191D02*
X79525881Y-101703191D01*
X79668738Y-101798429D01*
X79763976Y-101893667D01*
X79811595Y-101988905D01*
X79525881Y-101084143D02*
X79525881Y-100465095D01*
X79906833Y-100798429D01*
X79906833Y-100655571D01*
X79954452Y-100560333D01*
X80002071Y-100512714D01*
X80097310Y-100465095D01*
X80335405Y-100465095D01*
X80430643Y-100512714D01*
X80478262Y-100560333D01*
X80525881Y-100655571D01*
X80525881Y-100941286D01*
X80478262Y-101036524D01*
X80430643Y-101084143D01*
X77350881Y-86939357D02*
X76874690Y-87272691D01*
X77350881Y-87510786D02*
X76350881Y-87510786D01*
X76350881Y-87129833D01*
X76398500Y-87034595D01*
X76446119Y-86986976D01*
X76541357Y-86939357D01*
X76684214Y-86939357D01*
X76779452Y-86986976D01*
X76827071Y-87034595D01*
X76874690Y-87129833D01*
X76874690Y-87510786D01*
X77350881Y-85986976D02*
X77350881Y-86558405D01*
X77350881Y-86272691D02*
X76350881Y-86272691D01*
X76493738Y-86367929D01*
X76588976Y-86463167D01*
X76636595Y-86558405D01*
X76684214Y-85129833D02*
X77350881Y-85129833D01*
X76303262Y-85367929D02*
X77017548Y-85606024D01*
X77017548Y-84986976D01*
X73937834Y-49093381D02*
X73604500Y-48617190D01*
X73366405Y-49093381D02*
X73366405Y-48093381D01*
X73747358Y-48093381D01*
X73842596Y-48141000D01*
X73890215Y-48188619D01*
X73937834Y-48283857D01*
X73937834Y-48426714D01*
X73890215Y-48521952D01*
X73842596Y-48569571D01*
X73747358Y-48617190D01*
X73366405Y-48617190D01*
X74318786Y-48188619D02*
X74366405Y-48141000D01*
X74461643Y-48093381D01*
X74699739Y-48093381D01*
X74794977Y-48141000D01*
X74842596Y-48188619D01*
X74890215Y-48283857D01*
X74890215Y-48379095D01*
X74842596Y-48521952D01*
X74271167Y-49093381D01*
X74890215Y-49093381D01*
X81560302Y-46201745D02*
X81607921Y-46058888D01*
X81607921Y-45820792D01*
X81560302Y-45725554D01*
X81512683Y-45677935D01*
X81417445Y-45630316D01*
X81322207Y-45630316D01*
X81226969Y-45677935D01*
X81179350Y-45725554D01*
X81131730Y-45820792D01*
X81084111Y-46011269D01*
X81036492Y-46106507D01*
X80988873Y-46154126D01*
X80893635Y-46201745D01*
X80798397Y-46201745D01*
X80703159Y-46154126D01*
X80655540Y-46106507D01*
X80607921Y-46011269D01*
X80607921Y-45773173D01*
X80655540Y-45630316D01*
X81607921Y-45201745D02*
X80607921Y-45201745D01*
X81322207Y-44868411D01*
X80607921Y-44535078D01*
X81607921Y-44535078D01*
X81322207Y-44106507D02*
X81322207Y-43630316D01*
X81607921Y-44201745D02*
X80607921Y-43868412D01*
X81607921Y-43535078D01*
X81607921Y-42677935D02*
X81607921Y-43249364D01*
X81607921Y-42963650D02*
X80607921Y-42963650D01*
X80750778Y-43058888D01*
X80846016Y-43154126D01*
X80893635Y-43249364D01*
X68413334Y-71858143D02*
X68365715Y-71905762D01*
X68222858Y-71953381D01*
X68127620Y-71953381D01*
X67984762Y-71905762D01*
X67889524Y-71810524D01*
X67841905Y-71715286D01*
X67794286Y-71524810D01*
X67794286Y-71381952D01*
X67841905Y-71191476D01*
X67889524Y-71096238D01*
X67984762Y-71001000D01*
X68127620Y-70953381D01*
X68222858Y-70953381D01*
X68365715Y-71001000D01*
X68413334Y-71048619D01*
X69270477Y-71286714D02*
X69270477Y-71953381D01*
X69032381Y-70905762D02*
X68794286Y-71620048D01*
X69413334Y-71620048D01*
X88606334Y-79732143D02*
X88558715Y-79779762D01*
X88415858Y-79827381D01*
X88320620Y-79827381D01*
X88177762Y-79779762D01*
X88082524Y-79684524D01*
X88034905Y-79589286D01*
X87987286Y-79398810D01*
X87987286Y-79255952D01*
X88034905Y-79065476D01*
X88082524Y-78970238D01*
X88177762Y-78875000D01*
X88320620Y-78827381D01*
X88415858Y-78827381D01*
X88558715Y-78875000D01*
X88606334Y-78922619D01*
X89511096Y-78827381D02*
X89034905Y-78827381D01*
X88987286Y-79303571D01*
X89034905Y-79255952D01*
X89130143Y-79208333D01*
X89368239Y-79208333D01*
X89463477Y-79255952D01*
X89511096Y-79303571D01*
X89558715Y-79398810D01*
X89558715Y-79636905D01*
X89511096Y-79732143D01*
X89463477Y-79779762D01*
X89368239Y-79827381D01*
X89130143Y-79827381D01*
X89034905Y-79779762D01*
X88987286Y-79732143D01*
X105243334Y-71477143D02*
X105195715Y-71524762D01*
X105052858Y-71572381D01*
X104957620Y-71572381D01*
X104814762Y-71524762D01*
X104719524Y-71429524D01*
X104671905Y-71334286D01*
X104624286Y-71143810D01*
X104624286Y-71000952D01*
X104671905Y-70810476D01*
X104719524Y-70715238D01*
X104814762Y-70620000D01*
X104957620Y-70572381D01*
X105052858Y-70572381D01*
X105195715Y-70620000D01*
X105243334Y-70667619D01*
X106100477Y-70572381D02*
X105910000Y-70572381D01*
X105814762Y-70620000D01*
X105767143Y-70667619D01*
X105671905Y-70810476D01*
X105624286Y-71000952D01*
X105624286Y-71381905D01*
X105671905Y-71477143D01*
X105719524Y-71524762D01*
X105814762Y-71572381D01*
X106005239Y-71572381D01*
X106100477Y-71524762D01*
X106148096Y-71477143D01*
X106195715Y-71381905D01*
X106195715Y-71143810D01*
X106148096Y-71048571D01*
X106100477Y-71000952D01*
X106005239Y-70953333D01*
X105814762Y-70953333D01*
X105719524Y-71000952D01*
X105671905Y-71048571D01*
X105624286Y-71143810D01*
X94861143Y-66968643D02*
X94813524Y-67016262D01*
X94670667Y-67063881D01*
X94575429Y-67063881D01*
X94432571Y-67016262D01*
X94337333Y-66921024D01*
X94289714Y-66825786D01*
X94242095Y-66635310D01*
X94242095Y-66492452D01*
X94289714Y-66301976D01*
X94337333Y-66206738D01*
X94432571Y-66111500D01*
X94575429Y-66063881D01*
X94670667Y-66063881D01*
X94813524Y-66111500D01*
X94861143Y-66159119D01*
X95813524Y-67063881D02*
X95242095Y-67063881D01*
X95527809Y-67063881D02*
X95527809Y-66063881D01*
X95432571Y-66206738D01*
X95337333Y-66301976D01*
X95242095Y-66349595D01*
X96432571Y-66063881D02*
X96527810Y-66063881D01*
X96623048Y-66111500D01*
X96670667Y-66159119D01*
X96718286Y-66254357D01*
X96765905Y-66444833D01*
X96765905Y-66682929D01*
X96718286Y-66873405D01*
X96670667Y-66968643D01*
X96623048Y-67016262D01*
X96527810Y-67063881D01*
X96432571Y-67063881D01*
X96337333Y-67016262D01*
X96289714Y-66968643D01*
X96242095Y-66873405D01*
X96194476Y-66682929D01*
X96194476Y-66444833D01*
X96242095Y-66254357D01*
X96289714Y-66159119D01*
X96337333Y-66111500D01*
X96432571Y-66063881D01*
X80875143Y-88907857D02*
X80922762Y-88955476D01*
X80970381Y-89098333D01*
X80970381Y-89193571D01*
X80922762Y-89336429D01*
X80827524Y-89431667D01*
X80732286Y-89479286D01*
X80541810Y-89526905D01*
X80398952Y-89526905D01*
X80208476Y-89479286D01*
X80113238Y-89431667D01*
X80018000Y-89336429D01*
X79970381Y-89193571D01*
X79970381Y-89098333D01*
X80018000Y-88955476D01*
X80065619Y-88907857D01*
X80970381Y-87955476D02*
X80970381Y-88526905D01*
X80970381Y-88241191D02*
X79970381Y-88241191D01*
X80113238Y-88336429D01*
X80208476Y-88431667D01*
X80256095Y-88526905D01*
X80065619Y-87574524D02*
X80018000Y-87526905D01*
X79970381Y-87431667D01*
X79970381Y-87193571D01*
X80018000Y-87098333D01*
X80065619Y-87050714D01*
X80160857Y-87003095D01*
X80256095Y-87003095D01*
X80398952Y-87050714D01*
X80970381Y-87622143D01*
X80970381Y-87003095D01*
X106084643Y-83700857D02*
X106132262Y-83748476D01*
X106179881Y-83891333D01*
X106179881Y-83986571D01*
X106132262Y-84129429D01*
X106037024Y-84224667D01*
X105941786Y-84272286D01*
X105751310Y-84319905D01*
X105608452Y-84319905D01*
X105417976Y-84272286D01*
X105322738Y-84224667D01*
X105227500Y-84129429D01*
X105179881Y-83986571D01*
X105179881Y-83891333D01*
X105227500Y-83748476D01*
X105275119Y-83700857D01*
X106179881Y-82748476D02*
X106179881Y-83319905D01*
X106179881Y-83034191D02*
X105179881Y-83034191D01*
X105322738Y-83129429D01*
X105417976Y-83224667D01*
X105465595Y-83319905D01*
X105179881Y-81843714D02*
X105179881Y-82319905D01*
X105656071Y-82367524D01*
X105608452Y-82319905D01*
X105560833Y-82224667D01*
X105560833Y-81986571D01*
X105608452Y-81891333D01*
X105656071Y-81843714D01*
X105751310Y-81796095D01*
X105989405Y-81796095D01*
X106084643Y-81843714D01*
X106132262Y-81891333D01*
X106179881Y-81986571D01*
X106179881Y-82224667D01*
X106132262Y-82319905D01*
X106084643Y-82367524D01*
X94853334Y-53474881D02*
X94377143Y-53474881D01*
X94377143Y-52474881D01*
X95139048Y-53189167D02*
X95615239Y-53189167D01*
X95043810Y-53474881D02*
X95377143Y-52474881D01*
X95710477Y-53474881D01*
X96043810Y-53474881D02*
X96043810Y-52474881D01*
X96377144Y-53189167D01*
X96710477Y-52474881D01*
X96710477Y-53474881D01*
X97186667Y-53474881D02*
X97186667Y-52474881D01*
X97567620Y-52474881D01*
X97662858Y-52522500D01*
X97710477Y-52570119D01*
X97758096Y-52665357D01*
X97758096Y-52808214D01*
X97710477Y-52903452D01*
X97662858Y-52951071D01*
X97567620Y-52998690D01*
X97186667Y-52998690D01*
X98710477Y-53474881D02*
X98139048Y-53474881D01*
X98424762Y-53474881D02*
X98424762Y-52474881D01*
X98329524Y-52617738D01*
X98234286Y-52712976D01*
X98139048Y-52760595D01*
X80168762Y-83542119D02*
X80073524Y-83494500D01*
X79978286Y-83399262D01*
X79835429Y-83256405D01*
X79740190Y-83208786D01*
X79644952Y-83208786D01*
X79692571Y-83446881D02*
X79597333Y-83399262D01*
X79502095Y-83304024D01*
X79454476Y-83113548D01*
X79454476Y-82780214D01*
X79502095Y-82589738D01*
X79597333Y-82494500D01*
X79692571Y-82446881D01*
X79883048Y-82446881D01*
X79978286Y-82494500D01*
X80073524Y-82589738D01*
X80121143Y-82780214D01*
X80121143Y-83113548D01*
X80073524Y-83304024D01*
X79978286Y-83399262D01*
X79883048Y-83446881D01*
X79692571Y-83446881D01*
X81073524Y-83446881D02*
X80502095Y-83446881D01*
X80787809Y-83446881D02*
X80787809Y-82446881D01*
X80692571Y-82589738D01*
X80597333Y-82684976D01*
X80502095Y-82732595D01*
X60745619Y-53943238D02*
X60698000Y-54038476D01*
X60602762Y-54133714D01*
X60459905Y-54276571D01*
X60412286Y-54371810D01*
X60412286Y-54467048D01*
X60650381Y-54419429D02*
X60602762Y-54514667D01*
X60507524Y-54609905D01*
X60317048Y-54657524D01*
X59983714Y-54657524D01*
X59793238Y-54609905D01*
X59698000Y-54514667D01*
X59650381Y-54419429D01*
X59650381Y-54228952D01*
X59698000Y-54133714D01*
X59793238Y-54038476D01*
X59983714Y-53990857D01*
X60317048Y-53990857D01*
X60507524Y-54038476D01*
X60602762Y-54133714D01*
X60650381Y-54228952D01*
X60650381Y-54419429D01*
X59745619Y-53609905D02*
X59698000Y-53562286D01*
X59650381Y-53467048D01*
X59650381Y-53228952D01*
X59698000Y-53133714D01*
X59745619Y-53086095D01*
X59840857Y-53038476D01*
X59936095Y-53038476D01*
X60078952Y-53086095D01*
X60650381Y-53657524D01*
X60650381Y-53038476D01*
X74191834Y-53093881D02*
X73858500Y-52617690D01*
X73620405Y-53093881D02*
X73620405Y-52093881D01*
X74001358Y-52093881D01*
X74096596Y-52141500D01*
X74144215Y-52189119D01*
X74191834Y-52284357D01*
X74191834Y-52427214D01*
X74144215Y-52522452D01*
X74096596Y-52570071D01*
X74001358Y-52617690D01*
X73620405Y-52617690D01*
X75144215Y-53093881D02*
X74572786Y-53093881D01*
X74858500Y-53093881D02*
X74858500Y-52093881D01*
X74763262Y-52236738D01*
X74668024Y-52331976D01*
X74572786Y-52379595D01*
X86764834Y-61793381D02*
X86431500Y-61317190D01*
X86193405Y-61793381D02*
X86193405Y-60793381D01*
X86574358Y-60793381D01*
X86669596Y-60841000D01*
X86717215Y-60888619D01*
X86764834Y-60983857D01*
X86764834Y-61126714D01*
X86717215Y-61221952D01*
X86669596Y-61269571D01*
X86574358Y-61317190D01*
X86193405Y-61317190D01*
X87098167Y-60793381D02*
X87717215Y-60793381D01*
X87383881Y-61174333D01*
X87526739Y-61174333D01*
X87621977Y-61221952D01*
X87669596Y-61269571D01*
X87717215Y-61364810D01*
X87717215Y-61602905D01*
X87669596Y-61698143D01*
X87621977Y-61745762D01*
X87526739Y-61793381D01*
X87241024Y-61793381D01*
X87145786Y-61745762D01*
X87098167Y-61698143D01*
X72159834Y-75001381D02*
X71826500Y-74525190D01*
X71588405Y-75001381D02*
X71588405Y-74001381D01*
X71969358Y-74001381D01*
X72064596Y-74049000D01*
X72112215Y-74096619D01*
X72159834Y-74191857D01*
X72159834Y-74334714D01*
X72112215Y-74429952D01*
X72064596Y-74477571D01*
X71969358Y-74525190D01*
X71588405Y-74525190D01*
X73016977Y-74334714D02*
X73016977Y-75001381D01*
X72778881Y-73953762D02*
X72540786Y-74668048D01*
X73159834Y-74668048D01*
X73874334Y-41473381D02*
X73541000Y-40997190D01*
X73302905Y-41473381D02*
X73302905Y-40473381D01*
X73683858Y-40473381D01*
X73779096Y-40521000D01*
X73826715Y-40568619D01*
X73874334Y-40663857D01*
X73874334Y-40806714D01*
X73826715Y-40901952D01*
X73779096Y-40949571D01*
X73683858Y-40997190D01*
X73302905Y-40997190D01*
X74779096Y-40473381D02*
X74302905Y-40473381D01*
X74255286Y-40949571D01*
X74302905Y-40901952D01*
X74398143Y-40854333D01*
X74636239Y-40854333D01*
X74731477Y-40901952D01*
X74779096Y-40949571D01*
X74826715Y-41044810D01*
X74826715Y-41282905D01*
X74779096Y-41378143D01*
X74731477Y-41425762D01*
X74636239Y-41473381D01*
X74398143Y-41473381D01*
X74302905Y-41425762D01*
X74255286Y-41378143D01*
X86764834Y-50109381D02*
X86431500Y-49633190D01*
X86193405Y-50109381D02*
X86193405Y-49109381D01*
X86574358Y-49109381D01*
X86669596Y-49157000D01*
X86717215Y-49204619D01*
X86764834Y-49299857D01*
X86764834Y-49442714D01*
X86717215Y-49537952D01*
X86669596Y-49585571D01*
X86574358Y-49633190D01*
X86193405Y-49633190D01*
X87621977Y-49109381D02*
X87431500Y-49109381D01*
X87336262Y-49157000D01*
X87288643Y-49204619D01*
X87193405Y-49347476D01*
X87145786Y-49537952D01*
X87145786Y-49918905D01*
X87193405Y-50014143D01*
X87241024Y-50061762D01*
X87336262Y-50109381D01*
X87526739Y-50109381D01*
X87621977Y-50061762D01*
X87669596Y-50014143D01*
X87717215Y-49918905D01*
X87717215Y-49680810D01*
X87669596Y-49585571D01*
X87621977Y-49537952D01*
X87526739Y-49490333D01*
X87336262Y-49490333D01*
X87241024Y-49537952D01*
X87193405Y-49585571D01*
X87145786Y-49680810D01*
X86764834Y-57538881D02*
X86431500Y-57062690D01*
X86193405Y-57538881D02*
X86193405Y-56538881D01*
X86574358Y-56538881D01*
X86669596Y-56586500D01*
X86717215Y-56634119D01*
X86764834Y-56729357D01*
X86764834Y-56872214D01*
X86717215Y-56967452D01*
X86669596Y-57015071D01*
X86574358Y-57062690D01*
X86193405Y-57062690D01*
X87098167Y-56538881D02*
X87764834Y-56538881D01*
X87336262Y-57538881D01*
X97178834Y-74683881D02*
X96845500Y-74207690D01*
X96607405Y-74683881D02*
X96607405Y-73683881D01*
X96988358Y-73683881D01*
X97083596Y-73731500D01*
X97131215Y-73779119D01*
X97178834Y-73874357D01*
X97178834Y-74017214D01*
X97131215Y-74112452D01*
X97083596Y-74160071D01*
X96988358Y-74207690D01*
X96607405Y-74207690D01*
X97750262Y-74112452D02*
X97655024Y-74064833D01*
X97607405Y-74017214D01*
X97559786Y-73921976D01*
X97559786Y-73874357D01*
X97607405Y-73779119D01*
X97655024Y-73731500D01*
X97750262Y-73683881D01*
X97940739Y-73683881D01*
X98035977Y-73731500D01*
X98083596Y-73779119D01*
X98131215Y-73874357D01*
X98131215Y-73921976D01*
X98083596Y-74017214D01*
X98035977Y-74064833D01*
X97940739Y-74112452D01*
X97750262Y-74112452D01*
X97655024Y-74160071D01*
X97607405Y-74207690D01*
X97559786Y-74302929D01*
X97559786Y-74493405D01*
X97607405Y-74588643D01*
X97655024Y-74636262D01*
X97750262Y-74683881D01*
X97940739Y-74683881D01*
X98035977Y-74636262D01*
X98083596Y-74588643D01*
X98131215Y-74493405D01*
X98131215Y-74302929D01*
X98083596Y-74207690D01*
X98035977Y-74160071D01*
X97940739Y-74112452D01*
X86764834Y-53665381D02*
X86431500Y-53189190D01*
X86193405Y-53665381D02*
X86193405Y-52665381D01*
X86574358Y-52665381D01*
X86669596Y-52713000D01*
X86717215Y-52760619D01*
X86764834Y-52855857D01*
X86764834Y-52998714D01*
X86717215Y-53093952D01*
X86669596Y-53141571D01*
X86574358Y-53189190D01*
X86193405Y-53189190D01*
X87241024Y-53665381D02*
X87431500Y-53665381D01*
X87526739Y-53617762D01*
X87574358Y-53570143D01*
X87669596Y-53427286D01*
X87717215Y-53236810D01*
X87717215Y-52855857D01*
X87669596Y-52760619D01*
X87621977Y-52713000D01*
X87526739Y-52665381D01*
X87336262Y-52665381D01*
X87241024Y-52713000D01*
X87193405Y-52760619D01*
X87145786Y-52855857D01*
X87145786Y-53093952D01*
X87193405Y-53189190D01*
X87241024Y-53236810D01*
X87336262Y-53284429D01*
X87526739Y-53284429D01*
X87621977Y-53236810D01*
X87669596Y-53189190D01*
X87717215Y-53093952D01*
X80335381Y-75318857D02*
X79859190Y-75652191D01*
X80335381Y-75890286D02*
X79335381Y-75890286D01*
X79335381Y-75509333D01*
X79383000Y-75414095D01*
X79430619Y-75366476D01*
X79525857Y-75318857D01*
X79668714Y-75318857D01*
X79763952Y-75366476D01*
X79811571Y-75414095D01*
X79859190Y-75509333D01*
X79859190Y-75890286D01*
X80335381Y-74366476D02*
X80335381Y-74937905D01*
X80335381Y-74652191D02*
X79335381Y-74652191D01*
X79478238Y-74747429D01*
X79573476Y-74842667D01*
X79621095Y-74937905D01*
X80335381Y-73414095D02*
X80335381Y-73985524D01*
X80335381Y-73699810D02*
X79335381Y-73699810D01*
X79478238Y-73795048D01*
X79573476Y-73890286D01*
X79621095Y-73985524D01*
X77096881Y-102242857D02*
X76620690Y-102576191D01*
X77096881Y-102814286D02*
X76096881Y-102814286D01*
X76096881Y-102433333D01*
X76144500Y-102338095D01*
X76192119Y-102290476D01*
X76287357Y-102242857D01*
X76430214Y-102242857D01*
X76525452Y-102290476D01*
X76573071Y-102338095D01*
X76620690Y-102433333D01*
X76620690Y-102814286D01*
X77096881Y-101290476D02*
X77096881Y-101861905D01*
X77096881Y-101576191D02*
X76096881Y-101576191D01*
X76239738Y-101671429D01*
X76334976Y-101766667D01*
X76382595Y-101861905D01*
X76192119Y-100909524D02*
X76144500Y-100861905D01*
X76096881Y-100766667D01*
X76096881Y-100528571D01*
X76144500Y-100433333D01*
X76192119Y-100385714D01*
X76287357Y-100338095D01*
X76382595Y-100338095D01*
X76525452Y-100385714D01*
X77096881Y-100957143D01*
X77096881Y-100338095D01*
X76715881Y-75318857D02*
X76239690Y-75652191D01*
X76715881Y-75890286D02*
X75715881Y-75890286D01*
X75715881Y-75509333D01*
X75763500Y-75414095D01*
X75811119Y-75366476D01*
X75906357Y-75318857D01*
X76049214Y-75318857D01*
X76144452Y-75366476D01*
X76192071Y-75414095D01*
X76239690Y-75509333D01*
X76239690Y-75890286D01*
X76715881Y-74366476D02*
X76715881Y-74937905D01*
X76715881Y-74652191D02*
X75715881Y-74652191D01*
X75858738Y-74747429D01*
X75953976Y-74842667D01*
X76001595Y-74937905D01*
X75715881Y-74033143D02*
X75715881Y-73366476D01*
X76715881Y-73795048D01*
X67437095Y-95781881D02*
X67437095Y-96591405D01*
X67484714Y-96686643D01*
X67532333Y-96734262D01*
X67627571Y-96781881D01*
X67818048Y-96781881D01*
X67913286Y-96734262D01*
X67960905Y-96686643D01*
X68008524Y-96591405D01*
X68008524Y-95781881D01*
X68437095Y-95877119D02*
X68484714Y-95829500D01*
X68579952Y-95781881D01*
X68818048Y-95781881D01*
X68913286Y-95829500D01*
X68960905Y-95877119D01*
X69008524Y-95972357D01*
X69008524Y-96067595D01*
X68960905Y-96210452D01*
X68389476Y-96781881D01*
X69008524Y-96781881D01*
X73937834Y-45219881D02*
X73461643Y-45219881D01*
X73461643Y-44219881D01*
X74794977Y-45219881D02*
X74223548Y-45219881D01*
X74509262Y-45219881D02*
X74509262Y-44219881D01*
X74414024Y-44362738D01*
X74318786Y-44457976D01*
X74223548Y-44505595D01*
X72413905Y-111323381D02*
X72413905Y-110323381D01*
X72652000Y-110323381D01*
X72794858Y-110371000D01*
X72890096Y-110466238D01*
X72937715Y-110561476D01*
X72985334Y-110751952D01*
X72985334Y-110894810D01*
X72937715Y-111085286D01*
X72890096Y-111180524D01*
X72794858Y-111275762D01*
X72652000Y-111323381D01*
X72413905Y-111323381D01*
X73318667Y-110323381D02*
X73937715Y-110323381D01*
X73604381Y-110704333D01*
X73747239Y-110704333D01*
X73842477Y-110751952D01*
X73890096Y-110799571D01*
X73937715Y-110894810D01*
X73937715Y-111132905D01*
X73890096Y-111228143D01*
X73842477Y-111275762D01*
X73747239Y-111323381D01*
X73461524Y-111323381D01*
X73366286Y-111275762D01*
X73318667Y-111228143D01*
X71493143Y-85383643D02*
X71445524Y-85431262D01*
X71302667Y-85478881D01*
X71207429Y-85478881D01*
X71064571Y-85431262D01*
X70969333Y-85336024D01*
X70921714Y-85240786D01*
X70874095Y-85050310D01*
X70874095Y-84907452D01*
X70921714Y-84716976D01*
X70969333Y-84621738D01*
X71064571Y-84526500D01*
X71207429Y-84478881D01*
X71302667Y-84478881D01*
X71445524Y-84526500D01*
X71493143Y-84574119D01*
X72445524Y-85478881D02*
X71874095Y-85478881D01*
X72159809Y-85478881D02*
X72159809Y-84478881D01*
X72064571Y-84621738D01*
X71969333Y-84716976D01*
X71874095Y-84764595D01*
X73397905Y-85478881D02*
X72826476Y-85478881D01*
X73112190Y-85478881D02*
X73112190Y-84478881D01*
X73016952Y-84621738D01*
X72921714Y-84716976D01*
X72826476Y-84764595D01*
X87428935Y-63153161D02*
X87428935Y-63962685D01*
X87476554Y-64057923D01*
X87524173Y-64105542D01*
X87619411Y-64153161D01*
X87809888Y-64153161D01*
X87905126Y-64105542D01*
X87952745Y-64057923D01*
X88000364Y-63962685D01*
X88000364Y-63153161D01*
X88905126Y-63486494D02*
X88905126Y-64153161D01*
X88667030Y-63105542D02*
X88428935Y-63819828D01*
X89047983Y-63819828D01*
X107624643Y-77922381D02*
X107291309Y-77446190D01*
X107053214Y-77922381D02*
X107053214Y-76922381D01*
X107434167Y-76922381D01*
X107529405Y-76970000D01*
X107577024Y-77017619D01*
X107624643Y-77112857D01*
X107624643Y-77255714D01*
X107577024Y-77350952D01*
X107529405Y-77398571D01*
X107434167Y-77446190D01*
X107053214Y-77446190D01*
X108577024Y-77922381D02*
X108005595Y-77922381D01*
X108291309Y-77922381D02*
X108291309Y-76922381D01*
X108196071Y-77065238D01*
X108100833Y-77160476D01*
X108005595Y-77208095D01*
X109196071Y-76922381D02*
X109291310Y-76922381D01*
X109386548Y-76970000D01*
X109434167Y-77017619D01*
X109481786Y-77112857D01*
X109529405Y-77303333D01*
X109529405Y-77541429D01*
X109481786Y-77731905D01*
X109434167Y-77827143D01*
X109386548Y-77874762D01*
X109291310Y-77922381D01*
X109196071Y-77922381D01*
X109100833Y-77874762D01*
X109053214Y-77827143D01*
X109005595Y-77731905D01*
X108957976Y-77541429D01*
X108957976Y-77303333D01*
X109005595Y-77112857D01*
X109053214Y-77017619D01*
X109100833Y-76970000D01*
X109196071Y-76922381D01*
X82954905Y-98051881D02*
X82954905Y-97051881D01*
X83193000Y-97051881D01*
X83335858Y-97099500D01*
X83431096Y-97194738D01*
X83478715Y-97289976D01*
X83526334Y-97480452D01*
X83526334Y-97623310D01*
X83478715Y-97813786D01*
X83431096Y-97909024D01*
X83335858Y-98004262D01*
X83193000Y-98051881D01*
X82954905Y-98051881D01*
X83907286Y-97147119D02*
X83954905Y-97099500D01*
X84050143Y-97051881D01*
X84288239Y-97051881D01*
X84383477Y-97099500D01*
X84431096Y-97147119D01*
X84478715Y-97242357D01*
X84478715Y-97337595D01*
X84431096Y-97480452D01*
X83859667Y-98051881D01*
X84478715Y-98051881D01*
X83081905Y-112656881D02*
X83081905Y-111656881D01*
X83320000Y-111656881D01*
X83462858Y-111704500D01*
X83558096Y-111799738D01*
X83605715Y-111894976D01*
X83653334Y-112085452D01*
X83653334Y-112228310D01*
X83605715Y-112418786D01*
X83558096Y-112514024D01*
X83462858Y-112609262D01*
X83320000Y-112656881D01*
X83081905Y-112656881D01*
X84605715Y-112656881D02*
X84034286Y-112656881D01*
X84320000Y-112656881D02*
X84320000Y-111656881D01*
X84224762Y-111799738D01*
X84129524Y-111894976D01*
X84034286Y-111942595D01*
X63492143Y-85891643D02*
X63444524Y-85939262D01*
X63301667Y-85986881D01*
X63206429Y-85986881D01*
X63063571Y-85939262D01*
X62968333Y-85844024D01*
X62920714Y-85748786D01*
X62873095Y-85558310D01*
X62873095Y-85415452D01*
X62920714Y-85224976D01*
X62968333Y-85129738D01*
X63063571Y-85034500D01*
X63206429Y-84986881D01*
X63301667Y-84986881D01*
X63444524Y-85034500D01*
X63492143Y-85082119D01*
X64444524Y-85986881D02*
X63873095Y-85986881D01*
X64158809Y-85986881D02*
X64158809Y-84986881D01*
X64063571Y-85129738D01*
X63968333Y-85224976D01*
X63873095Y-85272595D01*
X65301667Y-84986881D02*
X65111190Y-84986881D01*
X65015952Y-85034500D01*
X64968333Y-85082119D01*
X64873095Y-85224976D01*
X64825476Y-85415452D01*
X64825476Y-85796405D01*
X64873095Y-85891643D01*
X64920714Y-85939262D01*
X65015952Y-85986881D01*
X65206429Y-85986881D01*
X65301667Y-85939262D01*
X65349286Y-85891643D01*
X65396905Y-85796405D01*
X65396905Y-85558310D01*
X65349286Y-85463071D01*
X65301667Y-85415452D01*
X65206429Y-85367833D01*
X65015952Y-85367833D01*
X64920714Y-85415452D01*
X64873095Y-85463071D01*
X64825476Y-85558310D01*
X62031643Y-71921643D02*
X61984024Y-71969262D01*
X61841167Y-72016881D01*
X61745929Y-72016881D01*
X61603071Y-71969262D01*
X61507833Y-71874024D01*
X61460214Y-71778786D01*
X61412595Y-71588310D01*
X61412595Y-71445452D01*
X61460214Y-71254976D01*
X61507833Y-71159738D01*
X61603071Y-71064500D01*
X61745929Y-71016881D01*
X61841167Y-71016881D01*
X61984024Y-71064500D01*
X62031643Y-71112119D01*
X62984024Y-72016881D02*
X62412595Y-72016881D01*
X62698309Y-72016881D02*
X62698309Y-71016881D01*
X62603071Y-71159738D01*
X62507833Y-71254976D01*
X62412595Y-71302595D01*
X63317357Y-71016881D02*
X63936405Y-71016881D01*
X63603071Y-71397833D01*
X63745929Y-71397833D01*
X63841167Y-71445452D01*
X63888786Y-71493071D01*
X63936405Y-71588310D01*
X63936405Y-71826405D01*
X63888786Y-71921643D01*
X63841167Y-71969262D01*
X63745929Y-72016881D01*
X63460214Y-72016881D01*
X63364976Y-71969262D01*
X63317357Y-71921643D01*
X99464834Y-60301143D02*
X99417215Y-60348762D01*
X99274358Y-60396381D01*
X99179120Y-60396381D01*
X99036262Y-60348762D01*
X98941024Y-60253524D01*
X98893405Y-60158286D01*
X98845786Y-59967810D01*
X98845786Y-59824952D01*
X98893405Y-59634476D01*
X98941024Y-59539238D01*
X99036262Y-59444000D01*
X99179120Y-59396381D01*
X99274358Y-59396381D01*
X99417215Y-59444000D01*
X99464834Y-59491619D01*
X99941024Y-60396381D02*
X100131500Y-60396381D01*
X100226739Y-60348762D01*
X100274358Y-60301143D01*
X100369596Y-60158286D01*
X100417215Y-59967810D01*
X100417215Y-59586857D01*
X100369596Y-59491619D01*
X100321977Y-59444000D01*
X100226739Y-59396381D01*
X100036262Y-59396381D01*
X99941024Y-59444000D01*
X99893405Y-59491619D01*
X99845786Y-59586857D01*
X99845786Y-59824952D01*
X99893405Y-59920190D01*
X99941024Y-59967810D01*
X100036262Y-60015429D01*
X100226739Y-60015429D01*
X100321977Y-59967810D01*
X100369596Y-59920190D01*
X100417215Y-59824952D01*
X102004834Y-77573143D02*
X101957215Y-77620762D01*
X101814358Y-77668381D01*
X101719120Y-77668381D01*
X101576262Y-77620762D01*
X101481024Y-77525524D01*
X101433405Y-77430286D01*
X101385786Y-77239810D01*
X101385786Y-77096952D01*
X101433405Y-76906476D01*
X101481024Y-76811238D01*
X101576262Y-76716000D01*
X101719120Y-76668381D01*
X101814358Y-76668381D01*
X101957215Y-76716000D01*
X102004834Y-76763619D01*
X102338167Y-76668381D02*
X103004834Y-76668381D01*
X102576262Y-77668381D01*
X63812294Y-64428643D02*
X63764675Y-64476262D01*
X63621818Y-64523881D01*
X63526580Y-64523881D01*
X63383722Y-64476262D01*
X63288484Y-64381024D01*
X63240865Y-64285786D01*
X63193246Y-64095310D01*
X63193246Y-63952452D01*
X63240865Y-63761976D01*
X63288484Y-63666738D01*
X63383722Y-63571500D01*
X63526580Y-63523881D01*
X63621818Y-63523881D01*
X63764675Y-63571500D01*
X63812294Y-63619119D01*
X64145627Y-63523881D02*
X64764675Y-63523881D01*
X64431341Y-63904833D01*
X64574199Y-63904833D01*
X64669437Y-63952452D01*
X64717056Y-64000071D01*
X64764675Y-64095310D01*
X64764675Y-64333405D01*
X64717056Y-64428643D01*
X64669437Y-64476262D01*
X64574199Y-64523881D01*
X64288484Y-64523881D01*
X64193246Y-64476262D01*
X64145627Y-64428643D01*
X63714334Y-48871143D02*
X63666715Y-48918762D01*
X63523858Y-48966381D01*
X63428620Y-48966381D01*
X63285762Y-48918762D01*
X63190524Y-48823524D01*
X63142905Y-48728286D01*
X63095286Y-48537810D01*
X63095286Y-48394952D01*
X63142905Y-48204476D01*
X63190524Y-48109238D01*
X63285762Y-48014000D01*
X63428620Y-47966381D01*
X63523858Y-47966381D01*
X63666715Y-48014000D01*
X63714334Y-48061619D01*
X64095286Y-48061619D02*
X64142905Y-48014000D01*
X64238143Y-47966381D01*
X64476239Y-47966381D01*
X64571477Y-48014000D01*
X64619096Y-48061619D01*
X64666715Y-48156857D01*
X64666715Y-48252095D01*
X64619096Y-48394952D01*
X64047667Y-48966381D01*
X64666715Y-48966381D01*
X62634834Y-93321143D02*
X62587215Y-93368762D01*
X62444358Y-93416381D01*
X62349120Y-93416381D01*
X62206262Y-93368762D01*
X62111024Y-93273524D01*
X62063405Y-93178286D01*
X62015786Y-92987810D01*
X62015786Y-92844952D01*
X62063405Y-92654476D01*
X62111024Y-92559238D01*
X62206262Y-92464000D01*
X62349120Y-92416381D01*
X62444358Y-92416381D01*
X62587215Y-92464000D01*
X62634834Y-92511619D01*
X63587215Y-93416381D02*
X63015786Y-93416381D01*
X63301500Y-93416381D02*
X63301500Y-92416381D01*
X63206262Y-92559238D01*
X63111024Y-92654476D01*
X63015786Y-92702095D01*
X72056667Y-107846881D02*
X72056667Y-108561167D01*
X72009047Y-108704024D01*
X71913809Y-108799262D01*
X71770952Y-108846881D01*
X71675714Y-108846881D01*
X73056667Y-108846881D02*
X72485238Y-108846881D01*
X72770952Y-108846881D02*
X72770952Y-107846881D01*
X72675714Y-107989738D01*
X72580476Y-108084976D01*
X72485238Y-108132595D01*
X96948667Y-108799381D02*
X96948667Y-109513667D01*
X96901047Y-109656524D01*
X96805809Y-109751762D01*
X96662952Y-109799381D01*
X96567714Y-109799381D01*
X97853429Y-109132714D02*
X97853429Y-109799381D01*
X97615333Y-108751762D02*
X97377238Y-109466048D01*
X97996286Y-109466048D01*
X112188667Y-68903601D02*
X112188667Y-69617887D01*
X112141047Y-69760744D01*
X112045809Y-69855982D01*
X111902952Y-69903601D01*
X111807714Y-69903601D01*
X112569619Y-68903601D02*
X113188667Y-68903601D01*
X112855333Y-69284553D01*
X112998191Y-69284553D01*
X113093429Y-69332172D01*
X113141048Y-69379791D01*
X113188667Y-69475030D01*
X113188667Y-69713125D01*
X113141048Y-69808363D01*
X113093429Y-69855982D01*
X112998191Y-69903601D01*
X112712476Y-69903601D01*
X112617238Y-69855982D01*
X112569619Y-69808363D01*
X96774095Y-106830881D02*
X96774095Y-107640405D01*
X96821714Y-107735643D01*
X96869333Y-107783262D01*
X96964571Y-107830881D01*
X97155048Y-107830881D01*
X97250286Y-107783262D01*
X97297905Y-107735643D01*
X97345524Y-107640405D01*
X97345524Y-106830881D01*
X98345524Y-107830881D02*
X97774095Y-107830881D01*
X98059809Y-107830881D02*
X98059809Y-106830881D01*
X97964571Y-106973738D01*
X97869333Y-107068976D01*
X97774095Y-107116595D01*
M02*
