M48
;DRILL file {KiCad 4.0.5-e0-6337~49~ubuntu16.04.1} date Thu Feb 23 10:11:07 2017
;FORMAT={-:-/ absolute / metric / decimal}
FMAT,2
METRIC,TZ
T1C0.330
T2C0.800
T3C1.000
T4C1.001
T5C1.016
T6C1.270
T7C1.295
T8C1.524
T9C2.200
T10C3.000
T11C1.295
%
G90
G05
M71
T1
X68.824Y-62.939
X68.87Y-59.367
X78.93Y-84.963
X83.82Y-65.087
X86.55Y-73.596
X88.392Y-70.993
X92.837Y-65.087
X92.964Y-94.399
X95.123Y-65.151
T2
X61.976Y-53.848
X63.754Y-53.848
X65.532Y-53.848
X68.008Y-90.932
X68.008Y-92.71
X68.008Y-94.488
X71.125Y-57.267
X71.125Y-59.807
X71.125Y-62.347
X71.125Y-64.887
X78.745Y-57.267
X78.745Y-59.807
X78.745Y-62.347
X78.745Y-64.887
X83.185Y-81.407
X83.185Y-83.185
X83.185Y-84.963
X84.191Y-67.201
X84.191Y-69.741
X84.191Y-72.281
X84.191Y-74.821
X91.811Y-67.201
X91.811Y-69.741
X91.811Y-72.281
X91.811Y-74.821
T3
X61.468Y-48.26
X61.529Y-64.054
X61.658Y-85.534
X62.687Y-69.089
X62.687Y-74.089
X62.738Y-90.441
X62.738Y-95.441
X63.095Y-59.093
X65.596Y-59.093
X66.468Y-48.26
X66.529Y-64.054
X66.659Y-85.534
X66.675Y-69.215
X69.175Y-69.215
X72.072Y-82.503
X72.072Y-87.503
X82.55Y-88.265
X85.05Y-88.265
X90.805Y-79.375
X93.305Y-79.375
X98.044Y-66.548
X99.568Y-57.404
X99.568Y-62.404
X100.544Y-66.548
X100.647Y-71.183
X101.282Y-83.858
X102.171Y-74.676
X102.171Y-79.676
X103.147Y-71.183
X103.782Y-83.858
T4
X68.961Y-114.173
X69.74Y-44.704
X69.74Y-52.578
X69.755Y-40.886
X69.855Y-48.56
X71.501Y-114.173
X72.39Y-69.85
X72.39Y-78.85
X76.2Y-69.74
X76.2Y-78.74
X76.644Y-97.218
X76.644Y-106.218
X78.74Y-44.704
X78.74Y-52.578
X78.755Y-40.886
X78.855Y-48.56
X80.01Y-69.85
X80.01Y-78.85
X80.137Y-97.346
X80.137Y-106.346
X83.133Y-61.351
X83.149Y-57.112
X83.193Y-49.629
X83.193Y-53.294
X83.82Y-106.68
X83.856Y-92.215
X90.424Y-104.584
X92.133Y-61.351
X92.149Y-57.112
X92.193Y-49.629
X92.193Y-53.294
X92.964Y-104.584
X95.504Y-104.584
X97.346Y-70.485
X97.346Y-79.485
X101.653Y-43.746
X101.653Y-46.246
X101.679Y-91.481
X101.679Y-93.98
X101.679Y-108.499
X101.679Y-110.998
T5
X64.77Y-78.105
X64.77Y-80.645
X76.589Y-113.792
X79.129Y-113.792
X96.398Y-47.722
X96.398Y-50.262
T6
X83.82Y-116.84
X83.856Y-102.375
T7
X104.361Y-57.132
X104.361Y-59.672
X104.361Y-64.752
X104.361Y-67.292
X109.441Y-62.212
T8
X111.76Y-72.39
X111.76Y-77.47
X111.76Y-82.55
T9
X105.918Y-41.148
X105.918Y-51.346
X105.943Y-88.882
X105.943Y-99.08
X105.943Y-105.9
X105.943Y-116.098
T10
X66.073Y-102.679
X69.073Y-107.378
X72.072Y-102.679
X91.313Y-109.522
X91.313Y-115.522
X96.012Y-112.522
T11
X104.361Y-62.212
X109.441Y-57.132
X109.441Y-67.292
X111.981Y-57.132
X111.981Y-67.292
T0
M30
