M48
;DRILL file {KiCad 4.0.5-e0-6337~49~ubuntu16.04.1} date Tue Mar 14 11:59:08 2017
;FORMAT={-:-/ absolute / metric / decimal}
FMAT,2
METRIC,TZ
T1C0.330
T2C0.800
T3C1.000
T4C1.001
T5C1.016
T6C1.270
T7C1.295
T8C1.524
T9C2.200
T10C3.000
T11C3.200
T12C1.295
%
G90
G05
M71
T1
X79.035Y-68.511
X79.08Y-64.94
X89.141Y-90.536
X94.031Y-70.66
X96.761Y-79.169
X98.603Y-76.566
X103.048Y-70.66
X103.175Y-99.972
X105.334Y-70.724
T2
X72.187Y-59.421
X73.965Y-59.421
X75.743Y-59.421
X78.219Y-96.505
X78.219Y-98.283
X78.219Y-100.061
X81.336Y-62.84
X81.336Y-65.38
X81.336Y-67.92
X81.336Y-70.46
X88.956Y-62.84
X88.956Y-65.38
X88.956Y-67.92
X88.956Y-70.46
X93.396Y-86.98
X93.396Y-88.758
X93.396Y-90.536
X94.402Y-72.774
X94.402Y-75.314
X94.402Y-77.854
X94.402Y-80.394
X102.022Y-72.774
X102.022Y-75.314
X102.022Y-77.854
X102.022Y-80.394
T3
X71.679Y-53.833
X71.74Y-69.626
X71.869Y-91.107
X72.898Y-74.662
X72.898Y-79.662
X72.949Y-96.013
X72.949Y-101.013
X73.306Y-64.666
X75.806Y-64.666
X76.679Y-53.833
X76.74Y-69.626
X76.869Y-91.107
X76.886Y-74.788
X79.386Y-74.788
X82.283Y-88.076
X82.283Y-93.076
X92.761Y-93.838
X95.261Y-93.838
X101.016Y-84.948
X103.516Y-84.948
X108.255Y-72.121
X109.779Y-62.977
X109.779Y-67.977
X110.755Y-72.121
X110.858Y-76.756
X111.493Y-89.431
X112.382Y-80.249
X112.382Y-85.249
X113.358Y-76.756
X113.993Y-89.431
T4
X79.172Y-119.746
X79.951Y-50.277
X79.951Y-58.151
X79.966Y-46.459
X80.066Y-54.132
X81.712Y-119.746
X82.601Y-75.423
X82.601Y-84.423
X86.411Y-75.313
X86.411Y-84.313
X86.855Y-102.791
X86.855Y-111.791
X88.951Y-50.277
X88.951Y-58.151
X88.966Y-46.459
X89.066Y-54.132
X90.221Y-75.423
X90.221Y-84.423
X90.348Y-102.918
X90.348Y-111.918
X93.344Y-66.924
X93.36Y-62.685
X93.403Y-55.202
X93.403Y-58.867
X94.031Y-112.253
X94.066Y-97.787
X100.635Y-110.157
X102.344Y-66.924
X102.36Y-62.685
X102.403Y-55.202
X102.403Y-58.867
X103.175Y-110.157
X105.715Y-110.157
X107.556Y-76.058
X107.556Y-85.058
X111.864Y-49.319
X111.864Y-51.819
X111.89Y-97.053
X111.89Y-99.553
X111.89Y-114.071
X111.89Y-116.571
T5
X74.981Y-83.678
X74.981Y-86.218
X86.799Y-119.365
X89.339Y-119.365
X106.609Y-53.294
X106.609Y-55.834
T6
X94.031Y-122.413
X94.066Y-107.947
T7
X114.572Y-62.705
X114.572Y-65.245
X114.572Y-70.325
X114.572Y-72.865
X119.652Y-67.785
T8
X121.971Y-77.963
X121.971Y-83.043
X121.971Y-88.123
T9
X116.129Y-46.721
X116.129Y-56.919
X116.154Y-94.455
X116.154Y-104.653
X116.154Y-111.473
X116.154Y-121.671
T10
X76.284Y-108.252
X79.284Y-112.951
X82.283Y-108.252
X101.524Y-115.095
X101.524Y-121.094
X106.223Y-118.095
T11
X73.711Y-47.483
X73.711Y-119.873
X105.461Y-47.483
T12
X114.572Y-67.785
X119.652Y-62.705
X119.652Y-72.865
X122.192Y-62.705
X122.192Y-72.865
T0
M30
