%TF.GenerationSoftware,KiCad,Pcbnew,4.0.5-e0-6337~49~ubuntu16.04.1*%
%TF.CreationDate,2017-03-14T11:59:08-07:00*%
%TF.ProjectId,e202var-vlf-radio-receiver,653230327661722D766C662D72616469,v1.4*%
%TF.FileFunction,Legend,Top*%
%FSLAX46Y46*%
G04 Gerber Fmt 4.6, Leading zero omitted, Abs format (unit mm)*
G04 Created by KiCad (PCBNEW 4.0.5-e0-6337~49~ubuntu16.04.1) date Tue Mar 14 11:59:08 2017*
%MOMM*%
%LPD*%
G01*
G04 APERTURE LIST*
%ADD10C,0.350000*%
%ADD11C,0.254000*%
%ADD12C,0.152400*%
%ADD13C,0.508000*%
%ADD14C,0.150000*%
%ADD15O,2.452400X1.752400*%
%ADD16R,2.184400X2.184400*%
%ADD17O,2.184400X2.184400*%
%ADD18C,2.151380*%
%ADD19R,1.752400X1.752400*%
%ADD20C,1.852400*%
%ADD21O,2.152000X1.552000*%
%ADD22O,1.552000X2.152000*%
%ADD23C,5.152400*%
%ADD24R,2.052400X2.152400*%
%ADD25C,2.052400*%
%ADD26R,2.152400X2.152400*%
%ADD27C,2.152400*%
%ADD28C,2.184400*%
%ADD29R,2.151380X2.151380*%
%ADD30C,4.152400*%
%ADD31C,2.336800*%
%ADD32O,7.152640X3.652520*%
%ADD33O,2.651760X1.752600*%
%ADD34O,1.851660X3.652520*%
%ADD35R,7.152400X10.152400*%
G04 APERTURE END LIST*
D10*
D11*
X97136857Y-48718289D02*
X97499714Y-49734289D01*
X97862572Y-48718289D01*
X99241429Y-49734289D02*
X98370572Y-49734289D01*
X98806000Y-49734289D02*
X98806000Y-48210289D01*
X98660857Y-48428003D01*
X98515715Y-48573146D01*
X98370572Y-48645717D01*
X99894572Y-49589146D02*
X99967144Y-49661717D01*
X99894572Y-49734289D01*
X99822001Y-49661717D01*
X99894572Y-49589146D01*
X99894572Y-49734289D01*
X101273429Y-48718289D02*
X101273429Y-49734289D01*
X100910572Y-48137717D02*
X100547715Y-49226289D01*
X101491143Y-49226289D01*
X92265499Y-46307103D02*
X92773499Y-46307103D01*
X92991213Y-47105389D02*
X92265499Y-47105389D01*
X92265499Y-45581389D01*
X92991213Y-45581389D01*
X93571785Y-45726531D02*
X93644356Y-45653960D01*
X93789499Y-45581389D01*
X94152356Y-45581389D01*
X94297499Y-45653960D01*
X94370070Y-45726531D01*
X94442642Y-45871674D01*
X94442642Y-46016817D01*
X94370070Y-46234531D01*
X93499213Y-47105389D01*
X94442642Y-47105389D01*
X95386071Y-45581389D02*
X95531214Y-45581389D01*
X95676357Y-45653960D01*
X95748928Y-45726531D01*
X95821499Y-45871674D01*
X95894071Y-46161960D01*
X95894071Y-46524817D01*
X95821499Y-46815103D01*
X95748928Y-46960246D01*
X95676357Y-47032817D01*
X95531214Y-47105389D01*
X95386071Y-47105389D01*
X95240928Y-47032817D01*
X95168357Y-46960246D01*
X95095785Y-46815103D01*
X95023214Y-46524817D01*
X95023214Y-46161960D01*
X95095785Y-45871674D01*
X95168357Y-45726531D01*
X95240928Y-45653960D01*
X95386071Y-45581389D01*
X96474643Y-45726531D02*
X96547214Y-45653960D01*
X96692357Y-45581389D01*
X97055214Y-45581389D01*
X97200357Y-45653960D01*
X97272928Y-45726531D01*
X97345500Y-45871674D01*
X97345500Y-46016817D01*
X97272928Y-46234531D01*
X96402071Y-47105389D01*
X97345500Y-47105389D01*
X97780929Y-45581389D02*
X98288929Y-47105389D01*
X98796929Y-45581389D01*
X99232358Y-46669960D02*
X99958072Y-46669960D01*
X99087215Y-47105389D02*
X99595215Y-45581389D01*
X100103215Y-47105389D01*
X101482072Y-47105389D02*
X100974072Y-46379674D01*
X100611215Y-47105389D02*
X100611215Y-45581389D01*
X101191787Y-45581389D01*
X101336929Y-45653960D01*
X101409501Y-45726531D01*
X101482072Y-45871674D01*
X101482072Y-46089389D01*
X101409501Y-46234531D01*
X101336929Y-46307103D01*
X101191787Y-46379674D01*
X100611215Y-46379674D01*
D12*
X69667967Y-114553879D02*
X69861491Y-114553879D01*
X69958252Y-114505498D01*
X70006633Y-114457117D01*
X70103395Y-114311974D01*
X70151776Y-114118450D01*
X70151776Y-113731403D01*
X70103395Y-113634641D01*
X70055014Y-113586260D01*
X69958252Y-113537879D01*
X69764729Y-113537879D01*
X69667967Y-113586260D01*
X69619586Y-113634641D01*
X69571205Y-113731403D01*
X69571205Y-113973308D01*
X69619586Y-114070070D01*
X69667967Y-114118450D01*
X69764729Y-114166831D01*
X69958252Y-114166831D01*
X70055014Y-114118450D01*
X70103395Y-114070070D01*
X70151776Y-113973308D01*
X70442062Y-113537879D02*
X70780729Y-114553879D01*
X71119395Y-113537879D01*
X72232157Y-114553879D02*
X72232157Y-113537879D01*
X72715967Y-114553879D02*
X72715967Y-113537879D01*
X73296538Y-114553879D01*
X73296538Y-113537879D01*
X73780348Y-114553879D02*
X73780348Y-113537879D01*
X74167395Y-113537879D01*
X74264157Y-113586260D01*
X74312538Y-113634641D01*
X74360919Y-113731403D01*
X74360919Y-113876546D01*
X74312538Y-113973308D01*
X74264157Y-114021689D01*
X74167395Y-114070070D01*
X73780348Y-114070070D01*
X74796348Y-113537879D02*
X74796348Y-114360355D01*
X74844729Y-114457117D01*
X74893110Y-114505498D01*
X74989872Y-114553879D01*
X75183395Y-114553879D01*
X75280157Y-114505498D01*
X75328538Y-114457117D01*
X75376919Y-114360355D01*
X75376919Y-113537879D01*
X75715586Y-113537879D02*
X76296157Y-113537879D01*
X76005872Y-114553879D02*
X76005872Y-113537879D01*
X116231610Y-75211093D02*
X116715419Y-75211093D01*
X116134848Y-75501379D02*
X116473515Y-74485379D01*
X116812181Y-75501379D01*
X117150848Y-74485379D02*
X117150848Y-75307855D01*
X117199229Y-75404617D01*
X117247610Y-75452998D01*
X117344372Y-75501379D01*
X117537895Y-75501379D01*
X117634657Y-75452998D01*
X117683038Y-75404617D01*
X117731419Y-75307855D01*
X117731419Y-74485379D01*
X118215229Y-75501379D02*
X118215229Y-74485379D01*
X118457134Y-74485379D01*
X118602276Y-74533760D01*
X118699038Y-74630522D01*
X118747419Y-74727284D01*
X118795800Y-74920808D01*
X118795800Y-75065950D01*
X118747419Y-75259474D01*
X118699038Y-75356236D01*
X118602276Y-75452998D01*
X118457134Y-75501379D01*
X118215229Y-75501379D01*
X119231229Y-75501379D02*
X119231229Y-74485379D01*
X119908563Y-74485379D02*
X120102086Y-74485379D01*
X120198848Y-74533760D01*
X120295610Y-74630522D01*
X120343991Y-74824046D01*
X120343991Y-75162712D01*
X120295610Y-75356236D01*
X120198848Y-75452998D01*
X120102086Y-75501379D01*
X119908563Y-75501379D01*
X119811801Y-75452998D01*
X119715039Y-75356236D01*
X119666658Y-75162712D01*
X119666658Y-74824046D01*
X119715039Y-74630522D01*
X119811801Y-74533760D01*
X119908563Y-74485379D01*
X115112800Y-91376379D02*
X114628991Y-91376379D01*
X114628991Y-90360379D01*
X115451467Y-91376379D02*
X115451467Y-90360379D01*
X115935277Y-91376379D02*
X115935277Y-90360379D01*
X116515848Y-91376379D01*
X116515848Y-90360379D01*
X116999658Y-90844189D02*
X117338324Y-90844189D01*
X117483467Y-91376379D02*
X116999658Y-91376379D01*
X116999658Y-90360379D01*
X117483467Y-90360379D01*
X118692991Y-91376379D02*
X118692991Y-90360379D01*
X119176801Y-91376379D02*
X119176801Y-90360379D01*
X119757372Y-91376379D01*
X119757372Y-90360379D01*
X120966896Y-90311998D02*
X120096039Y-91618284D01*
X121499087Y-90360379D02*
X121692610Y-90360379D01*
X121789372Y-90408760D01*
X121886134Y-90505522D01*
X121934515Y-90699046D01*
X121934515Y-91037712D01*
X121886134Y-91231236D01*
X121789372Y-91327998D01*
X121692610Y-91376379D01*
X121499087Y-91376379D01*
X121402325Y-91327998D01*
X121305563Y-91231236D01*
X121257182Y-91037712D01*
X121257182Y-90699046D01*
X121305563Y-90505522D01*
X121402325Y-90408760D01*
X121499087Y-90360379D01*
X122369944Y-90360379D02*
X122369944Y-91182855D01*
X122418325Y-91279617D01*
X122466706Y-91327998D01*
X122563468Y-91376379D01*
X122756991Y-91376379D01*
X122853753Y-91327998D01*
X122902134Y-91279617D01*
X122950515Y-91182855D01*
X122950515Y-90360379D01*
X123289182Y-90360379D02*
X123869753Y-90360379D01*
X123579468Y-91376379D02*
X123579468Y-90360379D01*
X119013515Y-60796593D02*
X119497324Y-60796593D01*
X118916753Y-61086879D02*
X119255420Y-60070879D01*
X119594086Y-61086879D01*
X119932753Y-61086879D02*
X119932753Y-60070879D01*
X120513324Y-61086879D01*
X120513324Y-60070879D01*
X120851991Y-60070879D02*
X121432562Y-60070879D01*
X121142277Y-61086879D02*
X121142277Y-60070879D01*
X121529324Y-61183641D02*
X122303419Y-61183641D01*
X122545324Y-61086879D02*
X122545324Y-60070879D01*
X123029134Y-61086879D02*
X123029134Y-60070879D01*
X123609705Y-61086879D01*
X123609705Y-60070879D01*
X107148086Y-122161179D02*
X106567515Y-122161179D01*
X106857801Y-122161179D02*
X106857801Y-121145179D01*
X106761039Y-121290322D01*
X106664277Y-121387084D01*
X106567515Y-121435465D01*
X107535134Y-121241941D02*
X107583515Y-121193560D01*
X107680277Y-121145179D01*
X107922181Y-121145179D01*
X108018943Y-121193560D01*
X108067324Y-121241941D01*
X108115705Y-121338703D01*
X108115705Y-121435465D01*
X108067324Y-121580608D01*
X107486753Y-122161179D01*
X108115705Y-122161179D01*
X109276848Y-121096798D02*
X108405991Y-122403084D01*
X107244848Y-123837579D02*
X106664277Y-123837579D01*
X106954563Y-123837579D02*
X106954563Y-122821579D01*
X106857801Y-122966722D01*
X106761039Y-123063484D01*
X106664277Y-123111865D01*
X107825420Y-123257008D02*
X107728658Y-123208627D01*
X107680277Y-123160246D01*
X107631896Y-123063484D01*
X107631896Y-123015103D01*
X107680277Y-122918341D01*
X107728658Y-122869960D01*
X107825420Y-122821579D01*
X108018943Y-122821579D01*
X108115705Y-122869960D01*
X108164086Y-122918341D01*
X108212467Y-123015103D01*
X108212467Y-123063484D01*
X108164086Y-123160246D01*
X108115705Y-123208627D01*
X108018943Y-123257008D01*
X107825420Y-123257008D01*
X107728658Y-123305389D01*
X107680277Y-123353770D01*
X107631896Y-123450531D01*
X107631896Y-123644055D01*
X107680277Y-123740817D01*
X107728658Y-123789198D01*
X107825420Y-123837579D01*
X108018943Y-123837579D01*
X108115705Y-123789198D01*
X108164086Y-123740817D01*
X108212467Y-123644055D01*
X108212467Y-123450531D01*
X108164086Y-123353770D01*
X108115705Y-123305389D01*
X108018943Y-123257008D01*
X108502753Y-122821579D02*
X108841420Y-123837579D01*
X109180086Y-122821579D01*
X70798871Y-83085093D02*
X70798871Y-82746427D01*
X70266681Y-82746427D02*
X71282681Y-82746427D01*
X71282681Y-83230236D01*
X70266681Y-83617284D02*
X71282681Y-83617284D01*
X70266681Y-84584903D02*
X70266681Y-84101094D01*
X71282681Y-84101094D01*
X71282681Y-84778427D02*
X71282681Y-85358998D01*
X70266681Y-85068713D02*
X71282681Y-85068713D01*
X70798871Y-85697665D02*
X70798871Y-86036331D01*
X70266681Y-86181474D02*
X70266681Y-85697665D01*
X71282681Y-85697665D01*
X71282681Y-86181474D01*
X70266681Y-87197474D02*
X70750490Y-86858808D01*
X70266681Y-86616903D02*
X71282681Y-86616903D01*
X71282681Y-87003950D01*
X71234300Y-87100712D01*
X71185919Y-87149093D01*
X71089157Y-87197474D01*
X70944014Y-87197474D01*
X70847252Y-87149093D01*
X70798871Y-87100712D01*
X70750490Y-87003950D01*
X70750490Y-86616903D01*
X85502690Y-122872379D02*
X85696213Y-122872379D01*
X85792975Y-122920760D01*
X85889737Y-123017522D01*
X85938118Y-123211046D01*
X85938118Y-123549712D01*
X85889737Y-123743236D01*
X85792975Y-123839998D01*
X85696213Y-123888379D01*
X85502690Y-123888379D01*
X85405928Y-123839998D01*
X85309166Y-123743236D01*
X85260785Y-123549712D01*
X85260785Y-123211046D01*
X85309166Y-123017522D01*
X85405928Y-122920760D01*
X85502690Y-122872379D01*
X86373547Y-123888379D02*
X86373547Y-122872379D01*
X86954118Y-123888379D01*
X86954118Y-122872379D01*
X88163642Y-122823998D02*
X87292785Y-124130284D01*
X88695833Y-122872379D02*
X88889356Y-122872379D01*
X88986118Y-122920760D01*
X89082880Y-123017522D01*
X89131261Y-123211046D01*
X89131261Y-123549712D01*
X89082880Y-123743236D01*
X88986118Y-123839998D01*
X88889356Y-123888379D01*
X88695833Y-123888379D01*
X88599071Y-123839998D01*
X88502309Y-123743236D01*
X88453928Y-123549712D01*
X88453928Y-123211046D01*
X88502309Y-123017522D01*
X88599071Y-122920760D01*
X88695833Y-122872379D01*
X89905356Y-123356189D02*
X89566690Y-123356189D01*
X89566690Y-123888379D02*
X89566690Y-122872379D01*
X90050499Y-122872379D01*
X90776213Y-123356189D02*
X90437547Y-123356189D01*
X90437547Y-123888379D02*
X90437547Y-122872379D01*
X90921356Y-122872379D01*
D13*
X89662786Y-72161400D02*
G75*
G03X89662786Y-72161400I-148106J0D01*
G01*
D14*
X88820880Y-72754600D02*
X88820880Y-71484600D01*
X81470880Y-72754600D02*
X81470880Y-71484600D01*
X81470880Y-60544600D02*
X81470880Y-61814600D01*
X88820880Y-60544600D02*
X88820880Y-61814600D01*
X88820880Y-72754600D02*
X81470880Y-72754600D01*
X88820880Y-60544600D02*
X81470880Y-60544600D01*
X88820880Y-71484600D02*
X90105880Y-71484600D01*
X73710800Y-84947760D02*
X73710800Y-82407760D01*
X73430800Y-87767760D02*
X73430800Y-86217760D01*
X73710800Y-84947760D02*
X76250800Y-84947760D01*
X76530800Y-86217760D02*
X76530800Y-87767760D01*
X76530800Y-87767760D02*
X73430800Y-87767760D01*
X76250800Y-84947760D02*
X76250800Y-82407760D01*
X76250800Y-82407760D02*
X73710800Y-82407760D01*
X89077800Y-110648260D02*
X89077800Y-104298260D01*
X89077800Y-104298260D02*
X91617800Y-104298260D01*
X91617800Y-104298260D02*
X91617800Y-110648260D01*
X91617800Y-110648260D02*
X89077800Y-110648260D01*
X81335880Y-52862480D02*
X87685880Y-52862480D01*
X87685880Y-52862480D02*
X87685880Y-55402480D01*
X87685880Y-55402480D02*
X81335880Y-55402480D01*
X81335880Y-55402480D02*
X81335880Y-52862480D01*
X79635800Y-76037760D02*
X76635800Y-76037760D01*
X76635800Y-73537760D02*
X79635800Y-73537760D01*
X103765800Y-86197760D02*
X100765800Y-86197760D01*
X100765800Y-83697760D02*
X103765800Y-83697760D01*
X113608300Y-78006260D02*
X110608300Y-78006260D01*
X110608300Y-75506260D02*
X113608300Y-75506260D01*
X108004800Y-70870760D02*
X111004800Y-70870760D01*
X111004800Y-73370760D02*
X108004800Y-73370760D01*
X92510800Y-92587760D02*
X95510800Y-92587760D01*
X95510800Y-95087760D02*
X92510800Y-95087760D01*
X88069420Y-120634760D02*
X85529420Y-120634760D01*
X90889420Y-120914760D02*
X89339420Y-120914760D01*
X88069420Y-120634760D02*
X88069420Y-118094760D01*
X89339420Y-117814760D02*
X90889420Y-117814760D01*
X90889420Y-117814760D02*
X90889420Y-120914760D01*
X88069420Y-118094760D02*
X85529420Y-118094760D01*
X85529420Y-118094760D02*
X85529420Y-120634760D01*
X107878880Y-54564280D02*
X107878880Y-57104280D01*
X108158880Y-51744280D02*
X108158880Y-53294280D01*
X107878880Y-54564280D02*
X105338880Y-54564280D01*
X105058880Y-53294280D02*
X105058880Y-51744280D01*
X105058880Y-51744280D02*
X108158880Y-51744280D01*
X105338880Y-54564280D02*
X105338880Y-57104280D01*
X105338880Y-57104280D02*
X107878880Y-57104280D01*
X91695800Y-87057760D02*
X91695800Y-90457760D01*
X91698744Y-87060704D02*
G75*
G02X95795800Y-88757760I1697056J-1697056D01*
G01*
X91698744Y-90454816D02*
G75*
G03X95795800Y-88757760I1697056J1697056D01*
G01*
X75664800Y-57720760D02*
X72264800Y-57720760D01*
X75661856Y-57723704D02*
G75*
G02X73964800Y-61820760I-1697056J-1697056D01*
G01*
X72267744Y-57723704D02*
G75*
G03X73964800Y-61820760I1697056J-1697056D01*
G01*
X87680800Y-59420760D02*
X81330800Y-59420760D01*
X81330800Y-59420760D02*
X81330800Y-56880760D01*
X81330800Y-56880760D02*
X87680800Y-56880760D01*
X87680800Y-56880760D02*
X87680800Y-59420760D01*
X94614220Y-65653920D02*
X100964220Y-65653920D01*
X100964220Y-65653920D02*
X100964220Y-68193920D01*
X100964220Y-68193920D02*
X94614220Y-68193920D01*
X94614220Y-68193920D02*
X94614220Y-65653920D01*
X83870800Y-76692760D02*
X83870800Y-83042760D01*
X83870800Y-83042760D02*
X81330800Y-83042760D01*
X81330800Y-83042760D02*
X81330800Y-76692760D01*
X81330800Y-76692760D02*
X83870800Y-76692760D01*
X81236040Y-45189140D02*
X87586040Y-45189140D01*
X87586040Y-45189140D02*
X87586040Y-47729140D01*
X87586040Y-47729140D02*
X81236040Y-47729140D01*
X81236040Y-47729140D02*
X81236040Y-45189140D01*
X101133420Y-56471820D02*
X94783420Y-56471820D01*
X94783420Y-56471820D02*
X94783420Y-53931820D01*
X94783420Y-53931820D02*
X101133420Y-53931820D01*
X101133420Y-53931820D02*
X101133420Y-56471820D01*
X94630240Y-61414660D02*
X100980240Y-61414660D01*
X100980240Y-61414660D02*
X100980240Y-63954660D01*
X100980240Y-63954660D02*
X94630240Y-63954660D01*
X94630240Y-63954660D02*
X94630240Y-61414660D01*
X108826300Y-77327760D02*
X108826300Y-83677760D01*
X108826300Y-83677760D02*
X106286300Y-83677760D01*
X106286300Y-83677760D02*
X106286300Y-77327760D01*
X106286300Y-77327760D02*
X108826300Y-77327760D01*
X101133420Y-60137040D02*
X94783420Y-60137040D01*
X94783420Y-60137040D02*
X94783420Y-57597040D01*
X94783420Y-57597040D02*
X101133420Y-57597040D01*
X101133420Y-57597040D02*
X101133420Y-60137040D01*
X88950800Y-83152760D02*
X88950800Y-76802760D01*
X88950800Y-76802760D02*
X91490800Y-76802760D01*
X91490800Y-76802760D02*
X91490800Y-83152760D01*
X91490800Y-83152760D02*
X88950800Y-83152760D01*
X88125300Y-104061260D02*
X88125300Y-110411260D01*
X88125300Y-110411260D02*
X85585300Y-110411260D01*
X85585300Y-110411260D02*
X85585300Y-104061260D01*
X85585300Y-104061260D02*
X88125300Y-104061260D01*
X85140800Y-83042760D02*
X85140800Y-76692760D01*
X85140800Y-76692760D02*
X87680800Y-76692760D01*
X87680800Y-76692760D02*
X87680800Y-83042760D01*
X87680800Y-83042760D02*
X85140800Y-83042760D01*
X76519300Y-96582760D02*
X76519300Y-99982760D01*
X76522244Y-96585704D02*
G75*
G02X80619300Y-98282760I1697056J-1697056D01*
G01*
X76522244Y-99979816D02*
G75*
G03X80619300Y-98282760I1697056J1697056D01*
G01*
X87680800Y-51546760D02*
X81330800Y-51546760D01*
X81330800Y-51546760D02*
X81330800Y-49006760D01*
X81330800Y-49006760D02*
X87680800Y-49006760D01*
X87680800Y-49006760D02*
X87680800Y-51546760D01*
X77956912Y-121270664D02*
G75*
G03X77941800Y-118245760I2484888J1524904D01*
G01*
X77941800Y-121245760D02*
X77941800Y-118245760D01*
X82959736Y-119745760D02*
G75*
G03X82959736Y-119745760I-2517936J0D01*
G01*
X84533300Y-86825760D02*
X84533300Y-94325760D01*
X84533300Y-94325760D02*
X80033300Y-94325760D01*
X80033300Y-94325760D02*
X80033300Y-86825760D01*
X80033300Y-86825760D02*
X84533300Y-86825760D01*
D13*
X93990946Y-71071740D02*
G75*
G03X93990946Y-71071740I-148106J0D01*
G01*
D14*
X94536640Y-70478540D02*
X94536640Y-71748540D01*
X101886640Y-70478540D02*
X101886640Y-71748540D01*
X101886640Y-82688540D02*
X101886640Y-81418540D01*
X94536640Y-82688540D02*
X94536640Y-81418540D01*
X94536640Y-70478540D02*
X101886640Y-70478540D01*
X94536640Y-82688540D02*
X101886640Y-82688540D01*
X94536640Y-71748540D02*
X93251640Y-71748540D01*
X120420800Y-77962760D02*
X120420800Y-76412760D01*
X120420800Y-76412760D02*
X123520800Y-76412760D01*
X123520800Y-76412760D02*
X123520800Y-77962760D01*
X123240800Y-79232760D02*
X123240800Y-89392760D01*
X123240800Y-89392760D02*
X120700800Y-89392760D01*
X120700800Y-89392760D02*
X120700800Y-79232760D01*
X123240800Y-79232760D02*
X120700800Y-79232760D01*
X94066360Y-105407460D02*
X94066360Y-106423460D01*
X94066360Y-100581460D02*
X94066360Y-99311460D01*
X95336360Y-100835460D02*
X92796360Y-100835460D01*
X95336360Y-101089460D02*
X92796360Y-101089460D01*
X95336360Y-101343460D02*
X92796360Y-101343460D01*
X95336360Y-100581460D02*
X92796360Y-100581460D01*
X95336360Y-101597460D02*
X92796360Y-100327460D01*
X95336360Y-100327460D02*
X92796360Y-101597460D01*
X95336360Y-101597460D02*
X92796360Y-101597460D01*
X95336360Y-100962460D02*
X92796360Y-100962460D01*
X92796360Y-100327460D02*
X95336360Y-100327460D01*
X95336360Y-100327460D02*
X95336360Y-105407460D01*
X95336360Y-105407460D02*
X92796360Y-105407460D01*
X92796360Y-105407460D02*
X92796360Y-100327460D01*
X94030800Y-119872760D02*
X94030800Y-120888760D01*
X94030800Y-115046760D02*
X94030800Y-113776760D01*
X95300800Y-115300760D02*
X92760800Y-115300760D01*
X95300800Y-115554760D02*
X92760800Y-115554760D01*
X95300800Y-115808760D02*
X92760800Y-115808760D01*
X95300800Y-115046760D02*
X92760800Y-115046760D01*
X95300800Y-116062760D02*
X92760800Y-114792760D01*
X95300800Y-114792760D02*
X92760800Y-116062760D01*
X95300800Y-116062760D02*
X92760800Y-116062760D01*
X95300800Y-115427760D02*
X92760800Y-115427760D01*
X92760800Y-114792760D02*
X95300800Y-114792760D01*
X95300800Y-114792760D02*
X95300800Y-119872760D01*
X95300800Y-119872760D02*
X92760800Y-119872760D01*
X92760800Y-119872760D02*
X92760800Y-114792760D01*
X78119300Y-93357260D02*
X70619300Y-93357260D01*
X70619300Y-93357260D02*
X70619300Y-88857260D01*
X70619300Y-88857260D02*
X78119300Y-88857260D01*
X78119300Y-88857260D02*
X78119300Y-93357260D01*
X75148000Y-73412020D02*
X75148000Y-80912020D01*
X75148000Y-80912020D02*
X70648000Y-80912020D01*
X70648000Y-80912020D02*
X70648000Y-73412020D01*
X70648000Y-73412020D02*
X75148000Y-73412020D01*
X107528800Y-69226760D02*
X107528800Y-61726760D01*
X107528800Y-61726760D02*
X112028800Y-61726760D01*
X112028800Y-61726760D02*
X112028800Y-69226760D01*
X112028800Y-69226760D02*
X107528800Y-69226760D01*
X114632300Y-78998760D02*
X114632300Y-86498760D01*
X114632300Y-86498760D02*
X110132300Y-86498760D01*
X110132300Y-86498760D02*
X110132300Y-78998760D01*
X110132300Y-78998760D02*
X114632300Y-78998760D01*
X70489760Y-67376480D02*
X77989760Y-67376480D01*
X77989760Y-67376480D02*
X77989760Y-71876480D01*
X77989760Y-71876480D02*
X70489760Y-71876480D01*
X70489760Y-71876480D02*
X70489760Y-67376480D01*
X77928800Y-56082760D02*
X70428800Y-56082760D01*
X70428800Y-56082760D02*
X70428800Y-51582760D01*
X70428800Y-51582760D02*
X77928800Y-51582760D01*
X77928800Y-51582760D02*
X77928800Y-56082760D01*
X75198800Y-94763260D02*
X75198800Y-102263260D01*
X75198800Y-102263260D02*
X70698800Y-102263260D01*
X70698800Y-102263260D02*
X70698800Y-94763260D01*
X70698800Y-94763260D02*
X75198800Y-94763260D01*
X72082660Y-103751380D02*
X72082660Y-112753140D01*
X68582540Y-103751380D02*
X68582540Y-112753140D01*
X68582540Y-112753140D02*
X83083400Y-112753140D01*
X83083400Y-112753140D02*
X83083400Y-103751380D01*
X83083400Y-103751380D02*
X68582540Y-103751380D01*
X97022920Y-125295660D02*
X106024680Y-125295660D01*
X97022920Y-128795780D02*
X106024680Y-128795780D01*
X106024680Y-128795780D02*
X106024680Y-114294920D01*
X106024680Y-114294920D02*
X97022920Y-114294920D01*
X97022920Y-114294920D02*
X97022920Y-128795780D01*
D12*
X124985780Y-65244980D02*
X123461780Y-65244980D01*
X124985780Y-70324980D02*
X124985780Y-65244980D01*
X123461780Y-70324980D02*
X124985780Y-70324980D01*
X123461780Y-61434980D02*
X113301780Y-61434980D01*
X123461780Y-74134980D02*
X123461780Y-61434980D01*
X113301780Y-74134980D02*
X123461780Y-74134980D01*
X113301780Y-61434980D02*
X113301780Y-74134980D01*
X125526800Y-110728760D02*
X124256800Y-110728760D01*
X125526800Y-122158760D02*
X125526800Y-110728760D01*
X124256800Y-122158760D02*
X125526800Y-122158760D01*
D14*
X109689900Y-108770420D02*
X109689900Y-124371100D01*
X109689900Y-124371100D02*
X124091700Y-124371100D01*
X124091700Y-124371100D02*
X124091700Y-108770420D01*
X124091700Y-108770420D02*
X109689900Y-108770420D01*
D12*
X125501400Y-45976540D02*
X124231400Y-45976540D01*
X125501400Y-57406540D02*
X125501400Y-45976540D01*
X124231400Y-57406540D02*
X125501400Y-57406540D01*
D14*
X109664500Y-44018200D02*
X109664500Y-59618880D01*
X109664500Y-59618880D02*
X124066300Y-59618880D01*
X124066300Y-59618880D02*
X124066300Y-44018200D01*
X124066300Y-44018200D02*
X109664500Y-44018200D01*
D12*
X125526800Y-93710760D02*
X124256800Y-93710760D01*
X125526800Y-105140760D02*
X125526800Y-93710760D01*
X124256800Y-105140760D02*
X125526800Y-105140760D01*
D14*
X109689900Y-91752420D02*
X109689900Y-107353100D01*
X109689900Y-107353100D02*
X124091700Y-107353100D01*
X124091700Y-107353100D02*
X124091700Y-91752420D01*
X124091700Y-91752420D02*
X109689900Y-91752420D01*
D12*
X97840800Y-87043260D02*
X108508800Y-87043260D01*
X108508800Y-107109260D02*
X108508800Y-87043260D01*
D14*
X108508800Y-108252260D02*
X106603800Y-108252260D01*
X104063800Y-108252260D02*
X104825800Y-108252260D01*
X101650800Y-108252260D02*
X101523800Y-108252260D01*
X101650800Y-108252260D02*
X102285800Y-108252260D01*
X97840800Y-108252260D02*
X99618800Y-108252260D01*
X97840800Y-111935260D02*
X99491800Y-111935260D01*
X102158800Y-112062260D02*
X101523800Y-112062260D01*
X104698800Y-112062260D02*
X104063800Y-112062260D01*
X108508800Y-111935260D02*
X106857800Y-111935260D01*
X101650800Y-107109260D02*
X101650800Y-108252260D01*
X104698800Y-107109260D02*
X104698800Y-108252260D01*
X108508800Y-108252260D02*
X108508800Y-111935260D01*
X97840800Y-111935260D02*
X97840800Y-108252260D01*
X108508800Y-107109260D02*
X108508800Y-108252260D01*
X97840800Y-108252260D02*
X97840800Y-107109260D01*
X103174800Y-107109260D02*
X97840800Y-107109260D01*
X103174800Y-107109260D02*
X108508800Y-107109260D01*
D12*
X97840800Y-107109260D02*
X97840800Y-87043260D01*
D14*
X76056300Y-65915860D02*
X73056300Y-65915860D01*
X73056300Y-63415860D02*
X76056300Y-63415860D01*
X114243300Y-90680860D02*
X111243300Y-90680860D01*
X111243300Y-88180860D02*
X114243300Y-88180860D01*
X79044895Y-60524141D02*
X79044895Y-61333665D01*
X79092514Y-61428903D01*
X79140133Y-61476522D01*
X79235371Y-61524141D01*
X79425848Y-61524141D01*
X79521086Y-61476522D01*
X79568705Y-61428903D01*
X79616324Y-61333665D01*
X79616324Y-60524141D01*
X79997276Y-60524141D02*
X80616324Y-60524141D01*
X80282990Y-60905093D01*
X80425848Y-60905093D01*
X80521086Y-60952712D01*
X80568705Y-61000331D01*
X80616324Y-61095570D01*
X80616324Y-61333665D01*
X80568705Y-61428903D01*
X80521086Y-61476522D01*
X80425848Y-61524141D01*
X80140133Y-61524141D01*
X80044895Y-61476522D01*
X79997276Y-61428903D01*
X90736681Y-107942617D02*
X90260490Y-108275951D01*
X90736681Y-108514046D02*
X89736681Y-108514046D01*
X89736681Y-108133093D01*
X89784300Y-108037855D01*
X89831919Y-107990236D01*
X89927157Y-107942617D01*
X90070014Y-107942617D01*
X90165252Y-107990236D01*
X90212871Y-108037855D01*
X90260490Y-108133093D01*
X90260490Y-108514046D01*
X90736681Y-106990236D02*
X90736681Y-107561665D01*
X90736681Y-107275951D02*
X89736681Y-107275951D01*
X89879538Y-107371189D01*
X89974776Y-107466427D01*
X90022395Y-107561665D01*
X89736681Y-106656903D02*
X89736681Y-106037855D01*
X90117633Y-106371189D01*
X90117633Y-106228331D01*
X90165252Y-106133093D01*
X90212871Y-106085474D01*
X90308110Y-106037855D01*
X90546205Y-106037855D01*
X90641443Y-106085474D01*
X90689062Y-106133093D01*
X90736681Y-106228331D01*
X90736681Y-106514046D01*
X90689062Y-106609284D01*
X90641443Y-106656903D01*
X84148634Y-54666141D02*
X83815300Y-54189950D01*
X83577205Y-54666141D02*
X83577205Y-53666141D01*
X83958158Y-53666141D01*
X84053396Y-53713760D01*
X84101015Y-53761379D01*
X84148634Y-53856617D01*
X84148634Y-53999474D01*
X84101015Y-54094712D01*
X84053396Y-54142331D01*
X83958158Y-54189950D01*
X83577205Y-54189950D01*
X84529586Y-53761379D02*
X84577205Y-53713760D01*
X84672443Y-53666141D01*
X84910539Y-53666141D01*
X85005777Y-53713760D01*
X85053396Y-53761379D01*
X85101015Y-53856617D01*
X85101015Y-53951855D01*
X85053396Y-54094712D01*
X84481967Y-54666141D01*
X85101015Y-54666141D01*
X78624134Y-77430903D02*
X78576515Y-77478522D01*
X78433658Y-77526141D01*
X78338420Y-77526141D01*
X78195562Y-77478522D01*
X78100324Y-77383284D01*
X78052705Y-77288046D01*
X78005086Y-77097570D01*
X78005086Y-76954712D01*
X78052705Y-76764236D01*
X78100324Y-76668998D01*
X78195562Y-76573760D01*
X78338420Y-76526141D01*
X78433658Y-76526141D01*
X78576515Y-76573760D01*
X78624134Y-76621379D01*
X79481277Y-76859474D02*
X79481277Y-77526141D01*
X79243181Y-76478522D02*
X79005086Y-77192808D01*
X79624134Y-77192808D01*
X98817134Y-85304903D02*
X98769515Y-85352522D01*
X98626658Y-85400141D01*
X98531420Y-85400141D01*
X98388562Y-85352522D01*
X98293324Y-85257284D01*
X98245705Y-85162046D01*
X98198086Y-84971570D01*
X98198086Y-84828712D01*
X98245705Y-84638236D01*
X98293324Y-84542998D01*
X98388562Y-84447760D01*
X98531420Y-84400141D01*
X98626658Y-84400141D01*
X98769515Y-84447760D01*
X98817134Y-84495379D01*
X99721896Y-84400141D02*
X99245705Y-84400141D01*
X99198086Y-84876331D01*
X99245705Y-84828712D01*
X99340943Y-84781093D01*
X99579039Y-84781093D01*
X99674277Y-84828712D01*
X99721896Y-84876331D01*
X99769515Y-84971570D01*
X99769515Y-85209665D01*
X99721896Y-85304903D01*
X99674277Y-85352522D01*
X99579039Y-85400141D01*
X99340943Y-85400141D01*
X99245705Y-85352522D01*
X99198086Y-85304903D01*
X115454134Y-77049903D02*
X115406515Y-77097522D01*
X115263658Y-77145141D01*
X115168420Y-77145141D01*
X115025562Y-77097522D01*
X114930324Y-77002284D01*
X114882705Y-76907046D01*
X114835086Y-76716570D01*
X114835086Y-76573712D01*
X114882705Y-76383236D01*
X114930324Y-76287998D01*
X115025562Y-76192760D01*
X115168420Y-76145141D01*
X115263658Y-76145141D01*
X115406515Y-76192760D01*
X115454134Y-76240379D01*
X116311277Y-76145141D02*
X116120800Y-76145141D01*
X116025562Y-76192760D01*
X115977943Y-76240379D01*
X115882705Y-76383236D01*
X115835086Y-76573712D01*
X115835086Y-76954665D01*
X115882705Y-77049903D01*
X115930324Y-77097522D01*
X116025562Y-77145141D01*
X116216039Y-77145141D01*
X116311277Y-77097522D01*
X116358896Y-77049903D01*
X116406515Y-76954665D01*
X116406515Y-76716570D01*
X116358896Y-76621331D01*
X116311277Y-76573712D01*
X116216039Y-76526093D01*
X116025562Y-76526093D01*
X115930324Y-76573712D01*
X115882705Y-76621331D01*
X115835086Y-76716570D01*
X105071943Y-72541403D02*
X105024324Y-72589022D01*
X104881467Y-72636641D01*
X104786229Y-72636641D01*
X104643371Y-72589022D01*
X104548133Y-72493784D01*
X104500514Y-72398546D01*
X104452895Y-72208070D01*
X104452895Y-72065212D01*
X104500514Y-71874736D01*
X104548133Y-71779498D01*
X104643371Y-71684260D01*
X104786229Y-71636641D01*
X104881467Y-71636641D01*
X105024324Y-71684260D01*
X105071943Y-71731879D01*
X106024324Y-72636641D02*
X105452895Y-72636641D01*
X105738609Y-72636641D02*
X105738609Y-71636641D01*
X105643371Y-71779498D01*
X105548133Y-71874736D01*
X105452895Y-71922355D01*
X106643371Y-71636641D02*
X106738610Y-71636641D01*
X106833848Y-71684260D01*
X106881467Y-71731879D01*
X106929086Y-71827117D01*
X106976705Y-72017593D01*
X106976705Y-72255689D01*
X106929086Y-72446165D01*
X106881467Y-72541403D01*
X106833848Y-72589022D01*
X106738610Y-72636641D01*
X106643371Y-72636641D01*
X106548133Y-72589022D01*
X106500514Y-72541403D01*
X106452895Y-72446165D01*
X106405276Y-72255689D01*
X106405276Y-72017593D01*
X106452895Y-71827117D01*
X106500514Y-71731879D01*
X106548133Y-71684260D01*
X106643371Y-71636641D01*
X91085943Y-94480617D02*
X91133562Y-94528236D01*
X91181181Y-94671093D01*
X91181181Y-94766331D01*
X91133562Y-94909189D01*
X91038324Y-95004427D01*
X90943086Y-95052046D01*
X90752610Y-95099665D01*
X90609752Y-95099665D01*
X90419276Y-95052046D01*
X90324038Y-95004427D01*
X90228800Y-94909189D01*
X90181181Y-94766331D01*
X90181181Y-94671093D01*
X90228800Y-94528236D01*
X90276419Y-94480617D01*
X91181181Y-93528236D02*
X91181181Y-94099665D01*
X91181181Y-93813951D02*
X90181181Y-93813951D01*
X90324038Y-93909189D01*
X90419276Y-94004427D01*
X90466895Y-94099665D01*
X90276419Y-93147284D02*
X90228800Y-93099665D01*
X90181181Y-93004427D01*
X90181181Y-92766331D01*
X90228800Y-92671093D01*
X90276419Y-92623474D01*
X90371657Y-92575855D01*
X90466895Y-92575855D01*
X90609752Y-92623474D01*
X91181181Y-93194903D01*
X91181181Y-92575855D01*
X105064134Y-59047641D02*
X104587943Y-59047641D01*
X104587943Y-58047641D01*
X105349848Y-58761927D02*
X105826039Y-58761927D01*
X105254610Y-59047641D02*
X105587943Y-58047641D01*
X105921277Y-59047641D01*
X106254610Y-59047641D02*
X106254610Y-58047641D01*
X106587944Y-58761927D01*
X106921277Y-58047641D01*
X106921277Y-59047641D01*
X107397467Y-59047641D02*
X107397467Y-58047641D01*
X107778420Y-58047641D01*
X107873658Y-58095260D01*
X107921277Y-58142879D01*
X107968896Y-58238117D01*
X107968896Y-58380974D01*
X107921277Y-58476212D01*
X107873658Y-58523831D01*
X107778420Y-58571450D01*
X107397467Y-58571450D01*
X108921277Y-59047641D02*
X108349848Y-59047641D01*
X108635562Y-59047641D02*
X108635562Y-58047641D01*
X108540324Y-58190498D01*
X108445086Y-58285736D01*
X108349848Y-58333355D01*
X90379562Y-89114879D02*
X90284324Y-89067260D01*
X90189086Y-88972022D01*
X90046229Y-88829165D01*
X89950990Y-88781546D01*
X89855752Y-88781546D01*
X89903371Y-89019641D02*
X89808133Y-88972022D01*
X89712895Y-88876784D01*
X89665276Y-88686308D01*
X89665276Y-88352974D01*
X89712895Y-88162498D01*
X89808133Y-88067260D01*
X89903371Y-88019641D01*
X90093848Y-88019641D01*
X90189086Y-88067260D01*
X90284324Y-88162498D01*
X90331943Y-88352974D01*
X90331943Y-88686308D01*
X90284324Y-88876784D01*
X90189086Y-88972022D01*
X90093848Y-89019641D01*
X89903371Y-89019641D01*
X91284324Y-89019641D02*
X90712895Y-89019641D01*
X90998609Y-89019641D02*
X90998609Y-88019641D01*
X90903371Y-88162498D01*
X90808133Y-88257736D01*
X90712895Y-88305355D01*
X70956419Y-59515998D02*
X70908800Y-59611236D01*
X70813562Y-59706474D01*
X70670705Y-59849331D01*
X70623086Y-59944570D01*
X70623086Y-60039808D01*
X70861181Y-59992189D02*
X70813562Y-60087427D01*
X70718324Y-60182665D01*
X70527848Y-60230284D01*
X70194514Y-60230284D01*
X70004038Y-60182665D01*
X69908800Y-60087427D01*
X69861181Y-59992189D01*
X69861181Y-59801712D01*
X69908800Y-59706474D01*
X70004038Y-59611236D01*
X70194514Y-59563617D01*
X70527848Y-59563617D01*
X70718324Y-59611236D01*
X70813562Y-59706474D01*
X70861181Y-59801712D01*
X70861181Y-59992189D01*
X69956419Y-59182665D02*
X69908800Y-59135046D01*
X69861181Y-59039808D01*
X69861181Y-58801712D01*
X69908800Y-58706474D01*
X69956419Y-58658855D01*
X70051657Y-58611236D01*
X70146895Y-58611236D01*
X70289752Y-58658855D01*
X70861181Y-59230284D01*
X70861181Y-58611236D01*
X84402634Y-58666641D02*
X84069300Y-58190450D01*
X83831205Y-58666641D02*
X83831205Y-57666641D01*
X84212158Y-57666641D01*
X84307396Y-57714260D01*
X84355015Y-57761879D01*
X84402634Y-57857117D01*
X84402634Y-57999974D01*
X84355015Y-58095212D01*
X84307396Y-58142831D01*
X84212158Y-58190450D01*
X83831205Y-58190450D01*
X85355015Y-58666641D02*
X84783586Y-58666641D01*
X85069300Y-58666641D02*
X85069300Y-57666641D01*
X84974062Y-57809498D01*
X84878824Y-57904736D01*
X84783586Y-57952355D01*
X96975634Y-67366141D02*
X96642300Y-66889950D01*
X96404205Y-67366141D02*
X96404205Y-66366141D01*
X96785158Y-66366141D01*
X96880396Y-66413760D01*
X96928015Y-66461379D01*
X96975634Y-66556617D01*
X96975634Y-66699474D01*
X96928015Y-66794712D01*
X96880396Y-66842331D01*
X96785158Y-66889950D01*
X96404205Y-66889950D01*
X97308967Y-66366141D02*
X97928015Y-66366141D01*
X97594681Y-66747093D01*
X97737539Y-66747093D01*
X97832777Y-66794712D01*
X97880396Y-66842331D01*
X97928015Y-66937570D01*
X97928015Y-67175665D01*
X97880396Y-67270903D01*
X97832777Y-67318522D01*
X97737539Y-67366141D01*
X97451824Y-67366141D01*
X97356586Y-67318522D01*
X97308967Y-67270903D01*
X82370634Y-80574141D02*
X82037300Y-80097950D01*
X81799205Y-80574141D02*
X81799205Y-79574141D01*
X82180158Y-79574141D01*
X82275396Y-79621760D01*
X82323015Y-79669379D01*
X82370634Y-79764617D01*
X82370634Y-79907474D01*
X82323015Y-80002712D01*
X82275396Y-80050331D01*
X82180158Y-80097950D01*
X81799205Y-80097950D01*
X83227777Y-79907474D02*
X83227777Y-80574141D01*
X82989681Y-79526522D02*
X82751586Y-80240808D01*
X83370634Y-80240808D01*
X84085134Y-47046141D02*
X83751800Y-46569950D01*
X83513705Y-47046141D02*
X83513705Y-46046141D01*
X83894658Y-46046141D01*
X83989896Y-46093760D01*
X84037515Y-46141379D01*
X84085134Y-46236617D01*
X84085134Y-46379474D01*
X84037515Y-46474712D01*
X83989896Y-46522331D01*
X83894658Y-46569950D01*
X83513705Y-46569950D01*
X84989896Y-46046141D02*
X84513705Y-46046141D01*
X84466086Y-46522331D01*
X84513705Y-46474712D01*
X84608943Y-46427093D01*
X84847039Y-46427093D01*
X84942277Y-46474712D01*
X84989896Y-46522331D01*
X85037515Y-46617570D01*
X85037515Y-46855665D01*
X84989896Y-46950903D01*
X84942277Y-46998522D01*
X84847039Y-47046141D01*
X84608943Y-47046141D01*
X84513705Y-46998522D01*
X84466086Y-46950903D01*
X96975634Y-55682141D02*
X96642300Y-55205950D01*
X96404205Y-55682141D02*
X96404205Y-54682141D01*
X96785158Y-54682141D01*
X96880396Y-54729760D01*
X96928015Y-54777379D01*
X96975634Y-54872617D01*
X96975634Y-55015474D01*
X96928015Y-55110712D01*
X96880396Y-55158331D01*
X96785158Y-55205950D01*
X96404205Y-55205950D01*
X97832777Y-54682141D02*
X97642300Y-54682141D01*
X97547062Y-54729760D01*
X97499443Y-54777379D01*
X97404205Y-54920236D01*
X97356586Y-55110712D01*
X97356586Y-55491665D01*
X97404205Y-55586903D01*
X97451824Y-55634522D01*
X97547062Y-55682141D01*
X97737539Y-55682141D01*
X97832777Y-55634522D01*
X97880396Y-55586903D01*
X97928015Y-55491665D01*
X97928015Y-55253570D01*
X97880396Y-55158331D01*
X97832777Y-55110712D01*
X97737539Y-55063093D01*
X97547062Y-55063093D01*
X97451824Y-55110712D01*
X97404205Y-55158331D01*
X97356586Y-55253570D01*
X96975634Y-63111641D02*
X96642300Y-62635450D01*
X96404205Y-63111641D02*
X96404205Y-62111641D01*
X96785158Y-62111641D01*
X96880396Y-62159260D01*
X96928015Y-62206879D01*
X96975634Y-62302117D01*
X96975634Y-62444974D01*
X96928015Y-62540212D01*
X96880396Y-62587831D01*
X96785158Y-62635450D01*
X96404205Y-62635450D01*
X97308967Y-62111641D02*
X97975634Y-62111641D01*
X97547062Y-63111641D01*
X107389634Y-80256641D02*
X107056300Y-79780450D01*
X106818205Y-80256641D02*
X106818205Y-79256641D01*
X107199158Y-79256641D01*
X107294396Y-79304260D01*
X107342015Y-79351879D01*
X107389634Y-79447117D01*
X107389634Y-79589974D01*
X107342015Y-79685212D01*
X107294396Y-79732831D01*
X107199158Y-79780450D01*
X106818205Y-79780450D01*
X107961062Y-79685212D02*
X107865824Y-79637593D01*
X107818205Y-79589974D01*
X107770586Y-79494736D01*
X107770586Y-79447117D01*
X107818205Y-79351879D01*
X107865824Y-79304260D01*
X107961062Y-79256641D01*
X108151539Y-79256641D01*
X108246777Y-79304260D01*
X108294396Y-79351879D01*
X108342015Y-79447117D01*
X108342015Y-79494736D01*
X108294396Y-79589974D01*
X108246777Y-79637593D01*
X108151539Y-79685212D01*
X107961062Y-79685212D01*
X107865824Y-79732831D01*
X107818205Y-79780450D01*
X107770586Y-79875689D01*
X107770586Y-80066165D01*
X107818205Y-80161403D01*
X107865824Y-80209022D01*
X107961062Y-80256641D01*
X108151539Y-80256641D01*
X108246777Y-80209022D01*
X108294396Y-80161403D01*
X108342015Y-80066165D01*
X108342015Y-79875689D01*
X108294396Y-79780450D01*
X108246777Y-79732831D01*
X108151539Y-79685212D01*
X96975634Y-59238141D02*
X96642300Y-58761950D01*
X96404205Y-59238141D02*
X96404205Y-58238141D01*
X96785158Y-58238141D01*
X96880396Y-58285760D01*
X96928015Y-58333379D01*
X96975634Y-58428617D01*
X96975634Y-58571474D01*
X96928015Y-58666712D01*
X96880396Y-58714331D01*
X96785158Y-58761950D01*
X96404205Y-58761950D01*
X97451824Y-59238141D02*
X97642300Y-59238141D01*
X97737539Y-59190522D01*
X97785158Y-59142903D01*
X97880396Y-59000046D01*
X97928015Y-58809570D01*
X97928015Y-58428617D01*
X97880396Y-58333379D01*
X97832777Y-58285760D01*
X97737539Y-58238141D01*
X97547062Y-58238141D01*
X97451824Y-58285760D01*
X97404205Y-58333379D01*
X97356586Y-58428617D01*
X97356586Y-58666712D01*
X97404205Y-58761950D01*
X97451824Y-58809570D01*
X97547062Y-58857189D01*
X97737539Y-58857189D01*
X97832777Y-58809570D01*
X97880396Y-58761950D01*
X97928015Y-58666712D01*
X90546181Y-80891617D02*
X90069990Y-81224951D01*
X90546181Y-81463046D02*
X89546181Y-81463046D01*
X89546181Y-81082093D01*
X89593800Y-80986855D01*
X89641419Y-80939236D01*
X89736657Y-80891617D01*
X89879514Y-80891617D01*
X89974752Y-80939236D01*
X90022371Y-80986855D01*
X90069990Y-81082093D01*
X90069990Y-81463046D01*
X90546181Y-79939236D02*
X90546181Y-80510665D01*
X90546181Y-80224951D02*
X89546181Y-80224951D01*
X89689038Y-80320189D01*
X89784276Y-80415427D01*
X89831895Y-80510665D01*
X90546181Y-78986855D02*
X90546181Y-79558284D01*
X90546181Y-79272570D02*
X89546181Y-79272570D01*
X89689038Y-79367808D01*
X89784276Y-79463046D01*
X89831895Y-79558284D01*
X87307681Y-107815617D02*
X86831490Y-108148951D01*
X87307681Y-108387046D02*
X86307681Y-108387046D01*
X86307681Y-108006093D01*
X86355300Y-107910855D01*
X86402919Y-107863236D01*
X86498157Y-107815617D01*
X86641014Y-107815617D01*
X86736252Y-107863236D01*
X86783871Y-107910855D01*
X86831490Y-108006093D01*
X86831490Y-108387046D01*
X87307681Y-106863236D02*
X87307681Y-107434665D01*
X87307681Y-107148951D02*
X86307681Y-107148951D01*
X86450538Y-107244189D01*
X86545776Y-107339427D01*
X86593395Y-107434665D01*
X86402919Y-106482284D02*
X86355300Y-106434665D01*
X86307681Y-106339427D01*
X86307681Y-106101331D01*
X86355300Y-106006093D01*
X86402919Y-105958474D01*
X86498157Y-105910855D01*
X86593395Y-105910855D01*
X86736252Y-105958474D01*
X87307681Y-106529903D01*
X87307681Y-105910855D01*
X86926681Y-80891617D02*
X86450490Y-81224951D01*
X86926681Y-81463046D02*
X85926681Y-81463046D01*
X85926681Y-81082093D01*
X85974300Y-80986855D01*
X86021919Y-80939236D01*
X86117157Y-80891617D01*
X86260014Y-80891617D01*
X86355252Y-80939236D01*
X86402871Y-80986855D01*
X86450490Y-81082093D01*
X86450490Y-81463046D01*
X86926681Y-79939236D02*
X86926681Y-80510665D01*
X86926681Y-80224951D02*
X85926681Y-80224951D01*
X86069538Y-80320189D01*
X86164776Y-80415427D01*
X86212395Y-80510665D01*
X85926681Y-79605903D02*
X85926681Y-78939236D01*
X86926681Y-79367808D01*
X77647895Y-101354641D02*
X77647895Y-102164165D01*
X77695514Y-102259403D01*
X77743133Y-102307022D01*
X77838371Y-102354641D01*
X78028848Y-102354641D01*
X78124086Y-102307022D01*
X78171705Y-102259403D01*
X78219324Y-102164165D01*
X78219324Y-101354641D01*
X78647895Y-101449879D02*
X78695514Y-101402260D01*
X78790752Y-101354641D01*
X79028848Y-101354641D01*
X79124086Y-101402260D01*
X79171705Y-101449879D01*
X79219324Y-101545117D01*
X79219324Y-101640355D01*
X79171705Y-101783212D01*
X78600276Y-102354641D01*
X79219324Y-102354641D01*
X84148634Y-50792641D02*
X83672443Y-50792641D01*
X83672443Y-49792641D01*
X85005777Y-50792641D02*
X84434348Y-50792641D01*
X84720062Y-50792641D02*
X84720062Y-49792641D01*
X84624824Y-49935498D01*
X84529586Y-50030736D01*
X84434348Y-50078355D01*
X82624705Y-116896141D02*
X82624705Y-115896141D01*
X82862800Y-115896141D01*
X83005658Y-115943760D01*
X83100896Y-116038998D01*
X83148515Y-116134236D01*
X83196134Y-116324712D01*
X83196134Y-116467570D01*
X83148515Y-116658046D01*
X83100896Y-116753284D01*
X83005658Y-116848522D01*
X82862800Y-116896141D01*
X82624705Y-116896141D01*
X83529467Y-115896141D02*
X84148515Y-115896141D01*
X83815181Y-116277093D01*
X83958039Y-116277093D01*
X84053277Y-116324712D01*
X84100896Y-116372331D01*
X84148515Y-116467570D01*
X84148515Y-116705665D01*
X84100896Y-116800903D01*
X84053277Y-116848522D01*
X83958039Y-116896141D01*
X83672324Y-116896141D01*
X83577086Y-116848522D01*
X83529467Y-116800903D01*
X81703943Y-90956403D02*
X81656324Y-91004022D01*
X81513467Y-91051641D01*
X81418229Y-91051641D01*
X81275371Y-91004022D01*
X81180133Y-90908784D01*
X81132514Y-90813546D01*
X81084895Y-90623070D01*
X81084895Y-90480212D01*
X81132514Y-90289736D01*
X81180133Y-90194498D01*
X81275371Y-90099260D01*
X81418229Y-90051641D01*
X81513467Y-90051641D01*
X81656324Y-90099260D01*
X81703943Y-90146879D01*
X82656324Y-91051641D02*
X82084895Y-91051641D01*
X82370609Y-91051641D02*
X82370609Y-90051641D01*
X82275371Y-90194498D01*
X82180133Y-90289736D01*
X82084895Y-90337355D01*
X83608705Y-91051641D02*
X83037276Y-91051641D01*
X83322990Y-91051641D02*
X83322990Y-90051641D01*
X83227752Y-90194498D01*
X83132514Y-90289736D01*
X83037276Y-90337355D01*
X97639735Y-68725921D02*
X97639735Y-69535445D01*
X97687354Y-69630683D01*
X97734973Y-69678302D01*
X97830211Y-69725921D01*
X98020688Y-69725921D01*
X98115926Y-69678302D01*
X98163545Y-69630683D01*
X98211164Y-69535445D01*
X98211164Y-68725921D01*
X99115926Y-69059254D02*
X99115926Y-69725921D01*
X98877830Y-68678302D02*
X98639735Y-69392588D01*
X99258783Y-69392588D01*
X117835443Y-83495141D02*
X117502109Y-83018950D01*
X117264014Y-83495141D02*
X117264014Y-82495141D01*
X117644967Y-82495141D01*
X117740205Y-82542760D01*
X117787824Y-82590379D01*
X117835443Y-82685617D01*
X117835443Y-82828474D01*
X117787824Y-82923712D01*
X117740205Y-82971331D01*
X117644967Y-83018950D01*
X117264014Y-83018950D01*
X118787824Y-83495141D02*
X118216395Y-83495141D01*
X118502109Y-83495141D02*
X118502109Y-82495141D01*
X118406871Y-82637998D01*
X118311633Y-82733236D01*
X118216395Y-82780855D01*
X119406871Y-82495141D02*
X119502110Y-82495141D01*
X119597348Y-82542760D01*
X119644967Y-82590379D01*
X119692586Y-82685617D01*
X119740205Y-82876093D01*
X119740205Y-83114189D01*
X119692586Y-83304665D01*
X119644967Y-83399903D01*
X119597348Y-83447522D01*
X119502110Y-83495141D01*
X119406871Y-83495141D01*
X119311633Y-83447522D01*
X119264014Y-83399903D01*
X119216395Y-83304665D01*
X119168776Y-83114189D01*
X119168776Y-82876093D01*
X119216395Y-82685617D01*
X119264014Y-82590379D01*
X119311633Y-82542760D01*
X119406871Y-82495141D01*
X93165705Y-103624641D02*
X93165705Y-102624641D01*
X93403800Y-102624641D01*
X93546658Y-102672260D01*
X93641896Y-102767498D01*
X93689515Y-102862736D01*
X93737134Y-103053212D01*
X93737134Y-103196070D01*
X93689515Y-103386546D01*
X93641896Y-103481784D01*
X93546658Y-103577022D01*
X93403800Y-103624641D01*
X93165705Y-103624641D01*
X94118086Y-102719879D02*
X94165705Y-102672260D01*
X94260943Y-102624641D01*
X94499039Y-102624641D01*
X94594277Y-102672260D01*
X94641896Y-102719879D01*
X94689515Y-102815117D01*
X94689515Y-102910355D01*
X94641896Y-103053212D01*
X94070467Y-103624641D01*
X94689515Y-103624641D01*
X93292705Y-118229641D02*
X93292705Y-117229641D01*
X93530800Y-117229641D01*
X93673658Y-117277260D01*
X93768896Y-117372498D01*
X93816515Y-117467736D01*
X93864134Y-117658212D01*
X93864134Y-117801070D01*
X93816515Y-117991546D01*
X93768896Y-118086784D01*
X93673658Y-118182022D01*
X93530800Y-118229641D01*
X93292705Y-118229641D01*
X94816515Y-118229641D02*
X94245086Y-118229641D01*
X94530800Y-118229641D02*
X94530800Y-117229641D01*
X94435562Y-117372498D01*
X94340324Y-117467736D01*
X94245086Y-117515355D01*
X73702943Y-91464403D02*
X73655324Y-91512022D01*
X73512467Y-91559641D01*
X73417229Y-91559641D01*
X73274371Y-91512022D01*
X73179133Y-91416784D01*
X73131514Y-91321546D01*
X73083895Y-91131070D01*
X73083895Y-90988212D01*
X73131514Y-90797736D01*
X73179133Y-90702498D01*
X73274371Y-90607260D01*
X73417229Y-90559641D01*
X73512467Y-90559641D01*
X73655324Y-90607260D01*
X73702943Y-90654879D01*
X74655324Y-91559641D02*
X74083895Y-91559641D01*
X74369609Y-91559641D02*
X74369609Y-90559641D01*
X74274371Y-90702498D01*
X74179133Y-90797736D01*
X74083895Y-90845355D01*
X75512467Y-90559641D02*
X75321990Y-90559641D01*
X75226752Y-90607260D01*
X75179133Y-90654879D01*
X75083895Y-90797736D01*
X75036276Y-90988212D01*
X75036276Y-91369165D01*
X75083895Y-91464403D01*
X75131514Y-91512022D01*
X75226752Y-91559641D01*
X75417229Y-91559641D01*
X75512467Y-91512022D01*
X75560086Y-91464403D01*
X75607705Y-91369165D01*
X75607705Y-91131070D01*
X75560086Y-91035831D01*
X75512467Y-90988212D01*
X75417229Y-90940593D01*
X75226752Y-90940593D01*
X75131514Y-90988212D01*
X75083895Y-91035831D01*
X75036276Y-91131070D01*
X72242443Y-77494403D02*
X72194824Y-77542022D01*
X72051967Y-77589641D01*
X71956729Y-77589641D01*
X71813871Y-77542022D01*
X71718633Y-77446784D01*
X71671014Y-77351546D01*
X71623395Y-77161070D01*
X71623395Y-77018212D01*
X71671014Y-76827736D01*
X71718633Y-76732498D01*
X71813871Y-76637260D01*
X71956729Y-76589641D01*
X72051967Y-76589641D01*
X72194824Y-76637260D01*
X72242443Y-76684879D01*
X73194824Y-77589641D02*
X72623395Y-77589641D01*
X72909109Y-77589641D02*
X72909109Y-76589641D01*
X72813871Y-76732498D01*
X72718633Y-76827736D01*
X72623395Y-76875355D01*
X73528157Y-76589641D02*
X74147205Y-76589641D01*
X73813871Y-76970593D01*
X73956729Y-76970593D01*
X74051967Y-77018212D01*
X74099586Y-77065831D01*
X74147205Y-77161070D01*
X74147205Y-77399165D01*
X74099586Y-77494403D01*
X74051967Y-77542022D01*
X73956729Y-77589641D01*
X73671014Y-77589641D01*
X73575776Y-77542022D01*
X73528157Y-77494403D01*
X109675634Y-65873903D02*
X109628015Y-65921522D01*
X109485158Y-65969141D01*
X109389920Y-65969141D01*
X109247062Y-65921522D01*
X109151824Y-65826284D01*
X109104205Y-65731046D01*
X109056586Y-65540570D01*
X109056586Y-65397712D01*
X109104205Y-65207236D01*
X109151824Y-65111998D01*
X109247062Y-65016760D01*
X109389920Y-64969141D01*
X109485158Y-64969141D01*
X109628015Y-65016760D01*
X109675634Y-65064379D01*
X110151824Y-65969141D02*
X110342300Y-65969141D01*
X110437539Y-65921522D01*
X110485158Y-65873903D01*
X110580396Y-65731046D01*
X110628015Y-65540570D01*
X110628015Y-65159617D01*
X110580396Y-65064379D01*
X110532777Y-65016760D01*
X110437539Y-64969141D01*
X110247062Y-64969141D01*
X110151824Y-65016760D01*
X110104205Y-65064379D01*
X110056586Y-65159617D01*
X110056586Y-65397712D01*
X110104205Y-65492950D01*
X110151824Y-65540570D01*
X110247062Y-65588189D01*
X110437539Y-65588189D01*
X110532777Y-65540570D01*
X110580396Y-65492950D01*
X110628015Y-65397712D01*
X112215634Y-83145903D02*
X112168015Y-83193522D01*
X112025158Y-83241141D01*
X111929920Y-83241141D01*
X111787062Y-83193522D01*
X111691824Y-83098284D01*
X111644205Y-83003046D01*
X111596586Y-82812570D01*
X111596586Y-82669712D01*
X111644205Y-82479236D01*
X111691824Y-82383998D01*
X111787062Y-82288760D01*
X111929920Y-82241141D01*
X112025158Y-82241141D01*
X112168015Y-82288760D01*
X112215634Y-82336379D01*
X112548967Y-82241141D02*
X113215634Y-82241141D01*
X112787062Y-83241141D01*
X74023094Y-70001403D02*
X73975475Y-70049022D01*
X73832618Y-70096641D01*
X73737380Y-70096641D01*
X73594522Y-70049022D01*
X73499284Y-69953784D01*
X73451665Y-69858546D01*
X73404046Y-69668070D01*
X73404046Y-69525212D01*
X73451665Y-69334736D01*
X73499284Y-69239498D01*
X73594522Y-69144260D01*
X73737380Y-69096641D01*
X73832618Y-69096641D01*
X73975475Y-69144260D01*
X74023094Y-69191879D01*
X74356427Y-69096641D02*
X74975475Y-69096641D01*
X74642141Y-69477593D01*
X74784999Y-69477593D01*
X74880237Y-69525212D01*
X74927856Y-69572831D01*
X74975475Y-69668070D01*
X74975475Y-69906165D01*
X74927856Y-70001403D01*
X74880237Y-70049022D01*
X74784999Y-70096641D01*
X74499284Y-70096641D01*
X74404046Y-70049022D01*
X74356427Y-70001403D01*
X73925134Y-54443903D02*
X73877515Y-54491522D01*
X73734658Y-54539141D01*
X73639420Y-54539141D01*
X73496562Y-54491522D01*
X73401324Y-54396284D01*
X73353705Y-54301046D01*
X73306086Y-54110570D01*
X73306086Y-53967712D01*
X73353705Y-53777236D01*
X73401324Y-53681998D01*
X73496562Y-53586760D01*
X73639420Y-53539141D01*
X73734658Y-53539141D01*
X73877515Y-53586760D01*
X73925134Y-53634379D01*
X74306086Y-53634379D02*
X74353705Y-53586760D01*
X74448943Y-53539141D01*
X74687039Y-53539141D01*
X74782277Y-53586760D01*
X74829896Y-53634379D01*
X74877515Y-53729617D01*
X74877515Y-53824855D01*
X74829896Y-53967712D01*
X74258467Y-54539141D01*
X74877515Y-54539141D01*
X72845634Y-98893903D02*
X72798015Y-98941522D01*
X72655158Y-98989141D01*
X72559920Y-98989141D01*
X72417062Y-98941522D01*
X72321824Y-98846284D01*
X72274205Y-98751046D01*
X72226586Y-98560570D01*
X72226586Y-98417712D01*
X72274205Y-98227236D01*
X72321824Y-98131998D01*
X72417062Y-98036760D01*
X72559920Y-97989141D01*
X72655158Y-97989141D01*
X72798015Y-98036760D01*
X72845634Y-98084379D01*
X73798015Y-98989141D02*
X73226586Y-98989141D01*
X73512300Y-98989141D02*
X73512300Y-97989141D01*
X73417062Y-98131998D01*
X73321824Y-98227236D01*
X73226586Y-98274855D01*
X82267467Y-113419641D02*
X82267467Y-114133927D01*
X82219847Y-114276784D01*
X82124609Y-114372022D01*
X81981752Y-114419641D01*
X81886514Y-114419641D01*
X83267467Y-114419641D02*
X82696038Y-114419641D01*
X82981752Y-114419641D02*
X82981752Y-113419641D01*
X82886514Y-113562498D01*
X82791276Y-113657736D01*
X82696038Y-113705355D01*
X107159467Y-114372141D02*
X107159467Y-115086427D01*
X107111847Y-115229284D01*
X107016609Y-115324522D01*
X106873752Y-115372141D01*
X106778514Y-115372141D01*
X108064229Y-114705474D02*
X108064229Y-115372141D01*
X107826133Y-114324522D02*
X107588038Y-115038808D01*
X108207086Y-115038808D01*
X122399467Y-74476361D02*
X122399467Y-75190647D01*
X122351847Y-75333504D01*
X122256609Y-75428742D01*
X122113752Y-75476361D01*
X122018514Y-75476361D01*
X122780419Y-74476361D02*
X123399467Y-74476361D01*
X123066133Y-74857313D01*
X123208991Y-74857313D01*
X123304229Y-74904932D01*
X123351848Y-74952551D01*
X123399467Y-75047790D01*
X123399467Y-75285885D01*
X123351848Y-75381123D01*
X123304229Y-75428742D01*
X123208991Y-75476361D01*
X122923276Y-75476361D01*
X122828038Y-75428742D01*
X122780419Y-75381123D01*
X106984895Y-112403641D02*
X106984895Y-113213165D01*
X107032514Y-113308403D01*
X107080133Y-113356022D01*
X107175371Y-113403641D01*
X107365848Y-113403641D01*
X107461086Y-113356022D01*
X107508705Y-113308403D01*
X107556324Y-113213165D01*
X107556324Y-112403641D01*
X108556324Y-113403641D02*
X107984895Y-113403641D01*
X108270609Y-113403641D02*
X108270609Y-112403641D01*
X108175371Y-112546498D01*
X108080133Y-112641736D01*
X107984895Y-112689355D01*
X71963443Y-65258717D02*
X72011062Y-65306336D01*
X72058681Y-65449193D01*
X72058681Y-65544431D01*
X72011062Y-65687289D01*
X71915824Y-65782527D01*
X71820586Y-65830146D01*
X71630110Y-65877765D01*
X71487252Y-65877765D01*
X71296776Y-65830146D01*
X71201538Y-65782527D01*
X71106300Y-65687289D01*
X71058681Y-65544431D01*
X71058681Y-65449193D01*
X71106300Y-65306336D01*
X71153919Y-65258717D01*
X72058681Y-64306336D02*
X72058681Y-64877765D01*
X72058681Y-64592051D02*
X71058681Y-64592051D01*
X71201538Y-64687289D01*
X71296776Y-64782527D01*
X71344395Y-64877765D01*
X71392014Y-63449193D02*
X72058681Y-63449193D01*
X71011062Y-63687289D02*
X71725348Y-63925384D01*
X71725348Y-63306336D01*
X110150443Y-90023717D02*
X110198062Y-90071336D01*
X110245681Y-90214193D01*
X110245681Y-90309431D01*
X110198062Y-90452289D01*
X110102824Y-90547527D01*
X110007586Y-90595146D01*
X109817110Y-90642765D01*
X109674252Y-90642765D01*
X109483776Y-90595146D01*
X109388538Y-90547527D01*
X109293300Y-90452289D01*
X109245681Y-90309431D01*
X109245681Y-90214193D01*
X109293300Y-90071336D01*
X109340919Y-90023717D01*
X110245681Y-89071336D02*
X110245681Y-89642765D01*
X110245681Y-89357051D02*
X109245681Y-89357051D01*
X109388538Y-89452289D01*
X109483776Y-89547527D01*
X109531395Y-89642765D01*
X109245681Y-88166574D02*
X109245681Y-88642765D01*
X109721871Y-88690384D01*
X109674252Y-88642765D01*
X109626633Y-88547527D01*
X109626633Y-88309431D01*
X109674252Y-88214193D01*
X109721871Y-88166574D01*
X109817110Y-88118955D01*
X110055205Y-88118955D01*
X110150443Y-88166574D01*
X110198062Y-88214193D01*
X110245681Y-88309431D01*
X110245681Y-88547527D01*
X110198062Y-88642765D01*
X110150443Y-88690384D01*
%LPC*%
D15*
X88955880Y-70459600D03*
X88955880Y-67919600D03*
X88955880Y-65379600D03*
X88955880Y-62839600D03*
X81335880Y-62839600D03*
X81335880Y-65379600D03*
X81335880Y-67919600D03*
X81335880Y-70459600D03*
D16*
X74980800Y-86217760D03*
D17*
X74980800Y-83677760D03*
D18*
X90347800Y-111918260D03*
X90347800Y-102918260D03*
X80065880Y-54132480D03*
X89065880Y-54132480D03*
D19*
X79385800Y-74787760D03*
D20*
X76885800Y-74787760D03*
D19*
X103515800Y-84947760D03*
D20*
X101015800Y-84947760D03*
D19*
X113358300Y-76756260D03*
D20*
X110858300Y-76756260D03*
D19*
X108254800Y-72120760D03*
D20*
X110754800Y-72120760D03*
D19*
X92760800Y-93837760D03*
D20*
X95260800Y-93837760D03*
D16*
X89339420Y-119364760D03*
D17*
X86799420Y-119364760D03*
D16*
X106608880Y-53294280D03*
D17*
X106608880Y-55834280D03*
D21*
X93395800Y-88757760D03*
X93395800Y-90535760D03*
X93395800Y-86979760D03*
D22*
X73964800Y-59420760D03*
X72186800Y-59420760D03*
X75742800Y-59420760D03*
D18*
X88950800Y-58150760D03*
X79950800Y-58150760D03*
X93344220Y-66923920D03*
X102344220Y-66923920D03*
X82600800Y-75422760D03*
X82600800Y-84422760D03*
X79966040Y-46459140D03*
X88966040Y-46459140D03*
X102403420Y-55201820D03*
X93403420Y-55201820D03*
X93360240Y-62684660D03*
X102360240Y-62684660D03*
D23*
X73710800Y-47482760D03*
X73710800Y-119872760D03*
X105460800Y-47482760D03*
D18*
X107556300Y-76057760D03*
X107556300Y-85057760D03*
X102403420Y-58867040D03*
X93403420Y-58867040D03*
X90220800Y-84422760D03*
X90220800Y-75422760D03*
X86855300Y-102791260D03*
X86855300Y-111791260D03*
X86410800Y-84312760D03*
X86410800Y-75312760D03*
D21*
X78219300Y-98282760D03*
X78219300Y-100060760D03*
X78219300Y-96504760D03*
D18*
X88950800Y-50276760D03*
X79950800Y-50276760D03*
D24*
X79171800Y-119745760D03*
D25*
X81711800Y-119745760D03*
D26*
X82283300Y-88075760D03*
D27*
X82283300Y-93075760D03*
D15*
X94401640Y-72773540D03*
X94401640Y-75313540D03*
X94401640Y-77853540D03*
X94401640Y-80393540D03*
X102021640Y-80393540D03*
X102021640Y-77853540D03*
X102021640Y-75313540D03*
X102021640Y-72773540D03*
D28*
X121970800Y-77962760D03*
X121970800Y-83042760D03*
X121970800Y-88122760D03*
D18*
X94066360Y-107947460D03*
D29*
X94066360Y-97787460D03*
D18*
X94030800Y-122412760D03*
D29*
X94030800Y-112252760D03*
D26*
X76869300Y-91107260D03*
D27*
X71869300Y-91107260D03*
D26*
X72898000Y-74662020D03*
D27*
X72898000Y-79662020D03*
D26*
X109778800Y-67976760D03*
D27*
X109778800Y-62976760D03*
D26*
X112382300Y-80248760D03*
D27*
X112382300Y-85248760D03*
D26*
X71739760Y-69626480D03*
D27*
X76739760Y-69626480D03*
D26*
X76678800Y-53832760D03*
D27*
X71678800Y-53832760D03*
D26*
X72948800Y-96013260D03*
D27*
X72948800Y-101013260D03*
D30*
X82283300Y-108252260D03*
X76283820Y-108252260D03*
X79283560Y-112951260D03*
X101523800Y-115095020D03*
X101523800Y-121094500D03*
X106222800Y-118094760D03*
D31*
X114571780Y-72864980D03*
X114571780Y-70324980D03*
X114571780Y-65244980D03*
X114571780Y-62704980D03*
X119651780Y-67784980D03*
D32*
X116154200Y-111472980D03*
X116154200Y-121671080D03*
D33*
X111889540Y-116570760D03*
X111889540Y-114071400D03*
D32*
X116128800Y-46720760D03*
X116128800Y-56918860D03*
D33*
X111864140Y-51818540D03*
X111864140Y-49319180D03*
D32*
X116154200Y-94454980D03*
X116154200Y-104653080D03*
D33*
X111889540Y-99552760D03*
X111889540Y-97053400D03*
D34*
X103174800Y-110157260D03*
X100634800Y-110157260D03*
X105714800Y-110157260D03*
D35*
X103174800Y-94663260D03*
D19*
X75806300Y-64665860D03*
D20*
X73306300Y-64665860D03*
D19*
X113993300Y-89430860D03*
D20*
X111493300Y-89430860D03*
M02*
