%TF.GenerationSoftware,KiCad,Pcbnew,4.0.4+e1-6308~48~ubuntu16.04.1-stable*%
%TF.CreationDate,2016-12-09T19:15:12-08:00*%
%TF.ProjectId,e202var-vlf-radio-receiver,653230327661722D766C662D72616469,v1.2*%
%TF.FileFunction,Soldermask,Top*%
%FSLAX46Y46*%
G04 Gerber Fmt 4.6, Leading zero omitted, Abs format (unit mm)*
G04 Created by KiCad (PCBNEW 4.0.4+e1-6308~48~ubuntu16.04.1-stable) date Fri Dec  9 19:15:12 2016*
%MOMM*%
%LPD*%
G01*
G04 APERTURE LIST*
%ADD10C,0.350000*%
G04 APERTURE END LIST*
D10*
G36*
X107734207Y-114272223D02*
X107734213Y-114272224D01*
X107736263Y-114272238D01*
X108090465Y-114311968D01*
X108430204Y-114419740D01*
X108742541Y-114591448D01*
X109015577Y-114820553D01*
X109238913Y-115098327D01*
X109404043Y-115414191D01*
X109504676Y-115756113D01*
X109504679Y-115756149D01*
X109504682Y-115756158D01*
X109536981Y-116111067D01*
X109499730Y-116465493D01*
X109499727Y-116465503D01*
X109499723Y-116465541D01*
X109394326Y-116806024D01*
X109224802Y-117119552D01*
X108997609Y-117394181D01*
X108721401Y-117619451D01*
X108406698Y-117786781D01*
X108065486Y-117889799D01*
X107710764Y-117924580D01*
X104176002Y-117924580D01*
X104152593Y-117924417D01*
X104152587Y-117924416D01*
X104150537Y-117924402D01*
X103796335Y-117884672D01*
X103456596Y-117776900D01*
X103144259Y-117605192D01*
X102871223Y-117376087D01*
X102647887Y-117098313D01*
X102482757Y-116782449D01*
X102382124Y-116440527D01*
X102382121Y-116440491D01*
X102382118Y-116440482D01*
X102349819Y-116085573D01*
X102387070Y-115731147D01*
X102387073Y-115731137D01*
X102387077Y-115731099D01*
X102492474Y-115390616D01*
X102661998Y-115077088D01*
X102889191Y-114802459D01*
X103165399Y-114577189D01*
X103480102Y-114409859D01*
X103821314Y-114306841D01*
X104176036Y-114272060D01*
X107710798Y-114272060D01*
X107734207Y-114272223D01*
X107734207Y-114272223D01*
G37*
G36*
X83932988Y-115765024D02*
X84139626Y-115807441D01*
X84334104Y-115889192D01*
X84508991Y-116007155D01*
X84657636Y-116156841D01*
X84774375Y-116332548D01*
X84854763Y-116527584D01*
X84895669Y-116734174D01*
X84895669Y-116734184D01*
X84895736Y-116734523D01*
X84892372Y-116975472D01*
X84892295Y-116975810D01*
X84892295Y-116975819D01*
X84845637Y-117181187D01*
X84759836Y-117373899D01*
X84638234Y-117546280D01*
X84485466Y-117691759D01*
X84307353Y-117804793D01*
X84110672Y-117881080D01*
X83902927Y-117917712D01*
X83692017Y-117913293D01*
X83485984Y-117867995D01*
X83292672Y-117783538D01*
X83119451Y-117663146D01*
X82972909Y-117511399D01*
X82858633Y-117334076D01*
X82780973Y-117137931D01*
X82742893Y-116930449D01*
X82745838Y-116719515D01*
X82789699Y-116513168D01*
X82872802Y-116319274D01*
X82991985Y-116145212D01*
X83142704Y-115997616D01*
X83319225Y-115882105D01*
X83514819Y-115803079D01*
X83722033Y-115763552D01*
X83932988Y-115765024D01*
X83932988Y-115765024D01*
G37*
G36*
X91531076Y-113446920D02*
X91929916Y-113528791D01*
X92305273Y-113686576D01*
X92642826Y-113914259D01*
X92929728Y-114203170D01*
X93155047Y-114542304D01*
X93310205Y-114918746D01*
X93389222Y-115317809D01*
X93389222Y-115317819D01*
X93389289Y-115318158D01*
X93382795Y-115783216D01*
X93382719Y-115783550D01*
X93382719Y-115783563D01*
X93292590Y-116180265D01*
X93126984Y-116552224D01*
X92892279Y-116884937D01*
X92597422Y-117165726D01*
X92253643Y-117383896D01*
X91874031Y-117531137D01*
X91473057Y-117601840D01*
X91065980Y-117593312D01*
X90668312Y-117505879D01*
X90295201Y-117342871D01*
X89960863Y-117110500D01*
X89678022Y-116817610D01*
X89457458Y-116475360D01*
X89307568Y-116096784D01*
X89234069Y-115696315D01*
X89239753Y-115289189D01*
X89324408Y-114890920D01*
X89484806Y-114516683D01*
X89714841Y-114180725D01*
X90005748Y-113895848D01*
X90346450Y-113672899D01*
X90723967Y-113520372D01*
X91123916Y-113444078D01*
X91531076Y-113446920D01*
X91531076Y-113446920D01*
G37*
G36*
X75403570Y-115002817D02*
X75403575Y-115002819D01*
X75403617Y-115002823D01*
X75607245Y-115065856D01*
X75794750Y-115167240D01*
X75958993Y-115303114D01*
X76093717Y-115468301D01*
X76193789Y-115656510D01*
X76255399Y-115860572D01*
X76276200Y-116072715D01*
X76276200Y-116083285D01*
X76276094Y-116098534D01*
X76252333Y-116310366D01*
X76187880Y-116513548D01*
X76085189Y-116700342D01*
X75948172Y-116863632D01*
X75782049Y-116997199D01*
X75593145Y-117095955D01*
X75388658Y-117156139D01*
X75388617Y-117156143D01*
X75388613Y-117156144D01*
X75176377Y-117175459D01*
X74964430Y-117153183D01*
X74964425Y-117153181D01*
X74964383Y-117153177D01*
X74760755Y-117090144D01*
X74573250Y-116988760D01*
X74409007Y-116852886D01*
X74274283Y-116687699D01*
X74174211Y-116499490D01*
X74112601Y-116295428D01*
X74091800Y-116083285D01*
X74091800Y-116072715D01*
X74091906Y-116057466D01*
X74115667Y-115845634D01*
X74180120Y-115642452D01*
X74282811Y-115455658D01*
X74419828Y-115292368D01*
X74585951Y-115158801D01*
X74774855Y-115060045D01*
X74979342Y-114999861D01*
X74979383Y-114999857D01*
X74979387Y-114999856D01*
X75191623Y-114980541D01*
X75403570Y-115002817D01*
X75403570Y-115002817D01*
G37*
G36*
X78816200Y-117170200D02*
X76631800Y-117170200D01*
X76631800Y-114985800D01*
X78816200Y-114985800D01*
X78816200Y-117170200D01*
X78816200Y-117170200D01*
G37*
G36*
X63770593Y-111725514D02*
X64265486Y-111827101D01*
X64731235Y-112022884D01*
X65150080Y-112305399D01*
X65506074Y-112663886D01*
X65785656Y-113084693D01*
X65978181Y-113551791D01*
X66076243Y-114047041D01*
X66076243Y-114047052D01*
X66076310Y-114047391D01*
X66068253Y-114624446D01*
X66068176Y-114624784D01*
X66068176Y-114624793D01*
X65956323Y-115117113D01*
X65750834Y-115578650D01*
X65459608Y-115991488D01*
X65093742Y-116339898D01*
X64667172Y-116610608D01*
X64196142Y-116793308D01*
X63698602Y-116881038D01*
X63193492Y-116870457D01*
X62700056Y-116761968D01*
X62237091Y-116559704D01*
X61822235Y-116271371D01*
X61471280Y-115907947D01*
X61197598Y-115483274D01*
X61011612Y-115013529D01*
X60920412Y-114516616D01*
X60927465Y-114011445D01*
X61032507Y-113517264D01*
X61231533Y-113052901D01*
X61516966Y-112636036D01*
X61877930Y-112282554D01*
X62300681Y-112005914D01*
X62769113Y-111816654D01*
X63265380Y-111721987D01*
X63770593Y-111725514D01*
X63770593Y-111725514D01*
G37*
G36*
X96230076Y-110447180D02*
X96628916Y-110529051D01*
X97004273Y-110686836D01*
X97341826Y-110914519D01*
X97628728Y-111203430D01*
X97854047Y-111542564D01*
X98009205Y-111919006D01*
X98088222Y-112318069D01*
X98088222Y-112318079D01*
X98088289Y-112318418D01*
X98081795Y-112783476D01*
X98081719Y-112783810D01*
X98081719Y-112783823D01*
X97991590Y-113180525D01*
X97825984Y-113552484D01*
X97591279Y-113885197D01*
X97296422Y-114165986D01*
X96952643Y-114384156D01*
X96573031Y-114531397D01*
X96172057Y-114602100D01*
X95764980Y-114593572D01*
X95367312Y-114506139D01*
X94994201Y-114343131D01*
X94659863Y-114110760D01*
X94377022Y-113817870D01*
X94156458Y-113475620D01*
X94006568Y-113097044D01*
X93933069Y-112696575D01*
X93938753Y-112289449D01*
X94023408Y-111891180D01*
X94183806Y-111516943D01*
X94413841Y-111180985D01*
X94704748Y-110896108D01*
X95045450Y-110673159D01*
X95422967Y-110520632D01*
X95822916Y-110444338D01*
X96230076Y-110447180D01*
X96230076Y-110447180D01*
G37*
G36*
X69608336Y-108034180D02*
X70007176Y-108116051D01*
X70382533Y-108273836D01*
X70720086Y-108501519D01*
X71006988Y-108790430D01*
X71232307Y-109129564D01*
X71387465Y-109506006D01*
X71466482Y-109905069D01*
X71466482Y-109905079D01*
X71466549Y-109905418D01*
X71460055Y-110370476D01*
X71459979Y-110370810D01*
X71459979Y-110370823D01*
X71369850Y-110767525D01*
X71204244Y-111139484D01*
X70969539Y-111472197D01*
X70674682Y-111752986D01*
X70330903Y-111971156D01*
X69951291Y-112118397D01*
X69550317Y-112189100D01*
X69143240Y-112180572D01*
X68745572Y-112093139D01*
X68372461Y-111930131D01*
X68038123Y-111697760D01*
X67755282Y-111404870D01*
X67534718Y-111062620D01*
X67384828Y-110684044D01*
X67311329Y-110283575D01*
X67317013Y-109876449D01*
X67401668Y-109478180D01*
X67562066Y-109103943D01*
X67792101Y-108767985D01*
X68083008Y-108483108D01*
X68423710Y-108260159D01*
X68801227Y-108107632D01*
X69201176Y-108031338D01*
X69608336Y-108034180D01*
X69608336Y-108034180D01*
G37*
G36*
X102139594Y-110121734D02*
X102146970Y-110121785D01*
X102316928Y-110140849D01*
X102479946Y-110192562D01*
X102629816Y-110274953D01*
X102760827Y-110384885D01*
X102867992Y-110518170D01*
X102947226Y-110669732D01*
X102995513Y-110833798D01*
X102995516Y-110833829D01*
X102995520Y-110833843D01*
X103011015Y-111004114D01*
X102993143Y-111174157D01*
X102993142Y-111174162D01*
X102993137Y-111174205D01*
X102942564Y-111337580D01*
X102861221Y-111488021D01*
X102752206Y-111619797D01*
X102619672Y-111727889D01*
X102468667Y-111808180D01*
X102304943Y-111857611D01*
X102134735Y-111874300D01*
X101222708Y-111874300D01*
X101217886Y-111874266D01*
X101210510Y-111874215D01*
X101040552Y-111855151D01*
X100877534Y-111803438D01*
X100727664Y-111721047D01*
X100596653Y-111611115D01*
X100489488Y-111477830D01*
X100410254Y-111326268D01*
X100361967Y-111162202D01*
X100361964Y-111162171D01*
X100361960Y-111162157D01*
X100346465Y-110991886D01*
X100364337Y-110821843D01*
X100364338Y-110821838D01*
X100364343Y-110821795D01*
X100414916Y-110658420D01*
X100496259Y-110507979D01*
X100605274Y-110376203D01*
X100737808Y-110268111D01*
X100888813Y-110187820D01*
X101052537Y-110138389D01*
X101222745Y-110121700D01*
X102134772Y-110121700D01*
X102139594Y-110121734D01*
X102139594Y-110121734D01*
G37*
G36*
X91531076Y-107447440D02*
X91929916Y-107529311D01*
X92305273Y-107687096D01*
X92642826Y-107914779D01*
X92929728Y-108203690D01*
X93155047Y-108542824D01*
X93310205Y-108919266D01*
X93389222Y-109318329D01*
X93389222Y-109318339D01*
X93389289Y-109318678D01*
X93382795Y-109783736D01*
X93382719Y-109784070D01*
X93382719Y-109784083D01*
X93292590Y-110180785D01*
X93126984Y-110552744D01*
X92892279Y-110885457D01*
X92597422Y-111166246D01*
X92253643Y-111384416D01*
X91874031Y-111531657D01*
X91473057Y-111602360D01*
X91065980Y-111593832D01*
X90668312Y-111506399D01*
X90295201Y-111343391D01*
X89960863Y-111111020D01*
X89678022Y-110818130D01*
X89457458Y-110475880D01*
X89307568Y-110097304D01*
X89234069Y-109696835D01*
X89239753Y-109289709D01*
X89324408Y-108891440D01*
X89484806Y-108517203D01*
X89714841Y-108181245D01*
X90005748Y-107896368D01*
X90346450Y-107673419D01*
X90723967Y-107520892D01*
X91123916Y-107444598D01*
X91531076Y-107447440D01*
X91531076Y-107447440D01*
G37*
G36*
X80782200Y-109788200D02*
X78729800Y-109788200D01*
X78729800Y-107635800D01*
X80782200Y-107635800D01*
X80782200Y-109788200D01*
X80782200Y-109788200D01*
G37*
G36*
X77323790Y-107686481D02*
X77520921Y-107726947D01*
X77706451Y-107804937D01*
X77873292Y-107917473D01*
X78015098Y-108060272D01*
X78126466Y-108227895D01*
X78203156Y-108413958D01*
X78242176Y-108611027D01*
X78242176Y-108611032D01*
X78242244Y-108611376D01*
X78239034Y-108841239D01*
X78238957Y-108841577D01*
X78238957Y-108841586D01*
X78194449Y-109037490D01*
X78112596Y-109221335D01*
X77996588Y-109385786D01*
X77850850Y-109524571D01*
X77680931Y-109632405D01*
X77493299Y-109705182D01*
X77295112Y-109740128D01*
X77093905Y-109735913D01*
X76897351Y-109692699D01*
X76712933Y-109612128D01*
X76547682Y-109497275D01*
X76407882Y-109352509D01*
X76298864Y-109183345D01*
X76224777Y-108996224D01*
X76188449Y-108798288D01*
X76191258Y-108597058D01*
X76233102Y-108400205D01*
X76312380Y-108215232D01*
X76426080Y-108049178D01*
X76569865Y-107908373D01*
X76738265Y-107798176D01*
X76924860Y-107722786D01*
X77122540Y-107685077D01*
X77323790Y-107686481D01*
X77323790Y-107686481D01*
G37*
G36*
X102139594Y-107622374D02*
X102146970Y-107622425D01*
X102316928Y-107641489D01*
X102479946Y-107693202D01*
X102629816Y-107775593D01*
X102760827Y-107885525D01*
X102867992Y-108018810D01*
X102947226Y-108170372D01*
X102995513Y-108334438D01*
X102995516Y-108334469D01*
X102995520Y-108334483D01*
X103011015Y-108504754D01*
X102993143Y-108674797D01*
X102993142Y-108674802D01*
X102993137Y-108674845D01*
X102942564Y-108838220D01*
X102861221Y-108988661D01*
X102752206Y-109120437D01*
X102619672Y-109228529D01*
X102468667Y-109308820D01*
X102304943Y-109358251D01*
X102134735Y-109374940D01*
X101222708Y-109374940D01*
X101217886Y-109374906D01*
X101210510Y-109374855D01*
X101040552Y-109355791D01*
X100877534Y-109304078D01*
X100727664Y-109221687D01*
X100596653Y-109111755D01*
X100489488Y-108978470D01*
X100410254Y-108826908D01*
X100361967Y-108662842D01*
X100361964Y-108662811D01*
X100361960Y-108662797D01*
X100346465Y-108492526D01*
X100364337Y-108322483D01*
X100364338Y-108322478D01*
X100364343Y-108322435D01*
X100414916Y-108159060D01*
X100496259Y-108008619D01*
X100605274Y-107876843D01*
X100737808Y-107768751D01*
X100888813Y-107688460D01*
X101052537Y-107639029D01*
X101222745Y-107622340D01*
X102134772Y-107622340D01*
X102139594Y-107622374D01*
X102139594Y-107622374D01*
G37*
G36*
X84895690Y-107755690D02*
X82744310Y-107755690D01*
X82744310Y-105604310D01*
X84895690Y-105604310D01*
X84895690Y-107755690D01*
X84895690Y-107755690D01*
G37*
G36*
X107734207Y-104074123D02*
X107734213Y-104074124D01*
X107736263Y-104074138D01*
X108090465Y-104113868D01*
X108430204Y-104221640D01*
X108742541Y-104393348D01*
X109015577Y-104622453D01*
X109238913Y-104900227D01*
X109404043Y-105216091D01*
X109504676Y-105558013D01*
X109504679Y-105558049D01*
X109504682Y-105558058D01*
X109536981Y-105912967D01*
X109499730Y-106267393D01*
X109499727Y-106267403D01*
X109499723Y-106267441D01*
X109394326Y-106607924D01*
X109224802Y-106921452D01*
X108997609Y-107196081D01*
X108721401Y-107421351D01*
X108406698Y-107588681D01*
X108065486Y-107691699D01*
X107710764Y-107726480D01*
X104176002Y-107726480D01*
X104152593Y-107726317D01*
X104152587Y-107726316D01*
X104150537Y-107726302D01*
X103796335Y-107686572D01*
X103456596Y-107578800D01*
X103144259Y-107407092D01*
X102871223Y-107177987D01*
X102647887Y-106900213D01*
X102482757Y-106584349D01*
X102382124Y-106242427D01*
X102382121Y-106242391D01*
X102382118Y-106242382D01*
X102349819Y-105887473D01*
X102387070Y-105533047D01*
X102387073Y-105533037D01*
X102387077Y-105532999D01*
X102492474Y-105192516D01*
X102661998Y-104878988D01*
X102889191Y-104604359D01*
X103165399Y-104379089D01*
X103480102Y-104211759D01*
X103821314Y-104108741D01*
X104176036Y-104073960D01*
X107710798Y-104073960D01*
X107734207Y-104074123D01*
X107734207Y-104074123D01*
G37*
G36*
X72608076Y-103335180D02*
X73006916Y-103417051D01*
X73382273Y-103574836D01*
X73719826Y-103802519D01*
X74006728Y-104091430D01*
X74232047Y-104430564D01*
X74387205Y-104807006D01*
X74466222Y-105206069D01*
X74466222Y-105206079D01*
X74466289Y-105206418D01*
X74459795Y-105671476D01*
X74459719Y-105671810D01*
X74459719Y-105671823D01*
X74369590Y-106068525D01*
X74203984Y-106440484D01*
X73969279Y-106773197D01*
X73674422Y-107053986D01*
X73330643Y-107272156D01*
X72951031Y-107419397D01*
X72550057Y-107490100D01*
X72142980Y-107481572D01*
X71745312Y-107394139D01*
X71372201Y-107231131D01*
X71037863Y-106998760D01*
X70755022Y-106705870D01*
X70534458Y-106363620D01*
X70384568Y-105985044D01*
X70311069Y-105584575D01*
X70316753Y-105177449D01*
X70401408Y-104779180D01*
X70561806Y-104404943D01*
X70791841Y-104068985D01*
X71082748Y-103784108D01*
X71423450Y-103561159D01*
X71800967Y-103408632D01*
X72200916Y-103332338D01*
X72608076Y-103335180D01*
X72608076Y-103335180D01*
G37*
G36*
X66608596Y-103335180D02*
X67007436Y-103417051D01*
X67382793Y-103574836D01*
X67720346Y-103802519D01*
X68007248Y-104091430D01*
X68232567Y-104430564D01*
X68387725Y-104807006D01*
X68466742Y-105206069D01*
X68466742Y-105206079D01*
X68466809Y-105206418D01*
X68460315Y-105671476D01*
X68460239Y-105671810D01*
X68460239Y-105671823D01*
X68370110Y-106068525D01*
X68204504Y-106440484D01*
X67969799Y-106773197D01*
X67674942Y-107053986D01*
X67331163Y-107272156D01*
X66951551Y-107419397D01*
X66550577Y-107490100D01*
X66143500Y-107481572D01*
X65745832Y-107394139D01*
X65372721Y-107231131D01*
X65038383Y-106998760D01*
X64755542Y-106705870D01*
X64534978Y-106363620D01*
X64385088Y-105985044D01*
X64311589Y-105584575D01*
X64317273Y-105177449D01*
X64401928Y-104779180D01*
X64562326Y-104404943D01*
X64792361Y-104068985D01*
X65083268Y-103784108D01*
X65423970Y-103561159D01*
X65801487Y-103408632D01*
X66201436Y-103332338D01*
X66608596Y-103335180D01*
X66608596Y-103335180D01*
G37*
G36*
X92134117Y-102323807D02*
X92134127Y-102323810D01*
X92134164Y-102323814D01*
X92306774Y-102377245D01*
X92465718Y-102463186D01*
X92604942Y-102578363D01*
X92719143Y-102718388D01*
X92803972Y-102877928D01*
X92856198Y-103050906D01*
X92873830Y-103230734D01*
X92873830Y-105049302D01*
X92873755Y-105060137D01*
X92873754Y-105060144D01*
X92873740Y-105062193D01*
X92853598Y-105241757D01*
X92798963Y-105413989D01*
X92711915Y-105572329D01*
X92595769Y-105710746D01*
X92454950Y-105823968D01*
X92294822Y-105907681D01*
X92121483Y-105958697D01*
X92121447Y-105958700D01*
X92121438Y-105958703D01*
X91941539Y-105975075D01*
X91761883Y-105956193D01*
X91761873Y-105956190D01*
X91761836Y-105956186D01*
X91589226Y-105902755D01*
X91430282Y-105816814D01*
X91291058Y-105701637D01*
X91176857Y-105561612D01*
X91092028Y-105402072D01*
X91039802Y-105229094D01*
X91022170Y-105049266D01*
X91022170Y-103230698D01*
X91022245Y-103219863D01*
X91022246Y-103219856D01*
X91022260Y-103217807D01*
X91042402Y-103038243D01*
X91097037Y-102866011D01*
X91184085Y-102707671D01*
X91300231Y-102569254D01*
X91441050Y-102456032D01*
X91601178Y-102372319D01*
X91774517Y-102321303D01*
X91774553Y-102321300D01*
X91774562Y-102321297D01*
X91954461Y-102304925D01*
X92134117Y-102323807D01*
X92134117Y-102323807D01*
G37*
G36*
X94674117Y-102323807D02*
X94674127Y-102323810D01*
X94674164Y-102323814D01*
X94846774Y-102377245D01*
X95005718Y-102463186D01*
X95144942Y-102578363D01*
X95259143Y-102718388D01*
X95343972Y-102877928D01*
X95396198Y-103050906D01*
X95413830Y-103230734D01*
X95413830Y-105049302D01*
X95413755Y-105060137D01*
X95413754Y-105060144D01*
X95413740Y-105062193D01*
X95393598Y-105241757D01*
X95338963Y-105413989D01*
X95251915Y-105572329D01*
X95135769Y-105710746D01*
X94994950Y-105823968D01*
X94834822Y-105907681D01*
X94661483Y-105958697D01*
X94661447Y-105958700D01*
X94661438Y-105958703D01*
X94481539Y-105975075D01*
X94301883Y-105956193D01*
X94301873Y-105956190D01*
X94301836Y-105956186D01*
X94129226Y-105902755D01*
X93970282Y-105816814D01*
X93831058Y-105701637D01*
X93716857Y-105561612D01*
X93632028Y-105402072D01*
X93579802Y-105229094D01*
X93562170Y-105049266D01*
X93562170Y-103230698D01*
X93562245Y-103219863D01*
X93562246Y-103219856D01*
X93562260Y-103217807D01*
X93582402Y-103038243D01*
X93637037Y-102866011D01*
X93724085Y-102707671D01*
X93840231Y-102569254D01*
X93981050Y-102456032D01*
X94141178Y-102372319D01*
X94314517Y-102321303D01*
X94314553Y-102321300D01*
X94314562Y-102321297D01*
X94494461Y-102304925D01*
X94674117Y-102323807D01*
X94674117Y-102323807D01*
G37*
G36*
X89594117Y-102323807D02*
X89594127Y-102323810D01*
X89594164Y-102323814D01*
X89766774Y-102377245D01*
X89925718Y-102463186D01*
X90064942Y-102578363D01*
X90179143Y-102718388D01*
X90263972Y-102877928D01*
X90316198Y-103050906D01*
X90333830Y-103230734D01*
X90333830Y-105049302D01*
X90333755Y-105060137D01*
X90333754Y-105060144D01*
X90333740Y-105062193D01*
X90313598Y-105241757D01*
X90258963Y-105413989D01*
X90171915Y-105572329D01*
X90055769Y-105710746D01*
X89914950Y-105823968D01*
X89754822Y-105907681D01*
X89581483Y-105958697D01*
X89581447Y-105958700D01*
X89581438Y-105958703D01*
X89401539Y-105975075D01*
X89221883Y-105956193D01*
X89221873Y-105956190D01*
X89221836Y-105956186D01*
X89049226Y-105902755D01*
X88890282Y-105816814D01*
X88751058Y-105701637D01*
X88636857Y-105561612D01*
X88552028Y-105402072D01*
X88499802Y-105229094D01*
X88482170Y-105049266D01*
X88482170Y-103230698D01*
X88482245Y-103219863D01*
X88482246Y-103219856D01*
X88482260Y-103217807D01*
X88502402Y-103038243D01*
X88557037Y-102866011D01*
X88644085Y-102707671D01*
X88760231Y-102569254D01*
X88901050Y-102456032D01*
X89061178Y-102372319D01*
X89234517Y-102321303D01*
X89234553Y-102321300D01*
X89234562Y-102321297D01*
X89414461Y-102304925D01*
X89594117Y-102323807D01*
X89594117Y-102323807D01*
G37*
G36*
X82377531Y-100570315D02*
X82526636Y-100600923D01*
X82666969Y-100659913D01*
X82793162Y-100745032D01*
X82900424Y-100853044D01*
X82984662Y-100979834D01*
X83042667Y-101120565D01*
X83070090Y-101259060D01*
X83072234Y-101269890D01*
X83069806Y-101443754D01*
X83069728Y-101444097D01*
X83069728Y-101444101D01*
X83036082Y-101592196D01*
X82974170Y-101731252D01*
X82886424Y-101855640D01*
X82776189Y-101960615D01*
X82647664Y-102042180D01*
X82505746Y-102097226D01*
X82355840Y-102123659D01*
X82203649Y-102120470D01*
X82054980Y-102087784D01*
X81915488Y-102026841D01*
X81790496Y-101939969D01*
X81684754Y-101830470D01*
X81602294Y-101702517D01*
X81546256Y-101560982D01*
X81518778Y-101411266D01*
X81520903Y-101259060D01*
X81552553Y-101110163D01*
X81612517Y-100970253D01*
X81698518Y-100844653D01*
X81807275Y-100738150D01*
X81934650Y-100654799D01*
X82075787Y-100597775D01*
X82225308Y-100569253D01*
X82377531Y-100570315D01*
X82377531Y-100570315D01*
G37*
G36*
X78072200Y-102122200D02*
X76519800Y-102122200D01*
X76519800Y-100569800D01*
X78072200Y-100569800D01*
X78072200Y-102122200D01*
X78072200Y-102122200D01*
G37*
G36*
X107734207Y-97254223D02*
X107734213Y-97254224D01*
X107736263Y-97254238D01*
X108090465Y-97293968D01*
X108430204Y-97401740D01*
X108742541Y-97573448D01*
X109015577Y-97802553D01*
X109238913Y-98080327D01*
X109404043Y-98396191D01*
X109504676Y-98738113D01*
X109504679Y-98738149D01*
X109504682Y-98738158D01*
X109536981Y-99093067D01*
X109499730Y-99447493D01*
X109499727Y-99447503D01*
X109499723Y-99447541D01*
X109394326Y-99788024D01*
X109224802Y-100101552D01*
X108997609Y-100376181D01*
X108721401Y-100601451D01*
X108406698Y-100768781D01*
X108065486Y-100871799D01*
X107710764Y-100906580D01*
X104176002Y-100906580D01*
X104152593Y-100906417D01*
X104152587Y-100906416D01*
X104150537Y-100906402D01*
X103796335Y-100866672D01*
X103456596Y-100758900D01*
X103144259Y-100587192D01*
X102871223Y-100358087D01*
X102647887Y-100080313D01*
X102482757Y-99764449D01*
X102382124Y-99422527D01*
X102382121Y-99422491D01*
X102382118Y-99422482D01*
X102349819Y-99067573D01*
X102387070Y-98713147D01*
X102387073Y-98713137D01*
X102387077Y-98713099D01*
X102492474Y-98372616D01*
X102661998Y-98059088D01*
X102889191Y-97784459D01*
X103165399Y-97559189D01*
X103480102Y-97391859D01*
X103821314Y-97288841D01*
X104176036Y-97254060D01*
X107710798Y-97254060D01*
X107734207Y-97254223D01*
X107734207Y-97254223D01*
G37*
G36*
X86218988Y-96969024D02*
X86425626Y-97011441D01*
X86620104Y-97093192D01*
X86794991Y-97211155D01*
X86943636Y-97360841D01*
X87060375Y-97536548D01*
X87140763Y-97731584D01*
X87181669Y-97938174D01*
X87181669Y-97938184D01*
X87181736Y-97938523D01*
X87178372Y-98179472D01*
X87178295Y-98179810D01*
X87178295Y-98179819D01*
X87131637Y-98385187D01*
X87045836Y-98577899D01*
X86924234Y-98750280D01*
X86771466Y-98895759D01*
X86593353Y-99008793D01*
X86396672Y-99085080D01*
X86188927Y-99121712D01*
X85978017Y-99117293D01*
X85771984Y-99071995D01*
X85578672Y-98987538D01*
X85405451Y-98867146D01*
X85258909Y-98715399D01*
X85144633Y-98538076D01*
X85066973Y-98341931D01*
X85028893Y-98134449D01*
X85031838Y-97923515D01*
X85075699Y-97717168D01*
X85158802Y-97523274D01*
X85277985Y-97349212D01*
X85428704Y-97201616D01*
X85605225Y-97086105D01*
X85800819Y-97007079D01*
X86008033Y-96967552D01*
X86218988Y-96969024D01*
X86218988Y-96969024D01*
G37*
G36*
X91658200Y-98984200D02*
X90205800Y-98984200D01*
X90205800Y-97531800D01*
X91658200Y-97531800D01*
X91658200Y-98984200D01*
X91658200Y-98984200D01*
G37*
G36*
X70118200Y-98740200D02*
X68565800Y-98740200D01*
X68565800Y-97187800D01*
X70118200Y-97187800D01*
X70118200Y-98740200D01*
X70118200Y-98740200D01*
G37*
G36*
X96828610Y-98611690D02*
X94677230Y-98611690D01*
X94677230Y-96460310D01*
X96828610Y-96460310D01*
X96828610Y-98611690D01*
X96828610Y-98611690D01*
G37*
G36*
X63068200Y-98374200D02*
X60883800Y-98374200D01*
X60883800Y-96189800D01*
X63068200Y-96189800D01*
X63068200Y-98374200D01*
X63068200Y-98374200D01*
G37*
G36*
X74026988Y-94937024D02*
X74233626Y-94979441D01*
X74428104Y-95061192D01*
X74602991Y-95179155D01*
X74751636Y-95328841D01*
X74868375Y-95504548D01*
X74948763Y-95699584D01*
X74989669Y-95906174D01*
X74989669Y-95906184D01*
X74989736Y-95906523D01*
X74986372Y-96147472D01*
X74986295Y-96147810D01*
X74986295Y-96147819D01*
X74939637Y-96353187D01*
X74853836Y-96545899D01*
X74732234Y-96718280D01*
X74579466Y-96863759D01*
X74401353Y-96976793D01*
X74204672Y-97053080D01*
X73996927Y-97089712D01*
X73786017Y-97085293D01*
X73579984Y-97039995D01*
X73386672Y-96955538D01*
X73213451Y-96835146D01*
X73066909Y-96683399D01*
X72952633Y-96506076D01*
X72874973Y-96309931D01*
X72836893Y-96102449D01*
X72839838Y-95891515D01*
X72883699Y-95685168D01*
X72966802Y-95491274D01*
X73085985Y-95317212D01*
X73236704Y-95169616D01*
X73413225Y-95054105D01*
X73608819Y-94975079D01*
X73816033Y-94935552D01*
X74026988Y-94937024D01*
X74026988Y-94937024D01*
G37*
G36*
X77582988Y-94937024D02*
X77789626Y-94979441D01*
X77984104Y-95061192D01*
X78158991Y-95179155D01*
X78307636Y-95328841D01*
X78424375Y-95504548D01*
X78504763Y-95699584D01*
X78545669Y-95906174D01*
X78545669Y-95906184D01*
X78545736Y-95906523D01*
X78542372Y-96147472D01*
X78542295Y-96147810D01*
X78542295Y-96147819D01*
X78495637Y-96353187D01*
X78409836Y-96545899D01*
X78288234Y-96718280D01*
X78135466Y-96863759D01*
X77957353Y-96976793D01*
X77760672Y-97053080D01*
X77552927Y-97089712D01*
X77342017Y-97085293D01*
X77135984Y-97039995D01*
X76942672Y-96955538D01*
X76769451Y-96835146D01*
X76622909Y-96683399D01*
X76508633Y-96506076D01*
X76430973Y-96309931D01*
X76392893Y-96102449D01*
X76395838Y-95891515D01*
X76439699Y-95685168D01*
X76522802Y-95491274D01*
X76641985Y-95317212D01*
X76792704Y-95169616D01*
X76969225Y-95054105D01*
X77164819Y-94975079D01*
X77372033Y-94935552D01*
X77582988Y-94937024D01*
X77582988Y-94937024D01*
G37*
G36*
X91008280Y-95032281D02*
X91147779Y-95060917D01*
X91279073Y-95116108D01*
X91397140Y-95195745D01*
X91497491Y-95296798D01*
X91576300Y-95415417D01*
X91630571Y-95547087D01*
X91658164Y-95686443D01*
X91658164Y-95686453D01*
X91658231Y-95686792D01*
X91655960Y-95849457D01*
X91655883Y-95849795D01*
X91655883Y-95849804D01*
X91624409Y-95988337D01*
X91566486Y-96118436D01*
X91484391Y-96234811D01*
X91381258Y-96333024D01*
X91261013Y-96409334D01*
X91128233Y-96460836D01*
X90987985Y-96485566D01*
X90845599Y-96482583D01*
X90706504Y-96452001D01*
X90575999Y-96394985D01*
X90459058Y-96313709D01*
X90360127Y-96211263D01*
X90282979Y-96091552D01*
X90230550Y-95959133D01*
X90204843Y-95819063D01*
X90206831Y-95676661D01*
X90236442Y-95537355D01*
X90292544Y-95406457D01*
X90373005Y-95288947D01*
X90474756Y-95189305D01*
X90593926Y-95111323D01*
X90725972Y-95057972D01*
X90865862Y-95031287D01*
X91008280Y-95032281D01*
X91008280Y-95032281D01*
G37*
G36*
X82349522Y-95232238D02*
X82354331Y-95232271D01*
X82456306Y-95243710D01*
X82554117Y-95274737D01*
X82644038Y-95324172D01*
X82722645Y-95390131D01*
X82786944Y-95470102D01*
X82834485Y-95561039D01*
X82863457Y-95659479D01*
X82863460Y-95659515D01*
X82863463Y-95659524D01*
X82872759Y-95761667D01*
X82862037Y-95863676D01*
X82862035Y-95863681D01*
X82862031Y-95863723D01*
X82831687Y-95961748D01*
X82782881Y-96052012D01*
X82717473Y-96131078D01*
X82637952Y-96195933D01*
X82547349Y-96244108D01*
X82449115Y-96273767D01*
X82346990Y-96283780D01*
X81736973Y-96283780D01*
X81734478Y-96283762D01*
X81729669Y-96283729D01*
X81627694Y-96272290D01*
X81529883Y-96241263D01*
X81439962Y-96191828D01*
X81361355Y-96125869D01*
X81297056Y-96045898D01*
X81249515Y-95954961D01*
X81220543Y-95856521D01*
X81220540Y-95856485D01*
X81220537Y-95856476D01*
X81211241Y-95754333D01*
X81221963Y-95652324D01*
X81221965Y-95652319D01*
X81221969Y-95652277D01*
X81252313Y-95554252D01*
X81301119Y-95463988D01*
X81366527Y-95384922D01*
X81446048Y-95320067D01*
X81536651Y-95271892D01*
X81634885Y-95242233D01*
X81737010Y-95232220D01*
X82347027Y-95232220D01*
X82349522Y-95232238D01*
X82349522Y-95232238D01*
G37*
G36*
X61987395Y-93649842D02*
X61996534Y-93649906D01*
X62208366Y-93673667D01*
X62411548Y-93738120D01*
X62598342Y-93840811D01*
X62761632Y-93977828D01*
X62895199Y-94143951D01*
X62993955Y-94332855D01*
X63054139Y-94537342D01*
X63054143Y-94537383D01*
X63054144Y-94537387D01*
X63073459Y-94749623D01*
X63051183Y-94961570D01*
X63051181Y-94961575D01*
X63051177Y-94961617D01*
X62988144Y-95165245D01*
X62886760Y-95352750D01*
X62750886Y-95516993D01*
X62585699Y-95651717D01*
X62397490Y-95751789D01*
X62193428Y-95813399D01*
X61981285Y-95834200D01*
X61970679Y-95834200D01*
X61964605Y-95834158D01*
X61955466Y-95834094D01*
X61743634Y-95810333D01*
X61540452Y-95745880D01*
X61353658Y-95643189D01*
X61190368Y-95506172D01*
X61056801Y-95340049D01*
X60958045Y-95151145D01*
X60897861Y-94946658D01*
X60897857Y-94946617D01*
X60897856Y-94946613D01*
X60878541Y-94734377D01*
X60900817Y-94522430D01*
X60900819Y-94522425D01*
X60900823Y-94522383D01*
X60963856Y-94318755D01*
X61065240Y-94131250D01*
X61201114Y-93967007D01*
X61366301Y-93832283D01*
X61554510Y-93732211D01*
X61758572Y-93670601D01*
X61970715Y-93649800D01*
X61981321Y-93649800D01*
X61987395Y-93649842D01*
X61987395Y-93649842D01*
G37*
G36*
X82349522Y-93962238D02*
X82354331Y-93962271D01*
X82456306Y-93973710D01*
X82554117Y-94004737D01*
X82644038Y-94054172D01*
X82722645Y-94120131D01*
X82786944Y-94200102D01*
X82834485Y-94291039D01*
X82863457Y-94389479D01*
X82863460Y-94389515D01*
X82863463Y-94389524D01*
X82872759Y-94491667D01*
X82862037Y-94593676D01*
X82862035Y-94593681D01*
X82862031Y-94593723D01*
X82831687Y-94691748D01*
X82782881Y-94782012D01*
X82717473Y-94861078D01*
X82637952Y-94925933D01*
X82547349Y-94974108D01*
X82449115Y-95003767D01*
X82346990Y-95013780D01*
X81736973Y-95013780D01*
X81734478Y-95013762D01*
X81729669Y-95013729D01*
X81627694Y-95002290D01*
X81529883Y-94971263D01*
X81439962Y-94921828D01*
X81361355Y-94855869D01*
X81297056Y-94775898D01*
X81249515Y-94684961D01*
X81220543Y-94586521D01*
X81220540Y-94586485D01*
X81220537Y-94586476D01*
X81211241Y-94484333D01*
X81221963Y-94382324D01*
X81221965Y-94382319D01*
X81221969Y-94382277D01*
X81252313Y-94284252D01*
X81301119Y-94193988D01*
X81366527Y-94114922D01*
X81446048Y-94050067D01*
X81536651Y-94001892D01*
X81634885Y-93972233D01*
X81737010Y-93962220D01*
X82347027Y-93962220D01*
X82349522Y-93962238D01*
X82349522Y-93962238D01*
G37*
G36*
X102139594Y-93103734D02*
X102146970Y-93103785D01*
X102316928Y-93122849D01*
X102479946Y-93174562D01*
X102629816Y-93256953D01*
X102760827Y-93366885D01*
X102867992Y-93500170D01*
X102947226Y-93651732D01*
X102995513Y-93815798D01*
X102995516Y-93815829D01*
X102995520Y-93815843D01*
X103011015Y-93986114D01*
X102993143Y-94156157D01*
X102993142Y-94156162D01*
X102993137Y-94156205D01*
X102942564Y-94319580D01*
X102861221Y-94470021D01*
X102752206Y-94601797D01*
X102619672Y-94709889D01*
X102468667Y-94790180D01*
X102304943Y-94839611D01*
X102134735Y-94856300D01*
X101222708Y-94856300D01*
X101217886Y-94856266D01*
X101210510Y-94856215D01*
X101040552Y-94837151D01*
X100877534Y-94785438D01*
X100727664Y-94703047D01*
X100596653Y-94593115D01*
X100489488Y-94459830D01*
X100410254Y-94308268D01*
X100361967Y-94144202D01*
X100361964Y-94144171D01*
X100361960Y-94144157D01*
X100346465Y-93973886D01*
X100364337Y-93803843D01*
X100364338Y-93803838D01*
X100364343Y-93803795D01*
X100414916Y-93640420D01*
X100496259Y-93489979D01*
X100605274Y-93358203D01*
X100737808Y-93250111D01*
X100888813Y-93169820D01*
X101052537Y-93120389D01*
X101222745Y-93103700D01*
X102134772Y-93103700D01*
X102139594Y-93103734D01*
X102139594Y-93103734D01*
G37*
G36*
X82349522Y-92692238D02*
X82354331Y-92692271D01*
X82456306Y-92703710D01*
X82554117Y-92734737D01*
X82644038Y-92784172D01*
X82722645Y-92850131D01*
X82786944Y-92930102D01*
X82834485Y-93021039D01*
X82863457Y-93119479D01*
X82863460Y-93119515D01*
X82863463Y-93119524D01*
X82872759Y-93221667D01*
X82862037Y-93323676D01*
X82862035Y-93323681D01*
X82862031Y-93323723D01*
X82831687Y-93421748D01*
X82782881Y-93512012D01*
X82717473Y-93591078D01*
X82637952Y-93655933D01*
X82547349Y-93704108D01*
X82449115Y-93733767D01*
X82346990Y-93743780D01*
X81736973Y-93743780D01*
X81734478Y-93743762D01*
X81729669Y-93743729D01*
X81627694Y-93732290D01*
X81529883Y-93701263D01*
X81439962Y-93651828D01*
X81361355Y-93585869D01*
X81297056Y-93505898D01*
X81249515Y-93414961D01*
X81220543Y-93316521D01*
X81220540Y-93316485D01*
X81220537Y-93316476D01*
X81211241Y-93214333D01*
X81221963Y-93112324D01*
X81221965Y-93112319D01*
X81221969Y-93112277D01*
X81252313Y-93014252D01*
X81301119Y-92923988D01*
X81366527Y-92844922D01*
X81446048Y-92780067D01*
X81536651Y-92731892D01*
X81634885Y-92702233D01*
X81737010Y-92692220D01*
X82347027Y-92692220D01*
X82349522Y-92692238D01*
X82349522Y-92692238D01*
G37*
G36*
X69423531Y-92188315D02*
X69572636Y-92218923D01*
X69712969Y-92277913D01*
X69839162Y-92363032D01*
X69946424Y-92471044D01*
X70030662Y-92597834D01*
X70088667Y-92738565D01*
X70116090Y-92877060D01*
X70118234Y-92887890D01*
X70115806Y-93061754D01*
X70115728Y-93062097D01*
X70115728Y-93062101D01*
X70082082Y-93210196D01*
X70020170Y-93349252D01*
X69932424Y-93473640D01*
X69822189Y-93578615D01*
X69693664Y-93660180D01*
X69551746Y-93715226D01*
X69401840Y-93741659D01*
X69249649Y-93738470D01*
X69100980Y-93705784D01*
X68961488Y-93644841D01*
X68836496Y-93557969D01*
X68730754Y-93448470D01*
X68648294Y-93320517D01*
X68592256Y-93178982D01*
X68564778Y-93029266D01*
X68566903Y-92877060D01*
X68598553Y-92728163D01*
X68658517Y-92588253D01*
X68744518Y-92462653D01*
X68853275Y-92356150D01*
X68980650Y-92272799D01*
X69121787Y-92215775D01*
X69271308Y-92187253D01*
X69423531Y-92188315D01*
X69423531Y-92188315D01*
G37*
G36*
X102139594Y-90604374D02*
X102146970Y-90604425D01*
X102316928Y-90623489D01*
X102479946Y-90675202D01*
X102629816Y-90757593D01*
X102760827Y-90867525D01*
X102867992Y-91000810D01*
X102947226Y-91152372D01*
X102995513Y-91316438D01*
X102995516Y-91316469D01*
X102995520Y-91316483D01*
X103011015Y-91486754D01*
X102993143Y-91656797D01*
X102993142Y-91656802D01*
X102993137Y-91656845D01*
X102942564Y-91820220D01*
X102861221Y-91970661D01*
X102752206Y-92102437D01*
X102619672Y-92210529D01*
X102468667Y-92290820D01*
X102304943Y-92340251D01*
X102134735Y-92356940D01*
X101222708Y-92356940D01*
X101217886Y-92356906D01*
X101210510Y-92356855D01*
X101040552Y-92337791D01*
X100877534Y-92286078D01*
X100727664Y-92203687D01*
X100596653Y-92093755D01*
X100489488Y-91960470D01*
X100410254Y-91808908D01*
X100361967Y-91644842D01*
X100361964Y-91644811D01*
X100361960Y-91644797D01*
X100346465Y-91474526D01*
X100364337Y-91304483D01*
X100364338Y-91304478D01*
X100364343Y-91304435D01*
X100414916Y-91141060D01*
X100496259Y-90990619D01*
X100605274Y-90858843D01*
X100737808Y-90750751D01*
X100888813Y-90670460D01*
X101052537Y-90621029D01*
X101222745Y-90604340D01*
X102134772Y-90604340D01*
X102139594Y-90604374D01*
X102139594Y-90604374D01*
G37*
G36*
X91008280Y-90166281D02*
X91147779Y-90194917D01*
X91279073Y-90250108D01*
X91397140Y-90329745D01*
X91497491Y-90430798D01*
X91576300Y-90549417D01*
X91630571Y-90681087D01*
X91658164Y-90820443D01*
X91658164Y-90820453D01*
X91658231Y-90820792D01*
X91655960Y-90983457D01*
X91655883Y-90983795D01*
X91655883Y-90983804D01*
X91624409Y-91122337D01*
X91566486Y-91252436D01*
X91484391Y-91368811D01*
X91381258Y-91467024D01*
X91261013Y-91543334D01*
X91128233Y-91594836D01*
X90987985Y-91619566D01*
X90845599Y-91616583D01*
X90706504Y-91586001D01*
X90575999Y-91528985D01*
X90459058Y-91447709D01*
X90360127Y-91345263D01*
X90282979Y-91225552D01*
X90230550Y-91093133D01*
X90204843Y-90953063D01*
X90206831Y-90810661D01*
X90236442Y-90671355D01*
X90292544Y-90540457D01*
X90373005Y-90422947D01*
X90474756Y-90323305D01*
X90593926Y-90245323D01*
X90725972Y-90191972D01*
X90865862Y-90165287D01*
X91008280Y-90166281D01*
X91008280Y-90166281D01*
G37*
G36*
X86218988Y-89349024D02*
X86425626Y-89391441D01*
X86620104Y-89473192D01*
X86794991Y-89591155D01*
X86943636Y-89740841D01*
X87060375Y-89916548D01*
X87140763Y-90111584D01*
X87181669Y-90318174D01*
X87181669Y-90318184D01*
X87181736Y-90318523D01*
X87178372Y-90559472D01*
X87178295Y-90559810D01*
X87178295Y-90559819D01*
X87131637Y-90765187D01*
X87045836Y-90957899D01*
X86924234Y-91130280D01*
X86771466Y-91275759D01*
X86593353Y-91388793D01*
X86396672Y-91465080D01*
X86188927Y-91501712D01*
X85978017Y-91497293D01*
X85771984Y-91451995D01*
X85578672Y-91367538D01*
X85405451Y-91247146D01*
X85258909Y-91095399D01*
X85144633Y-90918076D01*
X85066973Y-90721931D01*
X85028893Y-90514449D01*
X85031838Y-90303515D01*
X85075699Y-90097168D01*
X85158802Y-89903274D01*
X85277985Y-89729212D01*
X85428704Y-89581616D01*
X85605225Y-89466105D01*
X85800819Y-89387079D01*
X86008033Y-89347552D01*
X86218988Y-89349024D01*
X86218988Y-89349024D01*
G37*
G36*
X107734207Y-87056123D02*
X107734213Y-87056124D01*
X107736263Y-87056138D01*
X108090465Y-87095868D01*
X108430204Y-87203640D01*
X108742541Y-87375348D01*
X109015577Y-87604453D01*
X109238913Y-87882227D01*
X109404043Y-88198091D01*
X109504676Y-88540013D01*
X109504679Y-88540049D01*
X109504682Y-88540058D01*
X109536981Y-88894967D01*
X109499730Y-89249393D01*
X109499727Y-89249403D01*
X109499723Y-89249441D01*
X109394326Y-89589924D01*
X109224802Y-89903452D01*
X108997609Y-90178081D01*
X108721401Y-90403351D01*
X108406698Y-90570681D01*
X108065486Y-90673699D01*
X107710764Y-90708480D01*
X104176002Y-90708480D01*
X104152593Y-90708317D01*
X104152587Y-90708316D01*
X104150537Y-90708302D01*
X103796335Y-90668572D01*
X103456596Y-90560800D01*
X103144259Y-90389092D01*
X102871223Y-90159987D01*
X102647887Y-89882213D01*
X102482757Y-89566349D01*
X102382124Y-89224427D01*
X102382121Y-89224391D01*
X102382118Y-89224382D01*
X102349819Y-88869473D01*
X102387070Y-88515047D01*
X102387073Y-88515037D01*
X102387077Y-88514999D01*
X102492474Y-88174516D01*
X102661998Y-87860988D01*
X102889191Y-87586359D01*
X103165399Y-87361089D01*
X103480102Y-87193759D01*
X103821314Y-87090741D01*
X104176036Y-87055960D01*
X107710798Y-87055960D01*
X107734207Y-87056123D01*
X107734207Y-87056123D01*
G37*
G36*
X82349522Y-88882238D02*
X82354331Y-88882271D01*
X82456306Y-88893710D01*
X82554117Y-88924737D01*
X82644038Y-88974172D01*
X82722645Y-89040131D01*
X82786944Y-89120102D01*
X82834485Y-89211039D01*
X82863457Y-89309479D01*
X82863460Y-89309515D01*
X82863463Y-89309524D01*
X82872759Y-89411667D01*
X82862037Y-89513676D01*
X82862035Y-89513681D01*
X82862031Y-89513723D01*
X82831687Y-89611748D01*
X82782881Y-89702012D01*
X82717473Y-89781078D01*
X82637952Y-89845933D01*
X82547349Y-89894108D01*
X82449115Y-89923767D01*
X82346990Y-89933780D01*
X81736973Y-89933780D01*
X81734478Y-89933762D01*
X81729669Y-89933729D01*
X81627694Y-89922290D01*
X81529883Y-89891263D01*
X81439962Y-89841828D01*
X81361355Y-89775869D01*
X81297056Y-89695898D01*
X81249515Y-89604961D01*
X81220543Y-89506521D01*
X81220540Y-89506485D01*
X81220537Y-89506476D01*
X81211241Y-89404333D01*
X81221963Y-89302324D01*
X81221965Y-89302319D01*
X81221969Y-89302277D01*
X81252313Y-89204252D01*
X81301119Y-89113988D01*
X81366527Y-89034922D01*
X81446048Y-88970067D01*
X81536651Y-88921892D01*
X81634885Y-88892233D01*
X81737010Y-88882220D01*
X82347027Y-88882220D01*
X82349522Y-88882238D01*
X82349522Y-88882238D01*
G37*
G36*
X74026988Y-87317024D02*
X74233626Y-87359441D01*
X74428104Y-87441192D01*
X74602991Y-87559155D01*
X74751636Y-87708841D01*
X74868375Y-87884548D01*
X74948763Y-88079584D01*
X74989669Y-88286174D01*
X74989669Y-88286184D01*
X74989736Y-88286523D01*
X74986372Y-88527472D01*
X74986295Y-88527810D01*
X74986295Y-88527819D01*
X74939637Y-88733187D01*
X74853836Y-88925899D01*
X74732234Y-89098280D01*
X74579466Y-89243759D01*
X74401353Y-89356793D01*
X74204672Y-89433080D01*
X73996927Y-89469712D01*
X73786017Y-89465293D01*
X73579984Y-89419995D01*
X73386672Y-89335538D01*
X73213451Y-89215146D01*
X73066909Y-89063399D01*
X72952633Y-88886076D01*
X72874973Y-88689931D01*
X72836893Y-88482449D01*
X72839838Y-88271515D01*
X72883699Y-88065168D01*
X72966802Y-87871274D01*
X73085985Y-87697212D01*
X73236704Y-87549616D01*
X73413225Y-87434105D01*
X73608819Y-87355079D01*
X73816033Y-87315552D01*
X74026988Y-87317024D01*
X74026988Y-87317024D01*
G37*
G36*
X77582988Y-87317024D02*
X77789626Y-87359441D01*
X77984104Y-87441192D01*
X78158991Y-87559155D01*
X78307636Y-87708841D01*
X78424375Y-87884548D01*
X78504763Y-88079584D01*
X78545669Y-88286174D01*
X78545669Y-88286184D01*
X78545736Y-88286523D01*
X78542372Y-88527472D01*
X78542295Y-88527810D01*
X78542295Y-88527819D01*
X78495637Y-88733187D01*
X78409836Y-88925899D01*
X78288234Y-89098280D01*
X78135466Y-89243759D01*
X77957353Y-89356793D01*
X77760672Y-89433080D01*
X77552927Y-89469712D01*
X77342017Y-89465293D01*
X77135984Y-89419995D01*
X76942672Y-89335538D01*
X76769451Y-89215146D01*
X76622909Y-89063399D01*
X76508633Y-88886076D01*
X76430973Y-88689931D01*
X76392893Y-88482449D01*
X76395838Y-88271515D01*
X76439699Y-88065168D01*
X76522802Y-87871274D01*
X76641985Y-87697212D01*
X76792704Y-87549616D01*
X76969225Y-87434105D01*
X77164819Y-87355079D01*
X77372033Y-87315552D01*
X77582988Y-87317024D01*
X77582988Y-87317024D01*
G37*
G36*
X91658200Y-89118200D02*
X90205800Y-89118200D01*
X90205800Y-87665800D01*
X91658200Y-87665800D01*
X91658200Y-89118200D01*
X91658200Y-89118200D01*
G37*
G36*
X65613531Y-87362315D02*
X65762636Y-87392923D01*
X65902969Y-87451913D01*
X66029162Y-87537032D01*
X66136424Y-87645044D01*
X66220662Y-87771834D01*
X66278667Y-87912565D01*
X66306090Y-88051060D01*
X66308234Y-88061890D01*
X66305806Y-88235754D01*
X66305728Y-88236097D01*
X66305728Y-88236101D01*
X66272082Y-88384196D01*
X66210170Y-88523252D01*
X66122424Y-88647640D01*
X66012189Y-88752615D01*
X65883664Y-88834180D01*
X65741746Y-88889226D01*
X65591840Y-88915659D01*
X65439649Y-88912470D01*
X65290980Y-88879784D01*
X65151488Y-88818841D01*
X65026496Y-88731969D01*
X64920754Y-88622470D01*
X64838294Y-88494517D01*
X64782256Y-88352982D01*
X64754778Y-88203266D01*
X64756903Y-88051060D01*
X64788553Y-87902163D01*
X64848517Y-87762253D01*
X64934518Y-87636653D01*
X65043275Y-87530150D01*
X65170650Y-87446799D01*
X65311787Y-87389775D01*
X65461308Y-87361253D01*
X65613531Y-87362315D01*
X65613531Y-87362315D01*
G37*
G36*
X61308200Y-88914200D02*
X59755800Y-88914200D01*
X59755800Y-87361800D01*
X61308200Y-87361800D01*
X61308200Y-88914200D01*
X61308200Y-88914200D01*
G37*
G36*
X82349522Y-87612238D02*
X82354331Y-87612271D01*
X82456306Y-87623710D01*
X82554117Y-87654737D01*
X82644038Y-87704172D01*
X82722645Y-87770131D01*
X82786944Y-87850102D01*
X82834485Y-87941039D01*
X82863457Y-88039479D01*
X82863460Y-88039515D01*
X82863463Y-88039524D01*
X82872759Y-88141667D01*
X82862037Y-88243676D01*
X82862035Y-88243681D01*
X82862031Y-88243723D01*
X82831687Y-88341748D01*
X82782881Y-88432012D01*
X82717473Y-88511078D01*
X82637952Y-88575933D01*
X82547349Y-88624108D01*
X82449115Y-88653767D01*
X82346990Y-88663780D01*
X81736973Y-88663780D01*
X81734478Y-88663762D01*
X81729669Y-88663729D01*
X81627694Y-88652290D01*
X81529883Y-88621263D01*
X81439962Y-88571828D01*
X81361355Y-88505869D01*
X81297056Y-88425898D01*
X81249515Y-88334961D01*
X81220543Y-88236521D01*
X81220540Y-88236485D01*
X81220537Y-88236476D01*
X81211241Y-88134333D01*
X81221963Y-88032324D01*
X81221965Y-88032319D01*
X81221969Y-88032277D01*
X81252313Y-87934252D01*
X81301119Y-87843988D01*
X81366527Y-87764922D01*
X81446048Y-87700067D01*
X81536651Y-87651892D01*
X81634885Y-87622233D01*
X81737010Y-87612220D01*
X82347027Y-87612220D01*
X82349522Y-87612238D01*
X82349522Y-87612238D01*
G37*
G36*
X95865908Y-86301024D02*
X96072546Y-86343441D01*
X96267024Y-86425192D01*
X96441911Y-86543155D01*
X96590556Y-86692841D01*
X96707295Y-86868548D01*
X96787683Y-87063584D01*
X96828589Y-87270174D01*
X96828589Y-87270184D01*
X96828656Y-87270523D01*
X96825292Y-87511472D01*
X96825215Y-87511810D01*
X96825215Y-87511819D01*
X96778557Y-87717187D01*
X96692756Y-87909899D01*
X96571154Y-88082280D01*
X96418386Y-88227759D01*
X96240273Y-88340793D01*
X96043592Y-88417080D01*
X95835847Y-88453712D01*
X95624937Y-88449293D01*
X95418904Y-88403995D01*
X95225592Y-88319538D01*
X95052371Y-88199146D01*
X94905829Y-88047399D01*
X94791553Y-87870076D01*
X94713893Y-87673931D01*
X94675813Y-87466449D01*
X94678758Y-87255515D01*
X94722619Y-87049168D01*
X94805722Y-86855274D01*
X94924905Y-86681212D01*
X95075624Y-86533616D01*
X95252145Y-86418105D01*
X95447739Y-86339079D01*
X95654953Y-86299552D01*
X95865908Y-86301024D01*
X95865908Y-86301024D01*
G37*
G36*
X82349522Y-86342238D02*
X82354331Y-86342271D01*
X82456306Y-86353710D01*
X82554117Y-86384737D01*
X82644038Y-86434172D01*
X82722645Y-86500131D01*
X82786944Y-86580102D01*
X82834485Y-86671039D01*
X82863457Y-86769479D01*
X82863460Y-86769515D01*
X82863463Y-86769524D01*
X82872759Y-86871667D01*
X82862037Y-86973676D01*
X82862035Y-86973681D01*
X82862031Y-86973723D01*
X82831687Y-87071748D01*
X82782881Y-87162012D01*
X82717473Y-87241078D01*
X82637952Y-87305933D01*
X82547349Y-87354108D01*
X82449115Y-87383767D01*
X82346990Y-87393780D01*
X81736973Y-87393780D01*
X81734478Y-87393762D01*
X81729669Y-87393729D01*
X81627694Y-87382290D01*
X81529883Y-87351263D01*
X81439962Y-87301828D01*
X81361355Y-87235869D01*
X81297056Y-87155898D01*
X81249515Y-87064961D01*
X81220543Y-86966521D01*
X81220540Y-86966485D01*
X81220537Y-86966476D01*
X81211241Y-86864333D01*
X81221963Y-86762324D01*
X81221965Y-86762319D01*
X81221969Y-86762277D01*
X81252313Y-86664252D01*
X81301119Y-86573988D01*
X81366527Y-86494922D01*
X81446048Y-86430067D01*
X81536651Y-86381892D01*
X81634885Y-86352233D01*
X81737010Y-86342220D01*
X82347027Y-86342220D01*
X82349522Y-86342238D01*
X82349522Y-86342238D01*
G37*
G36*
X74534988Y-82237024D02*
X74741626Y-82279441D01*
X74936104Y-82361192D01*
X75110991Y-82479155D01*
X75259636Y-82628841D01*
X75376375Y-82804548D01*
X75456763Y-82999584D01*
X75497669Y-83206174D01*
X75497669Y-83206184D01*
X75497736Y-83206523D01*
X75494372Y-83447472D01*
X75494295Y-83447810D01*
X75494295Y-83447819D01*
X75447637Y-83653187D01*
X75361836Y-83845899D01*
X75240234Y-84018280D01*
X75087466Y-84163759D01*
X74909353Y-84276793D01*
X74712672Y-84353080D01*
X74504927Y-84389712D01*
X74294017Y-84385293D01*
X74087984Y-84339995D01*
X73894672Y-84255538D01*
X73721451Y-84135146D01*
X73574909Y-83983399D01*
X73460633Y-83806076D01*
X73382973Y-83609931D01*
X73344893Y-83402449D01*
X73347838Y-83191515D01*
X73391699Y-82985168D01*
X73474802Y-82791274D01*
X73593985Y-82617212D01*
X73744704Y-82469616D01*
X73921225Y-82354105D01*
X74116819Y-82275079D01*
X74324033Y-82235552D01*
X74534988Y-82237024D01*
X74534988Y-82237024D01*
G37*
G36*
X69708988Y-81983024D02*
X69915626Y-82025441D01*
X70110104Y-82107192D01*
X70284991Y-82225155D01*
X70433636Y-82374841D01*
X70550375Y-82550548D01*
X70630763Y-82745584D01*
X70671669Y-82952174D01*
X70671669Y-82952184D01*
X70671736Y-82952523D01*
X70668372Y-83193472D01*
X70668295Y-83193810D01*
X70668295Y-83193819D01*
X70621637Y-83399187D01*
X70535836Y-83591899D01*
X70414234Y-83764280D01*
X70261466Y-83909759D01*
X70083353Y-84022793D01*
X69886672Y-84099080D01*
X69678927Y-84135712D01*
X69468017Y-84131293D01*
X69261984Y-84085995D01*
X69068672Y-84001538D01*
X68895451Y-83881146D01*
X68748909Y-83729399D01*
X68634633Y-83552076D01*
X68556973Y-83355931D01*
X68518893Y-83148449D01*
X68521838Y-82937515D01*
X68565699Y-82731168D01*
X68648802Y-82537274D01*
X68767985Y-82363212D01*
X68918704Y-82215616D01*
X69095225Y-82100105D01*
X69290819Y-82021079D01*
X69498033Y-81981552D01*
X69708988Y-81983024D01*
X69708988Y-81983024D01*
G37*
G36*
X111874722Y-81458526D02*
X112084532Y-81501594D01*
X112281994Y-81584599D01*
X112459566Y-81704373D01*
X112610492Y-81856356D01*
X112729022Y-82034760D01*
X112810646Y-82232793D01*
X112852179Y-82442550D01*
X112852179Y-82442560D01*
X112852247Y-82442904D01*
X112848831Y-82687551D01*
X112848753Y-82687894D01*
X112848753Y-82687899D01*
X112801378Y-82896422D01*
X112714260Y-83092093D01*
X112590792Y-83267120D01*
X112435680Y-83414831D01*
X112254830Y-83529602D01*
X112055135Y-83607058D01*
X111844200Y-83644252D01*
X111630053Y-83639766D01*
X111420857Y-83593771D01*
X111224579Y-83508019D01*
X111048702Y-83385782D01*
X110899907Y-83231700D01*
X110783879Y-83051659D01*
X110705027Y-82852504D01*
X110666363Y-82641838D01*
X110669353Y-82427666D01*
X110713887Y-82218152D01*
X110798264Y-82021282D01*
X110919277Y-81844549D01*
X111072310Y-81694688D01*
X111251540Y-81577404D01*
X111450135Y-81497165D01*
X111660530Y-81457031D01*
X111874722Y-81458526D01*
X111874722Y-81458526D01*
G37*
G36*
X63327531Y-82028315D02*
X63476636Y-82058923D01*
X63616969Y-82117913D01*
X63743162Y-82203032D01*
X63850424Y-82311044D01*
X63934662Y-82437834D01*
X63992667Y-82578565D01*
X64020090Y-82717060D01*
X64022234Y-82727890D01*
X64019806Y-82901754D01*
X64019728Y-82902097D01*
X64019728Y-82902101D01*
X63986082Y-83050196D01*
X63924170Y-83189252D01*
X63836424Y-83313640D01*
X63726189Y-83418615D01*
X63597664Y-83500180D01*
X63455746Y-83555226D01*
X63305840Y-83581659D01*
X63153649Y-83578470D01*
X63004980Y-83545784D01*
X62865488Y-83484841D01*
X62740496Y-83397969D01*
X62634754Y-83288470D01*
X62552294Y-83160517D01*
X62496256Y-83018982D01*
X62468778Y-82869266D01*
X62470903Y-82717060D01*
X62502553Y-82568163D01*
X62562517Y-82428253D01*
X62648518Y-82302653D01*
X62757275Y-82196150D01*
X62884650Y-82112799D01*
X63025787Y-82055775D01*
X63175308Y-82027253D01*
X63327531Y-82028315D01*
X63327531Y-82028315D01*
G37*
G36*
X85704781Y-80911834D02*
X85712167Y-80911885D01*
X85882105Y-80930947D01*
X86045105Y-80982654D01*
X86194957Y-81065036D01*
X86325954Y-81174955D01*
X86433106Y-81308225D01*
X86512331Y-81459770D01*
X86560613Y-81623816D01*
X86560616Y-81623853D01*
X86560619Y-81623862D01*
X86576113Y-81794115D01*
X86558243Y-81964137D01*
X86558241Y-81964142D01*
X86558237Y-81964184D01*
X86507669Y-82127541D01*
X86426336Y-82277965D01*
X86317333Y-82409726D01*
X86184815Y-82517806D01*
X86033827Y-82598087D01*
X85870121Y-82647513D01*
X85699933Y-82664200D01*
X84988030Y-82664200D01*
X84983219Y-82664166D01*
X84975833Y-82664115D01*
X84805895Y-82645053D01*
X84642895Y-82593346D01*
X84493043Y-82510964D01*
X84362046Y-82401045D01*
X84254894Y-82267775D01*
X84175669Y-82116230D01*
X84127387Y-81952184D01*
X84127384Y-81952147D01*
X84127381Y-81952138D01*
X84111887Y-81781885D01*
X84129757Y-81611863D01*
X84129759Y-81611858D01*
X84129763Y-81611816D01*
X84180331Y-81448459D01*
X84261664Y-81298035D01*
X84370667Y-81166274D01*
X84503185Y-81058194D01*
X84654173Y-80977913D01*
X84817879Y-80928487D01*
X84988067Y-80911800D01*
X85699970Y-80911800D01*
X85704781Y-80911834D01*
X85704781Y-80911834D01*
G37*
G36*
X93324781Y-80911834D02*
X93332167Y-80911885D01*
X93502105Y-80930947D01*
X93665105Y-80982654D01*
X93814957Y-81065036D01*
X93945954Y-81174955D01*
X94053106Y-81308225D01*
X94132331Y-81459770D01*
X94180613Y-81623816D01*
X94180616Y-81623853D01*
X94180619Y-81623862D01*
X94196113Y-81794115D01*
X94178243Y-81964137D01*
X94178241Y-81964142D01*
X94178237Y-81964184D01*
X94127669Y-82127541D01*
X94046336Y-82277965D01*
X93937333Y-82409726D01*
X93804815Y-82517806D01*
X93653827Y-82598087D01*
X93490121Y-82647513D01*
X93319933Y-82664200D01*
X92608030Y-82664200D01*
X92603219Y-82664166D01*
X92595833Y-82664115D01*
X92425895Y-82645053D01*
X92262895Y-82593346D01*
X92113043Y-82510964D01*
X91982046Y-82401045D01*
X91874894Y-82267775D01*
X91795669Y-82116230D01*
X91747387Y-81952184D01*
X91747384Y-81952147D01*
X91747381Y-81952138D01*
X91731887Y-81781885D01*
X91749757Y-81611863D01*
X91749759Y-81611858D01*
X91749763Y-81611816D01*
X91800331Y-81448459D01*
X91881664Y-81298035D01*
X91990667Y-81166274D01*
X92123185Y-81058194D01*
X92274173Y-80977913D01*
X92437879Y-80928487D01*
X92608067Y-80911800D01*
X93319970Y-80911800D01*
X93324781Y-80911834D01*
X93324781Y-80911834D01*
G37*
G36*
X103205531Y-80758315D02*
X103354636Y-80788923D01*
X103494969Y-80847913D01*
X103621162Y-80933032D01*
X103728424Y-81041044D01*
X103812662Y-81167834D01*
X103870667Y-81308565D01*
X103900064Y-81457031D01*
X103900234Y-81457890D01*
X103897806Y-81631754D01*
X103897728Y-81632097D01*
X103897728Y-81632101D01*
X103864082Y-81780196D01*
X103802170Y-81919252D01*
X103714424Y-82043640D01*
X103604189Y-82148615D01*
X103475664Y-82230180D01*
X103333746Y-82285226D01*
X103183840Y-82311659D01*
X103031649Y-82308470D01*
X102882980Y-82275784D01*
X102743488Y-82214841D01*
X102618496Y-82127969D01*
X102512754Y-82018470D01*
X102430294Y-81890517D01*
X102374256Y-81748982D01*
X102346778Y-81599266D01*
X102348903Y-81447060D01*
X102380553Y-81298163D01*
X102440517Y-81158253D01*
X102526518Y-81032653D01*
X102635275Y-80926150D01*
X102762650Y-80842799D01*
X102903787Y-80785775D01*
X103053308Y-80757253D01*
X103205531Y-80758315D01*
X103205531Y-80758315D01*
G37*
G36*
X97648988Y-79189024D02*
X97855626Y-79231441D01*
X98050104Y-79313192D01*
X98224991Y-79431155D01*
X98373636Y-79580841D01*
X98490375Y-79756548D01*
X98570763Y-79951584D01*
X98611669Y-80158174D01*
X98611669Y-80158184D01*
X98611736Y-80158523D01*
X98608372Y-80399472D01*
X98608295Y-80399810D01*
X98608295Y-80399819D01*
X98561637Y-80605187D01*
X98475836Y-80797899D01*
X98354234Y-80970280D01*
X98201466Y-81115759D01*
X98023353Y-81228793D01*
X97826672Y-81305080D01*
X97618927Y-81341712D01*
X97408017Y-81337293D01*
X97201984Y-81291995D01*
X97008672Y-81207538D01*
X96835451Y-81087146D01*
X96688909Y-80935399D01*
X96574633Y-80758076D01*
X96496973Y-80561931D01*
X96458893Y-80354449D01*
X96461838Y-80143515D01*
X96505699Y-79937168D01*
X96588802Y-79743274D01*
X96707985Y-79569212D01*
X96858704Y-79421616D01*
X97035225Y-79306105D01*
X97230819Y-79227079D01*
X97438033Y-79187552D01*
X97648988Y-79189024D01*
X97648988Y-79189024D01*
G37*
G36*
X85704781Y-78371834D02*
X85712167Y-78371885D01*
X85882105Y-78390947D01*
X86045105Y-78442654D01*
X86194957Y-78525036D01*
X86325954Y-78634955D01*
X86433106Y-78768225D01*
X86512331Y-78919770D01*
X86560613Y-79083816D01*
X86560616Y-79083853D01*
X86560619Y-79083862D01*
X86576113Y-79254115D01*
X86558243Y-79424137D01*
X86558241Y-79424142D01*
X86558237Y-79424184D01*
X86507669Y-79587541D01*
X86426336Y-79737965D01*
X86317333Y-79869726D01*
X86184815Y-79977806D01*
X86033827Y-80058087D01*
X85870121Y-80107513D01*
X85699933Y-80124200D01*
X84988030Y-80124200D01*
X84983219Y-80124166D01*
X84975833Y-80124115D01*
X84805895Y-80105053D01*
X84642895Y-80053346D01*
X84493043Y-79970964D01*
X84362046Y-79861045D01*
X84254894Y-79727775D01*
X84175669Y-79576230D01*
X84127387Y-79412184D01*
X84127384Y-79412147D01*
X84127381Y-79412138D01*
X84111887Y-79241885D01*
X84129757Y-79071863D01*
X84129759Y-79071858D01*
X84129763Y-79071816D01*
X84180331Y-78908459D01*
X84261664Y-78758035D01*
X84370667Y-78626274D01*
X84503185Y-78518194D01*
X84654173Y-78437913D01*
X84817879Y-78388487D01*
X84988067Y-78371800D01*
X85699970Y-78371800D01*
X85704781Y-78371834D01*
X85704781Y-78371834D01*
G37*
G36*
X93324781Y-78371834D02*
X93332167Y-78371885D01*
X93502105Y-78390947D01*
X93665105Y-78442654D01*
X93814957Y-78525036D01*
X93945954Y-78634955D01*
X94053106Y-78768225D01*
X94132331Y-78919770D01*
X94180613Y-79083816D01*
X94180616Y-79083853D01*
X94180619Y-79083862D01*
X94196113Y-79254115D01*
X94178243Y-79424137D01*
X94178241Y-79424142D01*
X94178237Y-79424184D01*
X94127669Y-79587541D01*
X94046336Y-79737965D01*
X93937333Y-79869726D01*
X93804815Y-79977806D01*
X93653827Y-80058087D01*
X93490121Y-80107513D01*
X93319933Y-80124200D01*
X92608030Y-80124200D01*
X92603219Y-80124166D01*
X92595833Y-80124115D01*
X92425895Y-80105053D01*
X92262895Y-80053346D01*
X92113043Y-79970964D01*
X91982046Y-79861045D01*
X91874894Y-79727775D01*
X91795669Y-79576230D01*
X91747387Y-79412184D01*
X91747384Y-79412147D01*
X91747381Y-79412138D01*
X91731887Y-79241885D01*
X91749757Y-79071863D01*
X91749759Y-79071858D01*
X91749763Y-79071816D01*
X91800331Y-78908459D01*
X91881664Y-78758035D01*
X91990667Y-78626274D01*
X92123185Y-78518194D01*
X92274173Y-78437913D01*
X92437879Y-78388487D01*
X92608067Y-78371800D01*
X93319970Y-78371800D01*
X93324781Y-78371834D01*
X93324781Y-78371834D01*
G37*
G36*
X80340280Y-78014281D02*
X80479779Y-78042917D01*
X80611073Y-78098108D01*
X80729140Y-78177745D01*
X80829491Y-78278798D01*
X80908300Y-78397417D01*
X80962571Y-78529087D01*
X80990164Y-78668443D01*
X80990164Y-78668453D01*
X80990231Y-78668792D01*
X80987960Y-78831457D01*
X80987883Y-78831795D01*
X80987883Y-78831804D01*
X80956409Y-78970337D01*
X80898486Y-79100436D01*
X80816391Y-79216811D01*
X80713258Y-79315024D01*
X80593013Y-79391334D01*
X80460233Y-79442836D01*
X80319985Y-79467566D01*
X80177599Y-79464583D01*
X80038504Y-79434001D01*
X79907999Y-79376985D01*
X79791058Y-79295709D01*
X79692127Y-79193263D01*
X79614979Y-79073552D01*
X79562550Y-78941133D01*
X79536843Y-78801063D01*
X79538831Y-78658661D01*
X79568442Y-78519355D01*
X79624544Y-78388457D01*
X79705005Y-78270947D01*
X79806756Y-78171305D01*
X79925926Y-78093323D01*
X80057972Y-78039972D01*
X80197862Y-78013287D01*
X80340280Y-78014281D01*
X80340280Y-78014281D01*
G37*
G36*
X64022200Y-78580200D02*
X62469800Y-78580200D01*
X62469800Y-77027800D01*
X64022200Y-77027800D01*
X64022200Y-78580200D01*
X64022200Y-78580200D01*
G37*
G36*
X111874722Y-76378526D02*
X112084532Y-76421594D01*
X112281994Y-76504599D01*
X112459566Y-76624373D01*
X112610492Y-76776356D01*
X112729022Y-76954760D01*
X112810646Y-77152793D01*
X112852179Y-77362550D01*
X112852179Y-77362560D01*
X112852247Y-77362904D01*
X112848831Y-77607551D01*
X112848753Y-77607894D01*
X112848753Y-77607899D01*
X112801378Y-77816422D01*
X112714260Y-78012093D01*
X112590792Y-78187120D01*
X112435680Y-78334831D01*
X112254830Y-78449602D01*
X112055135Y-78527058D01*
X111844200Y-78564252D01*
X111630053Y-78559766D01*
X111420857Y-78513771D01*
X111224579Y-78428019D01*
X111048702Y-78305782D01*
X110899907Y-78151700D01*
X110783879Y-77971659D01*
X110705027Y-77772504D01*
X110666363Y-77561838D01*
X110669353Y-77347666D01*
X110713887Y-77138152D01*
X110798264Y-76941282D01*
X110919277Y-76764549D01*
X111072310Y-76614688D01*
X111251540Y-76497404D01*
X111450135Y-76417165D01*
X111660530Y-76377031D01*
X111874722Y-76378526D01*
X111874722Y-76378526D01*
G37*
G36*
X85704781Y-75831834D02*
X85712167Y-75831885D01*
X85882105Y-75850947D01*
X86045105Y-75902654D01*
X86194957Y-75985036D01*
X86325954Y-76094955D01*
X86433106Y-76228225D01*
X86512331Y-76379770D01*
X86560613Y-76543816D01*
X86560616Y-76543853D01*
X86560619Y-76543862D01*
X86576113Y-76714115D01*
X86558243Y-76884137D01*
X86558241Y-76884142D01*
X86558237Y-76884184D01*
X86507669Y-77047541D01*
X86426336Y-77197965D01*
X86317333Y-77329726D01*
X86184815Y-77437806D01*
X86033827Y-77518087D01*
X85870121Y-77567513D01*
X85699933Y-77584200D01*
X84988030Y-77584200D01*
X84983219Y-77584166D01*
X84975833Y-77584115D01*
X84805895Y-77565053D01*
X84642895Y-77513346D01*
X84493043Y-77430964D01*
X84362046Y-77321045D01*
X84254894Y-77187775D01*
X84175669Y-77036230D01*
X84127387Y-76872184D01*
X84127384Y-76872147D01*
X84127381Y-76872138D01*
X84111887Y-76701885D01*
X84129757Y-76531863D01*
X84129759Y-76531858D01*
X84129763Y-76531816D01*
X84180331Y-76368459D01*
X84261664Y-76218035D01*
X84370667Y-76086274D01*
X84503185Y-75978194D01*
X84654173Y-75897913D01*
X84817879Y-75848487D01*
X84988067Y-75831800D01*
X85699970Y-75831800D01*
X85704781Y-75831834D01*
X85704781Y-75831834D01*
G37*
G36*
X93324781Y-75831834D02*
X93332167Y-75831885D01*
X93502105Y-75850947D01*
X93665105Y-75902654D01*
X93814957Y-75985036D01*
X93945954Y-76094955D01*
X94053106Y-76228225D01*
X94132331Y-76379770D01*
X94180613Y-76543816D01*
X94180616Y-76543853D01*
X94180619Y-76543862D01*
X94196113Y-76714115D01*
X94178243Y-76884137D01*
X94178241Y-76884142D01*
X94178237Y-76884184D01*
X94127669Y-77047541D01*
X94046336Y-77197965D01*
X93937333Y-77329726D01*
X93804815Y-77437806D01*
X93653827Y-77518087D01*
X93490121Y-77567513D01*
X93319933Y-77584200D01*
X92608030Y-77584200D01*
X92603219Y-77584166D01*
X92595833Y-77584115D01*
X92425895Y-77565053D01*
X92262895Y-77513346D01*
X92113043Y-77430964D01*
X91982046Y-77321045D01*
X91874894Y-77187775D01*
X91795669Y-77036230D01*
X91747387Y-76872184D01*
X91747384Y-76872147D01*
X91747381Y-76872138D01*
X91731887Y-76701885D01*
X91749757Y-76531863D01*
X91749759Y-76531858D01*
X91749763Y-76531816D01*
X91800331Y-76368459D01*
X91881664Y-76218035D01*
X91990667Y-76086274D01*
X92123185Y-75978194D01*
X92274173Y-75897913D01*
X92437879Y-75848487D01*
X92608067Y-75831800D01*
X93319970Y-75831800D01*
X93324781Y-75831834D01*
X93324781Y-75831834D01*
G37*
G36*
X103900200Y-77310200D02*
X102347800Y-77310200D01*
X102347800Y-75757800D01*
X103900200Y-75757800D01*
X103900200Y-77310200D01*
X103900200Y-77310200D01*
G37*
G36*
X80990200Y-76966200D02*
X79537800Y-76966200D01*
X79537800Y-75513800D01*
X80990200Y-75513800D01*
X80990200Y-76966200D01*
X80990200Y-76966200D01*
G37*
G36*
X74534988Y-74617024D02*
X74741626Y-74659441D01*
X74936104Y-74741192D01*
X75110991Y-74859155D01*
X75259636Y-75008841D01*
X75376375Y-75184548D01*
X75456763Y-75379584D01*
X75497669Y-75586174D01*
X75497669Y-75586184D01*
X75497736Y-75586523D01*
X75494372Y-75827472D01*
X75494295Y-75827810D01*
X75494295Y-75827819D01*
X75447637Y-76033187D01*
X75361836Y-76225899D01*
X75240234Y-76398280D01*
X75087466Y-76543759D01*
X74909353Y-76656793D01*
X74712672Y-76733080D01*
X74504927Y-76769712D01*
X74294017Y-76765293D01*
X74087984Y-76719995D01*
X73894672Y-76635538D01*
X73721451Y-76515146D01*
X73574909Y-76363399D01*
X73460633Y-76186076D01*
X73382973Y-75989931D01*
X73344893Y-75782449D01*
X73347838Y-75571515D01*
X73391699Y-75365168D01*
X73474802Y-75171274D01*
X73593985Y-74997212D01*
X73744704Y-74849616D01*
X73921225Y-74734105D01*
X74116819Y-74655079D01*
X74324033Y-74615552D01*
X74534988Y-74617024D01*
X74534988Y-74617024D01*
G37*
G36*
X69708988Y-74363024D02*
X69915626Y-74405441D01*
X70110104Y-74487192D01*
X70284991Y-74605155D01*
X70433636Y-74754841D01*
X70550375Y-74930548D01*
X70630763Y-75125584D01*
X70671669Y-75332174D01*
X70671669Y-75332184D01*
X70671736Y-75332523D01*
X70668372Y-75573472D01*
X70668295Y-75573810D01*
X70668295Y-75573819D01*
X70621637Y-75779187D01*
X70535836Y-75971899D01*
X70414234Y-76144280D01*
X70261466Y-76289759D01*
X70083353Y-76402793D01*
X69886672Y-76479080D01*
X69678927Y-76515712D01*
X69468017Y-76511293D01*
X69261984Y-76465995D01*
X69068672Y-76381538D01*
X68895451Y-76261146D01*
X68748909Y-76109399D01*
X68634633Y-75932076D01*
X68556973Y-75735931D01*
X68518893Y-75528449D01*
X68521838Y-75317515D01*
X68565699Y-75111168D01*
X68648802Y-74917274D01*
X68767985Y-74743212D01*
X68918704Y-74595616D01*
X69095225Y-74480105D01*
X69290819Y-74401079D01*
X69498033Y-74361552D01*
X69708988Y-74363024D01*
X69708988Y-74363024D01*
G37*
G36*
X93324781Y-73291834D02*
X93332167Y-73291885D01*
X93502105Y-73310947D01*
X93665105Y-73362654D01*
X93814957Y-73445036D01*
X93945954Y-73554955D01*
X94053106Y-73688225D01*
X94132331Y-73839770D01*
X94180613Y-74003816D01*
X94180616Y-74003853D01*
X94180619Y-74003862D01*
X94196113Y-74174115D01*
X94178243Y-74344137D01*
X94178241Y-74344142D01*
X94178237Y-74344184D01*
X94127669Y-74507541D01*
X94046336Y-74657965D01*
X93937333Y-74789726D01*
X93804815Y-74897806D01*
X93653827Y-74978087D01*
X93490121Y-75027513D01*
X93319933Y-75044200D01*
X92608030Y-75044200D01*
X92603219Y-75044166D01*
X92595833Y-75044115D01*
X92425895Y-75025053D01*
X92262895Y-74973346D01*
X92113043Y-74890964D01*
X91982046Y-74781045D01*
X91874894Y-74647775D01*
X91795669Y-74496230D01*
X91747387Y-74332184D01*
X91747384Y-74332147D01*
X91747381Y-74332138D01*
X91731887Y-74161885D01*
X91749757Y-73991863D01*
X91749759Y-73991858D01*
X91749763Y-73991816D01*
X91800331Y-73828459D01*
X91881664Y-73678035D01*
X91990667Y-73546274D01*
X92123185Y-73438194D01*
X92274173Y-73357913D01*
X92437879Y-73308487D01*
X92608067Y-73291800D01*
X93319970Y-73291800D01*
X93324781Y-73291834D01*
X93324781Y-73291834D01*
G37*
G36*
X85704781Y-73291834D02*
X85712167Y-73291885D01*
X85882105Y-73310947D01*
X86045105Y-73362654D01*
X86194957Y-73445036D01*
X86325954Y-73554955D01*
X86433106Y-73688225D01*
X86512331Y-73839770D01*
X86560613Y-74003816D01*
X86560616Y-74003853D01*
X86560619Y-74003862D01*
X86576113Y-74174115D01*
X86558243Y-74344137D01*
X86558241Y-74344142D01*
X86558237Y-74344184D01*
X86507669Y-74507541D01*
X86426336Y-74657965D01*
X86317333Y-74789726D01*
X86184815Y-74897806D01*
X86033827Y-74978087D01*
X85870121Y-75027513D01*
X85699933Y-75044200D01*
X84988030Y-75044200D01*
X84983219Y-75044166D01*
X84975833Y-75044115D01*
X84805895Y-75025053D01*
X84642895Y-74973346D01*
X84493043Y-74890964D01*
X84362046Y-74781045D01*
X84254894Y-74647775D01*
X84175669Y-74496230D01*
X84127387Y-74332184D01*
X84127384Y-74332147D01*
X84127381Y-74332138D01*
X84111887Y-74161885D01*
X84129757Y-73991863D01*
X84129759Y-73991858D01*
X84129763Y-73991816D01*
X84180331Y-73828459D01*
X84261664Y-73678035D01*
X84370667Y-73546274D01*
X84503185Y-73438194D01*
X84654173Y-73357913D01*
X84817879Y-73308487D01*
X84988067Y-73291800D01*
X85699970Y-73291800D01*
X85704781Y-73291834D01*
X85704781Y-73291834D01*
G37*
G36*
X64298280Y-72426281D02*
X64437779Y-72454917D01*
X64569073Y-72510108D01*
X64687140Y-72589745D01*
X64787491Y-72690798D01*
X64866300Y-72809417D01*
X64920571Y-72941087D01*
X64948164Y-73080443D01*
X64948164Y-73080453D01*
X64948231Y-73080792D01*
X64945960Y-73243457D01*
X64945883Y-73243795D01*
X64945883Y-73243804D01*
X64914409Y-73382337D01*
X64856486Y-73512436D01*
X64774391Y-73628811D01*
X64671258Y-73727024D01*
X64551013Y-73803334D01*
X64418233Y-73854836D01*
X64277985Y-73879566D01*
X64135599Y-73876583D01*
X63996504Y-73846001D01*
X63865999Y-73788985D01*
X63749058Y-73707709D01*
X63650127Y-73605263D01*
X63572979Y-73485552D01*
X63520550Y-73353133D01*
X63494843Y-73213063D01*
X63496831Y-73070661D01*
X63526442Y-72931355D01*
X63582544Y-72800457D01*
X63663005Y-72682947D01*
X63764756Y-72583305D01*
X63883926Y-72505323D01*
X64015972Y-72451972D01*
X64155862Y-72425287D01*
X64298280Y-72426281D01*
X64298280Y-72426281D01*
G37*
G36*
X62448200Y-73878200D02*
X60995800Y-73878200D01*
X60995800Y-72425800D01*
X62448200Y-72425800D01*
X62448200Y-73878200D01*
X62448200Y-73878200D01*
G37*
G36*
X97648988Y-71569024D02*
X97855626Y-71611441D01*
X98050104Y-71693192D01*
X98224991Y-71811155D01*
X98373636Y-71960841D01*
X98490375Y-72136548D01*
X98570763Y-72331584D01*
X98611669Y-72538174D01*
X98611669Y-72538184D01*
X98611736Y-72538523D01*
X98608372Y-72779472D01*
X98608295Y-72779810D01*
X98608295Y-72779819D01*
X98561637Y-72985187D01*
X98475836Y-73177899D01*
X98354234Y-73350280D01*
X98201466Y-73495759D01*
X98023353Y-73608793D01*
X97826672Y-73685080D01*
X97618927Y-73721712D01*
X97408017Y-73717293D01*
X97201984Y-73671995D01*
X97008672Y-73587538D01*
X96835451Y-73467146D01*
X96688909Y-73315399D01*
X96574633Y-73138076D01*
X96496973Y-72941931D01*
X96458893Y-72734449D01*
X96461838Y-72523515D01*
X96505699Y-72317168D01*
X96588802Y-72123274D01*
X96707985Y-71949212D01*
X96858704Y-71801616D01*
X97035225Y-71686105D01*
X97230819Y-71607079D01*
X97438033Y-71567552D01*
X97648988Y-71569024D01*
X97648988Y-71569024D01*
G37*
G36*
X111874722Y-71298526D02*
X112084532Y-71341594D01*
X112281994Y-71424599D01*
X112459566Y-71544373D01*
X112610492Y-71696356D01*
X112729022Y-71874760D01*
X112810646Y-72072793D01*
X112852179Y-72282550D01*
X112852179Y-72282560D01*
X112852247Y-72282904D01*
X112848831Y-72527551D01*
X112848753Y-72527894D01*
X112848753Y-72527899D01*
X112801378Y-72736422D01*
X112714260Y-72932093D01*
X112590792Y-73107120D01*
X112435680Y-73254831D01*
X112254830Y-73369602D01*
X112055135Y-73447058D01*
X111844200Y-73484252D01*
X111630053Y-73479766D01*
X111420857Y-73433771D01*
X111224579Y-73348019D01*
X111048702Y-73225782D01*
X110899907Y-73071700D01*
X110783879Y-72891659D01*
X110705027Y-72692504D01*
X110666363Y-72481838D01*
X110669353Y-72267666D01*
X110713887Y-72058152D01*
X110798264Y-71861282D01*
X110919277Y-71684549D01*
X111072310Y-71534688D01*
X111251540Y-71417404D01*
X111450135Y-71337165D01*
X111660530Y-71297031D01*
X111874722Y-71298526D01*
X111874722Y-71298526D01*
G37*
G36*
X101716280Y-71410281D02*
X101855779Y-71438917D01*
X101987073Y-71494108D01*
X102105140Y-71573745D01*
X102205491Y-71674798D01*
X102284300Y-71793417D01*
X102338571Y-71925087D01*
X102366164Y-72064443D01*
X102366164Y-72064453D01*
X102366231Y-72064792D01*
X102363960Y-72227457D01*
X102363883Y-72227795D01*
X102363883Y-72227804D01*
X102332409Y-72366337D01*
X102274486Y-72496436D01*
X102192391Y-72612811D01*
X102089258Y-72711024D01*
X101969013Y-72787334D01*
X101836233Y-72838836D01*
X101695985Y-72863566D01*
X101553599Y-72860583D01*
X101414504Y-72830001D01*
X101283999Y-72772985D01*
X101167058Y-72691709D01*
X101068127Y-72589263D01*
X100990979Y-72469552D01*
X100938550Y-72337133D01*
X100912843Y-72197063D01*
X100914831Y-72054661D01*
X100944442Y-71915355D01*
X101000544Y-71784457D01*
X101081005Y-71666947D01*
X101182756Y-71567305D01*
X101301926Y-71489323D01*
X101433972Y-71435972D01*
X101573862Y-71409287D01*
X101716280Y-71410281D01*
X101716280Y-71410281D01*
G37*
G36*
X104866200Y-72862200D02*
X103413800Y-72862200D01*
X103413800Y-71409800D01*
X104866200Y-71409800D01*
X104866200Y-72862200D01*
X104866200Y-72862200D01*
G37*
G36*
X79100781Y-67449834D02*
X79108167Y-67449885D01*
X79278105Y-67468947D01*
X79441105Y-67520654D01*
X79590957Y-67603036D01*
X79721954Y-67712955D01*
X79829106Y-67846225D01*
X79908331Y-67997770D01*
X79956613Y-68161816D01*
X79956616Y-68161853D01*
X79956619Y-68161862D01*
X79972113Y-68332115D01*
X79954243Y-68502137D01*
X79954241Y-68502142D01*
X79954237Y-68502184D01*
X79903669Y-68665541D01*
X79822336Y-68815965D01*
X79713333Y-68947726D01*
X79580815Y-69055806D01*
X79429827Y-69136087D01*
X79266121Y-69185513D01*
X79095933Y-69202200D01*
X78384030Y-69202200D01*
X78379219Y-69202166D01*
X78371833Y-69202115D01*
X78201895Y-69183053D01*
X78038895Y-69131346D01*
X77889043Y-69048964D01*
X77758046Y-68939045D01*
X77650894Y-68805775D01*
X77571669Y-68654230D01*
X77523387Y-68490184D01*
X77523384Y-68490147D01*
X77523381Y-68490138D01*
X77507887Y-68319885D01*
X77525757Y-68149863D01*
X77525759Y-68149858D01*
X77525763Y-68149816D01*
X77576331Y-67986459D01*
X77657664Y-67836035D01*
X77766667Y-67704274D01*
X77899185Y-67596194D01*
X78050173Y-67515913D01*
X78213879Y-67466487D01*
X78384067Y-67449800D01*
X79095970Y-67449800D01*
X79100781Y-67449834D01*
X79100781Y-67449834D01*
G37*
G36*
X71480781Y-67449834D02*
X71488167Y-67449885D01*
X71658105Y-67468947D01*
X71821105Y-67520654D01*
X71970957Y-67603036D01*
X72101954Y-67712955D01*
X72209106Y-67846225D01*
X72288331Y-67997770D01*
X72336613Y-68161816D01*
X72336616Y-68161853D01*
X72336619Y-68161862D01*
X72352113Y-68332115D01*
X72334243Y-68502137D01*
X72334241Y-68502142D01*
X72334237Y-68502184D01*
X72283669Y-68665541D01*
X72202336Y-68815965D01*
X72093333Y-68947726D01*
X71960815Y-69055806D01*
X71809827Y-69136087D01*
X71646121Y-69185513D01*
X71475933Y-69202200D01*
X70764030Y-69202200D01*
X70759219Y-69202166D01*
X70751833Y-69202115D01*
X70581895Y-69183053D01*
X70418895Y-69131346D01*
X70269043Y-69048964D01*
X70138046Y-68939045D01*
X70030894Y-68805775D01*
X69951669Y-68654230D01*
X69903387Y-68490184D01*
X69903384Y-68490147D01*
X69903381Y-68490138D01*
X69887887Y-68319885D01*
X69905757Y-68149863D01*
X69905759Y-68149858D01*
X69905763Y-68149816D01*
X69956331Y-67986459D01*
X70037664Y-67836035D01*
X70146667Y-67704274D01*
X70279185Y-67596194D01*
X70430173Y-67515913D01*
X70593879Y-67466487D01*
X70764067Y-67449800D01*
X71475970Y-67449800D01*
X71480781Y-67449834D01*
X71480781Y-67449834D01*
G37*
G36*
X85202988Y-66743024D02*
X85409626Y-66785441D01*
X85604104Y-66867192D01*
X85778991Y-66985155D01*
X85927636Y-67134841D01*
X86044375Y-67310548D01*
X86124763Y-67505584D01*
X86165669Y-67712174D01*
X86165669Y-67712184D01*
X86165736Y-67712523D01*
X86162372Y-67953472D01*
X86162295Y-67953810D01*
X86162295Y-67953819D01*
X86115637Y-68159187D01*
X86029836Y-68351899D01*
X85908234Y-68524280D01*
X85755466Y-68669759D01*
X85577353Y-68782793D01*
X85380672Y-68859080D01*
X85172927Y-68895712D01*
X84962017Y-68891293D01*
X84755984Y-68845995D01*
X84562672Y-68761538D01*
X84389451Y-68641146D01*
X84242909Y-68489399D01*
X84128633Y-68312076D01*
X84050973Y-68115931D01*
X84012893Y-67908449D01*
X84015838Y-67697515D01*
X84059699Y-67491168D01*
X84142802Y-67297274D01*
X84261985Y-67123212D01*
X84412704Y-66975616D01*
X84589225Y-66860105D01*
X84784819Y-66781079D01*
X84992033Y-66741552D01*
X85202988Y-66743024D01*
X85202988Y-66743024D01*
G37*
G36*
X92822988Y-66743024D02*
X93029626Y-66785441D01*
X93224104Y-66867192D01*
X93398991Y-66985155D01*
X93547636Y-67134841D01*
X93664375Y-67310548D01*
X93744763Y-67505584D01*
X93785669Y-67712174D01*
X93785669Y-67712184D01*
X93785736Y-67712523D01*
X93782372Y-67953472D01*
X93782295Y-67953810D01*
X93782295Y-67953819D01*
X93735637Y-68159187D01*
X93649836Y-68351899D01*
X93528234Y-68524280D01*
X93375466Y-68669759D01*
X93197353Y-68782793D01*
X93000672Y-68859080D01*
X92792927Y-68895712D01*
X92582017Y-68891293D01*
X92375984Y-68845995D01*
X92182672Y-68761538D01*
X92009451Y-68641146D01*
X91862909Y-68489399D01*
X91748633Y-68312076D01*
X91670973Y-68115931D01*
X91632893Y-67908449D01*
X91635838Y-67697515D01*
X91679699Y-67491168D01*
X91762802Y-67297274D01*
X91881985Y-67123212D01*
X92032704Y-66975616D01*
X92209225Y-66860105D01*
X92404819Y-66781079D01*
X92612033Y-66741552D01*
X92822988Y-66743024D01*
X92822988Y-66743024D01*
G37*
G36*
X112136726Y-66142376D02*
X112361174Y-66188449D01*
X112572411Y-66277245D01*
X112762372Y-66405376D01*
X112923829Y-66567963D01*
X113050628Y-66758813D01*
X113137945Y-66970658D01*
X113182382Y-67195083D01*
X113182382Y-67195089D01*
X113182450Y-67195433D01*
X113178795Y-67457148D01*
X113178719Y-67457482D01*
X113178719Y-67457495D01*
X113128032Y-67680592D01*
X113034836Y-67889914D01*
X112902754Y-68077151D01*
X112736820Y-68235168D01*
X112543354Y-68357946D01*
X112329726Y-68440806D01*
X112104074Y-68480595D01*
X111874987Y-68475796D01*
X111651196Y-68426592D01*
X111441224Y-68334858D01*
X111253073Y-68204090D01*
X111093902Y-68039264D01*
X110969777Y-67846658D01*
X110885424Y-67633609D01*
X110844063Y-67408245D01*
X110847261Y-67179131D01*
X110894902Y-66955000D01*
X110985167Y-66744395D01*
X111114622Y-66555332D01*
X111278331Y-66395015D01*
X111470065Y-66269548D01*
X111682517Y-66183711D01*
X111907590Y-66140777D01*
X112136726Y-66142376D01*
X112136726Y-66142376D01*
G37*
G36*
X63514200Y-67832200D02*
X61961800Y-67832200D01*
X61961800Y-66279800D01*
X63514200Y-66279800D01*
X63514200Y-67832200D01*
X63514200Y-67832200D01*
G37*
G36*
X100620280Y-65822281D02*
X100759779Y-65850917D01*
X100891073Y-65906108D01*
X101009140Y-65985745D01*
X101109491Y-66086798D01*
X101188300Y-66205417D01*
X101242571Y-66337087D01*
X101270164Y-66476443D01*
X101270164Y-66476453D01*
X101270231Y-66476792D01*
X101267960Y-66639457D01*
X101267883Y-66639795D01*
X101267883Y-66639804D01*
X101236409Y-66778337D01*
X101178486Y-66908436D01*
X101096391Y-67024811D01*
X100993258Y-67123024D01*
X100873013Y-67199334D01*
X100740233Y-67250836D01*
X100599985Y-67275566D01*
X100457599Y-67272583D01*
X100318504Y-67242001D01*
X100187999Y-67184985D01*
X100071058Y-67103709D01*
X99972127Y-67001263D01*
X99894979Y-66881552D01*
X99842550Y-66749133D01*
X99816843Y-66609063D01*
X99818831Y-66466661D01*
X99848442Y-66327355D01*
X99904544Y-66196457D01*
X99985005Y-66078947D01*
X100086756Y-65979305D01*
X100205926Y-65901323D01*
X100337972Y-65847972D01*
X100477862Y-65821287D01*
X100620280Y-65822281D01*
X100620280Y-65822281D01*
G37*
G36*
X98770200Y-67274200D02*
X97317800Y-67274200D01*
X97317800Y-65821800D01*
X98770200Y-65821800D01*
X98770200Y-67274200D01*
X98770200Y-67274200D01*
G37*
G36*
X79100781Y-64909834D02*
X79108167Y-64909885D01*
X79278105Y-64928947D01*
X79441105Y-64980654D01*
X79590957Y-65063036D01*
X79721954Y-65172955D01*
X79829106Y-65306225D01*
X79908331Y-65457770D01*
X79956613Y-65621816D01*
X79956616Y-65621853D01*
X79956619Y-65621862D01*
X79972113Y-65792115D01*
X79954243Y-65962137D01*
X79954241Y-65962142D01*
X79954237Y-65962184D01*
X79903669Y-66125541D01*
X79822336Y-66275965D01*
X79713333Y-66407726D01*
X79580815Y-66515806D01*
X79429827Y-66596087D01*
X79266121Y-66645513D01*
X79095933Y-66662200D01*
X78384030Y-66662200D01*
X78379219Y-66662166D01*
X78371833Y-66662115D01*
X78201895Y-66643053D01*
X78038895Y-66591346D01*
X77889043Y-66508964D01*
X77758046Y-66399045D01*
X77650894Y-66265775D01*
X77571669Y-66114230D01*
X77523387Y-65950184D01*
X77523384Y-65950147D01*
X77523381Y-65950138D01*
X77507887Y-65779885D01*
X77525757Y-65609863D01*
X77525759Y-65609858D01*
X77525763Y-65609816D01*
X77576331Y-65446459D01*
X77657664Y-65296035D01*
X77766667Y-65164274D01*
X77899185Y-65056194D01*
X78050173Y-64975913D01*
X78213879Y-64926487D01*
X78384067Y-64909800D01*
X79095970Y-64909800D01*
X79100781Y-64909834D01*
X79100781Y-64909834D01*
G37*
G36*
X71480781Y-64909834D02*
X71488167Y-64909885D01*
X71658105Y-64928947D01*
X71821105Y-64980654D01*
X71970957Y-65063036D01*
X72101954Y-65172955D01*
X72209106Y-65306225D01*
X72288331Y-65457770D01*
X72336613Y-65621816D01*
X72336616Y-65621853D01*
X72336619Y-65621862D01*
X72352113Y-65792115D01*
X72334243Y-65962137D01*
X72334241Y-65962142D01*
X72334237Y-65962184D01*
X72283669Y-66125541D01*
X72202336Y-66275965D01*
X72093333Y-66407726D01*
X71960815Y-66515806D01*
X71809827Y-66596087D01*
X71646121Y-66645513D01*
X71475933Y-66662200D01*
X70764030Y-66662200D01*
X70759219Y-66662166D01*
X70751833Y-66662115D01*
X70581895Y-66643053D01*
X70418895Y-66591346D01*
X70269043Y-66508964D01*
X70138046Y-66399045D01*
X70030894Y-66265775D01*
X69951669Y-66114230D01*
X69903387Y-65950184D01*
X69903384Y-65950147D01*
X69903381Y-65950138D01*
X69887887Y-65779885D01*
X69905757Y-65609863D01*
X69905759Y-65609858D01*
X69905763Y-65609816D01*
X69956331Y-65446459D01*
X70037664Y-65296035D01*
X70146667Y-65164274D01*
X70279185Y-65056194D01*
X70430173Y-64975913D01*
X70593879Y-64926487D01*
X70764067Y-64909800D01*
X71475970Y-64909800D01*
X71480781Y-64909834D01*
X71480781Y-64909834D01*
G37*
G36*
X112136726Y-63602376D02*
X112361174Y-63648449D01*
X112572411Y-63737245D01*
X112762372Y-63865376D01*
X112923829Y-64027963D01*
X113050628Y-64218813D01*
X113137945Y-64430658D01*
X113182382Y-64655083D01*
X113182382Y-64655089D01*
X113182450Y-64655433D01*
X113178795Y-64917148D01*
X113178719Y-64917482D01*
X113178719Y-64917495D01*
X113128032Y-65140592D01*
X113034836Y-65349914D01*
X112902754Y-65537151D01*
X112736820Y-65695168D01*
X112543354Y-65817946D01*
X112329726Y-65900806D01*
X112104074Y-65940595D01*
X111874987Y-65935796D01*
X111651196Y-65886592D01*
X111441224Y-65794858D01*
X111253073Y-65664090D01*
X111093902Y-65499264D01*
X110969777Y-65306658D01*
X110885424Y-65093609D01*
X110844063Y-64868245D01*
X110847261Y-64639131D01*
X110894902Y-64415000D01*
X110985167Y-64204395D01*
X111114622Y-64015332D01*
X111278331Y-63855015D01*
X111470065Y-63729548D01*
X111682517Y-63643711D01*
X111907590Y-63600777D01*
X112136726Y-63602376D01*
X112136726Y-63602376D01*
G37*
G36*
X79100781Y-62369834D02*
X79108167Y-62369885D01*
X79278105Y-62388947D01*
X79441105Y-62440654D01*
X79590957Y-62523036D01*
X79721954Y-62632955D01*
X79829106Y-62766225D01*
X79908331Y-62917770D01*
X79956613Y-63081816D01*
X79956616Y-63081853D01*
X79956619Y-63081862D01*
X79972113Y-63252115D01*
X79954243Y-63422137D01*
X79954241Y-63422142D01*
X79954237Y-63422184D01*
X79903669Y-63585541D01*
X79822336Y-63735965D01*
X79713333Y-63867726D01*
X79580815Y-63975806D01*
X79429827Y-64056087D01*
X79266121Y-64105513D01*
X79095933Y-64122200D01*
X78384030Y-64122200D01*
X78379219Y-64122166D01*
X78371833Y-64122115D01*
X78201895Y-64103053D01*
X78038895Y-64051346D01*
X77889043Y-63968964D01*
X77758046Y-63859045D01*
X77650894Y-63725775D01*
X77571669Y-63574230D01*
X77523387Y-63410184D01*
X77523384Y-63410147D01*
X77523381Y-63410138D01*
X77507887Y-63239885D01*
X77525757Y-63069863D01*
X77525759Y-63069858D01*
X77525763Y-63069816D01*
X77576331Y-62906459D01*
X77657664Y-62756035D01*
X77766667Y-62624274D01*
X77899185Y-62516194D01*
X78050173Y-62435913D01*
X78213879Y-62386487D01*
X78384067Y-62369800D01*
X79095970Y-62369800D01*
X79100781Y-62369834D01*
X79100781Y-62369834D01*
G37*
G36*
X71480781Y-62369834D02*
X71488167Y-62369885D01*
X71658105Y-62388947D01*
X71821105Y-62440654D01*
X71970957Y-62523036D01*
X72101954Y-62632955D01*
X72209106Y-62766225D01*
X72288331Y-62917770D01*
X72336613Y-63081816D01*
X72336616Y-63081853D01*
X72336619Y-63081862D01*
X72352113Y-63252115D01*
X72334243Y-63422137D01*
X72334241Y-63422142D01*
X72334237Y-63422184D01*
X72283669Y-63585541D01*
X72202336Y-63735965D01*
X72093333Y-63867726D01*
X71960815Y-63975806D01*
X71809827Y-64056087D01*
X71646121Y-64105513D01*
X71475933Y-64122200D01*
X70764030Y-64122200D01*
X70759219Y-64122166D01*
X70751833Y-64122115D01*
X70581895Y-64103053D01*
X70418895Y-64051346D01*
X70269043Y-63968964D01*
X70138046Y-63859045D01*
X70030894Y-63725775D01*
X69951669Y-63574230D01*
X69903387Y-63410184D01*
X69903384Y-63410147D01*
X69903381Y-63410138D01*
X69887887Y-63239885D01*
X69905757Y-63069863D01*
X69905759Y-63069858D01*
X69905763Y-63069816D01*
X69956331Y-62906459D01*
X70037664Y-62756035D01*
X70146667Y-62624274D01*
X70279185Y-62516194D01*
X70430173Y-62435913D01*
X70593879Y-62386487D01*
X70764067Y-62369800D01*
X71475970Y-62369800D01*
X71480781Y-62369834D01*
X71480781Y-62369834D01*
G37*
G36*
X90500280Y-62266281D02*
X90639779Y-62294917D01*
X90771073Y-62350108D01*
X90889140Y-62429745D01*
X90989491Y-62530798D01*
X91068300Y-62649417D01*
X91122571Y-62781087D01*
X91150164Y-62920443D01*
X91150164Y-62920453D01*
X91150231Y-62920792D01*
X91147960Y-63083457D01*
X91147883Y-63083795D01*
X91147883Y-63083804D01*
X91116409Y-63222337D01*
X91058486Y-63352436D01*
X90976391Y-63468811D01*
X90873258Y-63567024D01*
X90753013Y-63643334D01*
X90620233Y-63694836D01*
X90479985Y-63719566D01*
X90337599Y-63716583D01*
X90198504Y-63686001D01*
X90067999Y-63628985D01*
X89951058Y-63547709D01*
X89852127Y-63445263D01*
X89774979Y-63325552D01*
X89722550Y-63193133D01*
X89696843Y-63053063D01*
X89698831Y-62910661D01*
X89728442Y-62771355D01*
X89784544Y-62640457D01*
X89865005Y-62522947D01*
X89966756Y-62423305D01*
X90085926Y-62345323D01*
X90217972Y-62291972D01*
X90357862Y-62265287D01*
X90500280Y-62266281D01*
X90500280Y-62266281D01*
G37*
G36*
X93650200Y-63718200D02*
X92197800Y-63718200D01*
X92197800Y-62265800D01*
X93650200Y-62265800D01*
X93650200Y-63718200D01*
X93650200Y-63718200D01*
G37*
G36*
X107056726Y-61062376D02*
X107281174Y-61108449D01*
X107492411Y-61197245D01*
X107682372Y-61325376D01*
X107843829Y-61487963D01*
X107970628Y-61678813D01*
X108057945Y-61890658D01*
X108102382Y-62115083D01*
X108102382Y-62115089D01*
X108102450Y-62115433D01*
X108098795Y-62377148D01*
X108098719Y-62377482D01*
X108098719Y-62377495D01*
X108048032Y-62600592D01*
X107954836Y-62809914D01*
X107822754Y-62997151D01*
X107656820Y-63155168D01*
X107463354Y-63277946D01*
X107249726Y-63360806D01*
X107024074Y-63400595D01*
X106794987Y-63395796D01*
X106571196Y-63346592D01*
X106361224Y-63254858D01*
X106173073Y-63124090D01*
X106013902Y-62959264D01*
X105889777Y-62766658D01*
X105805424Y-62553609D01*
X105764063Y-62328245D01*
X105767261Y-62099131D01*
X105814902Y-61875000D01*
X105905167Y-61664395D01*
X106034622Y-61475332D01*
X106198331Y-61315015D01*
X106390065Y-61189548D01*
X106602517Y-61103711D01*
X106827590Y-61060777D01*
X107056726Y-61062376D01*
X107056726Y-61062376D01*
G37*
G36*
X100344200Y-63180200D02*
X98791800Y-63180200D01*
X98791800Y-61627800D01*
X100344200Y-61627800D01*
X100344200Y-63180200D01*
X100344200Y-63180200D01*
G37*
G36*
X62819531Y-61280315D02*
X62968636Y-61310923D01*
X63108969Y-61369913D01*
X63235162Y-61455032D01*
X63342424Y-61563044D01*
X63426662Y-61689834D01*
X63484667Y-61830565D01*
X63512090Y-61969060D01*
X63514234Y-61979890D01*
X63511806Y-62153754D01*
X63511728Y-62154097D01*
X63511728Y-62154101D01*
X63478082Y-62302196D01*
X63416170Y-62441252D01*
X63328424Y-62565640D01*
X63218189Y-62670615D01*
X63089664Y-62752180D01*
X62947746Y-62807226D01*
X62797840Y-62833659D01*
X62645649Y-62830470D01*
X62496980Y-62797784D01*
X62357488Y-62736841D01*
X62232496Y-62649969D01*
X62126754Y-62540470D01*
X62044294Y-62412517D01*
X61988256Y-62270982D01*
X61960778Y-62121266D01*
X61962903Y-61969060D01*
X61994553Y-61820163D01*
X62054517Y-61680253D01*
X62140518Y-61554653D01*
X62249275Y-61448150D01*
X62376650Y-61364799D01*
X62517787Y-61307775D01*
X62667308Y-61279253D01*
X62819531Y-61280315D01*
X62819531Y-61280315D01*
G37*
G36*
X71480781Y-59829834D02*
X71488167Y-59829885D01*
X71658105Y-59848947D01*
X71821105Y-59900654D01*
X71970957Y-59983036D01*
X72101954Y-60092955D01*
X72209106Y-60226225D01*
X72288331Y-60377770D01*
X72336613Y-60541816D01*
X72336616Y-60541853D01*
X72336619Y-60541862D01*
X72352113Y-60712115D01*
X72334243Y-60882137D01*
X72334241Y-60882142D01*
X72334237Y-60882184D01*
X72283669Y-61045541D01*
X72202336Y-61195965D01*
X72093333Y-61327726D01*
X71960815Y-61435806D01*
X71809827Y-61516087D01*
X71646121Y-61565513D01*
X71475933Y-61582200D01*
X70764030Y-61582200D01*
X70759219Y-61582166D01*
X70751833Y-61582115D01*
X70581895Y-61563053D01*
X70418895Y-61511346D01*
X70269043Y-61428964D01*
X70138046Y-61319045D01*
X70030894Y-61185775D01*
X69951669Y-61034230D01*
X69903387Y-60870184D01*
X69903384Y-60870147D01*
X69903381Y-60870138D01*
X69887887Y-60699885D01*
X69905757Y-60529863D01*
X69905759Y-60529858D01*
X69905763Y-60529816D01*
X69956331Y-60366459D01*
X70037664Y-60216035D01*
X70146667Y-60084274D01*
X70279185Y-59976194D01*
X70430173Y-59895913D01*
X70593879Y-59846487D01*
X70764067Y-59829800D01*
X71475970Y-59829800D01*
X71480781Y-59829834D01*
X71480781Y-59829834D01*
G37*
G36*
X79100781Y-59829834D02*
X79108167Y-59829885D01*
X79278105Y-59848947D01*
X79441105Y-59900654D01*
X79590957Y-59983036D01*
X79721954Y-60092955D01*
X79829106Y-60226225D01*
X79908331Y-60377770D01*
X79956613Y-60541816D01*
X79956616Y-60541853D01*
X79956619Y-60541862D01*
X79972113Y-60712115D01*
X79954243Y-60882137D01*
X79954241Y-60882142D01*
X79954237Y-60882184D01*
X79903669Y-61045541D01*
X79822336Y-61195965D01*
X79713333Y-61327726D01*
X79580815Y-61435806D01*
X79429827Y-61516087D01*
X79266121Y-61565513D01*
X79095933Y-61582200D01*
X78384030Y-61582200D01*
X78379219Y-61582166D01*
X78371833Y-61582115D01*
X78201895Y-61563053D01*
X78038895Y-61511346D01*
X77889043Y-61428964D01*
X77758046Y-61319045D01*
X77650894Y-61185775D01*
X77571669Y-61034230D01*
X77523387Y-60870184D01*
X77523384Y-60870147D01*
X77523381Y-60870138D01*
X77507887Y-60699885D01*
X77525757Y-60529863D01*
X77525759Y-60529858D01*
X77525763Y-60529816D01*
X77576331Y-60366459D01*
X77657664Y-60216035D01*
X77766667Y-60084274D01*
X77899185Y-59976194D01*
X78050173Y-59895913D01*
X78213879Y-59846487D01*
X78384067Y-59829800D01*
X79095970Y-59829800D01*
X79100781Y-59829834D01*
X79100781Y-59829834D01*
G37*
G36*
X112136726Y-58522376D02*
X112361174Y-58568449D01*
X112572411Y-58657245D01*
X112762372Y-58785376D01*
X112923829Y-58947963D01*
X113050628Y-59138813D01*
X113137945Y-59350658D01*
X113182382Y-59575083D01*
X113182382Y-59575089D01*
X113182450Y-59575433D01*
X113178795Y-59837148D01*
X113178719Y-59837482D01*
X113178719Y-59837495D01*
X113128032Y-60060592D01*
X113034836Y-60269914D01*
X112902754Y-60457151D01*
X112736820Y-60615168D01*
X112543354Y-60737946D01*
X112329726Y-60820806D01*
X112104074Y-60860595D01*
X111874987Y-60855796D01*
X111651196Y-60806592D01*
X111441224Y-60714858D01*
X111253073Y-60584090D01*
X111093902Y-60419264D01*
X110969777Y-60226658D01*
X110885424Y-60013609D01*
X110844063Y-59788245D01*
X110847261Y-59559131D01*
X110894902Y-59335000D01*
X110985167Y-59124395D01*
X111114622Y-58935332D01*
X111278331Y-58775015D01*
X111470065Y-58649548D01*
X111682517Y-58563711D01*
X111907590Y-58520777D01*
X112136726Y-58522376D01*
X112136726Y-58522376D01*
G37*
G36*
X92822988Y-57853024D02*
X93029626Y-57895441D01*
X93224104Y-57977192D01*
X93398991Y-58095155D01*
X93547636Y-58244841D01*
X93664375Y-58420548D01*
X93744763Y-58615584D01*
X93785669Y-58822174D01*
X93785669Y-58822184D01*
X93785736Y-58822523D01*
X93782372Y-59063472D01*
X93782295Y-59063810D01*
X93782295Y-59063819D01*
X93735637Y-59269187D01*
X93649836Y-59461899D01*
X93528234Y-59634280D01*
X93375466Y-59779759D01*
X93197353Y-59892793D01*
X93000672Y-59969080D01*
X92792927Y-60005712D01*
X92582017Y-60001293D01*
X92375984Y-59955995D01*
X92182672Y-59871538D01*
X92009451Y-59751146D01*
X91862909Y-59599399D01*
X91748633Y-59422076D01*
X91670973Y-59225931D01*
X91632893Y-59018449D01*
X91635838Y-58807515D01*
X91679699Y-58601168D01*
X91762802Y-58407274D01*
X91881985Y-58233212D01*
X92032704Y-58085616D01*
X92209225Y-57970105D01*
X92404819Y-57891079D01*
X92612033Y-57851552D01*
X92822988Y-57853024D01*
X92822988Y-57853024D01*
G37*
G36*
X85202988Y-57853024D02*
X85409626Y-57895441D01*
X85604104Y-57977192D01*
X85778991Y-58095155D01*
X85927636Y-58244841D01*
X86044375Y-58420548D01*
X86124763Y-58615584D01*
X86165669Y-58822174D01*
X86165669Y-58822184D01*
X86165736Y-58822523D01*
X86162372Y-59063472D01*
X86162295Y-59063810D01*
X86162295Y-59063819D01*
X86115637Y-59269187D01*
X86029836Y-59461899D01*
X85908234Y-59634280D01*
X85755466Y-59779759D01*
X85577353Y-59892793D01*
X85380672Y-59969080D01*
X85172927Y-60005712D01*
X84962017Y-60001293D01*
X84755984Y-59955995D01*
X84562672Y-59871538D01*
X84389451Y-59751146D01*
X84242909Y-59599399D01*
X84128633Y-59422076D01*
X84050973Y-59225931D01*
X84012893Y-59018449D01*
X84015838Y-58807515D01*
X84059699Y-58601168D01*
X84142802Y-58407274D01*
X84261985Y-58233212D01*
X84412704Y-58085616D01*
X84589225Y-57970105D01*
X84784819Y-57891079D01*
X84992033Y-57851552D01*
X85202988Y-57853024D01*
X85202988Y-57853024D01*
G37*
G36*
X112136726Y-55982376D02*
X112361174Y-56028449D01*
X112572411Y-56117245D01*
X112762372Y-56245376D01*
X112923829Y-56407963D01*
X113050628Y-56598813D01*
X113137945Y-56810658D01*
X113182382Y-57035083D01*
X113182382Y-57035089D01*
X113182450Y-57035433D01*
X113178795Y-57297148D01*
X113178719Y-57297482D01*
X113178719Y-57297495D01*
X113128032Y-57520592D01*
X113034836Y-57729914D01*
X112902754Y-57917151D01*
X112736820Y-58075168D01*
X112543354Y-58197946D01*
X112329726Y-58280806D01*
X112104074Y-58320595D01*
X111874987Y-58315796D01*
X111651196Y-58266592D01*
X111441224Y-58174858D01*
X111253073Y-58044090D01*
X111093902Y-57879264D01*
X110969777Y-57686658D01*
X110885424Y-57473609D01*
X110844063Y-57248245D01*
X110847261Y-57019131D01*
X110894902Y-56795000D01*
X110985167Y-56584395D01*
X111114622Y-56395332D01*
X111278331Y-56235015D01*
X111470065Y-56109548D01*
X111682517Y-56023711D01*
X111907590Y-55980777D01*
X112136726Y-55982376D01*
X112136726Y-55982376D01*
G37*
G36*
X99649531Y-56628315D02*
X99798636Y-56658923D01*
X99938969Y-56717913D01*
X100065162Y-56803032D01*
X100172424Y-56911044D01*
X100256662Y-57037834D01*
X100314667Y-57178565D01*
X100342090Y-57317060D01*
X100344234Y-57327890D01*
X100341806Y-57501754D01*
X100341728Y-57502097D01*
X100341728Y-57502101D01*
X100308082Y-57650196D01*
X100246170Y-57789252D01*
X100158424Y-57913640D01*
X100048189Y-58018615D01*
X99919664Y-58100180D01*
X99777746Y-58155226D01*
X99627840Y-58181659D01*
X99475649Y-58178470D01*
X99326980Y-58145784D01*
X99187488Y-58084841D01*
X99062496Y-57997969D01*
X98956754Y-57888470D01*
X98874294Y-57760517D01*
X98818256Y-57618982D01*
X98790778Y-57469266D01*
X98792903Y-57317060D01*
X98824553Y-57168163D01*
X98884517Y-57028253D01*
X98970518Y-56902653D01*
X99079275Y-56796150D01*
X99206650Y-56712799D01*
X99347787Y-56655775D01*
X99497308Y-56627253D01*
X99649531Y-56628315D01*
X99649531Y-56628315D01*
G37*
G36*
X63859676Y-54297963D02*
X63859681Y-54297965D01*
X63859723Y-54297969D01*
X63957748Y-54328313D01*
X64048012Y-54377119D01*
X64127078Y-54442527D01*
X64191933Y-54522048D01*
X64240108Y-54612651D01*
X64269767Y-54710885D01*
X64279780Y-54813010D01*
X64279780Y-55422990D01*
X64279729Y-55430331D01*
X64268290Y-55532306D01*
X64237263Y-55630117D01*
X64187828Y-55720038D01*
X64121869Y-55798645D01*
X64041898Y-55862944D01*
X63950961Y-55910485D01*
X63852521Y-55939457D01*
X63852485Y-55939460D01*
X63852476Y-55939463D01*
X63750333Y-55948759D01*
X63648324Y-55938037D01*
X63648319Y-55938035D01*
X63648277Y-55938031D01*
X63550252Y-55907687D01*
X63459988Y-55858881D01*
X63380922Y-55793473D01*
X63316067Y-55713952D01*
X63267892Y-55623349D01*
X63238233Y-55525115D01*
X63228220Y-55422990D01*
X63228220Y-54813010D01*
X63228271Y-54805669D01*
X63239710Y-54703694D01*
X63270737Y-54605883D01*
X63320172Y-54515962D01*
X63386131Y-54437355D01*
X63466102Y-54373056D01*
X63557039Y-54325515D01*
X63655479Y-54296543D01*
X63655515Y-54296540D01*
X63655524Y-54296537D01*
X63757667Y-54287241D01*
X63859676Y-54297963D01*
X63859676Y-54297963D01*
G37*
G36*
X65129676Y-54297963D02*
X65129681Y-54297965D01*
X65129723Y-54297969D01*
X65227748Y-54328313D01*
X65318012Y-54377119D01*
X65397078Y-54442527D01*
X65461933Y-54522048D01*
X65510108Y-54612651D01*
X65539767Y-54710885D01*
X65549780Y-54813010D01*
X65549780Y-55422990D01*
X65549729Y-55430331D01*
X65538290Y-55532306D01*
X65507263Y-55630117D01*
X65457828Y-55720038D01*
X65391869Y-55798645D01*
X65311898Y-55862944D01*
X65220961Y-55910485D01*
X65122521Y-55939457D01*
X65122485Y-55939460D01*
X65122476Y-55939463D01*
X65020333Y-55948759D01*
X64918324Y-55938037D01*
X64918319Y-55938035D01*
X64918277Y-55938031D01*
X64820252Y-55907687D01*
X64729988Y-55858881D01*
X64650922Y-55793473D01*
X64586067Y-55713952D01*
X64537892Y-55623349D01*
X64508233Y-55525115D01*
X64498220Y-55422990D01*
X64498220Y-54813010D01*
X64498271Y-54805669D01*
X64509710Y-54703694D01*
X64540737Y-54605883D01*
X64590172Y-54515962D01*
X64656131Y-54437355D01*
X64736102Y-54373056D01*
X64827039Y-54325515D01*
X64925479Y-54296543D01*
X64925515Y-54296540D01*
X64925524Y-54296537D01*
X65027667Y-54287241D01*
X65129676Y-54297963D01*
X65129676Y-54297963D01*
G37*
G36*
X62589676Y-54297963D02*
X62589681Y-54297965D01*
X62589723Y-54297969D01*
X62687748Y-54328313D01*
X62778012Y-54377119D01*
X62857078Y-54442527D01*
X62921933Y-54522048D01*
X62970108Y-54612651D01*
X62999767Y-54710885D01*
X63009780Y-54813010D01*
X63009780Y-55422990D01*
X63009729Y-55430331D01*
X62998290Y-55532306D01*
X62967263Y-55630117D01*
X62917828Y-55720038D01*
X62851869Y-55798645D01*
X62771898Y-55862944D01*
X62680961Y-55910485D01*
X62582521Y-55939457D01*
X62582485Y-55939460D01*
X62582476Y-55939463D01*
X62480333Y-55948759D01*
X62378324Y-55938037D01*
X62378319Y-55938035D01*
X62378277Y-55938031D01*
X62280252Y-55907687D01*
X62189988Y-55858881D01*
X62110922Y-55793473D01*
X62046067Y-55713952D01*
X61997892Y-55623349D01*
X61968233Y-55525115D01*
X61958220Y-55422990D01*
X61958220Y-54813010D01*
X61958271Y-54805669D01*
X61969710Y-54703694D01*
X62000737Y-54605883D01*
X62050172Y-54515962D01*
X62116131Y-54437355D01*
X62196102Y-54373056D01*
X62287039Y-54325515D01*
X62385479Y-54296543D01*
X62385515Y-54296540D01*
X62385524Y-54296537D01*
X62487667Y-54287241D01*
X62589676Y-54297963D01*
X62589676Y-54297963D01*
G37*
G36*
X92822988Y-53535024D02*
X93029626Y-53577441D01*
X93224104Y-53659192D01*
X93398991Y-53777155D01*
X93547636Y-53926841D01*
X93664375Y-54102548D01*
X93744763Y-54297584D01*
X93785669Y-54504174D01*
X93785669Y-54504184D01*
X93785736Y-54504523D01*
X93782372Y-54745472D01*
X93782295Y-54745810D01*
X93782295Y-54745819D01*
X93735637Y-54951187D01*
X93649836Y-55143899D01*
X93528234Y-55316280D01*
X93375466Y-55461759D01*
X93197353Y-55574793D01*
X93000672Y-55651080D01*
X92792927Y-55687712D01*
X92582017Y-55683293D01*
X92375984Y-55637995D01*
X92182672Y-55553538D01*
X92009451Y-55433146D01*
X91862909Y-55281399D01*
X91748633Y-55104076D01*
X91670973Y-54907931D01*
X91632893Y-54700449D01*
X91635838Y-54489515D01*
X91679699Y-54283168D01*
X91762802Y-54089274D01*
X91881985Y-53915212D01*
X92032704Y-53767616D01*
X92209225Y-53652105D01*
X92404819Y-53573079D01*
X92612033Y-53533552D01*
X92822988Y-53535024D01*
X92822988Y-53535024D01*
G37*
G36*
X85202988Y-53535024D02*
X85409626Y-53577441D01*
X85604104Y-53659192D01*
X85778991Y-53777155D01*
X85927636Y-53926841D01*
X86044375Y-54102548D01*
X86124763Y-54297584D01*
X86165669Y-54504174D01*
X86165669Y-54504184D01*
X86165736Y-54504523D01*
X86162372Y-54745472D01*
X86162295Y-54745810D01*
X86162295Y-54745819D01*
X86115637Y-54951187D01*
X86029836Y-55143899D01*
X85908234Y-55316280D01*
X85755466Y-55461759D01*
X85577353Y-55574793D01*
X85380672Y-55651080D01*
X85172927Y-55687712D01*
X84962017Y-55683293D01*
X84755984Y-55637995D01*
X84562672Y-55553538D01*
X84389451Y-55433146D01*
X84242909Y-55281399D01*
X84128633Y-55104076D01*
X84050973Y-54907931D01*
X84012893Y-54700449D01*
X84015838Y-54489515D01*
X84059699Y-54283168D01*
X84142802Y-54089274D01*
X84261985Y-53915212D01*
X84412704Y-53767616D01*
X84589225Y-53652105D01*
X84784819Y-53573079D01*
X84992033Y-53533552D01*
X85202988Y-53535024D01*
X85202988Y-53535024D01*
G37*
G36*
X71232988Y-51503024D02*
X71439626Y-51545441D01*
X71634104Y-51627192D01*
X71808991Y-51745155D01*
X71957636Y-51894841D01*
X72074375Y-52070548D01*
X72154763Y-52265584D01*
X72195669Y-52472174D01*
X72195669Y-52472184D01*
X72195736Y-52472523D01*
X72192372Y-52713472D01*
X72192295Y-52713810D01*
X72192295Y-52713819D01*
X72145637Y-52919187D01*
X72059836Y-53111899D01*
X71938234Y-53284280D01*
X71785466Y-53429759D01*
X71607353Y-53542793D01*
X71410672Y-53619080D01*
X71202927Y-53655712D01*
X70992017Y-53651293D01*
X70785984Y-53605995D01*
X70592672Y-53521538D01*
X70419451Y-53401146D01*
X70272909Y-53249399D01*
X70158633Y-53072076D01*
X70080973Y-52875931D01*
X70042893Y-52668449D01*
X70045838Y-52457515D01*
X70089699Y-52251168D01*
X70172802Y-52057274D01*
X70291985Y-51883212D01*
X70442704Y-51735616D01*
X70619225Y-51620105D01*
X70814819Y-51541079D01*
X71022033Y-51501552D01*
X71232988Y-51503024D01*
X71232988Y-51503024D01*
G37*
G36*
X78852988Y-51503024D02*
X79059626Y-51545441D01*
X79254104Y-51627192D01*
X79428991Y-51745155D01*
X79577636Y-51894841D01*
X79694375Y-52070548D01*
X79774763Y-52265584D01*
X79815669Y-52472174D01*
X79815669Y-52472184D01*
X79815736Y-52472523D01*
X79812372Y-52713472D01*
X79812295Y-52713810D01*
X79812295Y-52713819D01*
X79765637Y-52919187D01*
X79679836Y-53111899D01*
X79558234Y-53284280D01*
X79405466Y-53429759D01*
X79227353Y-53542793D01*
X79030672Y-53619080D01*
X78822927Y-53655712D01*
X78612017Y-53651293D01*
X78405984Y-53605995D01*
X78212672Y-53521538D01*
X78039451Y-53401146D01*
X77892909Y-53249399D01*
X77778633Y-53072076D01*
X77700973Y-52875931D01*
X77662893Y-52668449D01*
X77665838Y-52457515D01*
X77709699Y-52251168D01*
X77792802Y-52057274D01*
X77911985Y-51883212D01*
X78062704Y-51735616D01*
X78239225Y-51620105D01*
X78434819Y-51541079D01*
X78642033Y-51501552D01*
X78852988Y-51503024D01*
X78852988Y-51503024D01*
G37*
G36*
X107708807Y-49520003D02*
X107708813Y-49520004D01*
X107710863Y-49520018D01*
X108065065Y-49559748D01*
X108404804Y-49667520D01*
X108717141Y-49839228D01*
X108990177Y-50068333D01*
X109213513Y-50346107D01*
X109378643Y-50661971D01*
X109479276Y-51003893D01*
X109479279Y-51003929D01*
X109479282Y-51003938D01*
X109511581Y-51358847D01*
X109474330Y-51713273D01*
X109474327Y-51713283D01*
X109474323Y-51713321D01*
X109368926Y-52053804D01*
X109199402Y-52367332D01*
X108972209Y-52641961D01*
X108696001Y-52867231D01*
X108381298Y-53034561D01*
X108040086Y-53137579D01*
X107685364Y-53172360D01*
X104150602Y-53172360D01*
X104127193Y-53172197D01*
X104127187Y-53172196D01*
X104125137Y-53172182D01*
X103770935Y-53132452D01*
X103431196Y-53024680D01*
X103118859Y-52852972D01*
X102845823Y-52623867D01*
X102622487Y-52346093D01*
X102457357Y-52030229D01*
X102356724Y-51688307D01*
X102356721Y-51688271D01*
X102356718Y-51688262D01*
X102324419Y-51333353D01*
X102361670Y-50978927D01*
X102361673Y-50978917D01*
X102361677Y-50978879D01*
X102467074Y-50638396D01*
X102636598Y-50324868D01*
X102863791Y-50050239D01*
X103139999Y-49824969D01*
X103454702Y-49657639D01*
X103795914Y-49554621D01*
X104150636Y-49519840D01*
X107685398Y-49519840D01*
X107708807Y-49520003D01*
X107708807Y-49520003D01*
G37*
G36*
X82408988Y-48963024D02*
X82615626Y-49005441D01*
X82810104Y-49087192D01*
X82984991Y-49205155D01*
X83133636Y-49354841D01*
X83250375Y-49530548D01*
X83330763Y-49725584D01*
X83371669Y-49932174D01*
X83371669Y-49932184D01*
X83371736Y-49932523D01*
X83368372Y-50173472D01*
X83368295Y-50173810D01*
X83368295Y-50173819D01*
X83321637Y-50379187D01*
X83235836Y-50571899D01*
X83114234Y-50744280D01*
X82961466Y-50889759D01*
X82783353Y-51002793D01*
X82586672Y-51079080D01*
X82378927Y-51115712D01*
X82168017Y-51111293D01*
X81961984Y-51065995D01*
X81768672Y-50981538D01*
X81595451Y-50861146D01*
X81448909Y-50709399D01*
X81334633Y-50532076D01*
X81256973Y-50335931D01*
X81218893Y-50128449D01*
X81221838Y-49917515D01*
X81265699Y-49711168D01*
X81348802Y-49517274D01*
X81467985Y-49343212D01*
X81618704Y-49195616D01*
X81795225Y-49080105D01*
X81990819Y-49001079D01*
X82198033Y-48961552D01*
X82408988Y-48963024D01*
X82408988Y-48963024D01*
G37*
G36*
X90028988Y-48963024D02*
X90235626Y-49005441D01*
X90430104Y-49087192D01*
X90604991Y-49205155D01*
X90753636Y-49354841D01*
X90870375Y-49530548D01*
X90950763Y-49725584D01*
X90991669Y-49932174D01*
X90991669Y-49932184D01*
X90991736Y-49932523D01*
X90988372Y-50173472D01*
X90988295Y-50173810D01*
X90988295Y-50173819D01*
X90941637Y-50379187D01*
X90855836Y-50571899D01*
X90734234Y-50744280D01*
X90581466Y-50889759D01*
X90403353Y-51002793D01*
X90206672Y-51079080D01*
X89998927Y-51115712D01*
X89788017Y-51111293D01*
X89581984Y-51065995D01*
X89388672Y-50981538D01*
X89215451Y-50861146D01*
X89068909Y-50709399D01*
X88954633Y-50532076D01*
X88876973Y-50335931D01*
X88838893Y-50128449D01*
X88841838Y-49917515D01*
X88885699Y-49711168D01*
X88968802Y-49517274D01*
X89087985Y-49343212D01*
X89238704Y-49195616D01*
X89415225Y-49080105D01*
X89610819Y-49001079D01*
X89818033Y-48961552D01*
X90028988Y-48963024D01*
X90028988Y-48963024D01*
G37*
G36*
X71232988Y-47439024D02*
X71439626Y-47481441D01*
X71634104Y-47563192D01*
X71808991Y-47681155D01*
X71957636Y-47830841D01*
X72074375Y-48006548D01*
X72154763Y-48201584D01*
X72195669Y-48408174D01*
X72195669Y-48408184D01*
X72195736Y-48408523D01*
X72192372Y-48649472D01*
X72192295Y-48649810D01*
X72192295Y-48649819D01*
X72145637Y-48855187D01*
X72059836Y-49047899D01*
X71938234Y-49220280D01*
X71785466Y-49365759D01*
X71607353Y-49478793D01*
X71410672Y-49555080D01*
X71202927Y-49591712D01*
X70992017Y-49587293D01*
X70785984Y-49541995D01*
X70592672Y-49457538D01*
X70419451Y-49337146D01*
X70272909Y-49185399D01*
X70158633Y-49008076D01*
X70080973Y-48811931D01*
X70042893Y-48604449D01*
X70045838Y-48393515D01*
X70089699Y-48187168D01*
X70172802Y-47993274D01*
X70291985Y-47819212D01*
X70442704Y-47671616D01*
X70619225Y-47556105D01*
X70814819Y-47477079D01*
X71022033Y-47437552D01*
X71232988Y-47439024D01*
X71232988Y-47439024D01*
G37*
G36*
X78852988Y-47439024D02*
X79059626Y-47481441D01*
X79254104Y-47563192D01*
X79428991Y-47681155D01*
X79577636Y-47830841D01*
X79694375Y-48006548D01*
X79774763Y-48201584D01*
X79815669Y-48408174D01*
X79815669Y-48408184D01*
X79815736Y-48408523D01*
X79812372Y-48649472D01*
X79812295Y-48649810D01*
X79812295Y-48649819D01*
X79765637Y-48855187D01*
X79679836Y-49047899D01*
X79558234Y-49220280D01*
X79405466Y-49365759D01*
X79227353Y-49478793D01*
X79030672Y-49555080D01*
X78822927Y-49591712D01*
X78612017Y-49587293D01*
X78405984Y-49541995D01*
X78212672Y-49457538D01*
X78039451Y-49337146D01*
X77892909Y-49185399D01*
X77778633Y-49008076D01*
X77700973Y-48811931D01*
X77662893Y-48604449D01*
X77665838Y-48393515D01*
X77709699Y-48187168D01*
X77792802Y-47993274D01*
X77911985Y-47819212D01*
X78062704Y-47671616D01*
X78239225Y-47556105D01*
X78434819Y-47477079D01*
X78642033Y-47437552D01*
X78852988Y-47439024D01*
X78852988Y-47439024D01*
G37*
G36*
X61549531Y-47484315D02*
X61698636Y-47514923D01*
X61838969Y-47573913D01*
X61965162Y-47659032D01*
X62072424Y-47767044D01*
X62156662Y-47893834D01*
X62214667Y-48034565D01*
X62242090Y-48173060D01*
X62244234Y-48183890D01*
X62241806Y-48357754D01*
X62241728Y-48358097D01*
X62241728Y-48358101D01*
X62208082Y-48506196D01*
X62146170Y-48645252D01*
X62058424Y-48769640D01*
X61948189Y-48874615D01*
X61819664Y-48956180D01*
X61677746Y-49011226D01*
X61527840Y-49037659D01*
X61375649Y-49034470D01*
X61226980Y-49001784D01*
X61087488Y-48940841D01*
X60962496Y-48853969D01*
X60856754Y-48744470D01*
X60774294Y-48616517D01*
X60718256Y-48474982D01*
X60690778Y-48325266D01*
X60692903Y-48173060D01*
X60724553Y-48024163D01*
X60784517Y-47884253D01*
X60870518Y-47758653D01*
X60979275Y-47652150D01*
X61106650Y-47568799D01*
X61247787Y-47511775D01*
X61397308Y-47483253D01*
X61549531Y-47484315D01*
X61549531Y-47484315D01*
G37*
G36*
X67244200Y-49036200D02*
X65691800Y-49036200D01*
X65691800Y-47483800D01*
X67244200Y-47483800D01*
X67244200Y-49036200D01*
X67244200Y-49036200D01*
G37*
G36*
X94199570Y-46676817D02*
X94199575Y-46676819D01*
X94199617Y-46676823D01*
X94403245Y-46739856D01*
X94590750Y-46841240D01*
X94754993Y-46977114D01*
X94889717Y-47142301D01*
X94989789Y-47330510D01*
X95051399Y-47534572D01*
X95072200Y-47746715D01*
X95072200Y-47757321D01*
X95072158Y-47763395D01*
X95072094Y-47772534D01*
X95048333Y-47984366D01*
X94983880Y-48187548D01*
X94881189Y-48374342D01*
X94744172Y-48537632D01*
X94578049Y-48671199D01*
X94389145Y-48769955D01*
X94184658Y-48830139D01*
X94184617Y-48830143D01*
X94184613Y-48830144D01*
X93972377Y-48849459D01*
X93760430Y-48827183D01*
X93760425Y-48827181D01*
X93760383Y-48827177D01*
X93556755Y-48764144D01*
X93369250Y-48662760D01*
X93205007Y-48526886D01*
X93070283Y-48361699D01*
X92970211Y-48173490D01*
X92908601Y-47969428D01*
X92887800Y-47757285D01*
X92887800Y-47746715D01*
X92887906Y-47731466D01*
X92911667Y-47519634D01*
X92976120Y-47316452D01*
X93078811Y-47129658D01*
X93215828Y-46966368D01*
X93381951Y-46832801D01*
X93570855Y-46734045D01*
X93775342Y-46673861D01*
X93775383Y-46673857D01*
X93775387Y-46673856D01*
X93987623Y-46654541D01*
X94199570Y-46676817D01*
X94199570Y-46676817D01*
G37*
G36*
X97612200Y-48844200D02*
X95427800Y-48844200D01*
X95427800Y-46659800D01*
X97612200Y-46659800D01*
X97612200Y-48844200D01*
X97612200Y-48844200D01*
G37*
G36*
X102114194Y-45369514D02*
X102121570Y-45369565D01*
X102291528Y-45388629D01*
X102454546Y-45440342D01*
X102604416Y-45522733D01*
X102735427Y-45632665D01*
X102842592Y-45765950D01*
X102921826Y-45917512D01*
X102970113Y-46081578D01*
X102970116Y-46081609D01*
X102970120Y-46081623D01*
X102985615Y-46251894D01*
X102967743Y-46421937D01*
X102967742Y-46421942D01*
X102967737Y-46421985D01*
X102917164Y-46585360D01*
X102835821Y-46735801D01*
X102726806Y-46867577D01*
X102594272Y-46975669D01*
X102443267Y-47055960D01*
X102279543Y-47105391D01*
X102109335Y-47122080D01*
X101197308Y-47122080D01*
X101192486Y-47122046D01*
X101185110Y-47121995D01*
X101015152Y-47102931D01*
X100852134Y-47051218D01*
X100702264Y-46968827D01*
X100571253Y-46858895D01*
X100464088Y-46725610D01*
X100384854Y-46574048D01*
X100336567Y-46409982D01*
X100336564Y-46409951D01*
X100336560Y-46409937D01*
X100321065Y-46239666D01*
X100338937Y-46069623D01*
X100338938Y-46069618D01*
X100338943Y-46069575D01*
X100389516Y-45906200D01*
X100470859Y-45755759D01*
X100579874Y-45623983D01*
X100712408Y-45515891D01*
X100863413Y-45435600D01*
X101027137Y-45386169D01*
X101197345Y-45369480D01*
X102109372Y-45369480D01*
X102114194Y-45369514D01*
X102114194Y-45369514D01*
G37*
G36*
X83971904Y-44020761D02*
X84249719Y-44077789D01*
X84511179Y-44187697D01*
X84746306Y-44346292D01*
X84946150Y-44547535D01*
X85103098Y-44783763D01*
X85211175Y-45045977D01*
X85266194Y-45323844D01*
X85266194Y-45323849D01*
X85266262Y-45324193D01*
X85261739Y-45648134D01*
X85261662Y-45648472D01*
X85261662Y-45648481D01*
X85198905Y-45924704D01*
X85083551Y-46183795D01*
X84920065Y-46415549D01*
X84714678Y-46611137D01*
X84475215Y-46763105D01*
X84210792Y-46865668D01*
X83931490Y-46914917D01*
X83647935Y-46908976D01*
X83370936Y-46848075D01*
X83111041Y-46734529D01*
X82878157Y-46572671D01*
X82681137Y-46368650D01*
X82527502Y-46130254D01*
X82423094Y-45866552D01*
X82371898Y-45587603D01*
X82375857Y-45304015D01*
X82434825Y-45026595D01*
X82546551Y-44765916D01*
X82706785Y-44531901D01*
X82909419Y-44333467D01*
X83146739Y-44178169D01*
X83409703Y-44071925D01*
X83688291Y-44018782D01*
X83971904Y-44020761D01*
X83971904Y-44020761D01*
G37*
G36*
X89051904Y-44020761D02*
X89329719Y-44077789D01*
X89591179Y-44187697D01*
X89826306Y-44346292D01*
X90026150Y-44547535D01*
X90183098Y-44783763D01*
X90291175Y-45045977D01*
X90346194Y-45323844D01*
X90346194Y-45323849D01*
X90346262Y-45324193D01*
X90341739Y-45648134D01*
X90341662Y-45648472D01*
X90341662Y-45648481D01*
X90278905Y-45924704D01*
X90163551Y-46183795D01*
X90000065Y-46415549D01*
X89794678Y-46611137D01*
X89555215Y-46763105D01*
X89290792Y-46865668D01*
X89011490Y-46914917D01*
X88727935Y-46908976D01*
X88450936Y-46848075D01*
X88191041Y-46734529D01*
X87958157Y-46572671D01*
X87761137Y-46368650D01*
X87607502Y-46130254D01*
X87503094Y-45866552D01*
X87451898Y-45587603D01*
X87455857Y-45304015D01*
X87514825Y-45026595D01*
X87626551Y-44765916D01*
X87786785Y-44531901D01*
X87989419Y-44333467D01*
X88226739Y-44178169D01*
X88489703Y-44071925D01*
X88768291Y-44018782D01*
X89051904Y-44020761D01*
X89051904Y-44020761D01*
G37*
G36*
X71232988Y-43629024D02*
X71439626Y-43671441D01*
X71634104Y-43753192D01*
X71808991Y-43871155D01*
X71957636Y-44020841D01*
X72074375Y-44196548D01*
X72154763Y-44391584D01*
X72195669Y-44598174D01*
X72195669Y-44598184D01*
X72195736Y-44598523D01*
X72192372Y-44839472D01*
X72192295Y-44839810D01*
X72192295Y-44839819D01*
X72145637Y-45045187D01*
X72059836Y-45237899D01*
X71938234Y-45410280D01*
X71785466Y-45555759D01*
X71607353Y-45668793D01*
X71410672Y-45745080D01*
X71202927Y-45781712D01*
X70992017Y-45777293D01*
X70785984Y-45731995D01*
X70592672Y-45647538D01*
X70419451Y-45527146D01*
X70272909Y-45375399D01*
X70158633Y-45198076D01*
X70080973Y-45001931D01*
X70042893Y-44794449D01*
X70045838Y-44583515D01*
X70089699Y-44377168D01*
X70172802Y-44183274D01*
X70291985Y-44009212D01*
X70442704Y-43861616D01*
X70619225Y-43746105D01*
X70814819Y-43667079D01*
X71022033Y-43627552D01*
X71232988Y-43629024D01*
X71232988Y-43629024D01*
G37*
G36*
X78852988Y-43629024D02*
X79059626Y-43671441D01*
X79254104Y-43753192D01*
X79428991Y-43871155D01*
X79577636Y-44020841D01*
X79694375Y-44196548D01*
X79774763Y-44391584D01*
X79815669Y-44598174D01*
X79815669Y-44598184D01*
X79815736Y-44598523D01*
X79812372Y-44839472D01*
X79812295Y-44839810D01*
X79812295Y-44839819D01*
X79765637Y-45045187D01*
X79679836Y-45237899D01*
X79558234Y-45410280D01*
X79405466Y-45555759D01*
X79227353Y-45668793D01*
X79030672Y-45745080D01*
X78822927Y-45781712D01*
X78612017Y-45777293D01*
X78405984Y-45731995D01*
X78212672Y-45647538D01*
X78039451Y-45527146D01*
X77892909Y-45375399D01*
X77778633Y-45198076D01*
X77700973Y-45001931D01*
X77662893Y-44794449D01*
X77665838Y-44583515D01*
X77709699Y-44377168D01*
X77792802Y-44183274D01*
X77911985Y-44009212D01*
X78062704Y-43861616D01*
X78239225Y-43746105D01*
X78434819Y-43667079D01*
X78642033Y-43627552D01*
X78852988Y-43629024D01*
X78852988Y-43629024D01*
G37*
G36*
X102114194Y-42870154D02*
X102121570Y-42870205D01*
X102291528Y-42889269D01*
X102454546Y-42940982D01*
X102604416Y-43023373D01*
X102735427Y-43133305D01*
X102842592Y-43266590D01*
X102921826Y-43418152D01*
X102970113Y-43582218D01*
X102970116Y-43582249D01*
X102970120Y-43582263D01*
X102985615Y-43752534D01*
X102967743Y-43922577D01*
X102967742Y-43922582D01*
X102967737Y-43922625D01*
X102917164Y-44086000D01*
X102835821Y-44236441D01*
X102726806Y-44368217D01*
X102594272Y-44476309D01*
X102443267Y-44556600D01*
X102279543Y-44606031D01*
X102109335Y-44622720D01*
X101197308Y-44622720D01*
X101192486Y-44622686D01*
X101185110Y-44622635D01*
X101015152Y-44603571D01*
X100852134Y-44551858D01*
X100702264Y-44469467D01*
X100571253Y-44359535D01*
X100464088Y-44226250D01*
X100384854Y-44074688D01*
X100336567Y-43910622D01*
X100336564Y-43910591D01*
X100336560Y-43910577D01*
X100321065Y-43740306D01*
X100338937Y-43570263D01*
X100338938Y-43570258D01*
X100338943Y-43570215D01*
X100389516Y-43406840D01*
X100470859Y-43256399D01*
X100579874Y-43124623D01*
X100712408Y-43016531D01*
X100863413Y-42936240D01*
X101027137Y-42886809D01*
X101197345Y-42870120D01*
X102109372Y-42870120D01*
X102114194Y-42870154D01*
X102114194Y-42870154D01*
G37*
G36*
X95520593Y-39335514D02*
X96015486Y-39437101D01*
X96481235Y-39632884D01*
X96900080Y-39915399D01*
X97256074Y-40273886D01*
X97535656Y-40694693D01*
X97728181Y-41161791D01*
X97826243Y-41657041D01*
X97826243Y-41657052D01*
X97826310Y-41657391D01*
X97818253Y-42234446D01*
X97818176Y-42234784D01*
X97818176Y-42234793D01*
X97706323Y-42727113D01*
X97500834Y-43188650D01*
X97209608Y-43601488D01*
X96843742Y-43949898D01*
X96417172Y-44220608D01*
X95946142Y-44403308D01*
X95448602Y-44491038D01*
X94943492Y-44480457D01*
X94450056Y-44371968D01*
X93987091Y-44169704D01*
X93572235Y-43881371D01*
X93221280Y-43517947D01*
X92947598Y-43093274D01*
X92761612Y-42623529D01*
X92670412Y-42126616D01*
X92677465Y-41621445D01*
X92782507Y-41127264D01*
X92981533Y-40662901D01*
X93266966Y-40246036D01*
X93627930Y-39892554D01*
X94050681Y-39615914D01*
X94519113Y-39426654D01*
X95015380Y-39331987D01*
X95520593Y-39335514D01*
X95520593Y-39335514D01*
G37*
G36*
X63770593Y-39335514D02*
X64265486Y-39437101D01*
X64731235Y-39632884D01*
X65150080Y-39915399D01*
X65506074Y-40273886D01*
X65785656Y-40694693D01*
X65978181Y-41161791D01*
X66076243Y-41657041D01*
X66076243Y-41657052D01*
X66076310Y-41657391D01*
X66068253Y-42234446D01*
X66068176Y-42234784D01*
X66068176Y-42234793D01*
X65956323Y-42727113D01*
X65750834Y-43188650D01*
X65459608Y-43601488D01*
X65093742Y-43949898D01*
X64667172Y-44220608D01*
X64196142Y-44403308D01*
X63698602Y-44491038D01*
X63193492Y-44480457D01*
X62700056Y-44371968D01*
X62237091Y-44169704D01*
X61822235Y-43881371D01*
X61471280Y-43517947D01*
X61197598Y-43093274D01*
X61011612Y-42623529D01*
X60920412Y-42126616D01*
X60927465Y-41621445D01*
X61032507Y-41127264D01*
X61231533Y-40662901D01*
X61516966Y-40246036D01*
X61877930Y-39892554D01*
X62300681Y-39615914D01*
X62769113Y-39426654D01*
X63265380Y-39331987D01*
X63770593Y-39335514D01*
X63770593Y-39335514D01*
G37*
G36*
X86485646Y-41730594D02*
X86715434Y-41777764D01*
X86931698Y-41868672D01*
X87126179Y-41999852D01*
X87291477Y-42166307D01*
X87421293Y-42361698D01*
X87510688Y-42578584D01*
X87556184Y-42808357D01*
X87556184Y-42808368D01*
X87556251Y-42808707D01*
X87552510Y-43076649D01*
X87552433Y-43076987D01*
X87552433Y-43076996D01*
X87500539Y-43305410D01*
X87405126Y-43519712D01*
X87269901Y-43711404D01*
X87100019Y-43873181D01*
X86901951Y-43998879D01*
X86683237Y-44083712D01*
X86452218Y-44124448D01*
X86217680Y-44119535D01*
X85988563Y-44069160D01*
X85773595Y-43975243D01*
X85580968Y-43841363D01*
X85418009Y-43672615D01*
X85290931Y-43475427D01*
X85204571Y-43257309D01*
X85162226Y-43026582D01*
X85165500Y-42792017D01*
X85214275Y-42562553D01*
X85306687Y-42346937D01*
X85439222Y-42153375D01*
X85606827Y-41989244D01*
X85803123Y-41860792D01*
X86020630Y-41772913D01*
X86251058Y-41728957D01*
X86485646Y-41730594D01*
X86485646Y-41730594D01*
G37*
G36*
X107708807Y-39321903D02*
X107708813Y-39321904D01*
X107710863Y-39321918D01*
X108065065Y-39361648D01*
X108404804Y-39469420D01*
X108717141Y-39641128D01*
X108990177Y-39870233D01*
X109213513Y-40148007D01*
X109378643Y-40463871D01*
X109479276Y-40805793D01*
X109479279Y-40805829D01*
X109479282Y-40805838D01*
X109511581Y-41160747D01*
X109474330Y-41515173D01*
X109474327Y-41515183D01*
X109474323Y-41515221D01*
X109368926Y-41855704D01*
X109199402Y-42169232D01*
X108972209Y-42443861D01*
X108696001Y-42669131D01*
X108381298Y-42836461D01*
X108040086Y-42939479D01*
X107685364Y-42974260D01*
X104150602Y-42974260D01*
X104127193Y-42974097D01*
X104127187Y-42974096D01*
X104125137Y-42974082D01*
X103770935Y-42934352D01*
X103431196Y-42826580D01*
X103118859Y-42654872D01*
X102845823Y-42425767D01*
X102622487Y-42147993D01*
X102457357Y-41832129D01*
X102356724Y-41490207D01*
X102356721Y-41490171D01*
X102356718Y-41490162D01*
X102324419Y-41135253D01*
X102361670Y-40780827D01*
X102361673Y-40780817D01*
X102361677Y-40780779D01*
X102467074Y-40440296D01*
X102636598Y-40126768D01*
X102863791Y-39852139D01*
X103139999Y-39626869D01*
X103454702Y-39459539D01*
X103795914Y-39356521D01*
X104150636Y-39321740D01*
X107685398Y-39321740D01*
X107708807Y-39321903D01*
X107708807Y-39321903D01*
G37*
G36*
X71232988Y-39819024D02*
X71439626Y-39861441D01*
X71634104Y-39943192D01*
X71808991Y-40061155D01*
X71957636Y-40210841D01*
X72074375Y-40386548D01*
X72154763Y-40581584D01*
X72195669Y-40788174D01*
X72195669Y-40788184D01*
X72195736Y-40788523D01*
X72192372Y-41029472D01*
X72192295Y-41029810D01*
X72192295Y-41029819D01*
X72145637Y-41235187D01*
X72059836Y-41427899D01*
X71938234Y-41600280D01*
X71785466Y-41745759D01*
X71607353Y-41858793D01*
X71410672Y-41935080D01*
X71202927Y-41971712D01*
X70992017Y-41967293D01*
X70785984Y-41921995D01*
X70592672Y-41837538D01*
X70419451Y-41717146D01*
X70272909Y-41565399D01*
X70158633Y-41388076D01*
X70080973Y-41191931D01*
X70042893Y-40984449D01*
X70045838Y-40773515D01*
X70089699Y-40567168D01*
X70172802Y-40373274D01*
X70291985Y-40199212D01*
X70442704Y-40051616D01*
X70619225Y-39936105D01*
X70814819Y-39857079D01*
X71022033Y-39817552D01*
X71232988Y-39819024D01*
X71232988Y-39819024D01*
G37*
G36*
X78852988Y-39819024D02*
X79059626Y-39861441D01*
X79254104Y-39943192D01*
X79428991Y-40061155D01*
X79577636Y-40210841D01*
X79694375Y-40386548D01*
X79774763Y-40581584D01*
X79815669Y-40788174D01*
X79815669Y-40788184D01*
X79815736Y-40788523D01*
X79812372Y-41029472D01*
X79812295Y-41029810D01*
X79812295Y-41029819D01*
X79765637Y-41235187D01*
X79679836Y-41427899D01*
X79558234Y-41600280D01*
X79405466Y-41745759D01*
X79227353Y-41858793D01*
X79030672Y-41935080D01*
X78822927Y-41971712D01*
X78612017Y-41967293D01*
X78405984Y-41921995D01*
X78212672Y-41837538D01*
X78039451Y-41717146D01*
X77892909Y-41565399D01*
X77778633Y-41388076D01*
X77700973Y-41191931D01*
X77662893Y-40984449D01*
X77665838Y-40773515D01*
X77709699Y-40567168D01*
X77792802Y-40373274D01*
X77911985Y-40199212D01*
X78062704Y-40051616D01*
X78239225Y-39936105D01*
X78434819Y-39857079D01*
X78642033Y-39817552D01*
X78852988Y-39819024D01*
X78852988Y-39819024D01*
G37*
G36*
X83971904Y-38940761D02*
X84249719Y-38997789D01*
X84511179Y-39107697D01*
X84746306Y-39266292D01*
X84946150Y-39467535D01*
X85103098Y-39703763D01*
X85211175Y-39965977D01*
X85266194Y-40243844D01*
X85266194Y-40243849D01*
X85266262Y-40244193D01*
X85261739Y-40568134D01*
X85261662Y-40568472D01*
X85261662Y-40568481D01*
X85198905Y-40844704D01*
X85083551Y-41103795D01*
X84920065Y-41335549D01*
X84714678Y-41531137D01*
X84475215Y-41683105D01*
X84210792Y-41785668D01*
X83931490Y-41834917D01*
X83647935Y-41828976D01*
X83370936Y-41768075D01*
X83111041Y-41654529D01*
X82878157Y-41492671D01*
X82681137Y-41288650D01*
X82527502Y-41050254D01*
X82423094Y-40786552D01*
X82371898Y-40507603D01*
X82375857Y-40224015D01*
X82434825Y-39946595D01*
X82546551Y-39685916D01*
X82706785Y-39451901D01*
X82909419Y-39253467D01*
X83146739Y-39098169D01*
X83409703Y-38991925D01*
X83688291Y-38938782D01*
X83971904Y-38940761D01*
X83971904Y-38940761D01*
G37*
G36*
X89051904Y-38940761D02*
X89329719Y-38997789D01*
X89591179Y-39107697D01*
X89826306Y-39266292D01*
X90026150Y-39467535D01*
X90183098Y-39703763D01*
X90291175Y-39965977D01*
X90346194Y-40243844D01*
X90346194Y-40243849D01*
X90346262Y-40244193D01*
X90341739Y-40568134D01*
X90341662Y-40568472D01*
X90341662Y-40568481D01*
X90278905Y-40844704D01*
X90163551Y-41103795D01*
X90000065Y-41335549D01*
X89794678Y-41531137D01*
X89555215Y-41683105D01*
X89290792Y-41785668D01*
X89011490Y-41834917D01*
X88727935Y-41828976D01*
X88450936Y-41768075D01*
X88191041Y-41654529D01*
X87958157Y-41492671D01*
X87761137Y-41288650D01*
X87607502Y-41050254D01*
X87503094Y-40786552D01*
X87451898Y-40507603D01*
X87455857Y-40224015D01*
X87514825Y-39946595D01*
X87626551Y-39685916D01*
X87786785Y-39451901D01*
X87989419Y-39253467D01*
X88226739Y-39098169D01*
X88489703Y-38991925D01*
X88768291Y-38938782D01*
X89051904Y-38940761D01*
X89051904Y-38940761D01*
G37*
M02*
