%TF.GenerationSoftware,KiCad,Pcbnew,4.0.4+e1-6308~48~ubuntu16.04.1-stable*%
%TF.CreationDate,2016-12-09T19:15:12-08:00*%
%TF.ProjectId,e202var-vlf-radio-receiver,653230327661722D766C662D72616469,v1.2*%
%TF.FileFunction,Copper,L1,Top,Signal*%
%FSLAX46Y46*%
G04 Gerber Fmt 4.6, Leading zero omitted, Abs format (unit mm)*
G04 Created by KiCad (PCBNEW 4.0.4+e1-6308~48~ubuntu16.04.1-stable) date Fri Dec  9 19:15:12 2016*
%MOMM*%
%LPD*%
G01*
G04 APERTURE LIST*
%ADD10C,0.350000*%
%ADD11C,4.000000*%
%ADD12C,2.740000*%
%ADD13C,2.240000*%
%ADD14O,7.000240X3.500120*%
%ADD15O,2.499360X1.600200*%
%ADD16R,1.400000X1.400000*%
%ADD17C,1.400000*%
%ADD18R,1.300000X1.300000*%
%ADD19C,1.300000*%
%ADD20C,1.998980*%
%ADD21R,1.998980X1.998980*%
%ADD22R,2.032000X2.032000*%
%ADD23O,2.032000X2.032000*%
%ADD24O,1.501140X0.899160*%
%ADD25O,0.899160X1.501140*%
%ADD26C,2.032000*%
%ADD27O,1.699260X3.500120*%
%ADD28O,2.300000X1.600000*%
%ADD29C,5.000000*%
%ADD30C,2.184400*%
%ADD31R,1.900000X2.000000*%
%ADD32C,1.900000*%
%ADD33C,0.863600*%
%ADD34C,0.508000*%
%ADD35C,0.254000*%
%ADD36C,0.350000*%
G04 APERTURE END LIST*
D10*
D11*
X91313000Y-109522260D03*
X91313000Y-115521740D03*
X96012000Y-112522000D03*
X72390000Y-105410000D03*
X66390520Y-105410000D03*
X69390260Y-110109000D03*
D12*
X83820000Y-45466000D03*
X88900000Y-45466000D03*
X88900000Y-40386000D03*
X83820000Y-40386000D03*
D13*
X86360000Y-42926000D03*
D14*
X105943400Y-105900220D03*
X105943400Y-116098320D03*
D15*
X101678740Y-110998000D03*
X101678740Y-108498640D03*
D14*
X105918000Y-41148000D03*
X105918000Y-51346100D03*
D15*
X101653340Y-46245780D03*
X101653340Y-43746420D03*
D14*
X105943400Y-88882220D03*
X105943400Y-99080320D03*
D15*
X101678740Y-93980000D03*
X101678740Y-91480640D03*
D16*
X60532000Y-88138000D03*
D17*
X65532000Y-88138000D03*
D16*
X66468000Y-48260000D03*
D17*
X61468000Y-48260000D03*
D16*
X62738000Y-67056000D03*
D17*
X62738000Y-62056000D03*
D18*
X80264000Y-76240000D03*
D19*
X80264000Y-78740000D03*
D18*
X90932000Y-88392000D03*
D19*
X90932000Y-90892000D03*
D18*
X104140000Y-72136000D03*
D19*
X101640000Y-72136000D03*
D16*
X103124000Y-76534000D03*
D17*
X103124000Y-81534000D03*
D18*
X61722000Y-73152000D03*
D19*
X64222000Y-73152000D03*
D16*
X99568000Y-62404000D03*
D17*
X99568000Y-57404000D03*
D18*
X98044000Y-66548000D03*
D19*
X100544000Y-66548000D03*
D18*
X90932000Y-98258000D03*
D19*
X90932000Y-95758000D03*
D16*
X63246000Y-77804000D03*
D17*
X63246000Y-82804000D03*
D18*
X92924000Y-62992000D03*
D19*
X90424000Y-62992000D03*
D16*
X69342000Y-97964000D03*
D17*
X69342000Y-92964000D03*
D20*
X83820000Y-116840000D03*
D21*
X83820000Y-106680000D03*
D20*
X95752920Y-87376000D03*
D21*
X95752920Y-97536000D03*
D22*
X77724000Y-116078000D03*
D23*
X75184000Y-116078000D03*
D22*
X61976000Y-97282000D03*
D23*
X61976000Y-94742000D03*
D22*
X96520000Y-47752000D03*
D23*
X93980000Y-47752000D03*
D24*
X82042000Y-94488000D03*
X82042000Y-93218000D03*
X82042000Y-95758000D03*
D25*
X63754000Y-55118000D03*
X62484000Y-55118000D03*
X65024000Y-55118000D03*
D20*
X78740000Y-52578000D03*
X71120000Y-52578000D03*
X85090000Y-67818000D03*
X92710000Y-67818000D03*
X74422000Y-75692000D03*
X74422000Y-83312000D03*
X71120000Y-40894000D03*
X78740000Y-40894000D03*
X89916000Y-50038000D03*
X82296000Y-50038000D03*
X85090000Y-58928000D03*
X92710000Y-58928000D03*
X97536000Y-72644000D03*
X97536000Y-80264000D03*
X92710000Y-54610000D03*
X85090000Y-54610000D03*
D26*
X111760000Y-72390000D03*
X111760000Y-77470000D03*
X111760000Y-82550000D03*
D20*
X86106000Y-98044000D03*
X86106000Y-90424000D03*
X77470000Y-88392000D03*
X77470000Y-96012000D03*
X73914000Y-88392000D03*
X73914000Y-96012000D03*
X69596000Y-83058000D03*
X69596000Y-75438000D03*
D27*
X91948000Y-104140000D03*
X89408000Y-104140000D03*
X94488000Y-104140000D03*
D24*
X82042000Y-88138000D03*
X82042000Y-86868000D03*
X82042000Y-89408000D03*
D28*
X78740000Y-68326000D03*
X78740000Y-65786000D03*
X78740000Y-63246000D03*
X78740000Y-60706000D03*
X71120000Y-60706000D03*
X71120000Y-63246000D03*
X71120000Y-65786000D03*
X71120000Y-68326000D03*
X85344000Y-74168000D03*
X85344000Y-76708000D03*
X85344000Y-79248000D03*
X85344000Y-81788000D03*
X92964000Y-81788000D03*
X92964000Y-79248000D03*
X92964000Y-76708000D03*
X92964000Y-74168000D03*
D20*
X78740000Y-44704000D03*
X71120000Y-44704000D03*
D29*
X63500000Y-41910000D03*
X63500000Y-114300000D03*
X95250000Y-41910000D03*
D30*
X112014000Y-57150000D03*
X112014000Y-59690000D03*
X112014000Y-64770000D03*
X112014000Y-67310000D03*
X106934000Y-62230000D03*
D20*
X71120000Y-48514000D03*
X78740000Y-48514000D03*
D16*
X77296000Y-101346000D03*
D17*
X82296000Y-101346000D03*
D31*
X79756000Y-108712000D03*
D32*
X77216000Y-108712000D03*
D33*
X80264000Y-82042000D03*
X80264000Y-94488000D03*
X66802000Y-69596000D03*
X86868000Y-86614000D03*
X89916000Y-86614000D03*
X68580000Y-64516000D03*
X75692000Y-92710000D03*
X84328000Y-91948000D03*
X84328000Y-87122000D03*
D34*
X98346260Y-109522260D02*
X98346260Y-89969340D01*
X98346260Y-89969340D02*
X95752920Y-87376000D01*
X99822000Y-110998000D02*
X98346260Y-109522260D01*
X98346260Y-109522260D02*
X91313000Y-109522260D01*
X101678740Y-110998000D02*
X99822000Y-110998000D01*
X80518000Y-42926000D02*
X86360000Y-42926000D01*
X78740000Y-44704000D02*
X80518000Y-42926000D01*
X86360000Y-42926000D02*
X90170000Y-42926000D01*
X90170000Y-42926000D02*
X92964000Y-45720000D01*
X92964000Y-45720000D02*
X96012000Y-45720000D01*
X96012000Y-45720000D02*
X96520000Y-46228000D01*
X96520000Y-46228000D02*
X96520000Y-47752000D01*
X96520000Y-47752000D02*
X99697540Y-47752000D01*
X99697540Y-47752000D02*
X101203760Y-46245780D01*
X101203760Y-46245780D02*
X101653340Y-46245780D01*
X79259430Y-90932000D02*
X71374000Y-90932000D01*
X71374000Y-90932000D02*
X69342000Y-92964000D01*
X82042000Y-89408000D02*
X80783430Y-89408000D01*
X80783430Y-89408000D02*
X79259430Y-90932000D01*
X61976000Y-94742000D02*
X67564000Y-94742000D01*
X67564000Y-94742000D02*
X69342000Y-92964000D01*
X60532000Y-88138000D02*
X60532000Y-93298000D01*
X60532000Y-93298000D02*
X61976000Y-94742000D01*
X66468000Y-48260000D02*
X67676000Y-48260000D01*
X67676000Y-48260000D02*
X69200000Y-46736000D01*
X69200000Y-46736000D02*
X76962000Y-46736000D01*
X76962000Y-46736000D02*
X78740000Y-48514000D01*
X78740000Y-48514000D02*
X78740000Y-52578000D01*
X71120000Y-40894000D02*
X71120000Y-44704000D01*
X63246000Y-48260000D02*
X66802000Y-44704000D01*
X66802000Y-44704000D02*
X71120000Y-44704000D01*
X61468000Y-48260000D02*
X63246000Y-48260000D01*
X82042000Y-82042000D02*
X80264000Y-82042000D01*
X80264000Y-82042000D02*
X78740000Y-82042000D01*
X82042000Y-94488000D02*
X80264000Y-94488000D01*
X82042000Y-95758000D02*
X82042000Y-94488000D01*
X72136000Y-75184000D02*
X66802000Y-69850000D01*
X66802000Y-69850000D02*
X66802000Y-69596000D01*
X72136000Y-77470000D02*
X72136000Y-75184000D01*
X72644000Y-77978000D02*
X72136000Y-77470000D01*
X74676000Y-77978000D02*
X72644000Y-77978000D01*
X78740000Y-82042000D02*
X74676000Y-77978000D01*
X84836000Y-79248000D02*
X82042000Y-82042000D01*
X85344000Y-79248000D02*
X84836000Y-79248000D01*
X71120000Y-48514000D02*
X67818000Y-51816000D01*
X67818000Y-51816000D02*
X63754000Y-51816000D01*
X63754000Y-51816000D02*
X62484000Y-53086000D01*
X62484000Y-53086000D02*
X62484000Y-55118000D01*
X60706000Y-60198000D02*
X60706000Y-63816000D01*
X60706000Y-63816000D02*
X62738000Y-65848000D01*
X62738000Y-65848000D02*
X62738000Y-67056000D01*
X62484000Y-58420000D02*
X60706000Y-60198000D01*
X62484000Y-55118000D02*
X62484000Y-58420000D01*
X62738000Y-62056000D02*
X62738000Y-60960000D01*
X62738000Y-60960000D02*
X71120000Y-52578000D01*
X78740000Y-68326000D02*
X80264000Y-69850000D01*
X80264000Y-76240000D02*
X80264000Y-69850000D01*
X79090000Y-68326000D02*
X78740000Y-68326000D01*
X78232000Y-73780000D02*
X78232000Y-76708000D01*
X78232000Y-76708000D02*
X80264000Y-78740000D01*
X71120000Y-68326000D02*
X72778000Y-68326000D01*
X72778000Y-68326000D02*
X78232000Y-73780000D01*
X95250000Y-79248000D02*
X96520000Y-79248000D01*
X92964000Y-79248000D02*
X95250000Y-79248000D01*
X95250000Y-79248000D02*
X95250000Y-77978000D01*
X96520000Y-79248000D02*
X97536000Y-80264000D01*
X92964000Y-79248000D02*
X91306000Y-79248000D01*
X91306000Y-79248000D02*
X90932000Y-79622000D01*
X90932000Y-79622000D02*
X90932000Y-87234000D01*
X90932000Y-87234000D02*
X90932000Y-88392000D01*
X95250000Y-72390000D02*
X95250000Y-76962000D01*
X95250000Y-76962000D02*
X95250000Y-77312000D01*
X95250000Y-77978000D02*
X95250000Y-76962000D01*
X93314000Y-79248000D02*
X92964000Y-79248000D01*
X92710000Y-69850000D02*
X95250000Y-72390000D01*
X92710000Y-67818000D02*
X92710000Y-69850000D01*
X74422000Y-75692000D02*
X79248000Y-80518000D01*
X79248000Y-80518000D02*
X81184000Y-80518000D01*
X81184000Y-80518000D02*
X84994000Y-76708000D01*
X84994000Y-76708000D02*
X85344000Y-76708000D01*
X88742000Y-79756000D02*
X88742000Y-88702000D01*
X88742000Y-88702000D02*
X88900000Y-88860000D01*
X88742000Y-79756000D02*
X85694000Y-76708000D01*
X85694000Y-76708000D02*
X85344000Y-76708000D01*
X90932000Y-90892000D02*
X88900000Y-88860000D01*
X87472000Y-74930000D02*
X87472000Y-70200000D01*
X87472000Y-70200000D02*
X85090000Y-67818000D01*
X85694000Y-76708000D02*
X87472000Y-74930000D01*
X78740000Y-65786000D02*
X93726000Y-65786000D01*
X93726000Y-65786000D02*
X97790000Y-69850000D01*
X104140000Y-70866000D02*
X104140000Y-72136000D01*
X97790000Y-69850000D02*
X103124000Y-69850000D01*
X103124000Y-69850000D02*
X104140000Y-70866000D01*
X92202000Y-93218000D02*
X88900000Y-93218000D01*
X88900000Y-93218000D02*
X86106000Y-90424000D01*
X93218000Y-92202000D02*
X92202000Y-93218000D01*
X93218000Y-86360000D02*
X93218000Y-92202000D01*
X94234000Y-85344000D02*
X93218000Y-86360000D01*
X95522000Y-85344000D02*
X94234000Y-85344000D01*
X103124000Y-76534000D02*
X103124000Y-77742000D01*
X103124000Y-77742000D02*
X95522000Y-85344000D01*
X104140000Y-72136000D02*
X104140000Y-75518000D01*
X104140000Y-75518000D02*
X103124000Y-76534000D01*
X104140000Y-72136000D02*
X111506000Y-72136000D01*
X111506000Y-72136000D02*
X111760000Y-72390000D01*
X97536000Y-72644000D02*
X101132000Y-72644000D01*
X101132000Y-72644000D02*
X101640000Y-72136000D01*
X61722000Y-73152000D02*
X61722000Y-71994000D01*
X61722000Y-71994000D02*
X67930000Y-65786000D01*
X67930000Y-65786000D02*
X71120000Y-65786000D01*
X112014000Y-64770000D02*
X112014000Y-67310000D01*
X102790000Y-62404000D02*
X105156000Y-64770000D01*
X105156000Y-64770000D02*
X112014000Y-64770000D01*
X99568000Y-62404000D02*
X102790000Y-62404000D01*
X92710000Y-54610000D02*
X96774000Y-54610000D01*
X96774000Y-54610000D02*
X99568000Y-57404000D01*
X92710000Y-58928000D02*
X98044000Y-64262000D01*
X98044000Y-64262000D02*
X98044000Y-66548000D01*
X85598000Y-87884000D02*
X86868000Y-86614000D01*
X77296000Y-101346000D02*
X77216000Y-101346000D01*
X77216000Y-101346000D02*
X73914000Y-98044000D01*
X73914000Y-98044000D02*
X73914000Y-96012000D01*
X82042000Y-93218000D02*
X76708000Y-93218000D01*
X76708000Y-93218000D02*
X73914000Y-96012000D01*
X85598000Y-87884000D02*
X82042000Y-91440000D01*
X82042000Y-91440000D02*
X82042000Y-93218000D01*
X89916000Y-79560356D02*
X89916000Y-86614000D01*
X92964000Y-76708000D02*
X92768356Y-76708000D01*
X92768356Y-76708000D02*
X89916000Y-79560356D01*
X68580000Y-64128000D02*
X68580000Y-64516000D01*
X71120000Y-63246000D02*
X69462000Y-63246000D01*
X69462000Y-63246000D02*
X68580000Y-64128000D01*
X63246000Y-77804000D02*
X67230000Y-77804000D01*
X67230000Y-77804000D02*
X69596000Y-75438000D01*
X92924000Y-62992000D02*
X92924000Y-63714000D01*
X73388000Y-92710000D02*
X75692000Y-92710000D01*
X69342000Y-97964000D02*
X69342000Y-96756000D01*
X69342000Y-96756000D02*
X73388000Y-92710000D01*
X69342000Y-97964000D02*
X62658000Y-97964000D01*
X62658000Y-97964000D02*
X61976000Y-97282000D01*
X83820000Y-116840000D02*
X78486000Y-116840000D01*
X78486000Y-116840000D02*
X77724000Y-116078000D01*
X88646000Y-100076000D02*
X88784430Y-100076000D01*
X88784430Y-100076000D02*
X91948000Y-103239570D01*
X91948000Y-103239570D02*
X91948000Y-104140000D01*
X83820000Y-106680000D02*
X83820000Y-104902000D01*
X85344000Y-92964000D02*
X84328000Y-91948000D01*
X83820000Y-104902000D02*
X88646000Y-100076000D01*
X88646000Y-100076000D02*
X88646000Y-94996000D01*
X88646000Y-94996000D02*
X86614000Y-92964000D01*
X86614000Y-92964000D02*
X85344000Y-92964000D01*
X82042000Y-86868000D02*
X84074000Y-86868000D01*
X84074000Y-86868000D02*
X84328000Y-87122000D01*
X73914000Y-88392000D02*
X69596000Y-84074000D01*
X69596000Y-84074000D02*
X69596000Y-83058000D01*
X82042000Y-86868000D02*
X78994000Y-86868000D01*
X78994000Y-86868000D02*
X77470000Y-88392000D01*
X77470000Y-88392000D02*
X73914000Y-88392000D01*
X94488000Y-104140000D02*
X94488000Y-98800920D01*
X94488000Y-98800920D02*
X95752920Y-97536000D01*
X77216000Y-108712000D02*
X77216000Y-106172000D01*
X77216000Y-106172000D02*
X79248000Y-104140000D01*
X79248000Y-104140000D02*
X79248000Y-97790000D01*
X79248000Y-97790000D02*
X77470000Y-96012000D01*
X75184000Y-111032427D02*
X75184000Y-116078000D01*
X72390000Y-105410000D02*
X72390000Y-108238427D01*
X72390000Y-108238427D02*
X75184000Y-111032427D01*
X89916000Y-50038000D02*
X91694000Y-50038000D01*
X91694000Y-50038000D02*
X93980000Y-47752000D01*
X85090000Y-58928000D02*
X71590000Y-58928000D01*
X71590000Y-58928000D02*
X71120000Y-59398000D01*
X71120000Y-59398000D02*
X71120000Y-60706000D01*
X85090000Y-54610000D02*
X85090000Y-58928000D01*
D35*
G36*
X61726485Y-39250727D02*
X60843826Y-40131847D01*
X60365546Y-41283674D01*
X60364457Y-42530854D01*
X60840727Y-43683515D01*
X61721847Y-44566174D01*
X62873674Y-45044454D01*
X64120854Y-45045543D01*
X65273515Y-44569273D01*
X66156174Y-43688153D01*
X66634454Y-42536326D01*
X66635543Y-41289146D01*
X66159273Y-40136485D01*
X65278153Y-39253826D01*
X64212190Y-38811200D01*
X82652514Y-38811200D01*
X82579559Y-38965954D01*
X83820000Y-40206395D01*
X85060441Y-38965954D01*
X84987486Y-38811200D01*
X87732514Y-38811200D01*
X87659559Y-38965954D01*
X88900000Y-40206395D01*
X90140441Y-38965954D01*
X90067486Y-38811200D01*
X94540221Y-38811200D01*
X93476485Y-39250727D01*
X92593826Y-40131847D01*
X92115546Y-41283674D01*
X92114457Y-42530854D01*
X92590727Y-43683515D01*
X93471847Y-44566174D01*
X94109619Y-44831000D01*
X93332236Y-44831000D01*
X90798618Y-42297382D01*
X90770877Y-42278846D01*
X90510206Y-42104671D01*
X90170000Y-42037000D01*
X90031564Y-42037000D01*
X90140441Y-41806046D01*
X88900000Y-40565605D01*
X88885858Y-40579748D01*
X88706253Y-40400143D01*
X88720395Y-40386000D01*
X89079605Y-40386000D01*
X90320046Y-41626441D01*
X90625312Y-41482531D01*
X90913605Y-40738814D01*
X90895344Y-39941385D01*
X90625312Y-39289469D01*
X90320046Y-39145559D01*
X89079605Y-40386000D01*
X88720395Y-40386000D01*
X87479954Y-39145559D01*
X87174688Y-39289469D01*
X86886395Y-40033186D01*
X86904656Y-40830615D01*
X87115394Y-41339381D01*
X86710623Y-41171306D01*
X86012441Y-41170697D01*
X85600156Y-41341049D01*
X85833605Y-40738814D01*
X85815344Y-39941385D01*
X85545312Y-39289469D01*
X85240046Y-39145559D01*
X83999605Y-40386000D01*
X84013748Y-40400143D01*
X83834143Y-40579748D01*
X83820000Y-40565605D01*
X82579559Y-41806046D01*
X82688436Y-42037000D01*
X80518000Y-42037000D01*
X80177794Y-42104671D01*
X79917123Y-42278846D01*
X79889382Y-42297382D01*
X79102176Y-43084588D01*
X79066547Y-43069794D01*
X78416306Y-43069226D01*
X77815345Y-43317538D01*
X77355154Y-43776927D01*
X77105794Y-44377453D01*
X77105226Y-45027694D01*
X77353538Y-45628655D01*
X77812927Y-46088846D01*
X78413453Y-46338206D01*
X79063694Y-46338774D01*
X79664655Y-46090462D01*
X80124846Y-45631073D01*
X80339891Y-45113186D01*
X81806395Y-45113186D01*
X81824656Y-45910615D01*
X82094688Y-46562531D01*
X82399954Y-46706441D01*
X83640395Y-45466000D01*
X82399954Y-44225559D01*
X82094688Y-44369469D01*
X81806395Y-45113186D01*
X80339891Y-45113186D01*
X80374206Y-45030547D01*
X80374774Y-44380306D01*
X80359031Y-44342205D01*
X80886236Y-43815000D01*
X82688436Y-43815000D01*
X82579559Y-44045954D01*
X83820000Y-45286395D01*
X83834143Y-45272253D01*
X84013748Y-45451858D01*
X83999605Y-45466000D01*
X85240046Y-46706441D01*
X85545312Y-46562531D01*
X85833605Y-45818814D01*
X85815344Y-45021385D01*
X85604606Y-44512619D01*
X86009377Y-44680694D01*
X86707559Y-44681303D01*
X87119844Y-44510951D01*
X86886395Y-45113186D01*
X86904656Y-45910615D01*
X87174688Y-46562531D01*
X87479954Y-46706441D01*
X88720395Y-45466000D01*
X88706253Y-45451858D01*
X88885858Y-45272253D01*
X88900000Y-45286395D01*
X88914143Y-45272253D01*
X89093748Y-45451858D01*
X89079605Y-45466000D01*
X90320046Y-46706441D01*
X90625312Y-46562531D01*
X90913605Y-45818814D01*
X90895344Y-45021385D01*
X90815579Y-44828815D01*
X92335382Y-46348618D01*
X92623794Y-46541329D01*
X92796845Y-46575751D01*
X92454675Y-47087845D01*
X92329000Y-47719655D01*
X92329000Y-47784345D01*
X92388963Y-48085801D01*
X91325764Y-49149000D01*
X91317194Y-49149000D01*
X91302462Y-49113345D01*
X90843073Y-48653154D01*
X90242547Y-48403794D01*
X89592306Y-48403226D01*
X88991345Y-48651538D01*
X88531154Y-49110927D01*
X88281794Y-49711453D01*
X88281226Y-50361694D01*
X88529538Y-50962655D01*
X88988927Y-51422846D01*
X89589453Y-51672206D01*
X90239694Y-51672774D01*
X90840655Y-51424462D01*
X91300846Y-50965073D01*
X91316655Y-50927000D01*
X91694000Y-50927000D01*
X92034206Y-50859329D01*
X92051030Y-50848087D01*
X101835454Y-50848087D01*
X101945255Y-51219100D01*
X105791000Y-51219100D01*
X105791000Y-48961040D01*
X106045000Y-48961040D01*
X106045000Y-51219100D01*
X109890745Y-51219100D01*
X110000546Y-50848087D01*
X109920169Y-50550710D01*
X109444355Y-49749411D01*
X108698116Y-49191193D01*
X107795060Y-48961040D01*
X106045000Y-48961040D01*
X105791000Y-48961040D01*
X104040940Y-48961040D01*
X103137884Y-49191193D01*
X102391645Y-49749411D01*
X101915831Y-50550710D01*
X101835454Y-50848087D01*
X92051030Y-50848087D01*
X92322618Y-50666618D01*
X93624587Y-49364649D01*
X93980000Y-49435345D01*
X94611810Y-49309670D01*
X94951792Y-49082501D01*
X95039910Y-49219441D01*
X95252110Y-49364431D01*
X95504000Y-49415440D01*
X97536000Y-49415440D01*
X97771317Y-49371162D01*
X97987441Y-49232090D01*
X98132431Y-49019890D01*
X98183440Y-48768000D01*
X98183440Y-48641000D01*
X99697540Y-48641000D01*
X100037746Y-48573329D01*
X100326158Y-48380618D01*
X101049280Y-47657496D01*
X101166837Y-47680880D01*
X102139843Y-47680880D01*
X102689032Y-47571640D01*
X103154612Y-47260549D01*
X103465703Y-46794969D01*
X103574943Y-46245780D01*
X103465703Y-45696591D01*
X103154612Y-45231011D01*
X102803421Y-44996352D01*
X103207492Y-44671387D01*
X103477381Y-44178277D01*
X103494923Y-44095475D01*
X103372936Y-43873420D01*
X101780340Y-43873420D01*
X101780340Y-43893420D01*
X101526340Y-43893420D01*
X101526340Y-43873420D01*
X99933744Y-43873420D01*
X99811757Y-44095475D01*
X99829299Y-44178277D01*
X100099188Y-44671387D01*
X100503259Y-44996352D01*
X100152068Y-45231011D01*
X99840977Y-45696591D01*
X99731737Y-46245780D01*
X99767372Y-46424932D01*
X99329304Y-46863000D01*
X98183440Y-46863000D01*
X98183440Y-46736000D01*
X98139162Y-46500683D01*
X98000090Y-46284559D01*
X97787890Y-46139569D01*
X97536000Y-46088560D01*
X97381264Y-46088560D01*
X97341329Y-45887794D01*
X97148618Y-45599382D01*
X96640618Y-45091382D01*
X96570014Y-45044206D01*
X96352206Y-44898671D01*
X96267223Y-44881767D01*
X97023515Y-44569273D01*
X97906174Y-43688153D01*
X98026919Y-43397365D01*
X99811757Y-43397365D01*
X99933744Y-43619420D01*
X101526340Y-43619420D01*
X101526340Y-42311320D01*
X101780340Y-42311320D01*
X101780340Y-43619420D01*
X103372936Y-43619420D01*
X103494923Y-43397365D01*
X103494147Y-43393704D01*
X104040940Y-43533060D01*
X105791000Y-43533060D01*
X105791000Y-41275000D01*
X106045000Y-41275000D01*
X106045000Y-43533060D01*
X107795060Y-43533060D01*
X108698116Y-43302907D01*
X109444355Y-42744689D01*
X109920169Y-41943390D01*
X110000546Y-41646013D01*
X109890745Y-41275000D01*
X106045000Y-41275000D01*
X105791000Y-41275000D01*
X101945255Y-41275000D01*
X101835454Y-41646013D01*
X101915831Y-41943390D01*
X102134309Y-42311320D01*
X101780340Y-42311320D01*
X101526340Y-42311320D01*
X101076760Y-42311320D01*
X100537238Y-42469161D01*
X100099188Y-42821453D01*
X99829299Y-43314563D01*
X99811757Y-43397365D01*
X98026919Y-43397365D01*
X98384454Y-42536326D01*
X98385543Y-41289146D01*
X97909273Y-40136485D01*
X97028153Y-39253826D01*
X95962190Y-38811200D01*
X103851581Y-38811200D01*
X103137884Y-38993093D01*
X102391645Y-39551311D01*
X101915831Y-40352610D01*
X101835454Y-40649987D01*
X101945255Y-41021000D01*
X105791000Y-41021000D01*
X105791000Y-41001000D01*
X106045000Y-41001000D01*
X106045000Y-41021000D01*
X109890745Y-41021000D01*
X110000546Y-40649987D01*
X109920169Y-40352610D01*
X109444355Y-39551311D01*
X108698116Y-38993093D01*
X107984419Y-38811200D01*
X113588800Y-38811200D01*
X113588800Y-56411415D01*
X113509649Y-56220328D01*
X113233227Y-56110378D01*
X112193605Y-57150000D01*
X113233227Y-58189622D01*
X113509649Y-58079672D01*
X113588800Y-57869255D01*
X113588800Y-58951415D01*
X113509649Y-58760328D01*
X113233227Y-58650378D01*
X112193605Y-59690000D01*
X113233227Y-60729622D01*
X113509649Y-60619672D01*
X113588800Y-60409255D01*
X113588800Y-64058386D01*
X113479103Y-63792898D01*
X112993658Y-63306605D01*
X112822364Y-63235477D01*
X113100786Y-62957540D01*
X113296477Y-62486264D01*
X113296923Y-61975974D01*
X113102055Y-61504358D01*
X112830639Y-61232469D01*
X112943672Y-61185649D01*
X113053622Y-60909227D01*
X112014000Y-59869605D01*
X110974378Y-60909227D01*
X111084328Y-61185649D01*
X111200719Y-61229431D01*
X110927214Y-61502460D01*
X110731523Y-61973736D01*
X110731077Y-62484026D01*
X110925945Y-62955642D01*
X111205180Y-63235364D01*
X111036898Y-63304897D01*
X110550605Y-63790342D01*
X110512960Y-63881000D01*
X107488622Y-63881000D01*
X107863672Y-63725649D01*
X107973622Y-63449227D01*
X106934000Y-62409605D01*
X105894378Y-63449227D01*
X106004328Y-63725649D01*
X106417318Y-63881000D01*
X105524236Y-63881000D01*
X103586691Y-61943455D01*
X105196431Y-61943455D01*
X105219039Y-62630206D01*
X105438351Y-63159672D01*
X105714773Y-63269622D01*
X106754395Y-62230000D01*
X107113605Y-62230000D01*
X108153227Y-63269622D01*
X108429649Y-63159672D01*
X108671569Y-62516545D01*
X108648961Y-61829794D01*
X108429649Y-61300328D01*
X108153227Y-61190378D01*
X107113605Y-62230000D01*
X106754395Y-62230000D01*
X105714773Y-61190378D01*
X105438351Y-61300328D01*
X105196431Y-61943455D01*
X103586691Y-61943455D01*
X103418618Y-61775382D01*
X103341595Y-61723917D01*
X103130206Y-61582671D01*
X102790000Y-61515000D01*
X100879877Y-61515000D01*
X100871162Y-61468683D01*
X100732090Y-61252559D01*
X100519890Y-61107569D01*
X100268000Y-61056560D01*
X98868000Y-61056560D01*
X98632683Y-61100838D01*
X98416559Y-61239910D01*
X98271569Y-61452110D01*
X98220560Y-61704000D01*
X98220560Y-63104000D01*
X98238482Y-63199246D01*
X96050009Y-61010773D01*
X105894378Y-61010773D01*
X106934000Y-62050395D01*
X107973622Y-61010773D01*
X107863672Y-60734351D01*
X107220545Y-60492431D01*
X106533794Y-60515039D01*
X106004328Y-60734351D01*
X105894378Y-61010773D01*
X96050009Y-61010773D01*
X94442691Y-59403455D01*
X110276431Y-59403455D01*
X110299039Y-60090206D01*
X110518351Y-60619672D01*
X110794773Y-60729622D01*
X111834395Y-59690000D01*
X110794773Y-58650378D01*
X110518351Y-58760328D01*
X110276431Y-59403455D01*
X94442691Y-59403455D01*
X94329412Y-59290176D01*
X94344206Y-59254547D01*
X94344774Y-58604306D01*
X94096462Y-58003345D01*
X93637073Y-57543154D01*
X93036547Y-57293794D01*
X92386306Y-57293226D01*
X91785345Y-57541538D01*
X91325154Y-58000927D01*
X91075794Y-58601453D01*
X91075226Y-59251694D01*
X91323538Y-59852655D01*
X91782927Y-60312846D01*
X92383453Y-60562206D01*
X93033694Y-60562774D01*
X93071795Y-60547031D01*
X97155000Y-64630236D01*
X97155000Y-65297208D01*
X96942559Y-65433910D01*
X96797569Y-65646110D01*
X96746560Y-65898000D01*
X96746560Y-67198000D01*
X96790838Y-67433317D01*
X96929910Y-67649441D01*
X97142110Y-67794431D01*
X97394000Y-67845440D01*
X98694000Y-67845440D01*
X98929317Y-67801162D01*
X99145441Y-67662090D01*
X99290431Y-67449890D01*
X99291012Y-67447016D01*
X99824590Y-67447016D01*
X99880271Y-67677611D01*
X100363078Y-67845622D01*
X100873428Y-67816083D01*
X101207729Y-67677611D01*
X101235155Y-67564026D01*
X103111077Y-67564026D01*
X103305945Y-68035642D01*
X103666460Y-68396786D01*
X104137736Y-68592477D01*
X104648026Y-68592923D01*
X105119642Y-68398055D01*
X105480786Y-68037540D01*
X105664209Y-67595808D01*
X105845945Y-68035642D01*
X106206460Y-68396786D01*
X106677736Y-68592477D01*
X107188026Y-68592923D01*
X107659642Y-68398055D01*
X108020786Y-68037540D01*
X108216477Y-67566264D01*
X108216923Y-67055974D01*
X108022055Y-66584358D01*
X107661540Y-66223214D01*
X107190264Y-66027523D01*
X106679974Y-66027077D01*
X106208358Y-66221945D01*
X105847214Y-66582460D01*
X105663791Y-67024192D01*
X105482055Y-66584358D01*
X105121540Y-66223214D01*
X104650264Y-66027523D01*
X104139974Y-66027077D01*
X103668358Y-66221945D01*
X103307214Y-66582460D01*
X103111523Y-67053736D01*
X103111077Y-67564026D01*
X101235155Y-67564026D01*
X101263410Y-67447016D01*
X100544000Y-66727605D01*
X99824590Y-67447016D01*
X99291012Y-67447016D01*
X99341440Y-67198000D01*
X99341440Y-67035615D01*
X99414389Y-67211729D01*
X99644984Y-67267410D01*
X100364395Y-66548000D01*
X100723605Y-66548000D01*
X101443016Y-67267410D01*
X101673611Y-67211729D01*
X101841622Y-66728922D01*
X101812083Y-66218572D01*
X101673611Y-65884271D01*
X101443016Y-65828590D01*
X100723605Y-66548000D01*
X100364395Y-66548000D01*
X99644984Y-65828590D01*
X99414389Y-65884271D01*
X99341440Y-66093902D01*
X99341440Y-65898000D01*
X99297162Y-65662683D01*
X99288347Y-65648984D01*
X99824590Y-65648984D01*
X100544000Y-66368395D01*
X101263410Y-65648984D01*
X101207729Y-65418389D01*
X100724922Y-65250378D01*
X100214572Y-65279917D01*
X99880271Y-65418389D01*
X99824590Y-65648984D01*
X99288347Y-65648984D01*
X99158090Y-65446559D01*
X98945890Y-65301569D01*
X98933000Y-65298959D01*
X98933000Y-64262000D01*
X98865329Y-63921794D01*
X98733272Y-63724157D01*
X98868000Y-63751440D01*
X100268000Y-63751440D01*
X100503317Y-63707162D01*
X100719441Y-63568090D01*
X100864431Y-63355890D01*
X100877167Y-63293000D01*
X102421764Y-63293000D01*
X104527382Y-65398618D01*
X104815794Y-65591329D01*
X105156000Y-65659000D01*
X110512494Y-65659000D01*
X110548897Y-65747102D01*
X110841369Y-66040085D01*
X110550605Y-66330342D01*
X110287100Y-66964931D01*
X110286501Y-67652054D01*
X110548897Y-68287102D01*
X111034342Y-68773395D01*
X111668931Y-69036900D01*
X112356054Y-69037499D01*
X112991102Y-68775103D01*
X113477395Y-68289658D01*
X113588800Y-68021366D01*
X113588800Y-118668800D01*
X59131200Y-118668800D01*
X59131200Y-114920854D01*
X60364457Y-114920854D01*
X60840727Y-116073515D01*
X61721847Y-116956174D01*
X62873674Y-117434454D01*
X64120854Y-117435543D01*
X65273515Y-116959273D01*
X66156174Y-116078153D01*
X66634454Y-114926326D01*
X66635543Y-113679146D01*
X66159273Y-112526485D01*
X65617756Y-111984022D01*
X67694844Y-111984022D01*
X67915613Y-112354743D01*
X68887272Y-112748119D01*
X69935507Y-112739713D01*
X70864907Y-112354743D01*
X71085676Y-111984022D01*
X69390260Y-110288605D01*
X67694844Y-111984022D01*
X65617756Y-111984022D01*
X65278153Y-111643826D01*
X64126326Y-111165546D01*
X62879146Y-111164457D01*
X61726485Y-111640727D01*
X60843826Y-112521847D01*
X60365546Y-113673674D01*
X60364457Y-114920854D01*
X59131200Y-114920854D01*
X59131200Y-109606012D01*
X66751141Y-109606012D01*
X66759547Y-110654247D01*
X67144517Y-111583647D01*
X67515238Y-111804416D01*
X69210655Y-110109000D01*
X69569865Y-110109000D01*
X71265282Y-111804416D01*
X71636003Y-111583647D01*
X72029379Y-110611988D01*
X72020973Y-109563753D01*
X71685097Y-108752876D01*
X71761382Y-108867045D01*
X74295000Y-111400663D01*
X74295000Y-114692179D01*
X74016567Y-114878222D01*
X73658675Y-115413845D01*
X73533000Y-116045655D01*
X73533000Y-116110345D01*
X73658675Y-116742155D01*
X74016567Y-117277778D01*
X74552190Y-117635670D01*
X75184000Y-117761345D01*
X75815810Y-117635670D01*
X76155792Y-117408501D01*
X76243910Y-117545441D01*
X76456110Y-117690431D01*
X76708000Y-117741440D01*
X78740000Y-117741440D01*
X78806113Y-117729000D01*
X82418806Y-117729000D01*
X82433538Y-117764655D01*
X82892927Y-118224846D01*
X83493453Y-118474206D01*
X84143694Y-118474774D01*
X84744655Y-118226462D01*
X85204846Y-117767073D01*
X85358612Y-117396762D01*
X89617584Y-117396762D01*
X89838353Y-117767483D01*
X90810012Y-118160859D01*
X91858247Y-118152453D01*
X92787647Y-117767483D01*
X93008416Y-117396762D01*
X91313000Y-115701345D01*
X89617584Y-117396762D01*
X85358612Y-117396762D01*
X85454206Y-117166547D01*
X85454774Y-116516306D01*
X85206462Y-115915345D01*
X84747073Y-115455154D01*
X84146547Y-115205794D01*
X83496306Y-115205226D01*
X82895345Y-115453538D01*
X82435154Y-115912927D01*
X82419345Y-115951000D01*
X79387440Y-115951000D01*
X79387440Y-115062000D01*
X79379303Y-115018752D01*
X88673881Y-115018752D01*
X88682287Y-116066987D01*
X89067257Y-116996387D01*
X89437978Y-117217156D01*
X91133395Y-115521740D01*
X91492605Y-115521740D01*
X93188022Y-117217156D01*
X93558743Y-116996387D01*
X93720704Y-116596333D01*
X101860854Y-116596333D01*
X101941231Y-116893710D01*
X102417045Y-117695009D01*
X103163284Y-118253227D01*
X104066340Y-118483380D01*
X105816400Y-118483380D01*
X105816400Y-116225320D01*
X106070400Y-116225320D01*
X106070400Y-118483380D01*
X107820460Y-118483380D01*
X108723516Y-118253227D01*
X109469755Y-117695009D01*
X109945569Y-116893710D01*
X110025946Y-116596333D01*
X109916145Y-116225320D01*
X106070400Y-116225320D01*
X105816400Y-116225320D01*
X101970655Y-116225320D01*
X101860854Y-116596333D01*
X93720704Y-116596333D01*
X93952119Y-116024728D01*
X93948716Y-115600307D01*
X101860854Y-115600307D01*
X101970655Y-115971320D01*
X105816400Y-115971320D01*
X105816400Y-113713260D01*
X106070400Y-113713260D01*
X106070400Y-115971320D01*
X109916145Y-115971320D01*
X110025946Y-115600307D01*
X109945569Y-115302930D01*
X109469755Y-114501631D01*
X108723516Y-113943413D01*
X107820460Y-113713260D01*
X106070400Y-113713260D01*
X105816400Y-113713260D01*
X104066340Y-113713260D01*
X103163284Y-113943413D01*
X102417045Y-114501631D01*
X101941231Y-115302930D01*
X101860854Y-115600307D01*
X93948716Y-115600307D01*
X93943713Y-114976493D01*
X93703689Y-114397022D01*
X94316584Y-114397022D01*
X94537353Y-114767743D01*
X95509012Y-115161119D01*
X96557247Y-115152713D01*
X97486647Y-114767743D01*
X97707416Y-114397022D01*
X96012000Y-112701605D01*
X94316584Y-114397022D01*
X93703689Y-114397022D01*
X93558743Y-114047093D01*
X93188022Y-113826324D01*
X91492605Y-115521740D01*
X91133395Y-115521740D01*
X89437978Y-113826324D01*
X89067257Y-114047093D01*
X88673881Y-115018752D01*
X79379303Y-115018752D01*
X79343162Y-114826683D01*
X79204090Y-114610559D01*
X78991890Y-114465569D01*
X78740000Y-114414560D01*
X76708000Y-114414560D01*
X76472683Y-114458838D01*
X76256559Y-114597910D01*
X76154802Y-114746837D01*
X76073000Y-114692179D01*
X76073000Y-113646718D01*
X89617584Y-113646718D01*
X91313000Y-115342135D01*
X93008416Y-113646718D01*
X92787647Y-113275997D01*
X91815988Y-112882621D01*
X90767753Y-112891027D01*
X89838353Y-113275997D01*
X89617584Y-113646718D01*
X76073000Y-113646718D01*
X76073000Y-111032427D01*
X76005329Y-110692221D01*
X75812618Y-110403809D01*
X73295669Y-107886860D01*
X73880658Y-107645147D01*
X74622542Y-106904557D01*
X75024542Y-105936433D01*
X75025457Y-104888166D01*
X74625147Y-103919342D01*
X73884557Y-103177458D01*
X72916433Y-102775458D01*
X71868166Y-102774543D01*
X70899342Y-103174853D01*
X70157458Y-103915443D01*
X69755458Y-104883567D01*
X69754543Y-105931834D01*
X70154853Y-106900658D01*
X70895443Y-107642542D01*
X71501000Y-107893991D01*
X71501000Y-108238427D01*
X71568671Y-108578633D01*
X71586009Y-108604581D01*
X71265282Y-108413584D01*
X69569865Y-110109000D01*
X69210655Y-110109000D01*
X67515238Y-108413584D01*
X67144517Y-108634353D01*
X66751141Y-109606012D01*
X59131200Y-109606012D01*
X59131200Y-108233978D01*
X67694844Y-108233978D01*
X69390260Y-109929395D01*
X71085676Y-108233978D01*
X70864907Y-107863257D01*
X69893248Y-107469881D01*
X68845013Y-107478287D01*
X67915613Y-107863257D01*
X67694844Y-108233978D01*
X59131200Y-108233978D01*
X59131200Y-107285022D01*
X64695104Y-107285022D01*
X64915873Y-107655743D01*
X65887532Y-108049119D01*
X66935767Y-108040713D01*
X67865167Y-107655743D01*
X68085936Y-107285022D01*
X66390520Y-105589605D01*
X64695104Y-107285022D01*
X59131200Y-107285022D01*
X59131200Y-104907012D01*
X63751401Y-104907012D01*
X63759807Y-105955247D01*
X64144777Y-106884647D01*
X64515498Y-107105416D01*
X66210915Y-105410000D01*
X66570125Y-105410000D01*
X68265542Y-107105416D01*
X68636263Y-106884647D01*
X69029639Y-105912988D01*
X69021233Y-104864753D01*
X68636263Y-103935353D01*
X68265542Y-103714584D01*
X66570125Y-105410000D01*
X66210915Y-105410000D01*
X64515498Y-103714584D01*
X64144777Y-103935353D01*
X63751401Y-104907012D01*
X59131200Y-104907012D01*
X59131200Y-103534978D01*
X64695104Y-103534978D01*
X66390520Y-105230395D01*
X68085936Y-103534978D01*
X67865167Y-103164257D01*
X66893508Y-102770881D01*
X65845273Y-102779287D01*
X64915873Y-103164257D01*
X64695104Y-103534978D01*
X59131200Y-103534978D01*
X59131200Y-87438000D01*
X59184560Y-87438000D01*
X59184560Y-88838000D01*
X59228838Y-89073317D01*
X59367910Y-89289441D01*
X59580110Y-89434431D01*
X59643000Y-89447167D01*
X59643000Y-93298000D01*
X59710671Y-93638206D01*
X59808976Y-93785329D01*
X59903382Y-93926618D01*
X60363351Y-94386587D01*
X60292655Y-94742000D01*
X60418330Y-95373810D01*
X60645499Y-95713792D01*
X60508559Y-95801910D01*
X60363569Y-96014110D01*
X60312560Y-96266000D01*
X60312560Y-98298000D01*
X60356838Y-98533317D01*
X60495910Y-98749441D01*
X60708110Y-98894431D01*
X60960000Y-98945440D01*
X62992000Y-98945440D01*
X63227317Y-98901162D01*
X63302163Y-98853000D01*
X68030123Y-98853000D01*
X68038838Y-98899317D01*
X68177910Y-99115441D01*
X68390110Y-99260431D01*
X68642000Y-99311440D01*
X70042000Y-99311440D01*
X70277317Y-99267162D01*
X70493441Y-99128090D01*
X70638431Y-98915890D01*
X70689440Y-98664000D01*
X70689440Y-97264000D01*
X70645162Y-97028683D01*
X70520415Y-96834821D01*
X73756236Y-93599000D01*
X75069764Y-93599000D01*
X74276176Y-94392588D01*
X74240547Y-94377794D01*
X73590306Y-94377226D01*
X72989345Y-94625538D01*
X72529154Y-95084927D01*
X72279794Y-95685453D01*
X72279226Y-96335694D01*
X72527538Y-96936655D01*
X72986927Y-97396846D01*
X73025000Y-97412655D01*
X73025000Y-98044000D01*
X73092671Y-98384206D01*
X73143793Y-98460715D01*
X73285382Y-98672618D01*
X75948560Y-101335796D01*
X75948560Y-102046000D01*
X75992838Y-102281317D01*
X76131910Y-102497441D01*
X76344110Y-102642431D01*
X76596000Y-102693440D01*
X77996000Y-102693440D01*
X78231317Y-102649162D01*
X78359000Y-102567000D01*
X78359000Y-103771764D01*
X76587382Y-105543382D01*
X76394671Y-105831794D01*
X76327000Y-106172000D01*
X76327000Y-107364355D01*
X76319343Y-107367519D01*
X75873086Y-107812997D01*
X75631276Y-108395341D01*
X75630725Y-109025893D01*
X75871519Y-109608657D01*
X76316997Y-110054914D01*
X76899341Y-110296724D01*
X77529893Y-110297275D01*
X78112657Y-110056481D01*
X78217867Y-109951455D01*
X78267673Y-110071698D01*
X78446301Y-110250327D01*
X78679690Y-110347000D01*
X79470250Y-110347000D01*
X79629000Y-110188250D01*
X79629000Y-108839000D01*
X79883000Y-108839000D01*
X79883000Y-110188250D01*
X80041750Y-110347000D01*
X80832310Y-110347000D01*
X81065699Y-110250327D01*
X81244327Y-110071698D01*
X81341000Y-109838309D01*
X81341000Y-108997750D01*
X81182250Y-108839000D01*
X79883000Y-108839000D01*
X79629000Y-108839000D01*
X79609000Y-108839000D01*
X79609000Y-108585000D01*
X79629000Y-108585000D01*
X79629000Y-107235750D01*
X79883000Y-107235750D01*
X79883000Y-108585000D01*
X81182250Y-108585000D01*
X81341000Y-108426250D01*
X81341000Y-107585691D01*
X81244327Y-107352302D01*
X81065699Y-107173673D01*
X80832310Y-107077000D01*
X80041750Y-107077000D01*
X79883000Y-107235750D01*
X79629000Y-107235750D01*
X79470250Y-107077000D01*
X78679690Y-107077000D01*
X78446301Y-107173673D01*
X78267673Y-107352302D01*
X78217988Y-107472251D01*
X78115003Y-107369086D01*
X78105000Y-107364932D01*
X78105000Y-106540236D01*
X79876618Y-104768618D01*
X80069329Y-104480206D01*
X80137000Y-104140000D01*
X80137000Y-102281275D01*
X81540331Y-102281275D01*
X81602169Y-102517042D01*
X82103122Y-102693419D01*
X82633440Y-102664664D01*
X82989831Y-102517042D01*
X83051669Y-102281275D01*
X82296000Y-101525605D01*
X81540331Y-102281275D01*
X80137000Y-102281275D01*
X80137000Y-101153122D01*
X80948581Y-101153122D01*
X80977336Y-101683440D01*
X81124958Y-102039831D01*
X81360725Y-102101669D01*
X82116395Y-101346000D01*
X82475605Y-101346000D01*
X83231275Y-102101669D01*
X83467042Y-102039831D01*
X83643419Y-101538878D01*
X83614664Y-101008560D01*
X83467042Y-100652169D01*
X83231275Y-100590331D01*
X82475605Y-101346000D01*
X82116395Y-101346000D01*
X81360725Y-100590331D01*
X81124958Y-100652169D01*
X80948581Y-101153122D01*
X80137000Y-101153122D01*
X80137000Y-100410725D01*
X81540331Y-100410725D01*
X82296000Y-101166395D01*
X83051669Y-100410725D01*
X82989831Y-100174958D01*
X82488878Y-99998581D01*
X81958560Y-100027336D01*
X81602169Y-100174958D01*
X81540331Y-100410725D01*
X80137000Y-100410725D01*
X80137000Y-98367694D01*
X84471226Y-98367694D01*
X84719538Y-98968655D01*
X85178927Y-99428846D01*
X85779453Y-99678206D01*
X86429694Y-99678774D01*
X87030655Y-99430462D01*
X87490846Y-98971073D01*
X87740206Y-98370547D01*
X87740774Y-97720306D01*
X87492462Y-97119345D01*
X87033073Y-96659154D01*
X86432547Y-96409794D01*
X85782306Y-96409226D01*
X85181345Y-96657538D01*
X84721154Y-97116927D01*
X84471794Y-97717453D01*
X84471226Y-98367694D01*
X80137000Y-98367694D01*
X80137000Y-97790000D01*
X80069329Y-97449794D01*
X79876618Y-97161382D01*
X79089412Y-96374176D01*
X79104206Y-96338547D01*
X79104774Y-95688306D01*
X78856462Y-95087345D01*
X78397073Y-94627154D01*
X77796547Y-94377794D01*
X77146306Y-94377226D01*
X76566396Y-94616840D01*
X77076236Y-94107000D01*
X79267090Y-94107000D01*
X79197385Y-94274869D01*
X79197015Y-94699269D01*
X79359084Y-95091504D01*
X79658917Y-95391862D01*
X80050869Y-95554615D01*
X80475269Y-95554985D01*
X80687076Y-95467468D01*
X80629285Y-95758000D01*
X80711844Y-96173051D01*
X80946951Y-96524914D01*
X81298814Y-96760021D01*
X81713865Y-96842580D01*
X82370135Y-96842580D01*
X82785186Y-96760021D01*
X83137049Y-96524914D01*
X83372156Y-96173051D01*
X83454715Y-95758000D01*
X83372156Y-95342949D01*
X83225191Y-95123000D01*
X83372156Y-94903051D01*
X83454715Y-94488000D01*
X83372156Y-94072949D01*
X83225191Y-93853000D01*
X83372156Y-93633051D01*
X83454715Y-93218000D01*
X83372156Y-92802949D01*
X83137049Y-92451086D01*
X82931000Y-92313409D01*
X82931000Y-91808236D01*
X84471645Y-90267591D01*
X84471226Y-90747694D01*
X84526461Y-90881372D01*
X84116731Y-90881015D01*
X83724496Y-91043084D01*
X83424138Y-91342917D01*
X83261385Y-91734869D01*
X83261015Y-92159269D01*
X83423084Y-92551504D01*
X83722917Y-92851862D01*
X84114869Y-93014615D01*
X84137399Y-93014635D01*
X84715382Y-93592618D01*
X85003794Y-93785329D01*
X85344000Y-93853000D01*
X86245764Y-93853000D01*
X87757000Y-95364236D01*
X87757000Y-99707764D01*
X83191382Y-104273382D01*
X82998671Y-104561794D01*
X82931000Y-104902000D01*
X82931000Y-105033070D01*
X82820510Y-105033070D01*
X82585193Y-105077348D01*
X82369069Y-105216420D01*
X82224079Y-105428620D01*
X82173070Y-105680510D01*
X82173070Y-107679490D01*
X82217348Y-107914807D01*
X82356420Y-108130931D01*
X82568620Y-108275921D01*
X82820510Y-108326930D01*
X84819490Y-108326930D01*
X85054807Y-108282652D01*
X85270931Y-108143580D01*
X85415921Y-107931380D01*
X85466930Y-107679490D01*
X85466930Y-105680510D01*
X85422652Y-105445193D01*
X85283580Y-105229069D01*
X85071380Y-105084079D01*
X84924833Y-105054403D01*
X85712236Y-104267000D01*
X87923370Y-104267000D01*
X87923370Y-105167430D01*
X88084982Y-105725906D01*
X88448011Y-106180024D01*
X88957190Y-106460649D01*
X89051168Y-106481540D01*
X89281000Y-106360214D01*
X89281000Y-104267000D01*
X87923370Y-104267000D01*
X85712236Y-104267000D01*
X88715215Y-101264021D01*
X89280998Y-101829804D01*
X89280998Y-101919785D01*
X89051168Y-101798460D01*
X88957190Y-101819351D01*
X88448011Y-102099976D01*
X88084982Y-102554094D01*
X87923370Y-103112570D01*
X87923370Y-104013000D01*
X89281000Y-104013000D01*
X89281000Y-103993000D01*
X89535000Y-103993000D01*
X89535000Y-104013000D01*
X89555000Y-104013000D01*
X89555000Y-104267000D01*
X89535000Y-104267000D01*
X89535000Y-106360214D01*
X89764832Y-106481540D01*
X89858810Y-106460649D01*
X90367989Y-106180024D01*
X90672484Y-105799127D01*
X90898208Y-106136948D01*
X91379857Y-106458775D01*
X91948000Y-106571786D01*
X92516143Y-106458775D01*
X92997792Y-106136948D01*
X93218000Y-105807383D01*
X93438208Y-106136948D01*
X93919857Y-106458775D01*
X94488000Y-106571786D01*
X95056143Y-106458775D01*
X95537792Y-106136948D01*
X95859619Y-105655299D01*
X95972630Y-105087156D01*
X95972630Y-103192844D01*
X95859619Y-102624701D01*
X95537792Y-102143052D01*
X95377000Y-102035614D01*
X95377000Y-99182930D01*
X96752410Y-99182930D01*
X96987727Y-99138652D01*
X97203851Y-98999580D01*
X97348841Y-98787380D01*
X97399850Y-98535490D01*
X97399850Y-96536510D01*
X97355572Y-96301193D01*
X97216500Y-96085069D01*
X97004300Y-95940079D01*
X96752410Y-95889070D01*
X94753430Y-95889070D01*
X94518113Y-95933348D01*
X94301989Y-96072420D01*
X94156999Y-96284620D01*
X94105990Y-96536510D01*
X94105990Y-97925694D01*
X93859382Y-98172302D01*
X93666671Y-98460714D01*
X93599000Y-98800920D01*
X93599000Y-102035614D01*
X93438208Y-102143052D01*
X93218000Y-102472617D01*
X92997792Y-102143052D01*
X92516143Y-101821225D01*
X91948000Y-101708214D01*
X91719360Y-101753694D01*
X89535000Y-99569334D01*
X89535000Y-97608000D01*
X89634560Y-97608000D01*
X89634560Y-98908000D01*
X89678838Y-99143317D01*
X89817910Y-99359441D01*
X90030110Y-99504431D01*
X90282000Y-99555440D01*
X91582000Y-99555440D01*
X91817317Y-99511162D01*
X92033441Y-99372090D01*
X92178431Y-99159890D01*
X92229440Y-98908000D01*
X92229440Y-97608000D01*
X92185162Y-97372683D01*
X92046090Y-97156559D01*
X91833890Y-97011569D01*
X91582000Y-96960560D01*
X91386540Y-96960560D01*
X91658943Y-96848005D01*
X92020735Y-96486845D01*
X92216777Y-96014724D01*
X92217223Y-95503519D01*
X92022005Y-95031057D01*
X91660845Y-94669265D01*
X91188724Y-94473223D01*
X90677519Y-94472777D01*
X90205057Y-94667995D01*
X89843265Y-95029155D01*
X89647223Y-95501276D01*
X89646777Y-96012481D01*
X89841995Y-96484943D01*
X90203155Y-96846735D01*
X90477276Y-96960560D01*
X90282000Y-96960560D01*
X90046683Y-97004838D01*
X89830559Y-97143910D01*
X89685569Y-97356110D01*
X89634560Y-97608000D01*
X89535000Y-97608000D01*
X89535000Y-94996000D01*
X89467329Y-94655794D01*
X89274618Y-94367382D01*
X89014236Y-94107000D01*
X92202000Y-94107000D01*
X92542206Y-94039329D01*
X92830618Y-93846618D01*
X93846618Y-92830618D01*
X93935707Y-92697287D01*
X94039329Y-92542206D01*
X94107000Y-92202000D01*
X94107000Y-86728236D01*
X94355125Y-86480111D01*
X94118714Y-87049453D01*
X94118146Y-87699694D01*
X94366458Y-88300655D01*
X94825847Y-88760846D01*
X95426373Y-89010206D01*
X96076614Y-89010774D01*
X96114715Y-88995031D01*
X97457260Y-90337576D01*
X97457260Y-108633260D01*
X93796747Y-108633260D01*
X93548147Y-108031602D01*
X92807557Y-107289718D01*
X91839433Y-106887718D01*
X90791166Y-106886803D01*
X89822342Y-107287113D01*
X89080458Y-108027703D01*
X88678458Y-108995827D01*
X88677543Y-110044094D01*
X89077853Y-111012918D01*
X89818443Y-111754802D01*
X90786567Y-112156802D01*
X91834834Y-112157717D01*
X92170525Y-112019012D01*
X93372881Y-112019012D01*
X93381287Y-113067247D01*
X93766257Y-113996647D01*
X94136978Y-114217416D01*
X95832395Y-112522000D01*
X96191605Y-112522000D01*
X97887022Y-114217416D01*
X98257743Y-113996647D01*
X98651119Y-113024988D01*
X98642713Y-111976753D01*
X98257743Y-111047353D01*
X97887022Y-110826584D01*
X96191605Y-112522000D01*
X95832395Y-112522000D01*
X94136978Y-110826584D01*
X93766257Y-111047353D01*
X93372881Y-112019012D01*
X92170525Y-112019012D01*
X92803658Y-111757407D01*
X93545542Y-111016817D01*
X93796991Y-110411260D01*
X94456957Y-110411260D01*
X94316584Y-110646978D01*
X96012000Y-112342395D01*
X97707416Y-110646978D01*
X97567043Y-110411260D01*
X97978024Y-110411260D01*
X99193382Y-111626618D01*
X99481795Y-111819330D01*
X99822000Y-111887000D01*
X100093432Y-111887000D01*
X100177468Y-112012769D01*
X100643048Y-112323860D01*
X101192237Y-112433100D01*
X102165243Y-112433100D01*
X102714432Y-112323860D01*
X103180012Y-112012769D01*
X103491103Y-111547189D01*
X103600343Y-110998000D01*
X103491103Y-110448811D01*
X103180012Y-109983231D01*
X102828821Y-109748572D01*
X103232892Y-109423607D01*
X103502781Y-108930497D01*
X103520323Y-108847695D01*
X103398336Y-108625640D01*
X101805740Y-108625640D01*
X101805740Y-108645640D01*
X101551740Y-108645640D01*
X101551740Y-108625640D01*
X99959144Y-108625640D01*
X99837157Y-108847695D01*
X99854699Y-108930497D01*
X100124588Y-109423607D01*
X100528659Y-109748572D01*
X100177468Y-109983231D01*
X100132206Y-110050970D01*
X99235260Y-109154024D01*
X99235260Y-108149585D01*
X99837157Y-108149585D01*
X99959144Y-108371640D01*
X101551740Y-108371640D01*
X101551740Y-107063540D01*
X101805740Y-107063540D01*
X101805740Y-108371640D01*
X103398336Y-108371640D01*
X103520323Y-108149585D01*
X103519547Y-108145924D01*
X104066340Y-108285280D01*
X105816400Y-108285280D01*
X105816400Y-106027220D01*
X106070400Y-106027220D01*
X106070400Y-108285280D01*
X107820460Y-108285280D01*
X108723516Y-108055127D01*
X109469755Y-107496909D01*
X109945569Y-106695610D01*
X110025946Y-106398233D01*
X109916145Y-106027220D01*
X106070400Y-106027220D01*
X105816400Y-106027220D01*
X101970655Y-106027220D01*
X101860854Y-106398233D01*
X101941231Y-106695610D01*
X102159709Y-107063540D01*
X101805740Y-107063540D01*
X101551740Y-107063540D01*
X101102160Y-107063540D01*
X100562638Y-107221381D01*
X100124588Y-107573673D01*
X99854699Y-108066783D01*
X99837157Y-108149585D01*
X99235260Y-108149585D01*
X99235260Y-105402207D01*
X101860854Y-105402207D01*
X101970655Y-105773220D01*
X105816400Y-105773220D01*
X105816400Y-103515160D01*
X106070400Y-103515160D01*
X106070400Y-105773220D01*
X109916145Y-105773220D01*
X110025946Y-105402207D01*
X109945569Y-105104830D01*
X109469755Y-104303531D01*
X108723516Y-103745313D01*
X107820460Y-103515160D01*
X106070400Y-103515160D01*
X105816400Y-103515160D01*
X104066340Y-103515160D01*
X103163284Y-103745313D01*
X102417045Y-104303531D01*
X101941231Y-105104830D01*
X101860854Y-105402207D01*
X99235260Y-105402207D01*
X99235260Y-99578333D01*
X101860854Y-99578333D01*
X101941231Y-99875710D01*
X102417045Y-100677009D01*
X103163284Y-101235227D01*
X104066340Y-101465380D01*
X105816400Y-101465380D01*
X105816400Y-99207320D01*
X106070400Y-99207320D01*
X106070400Y-101465380D01*
X107820460Y-101465380D01*
X108723516Y-101235227D01*
X109469755Y-100677009D01*
X109945569Y-99875710D01*
X110025946Y-99578333D01*
X109916145Y-99207320D01*
X106070400Y-99207320D01*
X105816400Y-99207320D01*
X101970655Y-99207320D01*
X101860854Y-99578333D01*
X99235260Y-99578333D01*
X99235260Y-98582307D01*
X101860854Y-98582307D01*
X101970655Y-98953320D01*
X105816400Y-98953320D01*
X105816400Y-96695260D01*
X106070400Y-96695260D01*
X106070400Y-98953320D01*
X109916145Y-98953320D01*
X110025946Y-98582307D01*
X109945569Y-98284930D01*
X109469755Y-97483631D01*
X108723516Y-96925413D01*
X107820460Y-96695260D01*
X106070400Y-96695260D01*
X105816400Y-96695260D01*
X104066340Y-96695260D01*
X103163284Y-96925413D01*
X102417045Y-97483631D01*
X101941231Y-98284930D01*
X101860854Y-98582307D01*
X99235260Y-98582307D01*
X99235260Y-93980000D01*
X99757137Y-93980000D01*
X99866377Y-94529189D01*
X100177468Y-94994769D01*
X100643048Y-95305860D01*
X101192237Y-95415100D01*
X102165243Y-95415100D01*
X102714432Y-95305860D01*
X103180012Y-94994769D01*
X103491103Y-94529189D01*
X103600343Y-93980000D01*
X103491103Y-93430811D01*
X103180012Y-92965231D01*
X102828821Y-92730572D01*
X103232892Y-92405607D01*
X103502781Y-91912497D01*
X103520323Y-91829695D01*
X103398336Y-91607640D01*
X101805740Y-91607640D01*
X101805740Y-91627640D01*
X101551740Y-91627640D01*
X101551740Y-91607640D01*
X99959144Y-91607640D01*
X99837157Y-91829695D01*
X99854699Y-91912497D01*
X100124588Y-92405607D01*
X100528659Y-92730572D01*
X100177468Y-92965231D01*
X99866377Y-93430811D01*
X99757137Y-93980000D01*
X99235260Y-93980000D01*
X99235260Y-91131585D01*
X99837157Y-91131585D01*
X99959144Y-91353640D01*
X101551740Y-91353640D01*
X101551740Y-90045540D01*
X101805740Y-90045540D01*
X101805740Y-91353640D01*
X103398336Y-91353640D01*
X103520323Y-91131585D01*
X103519547Y-91127924D01*
X104066340Y-91267280D01*
X105816400Y-91267280D01*
X105816400Y-89009220D01*
X106070400Y-89009220D01*
X106070400Y-91267280D01*
X107820460Y-91267280D01*
X108723516Y-91037127D01*
X109469755Y-90478909D01*
X109945569Y-89677610D01*
X110025946Y-89380233D01*
X109916145Y-89009220D01*
X106070400Y-89009220D01*
X105816400Y-89009220D01*
X101970655Y-89009220D01*
X101860854Y-89380233D01*
X101941231Y-89677610D01*
X102159709Y-90045540D01*
X101805740Y-90045540D01*
X101551740Y-90045540D01*
X101102160Y-90045540D01*
X100562638Y-90203381D01*
X100124588Y-90555673D01*
X99854699Y-91048783D01*
X99837157Y-91131585D01*
X99235260Y-91131585D01*
X99235260Y-89969340D01*
X99167590Y-89629135D01*
X98974878Y-89340722D01*
X98018363Y-88384207D01*
X101860854Y-88384207D01*
X101970655Y-88755220D01*
X105816400Y-88755220D01*
X105816400Y-86497160D01*
X106070400Y-86497160D01*
X106070400Y-88755220D01*
X109916145Y-88755220D01*
X110025946Y-88384207D01*
X109945569Y-88086830D01*
X109469755Y-87285531D01*
X108723516Y-86727313D01*
X107820460Y-86497160D01*
X106070400Y-86497160D01*
X105816400Y-86497160D01*
X104066340Y-86497160D01*
X103163284Y-86727313D01*
X102417045Y-87285531D01*
X101941231Y-88086830D01*
X101860854Y-88384207D01*
X98018363Y-88384207D01*
X97372332Y-87738176D01*
X97387126Y-87702547D01*
X97387694Y-87052306D01*
X97139382Y-86451345D01*
X96679993Y-85991154D01*
X96292841Y-85830395D01*
X98409129Y-83714107D01*
X110775498Y-83714107D01*
X110876120Y-83982622D01*
X111491642Y-84211816D01*
X112148019Y-84188014D01*
X112643880Y-83982622D01*
X112744502Y-83714107D01*
X111760000Y-82729605D01*
X110775498Y-83714107D01*
X98409129Y-83714107D01*
X99653961Y-82469275D01*
X102368331Y-82469275D01*
X102430169Y-82705042D01*
X102931122Y-82881419D01*
X103461440Y-82852664D01*
X103817831Y-82705042D01*
X103879669Y-82469275D01*
X103124000Y-81713605D01*
X102368331Y-82469275D01*
X99653961Y-82469275D01*
X100782114Y-81341122D01*
X101776581Y-81341122D01*
X101805336Y-81871440D01*
X101952958Y-82227831D01*
X102188725Y-82289669D01*
X102944395Y-81534000D01*
X103303605Y-81534000D01*
X104059275Y-82289669D01*
X104089879Y-82281642D01*
X110098184Y-82281642D01*
X110121986Y-82938019D01*
X110327378Y-83433880D01*
X110595893Y-83534502D01*
X111580395Y-82550000D01*
X111939605Y-82550000D01*
X112924107Y-83534502D01*
X113192622Y-83433880D01*
X113421816Y-82818358D01*
X113398014Y-82161981D01*
X113192622Y-81666120D01*
X112924107Y-81565498D01*
X111939605Y-82550000D01*
X111580395Y-82550000D01*
X110595893Y-81565498D01*
X110327378Y-81666120D01*
X110098184Y-82281642D01*
X104089879Y-82281642D01*
X104295042Y-82227831D01*
X104471419Y-81726878D01*
X104452931Y-81385893D01*
X110775498Y-81385893D01*
X111760000Y-82370395D01*
X112744502Y-81385893D01*
X112643880Y-81117378D01*
X112028358Y-80888184D01*
X111371981Y-80911986D01*
X110876120Y-81117378D01*
X110775498Y-81385893D01*
X104452931Y-81385893D01*
X104442664Y-81196560D01*
X104295042Y-80840169D01*
X104059275Y-80778331D01*
X103303605Y-81534000D01*
X102944395Y-81534000D01*
X102188725Y-80778331D01*
X101952958Y-80840169D01*
X101776581Y-81341122D01*
X100782114Y-81341122D01*
X101524511Y-80598725D01*
X102368331Y-80598725D01*
X103124000Y-81354395D01*
X103879669Y-80598725D01*
X103817831Y-80362958D01*
X103316878Y-80186581D01*
X102786560Y-80215336D01*
X102430169Y-80362958D01*
X102368331Y-80598725D01*
X101524511Y-80598725D01*
X103752618Y-78370618D01*
X103945330Y-78082205D01*
X103991534Y-77849916D01*
X104059317Y-77837162D01*
X104121788Y-77796963D01*
X110108714Y-77796963D01*
X110359534Y-78403995D01*
X110823563Y-78868834D01*
X111430155Y-79120713D01*
X112086963Y-79121286D01*
X112693995Y-78870466D01*
X113158834Y-78406437D01*
X113410713Y-77799845D01*
X113411286Y-77143037D01*
X113160466Y-76536005D01*
X112696437Y-76071166D01*
X112089845Y-75819287D01*
X111433037Y-75818714D01*
X110826005Y-76069534D01*
X110361166Y-76533563D01*
X110109287Y-77140155D01*
X110108714Y-77796963D01*
X104121788Y-77796963D01*
X104275441Y-77698090D01*
X104420431Y-77485890D01*
X104471440Y-77234000D01*
X104471440Y-76443796D01*
X104768618Y-76146618D01*
X104854192Y-76018547D01*
X104961329Y-75858206D01*
X105029000Y-75518000D01*
X105029000Y-73386792D01*
X105241441Y-73250090D01*
X105386431Y-73037890D01*
X105389041Y-73025000D01*
X110235992Y-73025000D01*
X110359534Y-73323995D01*
X110823563Y-73788834D01*
X111430155Y-74040713D01*
X112086963Y-74041286D01*
X112693995Y-73790466D01*
X113158834Y-73326437D01*
X113410713Y-72719845D01*
X113411286Y-72063037D01*
X113160466Y-71456005D01*
X112696437Y-70991166D01*
X112089845Y-70739287D01*
X111433037Y-70738714D01*
X110826005Y-70989534D01*
X110568090Y-71247000D01*
X105390792Y-71247000D01*
X105254090Y-71034559D01*
X105041890Y-70889569D01*
X105029000Y-70886959D01*
X105029000Y-70866000D01*
X104961329Y-70525794D01*
X104768618Y-70237382D01*
X103752618Y-69221382D01*
X103641790Y-69147329D01*
X103464206Y-69028671D01*
X103124000Y-68961000D01*
X98158236Y-68961000D01*
X94354618Y-65157382D01*
X94300293Y-65121083D01*
X94066206Y-64964671D01*
X93726000Y-64897000D01*
X80223657Y-64897000D01*
X80139668Y-64771302D01*
X79757582Y-64516000D01*
X80139668Y-64260698D01*
X80386681Y-63891016D01*
X89704590Y-63891016D01*
X89760271Y-64121611D01*
X90243078Y-64289622D01*
X90753428Y-64260083D01*
X91087729Y-64121611D01*
X91143410Y-63891016D01*
X90424000Y-63171605D01*
X89704590Y-63891016D01*
X80386681Y-63891016D01*
X80450737Y-63795151D01*
X80559970Y-63246000D01*
X80473459Y-62811078D01*
X89126378Y-62811078D01*
X89155917Y-63321428D01*
X89294389Y-63655729D01*
X89524984Y-63711410D01*
X90244395Y-62992000D01*
X90603605Y-62992000D01*
X91323016Y-63711410D01*
X91553611Y-63655729D01*
X91626560Y-63446098D01*
X91626560Y-63642000D01*
X91670838Y-63877317D01*
X91809910Y-64093441D01*
X92022110Y-64238431D01*
X92257635Y-64286126D01*
X92295382Y-64342618D01*
X92583794Y-64535329D01*
X92924000Y-64603000D01*
X93264206Y-64535329D01*
X93552618Y-64342618D01*
X93590185Y-64286395D01*
X93809317Y-64245162D01*
X94025441Y-64106090D01*
X94170431Y-63893890D01*
X94221440Y-63642000D01*
X94221440Y-62342000D01*
X94177162Y-62106683D01*
X94038090Y-61890559D01*
X93825890Y-61745569D01*
X93574000Y-61694560D01*
X92274000Y-61694560D01*
X92038683Y-61738838D01*
X91822559Y-61877910D01*
X91677569Y-62090110D01*
X91626560Y-62342000D01*
X91626560Y-62504385D01*
X91553611Y-62328271D01*
X91323016Y-62272590D01*
X90603605Y-62992000D01*
X90244395Y-62992000D01*
X89524984Y-62272590D01*
X89294389Y-62328271D01*
X89126378Y-62811078D01*
X80473459Y-62811078D01*
X80450737Y-62696849D01*
X80139668Y-62231302D01*
X79932661Y-62092984D01*
X89704590Y-62092984D01*
X90424000Y-62812395D01*
X91143410Y-62092984D01*
X91087729Y-61862389D01*
X90604922Y-61694378D01*
X90094572Y-61723917D01*
X89760271Y-61862389D01*
X89704590Y-62092984D01*
X79932661Y-62092984D01*
X79757582Y-61976000D01*
X80139668Y-61720698D01*
X80450737Y-61255151D01*
X80559970Y-60706000D01*
X80450737Y-60156849D01*
X80223657Y-59817000D01*
X83688806Y-59817000D01*
X83703538Y-59852655D01*
X84162927Y-60312846D01*
X84763453Y-60562206D01*
X85413694Y-60562774D01*
X86014655Y-60314462D01*
X86474846Y-59855073D01*
X86724206Y-59254547D01*
X86724774Y-58604306D01*
X86476462Y-58003345D01*
X86017073Y-57543154D01*
X85979000Y-57527345D01*
X85979000Y-56011194D01*
X86014655Y-55996462D01*
X86474846Y-55537073D01*
X86724206Y-54936547D01*
X86724208Y-54933694D01*
X91075226Y-54933694D01*
X91323538Y-55534655D01*
X91782927Y-55994846D01*
X92383453Y-56244206D01*
X93033694Y-56244774D01*
X93634655Y-55996462D01*
X94094846Y-55537073D01*
X94110655Y-55499000D01*
X96405764Y-55499000D01*
X98233067Y-57326303D01*
X98232769Y-57668383D01*
X98435582Y-58159229D01*
X98810796Y-58535098D01*
X99301287Y-58738768D01*
X99832383Y-58739231D01*
X100323229Y-58536418D01*
X100699098Y-58161204D01*
X100902768Y-57670713D01*
X100903000Y-57404026D01*
X103111077Y-57404026D01*
X103305945Y-57875642D01*
X103666460Y-58236786D01*
X104137736Y-58432477D01*
X104648026Y-58432923D01*
X105119642Y-58238055D01*
X105480786Y-57877540D01*
X105664209Y-57435808D01*
X105845945Y-57875642D01*
X106206460Y-58236786D01*
X106677736Y-58432477D01*
X107188026Y-58432923D01*
X107342181Y-58369227D01*
X110974378Y-58369227D01*
X110994574Y-58420000D01*
X110974378Y-58470773D01*
X111041446Y-58537841D01*
X111084328Y-58645649D01*
X111188403Y-58684798D01*
X112014000Y-59510395D01*
X112832836Y-58691559D01*
X112943672Y-58645649D01*
X112986554Y-58537841D01*
X113053622Y-58470773D01*
X113033426Y-58420000D01*
X113053622Y-58369227D01*
X112986554Y-58302159D01*
X112943672Y-58194351D01*
X112839597Y-58155202D01*
X112014000Y-57329605D01*
X111195164Y-58148441D01*
X111084328Y-58194351D01*
X111041446Y-58302159D01*
X110974378Y-58369227D01*
X107342181Y-58369227D01*
X107659642Y-58238055D01*
X108020786Y-57877540D01*
X108216477Y-57406264D01*
X108216923Y-56895974D01*
X108203487Y-56863455D01*
X110276431Y-56863455D01*
X110299039Y-57550206D01*
X110518351Y-58079672D01*
X110794773Y-58189622D01*
X111834395Y-57150000D01*
X110794773Y-56110378D01*
X110518351Y-56220328D01*
X110276431Y-56863455D01*
X108203487Y-56863455D01*
X108022055Y-56424358D01*
X107661540Y-56063214D01*
X107342587Y-55930773D01*
X110974378Y-55930773D01*
X112014000Y-56970395D01*
X113053622Y-55930773D01*
X112943672Y-55654351D01*
X112300545Y-55412431D01*
X111613794Y-55435039D01*
X111084328Y-55654351D01*
X110974378Y-55930773D01*
X107342587Y-55930773D01*
X107190264Y-55867523D01*
X106679974Y-55867077D01*
X106208358Y-56061945D01*
X105847214Y-56422460D01*
X105663791Y-56864192D01*
X105482055Y-56424358D01*
X105121540Y-56063214D01*
X104650264Y-55867523D01*
X104139974Y-55867077D01*
X103668358Y-56061945D01*
X103307214Y-56422460D01*
X103111523Y-56893736D01*
X103111077Y-57404026D01*
X100903000Y-57404026D01*
X100903231Y-57139617D01*
X100700418Y-56648771D01*
X100325204Y-56272902D01*
X99834713Y-56069232D01*
X99490168Y-56068932D01*
X97402618Y-53981382D01*
X97291790Y-53907329D01*
X97114206Y-53788671D01*
X96774000Y-53721000D01*
X94111194Y-53721000D01*
X94096462Y-53685345D01*
X93637073Y-53225154D01*
X93036547Y-52975794D01*
X92386306Y-52975226D01*
X91785345Y-53223538D01*
X91325154Y-53682927D01*
X91075794Y-54283453D01*
X91075226Y-54933694D01*
X86724208Y-54933694D01*
X86724774Y-54286306D01*
X86476462Y-53685345D01*
X86017073Y-53225154D01*
X85416547Y-52975794D01*
X84766306Y-52975226D01*
X84165345Y-53223538D01*
X83705154Y-53682927D01*
X83455794Y-54283453D01*
X83455226Y-54933694D01*
X83703538Y-55534655D01*
X84162927Y-55994846D01*
X84201000Y-56010655D01*
X84201000Y-57526806D01*
X84165345Y-57541538D01*
X83705154Y-58000927D01*
X83689345Y-58039000D01*
X71590000Y-58039000D01*
X71249794Y-58106671D01*
X70961382Y-58299382D01*
X70491382Y-58769382D01*
X70298671Y-59057794D01*
X70236538Y-59370156D01*
X70185879Y-59380233D01*
X69720332Y-59691302D01*
X69409263Y-60156849D01*
X69300030Y-60706000D01*
X69409263Y-61255151D01*
X69720332Y-61720698D01*
X70102418Y-61976000D01*
X69720332Y-62231302D01*
X69636343Y-62357000D01*
X69462000Y-62357000D01*
X69121794Y-62424671D01*
X68833382Y-62617382D01*
X67951382Y-63499382D01*
X67758671Y-63787794D01*
X67748561Y-63838621D01*
X67676138Y-63910917D01*
X67513385Y-64302869D01*
X67513015Y-64727269D01*
X67609489Y-64960753D01*
X67589794Y-64964671D01*
X67355707Y-65121083D01*
X67301382Y-65157382D01*
X61093382Y-71365382D01*
X60900671Y-71653794D01*
X60852522Y-71895858D01*
X60836683Y-71898838D01*
X60620559Y-72037910D01*
X60475569Y-72250110D01*
X60424560Y-72502000D01*
X60424560Y-73802000D01*
X60468838Y-74037317D01*
X60607910Y-74253441D01*
X60820110Y-74398431D01*
X61072000Y-74449440D01*
X62372000Y-74449440D01*
X62607317Y-74405162D01*
X62823441Y-74266090D01*
X62968431Y-74053890D01*
X62969012Y-74051016D01*
X63502590Y-74051016D01*
X63558271Y-74281611D01*
X64041078Y-74449622D01*
X64551428Y-74420083D01*
X64885729Y-74281611D01*
X64941410Y-74051016D01*
X64222000Y-73331605D01*
X63502590Y-74051016D01*
X62969012Y-74051016D01*
X63019440Y-73802000D01*
X63019440Y-73639615D01*
X63092389Y-73815729D01*
X63322984Y-73871410D01*
X64042395Y-73152000D01*
X64401605Y-73152000D01*
X65121016Y-73871410D01*
X65351611Y-73815729D01*
X65519622Y-73332922D01*
X65490083Y-72822572D01*
X65351611Y-72488271D01*
X65121016Y-72432590D01*
X64401605Y-73152000D01*
X64042395Y-73152000D01*
X63322984Y-72432590D01*
X63092389Y-72488271D01*
X63019440Y-72697902D01*
X63019440Y-72502000D01*
X62975162Y-72266683D01*
X62966347Y-72252984D01*
X63502590Y-72252984D01*
X64222000Y-72972395D01*
X64941410Y-72252984D01*
X64885729Y-72022389D01*
X64402922Y-71854378D01*
X63892572Y-71883917D01*
X63558271Y-72022389D01*
X63502590Y-72252984D01*
X62966347Y-72252984D01*
X62869992Y-72103244D01*
X65838362Y-69134874D01*
X65735385Y-69382869D01*
X65735015Y-69807269D01*
X65897084Y-70199504D01*
X66168669Y-70471565D01*
X66173382Y-70478618D01*
X69498187Y-73803423D01*
X69272306Y-73803226D01*
X68671345Y-74051538D01*
X68211154Y-74510927D01*
X67961794Y-75111453D01*
X67961226Y-75761694D01*
X67976969Y-75799795D01*
X66861764Y-76915000D01*
X64557877Y-76915000D01*
X64549162Y-76868683D01*
X64410090Y-76652559D01*
X64197890Y-76507569D01*
X63946000Y-76456560D01*
X62546000Y-76456560D01*
X62310683Y-76500838D01*
X62094559Y-76639910D01*
X61949569Y-76852110D01*
X61898560Y-77104000D01*
X61898560Y-78504000D01*
X61942838Y-78739317D01*
X62081910Y-78955441D01*
X62294110Y-79100431D01*
X62546000Y-79151440D01*
X63946000Y-79151440D01*
X64181317Y-79107162D01*
X64397441Y-78968090D01*
X64542431Y-78755890D01*
X64555167Y-78693000D01*
X67230000Y-78693000D01*
X67570206Y-78625329D01*
X67858618Y-78432618D01*
X69233824Y-77057412D01*
X69269453Y-77072206D01*
X69919694Y-77072774D01*
X70520655Y-76824462D01*
X70980846Y-76365073D01*
X71230206Y-75764547D01*
X71230406Y-75535642D01*
X71247000Y-75552236D01*
X71247000Y-77470000D01*
X71314671Y-77810206D01*
X71401810Y-77940618D01*
X71507382Y-78098618D01*
X72015382Y-78606618D01*
X72303794Y-78799329D01*
X72644000Y-78867000D01*
X74307764Y-78867000D01*
X78111382Y-82670618D01*
X78399794Y-82863329D01*
X78740000Y-82931000D01*
X79644081Y-82931000D01*
X79658917Y-82945862D01*
X80050869Y-83108615D01*
X80475269Y-83108985D01*
X80867504Y-82946916D01*
X80883448Y-82931000D01*
X82042000Y-82931000D01*
X82382206Y-82863329D01*
X82670618Y-82670618D01*
X83204197Y-82137039D01*
X83602096Y-82137039D01*
X83619633Y-82219819D01*
X83889500Y-82712896D01*
X84327517Y-83065166D01*
X84867000Y-83223000D01*
X85217000Y-83223000D01*
X85217000Y-81915000D01*
X85471000Y-81915000D01*
X85471000Y-83223000D01*
X85821000Y-83223000D01*
X86360483Y-83065166D01*
X86798500Y-82712896D01*
X87068367Y-82219819D01*
X87085904Y-82137039D01*
X86963915Y-81915000D01*
X85471000Y-81915000D01*
X85217000Y-81915000D01*
X83724085Y-81915000D01*
X83602096Y-82137039D01*
X83204197Y-82137039D01*
X83708537Y-81632699D01*
X83724085Y-81661000D01*
X85217000Y-81661000D01*
X85217000Y-81641000D01*
X85471000Y-81641000D01*
X85471000Y-81661000D01*
X86963915Y-81661000D01*
X87085904Y-81438961D01*
X87068367Y-81356181D01*
X86798500Y-80863104D01*
X86365849Y-80515149D01*
X86743668Y-80262698D01*
X87054737Y-79797151D01*
X87132911Y-79404147D01*
X87853000Y-80124236D01*
X87853000Y-86204313D01*
X87772916Y-86010496D01*
X87473083Y-85710138D01*
X87081131Y-85547385D01*
X86656731Y-85547015D01*
X86264496Y-85709084D01*
X85964138Y-86008917D01*
X85801385Y-86400869D01*
X85801365Y-86423399D01*
X85371316Y-86853448D01*
X85232916Y-86518496D01*
X84933083Y-86218138D01*
X84541131Y-86055385D01*
X84427099Y-86055286D01*
X84414206Y-86046671D01*
X84074000Y-85979000D01*
X82954334Y-85979000D01*
X82785186Y-85865979D01*
X82370135Y-85783420D01*
X81713865Y-85783420D01*
X81298814Y-85865979D01*
X81129666Y-85979000D01*
X78994000Y-85979000D01*
X78653794Y-86046671D01*
X78365382Y-86239382D01*
X77832176Y-86772588D01*
X77796547Y-86757794D01*
X77146306Y-86757226D01*
X76545345Y-87005538D01*
X76085154Y-87464927D01*
X76069345Y-87503000D01*
X75315194Y-87503000D01*
X75300462Y-87467345D01*
X74841073Y-87007154D01*
X74240547Y-86757794D01*
X73590306Y-86757226D01*
X73552205Y-86772969D01*
X70872483Y-84093247D01*
X70980846Y-83985073D01*
X71125920Y-83635694D01*
X72787226Y-83635694D01*
X73035538Y-84236655D01*
X73494927Y-84696846D01*
X74095453Y-84946206D01*
X74745694Y-84946774D01*
X75346655Y-84698462D01*
X75806846Y-84239073D01*
X76056206Y-83638547D01*
X76056774Y-82988306D01*
X75808462Y-82387345D01*
X75349073Y-81927154D01*
X74748547Y-81677794D01*
X74098306Y-81677226D01*
X73497345Y-81925538D01*
X73037154Y-82384927D01*
X72787794Y-82985453D01*
X72787226Y-83635694D01*
X71125920Y-83635694D01*
X71230206Y-83384547D01*
X71230774Y-82734306D01*
X70982462Y-82133345D01*
X70523073Y-81673154D01*
X69922547Y-81423794D01*
X69272306Y-81423226D01*
X68671345Y-81671538D01*
X68211154Y-82130927D01*
X67961794Y-82731453D01*
X67961226Y-83381694D01*
X68209538Y-83982655D01*
X68668927Y-84442846D01*
X68841761Y-84514613D01*
X68960425Y-84692206D01*
X68967382Y-84702618D01*
X72294588Y-88029824D01*
X72279794Y-88065453D01*
X72279226Y-88715694D01*
X72527538Y-89316655D01*
X72986927Y-89776846D01*
X73587453Y-90026206D01*
X74237694Y-90026774D01*
X74838655Y-89778462D01*
X75298846Y-89319073D01*
X75314655Y-89281000D01*
X76068806Y-89281000D01*
X76083538Y-89316655D01*
X76542927Y-89776846D01*
X77143453Y-90026206D01*
X77793694Y-90026774D01*
X78394655Y-89778462D01*
X78854846Y-89319073D01*
X79104206Y-88718547D01*
X79104774Y-88068306D01*
X79089031Y-88030205D01*
X79362236Y-87757000D01*
X80739572Y-87757000D01*
X80697019Y-87844065D01*
X80823932Y-88011000D01*
X81915000Y-88011000D01*
X81915000Y-87991000D01*
X82169000Y-87991000D01*
X82169000Y-88011000D01*
X83260068Y-88011000D01*
X83386981Y-87844065D01*
X83344428Y-87757000D01*
X83454525Y-87757000D01*
X83722917Y-88025862D01*
X84059246Y-88165518D01*
X83315943Y-88908821D01*
X83222359Y-88768762D01*
X83386981Y-88431935D01*
X83260068Y-88265000D01*
X82169000Y-88265000D01*
X82169000Y-88285000D01*
X81915000Y-88285000D01*
X81915000Y-88265000D01*
X80823932Y-88265000D01*
X80697019Y-88431935D01*
X80743458Y-88526951D01*
X80443224Y-88586671D01*
X80154812Y-88779382D01*
X78891194Y-90043000D01*
X71374000Y-90043000D01*
X71033794Y-90110671D01*
X70952400Y-90165057D01*
X70745382Y-90303382D01*
X69419697Y-91629067D01*
X69077617Y-91628769D01*
X68586771Y-91831582D01*
X68210902Y-92206796D01*
X68007232Y-92697287D01*
X68006932Y-93041832D01*
X67195764Y-93853000D01*
X63361821Y-93853000D01*
X63175778Y-93574567D01*
X62640155Y-93216675D01*
X62008345Y-93091000D01*
X61943655Y-93091000D01*
X61642199Y-93150963D01*
X61421000Y-92929764D01*
X61421000Y-89449877D01*
X61467317Y-89441162D01*
X61683441Y-89302090D01*
X61828431Y-89089890D01*
X61831795Y-89073275D01*
X64776331Y-89073275D01*
X64838169Y-89309042D01*
X65339122Y-89485419D01*
X65869440Y-89456664D01*
X66225831Y-89309042D01*
X66287669Y-89073275D01*
X65532000Y-88317605D01*
X64776331Y-89073275D01*
X61831795Y-89073275D01*
X61879440Y-88838000D01*
X61879440Y-87945122D01*
X64184581Y-87945122D01*
X64213336Y-88475440D01*
X64360958Y-88831831D01*
X64596725Y-88893669D01*
X65352395Y-88138000D01*
X65711605Y-88138000D01*
X66467275Y-88893669D01*
X66703042Y-88831831D01*
X66879419Y-88330878D01*
X66850664Y-87800560D01*
X66703042Y-87444169D01*
X66467275Y-87382331D01*
X65711605Y-88138000D01*
X65352395Y-88138000D01*
X64596725Y-87382331D01*
X64360958Y-87444169D01*
X64184581Y-87945122D01*
X61879440Y-87945122D01*
X61879440Y-87438000D01*
X61835170Y-87202725D01*
X64776331Y-87202725D01*
X65532000Y-87958395D01*
X66287669Y-87202725D01*
X66225831Y-86966958D01*
X65724878Y-86790581D01*
X65194560Y-86819336D01*
X64838169Y-86966958D01*
X64776331Y-87202725D01*
X61835170Y-87202725D01*
X61835162Y-87202683D01*
X61696090Y-86986559D01*
X61483890Y-86841569D01*
X61232000Y-86790560D01*
X59832000Y-86790560D01*
X59596683Y-86834838D01*
X59380559Y-86973910D01*
X59235569Y-87186110D01*
X59184560Y-87438000D01*
X59131200Y-87438000D01*
X59131200Y-83739275D01*
X62490331Y-83739275D01*
X62552169Y-83975042D01*
X63053122Y-84151419D01*
X63583440Y-84122664D01*
X63939831Y-83975042D01*
X64001669Y-83739275D01*
X63246000Y-82983605D01*
X62490331Y-83739275D01*
X59131200Y-83739275D01*
X59131200Y-82611122D01*
X61898581Y-82611122D01*
X61927336Y-83141440D01*
X62074958Y-83497831D01*
X62310725Y-83559669D01*
X63066395Y-82804000D01*
X63425605Y-82804000D01*
X64181275Y-83559669D01*
X64417042Y-83497831D01*
X64593419Y-82996878D01*
X64564664Y-82466560D01*
X64417042Y-82110169D01*
X64181275Y-82048331D01*
X63425605Y-82804000D01*
X63066395Y-82804000D01*
X62310725Y-82048331D01*
X62074958Y-82110169D01*
X61898581Y-82611122D01*
X59131200Y-82611122D01*
X59131200Y-81868725D01*
X62490331Y-81868725D01*
X63246000Y-82624395D01*
X64001669Y-81868725D01*
X63939831Y-81632958D01*
X63438878Y-81456581D01*
X62908560Y-81485336D01*
X62552169Y-81632958D01*
X62490331Y-81868725D01*
X59131200Y-81868725D01*
X59131200Y-60198000D01*
X59817000Y-60198000D01*
X59817000Y-63816000D01*
X59884671Y-64156206D01*
X60064228Y-64424931D01*
X60077382Y-64444618D01*
X61561439Y-65928675D01*
X61441569Y-66104110D01*
X61390560Y-66356000D01*
X61390560Y-67756000D01*
X61434838Y-67991317D01*
X61573910Y-68207441D01*
X61786110Y-68352431D01*
X62038000Y-68403440D01*
X63438000Y-68403440D01*
X63673317Y-68359162D01*
X63889441Y-68220090D01*
X64034431Y-68007890D01*
X64085440Y-67756000D01*
X64085440Y-66356000D01*
X64041162Y-66120683D01*
X63902090Y-65904559D01*
X63689890Y-65759569D01*
X63606032Y-65742587D01*
X63559329Y-65507794D01*
X63366618Y-65219382D01*
X61595000Y-63447764D01*
X61595000Y-62785619D01*
X61605582Y-62811229D01*
X61980796Y-63187098D01*
X62471287Y-63390768D01*
X63002383Y-63391231D01*
X63493229Y-63188418D01*
X63869098Y-62813204D01*
X64072768Y-62322713D01*
X64073231Y-61791617D01*
X63870418Y-61300771D01*
X63762536Y-61192700D01*
X70757824Y-54197412D01*
X70793453Y-54212206D01*
X71443694Y-54212774D01*
X72044655Y-53964462D01*
X72504846Y-53505073D01*
X72754206Y-52904547D01*
X72754774Y-52254306D01*
X72506462Y-51653345D01*
X72047073Y-51193154D01*
X71446547Y-50943794D01*
X70796306Y-50943226D01*
X70195345Y-51191538D01*
X69735154Y-51650927D01*
X69485794Y-52251453D01*
X69485226Y-52901694D01*
X69500969Y-52939795D01*
X62109382Y-60331382D01*
X61916671Y-60619794D01*
X61849000Y-60960000D01*
X61849000Y-61057120D01*
X61606902Y-61298796D01*
X61595000Y-61327459D01*
X61595000Y-60566236D01*
X63112618Y-59048618D01*
X63193212Y-58928000D01*
X63305329Y-58760206D01*
X63373000Y-58420000D01*
X63373000Y-56420428D01*
X63460065Y-56462981D01*
X63627000Y-56336068D01*
X63627000Y-55245000D01*
X63881000Y-55245000D01*
X63881000Y-56336068D01*
X64047935Y-56462981D01*
X64389000Y-56296288D01*
X64730065Y-56462981D01*
X64897000Y-56336068D01*
X64897000Y-55245000D01*
X65151000Y-55245000D01*
X65151000Y-56336068D01*
X65317935Y-56462981D01*
X65701111Y-56275706D01*
X65977420Y-55951373D01*
X66108580Y-55545990D01*
X66108580Y-55245000D01*
X65151000Y-55245000D01*
X64897000Y-55245000D01*
X63881000Y-55245000D01*
X63627000Y-55245000D01*
X63607000Y-55245000D01*
X63607000Y-54991000D01*
X63627000Y-54991000D01*
X63627000Y-53899932D01*
X63881000Y-53899932D01*
X63881000Y-54991000D01*
X64897000Y-54991000D01*
X64897000Y-53899932D01*
X65151000Y-53899932D01*
X65151000Y-54991000D01*
X66108580Y-54991000D01*
X66108580Y-54690010D01*
X65977420Y-54284627D01*
X65701111Y-53960294D01*
X65317935Y-53773019D01*
X65151000Y-53899932D01*
X64897000Y-53899932D01*
X64730065Y-53773019D01*
X64389000Y-53939712D01*
X64047935Y-53773019D01*
X63881000Y-53899932D01*
X63627000Y-53899932D01*
X63460065Y-53773019D01*
X63373000Y-53815572D01*
X63373000Y-53454236D01*
X64122236Y-52705000D01*
X67818000Y-52705000D01*
X68158206Y-52637329D01*
X68446618Y-52444618D01*
X70757824Y-50133412D01*
X70793453Y-50148206D01*
X71443694Y-50148774D01*
X72044655Y-49900462D01*
X72504846Y-49441073D01*
X72754206Y-48840547D01*
X72754774Y-48190306D01*
X72521194Y-47625000D01*
X76593764Y-47625000D01*
X77120588Y-48151824D01*
X77105794Y-48187453D01*
X77105226Y-48837694D01*
X77353538Y-49438655D01*
X77812927Y-49898846D01*
X77851000Y-49914655D01*
X77851000Y-51176806D01*
X77815345Y-51191538D01*
X77355154Y-51650927D01*
X77105794Y-52251453D01*
X77105226Y-52901694D01*
X77353538Y-53502655D01*
X77812927Y-53962846D01*
X78413453Y-54212206D01*
X79063694Y-54212774D01*
X79664655Y-53964462D01*
X80124846Y-53505073D01*
X80374206Y-52904547D01*
X80374774Y-52254306D01*
X80205286Y-51844113D01*
X101835454Y-51844113D01*
X101915831Y-52141490D01*
X102391645Y-52942789D01*
X103137884Y-53501007D01*
X104040940Y-53731160D01*
X105791000Y-53731160D01*
X105791000Y-51473100D01*
X106045000Y-51473100D01*
X106045000Y-53731160D01*
X107795060Y-53731160D01*
X108698116Y-53501007D01*
X109444355Y-52942789D01*
X109920169Y-52141490D01*
X110000546Y-51844113D01*
X109890745Y-51473100D01*
X106045000Y-51473100D01*
X105791000Y-51473100D01*
X101945255Y-51473100D01*
X101835454Y-51844113D01*
X80205286Y-51844113D01*
X80126462Y-51653345D01*
X79667073Y-51193154D01*
X79659870Y-51190163D01*
X81323443Y-51190163D01*
X81422042Y-51456965D01*
X82031582Y-51683401D01*
X82681377Y-51659341D01*
X83169958Y-51456965D01*
X83268557Y-51190163D01*
X82296000Y-50217605D01*
X81323443Y-51190163D01*
X79659870Y-51190163D01*
X79629000Y-51177345D01*
X79629000Y-49915194D01*
X79664655Y-49900462D01*
X79791756Y-49773582D01*
X80650599Y-49773582D01*
X80674659Y-50423377D01*
X80877035Y-50911958D01*
X81143837Y-51010557D01*
X82116395Y-50038000D01*
X82475605Y-50038000D01*
X83448163Y-51010557D01*
X83714965Y-50911958D01*
X83941401Y-50302418D01*
X83917341Y-49652623D01*
X83714965Y-49164042D01*
X83448163Y-49065443D01*
X82475605Y-50038000D01*
X82116395Y-50038000D01*
X81143837Y-49065443D01*
X80877035Y-49164042D01*
X80650599Y-49773582D01*
X79791756Y-49773582D01*
X80124846Y-49441073D01*
X80355399Y-48885837D01*
X81323443Y-48885837D01*
X82296000Y-49858395D01*
X83268557Y-48885837D01*
X83169958Y-48619035D01*
X82560418Y-48392599D01*
X81910623Y-48416659D01*
X81422042Y-48619035D01*
X81323443Y-48885837D01*
X80355399Y-48885837D01*
X80374206Y-48840547D01*
X80374774Y-48190306D01*
X80126462Y-47589345D01*
X79667073Y-47129154D01*
X79081604Y-46886046D01*
X82579559Y-46886046D01*
X82723469Y-47191312D01*
X83467186Y-47479605D01*
X84264615Y-47461344D01*
X84916531Y-47191312D01*
X85060441Y-46886046D01*
X87659559Y-46886046D01*
X87803469Y-47191312D01*
X88547186Y-47479605D01*
X89344615Y-47461344D01*
X89996531Y-47191312D01*
X90140441Y-46886046D01*
X88900000Y-45645605D01*
X87659559Y-46886046D01*
X85060441Y-46886046D01*
X83820000Y-45645605D01*
X82579559Y-46886046D01*
X79081604Y-46886046D01*
X79066547Y-46879794D01*
X78416306Y-46879226D01*
X78378205Y-46894969D01*
X77590618Y-46107382D01*
X77520014Y-46060206D01*
X77302206Y-45914671D01*
X76962000Y-45847000D01*
X72288542Y-45847000D01*
X72504846Y-45631073D01*
X72754206Y-45030547D01*
X72754774Y-44380306D01*
X72506462Y-43779345D01*
X72047073Y-43319154D01*
X72009000Y-43303345D01*
X72009000Y-42295194D01*
X72044655Y-42280462D01*
X72279363Y-42046163D01*
X77767443Y-42046163D01*
X77866042Y-42312965D01*
X78475582Y-42539401D01*
X79125377Y-42515341D01*
X79613958Y-42312965D01*
X79712557Y-42046163D01*
X78740000Y-41073605D01*
X77767443Y-42046163D01*
X72279363Y-42046163D01*
X72504846Y-41821073D01*
X72754206Y-41220547D01*
X72754722Y-40629582D01*
X77094599Y-40629582D01*
X77118659Y-41279377D01*
X77321035Y-41767958D01*
X77587837Y-41866557D01*
X78560395Y-40894000D01*
X78919605Y-40894000D01*
X79892163Y-41866557D01*
X80158965Y-41767958D01*
X80385401Y-41158418D01*
X80361341Y-40508623D01*
X80164410Y-40033186D01*
X81806395Y-40033186D01*
X81824656Y-40830615D01*
X82094688Y-41482531D01*
X82399954Y-41626441D01*
X83640395Y-40386000D01*
X82399954Y-39145559D01*
X82094688Y-39289469D01*
X81806395Y-40033186D01*
X80164410Y-40033186D01*
X80158965Y-40020042D01*
X79892163Y-39921443D01*
X78919605Y-40894000D01*
X78560395Y-40894000D01*
X77587837Y-39921443D01*
X77321035Y-40020042D01*
X77094599Y-40629582D01*
X72754722Y-40629582D01*
X72754774Y-40570306D01*
X72506462Y-39969345D01*
X72279351Y-39741837D01*
X77767443Y-39741837D01*
X78740000Y-40714395D01*
X79712557Y-39741837D01*
X79613958Y-39475035D01*
X79004418Y-39248599D01*
X78354623Y-39272659D01*
X77866042Y-39475035D01*
X77767443Y-39741837D01*
X72279351Y-39741837D01*
X72047073Y-39509154D01*
X71446547Y-39259794D01*
X70796306Y-39259226D01*
X70195345Y-39507538D01*
X69735154Y-39966927D01*
X69485794Y-40567453D01*
X69485226Y-41217694D01*
X69733538Y-41818655D01*
X70192927Y-42278846D01*
X70231000Y-42294655D01*
X70231000Y-43302806D01*
X70195345Y-43317538D01*
X69735154Y-43776927D01*
X69719345Y-43815000D01*
X66802000Y-43815000D01*
X66461794Y-43882671D01*
X66173382Y-44075382D01*
X62877764Y-47371000D01*
X62466880Y-47371000D01*
X62225204Y-47128902D01*
X61734713Y-46925232D01*
X61203617Y-46924769D01*
X60712771Y-47127582D01*
X60336902Y-47502796D01*
X60133232Y-47993287D01*
X60132769Y-48524383D01*
X60335582Y-49015229D01*
X60710796Y-49391098D01*
X61201287Y-49594768D01*
X61732383Y-49595231D01*
X62223229Y-49392418D01*
X62467072Y-49149000D01*
X63246000Y-49149000D01*
X63586206Y-49081329D01*
X63874618Y-48888618D01*
X65120560Y-47642676D01*
X65120560Y-48960000D01*
X65164838Y-49195317D01*
X65303910Y-49411441D01*
X65516110Y-49556431D01*
X65768000Y-49607440D01*
X67168000Y-49607440D01*
X67403317Y-49563162D01*
X67619441Y-49424090D01*
X67764431Y-49211890D01*
X67781413Y-49128032D01*
X68016206Y-49081329D01*
X68304618Y-48888618D01*
X69568236Y-47625000D01*
X69719345Y-47625000D01*
X69485794Y-48187453D01*
X69485226Y-48837694D01*
X69500969Y-48875795D01*
X67449764Y-50927000D01*
X63754000Y-50927000D01*
X63413794Y-50994671D01*
X63125382Y-51187382D01*
X61855382Y-52457382D01*
X61662671Y-52745794D01*
X61595000Y-53086000D01*
X61595000Y-54205666D01*
X61481979Y-54374814D01*
X61399420Y-54789865D01*
X61399420Y-55446135D01*
X61481979Y-55861186D01*
X61595000Y-56030334D01*
X61595000Y-58051764D01*
X60077382Y-59569382D01*
X59884671Y-59857794D01*
X59817000Y-60198000D01*
X59131200Y-60198000D01*
X59131200Y-38811200D01*
X62790221Y-38811200D01*
X61726485Y-39250727D01*
X61726485Y-39250727D01*
G37*
X61726485Y-39250727D02*
X60843826Y-40131847D01*
X60365546Y-41283674D01*
X60364457Y-42530854D01*
X60840727Y-43683515D01*
X61721847Y-44566174D01*
X62873674Y-45044454D01*
X64120854Y-45045543D01*
X65273515Y-44569273D01*
X66156174Y-43688153D01*
X66634454Y-42536326D01*
X66635543Y-41289146D01*
X66159273Y-40136485D01*
X65278153Y-39253826D01*
X64212190Y-38811200D01*
X82652514Y-38811200D01*
X82579559Y-38965954D01*
X83820000Y-40206395D01*
X85060441Y-38965954D01*
X84987486Y-38811200D01*
X87732514Y-38811200D01*
X87659559Y-38965954D01*
X88900000Y-40206395D01*
X90140441Y-38965954D01*
X90067486Y-38811200D01*
X94540221Y-38811200D01*
X93476485Y-39250727D01*
X92593826Y-40131847D01*
X92115546Y-41283674D01*
X92114457Y-42530854D01*
X92590727Y-43683515D01*
X93471847Y-44566174D01*
X94109619Y-44831000D01*
X93332236Y-44831000D01*
X90798618Y-42297382D01*
X90770877Y-42278846D01*
X90510206Y-42104671D01*
X90170000Y-42037000D01*
X90031564Y-42037000D01*
X90140441Y-41806046D01*
X88900000Y-40565605D01*
X88885858Y-40579748D01*
X88706253Y-40400143D01*
X88720395Y-40386000D01*
X89079605Y-40386000D01*
X90320046Y-41626441D01*
X90625312Y-41482531D01*
X90913605Y-40738814D01*
X90895344Y-39941385D01*
X90625312Y-39289469D01*
X90320046Y-39145559D01*
X89079605Y-40386000D01*
X88720395Y-40386000D01*
X87479954Y-39145559D01*
X87174688Y-39289469D01*
X86886395Y-40033186D01*
X86904656Y-40830615D01*
X87115394Y-41339381D01*
X86710623Y-41171306D01*
X86012441Y-41170697D01*
X85600156Y-41341049D01*
X85833605Y-40738814D01*
X85815344Y-39941385D01*
X85545312Y-39289469D01*
X85240046Y-39145559D01*
X83999605Y-40386000D01*
X84013748Y-40400143D01*
X83834143Y-40579748D01*
X83820000Y-40565605D01*
X82579559Y-41806046D01*
X82688436Y-42037000D01*
X80518000Y-42037000D01*
X80177794Y-42104671D01*
X79917123Y-42278846D01*
X79889382Y-42297382D01*
X79102176Y-43084588D01*
X79066547Y-43069794D01*
X78416306Y-43069226D01*
X77815345Y-43317538D01*
X77355154Y-43776927D01*
X77105794Y-44377453D01*
X77105226Y-45027694D01*
X77353538Y-45628655D01*
X77812927Y-46088846D01*
X78413453Y-46338206D01*
X79063694Y-46338774D01*
X79664655Y-46090462D01*
X80124846Y-45631073D01*
X80339891Y-45113186D01*
X81806395Y-45113186D01*
X81824656Y-45910615D01*
X82094688Y-46562531D01*
X82399954Y-46706441D01*
X83640395Y-45466000D01*
X82399954Y-44225559D01*
X82094688Y-44369469D01*
X81806395Y-45113186D01*
X80339891Y-45113186D01*
X80374206Y-45030547D01*
X80374774Y-44380306D01*
X80359031Y-44342205D01*
X80886236Y-43815000D01*
X82688436Y-43815000D01*
X82579559Y-44045954D01*
X83820000Y-45286395D01*
X83834143Y-45272253D01*
X84013748Y-45451858D01*
X83999605Y-45466000D01*
X85240046Y-46706441D01*
X85545312Y-46562531D01*
X85833605Y-45818814D01*
X85815344Y-45021385D01*
X85604606Y-44512619D01*
X86009377Y-44680694D01*
X86707559Y-44681303D01*
X87119844Y-44510951D01*
X86886395Y-45113186D01*
X86904656Y-45910615D01*
X87174688Y-46562531D01*
X87479954Y-46706441D01*
X88720395Y-45466000D01*
X88706253Y-45451858D01*
X88885858Y-45272253D01*
X88900000Y-45286395D01*
X88914143Y-45272253D01*
X89093748Y-45451858D01*
X89079605Y-45466000D01*
X90320046Y-46706441D01*
X90625312Y-46562531D01*
X90913605Y-45818814D01*
X90895344Y-45021385D01*
X90815579Y-44828815D01*
X92335382Y-46348618D01*
X92623794Y-46541329D01*
X92796845Y-46575751D01*
X92454675Y-47087845D01*
X92329000Y-47719655D01*
X92329000Y-47784345D01*
X92388963Y-48085801D01*
X91325764Y-49149000D01*
X91317194Y-49149000D01*
X91302462Y-49113345D01*
X90843073Y-48653154D01*
X90242547Y-48403794D01*
X89592306Y-48403226D01*
X88991345Y-48651538D01*
X88531154Y-49110927D01*
X88281794Y-49711453D01*
X88281226Y-50361694D01*
X88529538Y-50962655D01*
X88988927Y-51422846D01*
X89589453Y-51672206D01*
X90239694Y-51672774D01*
X90840655Y-51424462D01*
X91300846Y-50965073D01*
X91316655Y-50927000D01*
X91694000Y-50927000D01*
X92034206Y-50859329D01*
X92051030Y-50848087D01*
X101835454Y-50848087D01*
X101945255Y-51219100D01*
X105791000Y-51219100D01*
X105791000Y-48961040D01*
X106045000Y-48961040D01*
X106045000Y-51219100D01*
X109890745Y-51219100D01*
X110000546Y-50848087D01*
X109920169Y-50550710D01*
X109444355Y-49749411D01*
X108698116Y-49191193D01*
X107795060Y-48961040D01*
X106045000Y-48961040D01*
X105791000Y-48961040D01*
X104040940Y-48961040D01*
X103137884Y-49191193D01*
X102391645Y-49749411D01*
X101915831Y-50550710D01*
X101835454Y-50848087D01*
X92051030Y-50848087D01*
X92322618Y-50666618D01*
X93624587Y-49364649D01*
X93980000Y-49435345D01*
X94611810Y-49309670D01*
X94951792Y-49082501D01*
X95039910Y-49219441D01*
X95252110Y-49364431D01*
X95504000Y-49415440D01*
X97536000Y-49415440D01*
X97771317Y-49371162D01*
X97987441Y-49232090D01*
X98132431Y-49019890D01*
X98183440Y-48768000D01*
X98183440Y-48641000D01*
X99697540Y-48641000D01*
X100037746Y-48573329D01*
X100326158Y-48380618D01*
X101049280Y-47657496D01*
X101166837Y-47680880D01*
X102139843Y-47680880D01*
X102689032Y-47571640D01*
X103154612Y-47260549D01*
X103465703Y-46794969D01*
X103574943Y-46245780D01*
X103465703Y-45696591D01*
X103154612Y-45231011D01*
X102803421Y-44996352D01*
X103207492Y-44671387D01*
X103477381Y-44178277D01*
X103494923Y-44095475D01*
X103372936Y-43873420D01*
X101780340Y-43873420D01*
X101780340Y-43893420D01*
X101526340Y-43893420D01*
X101526340Y-43873420D01*
X99933744Y-43873420D01*
X99811757Y-44095475D01*
X99829299Y-44178277D01*
X100099188Y-44671387D01*
X100503259Y-44996352D01*
X100152068Y-45231011D01*
X99840977Y-45696591D01*
X99731737Y-46245780D01*
X99767372Y-46424932D01*
X99329304Y-46863000D01*
X98183440Y-46863000D01*
X98183440Y-46736000D01*
X98139162Y-46500683D01*
X98000090Y-46284559D01*
X97787890Y-46139569D01*
X97536000Y-46088560D01*
X97381264Y-46088560D01*
X97341329Y-45887794D01*
X97148618Y-45599382D01*
X96640618Y-45091382D01*
X96570014Y-45044206D01*
X96352206Y-44898671D01*
X96267223Y-44881767D01*
X97023515Y-44569273D01*
X97906174Y-43688153D01*
X98026919Y-43397365D01*
X99811757Y-43397365D01*
X99933744Y-43619420D01*
X101526340Y-43619420D01*
X101526340Y-42311320D01*
X101780340Y-42311320D01*
X101780340Y-43619420D01*
X103372936Y-43619420D01*
X103494923Y-43397365D01*
X103494147Y-43393704D01*
X104040940Y-43533060D01*
X105791000Y-43533060D01*
X105791000Y-41275000D01*
X106045000Y-41275000D01*
X106045000Y-43533060D01*
X107795060Y-43533060D01*
X108698116Y-43302907D01*
X109444355Y-42744689D01*
X109920169Y-41943390D01*
X110000546Y-41646013D01*
X109890745Y-41275000D01*
X106045000Y-41275000D01*
X105791000Y-41275000D01*
X101945255Y-41275000D01*
X101835454Y-41646013D01*
X101915831Y-41943390D01*
X102134309Y-42311320D01*
X101780340Y-42311320D01*
X101526340Y-42311320D01*
X101076760Y-42311320D01*
X100537238Y-42469161D01*
X100099188Y-42821453D01*
X99829299Y-43314563D01*
X99811757Y-43397365D01*
X98026919Y-43397365D01*
X98384454Y-42536326D01*
X98385543Y-41289146D01*
X97909273Y-40136485D01*
X97028153Y-39253826D01*
X95962190Y-38811200D01*
X103851581Y-38811200D01*
X103137884Y-38993093D01*
X102391645Y-39551311D01*
X101915831Y-40352610D01*
X101835454Y-40649987D01*
X101945255Y-41021000D01*
X105791000Y-41021000D01*
X105791000Y-41001000D01*
X106045000Y-41001000D01*
X106045000Y-41021000D01*
X109890745Y-41021000D01*
X110000546Y-40649987D01*
X109920169Y-40352610D01*
X109444355Y-39551311D01*
X108698116Y-38993093D01*
X107984419Y-38811200D01*
X113588800Y-38811200D01*
X113588800Y-56411415D01*
X113509649Y-56220328D01*
X113233227Y-56110378D01*
X112193605Y-57150000D01*
X113233227Y-58189622D01*
X113509649Y-58079672D01*
X113588800Y-57869255D01*
X113588800Y-58951415D01*
X113509649Y-58760328D01*
X113233227Y-58650378D01*
X112193605Y-59690000D01*
X113233227Y-60729622D01*
X113509649Y-60619672D01*
X113588800Y-60409255D01*
X113588800Y-64058386D01*
X113479103Y-63792898D01*
X112993658Y-63306605D01*
X112822364Y-63235477D01*
X113100786Y-62957540D01*
X113296477Y-62486264D01*
X113296923Y-61975974D01*
X113102055Y-61504358D01*
X112830639Y-61232469D01*
X112943672Y-61185649D01*
X113053622Y-60909227D01*
X112014000Y-59869605D01*
X110974378Y-60909227D01*
X111084328Y-61185649D01*
X111200719Y-61229431D01*
X110927214Y-61502460D01*
X110731523Y-61973736D01*
X110731077Y-62484026D01*
X110925945Y-62955642D01*
X111205180Y-63235364D01*
X111036898Y-63304897D01*
X110550605Y-63790342D01*
X110512960Y-63881000D01*
X107488622Y-63881000D01*
X107863672Y-63725649D01*
X107973622Y-63449227D01*
X106934000Y-62409605D01*
X105894378Y-63449227D01*
X106004328Y-63725649D01*
X106417318Y-63881000D01*
X105524236Y-63881000D01*
X103586691Y-61943455D01*
X105196431Y-61943455D01*
X105219039Y-62630206D01*
X105438351Y-63159672D01*
X105714773Y-63269622D01*
X106754395Y-62230000D01*
X107113605Y-62230000D01*
X108153227Y-63269622D01*
X108429649Y-63159672D01*
X108671569Y-62516545D01*
X108648961Y-61829794D01*
X108429649Y-61300328D01*
X108153227Y-61190378D01*
X107113605Y-62230000D01*
X106754395Y-62230000D01*
X105714773Y-61190378D01*
X105438351Y-61300328D01*
X105196431Y-61943455D01*
X103586691Y-61943455D01*
X103418618Y-61775382D01*
X103341595Y-61723917D01*
X103130206Y-61582671D01*
X102790000Y-61515000D01*
X100879877Y-61515000D01*
X100871162Y-61468683D01*
X100732090Y-61252559D01*
X100519890Y-61107569D01*
X100268000Y-61056560D01*
X98868000Y-61056560D01*
X98632683Y-61100838D01*
X98416559Y-61239910D01*
X98271569Y-61452110D01*
X98220560Y-61704000D01*
X98220560Y-63104000D01*
X98238482Y-63199246D01*
X96050009Y-61010773D01*
X105894378Y-61010773D01*
X106934000Y-62050395D01*
X107973622Y-61010773D01*
X107863672Y-60734351D01*
X107220545Y-60492431D01*
X106533794Y-60515039D01*
X106004328Y-60734351D01*
X105894378Y-61010773D01*
X96050009Y-61010773D01*
X94442691Y-59403455D01*
X110276431Y-59403455D01*
X110299039Y-60090206D01*
X110518351Y-60619672D01*
X110794773Y-60729622D01*
X111834395Y-59690000D01*
X110794773Y-58650378D01*
X110518351Y-58760328D01*
X110276431Y-59403455D01*
X94442691Y-59403455D01*
X94329412Y-59290176D01*
X94344206Y-59254547D01*
X94344774Y-58604306D01*
X94096462Y-58003345D01*
X93637073Y-57543154D01*
X93036547Y-57293794D01*
X92386306Y-57293226D01*
X91785345Y-57541538D01*
X91325154Y-58000927D01*
X91075794Y-58601453D01*
X91075226Y-59251694D01*
X91323538Y-59852655D01*
X91782927Y-60312846D01*
X92383453Y-60562206D01*
X93033694Y-60562774D01*
X93071795Y-60547031D01*
X97155000Y-64630236D01*
X97155000Y-65297208D01*
X96942559Y-65433910D01*
X96797569Y-65646110D01*
X96746560Y-65898000D01*
X96746560Y-67198000D01*
X96790838Y-67433317D01*
X96929910Y-67649441D01*
X97142110Y-67794431D01*
X97394000Y-67845440D01*
X98694000Y-67845440D01*
X98929317Y-67801162D01*
X99145441Y-67662090D01*
X99290431Y-67449890D01*
X99291012Y-67447016D01*
X99824590Y-67447016D01*
X99880271Y-67677611D01*
X100363078Y-67845622D01*
X100873428Y-67816083D01*
X101207729Y-67677611D01*
X101235155Y-67564026D01*
X103111077Y-67564026D01*
X103305945Y-68035642D01*
X103666460Y-68396786D01*
X104137736Y-68592477D01*
X104648026Y-68592923D01*
X105119642Y-68398055D01*
X105480786Y-68037540D01*
X105664209Y-67595808D01*
X105845945Y-68035642D01*
X106206460Y-68396786D01*
X106677736Y-68592477D01*
X107188026Y-68592923D01*
X107659642Y-68398055D01*
X108020786Y-68037540D01*
X108216477Y-67566264D01*
X108216923Y-67055974D01*
X108022055Y-66584358D01*
X107661540Y-66223214D01*
X107190264Y-66027523D01*
X106679974Y-66027077D01*
X106208358Y-66221945D01*
X105847214Y-66582460D01*
X105663791Y-67024192D01*
X105482055Y-66584358D01*
X105121540Y-66223214D01*
X104650264Y-66027523D01*
X104139974Y-66027077D01*
X103668358Y-66221945D01*
X103307214Y-66582460D01*
X103111523Y-67053736D01*
X103111077Y-67564026D01*
X101235155Y-67564026D01*
X101263410Y-67447016D01*
X100544000Y-66727605D01*
X99824590Y-67447016D01*
X99291012Y-67447016D01*
X99341440Y-67198000D01*
X99341440Y-67035615D01*
X99414389Y-67211729D01*
X99644984Y-67267410D01*
X100364395Y-66548000D01*
X100723605Y-66548000D01*
X101443016Y-67267410D01*
X101673611Y-67211729D01*
X101841622Y-66728922D01*
X101812083Y-66218572D01*
X101673611Y-65884271D01*
X101443016Y-65828590D01*
X100723605Y-66548000D01*
X100364395Y-66548000D01*
X99644984Y-65828590D01*
X99414389Y-65884271D01*
X99341440Y-66093902D01*
X99341440Y-65898000D01*
X99297162Y-65662683D01*
X99288347Y-65648984D01*
X99824590Y-65648984D01*
X100544000Y-66368395D01*
X101263410Y-65648984D01*
X101207729Y-65418389D01*
X100724922Y-65250378D01*
X100214572Y-65279917D01*
X99880271Y-65418389D01*
X99824590Y-65648984D01*
X99288347Y-65648984D01*
X99158090Y-65446559D01*
X98945890Y-65301569D01*
X98933000Y-65298959D01*
X98933000Y-64262000D01*
X98865329Y-63921794D01*
X98733272Y-63724157D01*
X98868000Y-63751440D01*
X100268000Y-63751440D01*
X100503317Y-63707162D01*
X100719441Y-63568090D01*
X100864431Y-63355890D01*
X100877167Y-63293000D01*
X102421764Y-63293000D01*
X104527382Y-65398618D01*
X104815794Y-65591329D01*
X105156000Y-65659000D01*
X110512494Y-65659000D01*
X110548897Y-65747102D01*
X110841369Y-66040085D01*
X110550605Y-66330342D01*
X110287100Y-66964931D01*
X110286501Y-67652054D01*
X110548897Y-68287102D01*
X111034342Y-68773395D01*
X111668931Y-69036900D01*
X112356054Y-69037499D01*
X112991102Y-68775103D01*
X113477395Y-68289658D01*
X113588800Y-68021366D01*
X113588800Y-118668800D01*
X59131200Y-118668800D01*
X59131200Y-114920854D01*
X60364457Y-114920854D01*
X60840727Y-116073515D01*
X61721847Y-116956174D01*
X62873674Y-117434454D01*
X64120854Y-117435543D01*
X65273515Y-116959273D01*
X66156174Y-116078153D01*
X66634454Y-114926326D01*
X66635543Y-113679146D01*
X66159273Y-112526485D01*
X65617756Y-111984022D01*
X67694844Y-111984022D01*
X67915613Y-112354743D01*
X68887272Y-112748119D01*
X69935507Y-112739713D01*
X70864907Y-112354743D01*
X71085676Y-111984022D01*
X69390260Y-110288605D01*
X67694844Y-111984022D01*
X65617756Y-111984022D01*
X65278153Y-111643826D01*
X64126326Y-111165546D01*
X62879146Y-111164457D01*
X61726485Y-111640727D01*
X60843826Y-112521847D01*
X60365546Y-113673674D01*
X60364457Y-114920854D01*
X59131200Y-114920854D01*
X59131200Y-109606012D01*
X66751141Y-109606012D01*
X66759547Y-110654247D01*
X67144517Y-111583647D01*
X67515238Y-111804416D01*
X69210655Y-110109000D01*
X69569865Y-110109000D01*
X71265282Y-111804416D01*
X71636003Y-111583647D01*
X72029379Y-110611988D01*
X72020973Y-109563753D01*
X71685097Y-108752876D01*
X71761382Y-108867045D01*
X74295000Y-111400663D01*
X74295000Y-114692179D01*
X74016567Y-114878222D01*
X73658675Y-115413845D01*
X73533000Y-116045655D01*
X73533000Y-116110345D01*
X73658675Y-116742155D01*
X74016567Y-117277778D01*
X74552190Y-117635670D01*
X75184000Y-117761345D01*
X75815810Y-117635670D01*
X76155792Y-117408501D01*
X76243910Y-117545441D01*
X76456110Y-117690431D01*
X76708000Y-117741440D01*
X78740000Y-117741440D01*
X78806113Y-117729000D01*
X82418806Y-117729000D01*
X82433538Y-117764655D01*
X82892927Y-118224846D01*
X83493453Y-118474206D01*
X84143694Y-118474774D01*
X84744655Y-118226462D01*
X85204846Y-117767073D01*
X85358612Y-117396762D01*
X89617584Y-117396762D01*
X89838353Y-117767483D01*
X90810012Y-118160859D01*
X91858247Y-118152453D01*
X92787647Y-117767483D01*
X93008416Y-117396762D01*
X91313000Y-115701345D01*
X89617584Y-117396762D01*
X85358612Y-117396762D01*
X85454206Y-117166547D01*
X85454774Y-116516306D01*
X85206462Y-115915345D01*
X84747073Y-115455154D01*
X84146547Y-115205794D01*
X83496306Y-115205226D01*
X82895345Y-115453538D01*
X82435154Y-115912927D01*
X82419345Y-115951000D01*
X79387440Y-115951000D01*
X79387440Y-115062000D01*
X79379303Y-115018752D01*
X88673881Y-115018752D01*
X88682287Y-116066987D01*
X89067257Y-116996387D01*
X89437978Y-117217156D01*
X91133395Y-115521740D01*
X91492605Y-115521740D01*
X93188022Y-117217156D01*
X93558743Y-116996387D01*
X93720704Y-116596333D01*
X101860854Y-116596333D01*
X101941231Y-116893710D01*
X102417045Y-117695009D01*
X103163284Y-118253227D01*
X104066340Y-118483380D01*
X105816400Y-118483380D01*
X105816400Y-116225320D01*
X106070400Y-116225320D01*
X106070400Y-118483380D01*
X107820460Y-118483380D01*
X108723516Y-118253227D01*
X109469755Y-117695009D01*
X109945569Y-116893710D01*
X110025946Y-116596333D01*
X109916145Y-116225320D01*
X106070400Y-116225320D01*
X105816400Y-116225320D01*
X101970655Y-116225320D01*
X101860854Y-116596333D01*
X93720704Y-116596333D01*
X93952119Y-116024728D01*
X93948716Y-115600307D01*
X101860854Y-115600307D01*
X101970655Y-115971320D01*
X105816400Y-115971320D01*
X105816400Y-113713260D01*
X106070400Y-113713260D01*
X106070400Y-115971320D01*
X109916145Y-115971320D01*
X110025946Y-115600307D01*
X109945569Y-115302930D01*
X109469755Y-114501631D01*
X108723516Y-113943413D01*
X107820460Y-113713260D01*
X106070400Y-113713260D01*
X105816400Y-113713260D01*
X104066340Y-113713260D01*
X103163284Y-113943413D01*
X102417045Y-114501631D01*
X101941231Y-115302930D01*
X101860854Y-115600307D01*
X93948716Y-115600307D01*
X93943713Y-114976493D01*
X93703689Y-114397022D01*
X94316584Y-114397022D01*
X94537353Y-114767743D01*
X95509012Y-115161119D01*
X96557247Y-115152713D01*
X97486647Y-114767743D01*
X97707416Y-114397022D01*
X96012000Y-112701605D01*
X94316584Y-114397022D01*
X93703689Y-114397022D01*
X93558743Y-114047093D01*
X93188022Y-113826324D01*
X91492605Y-115521740D01*
X91133395Y-115521740D01*
X89437978Y-113826324D01*
X89067257Y-114047093D01*
X88673881Y-115018752D01*
X79379303Y-115018752D01*
X79343162Y-114826683D01*
X79204090Y-114610559D01*
X78991890Y-114465569D01*
X78740000Y-114414560D01*
X76708000Y-114414560D01*
X76472683Y-114458838D01*
X76256559Y-114597910D01*
X76154802Y-114746837D01*
X76073000Y-114692179D01*
X76073000Y-113646718D01*
X89617584Y-113646718D01*
X91313000Y-115342135D01*
X93008416Y-113646718D01*
X92787647Y-113275997D01*
X91815988Y-112882621D01*
X90767753Y-112891027D01*
X89838353Y-113275997D01*
X89617584Y-113646718D01*
X76073000Y-113646718D01*
X76073000Y-111032427D01*
X76005329Y-110692221D01*
X75812618Y-110403809D01*
X73295669Y-107886860D01*
X73880658Y-107645147D01*
X74622542Y-106904557D01*
X75024542Y-105936433D01*
X75025457Y-104888166D01*
X74625147Y-103919342D01*
X73884557Y-103177458D01*
X72916433Y-102775458D01*
X71868166Y-102774543D01*
X70899342Y-103174853D01*
X70157458Y-103915443D01*
X69755458Y-104883567D01*
X69754543Y-105931834D01*
X70154853Y-106900658D01*
X70895443Y-107642542D01*
X71501000Y-107893991D01*
X71501000Y-108238427D01*
X71568671Y-108578633D01*
X71586009Y-108604581D01*
X71265282Y-108413584D01*
X69569865Y-110109000D01*
X69210655Y-110109000D01*
X67515238Y-108413584D01*
X67144517Y-108634353D01*
X66751141Y-109606012D01*
X59131200Y-109606012D01*
X59131200Y-108233978D01*
X67694844Y-108233978D01*
X69390260Y-109929395D01*
X71085676Y-108233978D01*
X70864907Y-107863257D01*
X69893248Y-107469881D01*
X68845013Y-107478287D01*
X67915613Y-107863257D01*
X67694844Y-108233978D01*
X59131200Y-108233978D01*
X59131200Y-107285022D01*
X64695104Y-107285022D01*
X64915873Y-107655743D01*
X65887532Y-108049119D01*
X66935767Y-108040713D01*
X67865167Y-107655743D01*
X68085936Y-107285022D01*
X66390520Y-105589605D01*
X64695104Y-107285022D01*
X59131200Y-107285022D01*
X59131200Y-104907012D01*
X63751401Y-104907012D01*
X63759807Y-105955247D01*
X64144777Y-106884647D01*
X64515498Y-107105416D01*
X66210915Y-105410000D01*
X66570125Y-105410000D01*
X68265542Y-107105416D01*
X68636263Y-106884647D01*
X69029639Y-105912988D01*
X69021233Y-104864753D01*
X68636263Y-103935353D01*
X68265542Y-103714584D01*
X66570125Y-105410000D01*
X66210915Y-105410000D01*
X64515498Y-103714584D01*
X64144777Y-103935353D01*
X63751401Y-104907012D01*
X59131200Y-104907012D01*
X59131200Y-103534978D01*
X64695104Y-103534978D01*
X66390520Y-105230395D01*
X68085936Y-103534978D01*
X67865167Y-103164257D01*
X66893508Y-102770881D01*
X65845273Y-102779287D01*
X64915873Y-103164257D01*
X64695104Y-103534978D01*
X59131200Y-103534978D01*
X59131200Y-87438000D01*
X59184560Y-87438000D01*
X59184560Y-88838000D01*
X59228838Y-89073317D01*
X59367910Y-89289441D01*
X59580110Y-89434431D01*
X59643000Y-89447167D01*
X59643000Y-93298000D01*
X59710671Y-93638206D01*
X59808976Y-93785329D01*
X59903382Y-93926618D01*
X60363351Y-94386587D01*
X60292655Y-94742000D01*
X60418330Y-95373810D01*
X60645499Y-95713792D01*
X60508559Y-95801910D01*
X60363569Y-96014110D01*
X60312560Y-96266000D01*
X60312560Y-98298000D01*
X60356838Y-98533317D01*
X60495910Y-98749441D01*
X60708110Y-98894431D01*
X60960000Y-98945440D01*
X62992000Y-98945440D01*
X63227317Y-98901162D01*
X63302163Y-98853000D01*
X68030123Y-98853000D01*
X68038838Y-98899317D01*
X68177910Y-99115441D01*
X68390110Y-99260431D01*
X68642000Y-99311440D01*
X70042000Y-99311440D01*
X70277317Y-99267162D01*
X70493441Y-99128090D01*
X70638431Y-98915890D01*
X70689440Y-98664000D01*
X70689440Y-97264000D01*
X70645162Y-97028683D01*
X70520415Y-96834821D01*
X73756236Y-93599000D01*
X75069764Y-93599000D01*
X74276176Y-94392588D01*
X74240547Y-94377794D01*
X73590306Y-94377226D01*
X72989345Y-94625538D01*
X72529154Y-95084927D01*
X72279794Y-95685453D01*
X72279226Y-96335694D01*
X72527538Y-96936655D01*
X72986927Y-97396846D01*
X73025000Y-97412655D01*
X73025000Y-98044000D01*
X73092671Y-98384206D01*
X73143793Y-98460715D01*
X73285382Y-98672618D01*
X75948560Y-101335796D01*
X75948560Y-102046000D01*
X75992838Y-102281317D01*
X76131910Y-102497441D01*
X76344110Y-102642431D01*
X76596000Y-102693440D01*
X77996000Y-102693440D01*
X78231317Y-102649162D01*
X78359000Y-102567000D01*
X78359000Y-103771764D01*
X76587382Y-105543382D01*
X76394671Y-105831794D01*
X76327000Y-106172000D01*
X76327000Y-107364355D01*
X76319343Y-107367519D01*
X75873086Y-107812997D01*
X75631276Y-108395341D01*
X75630725Y-109025893D01*
X75871519Y-109608657D01*
X76316997Y-110054914D01*
X76899341Y-110296724D01*
X77529893Y-110297275D01*
X78112657Y-110056481D01*
X78217867Y-109951455D01*
X78267673Y-110071698D01*
X78446301Y-110250327D01*
X78679690Y-110347000D01*
X79470250Y-110347000D01*
X79629000Y-110188250D01*
X79629000Y-108839000D01*
X79883000Y-108839000D01*
X79883000Y-110188250D01*
X80041750Y-110347000D01*
X80832310Y-110347000D01*
X81065699Y-110250327D01*
X81244327Y-110071698D01*
X81341000Y-109838309D01*
X81341000Y-108997750D01*
X81182250Y-108839000D01*
X79883000Y-108839000D01*
X79629000Y-108839000D01*
X79609000Y-108839000D01*
X79609000Y-108585000D01*
X79629000Y-108585000D01*
X79629000Y-107235750D01*
X79883000Y-107235750D01*
X79883000Y-108585000D01*
X81182250Y-108585000D01*
X81341000Y-108426250D01*
X81341000Y-107585691D01*
X81244327Y-107352302D01*
X81065699Y-107173673D01*
X80832310Y-107077000D01*
X80041750Y-107077000D01*
X79883000Y-107235750D01*
X79629000Y-107235750D01*
X79470250Y-107077000D01*
X78679690Y-107077000D01*
X78446301Y-107173673D01*
X78267673Y-107352302D01*
X78217988Y-107472251D01*
X78115003Y-107369086D01*
X78105000Y-107364932D01*
X78105000Y-106540236D01*
X79876618Y-104768618D01*
X80069329Y-104480206D01*
X80137000Y-104140000D01*
X80137000Y-102281275D01*
X81540331Y-102281275D01*
X81602169Y-102517042D01*
X82103122Y-102693419D01*
X82633440Y-102664664D01*
X82989831Y-102517042D01*
X83051669Y-102281275D01*
X82296000Y-101525605D01*
X81540331Y-102281275D01*
X80137000Y-102281275D01*
X80137000Y-101153122D01*
X80948581Y-101153122D01*
X80977336Y-101683440D01*
X81124958Y-102039831D01*
X81360725Y-102101669D01*
X82116395Y-101346000D01*
X82475605Y-101346000D01*
X83231275Y-102101669D01*
X83467042Y-102039831D01*
X83643419Y-101538878D01*
X83614664Y-101008560D01*
X83467042Y-100652169D01*
X83231275Y-100590331D01*
X82475605Y-101346000D01*
X82116395Y-101346000D01*
X81360725Y-100590331D01*
X81124958Y-100652169D01*
X80948581Y-101153122D01*
X80137000Y-101153122D01*
X80137000Y-100410725D01*
X81540331Y-100410725D01*
X82296000Y-101166395D01*
X83051669Y-100410725D01*
X82989831Y-100174958D01*
X82488878Y-99998581D01*
X81958560Y-100027336D01*
X81602169Y-100174958D01*
X81540331Y-100410725D01*
X80137000Y-100410725D01*
X80137000Y-98367694D01*
X84471226Y-98367694D01*
X84719538Y-98968655D01*
X85178927Y-99428846D01*
X85779453Y-99678206D01*
X86429694Y-99678774D01*
X87030655Y-99430462D01*
X87490846Y-98971073D01*
X87740206Y-98370547D01*
X87740774Y-97720306D01*
X87492462Y-97119345D01*
X87033073Y-96659154D01*
X86432547Y-96409794D01*
X85782306Y-96409226D01*
X85181345Y-96657538D01*
X84721154Y-97116927D01*
X84471794Y-97717453D01*
X84471226Y-98367694D01*
X80137000Y-98367694D01*
X80137000Y-97790000D01*
X80069329Y-97449794D01*
X79876618Y-97161382D01*
X79089412Y-96374176D01*
X79104206Y-96338547D01*
X79104774Y-95688306D01*
X78856462Y-95087345D01*
X78397073Y-94627154D01*
X77796547Y-94377794D01*
X77146306Y-94377226D01*
X76566396Y-94616840D01*
X77076236Y-94107000D01*
X79267090Y-94107000D01*
X79197385Y-94274869D01*
X79197015Y-94699269D01*
X79359084Y-95091504D01*
X79658917Y-95391862D01*
X80050869Y-95554615D01*
X80475269Y-95554985D01*
X80687076Y-95467468D01*
X80629285Y-95758000D01*
X80711844Y-96173051D01*
X80946951Y-96524914D01*
X81298814Y-96760021D01*
X81713865Y-96842580D01*
X82370135Y-96842580D01*
X82785186Y-96760021D01*
X83137049Y-96524914D01*
X83372156Y-96173051D01*
X83454715Y-95758000D01*
X83372156Y-95342949D01*
X83225191Y-95123000D01*
X83372156Y-94903051D01*
X83454715Y-94488000D01*
X83372156Y-94072949D01*
X83225191Y-93853000D01*
X83372156Y-93633051D01*
X83454715Y-93218000D01*
X83372156Y-92802949D01*
X83137049Y-92451086D01*
X82931000Y-92313409D01*
X82931000Y-91808236D01*
X84471645Y-90267591D01*
X84471226Y-90747694D01*
X84526461Y-90881372D01*
X84116731Y-90881015D01*
X83724496Y-91043084D01*
X83424138Y-91342917D01*
X83261385Y-91734869D01*
X83261015Y-92159269D01*
X83423084Y-92551504D01*
X83722917Y-92851862D01*
X84114869Y-93014615D01*
X84137399Y-93014635D01*
X84715382Y-93592618D01*
X85003794Y-93785329D01*
X85344000Y-93853000D01*
X86245764Y-93853000D01*
X87757000Y-95364236D01*
X87757000Y-99707764D01*
X83191382Y-104273382D01*
X82998671Y-104561794D01*
X82931000Y-104902000D01*
X82931000Y-105033070D01*
X82820510Y-105033070D01*
X82585193Y-105077348D01*
X82369069Y-105216420D01*
X82224079Y-105428620D01*
X82173070Y-105680510D01*
X82173070Y-107679490D01*
X82217348Y-107914807D01*
X82356420Y-108130931D01*
X82568620Y-108275921D01*
X82820510Y-108326930D01*
X84819490Y-108326930D01*
X85054807Y-108282652D01*
X85270931Y-108143580D01*
X85415921Y-107931380D01*
X85466930Y-107679490D01*
X85466930Y-105680510D01*
X85422652Y-105445193D01*
X85283580Y-105229069D01*
X85071380Y-105084079D01*
X84924833Y-105054403D01*
X85712236Y-104267000D01*
X87923370Y-104267000D01*
X87923370Y-105167430D01*
X88084982Y-105725906D01*
X88448011Y-106180024D01*
X88957190Y-106460649D01*
X89051168Y-106481540D01*
X89281000Y-106360214D01*
X89281000Y-104267000D01*
X87923370Y-104267000D01*
X85712236Y-104267000D01*
X88715215Y-101264021D01*
X89280998Y-101829804D01*
X89280998Y-101919785D01*
X89051168Y-101798460D01*
X88957190Y-101819351D01*
X88448011Y-102099976D01*
X88084982Y-102554094D01*
X87923370Y-103112570D01*
X87923370Y-104013000D01*
X89281000Y-104013000D01*
X89281000Y-103993000D01*
X89535000Y-103993000D01*
X89535000Y-104013000D01*
X89555000Y-104013000D01*
X89555000Y-104267000D01*
X89535000Y-104267000D01*
X89535000Y-106360214D01*
X89764832Y-106481540D01*
X89858810Y-106460649D01*
X90367989Y-106180024D01*
X90672484Y-105799127D01*
X90898208Y-106136948D01*
X91379857Y-106458775D01*
X91948000Y-106571786D01*
X92516143Y-106458775D01*
X92997792Y-106136948D01*
X93218000Y-105807383D01*
X93438208Y-106136948D01*
X93919857Y-106458775D01*
X94488000Y-106571786D01*
X95056143Y-106458775D01*
X95537792Y-106136948D01*
X95859619Y-105655299D01*
X95972630Y-105087156D01*
X95972630Y-103192844D01*
X95859619Y-102624701D01*
X95537792Y-102143052D01*
X95377000Y-102035614D01*
X95377000Y-99182930D01*
X96752410Y-99182930D01*
X96987727Y-99138652D01*
X97203851Y-98999580D01*
X97348841Y-98787380D01*
X97399850Y-98535490D01*
X97399850Y-96536510D01*
X97355572Y-96301193D01*
X97216500Y-96085069D01*
X97004300Y-95940079D01*
X96752410Y-95889070D01*
X94753430Y-95889070D01*
X94518113Y-95933348D01*
X94301989Y-96072420D01*
X94156999Y-96284620D01*
X94105990Y-96536510D01*
X94105990Y-97925694D01*
X93859382Y-98172302D01*
X93666671Y-98460714D01*
X93599000Y-98800920D01*
X93599000Y-102035614D01*
X93438208Y-102143052D01*
X93218000Y-102472617D01*
X92997792Y-102143052D01*
X92516143Y-101821225D01*
X91948000Y-101708214D01*
X91719360Y-101753694D01*
X89535000Y-99569334D01*
X89535000Y-97608000D01*
X89634560Y-97608000D01*
X89634560Y-98908000D01*
X89678838Y-99143317D01*
X89817910Y-99359441D01*
X90030110Y-99504431D01*
X90282000Y-99555440D01*
X91582000Y-99555440D01*
X91817317Y-99511162D01*
X92033441Y-99372090D01*
X92178431Y-99159890D01*
X92229440Y-98908000D01*
X92229440Y-97608000D01*
X92185162Y-97372683D01*
X92046090Y-97156559D01*
X91833890Y-97011569D01*
X91582000Y-96960560D01*
X91386540Y-96960560D01*
X91658943Y-96848005D01*
X92020735Y-96486845D01*
X92216777Y-96014724D01*
X92217223Y-95503519D01*
X92022005Y-95031057D01*
X91660845Y-94669265D01*
X91188724Y-94473223D01*
X90677519Y-94472777D01*
X90205057Y-94667995D01*
X89843265Y-95029155D01*
X89647223Y-95501276D01*
X89646777Y-96012481D01*
X89841995Y-96484943D01*
X90203155Y-96846735D01*
X90477276Y-96960560D01*
X90282000Y-96960560D01*
X90046683Y-97004838D01*
X89830559Y-97143910D01*
X89685569Y-97356110D01*
X89634560Y-97608000D01*
X89535000Y-97608000D01*
X89535000Y-94996000D01*
X89467329Y-94655794D01*
X89274618Y-94367382D01*
X89014236Y-94107000D01*
X92202000Y-94107000D01*
X92542206Y-94039329D01*
X92830618Y-93846618D01*
X93846618Y-92830618D01*
X93935707Y-92697287D01*
X94039329Y-92542206D01*
X94107000Y-92202000D01*
X94107000Y-86728236D01*
X94355125Y-86480111D01*
X94118714Y-87049453D01*
X94118146Y-87699694D01*
X94366458Y-88300655D01*
X94825847Y-88760846D01*
X95426373Y-89010206D01*
X96076614Y-89010774D01*
X96114715Y-88995031D01*
X97457260Y-90337576D01*
X97457260Y-108633260D01*
X93796747Y-108633260D01*
X93548147Y-108031602D01*
X92807557Y-107289718D01*
X91839433Y-106887718D01*
X90791166Y-106886803D01*
X89822342Y-107287113D01*
X89080458Y-108027703D01*
X88678458Y-108995827D01*
X88677543Y-110044094D01*
X89077853Y-111012918D01*
X89818443Y-111754802D01*
X90786567Y-112156802D01*
X91834834Y-112157717D01*
X92170525Y-112019012D01*
X93372881Y-112019012D01*
X93381287Y-113067247D01*
X93766257Y-113996647D01*
X94136978Y-114217416D01*
X95832395Y-112522000D01*
X96191605Y-112522000D01*
X97887022Y-114217416D01*
X98257743Y-113996647D01*
X98651119Y-113024988D01*
X98642713Y-111976753D01*
X98257743Y-111047353D01*
X97887022Y-110826584D01*
X96191605Y-112522000D01*
X95832395Y-112522000D01*
X94136978Y-110826584D01*
X93766257Y-111047353D01*
X93372881Y-112019012D01*
X92170525Y-112019012D01*
X92803658Y-111757407D01*
X93545542Y-111016817D01*
X93796991Y-110411260D01*
X94456957Y-110411260D01*
X94316584Y-110646978D01*
X96012000Y-112342395D01*
X97707416Y-110646978D01*
X97567043Y-110411260D01*
X97978024Y-110411260D01*
X99193382Y-111626618D01*
X99481795Y-111819330D01*
X99822000Y-111887000D01*
X100093432Y-111887000D01*
X100177468Y-112012769D01*
X100643048Y-112323860D01*
X101192237Y-112433100D01*
X102165243Y-112433100D01*
X102714432Y-112323860D01*
X103180012Y-112012769D01*
X103491103Y-111547189D01*
X103600343Y-110998000D01*
X103491103Y-110448811D01*
X103180012Y-109983231D01*
X102828821Y-109748572D01*
X103232892Y-109423607D01*
X103502781Y-108930497D01*
X103520323Y-108847695D01*
X103398336Y-108625640D01*
X101805740Y-108625640D01*
X101805740Y-108645640D01*
X101551740Y-108645640D01*
X101551740Y-108625640D01*
X99959144Y-108625640D01*
X99837157Y-108847695D01*
X99854699Y-108930497D01*
X100124588Y-109423607D01*
X100528659Y-109748572D01*
X100177468Y-109983231D01*
X100132206Y-110050970D01*
X99235260Y-109154024D01*
X99235260Y-108149585D01*
X99837157Y-108149585D01*
X99959144Y-108371640D01*
X101551740Y-108371640D01*
X101551740Y-107063540D01*
X101805740Y-107063540D01*
X101805740Y-108371640D01*
X103398336Y-108371640D01*
X103520323Y-108149585D01*
X103519547Y-108145924D01*
X104066340Y-108285280D01*
X105816400Y-108285280D01*
X105816400Y-106027220D01*
X106070400Y-106027220D01*
X106070400Y-108285280D01*
X107820460Y-108285280D01*
X108723516Y-108055127D01*
X109469755Y-107496909D01*
X109945569Y-106695610D01*
X110025946Y-106398233D01*
X109916145Y-106027220D01*
X106070400Y-106027220D01*
X105816400Y-106027220D01*
X101970655Y-106027220D01*
X101860854Y-106398233D01*
X101941231Y-106695610D01*
X102159709Y-107063540D01*
X101805740Y-107063540D01*
X101551740Y-107063540D01*
X101102160Y-107063540D01*
X100562638Y-107221381D01*
X100124588Y-107573673D01*
X99854699Y-108066783D01*
X99837157Y-108149585D01*
X99235260Y-108149585D01*
X99235260Y-105402207D01*
X101860854Y-105402207D01*
X101970655Y-105773220D01*
X105816400Y-105773220D01*
X105816400Y-103515160D01*
X106070400Y-103515160D01*
X106070400Y-105773220D01*
X109916145Y-105773220D01*
X110025946Y-105402207D01*
X109945569Y-105104830D01*
X109469755Y-104303531D01*
X108723516Y-103745313D01*
X107820460Y-103515160D01*
X106070400Y-103515160D01*
X105816400Y-103515160D01*
X104066340Y-103515160D01*
X103163284Y-103745313D01*
X102417045Y-104303531D01*
X101941231Y-105104830D01*
X101860854Y-105402207D01*
X99235260Y-105402207D01*
X99235260Y-99578333D01*
X101860854Y-99578333D01*
X101941231Y-99875710D01*
X102417045Y-100677009D01*
X103163284Y-101235227D01*
X104066340Y-101465380D01*
X105816400Y-101465380D01*
X105816400Y-99207320D01*
X106070400Y-99207320D01*
X106070400Y-101465380D01*
X107820460Y-101465380D01*
X108723516Y-101235227D01*
X109469755Y-100677009D01*
X109945569Y-99875710D01*
X110025946Y-99578333D01*
X109916145Y-99207320D01*
X106070400Y-99207320D01*
X105816400Y-99207320D01*
X101970655Y-99207320D01*
X101860854Y-99578333D01*
X99235260Y-99578333D01*
X99235260Y-98582307D01*
X101860854Y-98582307D01*
X101970655Y-98953320D01*
X105816400Y-98953320D01*
X105816400Y-96695260D01*
X106070400Y-96695260D01*
X106070400Y-98953320D01*
X109916145Y-98953320D01*
X110025946Y-98582307D01*
X109945569Y-98284930D01*
X109469755Y-97483631D01*
X108723516Y-96925413D01*
X107820460Y-96695260D01*
X106070400Y-96695260D01*
X105816400Y-96695260D01*
X104066340Y-96695260D01*
X103163284Y-96925413D01*
X102417045Y-97483631D01*
X101941231Y-98284930D01*
X101860854Y-98582307D01*
X99235260Y-98582307D01*
X99235260Y-93980000D01*
X99757137Y-93980000D01*
X99866377Y-94529189D01*
X100177468Y-94994769D01*
X100643048Y-95305860D01*
X101192237Y-95415100D01*
X102165243Y-95415100D01*
X102714432Y-95305860D01*
X103180012Y-94994769D01*
X103491103Y-94529189D01*
X103600343Y-93980000D01*
X103491103Y-93430811D01*
X103180012Y-92965231D01*
X102828821Y-92730572D01*
X103232892Y-92405607D01*
X103502781Y-91912497D01*
X103520323Y-91829695D01*
X103398336Y-91607640D01*
X101805740Y-91607640D01*
X101805740Y-91627640D01*
X101551740Y-91627640D01*
X101551740Y-91607640D01*
X99959144Y-91607640D01*
X99837157Y-91829695D01*
X99854699Y-91912497D01*
X100124588Y-92405607D01*
X100528659Y-92730572D01*
X100177468Y-92965231D01*
X99866377Y-93430811D01*
X99757137Y-93980000D01*
X99235260Y-93980000D01*
X99235260Y-91131585D01*
X99837157Y-91131585D01*
X99959144Y-91353640D01*
X101551740Y-91353640D01*
X101551740Y-90045540D01*
X101805740Y-90045540D01*
X101805740Y-91353640D01*
X103398336Y-91353640D01*
X103520323Y-91131585D01*
X103519547Y-91127924D01*
X104066340Y-91267280D01*
X105816400Y-91267280D01*
X105816400Y-89009220D01*
X106070400Y-89009220D01*
X106070400Y-91267280D01*
X107820460Y-91267280D01*
X108723516Y-91037127D01*
X109469755Y-90478909D01*
X109945569Y-89677610D01*
X110025946Y-89380233D01*
X109916145Y-89009220D01*
X106070400Y-89009220D01*
X105816400Y-89009220D01*
X101970655Y-89009220D01*
X101860854Y-89380233D01*
X101941231Y-89677610D01*
X102159709Y-90045540D01*
X101805740Y-90045540D01*
X101551740Y-90045540D01*
X101102160Y-90045540D01*
X100562638Y-90203381D01*
X100124588Y-90555673D01*
X99854699Y-91048783D01*
X99837157Y-91131585D01*
X99235260Y-91131585D01*
X99235260Y-89969340D01*
X99167590Y-89629135D01*
X98974878Y-89340722D01*
X98018363Y-88384207D01*
X101860854Y-88384207D01*
X101970655Y-88755220D01*
X105816400Y-88755220D01*
X105816400Y-86497160D01*
X106070400Y-86497160D01*
X106070400Y-88755220D01*
X109916145Y-88755220D01*
X110025946Y-88384207D01*
X109945569Y-88086830D01*
X109469755Y-87285531D01*
X108723516Y-86727313D01*
X107820460Y-86497160D01*
X106070400Y-86497160D01*
X105816400Y-86497160D01*
X104066340Y-86497160D01*
X103163284Y-86727313D01*
X102417045Y-87285531D01*
X101941231Y-88086830D01*
X101860854Y-88384207D01*
X98018363Y-88384207D01*
X97372332Y-87738176D01*
X97387126Y-87702547D01*
X97387694Y-87052306D01*
X97139382Y-86451345D01*
X96679993Y-85991154D01*
X96292841Y-85830395D01*
X98409129Y-83714107D01*
X110775498Y-83714107D01*
X110876120Y-83982622D01*
X111491642Y-84211816D01*
X112148019Y-84188014D01*
X112643880Y-83982622D01*
X112744502Y-83714107D01*
X111760000Y-82729605D01*
X110775498Y-83714107D01*
X98409129Y-83714107D01*
X99653961Y-82469275D01*
X102368331Y-82469275D01*
X102430169Y-82705042D01*
X102931122Y-82881419D01*
X103461440Y-82852664D01*
X103817831Y-82705042D01*
X103879669Y-82469275D01*
X103124000Y-81713605D01*
X102368331Y-82469275D01*
X99653961Y-82469275D01*
X100782114Y-81341122D01*
X101776581Y-81341122D01*
X101805336Y-81871440D01*
X101952958Y-82227831D01*
X102188725Y-82289669D01*
X102944395Y-81534000D01*
X103303605Y-81534000D01*
X104059275Y-82289669D01*
X104089879Y-82281642D01*
X110098184Y-82281642D01*
X110121986Y-82938019D01*
X110327378Y-83433880D01*
X110595893Y-83534502D01*
X111580395Y-82550000D01*
X111939605Y-82550000D01*
X112924107Y-83534502D01*
X113192622Y-83433880D01*
X113421816Y-82818358D01*
X113398014Y-82161981D01*
X113192622Y-81666120D01*
X112924107Y-81565498D01*
X111939605Y-82550000D01*
X111580395Y-82550000D01*
X110595893Y-81565498D01*
X110327378Y-81666120D01*
X110098184Y-82281642D01*
X104089879Y-82281642D01*
X104295042Y-82227831D01*
X104471419Y-81726878D01*
X104452931Y-81385893D01*
X110775498Y-81385893D01*
X111760000Y-82370395D01*
X112744502Y-81385893D01*
X112643880Y-81117378D01*
X112028358Y-80888184D01*
X111371981Y-80911986D01*
X110876120Y-81117378D01*
X110775498Y-81385893D01*
X104452931Y-81385893D01*
X104442664Y-81196560D01*
X104295042Y-80840169D01*
X104059275Y-80778331D01*
X103303605Y-81534000D01*
X102944395Y-81534000D01*
X102188725Y-80778331D01*
X101952958Y-80840169D01*
X101776581Y-81341122D01*
X100782114Y-81341122D01*
X101524511Y-80598725D01*
X102368331Y-80598725D01*
X103124000Y-81354395D01*
X103879669Y-80598725D01*
X103817831Y-80362958D01*
X103316878Y-80186581D01*
X102786560Y-80215336D01*
X102430169Y-80362958D01*
X102368331Y-80598725D01*
X101524511Y-80598725D01*
X103752618Y-78370618D01*
X103945330Y-78082205D01*
X103991534Y-77849916D01*
X104059317Y-77837162D01*
X104121788Y-77796963D01*
X110108714Y-77796963D01*
X110359534Y-78403995D01*
X110823563Y-78868834D01*
X111430155Y-79120713D01*
X112086963Y-79121286D01*
X112693995Y-78870466D01*
X113158834Y-78406437D01*
X113410713Y-77799845D01*
X113411286Y-77143037D01*
X113160466Y-76536005D01*
X112696437Y-76071166D01*
X112089845Y-75819287D01*
X111433037Y-75818714D01*
X110826005Y-76069534D01*
X110361166Y-76533563D01*
X110109287Y-77140155D01*
X110108714Y-77796963D01*
X104121788Y-77796963D01*
X104275441Y-77698090D01*
X104420431Y-77485890D01*
X104471440Y-77234000D01*
X104471440Y-76443796D01*
X104768618Y-76146618D01*
X104854192Y-76018547D01*
X104961329Y-75858206D01*
X105029000Y-75518000D01*
X105029000Y-73386792D01*
X105241441Y-73250090D01*
X105386431Y-73037890D01*
X105389041Y-73025000D01*
X110235992Y-73025000D01*
X110359534Y-73323995D01*
X110823563Y-73788834D01*
X111430155Y-74040713D01*
X112086963Y-74041286D01*
X112693995Y-73790466D01*
X113158834Y-73326437D01*
X113410713Y-72719845D01*
X113411286Y-72063037D01*
X113160466Y-71456005D01*
X112696437Y-70991166D01*
X112089845Y-70739287D01*
X111433037Y-70738714D01*
X110826005Y-70989534D01*
X110568090Y-71247000D01*
X105390792Y-71247000D01*
X105254090Y-71034559D01*
X105041890Y-70889569D01*
X105029000Y-70886959D01*
X105029000Y-70866000D01*
X104961329Y-70525794D01*
X104768618Y-70237382D01*
X103752618Y-69221382D01*
X103641790Y-69147329D01*
X103464206Y-69028671D01*
X103124000Y-68961000D01*
X98158236Y-68961000D01*
X94354618Y-65157382D01*
X94300293Y-65121083D01*
X94066206Y-64964671D01*
X93726000Y-64897000D01*
X80223657Y-64897000D01*
X80139668Y-64771302D01*
X79757582Y-64516000D01*
X80139668Y-64260698D01*
X80386681Y-63891016D01*
X89704590Y-63891016D01*
X89760271Y-64121611D01*
X90243078Y-64289622D01*
X90753428Y-64260083D01*
X91087729Y-64121611D01*
X91143410Y-63891016D01*
X90424000Y-63171605D01*
X89704590Y-63891016D01*
X80386681Y-63891016D01*
X80450737Y-63795151D01*
X80559970Y-63246000D01*
X80473459Y-62811078D01*
X89126378Y-62811078D01*
X89155917Y-63321428D01*
X89294389Y-63655729D01*
X89524984Y-63711410D01*
X90244395Y-62992000D01*
X90603605Y-62992000D01*
X91323016Y-63711410D01*
X91553611Y-63655729D01*
X91626560Y-63446098D01*
X91626560Y-63642000D01*
X91670838Y-63877317D01*
X91809910Y-64093441D01*
X92022110Y-64238431D01*
X92257635Y-64286126D01*
X92295382Y-64342618D01*
X92583794Y-64535329D01*
X92924000Y-64603000D01*
X93264206Y-64535329D01*
X93552618Y-64342618D01*
X93590185Y-64286395D01*
X93809317Y-64245162D01*
X94025441Y-64106090D01*
X94170431Y-63893890D01*
X94221440Y-63642000D01*
X94221440Y-62342000D01*
X94177162Y-62106683D01*
X94038090Y-61890559D01*
X93825890Y-61745569D01*
X93574000Y-61694560D01*
X92274000Y-61694560D01*
X92038683Y-61738838D01*
X91822559Y-61877910D01*
X91677569Y-62090110D01*
X91626560Y-62342000D01*
X91626560Y-62504385D01*
X91553611Y-62328271D01*
X91323016Y-62272590D01*
X90603605Y-62992000D01*
X90244395Y-62992000D01*
X89524984Y-62272590D01*
X89294389Y-62328271D01*
X89126378Y-62811078D01*
X80473459Y-62811078D01*
X80450737Y-62696849D01*
X80139668Y-62231302D01*
X79932661Y-62092984D01*
X89704590Y-62092984D01*
X90424000Y-62812395D01*
X91143410Y-62092984D01*
X91087729Y-61862389D01*
X90604922Y-61694378D01*
X90094572Y-61723917D01*
X89760271Y-61862389D01*
X89704590Y-62092984D01*
X79932661Y-62092984D01*
X79757582Y-61976000D01*
X80139668Y-61720698D01*
X80450737Y-61255151D01*
X80559970Y-60706000D01*
X80450737Y-60156849D01*
X80223657Y-59817000D01*
X83688806Y-59817000D01*
X83703538Y-59852655D01*
X84162927Y-60312846D01*
X84763453Y-60562206D01*
X85413694Y-60562774D01*
X86014655Y-60314462D01*
X86474846Y-59855073D01*
X86724206Y-59254547D01*
X86724774Y-58604306D01*
X86476462Y-58003345D01*
X86017073Y-57543154D01*
X85979000Y-57527345D01*
X85979000Y-56011194D01*
X86014655Y-55996462D01*
X86474846Y-55537073D01*
X86724206Y-54936547D01*
X86724208Y-54933694D01*
X91075226Y-54933694D01*
X91323538Y-55534655D01*
X91782927Y-55994846D01*
X92383453Y-56244206D01*
X93033694Y-56244774D01*
X93634655Y-55996462D01*
X94094846Y-55537073D01*
X94110655Y-55499000D01*
X96405764Y-55499000D01*
X98233067Y-57326303D01*
X98232769Y-57668383D01*
X98435582Y-58159229D01*
X98810796Y-58535098D01*
X99301287Y-58738768D01*
X99832383Y-58739231D01*
X100323229Y-58536418D01*
X100699098Y-58161204D01*
X100902768Y-57670713D01*
X100903000Y-57404026D01*
X103111077Y-57404026D01*
X103305945Y-57875642D01*
X103666460Y-58236786D01*
X104137736Y-58432477D01*
X104648026Y-58432923D01*
X105119642Y-58238055D01*
X105480786Y-57877540D01*
X105664209Y-57435808D01*
X105845945Y-57875642D01*
X106206460Y-58236786D01*
X106677736Y-58432477D01*
X107188026Y-58432923D01*
X107342181Y-58369227D01*
X110974378Y-58369227D01*
X110994574Y-58420000D01*
X110974378Y-58470773D01*
X111041446Y-58537841D01*
X111084328Y-58645649D01*
X111188403Y-58684798D01*
X112014000Y-59510395D01*
X112832836Y-58691559D01*
X112943672Y-58645649D01*
X112986554Y-58537841D01*
X113053622Y-58470773D01*
X113033426Y-58420000D01*
X113053622Y-58369227D01*
X112986554Y-58302159D01*
X112943672Y-58194351D01*
X112839597Y-58155202D01*
X112014000Y-57329605D01*
X111195164Y-58148441D01*
X111084328Y-58194351D01*
X111041446Y-58302159D01*
X110974378Y-58369227D01*
X107342181Y-58369227D01*
X107659642Y-58238055D01*
X108020786Y-57877540D01*
X108216477Y-57406264D01*
X108216923Y-56895974D01*
X108203487Y-56863455D01*
X110276431Y-56863455D01*
X110299039Y-57550206D01*
X110518351Y-58079672D01*
X110794773Y-58189622D01*
X111834395Y-57150000D01*
X110794773Y-56110378D01*
X110518351Y-56220328D01*
X110276431Y-56863455D01*
X108203487Y-56863455D01*
X108022055Y-56424358D01*
X107661540Y-56063214D01*
X107342587Y-55930773D01*
X110974378Y-55930773D01*
X112014000Y-56970395D01*
X113053622Y-55930773D01*
X112943672Y-55654351D01*
X112300545Y-55412431D01*
X111613794Y-55435039D01*
X111084328Y-55654351D01*
X110974378Y-55930773D01*
X107342587Y-55930773D01*
X107190264Y-55867523D01*
X106679974Y-55867077D01*
X106208358Y-56061945D01*
X105847214Y-56422460D01*
X105663791Y-56864192D01*
X105482055Y-56424358D01*
X105121540Y-56063214D01*
X104650264Y-55867523D01*
X104139974Y-55867077D01*
X103668358Y-56061945D01*
X103307214Y-56422460D01*
X103111523Y-56893736D01*
X103111077Y-57404026D01*
X100903000Y-57404026D01*
X100903231Y-57139617D01*
X100700418Y-56648771D01*
X100325204Y-56272902D01*
X99834713Y-56069232D01*
X99490168Y-56068932D01*
X97402618Y-53981382D01*
X97291790Y-53907329D01*
X97114206Y-53788671D01*
X96774000Y-53721000D01*
X94111194Y-53721000D01*
X94096462Y-53685345D01*
X93637073Y-53225154D01*
X93036547Y-52975794D01*
X92386306Y-52975226D01*
X91785345Y-53223538D01*
X91325154Y-53682927D01*
X91075794Y-54283453D01*
X91075226Y-54933694D01*
X86724208Y-54933694D01*
X86724774Y-54286306D01*
X86476462Y-53685345D01*
X86017073Y-53225154D01*
X85416547Y-52975794D01*
X84766306Y-52975226D01*
X84165345Y-53223538D01*
X83705154Y-53682927D01*
X83455794Y-54283453D01*
X83455226Y-54933694D01*
X83703538Y-55534655D01*
X84162927Y-55994846D01*
X84201000Y-56010655D01*
X84201000Y-57526806D01*
X84165345Y-57541538D01*
X83705154Y-58000927D01*
X83689345Y-58039000D01*
X71590000Y-58039000D01*
X71249794Y-58106671D01*
X70961382Y-58299382D01*
X70491382Y-58769382D01*
X70298671Y-59057794D01*
X70236538Y-59370156D01*
X70185879Y-59380233D01*
X69720332Y-59691302D01*
X69409263Y-60156849D01*
X69300030Y-60706000D01*
X69409263Y-61255151D01*
X69720332Y-61720698D01*
X70102418Y-61976000D01*
X69720332Y-62231302D01*
X69636343Y-62357000D01*
X69462000Y-62357000D01*
X69121794Y-62424671D01*
X68833382Y-62617382D01*
X67951382Y-63499382D01*
X67758671Y-63787794D01*
X67748561Y-63838621D01*
X67676138Y-63910917D01*
X67513385Y-64302869D01*
X67513015Y-64727269D01*
X67609489Y-64960753D01*
X67589794Y-64964671D01*
X67355707Y-65121083D01*
X67301382Y-65157382D01*
X61093382Y-71365382D01*
X60900671Y-71653794D01*
X60852522Y-71895858D01*
X60836683Y-71898838D01*
X60620559Y-72037910D01*
X60475569Y-72250110D01*
X60424560Y-72502000D01*
X60424560Y-73802000D01*
X60468838Y-74037317D01*
X60607910Y-74253441D01*
X60820110Y-74398431D01*
X61072000Y-74449440D01*
X62372000Y-74449440D01*
X62607317Y-74405162D01*
X62823441Y-74266090D01*
X62968431Y-74053890D01*
X62969012Y-74051016D01*
X63502590Y-74051016D01*
X63558271Y-74281611D01*
X64041078Y-74449622D01*
X64551428Y-74420083D01*
X64885729Y-74281611D01*
X64941410Y-74051016D01*
X64222000Y-73331605D01*
X63502590Y-74051016D01*
X62969012Y-74051016D01*
X63019440Y-73802000D01*
X63019440Y-73639615D01*
X63092389Y-73815729D01*
X63322984Y-73871410D01*
X64042395Y-73152000D01*
X64401605Y-73152000D01*
X65121016Y-73871410D01*
X65351611Y-73815729D01*
X65519622Y-73332922D01*
X65490083Y-72822572D01*
X65351611Y-72488271D01*
X65121016Y-72432590D01*
X64401605Y-73152000D01*
X64042395Y-73152000D01*
X63322984Y-72432590D01*
X63092389Y-72488271D01*
X63019440Y-72697902D01*
X63019440Y-72502000D01*
X62975162Y-72266683D01*
X62966347Y-72252984D01*
X63502590Y-72252984D01*
X64222000Y-72972395D01*
X64941410Y-72252984D01*
X64885729Y-72022389D01*
X64402922Y-71854378D01*
X63892572Y-71883917D01*
X63558271Y-72022389D01*
X63502590Y-72252984D01*
X62966347Y-72252984D01*
X62869992Y-72103244D01*
X65838362Y-69134874D01*
X65735385Y-69382869D01*
X65735015Y-69807269D01*
X65897084Y-70199504D01*
X66168669Y-70471565D01*
X66173382Y-70478618D01*
X69498187Y-73803423D01*
X69272306Y-73803226D01*
X68671345Y-74051538D01*
X68211154Y-74510927D01*
X67961794Y-75111453D01*
X67961226Y-75761694D01*
X67976969Y-75799795D01*
X66861764Y-76915000D01*
X64557877Y-76915000D01*
X64549162Y-76868683D01*
X64410090Y-76652559D01*
X64197890Y-76507569D01*
X63946000Y-76456560D01*
X62546000Y-76456560D01*
X62310683Y-76500838D01*
X62094559Y-76639910D01*
X61949569Y-76852110D01*
X61898560Y-77104000D01*
X61898560Y-78504000D01*
X61942838Y-78739317D01*
X62081910Y-78955441D01*
X62294110Y-79100431D01*
X62546000Y-79151440D01*
X63946000Y-79151440D01*
X64181317Y-79107162D01*
X64397441Y-78968090D01*
X64542431Y-78755890D01*
X64555167Y-78693000D01*
X67230000Y-78693000D01*
X67570206Y-78625329D01*
X67858618Y-78432618D01*
X69233824Y-77057412D01*
X69269453Y-77072206D01*
X69919694Y-77072774D01*
X70520655Y-76824462D01*
X70980846Y-76365073D01*
X71230206Y-75764547D01*
X71230406Y-75535642D01*
X71247000Y-75552236D01*
X71247000Y-77470000D01*
X71314671Y-77810206D01*
X71401810Y-77940618D01*
X71507382Y-78098618D01*
X72015382Y-78606618D01*
X72303794Y-78799329D01*
X72644000Y-78867000D01*
X74307764Y-78867000D01*
X78111382Y-82670618D01*
X78399794Y-82863329D01*
X78740000Y-82931000D01*
X79644081Y-82931000D01*
X79658917Y-82945862D01*
X80050869Y-83108615D01*
X80475269Y-83108985D01*
X80867504Y-82946916D01*
X80883448Y-82931000D01*
X82042000Y-82931000D01*
X82382206Y-82863329D01*
X82670618Y-82670618D01*
X83204197Y-82137039D01*
X83602096Y-82137039D01*
X83619633Y-82219819D01*
X83889500Y-82712896D01*
X84327517Y-83065166D01*
X84867000Y-83223000D01*
X85217000Y-83223000D01*
X85217000Y-81915000D01*
X85471000Y-81915000D01*
X85471000Y-83223000D01*
X85821000Y-83223000D01*
X86360483Y-83065166D01*
X86798500Y-82712896D01*
X87068367Y-82219819D01*
X87085904Y-82137039D01*
X86963915Y-81915000D01*
X85471000Y-81915000D01*
X85217000Y-81915000D01*
X83724085Y-81915000D01*
X83602096Y-82137039D01*
X83204197Y-82137039D01*
X83708537Y-81632699D01*
X83724085Y-81661000D01*
X85217000Y-81661000D01*
X85217000Y-81641000D01*
X85471000Y-81641000D01*
X85471000Y-81661000D01*
X86963915Y-81661000D01*
X87085904Y-81438961D01*
X87068367Y-81356181D01*
X86798500Y-80863104D01*
X86365849Y-80515149D01*
X86743668Y-80262698D01*
X87054737Y-79797151D01*
X87132911Y-79404147D01*
X87853000Y-80124236D01*
X87853000Y-86204313D01*
X87772916Y-86010496D01*
X87473083Y-85710138D01*
X87081131Y-85547385D01*
X86656731Y-85547015D01*
X86264496Y-85709084D01*
X85964138Y-86008917D01*
X85801385Y-86400869D01*
X85801365Y-86423399D01*
X85371316Y-86853448D01*
X85232916Y-86518496D01*
X84933083Y-86218138D01*
X84541131Y-86055385D01*
X84427099Y-86055286D01*
X84414206Y-86046671D01*
X84074000Y-85979000D01*
X82954334Y-85979000D01*
X82785186Y-85865979D01*
X82370135Y-85783420D01*
X81713865Y-85783420D01*
X81298814Y-85865979D01*
X81129666Y-85979000D01*
X78994000Y-85979000D01*
X78653794Y-86046671D01*
X78365382Y-86239382D01*
X77832176Y-86772588D01*
X77796547Y-86757794D01*
X77146306Y-86757226D01*
X76545345Y-87005538D01*
X76085154Y-87464927D01*
X76069345Y-87503000D01*
X75315194Y-87503000D01*
X75300462Y-87467345D01*
X74841073Y-87007154D01*
X74240547Y-86757794D01*
X73590306Y-86757226D01*
X73552205Y-86772969D01*
X70872483Y-84093247D01*
X70980846Y-83985073D01*
X71125920Y-83635694D01*
X72787226Y-83635694D01*
X73035538Y-84236655D01*
X73494927Y-84696846D01*
X74095453Y-84946206D01*
X74745694Y-84946774D01*
X75346655Y-84698462D01*
X75806846Y-84239073D01*
X76056206Y-83638547D01*
X76056774Y-82988306D01*
X75808462Y-82387345D01*
X75349073Y-81927154D01*
X74748547Y-81677794D01*
X74098306Y-81677226D01*
X73497345Y-81925538D01*
X73037154Y-82384927D01*
X72787794Y-82985453D01*
X72787226Y-83635694D01*
X71125920Y-83635694D01*
X71230206Y-83384547D01*
X71230774Y-82734306D01*
X70982462Y-82133345D01*
X70523073Y-81673154D01*
X69922547Y-81423794D01*
X69272306Y-81423226D01*
X68671345Y-81671538D01*
X68211154Y-82130927D01*
X67961794Y-82731453D01*
X67961226Y-83381694D01*
X68209538Y-83982655D01*
X68668927Y-84442846D01*
X68841761Y-84514613D01*
X68960425Y-84692206D01*
X68967382Y-84702618D01*
X72294588Y-88029824D01*
X72279794Y-88065453D01*
X72279226Y-88715694D01*
X72527538Y-89316655D01*
X72986927Y-89776846D01*
X73587453Y-90026206D01*
X74237694Y-90026774D01*
X74838655Y-89778462D01*
X75298846Y-89319073D01*
X75314655Y-89281000D01*
X76068806Y-89281000D01*
X76083538Y-89316655D01*
X76542927Y-89776846D01*
X77143453Y-90026206D01*
X77793694Y-90026774D01*
X78394655Y-89778462D01*
X78854846Y-89319073D01*
X79104206Y-88718547D01*
X79104774Y-88068306D01*
X79089031Y-88030205D01*
X79362236Y-87757000D01*
X80739572Y-87757000D01*
X80697019Y-87844065D01*
X80823932Y-88011000D01*
X81915000Y-88011000D01*
X81915000Y-87991000D01*
X82169000Y-87991000D01*
X82169000Y-88011000D01*
X83260068Y-88011000D01*
X83386981Y-87844065D01*
X83344428Y-87757000D01*
X83454525Y-87757000D01*
X83722917Y-88025862D01*
X84059246Y-88165518D01*
X83315943Y-88908821D01*
X83222359Y-88768762D01*
X83386981Y-88431935D01*
X83260068Y-88265000D01*
X82169000Y-88265000D01*
X82169000Y-88285000D01*
X81915000Y-88285000D01*
X81915000Y-88265000D01*
X80823932Y-88265000D01*
X80697019Y-88431935D01*
X80743458Y-88526951D01*
X80443224Y-88586671D01*
X80154812Y-88779382D01*
X78891194Y-90043000D01*
X71374000Y-90043000D01*
X71033794Y-90110671D01*
X70952400Y-90165057D01*
X70745382Y-90303382D01*
X69419697Y-91629067D01*
X69077617Y-91628769D01*
X68586771Y-91831582D01*
X68210902Y-92206796D01*
X68007232Y-92697287D01*
X68006932Y-93041832D01*
X67195764Y-93853000D01*
X63361821Y-93853000D01*
X63175778Y-93574567D01*
X62640155Y-93216675D01*
X62008345Y-93091000D01*
X61943655Y-93091000D01*
X61642199Y-93150963D01*
X61421000Y-92929764D01*
X61421000Y-89449877D01*
X61467317Y-89441162D01*
X61683441Y-89302090D01*
X61828431Y-89089890D01*
X61831795Y-89073275D01*
X64776331Y-89073275D01*
X64838169Y-89309042D01*
X65339122Y-89485419D01*
X65869440Y-89456664D01*
X66225831Y-89309042D01*
X66287669Y-89073275D01*
X65532000Y-88317605D01*
X64776331Y-89073275D01*
X61831795Y-89073275D01*
X61879440Y-88838000D01*
X61879440Y-87945122D01*
X64184581Y-87945122D01*
X64213336Y-88475440D01*
X64360958Y-88831831D01*
X64596725Y-88893669D01*
X65352395Y-88138000D01*
X65711605Y-88138000D01*
X66467275Y-88893669D01*
X66703042Y-88831831D01*
X66879419Y-88330878D01*
X66850664Y-87800560D01*
X66703042Y-87444169D01*
X66467275Y-87382331D01*
X65711605Y-88138000D01*
X65352395Y-88138000D01*
X64596725Y-87382331D01*
X64360958Y-87444169D01*
X64184581Y-87945122D01*
X61879440Y-87945122D01*
X61879440Y-87438000D01*
X61835170Y-87202725D01*
X64776331Y-87202725D01*
X65532000Y-87958395D01*
X66287669Y-87202725D01*
X66225831Y-86966958D01*
X65724878Y-86790581D01*
X65194560Y-86819336D01*
X64838169Y-86966958D01*
X64776331Y-87202725D01*
X61835170Y-87202725D01*
X61835162Y-87202683D01*
X61696090Y-86986559D01*
X61483890Y-86841569D01*
X61232000Y-86790560D01*
X59832000Y-86790560D01*
X59596683Y-86834838D01*
X59380559Y-86973910D01*
X59235569Y-87186110D01*
X59184560Y-87438000D01*
X59131200Y-87438000D01*
X59131200Y-83739275D01*
X62490331Y-83739275D01*
X62552169Y-83975042D01*
X63053122Y-84151419D01*
X63583440Y-84122664D01*
X63939831Y-83975042D01*
X64001669Y-83739275D01*
X63246000Y-82983605D01*
X62490331Y-83739275D01*
X59131200Y-83739275D01*
X59131200Y-82611122D01*
X61898581Y-82611122D01*
X61927336Y-83141440D01*
X62074958Y-83497831D01*
X62310725Y-83559669D01*
X63066395Y-82804000D01*
X63425605Y-82804000D01*
X64181275Y-83559669D01*
X64417042Y-83497831D01*
X64593419Y-82996878D01*
X64564664Y-82466560D01*
X64417042Y-82110169D01*
X64181275Y-82048331D01*
X63425605Y-82804000D01*
X63066395Y-82804000D01*
X62310725Y-82048331D01*
X62074958Y-82110169D01*
X61898581Y-82611122D01*
X59131200Y-82611122D01*
X59131200Y-81868725D01*
X62490331Y-81868725D01*
X63246000Y-82624395D01*
X64001669Y-81868725D01*
X63939831Y-81632958D01*
X63438878Y-81456581D01*
X62908560Y-81485336D01*
X62552169Y-81632958D01*
X62490331Y-81868725D01*
X59131200Y-81868725D01*
X59131200Y-60198000D01*
X59817000Y-60198000D01*
X59817000Y-63816000D01*
X59884671Y-64156206D01*
X60064228Y-64424931D01*
X60077382Y-64444618D01*
X61561439Y-65928675D01*
X61441569Y-66104110D01*
X61390560Y-66356000D01*
X61390560Y-67756000D01*
X61434838Y-67991317D01*
X61573910Y-68207441D01*
X61786110Y-68352431D01*
X62038000Y-68403440D01*
X63438000Y-68403440D01*
X63673317Y-68359162D01*
X63889441Y-68220090D01*
X64034431Y-68007890D01*
X64085440Y-67756000D01*
X64085440Y-66356000D01*
X64041162Y-66120683D01*
X63902090Y-65904559D01*
X63689890Y-65759569D01*
X63606032Y-65742587D01*
X63559329Y-65507794D01*
X63366618Y-65219382D01*
X61595000Y-63447764D01*
X61595000Y-62785619D01*
X61605582Y-62811229D01*
X61980796Y-63187098D01*
X62471287Y-63390768D01*
X63002383Y-63391231D01*
X63493229Y-63188418D01*
X63869098Y-62813204D01*
X64072768Y-62322713D01*
X64073231Y-61791617D01*
X63870418Y-61300771D01*
X63762536Y-61192700D01*
X70757824Y-54197412D01*
X70793453Y-54212206D01*
X71443694Y-54212774D01*
X72044655Y-53964462D01*
X72504846Y-53505073D01*
X72754206Y-52904547D01*
X72754774Y-52254306D01*
X72506462Y-51653345D01*
X72047073Y-51193154D01*
X71446547Y-50943794D01*
X70796306Y-50943226D01*
X70195345Y-51191538D01*
X69735154Y-51650927D01*
X69485794Y-52251453D01*
X69485226Y-52901694D01*
X69500969Y-52939795D01*
X62109382Y-60331382D01*
X61916671Y-60619794D01*
X61849000Y-60960000D01*
X61849000Y-61057120D01*
X61606902Y-61298796D01*
X61595000Y-61327459D01*
X61595000Y-60566236D01*
X63112618Y-59048618D01*
X63193212Y-58928000D01*
X63305329Y-58760206D01*
X63373000Y-58420000D01*
X63373000Y-56420428D01*
X63460065Y-56462981D01*
X63627000Y-56336068D01*
X63627000Y-55245000D01*
X63881000Y-55245000D01*
X63881000Y-56336068D01*
X64047935Y-56462981D01*
X64389000Y-56296288D01*
X64730065Y-56462981D01*
X64897000Y-56336068D01*
X64897000Y-55245000D01*
X65151000Y-55245000D01*
X65151000Y-56336068D01*
X65317935Y-56462981D01*
X65701111Y-56275706D01*
X65977420Y-55951373D01*
X66108580Y-55545990D01*
X66108580Y-55245000D01*
X65151000Y-55245000D01*
X64897000Y-55245000D01*
X63881000Y-55245000D01*
X63627000Y-55245000D01*
X63607000Y-55245000D01*
X63607000Y-54991000D01*
X63627000Y-54991000D01*
X63627000Y-53899932D01*
X63881000Y-53899932D01*
X63881000Y-54991000D01*
X64897000Y-54991000D01*
X64897000Y-53899932D01*
X65151000Y-53899932D01*
X65151000Y-54991000D01*
X66108580Y-54991000D01*
X66108580Y-54690010D01*
X65977420Y-54284627D01*
X65701111Y-53960294D01*
X65317935Y-53773019D01*
X65151000Y-53899932D01*
X64897000Y-53899932D01*
X64730065Y-53773019D01*
X64389000Y-53939712D01*
X64047935Y-53773019D01*
X63881000Y-53899932D01*
X63627000Y-53899932D01*
X63460065Y-53773019D01*
X63373000Y-53815572D01*
X63373000Y-53454236D01*
X64122236Y-52705000D01*
X67818000Y-52705000D01*
X68158206Y-52637329D01*
X68446618Y-52444618D01*
X70757824Y-50133412D01*
X70793453Y-50148206D01*
X71443694Y-50148774D01*
X72044655Y-49900462D01*
X72504846Y-49441073D01*
X72754206Y-48840547D01*
X72754774Y-48190306D01*
X72521194Y-47625000D01*
X76593764Y-47625000D01*
X77120588Y-48151824D01*
X77105794Y-48187453D01*
X77105226Y-48837694D01*
X77353538Y-49438655D01*
X77812927Y-49898846D01*
X77851000Y-49914655D01*
X77851000Y-51176806D01*
X77815345Y-51191538D01*
X77355154Y-51650927D01*
X77105794Y-52251453D01*
X77105226Y-52901694D01*
X77353538Y-53502655D01*
X77812927Y-53962846D01*
X78413453Y-54212206D01*
X79063694Y-54212774D01*
X79664655Y-53964462D01*
X80124846Y-53505073D01*
X80374206Y-52904547D01*
X80374774Y-52254306D01*
X80205286Y-51844113D01*
X101835454Y-51844113D01*
X101915831Y-52141490D01*
X102391645Y-52942789D01*
X103137884Y-53501007D01*
X104040940Y-53731160D01*
X105791000Y-53731160D01*
X105791000Y-51473100D01*
X106045000Y-51473100D01*
X106045000Y-53731160D01*
X107795060Y-53731160D01*
X108698116Y-53501007D01*
X109444355Y-52942789D01*
X109920169Y-52141490D01*
X110000546Y-51844113D01*
X109890745Y-51473100D01*
X106045000Y-51473100D01*
X105791000Y-51473100D01*
X101945255Y-51473100D01*
X101835454Y-51844113D01*
X80205286Y-51844113D01*
X80126462Y-51653345D01*
X79667073Y-51193154D01*
X79659870Y-51190163D01*
X81323443Y-51190163D01*
X81422042Y-51456965D01*
X82031582Y-51683401D01*
X82681377Y-51659341D01*
X83169958Y-51456965D01*
X83268557Y-51190163D01*
X82296000Y-50217605D01*
X81323443Y-51190163D01*
X79659870Y-51190163D01*
X79629000Y-51177345D01*
X79629000Y-49915194D01*
X79664655Y-49900462D01*
X79791756Y-49773582D01*
X80650599Y-49773582D01*
X80674659Y-50423377D01*
X80877035Y-50911958D01*
X81143837Y-51010557D01*
X82116395Y-50038000D01*
X82475605Y-50038000D01*
X83448163Y-51010557D01*
X83714965Y-50911958D01*
X83941401Y-50302418D01*
X83917341Y-49652623D01*
X83714965Y-49164042D01*
X83448163Y-49065443D01*
X82475605Y-50038000D01*
X82116395Y-50038000D01*
X81143837Y-49065443D01*
X80877035Y-49164042D01*
X80650599Y-49773582D01*
X79791756Y-49773582D01*
X80124846Y-49441073D01*
X80355399Y-48885837D01*
X81323443Y-48885837D01*
X82296000Y-49858395D01*
X83268557Y-48885837D01*
X83169958Y-48619035D01*
X82560418Y-48392599D01*
X81910623Y-48416659D01*
X81422042Y-48619035D01*
X81323443Y-48885837D01*
X80355399Y-48885837D01*
X80374206Y-48840547D01*
X80374774Y-48190306D01*
X80126462Y-47589345D01*
X79667073Y-47129154D01*
X79081604Y-46886046D01*
X82579559Y-46886046D01*
X82723469Y-47191312D01*
X83467186Y-47479605D01*
X84264615Y-47461344D01*
X84916531Y-47191312D01*
X85060441Y-46886046D01*
X87659559Y-46886046D01*
X87803469Y-47191312D01*
X88547186Y-47479605D01*
X89344615Y-47461344D01*
X89996531Y-47191312D01*
X90140441Y-46886046D01*
X88900000Y-45645605D01*
X87659559Y-46886046D01*
X85060441Y-46886046D01*
X83820000Y-45645605D01*
X82579559Y-46886046D01*
X79081604Y-46886046D01*
X79066547Y-46879794D01*
X78416306Y-46879226D01*
X78378205Y-46894969D01*
X77590618Y-46107382D01*
X77520014Y-46060206D01*
X77302206Y-45914671D01*
X76962000Y-45847000D01*
X72288542Y-45847000D01*
X72504846Y-45631073D01*
X72754206Y-45030547D01*
X72754774Y-44380306D01*
X72506462Y-43779345D01*
X72047073Y-43319154D01*
X72009000Y-43303345D01*
X72009000Y-42295194D01*
X72044655Y-42280462D01*
X72279363Y-42046163D01*
X77767443Y-42046163D01*
X77866042Y-42312965D01*
X78475582Y-42539401D01*
X79125377Y-42515341D01*
X79613958Y-42312965D01*
X79712557Y-42046163D01*
X78740000Y-41073605D01*
X77767443Y-42046163D01*
X72279363Y-42046163D01*
X72504846Y-41821073D01*
X72754206Y-41220547D01*
X72754722Y-40629582D01*
X77094599Y-40629582D01*
X77118659Y-41279377D01*
X77321035Y-41767958D01*
X77587837Y-41866557D01*
X78560395Y-40894000D01*
X78919605Y-40894000D01*
X79892163Y-41866557D01*
X80158965Y-41767958D01*
X80385401Y-41158418D01*
X80361341Y-40508623D01*
X80164410Y-40033186D01*
X81806395Y-40033186D01*
X81824656Y-40830615D01*
X82094688Y-41482531D01*
X82399954Y-41626441D01*
X83640395Y-40386000D01*
X82399954Y-39145559D01*
X82094688Y-39289469D01*
X81806395Y-40033186D01*
X80164410Y-40033186D01*
X80158965Y-40020042D01*
X79892163Y-39921443D01*
X78919605Y-40894000D01*
X78560395Y-40894000D01*
X77587837Y-39921443D01*
X77321035Y-40020042D01*
X77094599Y-40629582D01*
X72754722Y-40629582D01*
X72754774Y-40570306D01*
X72506462Y-39969345D01*
X72279351Y-39741837D01*
X77767443Y-39741837D01*
X78740000Y-40714395D01*
X79712557Y-39741837D01*
X79613958Y-39475035D01*
X79004418Y-39248599D01*
X78354623Y-39272659D01*
X77866042Y-39475035D01*
X77767443Y-39741837D01*
X72279351Y-39741837D01*
X72047073Y-39509154D01*
X71446547Y-39259794D01*
X70796306Y-39259226D01*
X70195345Y-39507538D01*
X69735154Y-39966927D01*
X69485794Y-40567453D01*
X69485226Y-41217694D01*
X69733538Y-41818655D01*
X70192927Y-42278846D01*
X70231000Y-42294655D01*
X70231000Y-43302806D01*
X70195345Y-43317538D01*
X69735154Y-43776927D01*
X69719345Y-43815000D01*
X66802000Y-43815000D01*
X66461794Y-43882671D01*
X66173382Y-44075382D01*
X62877764Y-47371000D01*
X62466880Y-47371000D01*
X62225204Y-47128902D01*
X61734713Y-46925232D01*
X61203617Y-46924769D01*
X60712771Y-47127582D01*
X60336902Y-47502796D01*
X60133232Y-47993287D01*
X60132769Y-48524383D01*
X60335582Y-49015229D01*
X60710796Y-49391098D01*
X61201287Y-49594768D01*
X61732383Y-49595231D01*
X62223229Y-49392418D01*
X62467072Y-49149000D01*
X63246000Y-49149000D01*
X63586206Y-49081329D01*
X63874618Y-48888618D01*
X65120560Y-47642676D01*
X65120560Y-48960000D01*
X65164838Y-49195317D01*
X65303910Y-49411441D01*
X65516110Y-49556431D01*
X65768000Y-49607440D01*
X67168000Y-49607440D01*
X67403317Y-49563162D01*
X67619441Y-49424090D01*
X67764431Y-49211890D01*
X67781413Y-49128032D01*
X68016206Y-49081329D01*
X68304618Y-48888618D01*
X69568236Y-47625000D01*
X69719345Y-47625000D01*
X69485794Y-48187453D01*
X69485226Y-48837694D01*
X69500969Y-48875795D01*
X67449764Y-50927000D01*
X63754000Y-50927000D01*
X63413794Y-50994671D01*
X63125382Y-51187382D01*
X61855382Y-52457382D01*
X61662671Y-52745794D01*
X61595000Y-53086000D01*
X61595000Y-54205666D01*
X61481979Y-54374814D01*
X61399420Y-54789865D01*
X61399420Y-55446135D01*
X61481979Y-55861186D01*
X61595000Y-56030334D01*
X61595000Y-58051764D01*
X60077382Y-59569382D01*
X59884671Y-59857794D01*
X59817000Y-60198000D01*
X59131200Y-60198000D01*
X59131200Y-38811200D01*
X62790221Y-38811200D01*
X61726485Y-39250727D01*
D36*
X80264000Y-82042000D03*
X80264000Y-94488000D03*
X66802000Y-69596000D03*
X86868000Y-86614000D03*
X89916000Y-86614000D03*
X68580000Y-64516000D03*
X75692000Y-92710000D03*
X84328000Y-91948000D03*
X84328000Y-87122000D03*
X91313000Y-109522260D03*
X91313000Y-115521740D03*
X96012000Y-112522000D03*
X72390000Y-105410000D03*
X66390520Y-105410000D03*
X69390260Y-110109000D03*
X83820000Y-45466000D03*
X88900000Y-45466000D03*
X88900000Y-40386000D03*
X83820000Y-40386000D03*
X86360000Y-42926000D03*
X105943400Y-105900220D03*
X105943400Y-116098320D03*
X101678740Y-110998000D03*
X101678740Y-108498640D03*
X105918000Y-41148000D03*
X105918000Y-51346100D03*
X101653340Y-46245780D03*
X101653340Y-43746420D03*
X105943400Y-88882220D03*
X105943400Y-99080320D03*
X101678740Y-93980000D03*
X101678740Y-91480640D03*
X60532000Y-88138000D03*
X65532000Y-88138000D03*
X66468000Y-48260000D03*
X61468000Y-48260000D03*
X62738000Y-67056000D03*
X62738000Y-62056000D03*
X80264000Y-76240000D03*
X80264000Y-78740000D03*
X90932000Y-88392000D03*
X90932000Y-90892000D03*
X104140000Y-72136000D03*
X101640000Y-72136000D03*
X103124000Y-76534000D03*
X103124000Y-81534000D03*
X61722000Y-73152000D03*
X64222000Y-73152000D03*
X99568000Y-62404000D03*
X99568000Y-57404000D03*
X98044000Y-66548000D03*
X100544000Y-66548000D03*
X90932000Y-98258000D03*
X90932000Y-95758000D03*
X63246000Y-77804000D03*
X63246000Y-82804000D03*
X92924000Y-62992000D03*
X90424000Y-62992000D03*
X69342000Y-97964000D03*
X69342000Y-92964000D03*
X83820000Y-116840000D03*
X83820000Y-106680000D03*
X95752920Y-87376000D03*
X95752920Y-97536000D03*
X77724000Y-116078000D03*
X75184000Y-116078000D03*
X61976000Y-97282000D03*
X61976000Y-94742000D03*
X96520000Y-47752000D03*
X93980000Y-47752000D03*
X82042000Y-94488000D03*
X82042000Y-93218000D03*
X82042000Y-95758000D03*
X63754000Y-55118000D03*
X62484000Y-55118000D03*
X65024000Y-55118000D03*
X78740000Y-52578000D03*
X71120000Y-52578000D03*
X85090000Y-67818000D03*
X92710000Y-67818000D03*
X74422000Y-75692000D03*
X74422000Y-83312000D03*
X71120000Y-40894000D03*
X78740000Y-40894000D03*
X89916000Y-50038000D03*
X82296000Y-50038000D03*
X85090000Y-58928000D03*
X92710000Y-58928000D03*
X97536000Y-72644000D03*
X97536000Y-80264000D03*
X92710000Y-54610000D03*
X85090000Y-54610000D03*
X111760000Y-72390000D03*
X111760000Y-77470000D03*
X111760000Y-82550000D03*
X86106000Y-98044000D03*
X86106000Y-90424000D03*
X77470000Y-88392000D03*
X77470000Y-96012000D03*
X73914000Y-88392000D03*
X73914000Y-96012000D03*
X69596000Y-83058000D03*
X69596000Y-75438000D03*
X91948000Y-104140000D03*
X89408000Y-104140000D03*
X94488000Y-104140000D03*
X82042000Y-88138000D03*
X82042000Y-86868000D03*
X82042000Y-89408000D03*
X78740000Y-68326000D03*
X78740000Y-65786000D03*
X78740000Y-63246000D03*
X78740000Y-60706000D03*
X71120000Y-60706000D03*
X71120000Y-63246000D03*
X71120000Y-65786000D03*
X71120000Y-68326000D03*
X85344000Y-74168000D03*
X85344000Y-76708000D03*
X85344000Y-79248000D03*
X85344000Y-81788000D03*
X92964000Y-81788000D03*
X92964000Y-79248000D03*
X92964000Y-76708000D03*
X92964000Y-74168000D03*
X78740000Y-44704000D03*
X71120000Y-44704000D03*
X63500000Y-41910000D03*
X63500000Y-114300000D03*
X95250000Y-41910000D03*
X112014000Y-57150000D03*
X112014000Y-59690000D03*
X112014000Y-62230000D03*
X112014000Y-64770000D03*
X112014000Y-67310000D03*
X106934000Y-62230000D03*
X106934000Y-57150000D03*
X104394000Y-57150000D03*
X106934000Y-67310000D03*
X104394000Y-67310000D03*
X71120000Y-48514000D03*
X78740000Y-48514000D03*
X77296000Y-101346000D03*
X82296000Y-101346000D03*
X79756000Y-108712000D03*
X77216000Y-108712000D03*
M02*
