%TF.GenerationSoftware,KiCad,Pcbnew,4.0.5-e0-6337~49~ubuntu16.04.1*%
%TF.CreationDate,2017-03-14T11:59:08-07:00*%
%TF.ProjectId,e202var-vlf-radio-receiver,653230327661722D766C662D72616469,v1.4*%
%TF.FileFunction,Copper,L2,Bot,Signal*%
%FSLAX46Y46*%
G04 Gerber Fmt 4.6, Leading zero omitted, Abs format (unit mm)*
G04 Created by KiCad (PCBNEW 4.0.5-e0-6337~49~ubuntu16.04.1) date Tue Mar 14 11:59:08 2017*
%MOMM*%
%LPD*%
G01*
G04 APERTURE LIST*
%ADD10C,0.350000*%
%ADD11O,2.300000X1.600000*%
%ADD12R,2.032000X2.032000*%
%ADD13O,2.032000X2.032000*%
%ADD14C,1.998980*%
%ADD15R,1.600000X1.600000*%
%ADD16C,1.700000*%
%ADD17O,2.000000X1.400000*%
%ADD18O,1.400000X2.000000*%
%ADD19C,5.000000*%
%ADD20R,1.900000X2.000000*%
%ADD21C,1.900000*%
%ADD22R,2.000000X2.000000*%
%ADD23C,2.000000*%
%ADD24C,2.032000*%
%ADD25R,1.998980X1.998980*%
%ADD26C,4.000000*%
%ADD27C,2.184400*%
%ADD28O,7.000240X3.500120*%
%ADD29O,2.499360X1.600200*%
%ADD30O,1.699260X3.500120*%
%ADD31C,0.685800*%
%ADD32C,0.508000*%
%ADD33C,0.254000*%
%ADD34C,0.330200*%
%ADD35C,0.350000*%
G04 APERTURE END LIST*
D10*
D11*
X88955880Y-70459600D03*
X88955880Y-67919600D03*
X88955880Y-65379600D03*
X88955880Y-62839600D03*
X81335880Y-62839600D03*
X81335880Y-65379600D03*
X81335880Y-67919600D03*
X81335880Y-70459600D03*
D12*
X74980800Y-86217760D03*
D13*
X74980800Y-83677760D03*
D14*
X90347800Y-111918260D03*
X90347800Y-102918260D03*
X80065880Y-54132480D03*
X89065880Y-54132480D03*
D15*
X79385800Y-74787760D03*
D16*
X76885800Y-74787760D03*
D15*
X103515800Y-84947760D03*
D16*
X101015800Y-84947760D03*
D15*
X113358300Y-76756260D03*
D16*
X110858300Y-76756260D03*
D15*
X108254800Y-72120760D03*
D16*
X110754800Y-72120760D03*
D15*
X92760800Y-93837760D03*
D16*
X95260800Y-93837760D03*
D12*
X89339420Y-119364760D03*
D13*
X86799420Y-119364760D03*
D12*
X106608880Y-53294280D03*
D13*
X106608880Y-55834280D03*
D17*
X93395800Y-88757760D03*
X93395800Y-90535760D03*
X93395800Y-86979760D03*
D18*
X73964800Y-59420760D03*
X72186800Y-59420760D03*
X75742800Y-59420760D03*
D14*
X88950800Y-58150760D03*
X79950800Y-58150760D03*
X93344220Y-66923920D03*
X102344220Y-66923920D03*
X82600800Y-75422760D03*
X82600800Y-84422760D03*
X79966040Y-46459140D03*
X88966040Y-46459140D03*
X102403420Y-55201820D03*
X93403420Y-55201820D03*
X93360240Y-62684660D03*
X102360240Y-62684660D03*
D19*
X73710800Y-47482760D03*
X73710800Y-119872760D03*
X105460800Y-47482760D03*
D14*
X107556300Y-76057760D03*
X107556300Y-85057760D03*
X102403420Y-58867040D03*
X93403420Y-58867040D03*
X90220800Y-84422760D03*
X90220800Y-75422760D03*
X86855300Y-102791260D03*
X86855300Y-111791260D03*
X86410800Y-84312760D03*
X86410800Y-75312760D03*
D17*
X78219300Y-98282760D03*
X78219300Y-100060760D03*
X78219300Y-96504760D03*
D14*
X88950800Y-50276760D03*
X79950800Y-50276760D03*
D20*
X79171800Y-119745760D03*
D21*
X81711800Y-119745760D03*
D22*
X82283300Y-88075760D03*
D23*
X82283300Y-93075760D03*
D11*
X94401640Y-72773540D03*
X94401640Y-75313540D03*
X94401640Y-77853540D03*
X94401640Y-80393540D03*
X102021640Y-80393540D03*
X102021640Y-77853540D03*
X102021640Y-75313540D03*
X102021640Y-72773540D03*
D24*
X121970800Y-77962760D03*
X121970800Y-83042760D03*
X121970800Y-88122760D03*
D14*
X94066360Y-107947460D03*
D25*
X94066360Y-97787460D03*
D14*
X94030800Y-122412760D03*
D25*
X94030800Y-112252760D03*
D22*
X76869300Y-91107260D03*
D23*
X71869300Y-91107260D03*
D22*
X72898000Y-74662020D03*
D23*
X72898000Y-79662020D03*
D22*
X109778800Y-67976760D03*
D23*
X109778800Y-62976760D03*
D22*
X112382300Y-80248760D03*
D23*
X112382300Y-85248760D03*
D22*
X71739760Y-69626480D03*
D23*
X76739760Y-69626480D03*
D22*
X76678800Y-53832760D03*
D23*
X71678800Y-53832760D03*
D22*
X72948800Y-96013260D03*
D23*
X72948800Y-101013260D03*
D26*
X82283300Y-108252260D03*
X76283820Y-108252260D03*
X79283560Y-112951260D03*
X101523800Y-115095020D03*
X101523800Y-121094500D03*
X106222800Y-118094760D03*
D27*
X114571780Y-72864980D03*
X114571780Y-70324980D03*
X114571780Y-65244980D03*
X114571780Y-62704980D03*
X119651780Y-67784980D03*
D28*
X116154200Y-111472980D03*
X116154200Y-121671080D03*
D29*
X111889540Y-116570760D03*
X111889540Y-114071400D03*
D28*
X116128800Y-46720760D03*
X116128800Y-56918860D03*
D29*
X111864140Y-51818540D03*
X111864140Y-49319180D03*
D28*
X116154200Y-94454980D03*
X116154200Y-104653080D03*
D29*
X111889540Y-99552760D03*
X111889540Y-97053400D03*
D30*
X103174800Y-110157260D03*
X100634800Y-110157260D03*
X105714800Y-110157260D03*
D15*
X75806300Y-64665860D03*
D16*
X73306300Y-64665860D03*
D15*
X113993300Y-89430860D03*
D16*
X111493300Y-89430860D03*
D31*
X103174800Y-99971860D03*
X105333800Y-70723760D03*
X103047800Y-70660260D03*
X94030800Y-70660260D03*
X98602800Y-76565760D03*
X96761300Y-79169260D03*
X89141300Y-90535760D03*
X79034640Y-68511420D03*
X79080360Y-64940180D03*
D32*
X94066360Y-107947460D02*
X101213920Y-115095020D01*
X101213920Y-115095020D02*
X101523800Y-115095020D01*
X71577200Y-71803260D02*
X74562980Y-71803260D01*
X74562980Y-71803260D02*
X76739760Y-69626480D01*
X70015100Y-73365360D02*
X71577200Y-71803260D01*
X70015100Y-81975960D02*
X70015100Y-73365360D01*
X71716900Y-83677760D02*
X70015100Y-81975960D01*
X74980800Y-83677760D02*
X71716900Y-83677760D01*
X79950800Y-58150760D02*
X79950800Y-59564252D01*
X79950800Y-59564252D02*
X77739759Y-61775293D01*
X77739759Y-61775293D02*
X77739759Y-68626481D01*
X77739759Y-68626481D02*
X76739760Y-69626480D01*
X103047800Y-70660260D02*
X105270300Y-70660260D01*
X105270300Y-70660260D02*
X105333800Y-70723760D01*
X103111300Y-70723760D02*
X103047800Y-70660260D01*
X92443300Y-70660260D02*
X94030800Y-70660260D01*
X91220289Y-71883271D02*
X92443300Y-70660260D01*
X91220289Y-72327771D02*
X91220289Y-71883271D01*
X90220800Y-75422760D02*
X91220289Y-74423271D01*
X91220289Y-74423271D02*
X91220289Y-72327771D01*
X96761300Y-78343760D02*
X98539300Y-76565760D01*
X98539300Y-76565760D02*
X98602800Y-76565760D01*
X96761300Y-79169260D02*
X96761300Y-78343760D01*
X93395800Y-90535760D02*
X89141300Y-90535760D01*
X89141300Y-90535760D02*
X86251300Y-90535760D01*
X86251300Y-90535760D02*
X83791300Y-88075760D01*
X83791300Y-88075760D02*
X82283300Y-88075760D01*
X79034640Y-68511420D02*
X79034640Y-64985900D01*
X79034640Y-64985900D02*
X79080360Y-64940180D01*
X112712500Y-71130160D02*
X112712500Y-73784460D01*
X112712500Y-73784460D02*
X113487200Y-74559160D01*
X113487200Y-74559160D02*
X121970800Y-83042760D01*
X111760000Y-70177660D02*
X112712500Y-71130160D01*
X107530900Y-70177660D02*
X111760000Y-70177660D01*
X106337100Y-68983860D02*
X107530900Y-70177660D01*
X91757500Y-68983860D02*
X106337100Y-68983860D01*
X90693240Y-67919600D02*
X91757500Y-68983860D01*
X88955880Y-67919600D02*
X90693240Y-67919600D01*
X88955880Y-67919600D02*
X88605880Y-67919600D01*
X86799420Y-119364760D02*
X82283300Y-114848640D01*
X82283300Y-114848640D02*
X82283300Y-108252260D01*
D33*
G36*
X71937285Y-44823487D02*
X71054626Y-45704607D01*
X70576346Y-46856434D01*
X70575257Y-48103614D01*
X71051527Y-49256275D01*
X71932647Y-50138934D01*
X73084474Y-50617214D01*
X74331654Y-50618303D01*
X74374851Y-50600454D01*
X78316026Y-50600454D01*
X78564338Y-51201415D01*
X79023727Y-51661606D01*
X79624253Y-51910966D01*
X80274494Y-51911534D01*
X80875455Y-51663222D01*
X81335646Y-51203833D01*
X81585006Y-50603307D01*
X81585008Y-50600454D01*
X87316026Y-50600454D01*
X87564338Y-51201415D01*
X88023727Y-51661606D01*
X88624253Y-51910966D01*
X89274494Y-51911534D01*
X89875455Y-51663222D01*
X90335646Y-51203833D01*
X90585006Y-50603307D01*
X90585574Y-49953066D01*
X90337262Y-49352105D01*
X89877873Y-48891914D01*
X89277347Y-48642554D01*
X88627106Y-48641986D01*
X88026145Y-48890298D01*
X87565954Y-49349687D01*
X87316594Y-49950213D01*
X87316026Y-50600454D01*
X81585008Y-50600454D01*
X81585574Y-49953066D01*
X81337262Y-49352105D01*
X80877873Y-48891914D01*
X80277347Y-48642554D01*
X79627106Y-48641986D01*
X79026145Y-48890298D01*
X78565954Y-49349687D01*
X78316594Y-49950213D01*
X78316026Y-50600454D01*
X74374851Y-50600454D01*
X75484315Y-50142033D01*
X76366974Y-49260913D01*
X76845254Y-48109086D01*
X76846343Y-46861906D01*
X76813672Y-46782834D01*
X78331266Y-46782834D01*
X78579578Y-47383795D01*
X79038967Y-47843986D01*
X79639493Y-48093346D01*
X80289734Y-48093914D01*
X80890695Y-47845602D01*
X81125403Y-47611303D01*
X87993483Y-47611303D01*
X88092082Y-47878105D01*
X88701622Y-48104541D01*
X89351417Y-48080481D01*
X89839998Y-47878105D01*
X89938597Y-47611303D01*
X88966040Y-46638745D01*
X87993483Y-47611303D01*
X81125403Y-47611303D01*
X81350886Y-47386213D01*
X81600246Y-46785687D01*
X81600762Y-46194722D01*
X87320639Y-46194722D01*
X87344699Y-46844517D01*
X87547075Y-47333098D01*
X87813877Y-47431697D01*
X88786435Y-46459140D01*
X89145645Y-46459140D01*
X90118203Y-47431697D01*
X90385005Y-47333098D01*
X90611441Y-46723558D01*
X90587381Y-46073763D01*
X90385005Y-45585182D01*
X90118203Y-45486583D01*
X89145645Y-46459140D01*
X88786435Y-46459140D01*
X87813877Y-45486583D01*
X87547075Y-45585182D01*
X87320639Y-46194722D01*
X81600762Y-46194722D01*
X81600814Y-46135446D01*
X81352502Y-45534485D01*
X81125391Y-45306977D01*
X87993483Y-45306977D01*
X88966040Y-46279535D01*
X89938597Y-45306977D01*
X89839998Y-45040175D01*
X89230458Y-44813739D01*
X88580663Y-44837799D01*
X88092082Y-45040175D01*
X87993483Y-45306977D01*
X81125391Y-45306977D01*
X80893113Y-45074294D01*
X80292587Y-44824934D01*
X79642346Y-44824366D01*
X79041385Y-45072678D01*
X78581194Y-45532067D01*
X78331834Y-46132593D01*
X78331266Y-46782834D01*
X76813672Y-46782834D01*
X76370073Y-45709245D01*
X75488953Y-44826586D01*
X74422990Y-44383960D01*
X104751021Y-44383960D01*
X103687285Y-44823487D01*
X102804626Y-45704607D01*
X102326346Y-46856434D01*
X102325257Y-48103614D01*
X102801527Y-49256275D01*
X103682647Y-50138934D01*
X104834474Y-50617214D01*
X106081654Y-50618303D01*
X107234315Y-50142033D01*
X108116974Y-49260913D01*
X108237719Y-48970125D01*
X110022557Y-48970125D01*
X110144544Y-49192180D01*
X111737140Y-49192180D01*
X111737140Y-47884080D01*
X111991140Y-47884080D01*
X111991140Y-49192180D01*
X113583736Y-49192180D01*
X113705723Y-48970125D01*
X113704947Y-48966464D01*
X114251740Y-49105820D01*
X116001800Y-49105820D01*
X116001800Y-46847760D01*
X116255800Y-46847760D01*
X116255800Y-49105820D01*
X118005860Y-49105820D01*
X118908916Y-48875667D01*
X119655155Y-48317449D01*
X120130969Y-47516150D01*
X120211346Y-47218773D01*
X120101545Y-46847760D01*
X116255800Y-46847760D01*
X116001800Y-46847760D01*
X112156055Y-46847760D01*
X112046254Y-47218773D01*
X112126631Y-47516150D01*
X112345109Y-47884080D01*
X111991140Y-47884080D01*
X111737140Y-47884080D01*
X111287560Y-47884080D01*
X110748038Y-48041921D01*
X110309988Y-48394213D01*
X110040099Y-48887323D01*
X110022557Y-48970125D01*
X108237719Y-48970125D01*
X108595254Y-48109086D01*
X108596343Y-46861906D01*
X108120073Y-45709245D01*
X107238953Y-44826586D01*
X106172990Y-44383960D01*
X114062381Y-44383960D01*
X113348684Y-44565853D01*
X112602445Y-45124071D01*
X112126631Y-45925370D01*
X112046254Y-46222747D01*
X112156055Y-46593760D01*
X116001800Y-46593760D01*
X116001800Y-46573760D01*
X116255800Y-46573760D01*
X116255800Y-46593760D01*
X120101545Y-46593760D01*
X120211346Y-46222747D01*
X120130969Y-45925370D01*
X119655155Y-45124071D01*
X118908916Y-44565853D01*
X118195219Y-44383960D01*
X123799600Y-44383960D01*
X123799600Y-124241560D01*
X69342000Y-124241560D01*
X69342000Y-120493614D01*
X70575257Y-120493614D01*
X71051527Y-121646275D01*
X71932647Y-122528934D01*
X73084474Y-123007214D01*
X74331654Y-123008303D01*
X74989578Y-122736454D01*
X92396026Y-122736454D01*
X92644338Y-123337415D01*
X93103727Y-123797606D01*
X93704253Y-124046966D01*
X94354494Y-124047534D01*
X94955455Y-123799222D01*
X95415646Y-123339833D01*
X95569412Y-122969522D01*
X99828384Y-122969522D01*
X100049153Y-123340243D01*
X101020812Y-123733619D01*
X102069047Y-123725213D01*
X102998447Y-123340243D01*
X103219216Y-122969522D01*
X101523800Y-121274105D01*
X99828384Y-122969522D01*
X95569412Y-122969522D01*
X95665006Y-122739307D01*
X95665574Y-122089066D01*
X95417262Y-121488105D01*
X94957873Y-121027914D01*
X94357347Y-120778554D01*
X93707106Y-120777986D01*
X93106145Y-121026298D01*
X92645954Y-121485687D01*
X92396594Y-122086213D01*
X92396026Y-122736454D01*
X74989578Y-122736454D01*
X75484315Y-122532033D01*
X76366974Y-121650913D01*
X76845254Y-120499086D01*
X76845662Y-120031510D01*
X77586800Y-120031510D01*
X77586800Y-120872069D01*
X77683473Y-121105458D01*
X77862101Y-121284087D01*
X78095490Y-121380760D01*
X78886050Y-121380760D01*
X79044800Y-121222010D01*
X79044800Y-119872760D01*
X77745550Y-119872760D01*
X77586800Y-120031510D01*
X76845662Y-120031510D01*
X76846343Y-119251906D01*
X76585018Y-118619451D01*
X77586800Y-118619451D01*
X77586800Y-119460010D01*
X77745550Y-119618760D01*
X79044800Y-119618760D01*
X79044800Y-118269510D01*
X79298800Y-118269510D01*
X79298800Y-119618760D01*
X79318800Y-119618760D01*
X79318800Y-119872760D01*
X79298800Y-119872760D01*
X79298800Y-121222010D01*
X79457550Y-121380760D01*
X80248110Y-121380760D01*
X80481499Y-121284087D01*
X80660127Y-121105458D01*
X80709812Y-120985509D01*
X80812797Y-121088674D01*
X81395141Y-121330484D01*
X82025693Y-121331035D01*
X82608457Y-121090241D01*
X83054714Y-120644763D01*
X83296524Y-120062419D01*
X83297075Y-119431867D01*
X83056281Y-118849103D01*
X82610803Y-118402846D01*
X82028459Y-118161036D01*
X81397907Y-118160485D01*
X80815143Y-118401279D01*
X80709933Y-118506305D01*
X80660127Y-118386062D01*
X80481499Y-118207433D01*
X80248110Y-118110760D01*
X79457550Y-118110760D01*
X79298800Y-118269510D01*
X79044800Y-118269510D01*
X78886050Y-118110760D01*
X78095490Y-118110760D01*
X77862101Y-118207433D01*
X77683473Y-118386062D01*
X77586800Y-118619451D01*
X76585018Y-118619451D01*
X76370073Y-118099245D01*
X75488953Y-117216586D01*
X74337126Y-116738306D01*
X73089946Y-116737217D01*
X71937285Y-117213487D01*
X71054626Y-118094607D01*
X70576346Y-119246434D01*
X70575257Y-120493614D01*
X69342000Y-120493614D01*
X69342000Y-114826282D01*
X77588144Y-114826282D01*
X77808913Y-115197003D01*
X78780572Y-115590379D01*
X79828807Y-115581973D01*
X80758207Y-115197003D01*
X80978976Y-114826282D01*
X79283560Y-113130865D01*
X77588144Y-114826282D01*
X69342000Y-114826282D01*
X69342000Y-112448272D01*
X76644441Y-112448272D01*
X76652847Y-113496507D01*
X77037817Y-114425907D01*
X77408538Y-114646676D01*
X79103955Y-112951260D01*
X79463165Y-112951260D01*
X81158582Y-114646676D01*
X81394300Y-114506303D01*
X81394300Y-114848640D01*
X81461971Y-115188846D01*
X81626597Y-115435226D01*
X81654682Y-115477258D01*
X85208383Y-119030959D01*
X85148420Y-119332415D01*
X85148420Y-119397105D01*
X85274095Y-120028915D01*
X85631987Y-120564538D01*
X86167610Y-120922430D01*
X86799420Y-121048105D01*
X87431230Y-120922430D01*
X87771212Y-120695261D01*
X87859330Y-120832201D01*
X88071530Y-120977191D01*
X88323420Y-121028200D01*
X90355420Y-121028200D01*
X90590737Y-120983922D01*
X90806861Y-120844850D01*
X90951851Y-120632650D01*
X90960181Y-120591512D01*
X98884681Y-120591512D01*
X98893087Y-121639747D01*
X99278057Y-122569147D01*
X99648778Y-122789916D01*
X101344195Y-121094500D01*
X101703405Y-121094500D01*
X103398822Y-122789916D01*
X103769543Y-122569147D01*
X103931504Y-122169093D01*
X112071654Y-122169093D01*
X112152031Y-122466470D01*
X112627845Y-123267769D01*
X113374084Y-123825987D01*
X114277140Y-124056140D01*
X116027200Y-124056140D01*
X116027200Y-121798080D01*
X116281200Y-121798080D01*
X116281200Y-124056140D01*
X118031260Y-124056140D01*
X118934316Y-123825987D01*
X119680555Y-123267769D01*
X120156369Y-122466470D01*
X120236746Y-122169093D01*
X120126945Y-121798080D01*
X116281200Y-121798080D01*
X116027200Y-121798080D01*
X112181455Y-121798080D01*
X112071654Y-122169093D01*
X103931504Y-122169093D01*
X104162919Y-121597488D01*
X104159516Y-121173067D01*
X112071654Y-121173067D01*
X112181455Y-121544080D01*
X116027200Y-121544080D01*
X116027200Y-119286020D01*
X116281200Y-119286020D01*
X116281200Y-121544080D01*
X120126945Y-121544080D01*
X120236746Y-121173067D01*
X120156369Y-120875690D01*
X119680555Y-120074391D01*
X118934316Y-119516173D01*
X118031260Y-119286020D01*
X116281200Y-119286020D01*
X116027200Y-119286020D01*
X114277140Y-119286020D01*
X113374084Y-119516173D01*
X112627845Y-120074391D01*
X112152031Y-120875690D01*
X112071654Y-121173067D01*
X104159516Y-121173067D01*
X104154513Y-120549253D01*
X103914489Y-119969782D01*
X104527384Y-119969782D01*
X104748153Y-120340503D01*
X105719812Y-120733879D01*
X106768047Y-120725473D01*
X107697447Y-120340503D01*
X107918216Y-119969782D01*
X106222800Y-118274365D01*
X104527384Y-119969782D01*
X103914489Y-119969782D01*
X103769543Y-119619853D01*
X103398822Y-119399084D01*
X101703405Y-121094500D01*
X101344195Y-121094500D01*
X99648778Y-119399084D01*
X99278057Y-119619853D01*
X98884681Y-120591512D01*
X90960181Y-120591512D01*
X91002860Y-120380760D01*
X91002860Y-119219478D01*
X99828384Y-119219478D01*
X101523800Y-120914895D01*
X103219216Y-119219478D01*
X102998447Y-118848757D01*
X102026788Y-118455381D01*
X100978553Y-118463787D01*
X100049153Y-118848757D01*
X99828384Y-119219478D01*
X91002860Y-119219478D01*
X91002860Y-118348760D01*
X90958582Y-118113443D01*
X90819510Y-117897319D01*
X90607310Y-117752329D01*
X90355420Y-117701320D01*
X88323420Y-117701320D01*
X88088103Y-117745598D01*
X87871979Y-117884670D01*
X87770222Y-118033597D01*
X87431230Y-117807090D01*
X86799420Y-117681415D01*
X86444007Y-117752111D01*
X83172300Y-114480404D01*
X83172300Y-112114954D01*
X85220526Y-112114954D01*
X85468838Y-112715915D01*
X85928227Y-113176106D01*
X86528753Y-113425466D01*
X87178994Y-113426034D01*
X87779955Y-113177722D01*
X88240146Y-112718333D01*
X88437955Y-112241954D01*
X88713026Y-112241954D01*
X88961338Y-112842915D01*
X89420727Y-113303106D01*
X90021253Y-113552466D01*
X90671494Y-113553034D01*
X91272455Y-113304722D01*
X91732646Y-112845333D01*
X91982006Y-112244807D01*
X91982574Y-111594566D01*
X91841554Y-111253270D01*
X92383870Y-111253270D01*
X92383870Y-113252250D01*
X92428148Y-113487567D01*
X92567220Y-113703691D01*
X92779420Y-113848681D01*
X93031310Y-113899690D01*
X95030290Y-113899690D01*
X95265607Y-113855412D01*
X95481731Y-113716340D01*
X95626721Y-113504140D01*
X95677730Y-113252250D01*
X95677730Y-111253270D01*
X95633452Y-111017953D01*
X95494380Y-110801829D01*
X95282180Y-110656839D01*
X95030290Y-110605830D01*
X93031310Y-110605830D01*
X92795993Y-110650108D01*
X92579869Y-110789180D01*
X92434879Y-111001380D01*
X92383870Y-111253270D01*
X91841554Y-111253270D01*
X91734262Y-110993605D01*
X91274873Y-110533414D01*
X90674347Y-110284054D01*
X90024106Y-110283486D01*
X89423145Y-110531798D01*
X88962954Y-110991187D01*
X88713594Y-111591713D01*
X88713026Y-112241954D01*
X88437955Y-112241954D01*
X88489506Y-112117807D01*
X88490074Y-111467566D01*
X88241762Y-110866605D01*
X87782373Y-110406414D01*
X87181847Y-110157054D01*
X86531606Y-110156486D01*
X85930645Y-110404798D01*
X85470454Y-110864187D01*
X85221094Y-111464713D01*
X85220526Y-112114954D01*
X83172300Y-112114954D01*
X83172300Y-110736007D01*
X83773958Y-110487407D01*
X84515842Y-109746817D01*
X84917842Y-108778693D01*
X84918285Y-108271154D01*
X92431586Y-108271154D01*
X92679898Y-108872115D01*
X93139287Y-109332306D01*
X93739813Y-109581666D01*
X94390054Y-109582234D01*
X94428155Y-109566491D01*
X99047988Y-114186324D01*
X98889258Y-114568587D01*
X98888343Y-115616854D01*
X99288653Y-116585678D01*
X100029243Y-117327562D01*
X100997367Y-117729562D01*
X102045634Y-117730477D01*
X102381325Y-117591772D01*
X103583681Y-117591772D01*
X103592087Y-118640007D01*
X103977057Y-119569407D01*
X104347778Y-119790176D01*
X106043195Y-118094760D01*
X106402405Y-118094760D01*
X108097822Y-119790176D01*
X108468543Y-119569407D01*
X108861919Y-118597748D01*
X108853513Y-117549513D01*
X108468543Y-116620113D01*
X108385669Y-116570760D01*
X109967937Y-116570760D01*
X110077177Y-117119949D01*
X110388268Y-117585529D01*
X110853848Y-117896620D01*
X111403037Y-118005860D01*
X112376043Y-118005860D01*
X112925232Y-117896620D01*
X113390812Y-117585529D01*
X113701903Y-117119949D01*
X113811143Y-116570760D01*
X113701903Y-116021571D01*
X113390812Y-115555991D01*
X113039621Y-115321332D01*
X113443692Y-114996367D01*
X113713581Y-114503257D01*
X113731123Y-114420455D01*
X113609136Y-114198400D01*
X112016540Y-114198400D01*
X112016540Y-114218400D01*
X111762540Y-114218400D01*
X111762540Y-114198400D01*
X110169944Y-114198400D01*
X110047957Y-114420455D01*
X110065499Y-114503257D01*
X110335388Y-114996367D01*
X110739459Y-115321332D01*
X110388268Y-115555991D01*
X110077177Y-116021571D01*
X109967937Y-116570760D01*
X108385669Y-116570760D01*
X108097822Y-116399344D01*
X106402405Y-118094760D01*
X106043195Y-118094760D01*
X104347778Y-116399344D01*
X103977057Y-116620113D01*
X103583681Y-117591772D01*
X102381325Y-117591772D01*
X103014458Y-117330167D01*
X103756342Y-116589577D01*
X103909912Y-116219738D01*
X104527384Y-116219738D01*
X106222800Y-117915155D01*
X107918216Y-116219738D01*
X107697447Y-115849017D01*
X106725788Y-115455641D01*
X105677553Y-115464047D01*
X104748153Y-115849017D01*
X104527384Y-116219738D01*
X103909912Y-116219738D01*
X104158342Y-115621453D01*
X104159257Y-114573186D01*
X103807697Y-113722345D01*
X110047957Y-113722345D01*
X110169944Y-113944400D01*
X111762540Y-113944400D01*
X111762540Y-112636300D01*
X112016540Y-112636300D01*
X112016540Y-113944400D01*
X113609136Y-113944400D01*
X113731123Y-113722345D01*
X113730347Y-113718684D01*
X114277140Y-113858040D01*
X116027200Y-113858040D01*
X116027200Y-111599980D01*
X116281200Y-111599980D01*
X116281200Y-113858040D01*
X118031260Y-113858040D01*
X118934316Y-113627887D01*
X119680555Y-113069669D01*
X120156369Y-112268370D01*
X120236746Y-111970993D01*
X120126945Y-111599980D01*
X116281200Y-111599980D01*
X116027200Y-111599980D01*
X112181455Y-111599980D01*
X112071654Y-111970993D01*
X112152031Y-112268370D01*
X112370509Y-112636300D01*
X112016540Y-112636300D01*
X111762540Y-112636300D01*
X111312960Y-112636300D01*
X110773438Y-112794141D01*
X110335388Y-113146433D01*
X110065499Y-113639543D01*
X110047957Y-113722345D01*
X103807697Y-113722345D01*
X103758947Y-113604362D01*
X103018357Y-112862478D01*
X102050233Y-112460478D01*
X101227301Y-112459760D01*
X101684592Y-112154208D01*
X101910316Y-111816387D01*
X102214811Y-112197284D01*
X102723990Y-112477909D01*
X102817968Y-112498800D01*
X103047800Y-112377474D01*
X103047800Y-110284260D01*
X103027800Y-110284260D01*
X103027800Y-110030260D01*
X103047800Y-110030260D01*
X103047800Y-107937046D01*
X103301800Y-107937046D01*
X103301800Y-110030260D01*
X103321800Y-110030260D01*
X103321800Y-110284260D01*
X103301800Y-110284260D01*
X103301800Y-112377474D01*
X103531632Y-112498800D01*
X103625610Y-112477909D01*
X104134789Y-112197284D01*
X104439284Y-111816387D01*
X104665008Y-112154208D01*
X105146657Y-112476035D01*
X105714800Y-112589046D01*
X106282943Y-112476035D01*
X106764592Y-112154208D01*
X107086419Y-111672559D01*
X107199430Y-111104416D01*
X107199430Y-110974967D01*
X112071654Y-110974967D01*
X112181455Y-111345980D01*
X116027200Y-111345980D01*
X116027200Y-109087920D01*
X116281200Y-109087920D01*
X116281200Y-111345980D01*
X120126945Y-111345980D01*
X120236746Y-110974967D01*
X120156369Y-110677590D01*
X119680555Y-109876291D01*
X118934316Y-109318073D01*
X118031260Y-109087920D01*
X116281200Y-109087920D01*
X116027200Y-109087920D01*
X114277140Y-109087920D01*
X113374084Y-109318073D01*
X112627845Y-109876291D01*
X112152031Y-110677590D01*
X112071654Y-110974967D01*
X107199430Y-110974967D01*
X107199430Y-109210104D01*
X107086419Y-108641961D01*
X106764592Y-108160312D01*
X106282943Y-107838485D01*
X105714800Y-107725474D01*
X105146657Y-107838485D01*
X104665008Y-108160312D01*
X104439284Y-108498133D01*
X104134789Y-108117236D01*
X103625610Y-107836611D01*
X103531632Y-107815720D01*
X103301800Y-107937046D01*
X103047800Y-107937046D01*
X102817968Y-107815720D01*
X102723990Y-107836611D01*
X102214811Y-108117236D01*
X101910316Y-108498133D01*
X101684592Y-108160312D01*
X101202943Y-107838485D01*
X100634800Y-107725474D01*
X100066657Y-107838485D01*
X99585008Y-108160312D01*
X99263181Y-108641961D01*
X99150170Y-109210104D01*
X99150170Y-111104416D01*
X99263181Y-111672559D01*
X99585008Y-112154208D01*
X100066657Y-112476035D01*
X100634800Y-112589046D01*
X100738529Y-112568413D01*
X100176694Y-112800558D01*
X95685772Y-108309636D01*
X95700566Y-108274007D01*
X95701134Y-107623766D01*
X95452822Y-107022805D01*
X94993433Y-106562614D01*
X94392907Y-106313254D01*
X93742666Y-106312686D01*
X93141705Y-106560998D01*
X92681514Y-107020387D01*
X92432154Y-107620913D01*
X92431586Y-108271154D01*
X84918285Y-108271154D01*
X84918757Y-107730426D01*
X84518447Y-106761602D01*
X83777857Y-106019718D01*
X82809733Y-105617718D01*
X81761466Y-105616803D01*
X80792642Y-106017113D01*
X80050758Y-106757703D01*
X79648758Y-107725827D01*
X79647843Y-108774094D01*
X80048153Y-109742918D01*
X80788743Y-110484802D01*
X81394300Y-110736251D01*
X81394300Y-111396217D01*
X81158582Y-111255844D01*
X79463165Y-112951260D01*
X79103955Y-112951260D01*
X77408538Y-111255844D01*
X77037817Y-111476613D01*
X76644441Y-112448272D01*
X69342000Y-112448272D01*
X69342000Y-111076238D01*
X77588144Y-111076238D01*
X79283560Y-112771655D01*
X80978976Y-111076238D01*
X80758207Y-110705517D01*
X79786548Y-110312141D01*
X78738313Y-110320547D01*
X77808913Y-110705517D01*
X77588144Y-111076238D01*
X69342000Y-111076238D01*
X69342000Y-110127282D01*
X74588404Y-110127282D01*
X74809173Y-110498003D01*
X75780832Y-110891379D01*
X76829067Y-110882973D01*
X77758467Y-110498003D01*
X77979236Y-110127282D01*
X76283820Y-108431865D01*
X74588404Y-110127282D01*
X69342000Y-110127282D01*
X69342000Y-107749272D01*
X73644701Y-107749272D01*
X73653107Y-108797507D01*
X74038077Y-109726907D01*
X74408798Y-109947676D01*
X76104215Y-108252260D01*
X76463425Y-108252260D01*
X78158842Y-109947676D01*
X78529563Y-109726907D01*
X78922939Y-108755248D01*
X78914533Y-107707013D01*
X78529563Y-106777613D01*
X78158842Y-106556844D01*
X76463425Y-108252260D01*
X76104215Y-108252260D01*
X74408798Y-106556844D01*
X74038077Y-106777613D01*
X73644701Y-107749272D01*
X69342000Y-107749272D01*
X69342000Y-106377238D01*
X74588404Y-106377238D01*
X76283820Y-108072655D01*
X77979236Y-106377238D01*
X77758467Y-106006517D01*
X76786808Y-105613141D01*
X75738573Y-105621547D01*
X74809173Y-106006517D01*
X74588404Y-106377238D01*
X69342000Y-106377238D01*
X69342000Y-105151093D01*
X112071654Y-105151093D01*
X112152031Y-105448470D01*
X112627845Y-106249769D01*
X113374084Y-106807987D01*
X114277140Y-107038140D01*
X116027200Y-107038140D01*
X116027200Y-104780080D01*
X116281200Y-104780080D01*
X116281200Y-107038140D01*
X118031260Y-107038140D01*
X118934316Y-106807987D01*
X119680555Y-106249769D01*
X120156369Y-105448470D01*
X120236746Y-105151093D01*
X120126945Y-104780080D01*
X116281200Y-104780080D01*
X116027200Y-104780080D01*
X112181455Y-104780080D01*
X112071654Y-105151093D01*
X69342000Y-105151093D01*
X69342000Y-103114954D01*
X85220526Y-103114954D01*
X85468838Y-103715915D01*
X85928227Y-104176106D01*
X86528753Y-104425466D01*
X87178994Y-104426034D01*
X87779955Y-104177722D01*
X88240146Y-103718333D01*
X88437955Y-103241954D01*
X88713026Y-103241954D01*
X88961338Y-103842915D01*
X89420727Y-104303106D01*
X90021253Y-104552466D01*
X90671494Y-104553034D01*
X91272455Y-104304722D01*
X91422371Y-104155067D01*
X112071654Y-104155067D01*
X112181455Y-104526080D01*
X116027200Y-104526080D01*
X116027200Y-102268020D01*
X116281200Y-102268020D01*
X116281200Y-104526080D01*
X120126945Y-104526080D01*
X120236746Y-104155067D01*
X120156369Y-103857690D01*
X119680555Y-103056391D01*
X118934316Y-102498173D01*
X118031260Y-102268020D01*
X116281200Y-102268020D01*
X116027200Y-102268020D01*
X114277140Y-102268020D01*
X113374084Y-102498173D01*
X112627845Y-103056391D01*
X112152031Y-103857690D01*
X112071654Y-104155067D01*
X91422371Y-104155067D01*
X91732646Y-103845333D01*
X91982006Y-103244807D01*
X91982574Y-102594566D01*
X91734262Y-101993605D01*
X91274873Y-101533414D01*
X90674347Y-101284054D01*
X90024106Y-101283486D01*
X89423145Y-101531798D01*
X88962954Y-101991187D01*
X88713594Y-102591713D01*
X88713026Y-103241954D01*
X88437955Y-103241954D01*
X88489506Y-103117807D01*
X88490074Y-102467566D01*
X88241762Y-101866605D01*
X87782373Y-101406414D01*
X87181847Y-101157054D01*
X86531606Y-101156486D01*
X85930645Y-101404798D01*
X85470454Y-101864187D01*
X85221094Y-102464713D01*
X85220526Y-103114954D01*
X69342000Y-103114954D01*
X69342000Y-102165792D01*
X71975873Y-102165792D01*
X72074536Y-102432647D01*
X72684261Y-102659168D01*
X73334260Y-102635116D01*
X73823064Y-102432647D01*
X73921727Y-102165792D01*
X72948800Y-101192865D01*
X71975873Y-102165792D01*
X69342000Y-102165792D01*
X69342000Y-100748721D01*
X71302892Y-100748721D01*
X71326944Y-101398720D01*
X71529413Y-101887524D01*
X71796268Y-101986187D01*
X72769195Y-101013260D01*
X73128405Y-101013260D01*
X74101332Y-101986187D01*
X74368187Y-101887524D01*
X74594708Y-101277799D01*
X74570656Y-100627800D01*
X74368187Y-100138996D01*
X74156582Y-100060760D01*
X76552268Y-100060760D01*
X76653889Y-100571642D01*
X76943280Y-101004748D01*
X77376386Y-101294139D01*
X77887268Y-101395760D01*
X78551332Y-101395760D01*
X79062214Y-101294139D01*
X79495320Y-101004748D01*
X79784711Y-100571642D01*
X79886332Y-100060760D01*
X79785285Y-99552760D01*
X109967937Y-99552760D01*
X110077177Y-100101949D01*
X110388268Y-100567529D01*
X110853848Y-100878620D01*
X111403037Y-100987860D01*
X112376043Y-100987860D01*
X112925232Y-100878620D01*
X113390812Y-100567529D01*
X113701903Y-100101949D01*
X113811143Y-99552760D01*
X113701903Y-99003571D01*
X113390812Y-98537991D01*
X113039621Y-98303332D01*
X113443692Y-97978367D01*
X113713581Y-97485257D01*
X113731123Y-97402455D01*
X113609136Y-97180400D01*
X112016540Y-97180400D01*
X112016540Y-97200400D01*
X111762540Y-97200400D01*
X111762540Y-97180400D01*
X110169944Y-97180400D01*
X110047957Y-97402455D01*
X110065499Y-97485257D01*
X110335388Y-97978367D01*
X110739459Y-98303332D01*
X110388268Y-98537991D01*
X110077177Y-99003571D01*
X109967937Y-99552760D01*
X79785285Y-99552760D01*
X79784711Y-99549878D01*
X79524416Y-99160318D01*
X79553090Y-99136945D01*
X79801280Y-98676310D01*
X79812016Y-98616089D01*
X79688674Y-98409760D01*
X78346300Y-98409760D01*
X78346300Y-98429760D01*
X78092300Y-98429760D01*
X78092300Y-98409760D01*
X76749926Y-98409760D01*
X76626584Y-98616089D01*
X76637320Y-98676310D01*
X76885510Y-99136945D01*
X76914184Y-99160318D01*
X76653889Y-99549878D01*
X76552268Y-100060760D01*
X74156582Y-100060760D01*
X74101332Y-100040333D01*
X73128405Y-101013260D01*
X72769195Y-101013260D01*
X71796268Y-100040333D01*
X71529413Y-100138996D01*
X71302892Y-100748721D01*
X69342000Y-100748721D01*
X69342000Y-99860728D01*
X71975873Y-99860728D01*
X72948800Y-100833655D01*
X73921727Y-99860728D01*
X73823064Y-99593873D01*
X73213339Y-99367352D01*
X72563340Y-99391404D01*
X72074536Y-99593873D01*
X71975873Y-99860728D01*
X69342000Y-99860728D01*
X69342000Y-95013260D01*
X71301360Y-95013260D01*
X71301360Y-97013260D01*
X71345638Y-97248577D01*
X71484710Y-97464701D01*
X71696910Y-97609691D01*
X71948800Y-97660700D01*
X73948800Y-97660700D01*
X74184117Y-97616422D01*
X74400241Y-97477350D01*
X74545231Y-97265150D01*
X74596240Y-97013260D01*
X74596240Y-96504760D01*
X76552268Y-96504760D01*
X76653889Y-97015642D01*
X76914184Y-97405202D01*
X76885510Y-97428575D01*
X76637320Y-97889210D01*
X76626584Y-97949431D01*
X76749926Y-98155760D01*
X78092300Y-98155760D01*
X78092300Y-98135760D01*
X78346300Y-98135760D01*
X78346300Y-98155760D01*
X79688674Y-98155760D01*
X79812016Y-97949431D01*
X79801280Y-97889210D01*
X79553090Y-97428575D01*
X79524416Y-97405202D01*
X79784711Y-97015642D01*
X79829997Y-96787970D01*
X92419430Y-96787970D01*
X92419430Y-98786950D01*
X92463708Y-99022267D01*
X92602780Y-99238391D01*
X92814980Y-99383381D01*
X93066870Y-99434390D01*
X95065850Y-99434390D01*
X95301167Y-99390112D01*
X95517291Y-99251040D01*
X95662281Y-99038840D01*
X95713290Y-98786950D01*
X95713290Y-96787970D01*
X95697555Y-96704345D01*
X110047957Y-96704345D01*
X110169944Y-96926400D01*
X111762540Y-96926400D01*
X111762540Y-95618300D01*
X112016540Y-95618300D01*
X112016540Y-96926400D01*
X113609136Y-96926400D01*
X113731123Y-96704345D01*
X113730347Y-96700684D01*
X114277140Y-96840040D01*
X116027200Y-96840040D01*
X116027200Y-94581980D01*
X116281200Y-94581980D01*
X116281200Y-96840040D01*
X118031260Y-96840040D01*
X118934316Y-96609887D01*
X119680555Y-96051669D01*
X120156369Y-95250370D01*
X120236746Y-94952993D01*
X120126945Y-94581980D01*
X116281200Y-94581980D01*
X116027200Y-94581980D01*
X112181455Y-94581980D01*
X112071654Y-94952993D01*
X112152031Y-95250370D01*
X112370509Y-95618300D01*
X112016540Y-95618300D01*
X111762540Y-95618300D01*
X111312960Y-95618300D01*
X110773438Y-95776141D01*
X110335388Y-96128433D01*
X110065499Y-96621543D01*
X110047957Y-96704345D01*
X95697555Y-96704345D01*
X95669012Y-96552653D01*
X95529940Y-96336529D01*
X95317740Y-96191539D01*
X95065850Y-96140530D01*
X93066870Y-96140530D01*
X92831553Y-96184808D01*
X92615429Y-96323880D01*
X92470439Y-96536080D01*
X92419430Y-96787970D01*
X79829997Y-96787970D01*
X79886332Y-96504760D01*
X79784711Y-95993878D01*
X79495320Y-95560772D01*
X79062214Y-95271381D01*
X78551332Y-95169760D01*
X77887268Y-95169760D01*
X77376386Y-95271381D01*
X76943280Y-95560772D01*
X76653889Y-95993878D01*
X76552268Y-96504760D01*
X74596240Y-96504760D01*
X74596240Y-95013260D01*
X74551962Y-94777943D01*
X74412890Y-94561819D01*
X74200690Y-94416829D01*
X73948800Y-94365820D01*
X71948800Y-94365820D01*
X71713483Y-94410098D01*
X71497359Y-94549170D01*
X71352369Y-94761370D01*
X71301360Y-95013260D01*
X69342000Y-95013260D01*
X69342000Y-94228292D01*
X81310373Y-94228292D01*
X81409036Y-94495147D01*
X82018761Y-94721668D01*
X82668760Y-94697616D01*
X83157564Y-94495147D01*
X83256227Y-94228292D01*
X82283300Y-93255365D01*
X81310373Y-94228292D01*
X69342000Y-94228292D01*
X69342000Y-92811221D01*
X80637392Y-92811221D01*
X80661444Y-93461220D01*
X80863913Y-93950024D01*
X81130768Y-94048687D01*
X82103695Y-93075760D01*
X82462905Y-93075760D01*
X83435832Y-94048687D01*
X83702687Y-93950024D01*
X83929208Y-93340299D01*
X83918014Y-93037760D01*
X91313360Y-93037760D01*
X91313360Y-94637760D01*
X91357638Y-94873077D01*
X91496710Y-95089201D01*
X91708910Y-95234191D01*
X91960800Y-95285200D01*
X93560800Y-95285200D01*
X93796117Y-95240922D01*
X94012241Y-95101850D01*
X94157231Y-94889650D01*
X94166565Y-94843556D01*
X94418517Y-95095948D01*
X94964119Y-95322502D01*
X95554889Y-95323017D01*
X96100886Y-95097416D01*
X96518988Y-94680043D01*
X96745542Y-94134441D01*
X96745696Y-93956967D01*
X112071654Y-93956967D01*
X112181455Y-94327980D01*
X116027200Y-94327980D01*
X116027200Y-92069920D01*
X116281200Y-92069920D01*
X116281200Y-94327980D01*
X120126945Y-94327980D01*
X120236746Y-93956967D01*
X120156369Y-93659590D01*
X119680555Y-92858291D01*
X118934316Y-92300073D01*
X118031260Y-92069920D01*
X116281200Y-92069920D01*
X116027200Y-92069920D01*
X114277140Y-92069920D01*
X113374084Y-92300073D01*
X112627845Y-92858291D01*
X112152031Y-93659590D01*
X112071654Y-93956967D01*
X96745696Y-93956967D01*
X96746057Y-93543671D01*
X96520456Y-92997674D01*
X96103083Y-92579572D01*
X95557481Y-92353018D01*
X94966711Y-92352503D01*
X94420714Y-92578104D01*
X94169026Y-92829354D01*
X94163962Y-92802443D01*
X94024890Y-92586319D01*
X93812690Y-92441329D01*
X93560800Y-92390320D01*
X91960800Y-92390320D01*
X91725483Y-92434598D01*
X91509359Y-92573670D01*
X91364369Y-92785870D01*
X91313360Y-93037760D01*
X83918014Y-93037760D01*
X83905156Y-92690300D01*
X83702687Y-92201496D01*
X83435832Y-92102833D01*
X82462905Y-93075760D01*
X82103695Y-93075760D01*
X81130768Y-92102833D01*
X80863913Y-92201496D01*
X80637392Y-92811221D01*
X69342000Y-92811221D01*
X69342000Y-91431055D01*
X70234016Y-91431055D01*
X70482406Y-92032203D01*
X70941937Y-92492538D01*
X71542652Y-92741976D01*
X72193095Y-92742544D01*
X72794243Y-92494154D01*
X73254578Y-92034623D01*
X73504016Y-91433908D01*
X73504584Y-90783465D01*
X73256194Y-90182317D01*
X73181269Y-90107260D01*
X75221860Y-90107260D01*
X75221860Y-92107260D01*
X75266138Y-92342577D01*
X75405210Y-92558701D01*
X75617410Y-92703691D01*
X75869300Y-92754700D01*
X77869300Y-92754700D01*
X78104617Y-92710422D01*
X78320741Y-92571350D01*
X78465731Y-92359150D01*
X78516740Y-92107260D01*
X78516740Y-91923228D01*
X81310373Y-91923228D01*
X82283300Y-92896155D01*
X83256227Y-91923228D01*
X83157564Y-91656373D01*
X82547839Y-91429852D01*
X81897840Y-91453904D01*
X81409036Y-91656373D01*
X81310373Y-91923228D01*
X78516740Y-91923228D01*
X78516740Y-90107260D01*
X78472462Y-89871943D01*
X78333390Y-89655819D01*
X78121190Y-89510829D01*
X77869300Y-89459820D01*
X75869300Y-89459820D01*
X75633983Y-89504098D01*
X75417859Y-89643170D01*
X75272869Y-89855370D01*
X75221860Y-90107260D01*
X73181269Y-90107260D01*
X72796663Y-89721982D01*
X72195948Y-89472544D01*
X71545505Y-89471976D01*
X70944357Y-89720366D01*
X70484022Y-90179897D01*
X70234584Y-90780612D01*
X70234016Y-91431055D01*
X69342000Y-91431055D01*
X69342000Y-82538006D01*
X69386482Y-82604578D01*
X71088282Y-84306378D01*
X71376695Y-84499090D01*
X71716900Y-84566760D01*
X73594979Y-84566760D01*
X73650299Y-84649552D01*
X73513359Y-84737670D01*
X73368369Y-84949870D01*
X73317360Y-85201760D01*
X73317360Y-87233760D01*
X73361638Y-87469077D01*
X73500710Y-87685201D01*
X73712910Y-87830191D01*
X73964800Y-87881200D01*
X75996800Y-87881200D01*
X76232117Y-87836922D01*
X76448241Y-87697850D01*
X76593231Y-87485650D01*
X76644240Y-87233760D01*
X76644240Y-87075760D01*
X80635860Y-87075760D01*
X80635860Y-89075760D01*
X80680138Y-89311077D01*
X80819210Y-89527201D01*
X81031410Y-89672191D01*
X81283300Y-89723200D01*
X83283300Y-89723200D01*
X83518617Y-89678922D01*
X83734741Y-89539850D01*
X83841665Y-89383361D01*
X85622682Y-91164378D01*
X85911094Y-91357089D01*
X86251300Y-91424760D01*
X88732245Y-91424760D01*
X88945930Y-91513490D01*
X89334963Y-91513829D01*
X89550527Y-91424760D01*
X92083038Y-91424760D01*
X92119780Y-91479748D01*
X92552886Y-91769139D01*
X93063768Y-91870760D01*
X93727832Y-91870760D01*
X94238714Y-91769139D01*
X94671820Y-91479748D01*
X94961211Y-91046642D01*
X95062832Y-90535760D01*
X95050710Y-90474818D01*
X110628947Y-90474818D01*
X110709220Y-90726119D01*
X111264579Y-90927578D01*
X111854758Y-90901175D01*
X112277380Y-90726119D01*
X112357653Y-90474818D01*
X111493300Y-89610465D01*
X110628947Y-90474818D01*
X95050710Y-90474818D01*
X94961211Y-90024878D01*
X94708562Y-89646760D01*
X94961211Y-89268642D01*
X94974439Y-89202139D01*
X109996582Y-89202139D01*
X110022985Y-89792318D01*
X110198041Y-90214940D01*
X110449342Y-90295213D01*
X111313695Y-89430860D01*
X111672905Y-89430860D01*
X112537258Y-90295213D01*
X112556795Y-90288972D01*
X112590138Y-90466177D01*
X112729210Y-90682301D01*
X112941410Y-90827291D01*
X113193300Y-90878300D01*
X114793300Y-90878300D01*
X115028617Y-90834022D01*
X115244741Y-90694950D01*
X115389731Y-90482750D01*
X115440740Y-90230860D01*
X115440740Y-89286867D01*
X120986298Y-89286867D01*
X121086920Y-89555382D01*
X121702442Y-89784576D01*
X122358819Y-89760774D01*
X122854680Y-89555382D01*
X122955302Y-89286867D01*
X121970800Y-88302365D01*
X120986298Y-89286867D01*
X115440740Y-89286867D01*
X115440740Y-88630860D01*
X115396462Y-88395543D01*
X115257390Y-88179419D01*
X115045190Y-88034429D01*
X114793300Y-87983420D01*
X113193300Y-87983420D01*
X112957983Y-88027698D01*
X112741859Y-88166770D01*
X112596869Y-88378970D01*
X112557577Y-88572998D01*
X112537258Y-88566507D01*
X111672905Y-89430860D01*
X111313695Y-89430860D01*
X110449342Y-88566507D01*
X110198041Y-88646780D01*
X109996582Y-89202139D01*
X94974439Y-89202139D01*
X95062832Y-88757760D01*
X94989064Y-88386902D01*
X110628947Y-88386902D01*
X111493300Y-89251255D01*
X112357653Y-88386902D01*
X112277380Y-88135601D01*
X111722021Y-87934142D01*
X111131842Y-87960545D01*
X110709220Y-88135601D01*
X110628947Y-88386902D01*
X94989064Y-88386902D01*
X94961211Y-88246878D01*
X94708562Y-87868760D01*
X94718155Y-87854402D01*
X120308984Y-87854402D01*
X120332786Y-88510779D01*
X120538178Y-89006640D01*
X120806693Y-89107262D01*
X121791195Y-88122760D01*
X122150405Y-88122760D01*
X123134907Y-89107262D01*
X123403422Y-89006640D01*
X123632616Y-88391118D01*
X123608814Y-87734741D01*
X123403422Y-87238880D01*
X123134907Y-87138258D01*
X122150405Y-88122760D01*
X121791195Y-88122760D01*
X120806693Y-87138258D01*
X120538178Y-87238880D01*
X120308984Y-87854402D01*
X94718155Y-87854402D01*
X94961211Y-87490642D01*
X95062832Y-86979760D01*
X95058634Y-86958653D01*
X120986298Y-86958653D01*
X121970800Y-87943155D01*
X122955302Y-86958653D01*
X122854680Y-86690138D01*
X122239158Y-86460944D01*
X121582781Y-86484746D01*
X121086920Y-86690138D01*
X120986298Y-86958653D01*
X95058634Y-86958653D01*
X94961211Y-86468878D01*
X94671820Y-86035772D01*
X94238714Y-85746381D01*
X93727832Y-85644760D01*
X93063768Y-85644760D01*
X92552886Y-85746381D01*
X92119780Y-86035772D01*
X91830389Y-86468878D01*
X91728768Y-86979760D01*
X91830389Y-87490642D01*
X92083038Y-87868760D01*
X91830389Y-88246878D01*
X91728768Y-88757760D01*
X91830389Y-89268642D01*
X92083038Y-89646760D01*
X89550355Y-89646760D01*
X89336670Y-89558030D01*
X88947637Y-89557691D01*
X88732073Y-89646760D01*
X86619536Y-89646760D01*
X84419918Y-87447142D01*
X84383428Y-87422760D01*
X84131506Y-87254431D01*
X83930740Y-87214496D01*
X83930740Y-87075760D01*
X83886462Y-86840443D01*
X83747390Y-86624319D01*
X83535190Y-86479329D01*
X83283300Y-86428320D01*
X81283300Y-86428320D01*
X81047983Y-86472598D01*
X80831859Y-86611670D01*
X80686869Y-86823870D01*
X80635860Y-87075760D01*
X76644240Y-87075760D01*
X76644240Y-85201760D01*
X76599962Y-84966443D01*
X76460890Y-84750319D01*
X76455234Y-84746454D01*
X80966026Y-84746454D01*
X81214338Y-85347415D01*
X81673727Y-85807606D01*
X82274253Y-86056966D01*
X82924494Y-86057534D01*
X83525455Y-85809222D01*
X83985646Y-85349833D01*
X84235006Y-84749307D01*
X84235104Y-84636454D01*
X84776026Y-84636454D01*
X85024338Y-85237415D01*
X85483727Y-85697606D01*
X86084253Y-85946966D01*
X86734494Y-85947534D01*
X87335455Y-85699222D01*
X87795646Y-85239833D01*
X88000514Y-84746454D01*
X88586026Y-84746454D01*
X88834338Y-85347415D01*
X89293727Y-85807606D01*
X89894253Y-86056966D01*
X90544494Y-86057534D01*
X91145455Y-85809222D01*
X91605646Y-85349833D01*
X91650484Y-85241849D01*
X99530543Y-85241849D01*
X99756144Y-85787846D01*
X100173517Y-86205948D01*
X100719119Y-86432502D01*
X101309889Y-86433017D01*
X101855886Y-86207416D01*
X102107574Y-85956166D01*
X102112638Y-85983077D01*
X102251710Y-86199201D01*
X102463910Y-86344191D01*
X102715800Y-86395200D01*
X104315800Y-86395200D01*
X104551117Y-86350922D01*
X104767241Y-86211850D01*
X104912231Y-85999650D01*
X104963240Y-85747760D01*
X104963240Y-85381454D01*
X105921526Y-85381454D01*
X106169838Y-85982415D01*
X106629227Y-86442606D01*
X107229753Y-86691966D01*
X107879994Y-86692534D01*
X108480955Y-86444222D01*
X108523959Y-86401292D01*
X111409373Y-86401292D01*
X111508036Y-86668147D01*
X112117761Y-86894668D01*
X112767760Y-86870616D01*
X113256564Y-86668147D01*
X113355227Y-86401292D01*
X112382300Y-85428365D01*
X111409373Y-86401292D01*
X108523959Y-86401292D01*
X108941146Y-85984833D01*
X109190506Y-85384307D01*
X109190855Y-84984221D01*
X110736392Y-84984221D01*
X110760444Y-85634220D01*
X110962913Y-86123024D01*
X111229768Y-86221687D01*
X112202695Y-85248760D01*
X112561905Y-85248760D01*
X113534832Y-86221687D01*
X113801687Y-86123024D01*
X114028208Y-85513299D01*
X114004156Y-84863300D01*
X113801687Y-84374496D01*
X113534832Y-84275833D01*
X112561905Y-85248760D01*
X112202695Y-85248760D01*
X111229768Y-84275833D01*
X110962913Y-84374496D01*
X110736392Y-84984221D01*
X109190855Y-84984221D01*
X109191074Y-84734066D01*
X108942762Y-84133105D01*
X108905950Y-84096228D01*
X111409373Y-84096228D01*
X112382300Y-85069155D01*
X113355227Y-84096228D01*
X113256564Y-83829373D01*
X112646839Y-83602852D01*
X111996840Y-83626904D01*
X111508036Y-83829373D01*
X111409373Y-84096228D01*
X108905950Y-84096228D01*
X108483373Y-83672914D01*
X107882847Y-83423554D01*
X107232606Y-83422986D01*
X106631645Y-83671298D01*
X106171454Y-84130687D01*
X105922094Y-84731213D01*
X105921526Y-85381454D01*
X104963240Y-85381454D01*
X104963240Y-84147760D01*
X104918962Y-83912443D01*
X104779890Y-83696319D01*
X104567690Y-83551329D01*
X104315800Y-83500320D01*
X102715800Y-83500320D01*
X102480483Y-83544598D01*
X102264359Y-83683670D01*
X102119369Y-83895870D01*
X102110035Y-83941964D01*
X101858083Y-83689572D01*
X101312481Y-83463018D01*
X100721711Y-83462503D01*
X100175714Y-83688104D01*
X99757612Y-84105477D01*
X99531058Y-84651079D01*
X99530543Y-85241849D01*
X91650484Y-85241849D01*
X91855006Y-84749307D01*
X91855574Y-84099066D01*
X91607262Y-83498105D01*
X91147873Y-83037914D01*
X90547347Y-82788554D01*
X89897106Y-82787986D01*
X89296145Y-83036298D01*
X88835954Y-83495687D01*
X88586594Y-84096213D01*
X88586026Y-84746454D01*
X88000514Y-84746454D01*
X88045006Y-84639307D01*
X88045574Y-83989066D01*
X87797262Y-83388105D01*
X87337873Y-82927914D01*
X86737347Y-82678554D01*
X86087106Y-82677986D01*
X85486145Y-82926298D01*
X85025954Y-83385687D01*
X84776594Y-83986213D01*
X84776026Y-84636454D01*
X84235104Y-84636454D01*
X84235574Y-84099066D01*
X83987262Y-83498105D01*
X83527873Y-83037914D01*
X82927347Y-82788554D01*
X82277106Y-82787986D01*
X81676145Y-83036298D01*
X81215954Y-83495687D01*
X80966594Y-84096213D01*
X80966026Y-84746454D01*
X76455234Y-84746454D01*
X76311963Y-84648562D01*
X76538470Y-84309570D01*
X76664145Y-83677760D01*
X76538470Y-83045950D01*
X76180578Y-82510327D01*
X75644955Y-82152435D01*
X75013145Y-82026760D01*
X74948455Y-82026760D01*
X74316645Y-82152435D01*
X73781022Y-82510327D01*
X73594979Y-82788760D01*
X72085136Y-82788760D01*
X70904100Y-81607724D01*
X70904100Y-80814552D01*
X71925073Y-80814552D01*
X72023736Y-81081407D01*
X72633461Y-81307928D01*
X73283460Y-81283876D01*
X73772264Y-81081407D01*
X73870927Y-80814552D01*
X73798954Y-80742579D01*
X92659736Y-80742579D01*
X92677273Y-80825359D01*
X92947140Y-81318436D01*
X93385157Y-81670706D01*
X93924640Y-81828540D01*
X94274640Y-81828540D01*
X94274640Y-80520540D01*
X94528640Y-80520540D01*
X94528640Y-81828540D01*
X94878640Y-81828540D01*
X95418123Y-81670706D01*
X95856140Y-81318436D01*
X96126007Y-80825359D01*
X96143544Y-80742579D01*
X96021555Y-80520540D01*
X94528640Y-80520540D01*
X94274640Y-80520540D01*
X92781725Y-80520540D01*
X92659736Y-80742579D01*
X73798954Y-80742579D01*
X72898000Y-79841625D01*
X71925073Y-80814552D01*
X70904100Y-80814552D01*
X70904100Y-79397481D01*
X71252092Y-79397481D01*
X71276144Y-80047480D01*
X71478613Y-80536284D01*
X71745468Y-80634947D01*
X72718395Y-79662020D01*
X73077605Y-79662020D01*
X74050532Y-80634947D01*
X74317387Y-80536284D01*
X74543908Y-79926559D01*
X74519856Y-79276560D01*
X74317387Y-78787756D01*
X74050532Y-78689093D01*
X73077605Y-79662020D01*
X72718395Y-79662020D01*
X71745468Y-78689093D01*
X71478613Y-78787756D01*
X71252092Y-79397481D01*
X70904100Y-79397481D01*
X70904100Y-78509488D01*
X71925073Y-78509488D01*
X72898000Y-79482415D01*
X73870927Y-78509488D01*
X73772264Y-78242633D01*
X73162539Y-78016112D01*
X72512540Y-78040164D01*
X72023736Y-78242633D01*
X71925073Y-78509488D01*
X70904100Y-78509488D01*
X70904100Y-73733596D01*
X70975676Y-73662020D01*
X71250560Y-73662020D01*
X71250560Y-75662020D01*
X71294838Y-75897337D01*
X71433910Y-76113461D01*
X71646110Y-76258451D01*
X71898000Y-76309460D01*
X73898000Y-76309460D01*
X74133317Y-76265182D01*
X74349441Y-76126110D01*
X74494431Y-75913910D01*
X74545440Y-75662020D01*
X74545440Y-75081849D01*
X75400543Y-75081849D01*
X75626144Y-75627846D01*
X76043517Y-76045948D01*
X76589119Y-76272502D01*
X77179889Y-76273017D01*
X77725886Y-76047416D01*
X77977574Y-75796166D01*
X77982638Y-75823077D01*
X78121710Y-76039201D01*
X78333910Y-76184191D01*
X78585800Y-76235200D01*
X80185800Y-76235200D01*
X80421117Y-76190922D01*
X80637241Y-76051850D01*
X80782231Y-75839650D01*
X80801103Y-75746454D01*
X80966026Y-75746454D01*
X81214338Y-76347415D01*
X81673727Y-76807606D01*
X82274253Y-77056966D01*
X82924494Y-77057534D01*
X83525455Y-76809222D01*
X83985646Y-76349833D01*
X84235006Y-75749307D01*
X84235104Y-75636454D01*
X84776026Y-75636454D01*
X85024338Y-76237415D01*
X85483727Y-76697606D01*
X86084253Y-76946966D01*
X86734494Y-76947534D01*
X87335455Y-76699222D01*
X87795646Y-76239833D01*
X88045006Y-75639307D01*
X88045574Y-74989066D01*
X87797262Y-74388105D01*
X87337873Y-73927914D01*
X86737347Y-73678554D01*
X86087106Y-73677986D01*
X85486145Y-73926298D01*
X85025954Y-74385687D01*
X84776594Y-74986213D01*
X84776026Y-75636454D01*
X84235104Y-75636454D01*
X84235574Y-75099066D01*
X83987262Y-74498105D01*
X83527873Y-74037914D01*
X82927347Y-73788554D01*
X82277106Y-73787986D01*
X81676145Y-74036298D01*
X81215954Y-74495687D01*
X80966594Y-75096213D01*
X80966026Y-75746454D01*
X80801103Y-75746454D01*
X80833240Y-75587760D01*
X80833240Y-73987760D01*
X80788962Y-73752443D01*
X80649890Y-73536319D01*
X80437690Y-73391329D01*
X80185800Y-73340320D01*
X78585800Y-73340320D01*
X78350483Y-73384598D01*
X78134359Y-73523670D01*
X77989369Y-73735870D01*
X77980035Y-73781964D01*
X77728083Y-73529572D01*
X77182481Y-73303018D01*
X76591711Y-73302503D01*
X76045714Y-73528104D01*
X75627612Y-73945477D01*
X75401058Y-74491079D01*
X75400543Y-75081849D01*
X74545440Y-75081849D01*
X74545440Y-73662020D01*
X74501162Y-73426703D01*
X74362090Y-73210579D01*
X74149890Y-73065589D01*
X73898000Y-73014580D01*
X71898000Y-73014580D01*
X71662683Y-73058858D01*
X71446559Y-73197930D01*
X71301569Y-73410130D01*
X71250560Y-73662020D01*
X70975676Y-73662020D01*
X71945436Y-72692260D01*
X74562980Y-72692260D01*
X74903186Y-72624589D01*
X75191598Y-72431878D01*
X76377194Y-71246282D01*
X76413112Y-71261196D01*
X77063555Y-71261764D01*
X77664703Y-71013374D01*
X78125038Y-70553843D01*
X78374476Y-69953128D01*
X78375044Y-69302685D01*
X78359181Y-69264295D01*
X78368377Y-69255099D01*
X78379159Y-69238962D01*
X78479981Y-69339960D01*
X78839270Y-69489150D01*
X79228303Y-69489489D01*
X79587852Y-69340927D01*
X79863180Y-69066079D01*
X79924919Y-68917396D01*
X79936212Y-68934298D01*
X80318298Y-69189600D01*
X79936212Y-69444902D01*
X79625143Y-69910449D01*
X79515910Y-70459600D01*
X79625143Y-71008751D01*
X79936212Y-71474298D01*
X80401759Y-71785367D01*
X80950910Y-71894600D01*
X81720850Y-71894600D01*
X82270001Y-71785367D01*
X82735548Y-71474298D01*
X83046617Y-71008751D01*
X83155850Y-70459600D01*
X83046617Y-69910449D01*
X82735548Y-69444902D01*
X82353462Y-69189600D01*
X82735548Y-68934298D01*
X83046617Y-68468751D01*
X83155850Y-67919600D01*
X87135910Y-67919600D01*
X87245143Y-68468751D01*
X87556212Y-68934298D01*
X87938298Y-69189600D01*
X87556212Y-69444902D01*
X87245143Y-69910449D01*
X87135910Y-70459600D01*
X87245143Y-71008751D01*
X87556212Y-71474298D01*
X88021759Y-71785367D01*
X88570910Y-71894600D01*
X89340850Y-71894600D01*
X89890001Y-71785367D01*
X90355548Y-71474298D01*
X90666617Y-71008751D01*
X90775850Y-70459600D01*
X90666617Y-69910449D01*
X90355548Y-69444902D01*
X89973462Y-69189600D01*
X90355548Y-68934298D01*
X90393661Y-68877257D01*
X91128882Y-69612478D01*
X91417294Y-69805189D01*
X91757500Y-69872860D01*
X92052316Y-69872860D01*
X91911897Y-69966685D01*
X91814682Y-70031642D01*
X90591671Y-71254653D01*
X90398960Y-71543065D01*
X90331289Y-71883271D01*
X90331289Y-73788365D01*
X89897106Y-73787986D01*
X89296145Y-74036298D01*
X88835954Y-74495687D01*
X88586594Y-75096213D01*
X88586026Y-75746454D01*
X88834338Y-76347415D01*
X89293727Y-76807606D01*
X89894253Y-77056966D01*
X90544494Y-77057534D01*
X91145455Y-76809222D01*
X91605646Y-76349833D01*
X91855006Y-75749307D01*
X91855574Y-75099066D01*
X91839831Y-75060965D01*
X91848907Y-75051889D01*
X92021128Y-74794142D01*
X92041618Y-74763477D01*
X92109289Y-74423271D01*
X92109289Y-72251507D01*
X92811536Y-71549260D01*
X93315633Y-71549260D01*
X93001972Y-71758842D01*
X92690903Y-72224389D01*
X92581670Y-72773540D01*
X92690903Y-73322691D01*
X93001972Y-73788238D01*
X93384058Y-74043540D01*
X93001972Y-74298842D01*
X92690903Y-74764389D01*
X92581670Y-75313540D01*
X92690903Y-75862691D01*
X93001972Y-76328238D01*
X93384058Y-76583540D01*
X93001972Y-76838842D01*
X92690903Y-77304389D01*
X92581670Y-77853540D01*
X92690903Y-78402691D01*
X93001972Y-78868238D01*
X93379791Y-79120689D01*
X92947140Y-79468644D01*
X92677273Y-79961721D01*
X92659736Y-80044501D01*
X92781725Y-80266540D01*
X94274640Y-80266540D01*
X94274640Y-80246540D01*
X94528640Y-80246540D01*
X94528640Y-80266540D01*
X96021555Y-80266540D01*
X96143544Y-80044501D01*
X96126007Y-79961721D01*
X96071854Y-79862778D01*
X96206641Y-79997800D01*
X96565930Y-80146990D01*
X96954963Y-80147329D01*
X97314512Y-79998767D01*
X97589840Y-79723919D01*
X97739030Y-79364630D01*
X97739369Y-78975597D01*
X97650300Y-78760033D01*
X97650300Y-78711996D01*
X98833961Y-77528335D01*
X99156012Y-77395267D01*
X99431340Y-77120419D01*
X99580530Y-76761130D01*
X99580869Y-76372097D01*
X99432307Y-76012548D01*
X99157459Y-75737220D01*
X98798170Y-75588030D01*
X98409137Y-75587691D01*
X98049588Y-75736253D01*
X97774260Y-76011101D01*
X97729905Y-76117919D01*
X96183894Y-77663930D01*
X96112377Y-77304389D01*
X95801308Y-76838842D01*
X95419222Y-76583540D01*
X95801308Y-76328238D01*
X96112377Y-75862691D01*
X96221610Y-75313540D01*
X96112377Y-74764389D01*
X95801308Y-74298842D01*
X95419222Y-74043540D01*
X95801308Y-73788238D01*
X96112377Y-73322691D01*
X96221610Y-72773540D01*
X96112377Y-72224389D01*
X95801308Y-71758842D01*
X95335761Y-71447773D01*
X94786610Y-71338540D01*
X94735503Y-71338540D01*
X94859340Y-71214919D01*
X95008530Y-70855630D01*
X95008869Y-70466597D01*
X94860307Y-70107048D01*
X94626527Y-69872860D01*
X102452407Y-69872860D01*
X102219260Y-70105601D01*
X102070070Y-70464890D01*
X102069731Y-70853923D01*
X102218293Y-71213472D01*
X102343143Y-71338540D01*
X101636670Y-71338540D01*
X101087519Y-71447773D01*
X100621972Y-71758842D01*
X100310903Y-72224389D01*
X100201670Y-72773540D01*
X100310903Y-73322691D01*
X100621972Y-73788238D01*
X101004058Y-74043540D01*
X100621972Y-74298842D01*
X100310903Y-74764389D01*
X100201670Y-75313540D01*
X100310903Y-75862691D01*
X100621972Y-76328238D01*
X101004058Y-76583540D01*
X100621972Y-76838842D01*
X100310903Y-77304389D01*
X100201670Y-77853540D01*
X100310903Y-78402691D01*
X100621972Y-78868238D01*
X101004058Y-79123540D01*
X100621972Y-79378842D01*
X100310903Y-79844389D01*
X100201670Y-80393540D01*
X100310903Y-80942691D01*
X100621972Y-81408238D01*
X101087519Y-81719307D01*
X101636670Y-81828540D01*
X102406610Y-81828540D01*
X102955761Y-81719307D01*
X103421308Y-81408238D01*
X103732377Y-80942691D01*
X103841610Y-80393540D01*
X103732377Y-79844389D01*
X103421308Y-79378842D01*
X103226627Y-79248760D01*
X110734860Y-79248760D01*
X110734860Y-81248760D01*
X110779138Y-81484077D01*
X110918210Y-81700201D01*
X111130410Y-81845191D01*
X111382300Y-81896200D01*
X113382300Y-81896200D01*
X113617617Y-81851922D01*
X113833741Y-81712850D01*
X113978731Y-81500650D01*
X114029740Y-81248760D01*
X114029740Y-79248760D01*
X113985462Y-79013443D01*
X113846390Y-78797319D01*
X113634190Y-78652329D01*
X113382300Y-78601320D01*
X111382300Y-78601320D01*
X111146983Y-78645598D01*
X110930859Y-78784670D01*
X110785869Y-78996870D01*
X110734860Y-79248760D01*
X103226627Y-79248760D01*
X103039222Y-79123540D01*
X103421308Y-78868238D01*
X103732377Y-78402691D01*
X103841610Y-77853540D01*
X103732377Y-77304389D01*
X103421308Y-76838842D01*
X103039222Y-76583540D01*
X103341664Y-76381454D01*
X105921526Y-76381454D01*
X106169838Y-76982415D01*
X106629227Y-77442606D01*
X107229753Y-77691966D01*
X107879994Y-77692534D01*
X108480955Y-77444222D01*
X108941146Y-76984833D01*
X109190506Y-76384307D01*
X109191074Y-75734066D01*
X108942762Y-75133105D01*
X108483373Y-74672914D01*
X107882847Y-74423554D01*
X107232606Y-74422986D01*
X106631645Y-74671298D01*
X106171454Y-75130687D01*
X105922094Y-75731213D01*
X105921526Y-76381454D01*
X103341664Y-76381454D01*
X103421308Y-76328238D01*
X103732377Y-75862691D01*
X103841610Y-75313540D01*
X103732377Y-74764389D01*
X103421308Y-74298842D01*
X103039222Y-74043540D01*
X103421308Y-73788238D01*
X103732377Y-73322691D01*
X103841610Y-72773540D01*
X103732377Y-72224389D01*
X103421308Y-71758842D01*
X103240947Y-71638329D01*
X103241463Y-71638329D01*
X103457027Y-71549260D01*
X104776106Y-71549260D01*
X104779141Y-71552300D01*
X105138430Y-71701490D01*
X105527463Y-71701829D01*
X105887012Y-71553267D01*
X106162340Y-71278419D01*
X106311530Y-70919130D01*
X106311869Y-70530097D01*
X106163307Y-70170548D01*
X105888459Y-69895220D01*
X105834610Y-69872860D01*
X105968864Y-69872860D01*
X106902282Y-70806278D01*
X106995316Y-70868441D01*
X106858369Y-71068870D01*
X106807360Y-71320760D01*
X106807360Y-72920760D01*
X106851638Y-73156077D01*
X106990710Y-73372201D01*
X107202910Y-73517191D01*
X107454800Y-73568200D01*
X109054800Y-73568200D01*
X109290117Y-73523922D01*
X109506241Y-73384850D01*
X109651231Y-73172650D01*
X109690523Y-72978622D01*
X109710842Y-72985113D01*
X110575195Y-72120760D01*
X110561053Y-72106618D01*
X110740658Y-71927013D01*
X110754800Y-71941155D01*
X110768943Y-71927013D01*
X110948548Y-72106618D01*
X110934405Y-72120760D01*
X110948548Y-72134903D01*
X110768943Y-72314508D01*
X110754800Y-72300365D01*
X109890447Y-73164718D01*
X109970720Y-73416019D01*
X110526079Y-73617478D01*
X111116258Y-73591075D01*
X111538880Y-73416019D01*
X111619152Y-73164720D01*
X111733862Y-73279430D01*
X111823500Y-73189792D01*
X111823500Y-73784460D01*
X111891171Y-74124666D01*
X111954173Y-74218955D01*
X112083882Y-74413078D01*
X112979624Y-75308820D01*
X112558300Y-75308820D01*
X112322983Y-75353098D01*
X112106859Y-75492170D01*
X111961869Y-75704370D01*
X111952535Y-75750464D01*
X111700583Y-75498072D01*
X111154981Y-75271518D01*
X110564211Y-75271003D01*
X110018214Y-75496604D01*
X109600112Y-75913977D01*
X109373558Y-76459579D01*
X109373043Y-77050349D01*
X109598644Y-77596346D01*
X110016017Y-78014448D01*
X110561619Y-78241002D01*
X111152389Y-78241517D01*
X111698386Y-78015916D01*
X111950074Y-77764666D01*
X111955138Y-77791577D01*
X112094210Y-78007701D01*
X112306410Y-78152691D01*
X112558300Y-78203700D01*
X114158300Y-78203700D01*
X114393617Y-78159422D01*
X114609741Y-78020350D01*
X114754731Y-77808150D01*
X114805740Y-77556260D01*
X114805740Y-77134936D01*
X120338757Y-82667953D01*
X120320087Y-82712915D01*
X120319514Y-83369723D01*
X120570334Y-83976755D01*
X121034363Y-84441594D01*
X121640955Y-84693473D01*
X122297763Y-84694046D01*
X122904795Y-84443226D01*
X123369634Y-83979197D01*
X123621513Y-83372605D01*
X123622086Y-82715797D01*
X123371266Y-82108765D01*
X122907237Y-81643926D01*
X122300645Y-81392047D01*
X121643837Y-81391474D01*
X121596365Y-81411089D01*
X118474999Y-78289723D01*
X120319514Y-78289723D01*
X120570334Y-78896755D01*
X121034363Y-79361594D01*
X121640955Y-79613473D01*
X122297763Y-79614046D01*
X122904795Y-79363226D01*
X123369634Y-78899197D01*
X123621513Y-78292605D01*
X123622086Y-77635797D01*
X123371266Y-77028765D01*
X122907237Y-76563926D01*
X122300645Y-76312047D01*
X121643837Y-76311474D01*
X121036805Y-76562294D01*
X120571966Y-77026323D01*
X120320087Y-77632915D01*
X120319514Y-78289723D01*
X118474999Y-78289723D01*
X114771807Y-74586531D01*
X114971986Y-74579941D01*
X115501452Y-74360629D01*
X115611402Y-74084207D01*
X114571780Y-73044585D01*
X114557638Y-73058728D01*
X114378033Y-72879123D01*
X114392175Y-72864980D01*
X114751385Y-72864980D01*
X115791007Y-73904602D01*
X116067429Y-73794652D01*
X116309349Y-73151525D01*
X116308279Y-73119006D01*
X118368857Y-73119006D01*
X118563725Y-73590622D01*
X118924240Y-73951766D01*
X119395516Y-74147457D01*
X119905806Y-74147903D01*
X120377422Y-73953035D01*
X120738566Y-73592520D01*
X120921989Y-73150788D01*
X121103725Y-73590622D01*
X121464240Y-73951766D01*
X121935516Y-74147457D01*
X122445806Y-74147903D01*
X122917422Y-73953035D01*
X123278566Y-73592520D01*
X123474257Y-73121244D01*
X123474703Y-72610954D01*
X123279835Y-72139338D01*
X122919320Y-71778194D01*
X122448044Y-71582503D01*
X121937754Y-71582057D01*
X121466138Y-71776925D01*
X121104994Y-72137440D01*
X120921571Y-72579172D01*
X120739835Y-72139338D01*
X120379320Y-71778194D01*
X119908044Y-71582503D01*
X119397754Y-71582057D01*
X118926138Y-71776925D01*
X118564994Y-72137440D01*
X118369303Y-72608716D01*
X118368857Y-73119006D01*
X116308279Y-73119006D01*
X116286741Y-72464774D01*
X116067429Y-71935308D01*
X115791007Y-71825358D01*
X114751385Y-72864980D01*
X114392175Y-72864980D01*
X114378033Y-72850838D01*
X114557638Y-72671233D01*
X114571780Y-72685375D01*
X115390616Y-71866539D01*
X115501452Y-71820629D01*
X115544334Y-71712821D01*
X115611402Y-71645753D01*
X115591206Y-71594980D01*
X115611402Y-71544207D01*
X115544334Y-71477139D01*
X115501452Y-71369331D01*
X115397377Y-71330182D01*
X114571780Y-70504585D01*
X114557638Y-70518728D01*
X114378033Y-70339123D01*
X114392175Y-70324980D01*
X114751385Y-70324980D01*
X115791007Y-71364602D01*
X116067429Y-71254652D01*
X116309349Y-70611525D01*
X116286741Y-69924774D01*
X116067429Y-69395308D01*
X115791007Y-69285358D01*
X114751385Y-70324980D01*
X114392175Y-70324980D01*
X113352553Y-69285358D01*
X113076131Y-69395308D01*
X112846183Y-70006607D01*
X112388618Y-69549042D01*
X112315133Y-69499941D01*
X112100206Y-69356331D01*
X111760000Y-69288660D01*
X111334228Y-69288660D01*
X111375231Y-69228650D01*
X111426240Y-68976760D01*
X111426240Y-66976760D01*
X111381962Y-66741443D01*
X111242890Y-66525319D01*
X111030690Y-66380329D01*
X110778800Y-66329320D01*
X108778800Y-66329320D01*
X108543483Y-66373598D01*
X108327359Y-66512670D01*
X108182369Y-66724870D01*
X108131360Y-66976760D01*
X108131360Y-68976760D01*
X108175638Y-69212077D01*
X108224918Y-69288660D01*
X107899136Y-69288660D01*
X106965718Y-68355242D01*
X106822888Y-68259806D01*
X106677306Y-68162531D01*
X106337100Y-68094860D01*
X103484773Y-68094860D01*
X103729066Y-67850993D01*
X103978426Y-67250467D01*
X103978994Y-66600226D01*
X103730682Y-65999265D01*
X103271293Y-65539074D01*
X102670767Y-65289714D01*
X102020526Y-65289146D01*
X101419565Y-65537458D01*
X100959374Y-65996847D01*
X100710014Y-66597373D01*
X100709446Y-67247614D01*
X100957758Y-67848575D01*
X101203614Y-68094860D01*
X94484773Y-68094860D01*
X94729066Y-67850993D01*
X94978426Y-67250467D01*
X94978994Y-66600226D01*
X94730682Y-65999265D01*
X94271293Y-65539074D01*
X93670767Y-65289714D01*
X93020526Y-65289146D01*
X92419565Y-65537458D01*
X91959374Y-65996847D01*
X91710014Y-66597373D01*
X91709446Y-67247614D01*
X91957758Y-67848575D01*
X92203614Y-68094860D01*
X92125736Y-68094860D01*
X91321858Y-67290982D01*
X91256953Y-67247614D01*
X91033446Y-67098271D01*
X90693240Y-67030600D01*
X90439537Y-67030600D01*
X90355548Y-66904902D01*
X89977729Y-66652451D01*
X90410380Y-66304496D01*
X90680247Y-65811419D01*
X90697784Y-65728639D01*
X90575795Y-65506600D01*
X89082880Y-65506600D01*
X89082880Y-65526600D01*
X88828880Y-65526600D01*
X88828880Y-65506600D01*
X87335965Y-65506600D01*
X87213976Y-65728639D01*
X87231513Y-65811419D01*
X87501380Y-66304496D01*
X87934031Y-66652451D01*
X87556212Y-66904902D01*
X87245143Y-67370449D01*
X87135910Y-67919600D01*
X83155850Y-67919600D01*
X83046617Y-67370449D01*
X82735548Y-66904902D01*
X82353462Y-66649600D01*
X82735548Y-66394298D01*
X83046617Y-65928751D01*
X83155850Y-65379600D01*
X83046617Y-64830449D01*
X82735548Y-64364902D01*
X82353462Y-64109600D01*
X82735548Y-63854298D01*
X83046617Y-63388751D01*
X83086421Y-63188639D01*
X87213976Y-63188639D01*
X87231513Y-63271419D01*
X87501380Y-63764496D01*
X87930487Y-64109600D01*
X87501380Y-64454704D01*
X87231513Y-64947781D01*
X87213976Y-65030561D01*
X87335965Y-65252600D01*
X88828880Y-65252600D01*
X88828880Y-62966600D01*
X89082880Y-62966600D01*
X89082880Y-65252600D01*
X90575795Y-65252600D01*
X90697784Y-65030561D01*
X90680247Y-64947781D01*
X90410380Y-64454704D01*
X89981273Y-64109600D01*
X90410380Y-63764496D01*
X90680247Y-63271419D01*
X90697784Y-63188639D01*
X90598735Y-63008354D01*
X91725466Y-63008354D01*
X91973778Y-63609315D01*
X92433167Y-64069506D01*
X93033693Y-64318866D01*
X93683934Y-64319434D01*
X94284895Y-64071122D01*
X94745086Y-63611733D01*
X94994446Y-63011207D01*
X94994448Y-63008354D01*
X100725466Y-63008354D01*
X100973778Y-63609315D01*
X101433167Y-64069506D01*
X102033693Y-64318866D01*
X102683934Y-64319434D01*
X103284895Y-64071122D01*
X103745086Y-63611733D01*
X103874298Y-63300555D01*
X108143516Y-63300555D01*
X108391906Y-63901703D01*
X108851437Y-64362038D01*
X109452152Y-64611476D01*
X110102595Y-64612044D01*
X110703743Y-64363654D01*
X111164078Y-63904123D01*
X111413516Y-63303408D01*
X111413739Y-63047034D01*
X112844281Y-63047034D01*
X113106677Y-63682082D01*
X113399149Y-63975065D01*
X113108385Y-64265322D01*
X112844880Y-64899911D01*
X112844281Y-65587034D01*
X113106677Y-66222082D01*
X113592122Y-66708375D01*
X113763416Y-66779503D01*
X113484994Y-67057440D01*
X113289303Y-67528716D01*
X113288857Y-68039006D01*
X113483725Y-68510622D01*
X113755141Y-68782511D01*
X113642108Y-68829331D01*
X113532158Y-69105753D01*
X114571780Y-70145375D01*
X115611402Y-69105753D01*
X115571011Y-69004207D01*
X118612158Y-69004207D01*
X118722108Y-69280629D01*
X119365235Y-69522549D01*
X120051986Y-69499941D01*
X120581452Y-69280629D01*
X120691402Y-69004207D01*
X119651780Y-67964585D01*
X118612158Y-69004207D01*
X115571011Y-69004207D01*
X115501452Y-68829331D01*
X115385061Y-68785549D01*
X115658566Y-68512520D01*
X115854257Y-68041244D01*
X115854703Y-67530954D01*
X115841267Y-67498435D01*
X117914211Y-67498435D01*
X117936819Y-68185186D01*
X118156131Y-68714652D01*
X118432553Y-68824602D01*
X119472175Y-67784980D01*
X119831385Y-67784980D01*
X120871007Y-68824602D01*
X121147429Y-68714652D01*
X121389349Y-68071525D01*
X121366741Y-67384774D01*
X121147429Y-66855308D01*
X120871007Y-66745358D01*
X119831385Y-67784980D01*
X119472175Y-67784980D01*
X118432553Y-66745358D01*
X118156131Y-66855308D01*
X117914211Y-67498435D01*
X115841267Y-67498435D01*
X115659835Y-67059338D01*
X115380600Y-66779616D01*
X115548882Y-66710083D01*
X115693464Y-66565753D01*
X118612158Y-66565753D01*
X119651780Y-67605375D01*
X120691402Y-66565753D01*
X120581452Y-66289331D01*
X119938325Y-66047411D01*
X119251574Y-66070019D01*
X118722108Y-66289331D01*
X118612158Y-66565753D01*
X115693464Y-66565753D01*
X116035175Y-66224638D01*
X116298680Y-65590049D01*
X116299279Y-64902926D01*
X116036883Y-64267878D01*
X115744411Y-63974895D01*
X116035175Y-63684638D01*
X116298680Y-63050049D01*
X116298759Y-62959006D01*
X118368857Y-62959006D01*
X118563725Y-63430622D01*
X118924240Y-63791766D01*
X119395516Y-63987457D01*
X119905806Y-63987903D01*
X120377422Y-63793035D01*
X120738566Y-63432520D01*
X120921989Y-62990788D01*
X121103725Y-63430622D01*
X121464240Y-63791766D01*
X121935516Y-63987457D01*
X122445806Y-63987903D01*
X122917422Y-63793035D01*
X123278566Y-63432520D01*
X123474257Y-62961244D01*
X123474703Y-62450954D01*
X123279835Y-61979338D01*
X122919320Y-61618194D01*
X122448044Y-61422503D01*
X121937754Y-61422057D01*
X121466138Y-61616925D01*
X121104994Y-61977440D01*
X120921571Y-62419172D01*
X120739835Y-61979338D01*
X120379320Y-61618194D01*
X119908044Y-61422503D01*
X119397754Y-61422057D01*
X118926138Y-61616925D01*
X118564994Y-61977440D01*
X118369303Y-62448716D01*
X118368857Y-62959006D01*
X116298759Y-62959006D01*
X116299279Y-62362926D01*
X116036883Y-61727878D01*
X115551438Y-61241585D01*
X114916849Y-60978080D01*
X114229726Y-60977481D01*
X113594678Y-61239877D01*
X113108385Y-61725322D01*
X112844880Y-62359911D01*
X112844281Y-63047034D01*
X111413739Y-63047034D01*
X111414084Y-62652965D01*
X111165694Y-62051817D01*
X110706163Y-61591482D01*
X110105448Y-61342044D01*
X109455005Y-61341476D01*
X108853857Y-61589866D01*
X108393522Y-62049397D01*
X108144084Y-62650112D01*
X108143516Y-63300555D01*
X103874298Y-63300555D01*
X103994446Y-63011207D01*
X103995014Y-62360966D01*
X103746702Y-61760005D01*
X103287313Y-61299814D01*
X102686787Y-61050454D01*
X102036546Y-61049886D01*
X101435585Y-61298198D01*
X100975394Y-61757587D01*
X100726034Y-62358113D01*
X100725466Y-63008354D01*
X94994448Y-63008354D01*
X94995014Y-62360966D01*
X94746702Y-61760005D01*
X94287313Y-61299814D01*
X93686787Y-61050454D01*
X93036546Y-61049886D01*
X92435585Y-61298198D01*
X91975394Y-61757587D01*
X91726034Y-62358113D01*
X91725466Y-63008354D01*
X90598735Y-63008354D01*
X90575795Y-62966600D01*
X89082880Y-62966600D01*
X88828880Y-62966600D01*
X87335965Y-62966600D01*
X87213976Y-63188639D01*
X83086421Y-63188639D01*
X83155850Y-62839600D01*
X83086422Y-62490561D01*
X87213976Y-62490561D01*
X87335965Y-62712600D01*
X88828880Y-62712600D01*
X88828880Y-61404600D01*
X89082880Y-61404600D01*
X89082880Y-62712600D01*
X90575795Y-62712600D01*
X90697784Y-62490561D01*
X90680247Y-62407781D01*
X90410380Y-61914704D01*
X89972363Y-61562434D01*
X89432880Y-61404600D01*
X89082880Y-61404600D01*
X88828880Y-61404600D01*
X88478880Y-61404600D01*
X87939397Y-61562434D01*
X87501380Y-61914704D01*
X87231513Y-62407781D01*
X87213976Y-62490561D01*
X83086422Y-62490561D01*
X83046617Y-62290449D01*
X82735548Y-61824902D01*
X82270001Y-61513833D01*
X81720850Y-61404600D01*
X80950910Y-61404600D01*
X80401759Y-61513833D01*
X79936212Y-61824902D01*
X79625143Y-62290449D01*
X79515910Y-62839600D01*
X79625143Y-63388751D01*
X79936212Y-63854298D01*
X80318298Y-64109600D01*
X79936212Y-64364902D01*
X79914300Y-64397696D01*
X79909867Y-64386968D01*
X79635019Y-64111640D01*
X79275730Y-63962450D01*
X78886697Y-63962111D01*
X78628759Y-64068688D01*
X78628759Y-62143529D01*
X80579418Y-60192870D01*
X80772129Y-59904458D01*
X80839800Y-59564252D01*
X80839800Y-59551954D01*
X80875455Y-59537222D01*
X81335646Y-59077833D01*
X81585006Y-58477307D01*
X81585008Y-58474454D01*
X87316026Y-58474454D01*
X87564338Y-59075415D01*
X88023727Y-59535606D01*
X88624253Y-59784966D01*
X89274494Y-59785534D01*
X89875455Y-59537222D01*
X90222547Y-59190734D01*
X91768646Y-59190734D01*
X92016958Y-59791695D01*
X92476347Y-60251886D01*
X93076873Y-60501246D01*
X93727114Y-60501814D01*
X94328075Y-60253502D01*
X94788266Y-59794113D01*
X95037626Y-59193587D01*
X95037628Y-59190734D01*
X100768646Y-59190734D01*
X101016958Y-59791695D01*
X101476347Y-60251886D01*
X102076873Y-60501246D01*
X102727114Y-60501814D01*
X103328075Y-60253502D01*
X103788266Y-59794113D01*
X104037626Y-59193587D01*
X104038194Y-58543346D01*
X103789882Y-57942385D01*
X103330493Y-57482194D01*
X102729967Y-57232834D01*
X102079726Y-57232266D01*
X101478765Y-57480578D01*
X101018574Y-57939967D01*
X100769214Y-58540493D01*
X100768646Y-59190734D01*
X95037628Y-59190734D01*
X95038194Y-58543346D01*
X94789882Y-57942385D01*
X94330493Y-57482194D01*
X93729967Y-57232834D01*
X93079726Y-57232266D01*
X92478765Y-57480578D01*
X92018574Y-57939967D01*
X91769214Y-58540493D01*
X91768646Y-59190734D01*
X90222547Y-59190734D01*
X90335646Y-59077833D01*
X90585006Y-58477307D01*
X90585574Y-57827066D01*
X90337262Y-57226105D01*
X89877873Y-56765914D01*
X89277347Y-56516554D01*
X88627106Y-56515986D01*
X88026145Y-56764298D01*
X87565954Y-57223687D01*
X87316594Y-57824213D01*
X87316026Y-58474454D01*
X81585008Y-58474454D01*
X81585574Y-57827066D01*
X81337262Y-57226105D01*
X80877873Y-56765914D01*
X80277347Y-56516554D01*
X79627106Y-56515986D01*
X79026145Y-56764298D01*
X78565954Y-57223687D01*
X78316594Y-57824213D01*
X78316026Y-58474454D01*
X78564338Y-59075415D01*
X78873100Y-59384716D01*
X77111141Y-61146675D01*
X76918430Y-61435087D01*
X76850759Y-61775293D01*
X76850759Y-63267924D01*
X76606300Y-63218420D01*
X75006300Y-63218420D01*
X74770983Y-63262698D01*
X74554859Y-63401770D01*
X74409869Y-63613970D01*
X74370577Y-63807998D01*
X74350258Y-63801507D01*
X73485905Y-64665860D01*
X74350258Y-65530213D01*
X74369795Y-65523972D01*
X74403138Y-65701177D01*
X74542210Y-65917301D01*
X74754410Y-66062291D01*
X75006300Y-66113300D01*
X76606300Y-66113300D01*
X76841617Y-66069022D01*
X76850759Y-66063139D01*
X76850759Y-67991576D01*
X76415965Y-67991196D01*
X75814817Y-68239586D01*
X75354482Y-68699117D01*
X75105044Y-69299832D01*
X75104476Y-69950275D01*
X75120339Y-69988665D01*
X74194744Y-70914260D01*
X73311668Y-70914260D01*
X73336191Y-70878370D01*
X73387200Y-70626480D01*
X73387200Y-68626480D01*
X73342922Y-68391163D01*
X73203850Y-68175039D01*
X72991650Y-68030049D01*
X72739760Y-67979040D01*
X70739760Y-67979040D01*
X70504443Y-68023318D01*
X70288319Y-68162390D01*
X70143329Y-68374590D01*
X70092320Y-68626480D01*
X70092320Y-70626480D01*
X70136598Y-70861797D01*
X70275670Y-71077921D01*
X70487870Y-71222911D01*
X70739760Y-71273920D01*
X70849304Y-71273920D01*
X69386482Y-72736742D01*
X69342000Y-72803314D01*
X69342000Y-65709818D01*
X72441947Y-65709818D01*
X72522220Y-65961119D01*
X73077579Y-66162578D01*
X73667758Y-66136175D01*
X74090380Y-65961119D01*
X74170653Y-65709818D01*
X73306300Y-64845465D01*
X72441947Y-65709818D01*
X69342000Y-65709818D01*
X69342000Y-64437139D01*
X71809582Y-64437139D01*
X71835985Y-65027318D01*
X72011041Y-65449940D01*
X72262342Y-65530213D01*
X73126695Y-64665860D01*
X72262342Y-63801507D01*
X72011041Y-63881780D01*
X71809582Y-64437139D01*
X69342000Y-64437139D01*
X69342000Y-63621902D01*
X72441947Y-63621902D01*
X73306300Y-64486255D01*
X74170653Y-63621902D01*
X74090380Y-63370601D01*
X73535021Y-63169142D01*
X72944842Y-63195545D01*
X72522220Y-63370601D01*
X72441947Y-63621902D01*
X69342000Y-63621902D01*
X69342000Y-59088728D01*
X70851800Y-59088728D01*
X70851800Y-59752792D01*
X70953421Y-60263674D01*
X71242812Y-60696780D01*
X71675918Y-60986171D01*
X72186800Y-61087792D01*
X72697682Y-60986171D01*
X73087242Y-60725876D01*
X73110615Y-60754550D01*
X73571250Y-61002740D01*
X73631471Y-61013476D01*
X73837800Y-60890134D01*
X73837800Y-59547760D01*
X74091800Y-59547760D01*
X74091800Y-60890134D01*
X74298129Y-61013476D01*
X74358350Y-61002740D01*
X74818985Y-60754550D01*
X74853800Y-60711839D01*
X74888615Y-60754550D01*
X75349250Y-61002740D01*
X75409471Y-61013476D01*
X75615800Y-60890134D01*
X75615800Y-59547760D01*
X75869800Y-59547760D01*
X75869800Y-60890134D01*
X76076129Y-61013476D01*
X76136350Y-61002740D01*
X76596985Y-60754550D01*
X76927578Y-60348975D01*
X77077800Y-59847760D01*
X77077800Y-59547760D01*
X75869800Y-59547760D01*
X75615800Y-59547760D01*
X74091800Y-59547760D01*
X73837800Y-59547760D01*
X73817800Y-59547760D01*
X73817800Y-59293760D01*
X73837800Y-59293760D01*
X73837800Y-57951386D01*
X74091800Y-57951386D01*
X74091800Y-59293760D01*
X75615800Y-59293760D01*
X75615800Y-57951386D01*
X75869800Y-57951386D01*
X75869800Y-59293760D01*
X77077800Y-59293760D01*
X77077800Y-58993760D01*
X76927578Y-58492545D01*
X76596985Y-58086970D01*
X76136350Y-57838780D01*
X76076129Y-57828044D01*
X75869800Y-57951386D01*
X75615800Y-57951386D01*
X75409471Y-57828044D01*
X75349250Y-57838780D01*
X74888615Y-58086970D01*
X74853800Y-58129681D01*
X74818985Y-58086970D01*
X74358350Y-57838780D01*
X74298129Y-57828044D01*
X74091800Y-57951386D01*
X73837800Y-57951386D01*
X73631471Y-57828044D01*
X73571250Y-57838780D01*
X73110615Y-58086970D01*
X73087242Y-58115644D01*
X72697682Y-57855349D01*
X72186800Y-57753728D01*
X71675918Y-57855349D01*
X71242812Y-58144740D01*
X70953421Y-58577846D01*
X70851800Y-59088728D01*
X69342000Y-59088728D01*
X69342000Y-56353983D01*
X92430863Y-56353983D01*
X92529462Y-56620785D01*
X93139002Y-56847221D01*
X93788797Y-56823161D01*
X94277378Y-56620785D01*
X94375977Y-56353983D01*
X93403420Y-55381425D01*
X92430863Y-56353983D01*
X69342000Y-56353983D01*
X69342000Y-54156555D01*
X70043516Y-54156555D01*
X70291906Y-54757703D01*
X70751437Y-55218038D01*
X71352152Y-55467476D01*
X72002595Y-55468044D01*
X72603743Y-55219654D01*
X73064078Y-54760123D01*
X73313516Y-54159408D01*
X73314084Y-53508965D01*
X73065694Y-52907817D01*
X72990769Y-52832760D01*
X75031360Y-52832760D01*
X75031360Y-54832760D01*
X75075638Y-55068077D01*
X75214710Y-55284201D01*
X75426910Y-55429191D01*
X75678800Y-55480200D01*
X77678800Y-55480200D01*
X77914117Y-55435922D01*
X78130241Y-55296850D01*
X78275231Y-55084650D01*
X78326240Y-54832760D01*
X78326240Y-54456174D01*
X78431106Y-54456174D01*
X78679418Y-55057135D01*
X79138807Y-55517326D01*
X79739333Y-55766686D01*
X80389574Y-55767254D01*
X80990535Y-55518942D01*
X81450726Y-55059553D01*
X81700086Y-54459027D01*
X81700088Y-54456174D01*
X87431106Y-54456174D01*
X87679418Y-55057135D01*
X88138807Y-55517326D01*
X88739333Y-55766686D01*
X89389574Y-55767254D01*
X89990535Y-55518942D01*
X90450726Y-55059553D01*
X90501447Y-54937402D01*
X91758019Y-54937402D01*
X91782079Y-55587197D01*
X91984455Y-56075778D01*
X92251257Y-56174377D01*
X93223815Y-55201820D01*
X93583025Y-55201820D01*
X94555583Y-56174377D01*
X94822385Y-56075778D01*
X95026800Y-55525514D01*
X100768646Y-55525514D01*
X101016958Y-56126475D01*
X101476347Y-56586666D01*
X102076873Y-56836026D01*
X102727114Y-56836594D01*
X103328075Y-56588282D01*
X103788266Y-56128893D01*
X103910599Y-55834280D01*
X104925535Y-55834280D01*
X105051210Y-56466090D01*
X105409102Y-57001713D01*
X105944725Y-57359605D01*
X106576535Y-57485280D01*
X106641225Y-57485280D01*
X106985129Y-57416873D01*
X112046254Y-57416873D01*
X112126631Y-57714250D01*
X112602445Y-58515549D01*
X113348684Y-59073767D01*
X114251740Y-59303920D01*
X116001800Y-59303920D01*
X116001800Y-57045860D01*
X116255800Y-57045860D01*
X116255800Y-59303920D01*
X118005860Y-59303920D01*
X118908916Y-59073767D01*
X119655155Y-58515549D01*
X120130969Y-57714250D01*
X120211346Y-57416873D01*
X120101545Y-57045860D01*
X116255800Y-57045860D01*
X116001800Y-57045860D01*
X112156055Y-57045860D01*
X112046254Y-57416873D01*
X106985129Y-57416873D01*
X107273035Y-57359605D01*
X107808658Y-57001713D01*
X108166550Y-56466090D01*
X108175549Y-56420847D01*
X112046254Y-56420847D01*
X112156055Y-56791860D01*
X116001800Y-56791860D01*
X116001800Y-54533800D01*
X116255800Y-54533800D01*
X116255800Y-56791860D01*
X120101545Y-56791860D01*
X120211346Y-56420847D01*
X120130969Y-56123470D01*
X119655155Y-55322171D01*
X118908916Y-54763953D01*
X118005860Y-54533800D01*
X116255800Y-54533800D01*
X116001800Y-54533800D01*
X114251740Y-54533800D01*
X113348684Y-54763953D01*
X112602445Y-55322171D01*
X112126631Y-56123470D01*
X112046254Y-56420847D01*
X108175549Y-56420847D01*
X108292225Y-55834280D01*
X108166550Y-55202470D01*
X107939381Y-54862488D01*
X108076321Y-54774370D01*
X108221311Y-54562170D01*
X108272320Y-54310280D01*
X108272320Y-52278280D01*
X108228042Y-52042963D01*
X108088970Y-51826839D01*
X108076825Y-51818540D01*
X109942537Y-51818540D01*
X110051777Y-52367729D01*
X110362868Y-52833309D01*
X110828448Y-53144400D01*
X111377637Y-53253640D01*
X112350643Y-53253640D01*
X112899832Y-53144400D01*
X113365412Y-52833309D01*
X113676503Y-52367729D01*
X113785743Y-51818540D01*
X113676503Y-51269351D01*
X113365412Y-50803771D01*
X113014221Y-50569112D01*
X113418292Y-50244147D01*
X113688181Y-49751037D01*
X113705723Y-49668235D01*
X113583736Y-49446180D01*
X111991140Y-49446180D01*
X111991140Y-49466180D01*
X111737140Y-49466180D01*
X111737140Y-49446180D01*
X110144544Y-49446180D01*
X110022557Y-49668235D01*
X110040099Y-49751037D01*
X110309988Y-50244147D01*
X110714059Y-50569112D01*
X110362868Y-50803771D01*
X110051777Y-51269351D01*
X109942537Y-51818540D01*
X108076825Y-51818540D01*
X107876770Y-51681849D01*
X107624880Y-51630840D01*
X105592880Y-51630840D01*
X105357563Y-51675118D01*
X105141439Y-51814190D01*
X104996449Y-52026390D01*
X104945440Y-52278280D01*
X104945440Y-54310280D01*
X104989718Y-54545597D01*
X105128790Y-54761721D01*
X105277717Y-54863478D01*
X105051210Y-55202470D01*
X104925535Y-55834280D01*
X103910599Y-55834280D01*
X104037626Y-55528367D01*
X104038194Y-54878126D01*
X103789882Y-54277165D01*
X103330493Y-53816974D01*
X102729967Y-53567614D01*
X102079726Y-53567046D01*
X101478765Y-53815358D01*
X101018574Y-54274747D01*
X100769214Y-54875273D01*
X100768646Y-55525514D01*
X95026800Y-55525514D01*
X95048821Y-55466238D01*
X95024761Y-54816443D01*
X94822385Y-54327862D01*
X94555583Y-54229263D01*
X93583025Y-55201820D01*
X93223815Y-55201820D01*
X92251257Y-54229263D01*
X91984455Y-54327862D01*
X91758019Y-54937402D01*
X90501447Y-54937402D01*
X90700086Y-54459027D01*
X90700443Y-54049657D01*
X92430863Y-54049657D01*
X93403420Y-55022215D01*
X94375977Y-54049657D01*
X94277378Y-53782855D01*
X93667838Y-53556419D01*
X93018043Y-53580479D01*
X92529462Y-53782855D01*
X92430863Y-54049657D01*
X90700443Y-54049657D01*
X90700654Y-53808786D01*
X90452342Y-53207825D01*
X89992953Y-52747634D01*
X89392427Y-52498274D01*
X88742186Y-52497706D01*
X88141225Y-52746018D01*
X87681034Y-53205407D01*
X87431674Y-53805933D01*
X87431106Y-54456174D01*
X81700088Y-54456174D01*
X81700654Y-53808786D01*
X81452342Y-53207825D01*
X80992953Y-52747634D01*
X80392427Y-52498274D01*
X79742186Y-52497706D01*
X79141225Y-52746018D01*
X78681034Y-53205407D01*
X78431674Y-53805933D01*
X78431106Y-54456174D01*
X78326240Y-54456174D01*
X78326240Y-52832760D01*
X78281962Y-52597443D01*
X78142890Y-52381319D01*
X77930690Y-52236329D01*
X77678800Y-52185320D01*
X75678800Y-52185320D01*
X75443483Y-52229598D01*
X75227359Y-52368670D01*
X75082369Y-52580870D01*
X75031360Y-52832760D01*
X72990769Y-52832760D01*
X72606163Y-52447482D01*
X72005448Y-52198044D01*
X71355005Y-52197476D01*
X70753857Y-52445866D01*
X70293522Y-52905397D01*
X70044084Y-53506112D01*
X70043516Y-54156555D01*
X69342000Y-54156555D01*
X69342000Y-44383960D01*
X73001021Y-44383960D01*
X71937285Y-44823487D01*
X71937285Y-44823487D01*
G37*
X71937285Y-44823487D02*
X71054626Y-45704607D01*
X70576346Y-46856434D01*
X70575257Y-48103614D01*
X71051527Y-49256275D01*
X71932647Y-50138934D01*
X73084474Y-50617214D01*
X74331654Y-50618303D01*
X74374851Y-50600454D01*
X78316026Y-50600454D01*
X78564338Y-51201415D01*
X79023727Y-51661606D01*
X79624253Y-51910966D01*
X80274494Y-51911534D01*
X80875455Y-51663222D01*
X81335646Y-51203833D01*
X81585006Y-50603307D01*
X81585008Y-50600454D01*
X87316026Y-50600454D01*
X87564338Y-51201415D01*
X88023727Y-51661606D01*
X88624253Y-51910966D01*
X89274494Y-51911534D01*
X89875455Y-51663222D01*
X90335646Y-51203833D01*
X90585006Y-50603307D01*
X90585574Y-49953066D01*
X90337262Y-49352105D01*
X89877873Y-48891914D01*
X89277347Y-48642554D01*
X88627106Y-48641986D01*
X88026145Y-48890298D01*
X87565954Y-49349687D01*
X87316594Y-49950213D01*
X87316026Y-50600454D01*
X81585008Y-50600454D01*
X81585574Y-49953066D01*
X81337262Y-49352105D01*
X80877873Y-48891914D01*
X80277347Y-48642554D01*
X79627106Y-48641986D01*
X79026145Y-48890298D01*
X78565954Y-49349687D01*
X78316594Y-49950213D01*
X78316026Y-50600454D01*
X74374851Y-50600454D01*
X75484315Y-50142033D01*
X76366974Y-49260913D01*
X76845254Y-48109086D01*
X76846343Y-46861906D01*
X76813672Y-46782834D01*
X78331266Y-46782834D01*
X78579578Y-47383795D01*
X79038967Y-47843986D01*
X79639493Y-48093346D01*
X80289734Y-48093914D01*
X80890695Y-47845602D01*
X81125403Y-47611303D01*
X87993483Y-47611303D01*
X88092082Y-47878105D01*
X88701622Y-48104541D01*
X89351417Y-48080481D01*
X89839998Y-47878105D01*
X89938597Y-47611303D01*
X88966040Y-46638745D01*
X87993483Y-47611303D01*
X81125403Y-47611303D01*
X81350886Y-47386213D01*
X81600246Y-46785687D01*
X81600762Y-46194722D01*
X87320639Y-46194722D01*
X87344699Y-46844517D01*
X87547075Y-47333098D01*
X87813877Y-47431697D01*
X88786435Y-46459140D01*
X89145645Y-46459140D01*
X90118203Y-47431697D01*
X90385005Y-47333098D01*
X90611441Y-46723558D01*
X90587381Y-46073763D01*
X90385005Y-45585182D01*
X90118203Y-45486583D01*
X89145645Y-46459140D01*
X88786435Y-46459140D01*
X87813877Y-45486583D01*
X87547075Y-45585182D01*
X87320639Y-46194722D01*
X81600762Y-46194722D01*
X81600814Y-46135446D01*
X81352502Y-45534485D01*
X81125391Y-45306977D01*
X87993483Y-45306977D01*
X88966040Y-46279535D01*
X89938597Y-45306977D01*
X89839998Y-45040175D01*
X89230458Y-44813739D01*
X88580663Y-44837799D01*
X88092082Y-45040175D01*
X87993483Y-45306977D01*
X81125391Y-45306977D01*
X80893113Y-45074294D01*
X80292587Y-44824934D01*
X79642346Y-44824366D01*
X79041385Y-45072678D01*
X78581194Y-45532067D01*
X78331834Y-46132593D01*
X78331266Y-46782834D01*
X76813672Y-46782834D01*
X76370073Y-45709245D01*
X75488953Y-44826586D01*
X74422990Y-44383960D01*
X104751021Y-44383960D01*
X103687285Y-44823487D01*
X102804626Y-45704607D01*
X102326346Y-46856434D01*
X102325257Y-48103614D01*
X102801527Y-49256275D01*
X103682647Y-50138934D01*
X104834474Y-50617214D01*
X106081654Y-50618303D01*
X107234315Y-50142033D01*
X108116974Y-49260913D01*
X108237719Y-48970125D01*
X110022557Y-48970125D01*
X110144544Y-49192180D01*
X111737140Y-49192180D01*
X111737140Y-47884080D01*
X111991140Y-47884080D01*
X111991140Y-49192180D01*
X113583736Y-49192180D01*
X113705723Y-48970125D01*
X113704947Y-48966464D01*
X114251740Y-49105820D01*
X116001800Y-49105820D01*
X116001800Y-46847760D01*
X116255800Y-46847760D01*
X116255800Y-49105820D01*
X118005860Y-49105820D01*
X118908916Y-48875667D01*
X119655155Y-48317449D01*
X120130969Y-47516150D01*
X120211346Y-47218773D01*
X120101545Y-46847760D01*
X116255800Y-46847760D01*
X116001800Y-46847760D01*
X112156055Y-46847760D01*
X112046254Y-47218773D01*
X112126631Y-47516150D01*
X112345109Y-47884080D01*
X111991140Y-47884080D01*
X111737140Y-47884080D01*
X111287560Y-47884080D01*
X110748038Y-48041921D01*
X110309988Y-48394213D01*
X110040099Y-48887323D01*
X110022557Y-48970125D01*
X108237719Y-48970125D01*
X108595254Y-48109086D01*
X108596343Y-46861906D01*
X108120073Y-45709245D01*
X107238953Y-44826586D01*
X106172990Y-44383960D01*
X114062381Y-44383960D01*
X113348684Y-44565853D01*
X112602445Y-45124071D01*
X112126631Y-45925370D01*
X112046254Y-46222747D01*
X112156055Y-46593760D01*
X116001800Y-46593760D01*
X116001800Y-46573760D01*
X116255800Y-46573760D01*
X116255800Y-46593760D01*
X120101545Y-46593760D01*
X120211346Y-46222747D01*
X120130969Y-45925370D01*
X119655155Y-45124071D01*
X118908916Y-44565853D01*
X118195219Y-44383960D01*
X123799600Y-44383960D01*
X123799600Y-124241560D01*
X69342000Y-124241560D01*
X69342000Y-120493614D01*
X70575257Y-120493614D01*
X71051527Y-121646275D01*
X71932647Y-122528934D01*
X73084474Y-123007214D01*
X74331654Y-123008303D01*
X74989578Y-122736454D01*
X92396026Y-122736454D01*
X92644338Y-123337415D01*
X93103727Y-123797606D01*
X93704253Y-124046966D01*
X94354494Y-124047534D01*
X94955455Y-123799222D01*
X95415646Y-123339833D01*
X95569412Y-122969522D01*
X99828384Y-122969522D01*
X100049153Y-123340243D01*
X101020812Y-123733619D01*
X102069047Y-123725213D01*
X102998447Y-123340243D01*
X103219216Y-122969522D01*
X101523800Y-121274105D01*
X99828384Y-122969522D01*
X95569412Y-122969522D01*
X95665006Y-122739307D01*
X95665574Y-122089066D01*
X95417262Y-121488105D01*
X94957873Y-121027914D01*
X94357347Y-120778554D01*
X93707106Y-120777986D01*
X93106145Y-121026298D01*
X92645954Y-121485687D01*
X92396594Y-122086213D01*
X92396026Y-122736454D01*
X74989578Y-122736454D01*
X75484315Y-122532033D01*
X76366974Y-121650913D01*
X76845254Y-120499086D01*
X76845662Y-120031510D01*
X77586800Y-120031510D01*
X77586800Y-120872069D01*
X77683473Y-121105458D01*
X77862101Y-121284087D01*
X78095490Y-121380760D01*
X78886050Y-121380760D01*
X79044800Y-121222010D01*
X79044800Y-119872760D01*
X77745550Y-119872760D01*
X77586800Y-120031510D01*
X76845662Y-120031510D01*
X76846343Y-119251906D01*
X76585018Y-118619451D01*
X77586800Y-118619451D01*
X77586800Y-119460010D01*
X77745550Y-119618760D01*
X79044800Y-119618760D01*
X79044800Y-118269510D01*
X79298800Y-118269510D01*
X79298800Y-119618760D01*
X79318800Y-119618760D01*
X79318800Y-119872760D01*
X79298800Y-119872760D01*
X79298800Y-121222010D01*
X79457550Y-121380760D01*
X80248110Y-121380760D01*
X80481499Y-121284087D01*
X80660127Y-121105458D01*
X80709812Y-120985509D01*
X80812797Y-121088674D01*
X81395141Y-121330484D01*
X82025693Y-121331035D01*
X82608457Y-121090241D01*
X83054714Y-120644763D01*
X83296524Y-120062419D01*
X83297075Y-119431867D01*
X83056281Y-118849103D01*
X82610803Y-118402846D01*
X82028459Y-118161036D01*
X81397907Y-118160485D01*
X80815143Y-118401279D01*
X80709933Y-118506305D01*
X80660127Y-118386062D01*
X80481499Y-118207433D01*
X80248110Y-118110760D01*
X79457550Y-118110760D01*
X79298800Y-118269510D01*
X79044800Y-118269510D01*
X78886050Y-118110760D01*
X78095490Y-118110760D01*
X77862101Y-118207433D01*
X77683473Y-118386062D01*
X77586800Y-118619451D01*
X76585018Y-118619451D01*
X76370073Y-118099245D01*
X75488953Y-117216586D01*
X74337126Y-116738306D01*
X73089946Y-116737217D01*
X71937285Y-117213487D01*
X71054626Y-118094607D01*
X70576346Y-119246434D01*
X70575257Y-120493614D01*
X69342000Y-120493614D01*
X69342000Y-114826282D01*
X77588144Y-114826282D01*
X77808913Y-115197003D01*
X78780572Y-115590379D01*
X79828807Y-115581973D01*
X80758207Y-115197003D01*
X80978976Y-114826282D01*
X79283560Y-113130865D01*
X77588144Y-114826282D01*
X69342000Y-114826282D01*
X69342000Y-112448272D01*
X76644441Y-112448272D01*
X76652847Y-113496507D01*
X77037817Y-114425907D01*
X77408538Y-114646676D01*
X79103955Y-112951260D01*
X79463165Y-112951260D01*
X81158582Y-114646676D01*
X81394300Y-114506303D01*
X81394300Y-114848640D01*
X81461971Y-115188846D01*
X81626597Y-115435226D01*
X81654682Y-115477258D01*
X85208383Y-119030959D01*
X85148420Y-119332415D01*
X85148420Y-119397105D01*
X85274095Y-120028915D01*
X85631987Y-120564538D01*
X86167610Y-120922430D01*
X86799420Y-121048105D01*
X87431230Y-120922430D01*
X87771212Y-120695261D01*
X87859330Y-120832201D01*
X88071530Y-120977191D01*
X88323420Y-121028200D01*
X90355420Y-121028200D01*
X90590737Y-120983922D01*
X90806861Y-120844850D01*
X90951851Y-120632650D01*
X90960181Y-120591512D01*
X98884681Y-120591512D01*
X98893087Y-121639747D01*
X99278057Y-122569147D01*
X99648778Y-122789916D01*
X101344195Y-121094500D01*
X101703405Y-121094500D01*
X103398822Y-122789916D01*
X103769543Y-122569147D01*
X103931504Y-122169093D01*
X112071654Y-122169093D01*
X112152031Y-122466470D01*
X112627845Y-123267769D01*
X113374084Y-123825987D01*
X114277140Y-124056140D01*
X116027200Y-124056140D01*
X116027200Y-121798080D01*
X116281200Y-121798080D01*
X116281200Y-124056140D01*
X118031260Y-124056140D01*
X118934316Y-123825987D01*
X119680555Y-123267769D01*
X120156369Y-122466470D01*
X120236746Y-122169093D01*
X120126945Y-121798080D01*
X116281200Y-121798080D01*
X116027200Y-121798080D01*
X112181455Y-121798080D01*
X112071654Y-122169093D01*
X103931504Y-122169093D01*
X104162919Y-121597488D01*
X104159516Y-121173067D01*
X112071654Y-121173067D01*
X112181455Y-121544080D01*
X116027200Y-121544080D01*
X116027200Y-119286020D01*
X116281200Y-119286020D01*
X116281200Y-121544080D01*
X120126945Y-121544080D01*
X120236746Y-121173067D01*
X120156369Y-120875690D01*
X119680555Y-120074391D01*
X118934316Y-119516173D01*
X118031260Y-119286020D01*
X116281200Y-119286020D01*
X116027200Y-119286020D01*
X114277140Y-119286020D01*
X113374084Y-119516173D01*
X112627845Y-120074391D01*
X112152031Y-120875690D01*
X112071654Y-121173067D01*
X104159516Y-121173067D01*
X104154513Y-120549253D01*
X103914489Y-119969782D01*
X104527384Y-119969782D01*
X104748153Y-120340503D01*
X105719812Y-120733879D01*
X106768047Y-120725473D01*
X107697447Y-120340503D01*
X107918216Y-119969782D01*
X106222800Y-118274365D01*
X104527384Y-119969782D01*
X103914489Y-119969782D01*
X103769543Y-119619853D01*
X103398822Y-119399084D01*
X101703405Y-121094500D01*
X101344195Y-121094500D01*
X99648778Y-119399084D01*
X99278057Y-119619853D01*
X98884681Y-120591512D01*
X90960181Y-120591512D01*
X91002860Y-120380760D01*
X91002860Y-119219478D01*
X99828384Y-119219478D01*
X101523800Y-120914895D01*
X103219216Y-119219478D01*
X102998447Y-118848757D01*
X102026788Y-118455381D01*
X100978553Y-118463787D01*
X100049153Y-118848757D01*
X99828384Y-119219478D01*
X91002860Y-119219478D01*
X91002860Y-118348760D01*
X90958582Y-118113443D01*
X90819510Y-117897319D01*
X90607310Y-117752329D01*
X90355420Y-117701320D01*
X88323420Y-117701320D01*
X88088103Y-117745598D01*
X87871979Y-117884670D01*
X87770222Y-118033597D01*
X87431230Y-117807090D01*
X86799420Y-117681415D01*
X86444007Y-117752111D01*
X83172300Y-114480404D01*
X83172300Y-112114954D01*
X85220526Y-112114954D01*
X85468838Y-112715915D01*
X85928227Y-113176106D01*
X86528753Y-113425466D01*
X87178994Y-113426034D01*
X87779955Y-113177722D01*
X88240146Y-112718333D01*
X88437955Y-112241954D01*
X88713026Y-112241954D01*
X88961338Y-112842915D01*
X89420727Y-113303106D01*
X90021253Y-113552466D01*
X90671494Y-113553034D01*
X91272455Y-113304722D01*
X91732646Y-112845333D01*
X91982006Y-112244807D01*
X91982574Y-111594566D01*
X91841554Y-111253270D01*
X92383870Y-111253270D01*
X92383870Y-113252250D01*
X92428148Y-113487567D01*
X92567220Y-113703691D01*
X92779420Y-113848681D01*
X93031310Y-113899690D01*
X95030290Y-113899690D01*
X95265607Y-113855412D01*
X95481731Y-113716340D01*
X95626721Y-113504140D01*
X95677730Y-113252250D01*
X95677730Y-111253270D01*
X95633452Y-111017953D01*
X95494380Y-110801829D01*
X95282180Y-110656839D01*
X95030290Y-110605830D01*
X93031310Y-110605830D01*
X92795993Y-110650108D01*
X92579869Y-110789180D01*
X92434879Y-111001380D01*
X92383870Y-111253270D01*
X91841554Y-111253270D01*
X91734262Y-110993605D01*
X91274873Y-110533414D01*
X90674347Y-110284054D01*
X90024106Y-110283486D01*
X89423145Y-110531798D01*
X88962954Y-110991187D01*
X88713594Y-111591713D01*
X88713026Y-112241954D01*
X88437955Y-112241954D01*
X88489506Y-112117807D01*
X88490074Y-111467566D01*
X88241762Y-110866605D01*
X87782373Y-110406414D01*
X87181847Y-110157054D01*
X86531606Y-110156486D01*
X85930645Y-110404798D01*
X85470454Y-110864187D01*
X85221094Y-111464713D01*
X85220526Y-112114954D01*
X83172300Y-112114954D01*
X83172300Y-110736007D01*
X83773958Y-110487407D01*
X84515842Y-109746817D01*
X84917842Y-108778693D01*
X84918285Y-108271154D01*
X92431586Y-108271154D01*
X92679898Y-108872115D01*
X93139287Y-109332306D01*
X93739813Y-109581666D01*
X94390054Y-109582234D01*
X94428155Y-109566491D01*
X99047988Y-114186324D01*
X98889258Y-114568587D01*
X98888343Y-115616854D01*
X99288653Y-116585678D01*
X100029243Y-117327562D01*
X100997367Y-117729562D01*
X102045634Y-117730477D01*
X102381325Y-117591772D01*
X103583681Y-117591772D01*
X103592087Y-118640007D01*
X103977057Y-119569407D01*
X104347778Y-119790176D01*
X106043195Y-118094760D01*
X106402405Y-118094760D01*
X108097822Y-119790176D01*
X108468543Y-119569407D01*
X108861919Y-118597748D01*
X108853513Y-117549513D01*
X108468543Y-116620113D01*
X108385669Y-116570760D01*
X109967937Y-116570760D01*
X110077177Y-117119949D01*
X110388268Y-117585529D01*
X110853848Y-117896620D01*
X111403037Y-118005860D01*
X112376043Y-118005860D01*
X112925232Y-117896620D01*
X113390812Y-117585529D01*
X113701903Y-117119949D01*
X113811143Y-116570760D01*
X113701903Y-116021571D01*
X113390812Y-115555991D01*
X113039621Y-115321332D01*
X113443692Y-114996367D01*
X113713581Y-114503257D01*
X113731123Y-114420455D01*
X113609136Y-114198400D01*
X112016540Y-114198400D01*
X112016540Y-114218400D01*
X111762540Y-114218400D01*
X111762540Y-114198400D01*
X110169944Y-114198400D01*
X110047957Y-114420455D01*
X110065499Y-114503257D01*
X110335388Y-114996367D01*
X110739459Y-115321332D01*
X110388268Y-115555991D01*
X110077177Y-116021571D01*
X109967937Y-116570760D01*
X108385669Y-116570760D01*
X108097822Y-116399344D01*
X106402405Y-118094760D01*
X106043195Y-118094760D01*
X104347778Y-116399344D01*
X103977057Y-116620113D01*
X103583681Y-117591772D01*
X102381325Y-117591772D01*
X103014458Y-117330167D01*
X103756342Y-116589577D01*
X103909912Y-116219738D01*
X104527384Y-116219738D01*
X106222800Y-117915155D01*
X107918216Y-116219738D01*
X107697447Y-115849017D01*
X106725788Y-115455641D01*
X105677553Y-115464047D01*
X104748153Y-115849017D01*
X104527384Y-116219738D01*
X103909912Y-116219738D01*
X104158342Y-115621453D01*
X104159257Y-114573186D01*
X103807697Y-113722345D01*
X110047957Y-113722345D01*
X110169944Y-113944400D01*
X111762540Y-113944400D01*
X111762540Y-112636300D01*
X112016540Y-112636300D01*
X112016540Y-113944400D01*
X113609136Y-113944400D01*
X113731123Y-113722345D01*
X113730347Y-113718684D01*
X114277140Y-113858040D01*
X116027200Y-113858040D01*
X116027200Y-111599980D01*
X116281200Y-111599980D01*
X116281200Y-113858040D01*
X118031260Y-113858040D01*
X118934316Y-113627887D01*
X119680555Y-113069669D01*
X120156369Y-112268370D01*
X120236746Y-111970993D01*
X120126945Y-111599980D01*
X116281200Y-111599980D01*
X116027200Y-111599980D01*
X112181455Y-111599980D01*
X112071654Y-111970993D01*
X112152031Y-112268370D01*
X112370509Y-112636300D01*
X112016540Y-112636300D01*
X111762540Y-112636300D01*
X111312960Y-112636300D01*
X110773438Y-112794141D01*
X110335388Y-113146433D01*
X110065499Y-113639543D01*
X110047957Y-113722345D01*
X103807697Y-113722345D01*
X103758947Y-113604362D01*
X103018357Y-112862478D01*
X102050233Y-112460478D01*
X101227301Y-112459760D01*
X101684592Y-112154208D01*
X101910316Y-111816387D01*
X102214811Y-112197284D01*
X102723990Y-112477909D01*
X102817968Y-112498800D01*
X103047800Y-112377474D01*
X103047800Y-110284260D01*
X103027800Y-110284260D01*
X103027800Y-110030260D01*
X103047800Y-110030260D01*
X103047800Y-107937046D01*
X103301800Y-107937046D01*
X103301800Y-110030260D01*
X103321800Y-110030260D01*
X103321800Y-110284260D01*
X103301800Y-110284260D01*
X103301800Y-112377474D01*
X103531632Y-112498800D01*
X103625610Y-112477909D01*
X104134789Y-112197284D01*
X104439284Y-111816387D01*
X104665008Y-112154208D01*
X105146657Y-112476035D01*
X105714800Y-112589046D01*
X106282943Y-112476035D01*
X106764592Y-112154208D01*
X107086419Y-111672559D01*
X107199430Y-111104416D01*
X107199430Y-110974967D01*
X112071654Y-110974967D01*
X112181455Y-111345980D01*
X116027200Y-111345980D01*
X116027200Y-109087920D01*
X116281200Y-109087920D01*
X116281200Y-111345980D01*
X120126945Y-111345980D01*
X120236746Y-110974967D01*
X120156369Y-110677590D01*
X119680555Y-109876291D01*
X118934316Y-109318073D01*
X118031260Y-109087920D01*
X116281200Y-109087920D01*
X116027200Y-109087920D01*
X114277140Y-109087920D01*
X113374084Y-109318073D01*
X112627845Y-109876291D01*
X112152031Y-110677590D01*
X112071654Y-110974967D01*
X107199430Y-110974967D01*
X107199430Y-109210104D01*
X107086419Y-108641961D01*
X106764592Y-108160312D01*
X106282943Y-107838485D01*
X105714800Y-107725474D01*
X105146657Y-107838485D01*
X104665008Y-108160312D01*
X104439284Y-108498133D01*
X104134789Y-108117236D01*
X103625610Y-107836611D01*
X103531632Y-107815720D01*
X103301800Y-107937046D01*
X103047800Y-107937046D01*
X102817968Y-107815720D01*
X102723990Y-107836611D01*
X102214811Y-108117236D01*
X101910316Y-108498133D01*
X101684592Y-108160312D01*
X101202943Y-107838485D01*
X100634800Y-107725474D01*
X100066657Y-107838485D01*
X99585008Y-108160312D01*
X99263181Y-108641961D01*
X99150170Y-109210104D01*
X99150170Y-111104416D01*
X99263181Y-111672559D01*
X99585008Y-112154208D01*
X100066657Y-112476035D01*
X100634800Y-112589046D01*
X100738529Y-112568413D01*
X100176694Y-112800558D01*
X95685772Y-108309636D01*
X95700566Y-108274007D01*
X95701134Y-107623766D01*
X95452822Y-107022805D01*
X94993433Y-106562614D01*
X94392907Y-106313254D01*
X93742666Y-106312686D01*
X93141705Y-106560998D01*
X92681514Y-107020387D01*
X92432154Y-107620913D01*
X92431586Y-108271154D01*
X84918285Y-108271154D01*
X84918757Y-107730426D01*
X84518447Y-106761602D01*
X83777857Y-106019718D01*
X82809733Y-105617718D01*
X81761466Y-105616803D01*
X80792642Y-106017113D01*
X80050758Y-106757703D01*
X79648758Y-107725827D01*
X79647843Y-108774094D01*
X80048153Y-109742918D01*
X80788743Y-110484802D01*
X81394300Y-110736251D01*
X81394300Y-111396217D01*
X81158582Y-111255844D01*
X79463165Y-112951260D01*
X79103955Y-112951260D01*
X77408538Y-111255844D01*
X77037817Y-111476613D01*
X76644441Y-112448272D01*
X69342000Y-112448272D01*
X69342000Y-111076238D01*
X77588144Y-111076238D01*
X79283560Y-112771655D01*
X80978976Y-111076238D01*
X80758207Y-110705517D01*
X79786548Y-110312141D01*
X78738313Y-110320547D01*
X77808913Y-110705517D01*
X77588144Y-111076238D01*
X69342000Y-111076238D01*
X69342000Y-110127282D01*
X74588404Y-110127282D01*
X74809173Y-110498003D01*
X75780832Y-110891379D01*
X76829067Y-110882973D01*
X77758467Y-110498003D01*
X77979236Y-110127282D01*
X76283820Y-108431865D01*
X74588404Y-110127282D01*
X69342000Y-110127282D01*
X69342000Y-107749272D01*
X73644701Y-107749272D01*
X73653107Y-108797507D01*
X74038077Y-109726907D01*
X74408798Y-109947676D01*
X76104215Y-108252260D01*
X76463425Y-108252260D01*
X78158842Y-109947676D01*
X78529563Y-109726907D01*
X78922939Y-108755248D01*
X78914533Y-107707013D01*
X78529563Y-106777613D01*
X78158842Y-106556844D01*
X76463425Y-108252260D01*
X76104215Y-108252260D01*
X74408798Y-106556844D01*
X74038077Y-106777613D01*
X73644701Y-107749272D01*
X69342000Y-107749272D01*
X69342000Y-106377238D01*
X74588404Y-106377238D01*
X76283820Y-108072655D01*
X77979236Y-106377238D01*
X77758467Y-106006517D01*
X76786808Y-105613141D01*
X75738573Y-105621547D01*
X74809173Y-106006517D01*
X74588404Y-106377238D01*
X69342000Y-106377238D01*
X69342000Y-105151093D01*
X112071654Y-105151093D01*
X112152031Y-105448470D01*
X112627845Y-106249769D01*
X113374084Y-106807987D01*
X114277140Y-107038140D01*
X116027200Y-107038140D01*
X116027200Y-104780080D01*
X116281200Y-104780080D01*
X116281200Y-107038140D01*
X118031260Y-107038140D01*
X118934316Y-106807987D01*
X119680555Y-106249769D01*
X120156369Y-105448470D01*
X120236746Y-105151093D01*
X120126945Y-104780080D01*
X116281200Y-104780080D01*
X116027200Y-104780080D01*
X112181455Y-104780080D01*
X112071654Y-105151093D01*
X69342000Y-105151093D01*
X69342000Y-103114954D01*
X85220526Y-103114954D01*
X85468838Y-103715915D01*
X85928227Y-104176106D01*
X86528753Y-104425466D01*
X87178994Y-104426034D01*
X87779955Y-104177722D01*
X88240146Y-103718333D01*
X88437955Y-103241954D01*
X88713026Y-103241954D01*
X88961338Y-103842915D01*
X89420727Y-104303106D01*
X90021253Y-104552466D01*
X90671494Y-104553034D01*
X91272455Y-104304722D01*
X91422371Y-104155067D01*
X112071654Y-104155067D01*
X112181455Y-104526080D01*
X116027200Y-104526080D01*
X116027200Y-102268020D01*
X116281200Y-102268020D01*
X116281200Y-104526080D01*
X120126945Y-104526080D01*
X120236746Y-104155067D01*
X120156369Y-103857690D01*
X119680555Y-103056391D01*
X118934316Y-102498173D01*
X118031260Y-102268020D01*
X116281200Y-102268020D01*
X116027200Y-102268020D01*
X114277140Y-102268020D01*
X113374084Y-102498173D01*
X112627845Y-103056391D01*
X112152031Y-103857690D01*
X112071654Y-104155067D01*
X91422371Y-104155067D01*
X91732646Y-103845333D01*
X91982006Y-103244807D01*
X91982574Y-102594566D01*
X91734262Y-101993605D01*
X91274873Y-101533414D01*
X90674347Y-101284054D01*
X90024106Y-101283486D01*
X89423145Y-101531798D01*
X88962954Y-101991187D01*
X88713594Y-102591713D01*
X88713026Y-103241954D01*
X88437955Y-103241954D01*
X88489506Y-103117807D01*
X88490074Y-102467566D01*
X88241762Y-101866605D01*
X87782373Y-101406414D01*
X87181847Y-101157054D01*
X86531606Y-101156486D01*
X85930645Y-101404798D01*
X85470454Y-101864187D01*
X85221094Y-102464713D01*
X85220526Y-103114954D01*
X69342000Y-103114954D01*
X69342000Y-102165792D01*
X71975873Y-102165792D01*
X72074536Y-102432647D01*
X72684261Y-102659168D01*
X73334260Y-102635116D01*
X73823064Y-102432647D01*
X73921727Y-102165792D01*
X72948800Y-101192865D01*
X71975873Y-102165792D01*
X69342000Y-102165792D01*
X69342000Y-100748721D01*
X71302892Y-100748721D01*
X71326944Y-101398720D01*
X71529413Y-101887524D01*
X71796268Y-101986187D01*
X72769195Y-101013260D01*
X73128405Y-101013260D01*
X74101332Y-101986187D01*
X74368187Y-101887524D01*
X74594708Y-101277799D01*
X74570656Y-100627800D01*
X74368187Y-100138996D01*
X74156582Y-100060760D01*
X76552268Y-100060760D01*
X76653889Y-100571642D01*
X76943280Y-101004748D01*
X77376386Y-101294139D01*
X77887268Y-101395760D01*
X78551332Y-101395760D01*
X79062214Y-101294139D01*
X79495320Y-101004748D01*
X79784711Y-100571642D01*
X79886332Y-100060760D01*
X79785285Y-99552760D01*
X109967937Y-99552760D01*
X110077177Y-100101949D01*
X110388268Y-100567529D01*
X110853848Y-100878620D01*
X111403037Y-100987860D01*
X112376043Y-100987860D01*
X112925232Y-100878620D01*
X113390812Y-100567529D01*
X113701903Y-100101949D01*
X113811143Y-99552760D01*
X113701903Y-99003571D01*
X113390812Y-98537991D01*
X113039621Y-98303332D01*
X113443692Y-97978367D01*
X113713581Y-97485257D01*
X113731123Y-97402455D01*
X113609136Y-97180400D01*
X112016540Y-97180400D01*
X112016540Y-97200400D01*
X111762540Y-97200400D01*
X111762540Y-97180400D01*
X110169944Y-97180400D01*
X110047957Y-97402455D01*
X110065499Y-97485257D01*
X110335388Y-97978367D01*
X110739459Y-98303332D01*
X110388268Y-98537991D01*
X110077177Y-99003571D01*
X109967937Y-99552760D01*
X79785285Y-99552760D01*
X79784711Y-99549878D01*
X79524416Y-99160318D01*
X79553090Y-99136945D01*
X79801280Y-98676310D01*
X79812016Y-98616089D01*
X79688674Y-98409760D01*
X78346300Y-98409760D01*
X78346300Y-98429760D01*
X78092300Y-98429760D01*
X78092300Y-98409760D01*
X76749926Y-98409760D01*
X76626584Y-98616089D01*
X76637320Y-98676310D01*
X76885510Y-99136945D01*
X76914184Y-99160318D01*
X76653889Y-99549878D01*
X76552268Y-100060760D01*
X74156582Y-100060760D01*
X74101332Y-100040333D01*
X73128405Y-101013260D01*
X72769195Y-101013260D01*
X71796268Y-100040333D01*
X71529413Y-100138996D01*
X71302892Y-100748721D01*
X69342000Y-100748721D01*
X69342000Y-99860728D01*
X71975873Y-99860728D01*
X72948800Y-100833655D01*
X73921727Y-99860728D01*
X73823064Y-99593873D01*
X73213339Y-99367352D01*
X72563340Y-99391404D01*
X72074536Y-99593873D01*
X71975873Y-99860728D01*
X69342000Y-99860728D01*
X69342000Y-95013260D01*
X71301360Y-95013260D01*
X71301360Y-97013260D01*
X71345638Y-97248577D01*
X71484710Y-97464701D01*
X71696910Y-97609691D01*
X71948800Y-97660700D01*
X73948800Y-97660700D01*
X74184117Y-97616422D01*
X74400241Y-97477350D01*
X74545231Y-97265150D01*
X74596240Y-97013260D01*
X74596240Y-96504760D01*
X76552268Y-96504760D01*
X76653889Y-97015642D01*
X76914184Y-97405202D01*
X76885510Y-97428575D01*
X76637320Y-97889210D01*
X76626584Y-97949431D01*
X76749926Y-98155760D01*
X78092300Y-98155760D01*
X78092300Y-98135760D01*
X78346300Y-98135760D01*
X78346300Y-98155760D01*
X79688674Y-98155760D01*
X79812016Y-97949431D01*
X79801280Y-97889210D01*
X79553090Y-97428575D01*
X79524416Y-97405202D01*
X79784711Y-97015642D01*
X79829997Y-96787970D01*
X92419430Y-96787970D01*
X92419430Y-98786950D01*
X92463708Y-99022267D01*
X92602780Y-99238391D01*
X92814980Y-99383381D01*
X93066870Y-99434390D01*
X95065850Y-99434390D01*
X95301167Y-99390112D01*
X95517291Y-99251040D01*
X95662281Y-99038840D01*
X95713290Y-98786950D01*
X95713290Y-96787970D01*
X95697555Y-96704345D01*
X110047957Y-96704345D01*
X110169944Y-96926400D01*
X111762540Y-96926400D01*
X111762540Y-95618300D01*
X112016540Y-95618300D01*
X112016540Y-96926400D01*
X113609136Y-96926400D01*
X113731123Y-96704345D01*
X113730347Y-96700684D01*
X114277140Y-96840040D01*
X116027200Y-96840040D01*
X116027200Y-94581980D01*
X116281200Y-94581980D01*
X116281200Y-96840040D01*
X118031260Y-96840040D01*
X118934316Y-96609887D01*
X119680555Y-96051669D01*
X120156369Y-95250370D01*
X120236746Y-94952993D01*
X120126945Y-94581980D01*
X116281200Y-94581980D01*
X116027200Y-94581980D01*
X112181455Y-94581980D01*
X112071654Y-94952993D01*
X112152031Y-95250370D01*
X112370509Y-95618300D01*
X112016540Y-95618300D01*
X111762540Y-95618300D01*
X111312960Y-95618300D01*
X110773438Y-95776141D01*
X110335388Y-96128433D01*
X110065499Y-96621543D01*
X110047957Y-96704345D01*
X95697555Y-96704345D01*
X95669012Y-96552653D01*
X95529940Y-96336529D01*
X95317740Y-96191539D01*
X95065850Y-96140530D01*
X93066870Y-96140530D01*
X92831553Y-96184808D01*
X92615429Y-96323880D01*
X92470439Y-96536080D01*
X92419430Y-96787970D01*
X79829997Y-96787970D01*
X79886332Y-96504760D01*
X79784711Y-95993878D01*
X79495320Y-95560772D01*
X79062214Y-95271381D01*
X78551332Y-95169760D01*
X77887268Y-95169760D01*
X77376386Y-95271381D01*
X76943280Y-95560772D01*
X76653889Y-95993878D01*
X76552268Y-96504760D01*
X74596240Y-96504760D01*
X74596240Y-95013260D01*
X74551962Y-94777943D01*
X74412890Y-94561819D01*
X74200690Y-94416829D01*
X73948800Y-94365820D01*
X71948800Y-94365820D01*
X71713483Y-94410098D01*
X71497359Y-94549170D01*
X71352369Y-94761370D01*
X71301360Y-95013260D01*
X69342000Y-95013260D01*
X69342000Y-94228292D01*
X81310373Y-94228292D01*
X81409036Y-94495147D01*
X82018761Y-94721668D01*
X82668760Y-94697616D01*
X83157564Y-94495147D01*
X83256227Y-94228292D01*
X82283300Y-93255365D01*
X81310373Y-94228292D01*
X69342000Y-94228292D01*
X69342000Y-92811221D01*
X80637392Y-92811221D01*
X80661444Y-93461220D01*
X80863913Y-93950024D01*
X81130768Y-94048687D01*
X82103695Y-93075760D01*
X82462905Y-93075760D01*
X83435832Y-94048687D01*
X83702687Y-93950024D01*
X83929208Y-93340299D01*
X83918014Y-93037760D01*
X91313360Y-93037760D01*
X91313360Y-94637760D01*
X91357638Y-94873077D01*
X91496710Y-95089201D01*
X91708910Y-95234191D01*
X91960800Y-95285200D01*
X93560800Y-95285200D01*
X93796117Y-95240922D01*
X94012241Y-95101850D01*
X94157231Y-94889650D01*
X94166565Y-94843556D01*
X94418517Y-95095948D01*
X94964119Y-95322502D01*
X95554889Y-95323017D01*
X96100886Y-95097416D01*
X96518988Y-94680043D01*
X96745542Y-94134441D01*
X96745696Y-93956967D01*
X112071654Y-93956967D01*
X112181455Y-94327980D01*
X116027200Y-94327980D01*
X116027200Y-92069920D01*
X116281200Y-92069920D01*
X116281200Y-94327980D01*
X120126945Y-94327980D01*
X120236746Y-93956967D01*
X120156369Y-93659590D01*
X119680555Y-92858291D01*
X118934316Y-92300073D01*
X118031260Y-92069920D01*
X116281200Y-92069920D01*
X116027200Y-92069920D01*
X114277140Y-92069920D01*
X113374084Y-92300073D01*
X112627845Y-92858291D01*
X112152031Y-93659590D01*
X112071654Y-93956967D01*
X96745696Y-93956967D01*
X96746057Y-93543671D01*
X96520456Y-92997674D01*
X96103083Y-92579572D01*
X95557481Y-92353018D01*
X94966711Y-92352503D01*
X94420714Y-92578104D01*
X94169026Y-92829354D01*
X94163962Y-92802443D01*
X94024890Y-92586319D01*
X93812690Y-92441329D01*
X93560800Y-92390320D01*
X91960800Y-92390320D01*
X91725483Y-92434598D01*
X91509359Y-92573670D01*
X91364369Y-92785870D01*
X91313360Y-93037760D01*
X83918014Y-93037760D01*
X83905156Y-92690300D01*
X83702687Y-92201496D01*
X83435832Y-92102833D01*
X82462905Y-93075760D01*
X82103695Y-93075760D01*
X81130768Y-92102833D01*
X80863913Y-92201496D01*
X80637392Y-92811221D01*
X69342000Y-92811221D01*
X69342000Y-91431055D01*
X70234016Y-91431055D01*
X70482406Y-92032203D01*
X70941937Y-92492538D01*
X71542652Y-92741976D01*
X72193095Y-92742544D01*
X72794243Y-92494154D01*
X73254578Y-92034623D01*
X73504016Y-91433908D01*
X73504584Y-90783465D01*
X73256194Y-90182317D01*
X73181269Y-90107260D01*
X75221860Y-90107260D01*
X75221860Y-92107260D01*
X75266138Y-92342577D01*
X75405210Y-92558701D01*
X75617410Y-92703691D01*
X75869300Y-92754700D01*
X77869300Y-92754700D01*
X78104617Y-92710422D01*
X78320741Y-92571350D01*
X78465731Y-92359150D01*
X78516740Y-92107260D01*
X78516740Y-91923228D01*
X81310373Y-91923228D01*
X82283300Y-92896155D01*
X83256227Y-91923228D01*
X83157564Y-91656373D01*
X82547839Y-91429852D01*
X81897840Y-91453904D01*
X81409036Y-91656373D01*
X81310373Y-91923228D01*
X78516740Y-91923228D01*
X78516740Y-90107260D01*
X78472462Y-89871943D01*
X78333390Y-89655819D01*
X78121190Y-89510829D01*
X77869300Y-89459820D01*
X75869300Y-89459820D01*
X75633983Y-89504098D01*
X75417859Y-89643170D01*
X75272869Y-89855370D01*
X75221860Y-90107260D01*
X73181269Y-90107260D01*
X72796663Y-89721982D01*
X72195948Y-89472544D01*
X71545505Y-89471976D01*
X70944357Y-89720366D01*
X70484022Y-90179897D01*
X70234584Y-90780612D01*
X70234016Y-91431055D01*
X69342000Y-91431055D01*
X69342000Y-82538006D01*
X69386482Y-82604578D01*
X71088282Y-84306378D01*
X71376695Y-84499090D01*
X71716900Y-84566760D01*
X73594979Y-84566760D01*
X73650299Y-84649552D01*
X73513359Y-84737670D01*
X73368369Y-84949870D01*
X73317360Y-85201760D01*
X73317360Y-87233760D01*
X73361638Y-87469077D01*
X73500710Y-87685201D01*
X73712910Y-87830191D01*
X73964800Y-87881200D01*
X75996800Y-87881200D01*
X76232117Y-87836922D01*
X76448241Y-87697850D01*
X76593231Y-87485650D01*
X76644240Y-87233760D01*
X76644240Y-87075760D01*
X80635860Y-87075760D01*
X80635860Y-89075760D01*
X80680138Y-89311077D01*
X80819210Y-89527201D01*
X81031410Y-89672191D01*
X81283300Y-89723200D01*
X83283300Y-89723200D01*
X83518617Y-89678922D01*
X83734741Y-89539850D01*
X83841665Y-89383361D01*
X85622682Y-91164378D01*
X85911094Y-91357089D01*
X86251300Y-91424760D01*
X88732245Y-91424760D01*
X88945930Y-91513490D01*
X89334963Y-91513829D01*
X89550527Y-91424760D01*
X92083038Y-91424760D01*
X92119780Y-91479748D01*
X92552886Y-91769139D01*
X93063768Y-91870760D01*
X93727832Y-91870760D01*
X94238714Y-91769139D01*
X94671820Y-91479748D01*
X94961211Y-91046642D01*
X95062832Y-90535760D01*
X95050710Y-90474818D01*
X110628947Y-90474818D01*
X110709220Y-90726119D01*
X111264579Y-90927578D01*
X111854758Y-90901175D01*
X112277380Y-90726119D01*
X112357653Y-90474818D01*
X111493300Y-89610465D01*
X110628947Y-90474818D01*
X95050710Y-90474818D01*
X94961211Y-90024878D01*
X94708562Y-89646760D01*
X94961211Y-89268642D01*
X94974439Y-89202139D01*
X109996582Y-89202139D01*
X110022985Y-89792318D01*
X110198041Y-90214940D01*
X110449342Y-90295213D01*
X111313695Y-89430860D01*
X111672905Y-89430860D01*
X112537258Y-90295213D01*
X112556795Y-90288972D01*
X112590138Y-90466177D01*
X112729210Y-90682301D01*
X112941410Y-90827291D01*
X113193300Y-90878300D01*
X114793300Y-90878300D01*
X115028617Y-90834022D01*
X115244741Y-90694950D01*
X115389731Y-90482750D01*
X115440740Y-90230860D01*
X115440740Y-89286867D01*
X120986298Y-89286867D01*
X121086920Y-89555382D01*
X121702442Y-89784576D01*
X122358819Y-89760774D01*
X122854680Y-89555382D01*
X122955302Y-89286867D01*
X121970800Y-88302365D01*
X120986298Y-89286867D01*
X115440740Y-89286867D01*
X115440740Y-88630860D01*
X115396462Y-88395543D01*
X115257390Y-88179419D01*
X115045190Y-88034429D01*
X114793300Y-87983420D01*
X113193300Y-87983420D01*
X112957983Y-88027698D01*
X112741859Y-88166770D01*
X112596869Y-88378970D01*
X112557577Y-88572998D01*
X112537258Y-88566507D01*
X111672905Y-89430860D01*
X111313695Y-89430860D01*
X110449342Y-88566507D01*
X110198041Y-88646780D01*
X109996582Y-89202139D01*
X94974439Y-89202139D01*
X95062832Y-88757760D01*
X94989064Y-88386902D01*
X110628947Y-88386902D01*
X111493300Y-89251255D01*
X112357653Y-88386902D01*
X112277380Y-88135601D01*
X111722021Y-87934142D01*
X111131842Y-87960545D01*
X110709220Y-88135601D01*
X110628947Y-88386902D01*
X94989064Y-88386902D01*
X94961211Y-88246878D01*
X94708562Y-87868760D01*
X94718155Y-87854402D01*
X120308984Y-87854402D01*
X120332786Y-88510779D01*
X120538178Y-89006640D01*
X120806693Y-89107262D01*
X121791195Y-88122760D01*
X122150405Y-88122760D01*
X123134907Y-89107262D01*
X123403422Y-89006640D01*
X123632616Y-88391118D01*
X123608814Y-87734741D01*
X123403422Y-87238880D01*
X123134907Y-87138258D01*
X122150405Y-88122760D01*
X121791195Y-88122760D01*
X120806693Y-87138258D01*
X120538178Y-87238880D01*
X120308984Y-87854402D01*
X94718155Y-87854402D01*
X94961211Y-87490642D01*
X95062832Y-86979760D01*
X95058634Y-86958653D01*
X120986298Y-86958653D01*
X121970800Y-87943155D01*
X122955302Y-86958653D01*
X122854680Y-86690138D01*
X122239158Y-86460944D01*
X121582781Y-86484746D01*
X121086920Y-86690138D01*
X120986298Y-86958653D01*
X95058634Y-86958653D01*
X94961211Y-86468878D01*
X94671820Y-86035772D01*
X94238714Y-85746381D01*
X93727832Y-85644760D01*
X93063768Y-85644760D01*
X92552886Y-85746381D01*
X92119780Y-86035772D01*
X91830389Y-86468878D01*
X91728768Y-86979760D01*
X91830389Y-87490642D01*
X92083038Y-87868760D01*
X91830389Y-88246878D01*
X91728768Y-88757760D01*
X91830389Y-89268642D01*
X92083038Y-89646760D01*
X89550355Y-89646760D01*
X89336670Y-89558030D01*
X88947637Y-89557691D01*
X88732073Y-89646760D01*
X86619536Y-89646760D01*
X84419918Y-87447142D01*
X84383428Y-87422760D01*
X84131506Y-87254431D01*
X83930740Y-87214496D01*
X83930740Y-87075760D01*
X83886462Y-86840443D01*
X83747390Y-86624319D01*
X83535190Y-86479329D01*
X83283300Y-86428320D01*
X81283300Y-86428320D01*
X81047983Y-86472598D01*
X80831859Y-86611670D01*
X80686869Y-86823870D01*
X80635860Y-87075760D01*
X76644240Y-87075760D01*
X76644240Y-85201760D01*
X76599962Y-84966443D01*
X76460890Y-84750319D01*
X76455234Y-84746454D01*
X80966026Y-84746454D01*
X81214338Y-85347415D01*
X81673727Y-85807606D01*
X82274253Y-86056966D01*
X82924494Y-86057534D01*
X83525455Y-85809222D01*
X83985646Y-85349833D01*
X84235006Y-84749307D01*
X84235104Y-84636454D01*
X84776026Y-84636454D01*
X85024338Y-85237415D01*
X85483727Y-85697606D01*
X86084253Y-85946966D01*
X86734494Y-85947534D01*
X87335455Y-85699222D01*
X87795646Y-85239833D01*
X88000514Y-84746454D01*
X88586026Y-84746454D01*
X88834338Y-85347415D01*
X89293727Y-85807606D01*
X89894253Y-86056966D01*
X90544494Y-86057534D01*
X91145455Y-85809222D01*
X91605646Y-85349833D01*
X91650484Y-85241849D01*
X99530543Y-85241849D01*
X99756144Y-85787846D01*
X100173517Y-86205948D01*
X100719119Y-86432502D01*
X101309889Y-86433017D01*
X101855886Y-86207416D01*
X102107574Y-85956166D01*
X102112638Y-85983077D01*
X102251710Y-86199201D01*
X102463910Y-86344191D01*
X102715800Y-86395200D01*
X104315800Y-86395200D01*
X104551117Y-86350922D01*
X104767241Y-86211850D01*
X104912231Y-85999650D01*
X104963240Y-85747760D01*
X104963240Y-85381454D01*
X105921526Y-85381454D01*
X106169838Y-85982415D01*
X106629227Y-86442606D01*
X107229753Y-86691966D01*
X107879994Y-86692534D01*
X108480955Y-86444222D01*
X108523959Y-86401292D01*
X111409373Y-86401292D01*
X111508036Y-86668147D01*
X112117761Y-86894668D01*
X112767760Y-86870616D01*
X113256564Y-86668147D01*
X113355227Y-86401292D01*
X112382300Y-85428365D01*
X111409373Y-86401292D01*
X108523959Y-86401292D01*
X108941146Y-85984833D01*
X109190506Y-85384307D01*
X109190855Y-84984221D01*
X110736392Y-84984221D01*
X110760444Y-85634220D01*
X110962913Y-86123024D01*
X111229768Y-86221687D01*
X112202695Y-85248760D01*
X112561905Y-85248760D01*
X113534832Y-86221687D01*
X113801687Y-86123024D01*
X114028208Y-85513299D01*
X114004156Y-84863300D01*
X113801687Y-84374496D01*
X113534832Y-84275833D01*
X112561905Y-85248760D01*
X112202695Y-85248760D01*
X111229768Y-84275833D01*
X110962913Y-84374496D01*
X110736392Y-84984221D01*
X109190855Y-84984221D01*
X109191074Y-84734066D01*
X108942762Y-84133105D01*
X108905950Y-84096228D01*
X111409373Y-84096228D01*
X112382300Y-85069155D01*
X113355227Y-84096228D01*
X113256564Y-83829373D01*
X112646839Y-83602852D01*
X111996840Y-83626904D01*
X111508036Y-83829373D01*
X111409373Y-84096228D01*
X108905950Y-84096228D01*
X108483373Y-83672914D01*
X107882847Y-83423554D01*
X107232606Y-83422986D01*
X106631645Y-83671298D01*
X106171454Y-84130687D01*
X105922094Y-84731213D01*
X105921526Y-85381454D01*
X104963240Y-85381454D01*
X104963240Y-84147760D01*
X104918962Y-83912443D01*
X104779890Y-83696319D01*
X104567690Y-83551329D01*
X104315800Y-83500320D01*
X102715800Y-83500320D01*
X102480483Y-83544598D01*
X102264359Y-83683670D01*
X102119369Y-83895870D01*
X102110035Y-83941964D01*
X101858083Y-83689572D01*
X101312481Y-83463018D01*
X100721711Y-83462503D01*
X100175714Y-83688104D01*
X99757612Y-84105477D01*
X99531058Y-84651079D01*
X99530543Y-85241849D01*
X91650484Y-85241849D01*
X91855006Y-84749307D01*
X91855574Y-84099066D01*
X91607262Y-83498105D01*
X91147873Y-83037914D01*
X90547347Y-82788554D01*
X89897106Y-82787986D01*
X89296145Y-83036298D01*
X88835954Y-83495687D01*
X88586594Y-84096213D01*
X88586026Y-84746454D01*
X88000514Y-84746454D01*
X88045006Y-84639307D01*
X88045574Y-83989066D01*
X87797262Y-83388105D01*
X87337873Y-82927914D01*
X86737347Y-82678554D01*
X86087106Y-82677986D01*
X85486145Y-82926298D01*
X85025954Y-83385687D01*
X84776594Y-83986213D01*
X84776026Y-84636454D01*
X84235104Y-84636454D01*
X84235574Y-84099066D01*
X83987262Y-83498105D01*
X83527873Y-83037914D01*
X82927347Y-82788554D01*
X82277106Y-82787986D01*
X81676145Y-83036298D01*
X81215954Y-83495687D01*
X80966594Y-84096213D01*
X80966026Y-84746454D01*
X76455234Y-84746454D01*
X76311963Y-84648562D01*
X76538470Y-84309570D01*
X76664145Y-83677760D01*
X76538470Y-83045950D01*
X76180578Y-82510327D01*
X75644955Y-82152435D01*
X75013145Y-82026760D01*
X74948455Y-82026760D01*
X74316645Y-82152435D01*
X73781022Y-82510327D01*
X73594979Y-82788760D01*
X72085136Y-82788760D01*
X70904100Y-81607724D01*
X70904100Y-80814552D01*
X71925073Y-80814552D01*
X72023736Y-81081407D01*
X72633461Y-81307928D01*
X73283460Y-81283876D01*
X73772264Y-81081407D01*
X73870927Y-80814552D01*
X73798954Y-80742579D01*
X92659736Y-80742579D01*
X92677273Y-80825359D01*
X92947140Y-81318436D01*
X93385157Y-81670706D01*
X93924640Y-81828540D01*
X94274640Y-81828540D01*
X94274640Y-80520540D01*
X94528640Y-80520540D01*
X94528640Y-81828540D01*
X94878640Y-81828540D01*
X95418123Y-81670706D01*
X95856140Y-81318436D01*
X96126007Y-80825359D01*
X96143544Y-80742579D01*
X96021555Y-80520540D01*
X94528640Y-80520540D01*
X94274640Y-80520540D01*
X92781725Y-80520540D01*
X92659736Y-80742579D01*
X73798954Y-80742579D01*
X72898000Y-79841625D01*
X71925073Y-80814552D01*
X70904100Y-80814552D01*
X70904100Y-79397481D01*
X71252092Y-79397481D01*
X71276144Y-80047480D01*
X71478613Y-80536284D01*
X71745468Y-80634947D01*
X72718395Y-79662020D01*
X73077605Y-79662020D01*
X74050532Y-80634947D01*
X74317387Y-80536284D01*
X74543908Y-79926559D01*
X74519856Y-79276560D01*
X74317387Y-78787756D01*
X74050532Y-78689093D01*
X73077605Y-79662020D01*
X72718395Y-79662020D01*
X71745468Y-78689093D01*
X71478613Y-78787756D01*
X71252092Y-79397481D01*
X70904100Y-79397481D01*
X70904100Y-78509488D01*
X71925073Y-78509488D01*
X72898000Y-79482415D01*
X73870927Y-78509488D01*
X73772264Y-78242633D01*
X73162539Y-78016112D01*
X72512540Y-78040164D01*
X72023736Y-78242633D01*
X71925073Y-78509488D01*
X70904100Y-78509488D01*
X70904100Y-73733596D01*
X70975676Y-73662020D01*
X71250560Y-73662020D01*
X71250560Y-75662020D01*
X71294838Y-75897337D01*
X71433910Y-76113461D01*
X71646110Y-76258451D01*
X71898000Y-76309460D01*
X73898000Y-76309460D01*
X74133317Y-76265182D01*
X74349441Y-76126110D01*
X74494431Y-75913910D01*
X74545440Y-75662020D01*
X74545440Y-75081849D01*
X75400543Y-75081849D01*
X75626144Y-75627846D01*
X76043517Y-76045948D01*
X76589119Y-76272502D01*
X77179889Y-76273017D01*
X77725886Y-76047416D01*
X77977574Y-75796166D01*
X77982638Y-75823077D01*
X78121710Y-76039201D01*
X78333910Y-76184191D01*
X78585800Y-76235200D01*
X80185800Y-76235200D01*
X80421117Y-76190922D01*
X80637241Y-76051850D01*
X80782231Y-75839650D01*
X80801103Y-75746454D01*
X80966026Y-75746454D01*
X81214338Y-76347415D01*
X81673727Y-76807606D01*
X82274253Y-77056966D01*
X82924494Y-77057534D01*
X83525455Y-76809222D01*
X83985646Y-76349833D01*
X84235006Y-75749307D01*
X84235104Y-75636454D01*
X84776026Y-75636454D01*
X85024338Y-76237415D01*
X85483727Y-76697606D01*
X86084253Y-76946966D01*
X86734494Y-76947534D01*
X87335455Y-76699222D01*
X87795646Y-76239833D01*
X88045006Y-75639307D01*
X88045574Y-74989066D01*
X87797262Y-74388105D01*
X87337873Y-73927914D01*
X86737347Y-73678554D01*
X86087106Y-73677986D01*
X85486145Y-73926298D01*
X85025954Y-74385687D01*
X84776594Y-74986213D01*
X84776026Y-75636454D01*
X84235104Y-75636454D01*
X84235574Y-75099066D01*
X83987262Y-74498105D01*
X83527873Y-74037914D01*
X82927347Y-73788554D01*
X82277106Y-73787986D01*
X81676145Y-74036298D01*
X81215954Y-74495687D01*
X80966594Y-75096213D01*
X80966026Y-75746454D01*
X80801103Y-75746454D01*
X80833240Y-75587760D01*
X80833240Y-73987760D01*
X80788962Y-73752443D01*
X80649890Y-73536319D01*
X80437690Y-73391329D01*
X80185800Y-73340320D01*
X78585800Y-73340320D01*
X78350483Y-73384598D01*
X78134359Y-73523670D01*
X77989369Y-73735870D01*
X77980035Y-73781964D01*
X77728083Y-73529572D01*
X77182481Y-73303018D01*
X76591711Y-73302503D01*
X76045714Y-73528104D01*
X75627612Y-73945477D01*
X75401058Y-74491079D01*
X75400543Y-75081849D01*
X74545440Y-75081849D01*
X74545440Y-73662020D01*
X74501162Y-73426703D01*
X74362090Y-73210579D01*
X74149890Y-73065589D01*
X73898000Y-73014580D01*
X71898000Y-73014580D01*
X71662683Y-73058858D01*
X71446559Y-73197930D01*
X71301569Y-73410130D01*
X71250560Y-73662020D01*
X70975676Y-73662020D01*
X71945436Y-72692260D01*
X74562980Y-72692260D01*
X74903186Y-72624589D01*
X75191598Y-72431878D01*
X76377194Y-71246282D01*
X76413112Y-71261196D01*
X77063555Y-71261764D01*
X77664703Y-71013374D01*
X78125038Y-70553843D01*
X78374476Y-69953128D01*
X78375044Y-69302685D01*
X78359181Y-69264295D01*
X78368377Y-69255099D01*
X78379159Y-69238962D01*
X78479981Y-69339960D01*
X78839270Y-69489150D01*
X79228303Y-69489489D01*
X79587852Y-69340927D01*
X79863180Y-69066079D01*
X79924919Y-68917396D01*
X79936212Y-68934298D01*
X80318298Y-69189600D01*
X79936212Y-69444902D01*
X79625143Y-69910449D01*
X79515910Y-70459600D01*
X79625143Y-71008751D01*
X79936212Y-71474298D01*
X80401759Y-71785367D01*
X80950910Y-71894600D01*
X81720850Y-71894600D01*
X82270001Y-71785367D01*
X82735548Y-71474298D01*
X83046617Y-71008751D01*
X83155850Y-70459600D01*
X83046617Y-69910449D01*
X82735548Y-69444902D01*
X82353462Y-69189600D01*
X82735548Y-68934298D01*
X83046617Y-68468751D01*
X83155850Y-67919600D01*
X87135910Y-67919600D01*
X87245143Y-68468751D01*
X87556212Y-68934298D01*
X87938298Y-69189600D01*
X87556212Y-69444902D01*
X87245143Y-69910449D01*
X87135910Y-70459600D01*
X87245143Y-71008751D01*
X87556212Y-71474298D01*
X88021759Y-71785367D01*
X88570910Y-71894600D01*
X89340850Y-71894600D01*
X89890001Y-71785367D01*
X90355548Y-71474298D01*
X90666617Y-71008751D01*
X90775850Y-70459600D01*
X90666617Y-69910449D01*
X90355548Y-69444902D01*
X89973462Y-69189600D01*
X90355548Y-68934298D01*
X90393661Y-68877257D01*
X91128882Y-69612478D01*
X91417294Y-69805189D01*
X91757500Y-69872860D01*
X92052316Y-69872860D01*
X91911897Y-69966685D01*
X91814682Y-70031642D01*
X90591671Y-71254653D01*
X90398960Y-71543065D01*
X90331289Y-71883271D01*
X90331289Y-73788365D01*
X89897106Y-73787986D01*
X89296145Y-74036298D01*
X88835954Y-74495687D01*
X88586594Y-75096213D01*
X88586026Y-75746454D01*
X88834338Y-76347415D01*
X89293727Y-76807606D01*
X89894253Y-77056966D01*
X90544494Y-77057534D01*
X91145455Y-76809222D01*
X91605646Y-76349833D01*
X91855006Y-75749307D01*
X91855574Y-75099066D01*
X91839831Y-75060965D01*
X91848907Y-75051889D01*
X92021128Y-74794142D01*
X92041618Y-74763477D01*
X92109289Y-74423271D01*
X92109289Y-72251507D01*
X92811536Y-71549260D01*
X93315633Y-71549260D01*
X93001972Y-71758842D01*
X92690903Y-72224389D01*
X92581670Y-72773540D01*
X92690903Y-73322691D01*
X93001972Y-73788238D01*
X93384058Y-74043540D01*
X93001972Y-74298842D01*
X92690903Y-74764389D01*
X92581670Y-75313540D01*
X92690903Y-75862691D01*
X93001972Y-76328238D01*
X93384058Y-76583540D01*
X93001972Y-76838842D01*
X92690903Y-77304389D01*
X92581670Y-77853540D01*
X92690903Y-78402691D01*
X93001972Y-78868238D01*
X93379791Y-79120689D01*
X92947140Y-79468644D01*
X92677273Y-79961721D01*
X92659736Y-80044501D01*
X92781725Y-80266540D01*
X94274640Y-80266540D01*
X94274640Y-80246540D01*
X94528640Y-80246540D01*
X94528640Y-80266540D01*
X96021555Y-80266540D01*
X96143544Y-80044501D01*
X96126007Y-79961721D01*
X96071854Y-79862778D01*
X96206641Y-79997800D01*
X96565930Y-80146990D01*
X96954963Y-80147329D01*
X97314512Y-79998767D01*
X97589840Y-79723919D01*
X97739030Y-79364630D01*
X97739369Y-78975597D01*
X97650300Y-78760033D01*
X97650300Y-78711996D01*
X98833961Y-77528335D01*
X99156012Y-77395267D01*
X99431340Y-77120419D01*
X99580530Y-76761130D01*
X99580869Y-76372097D01*
X99432307Y-76012548D01*
X99157459Y-75737220D01*
X98798170Y-75588030D01*
X98409137Y-75587691D01*
X98049588Y-75736253D01*
X97774260Y-76011101D01*
X97729905Y-76117919D01*
X96183894Y-77663930D01*
X96112377Y-77304389D01*
X95801308Y-76838842D01*
X95419222Y-76583540D01*
X95801308Y-76328238D01*
X96112377Y-75862691D01*
X96221610Y-75313540D01*
X96112377Y-74764389D01*
X95801308Y-74298842D01*
X95419222Y-74043540D01*
X95801308Y-73788238D01*
X96112377Y-73322691D01*
X96221610Y-72773540D01*
X96112377Y-72224389D01*
X95801308Y-71758842D01*
X95335761Y-71447773D01*
X94786610Y-71338540D01*
X94735503Y-71338540D01*
X94859340Y-71214919D01*
X95008530Y-70855630D01*
X95008869Y-70466597D01*
X94860307Y-70107048D01*
X94626527Y-69872860D01*
X102452407Y-69872860D01*
X102219260Y-70105601D01*
X102070070Y-70464890D01*
X102069731Y-70853923D01*
X102218293Y-71213472D01*
X102343143Y-71338540D01*
X101636670Y-71338540D01*
X101087519Y-71447773D01*
X100621972Y-71758842D01*
X100310903Y-72224389D01*
X100201670Y-72773540D01*
X100310903Y-73322691D01*
X100621972Y-73788238D01*
X101004058Y-74043540D01*
X100621972Y-74298842D01*
X100310903Y-74764389D01*
X100201670Y-75313540D01*
X100310903Y-75862691D01*
X100621972Y-76328238D01*
X101004058Y-76583540D01*
X100621972Y-76838842D01*
X100310903Y-77304389D01*
X100201670Y-77853540D01*
X100310903Y-78402691D01*
X100621972Y-78868238D01*
X101004058Y-79123540D01*
X100621972Y-79378842D01*
X100310903Y-79844389D01*
X100201670Y-80393540D01*
X100310903Y-80942691D01*
X100621972Y-81408238D01*
X101087519Y-81719307D01*
X101636670Y-81828540D01*
X102406610Y-81828540D01*
X102955761Y-81719307D01*
X103421308Y-81408238D01*
X103732377Y-80942691D01*
X103841610Y-80393540D01*
X103732377Y-79844389D01*
X103421308Y-79378842D01*
X103226627Y-79248760D01*
X110734860Y-79248760D01*
X110734860Y-81248760D01*
X110779138Y-81484077D01*
X110918210Y-81700201D01*
X111130410Y-81845191D01*
X111382300Y-81896200D01*
X113382300Y-81896200D01*
X113617617Y-81851922D01*
X113833741Y-81712850D01*
X113978731Y-81500650D01*
X114029740Y-81248760D01*
X114029740Y-79248760D01*
X113985462Y-79013443D01*
X113846390Y-78797319D01*
X113634190Y-78652329D01*
X113382300Y-78601320D01*
X111382300Y-78601320D01*
X111146983Y-78645598D01*
X110930859Y-78784670D01*
X110785869Y-78996870D01*
X110734860Y-79248760D01*
X103226627Y-79248760D01*
X103039222Y-79123540D01*
X103421308Y-78868238D01*
X103732377Y-78402691D01*
X103841610Y-77853540D01*
X103732377Y-77304389D01*
X103421308Y-76838842D01*
X103039222Y-76583540D01*
X103341664Y-76381454D01*
X105921526Y-76381454D01*
X106169838Y-76982415D01*
X106629227Y-77442606D01*
X107229753Y-77691966D01*
X107879994Y-77692534D01*
X108480955Y-77444222D01*
X108941146Y-76984833D01*
X109190506Y-76384307D01*
X109191074Y-75734066D01*
X108942762Y-75133105D01*
X108483373Y-74672914D01*
X107882847Y-74423554D01*
X107232606Y-74422986D01*
X106631645Y-74671298D01*
X106171454Y-75130687D01*
X105922094Y-75731213D01*
X105921526Y-76381454D01*
X103341664Y-76381454D01*
X103421308Y-76328238D01*
X103732377Y-75862691D01*
X103841610Y-75313540D01*
X103732377Y-74764389D01*
X103421308Y-74298842D01*
X103039222Y-74043540D01*
X103421308Y-73788238D01*
X103732377Y-73322691D01*
X103841610Y-72773540D01*
X103732377Y-72224389D01*
X103421308Y-71758842D01*
X103240947Y-71638329D01*
X103241463Y-71638329D01*
X103457027Y-71549260D01*
X104776106Y-71549260D01*
X104779141Y-71552300D01*
X105138430Y-71701490D01*
X105527463Y-71701829D01*
X105887012Y-71553267D01*
X106162340Y-71278419D01*
X106311530Y-70919130D01*
X106311869Y-70530097D01*
X106163307Y-70170548D01*
X105888459Y-69895220D01*
X105834610Y-69872860D01*
X105968864Y-69872860D01*
X106902282Y-70806278D01*
X106995316Y-70868441D01*
X106858369Y-71068870D01*
X106807360Y-71320760D01*
X106807360Y-72920760D01*
X106851638Y-73156077D01*
X106990710Y-73372201D01*
X107202910Y-73517191D01*
X107454800Y-73568200D01*
X109054800Y-73568200D01*
X109290117Y-73523922D01*
X109506241Y-73384850D01*
X109651231Y-73172650D01*
X109690523Y-72978622D01*
X109710842Y-72985113D01*
X110575195Y-72120760D01*
X110561053Y-72106618D01*
X110740658Y-71927013D01*
X110754800Y-71941155D01*
X110768943Y-71927013D01*
X110948548Y-72106618D01*
X110934405Y-72120760D01*
X110948548Y-72134903D01*
X110768943Y-72314508D01*
X110754800Y-72300365D01*
X109890447Y-73164718D01*
X109970720Y-73416019D01*
X110526079Y-73617478D01*
X111116258Y-73591075D01*
X111538880Y-73416019D01*
X111619152Y-73164720D01*
X111733862Y-73279430D01*
X111823500Y-73189792D01*
X111823500Y-73784460D01*
X111891171Y-74124666D01*
X111954173Y-74218955D01*
X112083882Y-74413078D01*
X112979624Y-75308820D01*
X112558300Y-75308820D01*
X112322983Y-75353098D01*
X112106859Y-75492170D01*
X111961869Y-75704370D01*
X111952535Y-75750464D01*
X111700583Y-75498072D01*
X111154981Y-75271518D01*
X110564211Y-75271003D01*
X110018214Y-75496604D01*
X109600112Y-75913977D01*
X109373558Y-76459579D01*
X109373043Y-77050349D01*
X109598644Y-77596346D01*
X110016017Y-78014448D01*
X110561619Y-78241002D01*
X111152389Y-78241517D01*
X111698386Y-78015916D01*
X111950074Y-77764666D01*
X111955138Y-77791577D01*
X112094210Y-78007701D01*
X112306410Y-78152691D01*
X112558300Y-78203700D01*
X114158300Y-78203700D01*
X114393617Y-78159422D01*
X114609741Y-78020350D01*
X114754731Y-77808150D01*
X114805740Y-77556260D01*
X114805740Y-77134936D01*
X120338757Y-82667953D01*
X120320087Y-82712915D01*
X120319514Y-83369723D01*
X120570334Y-83976755D01*
X121034363Y-84441594D01*
X121640955Y-84693473D01*
X122297763Y-84694046D01*
X122904795Y-84443226D01*
X123369634Y-83979197D01*
X123621513Y-83372605D01*
X123622086Y-82715797D01*
X123371266Y-82108765D01*
X122907237Y-81643926D01*
X122300645Y-81392047D01*
X121643837Y-81391474D01*
X121596365Y-81411089D01*
X118474999Y-78289723D01*
X120319514Y-78289723D01*
X120570334Y-78896755D01*
X121034363Y-79361594D01*
X121640955Y-79613473D01*
X122297763Y-79614046D01*
X122904795Y-79363226D01*
X123369634Y-78899197D01*
X123621513Y-78292605D01*
X123622086Y-77635797D01*
X123371266Y-77028765D01*
X122907237Y-76563926D01*
X122300645Y-76312047D01*
X121643837Y-76311474D01*
X121036805Y-76562294D01*
X120571966Y-77026323D01*
X120320087Y-77632915D01*
X120319514Y-78289723D01*
X118474999Y-78289723D01*
X114771807Y-74586531D01*
X114971986Y-74579941D01*
X115501452Y-74360629D01*
X115611402Y-74084207D01*
X114571780Y-73044585D01*
X114557638Y-73058728D01*
X114378033Y-72879123D01*
X114392175Y-72864980D01*
X114751385Y-72864980D01*
X115791007Y-73904602D01*
X116067429Y-73794652D01*
X116309349Y-73151525D01*
X116308279Y-73119006D01*
X118368857Y-73119006D01*
X118563725Y-73590622D01*
X118924240Y-73951766D01*
X119395516Y-74147457D01*
X119905806Y-74147903D01*
X120377422Y-73953035D01*
X120738566Y-73592520D01*
X120921989Y-73150788D01*
X121103725Y-73590622D01*
X121464240Y-73951766D01*
X121935516Y-74147457D01*
X122445806Y-74147903D01*
X122917422Y-73953035D01*
X123278566Y-73592520D01*
X123474257Y-73121244D01*
X123474703Y-72610954D01*
X123279835Y-72139338D01*
X122919320Y-71778194D01*
X122448044Y-71582503D01*
X121937754Y-71582057D01*
X121466138Y-71776925D01*
X121104994Y-72137440D01*
X120921571Y-72579172D01*
X120739835Y-72139338D01*
X120379320Y-71778194D01*
X119908044Y-71582503D01*
X119397754Y-71582057D01*
X118926138Y-71776925D01*
X118564994Y-72137440D01*
X118369303Y-72608716D01*
X118368857Y-73119006D01*
X116308279Y-73119006D01*
X116286741Y-72464774D01*
X116067429Y-71935308D01*
X115791007Y-71825358D01*
X114751385Y-72864980D01*
X114392175Y-72864980D01*
X114378033Y-72850838D01*
X114557638Y-72671233D01*
X114571780Y-72685375D01*
X115390616Y-71866539D01*
X115501452Y-71820629D01*
X115544334Y-71712821D01*
X115611402Y-71645753D01*
X115591206Y-71594980D01*
X115611402Y-71544207D01*
X115544334Y-71477139D01*
X115501452Y-71369331D01*
X115397377Y-71330182D01*
X114571780Y-70504585D01*
X114557638Y-70518728D01*
X114378033Y-70339123D01*
X114392175Y-70324980D01*
X114751385Y-70324980D01*
X115791007Y-71364602D01*
X116067429Y-71254652D01*
X116309349Y-70611525D01*
X116286741Y-69924774D01*
X116067429Y-69395308D01*
X115791007Y-69285358D01*
X114751385Y-70324980D01*
X114392175Y-70324980D01*
X113352553Y-69285358D01*
X113076131Y-69395308D01*
X112846183Y-70006607D01*
X112388618Y-69549042D01*
X112315133Y-69499941D01*
X112100206Y-69356331D01*
X111760000Y-69288660D01*
X111334228Y-69288660D01*
X111375231Y-69228650D01*
X111426240Y-68976760D01*
X111426240Y-66976760D01*
X111381962Y-66741443D01*
X111242890Y-66525319D01*
X111030690Y-66380329D01*
X110778800Y-66329320D01*
X108778800Y-66329320D01*
X108543483Y-66373598D01*
X108327359Y-66512670D01*
X108182369Y-66724870D01*
X108131360Y-66976760D01*
X108131360Y-68976760D01*
X108175638Y-69212077D01*
X108224918Y-69288660D01*
X107899136Y-69288660D01*
X106965718Y-68355242D01*
X106822888Y-68259806D01*
X106677306Y-68162531D01*
X106337100Y-68094860D01*
X103484773Y-68094860D01*
X103729066Y-67850993D01*
X103978426Y-67250467D01*
X103978994Y-66600226D01*
X103730682Y-65999265D01*
X103271293Y-65539074D01*
X102670767Y-65289714D01*
X102020526Y-65289146D01*
X101419565Y-65537458D01*
X100959374Y-65996847D01*
X100710014Y-66597373D01*
X100709446Y-67247614D01*
X100957758Y-67848575D01*
X101203614Y-68094860D01*
X94484773Y-68094860D01*
X94729066Y-67850993D01*
X94978426Y-67250467D01*
X94978994Y-66600226D01*
X94730682Y-65999265D01*
X94271293Y-65539074D01*
X93670767Y-65289714D01*
X93020526Y-65289146D01*
X92419565Y-65537458D01*
X91959374Y-65996847D01*
X91710014Y-66597373D01*
X91709446Y-67247614D01*
X91957758Y-67848575D01*
X92203614Y-68094860D01*
X92125736Y-68094860D01*
X91321858Y-67290982D01*
X91256953Y-67247614D01*
X91033446Y-67098271D01*
X90693240Y-67030600D01*
X90439537Y-67030600D01*
X90355548Y-66904902D01*
X89977729Y-66652451D01*
X90410380Y-66304496D01*
X90680247Y-65811419D01*
X90697784Y-65728639D01*
X90575795Y-65506600D01*
X89082880Y-65506600D01*
X89082880Y-65526600D01*
X88828880Y-65526600D01*
X88828880Y-65506600D01*
X87335965Y-65506600D01*
X87213976Y-65728639D01*
X87231513Y-65811419D01*
X87501380Y-66304496D01*
X87934031Y-66652451D01*
X87556212Y-66904902D01*
X87245143Y-67370449D01*
X87135910Y-67919600D01*
X83155850Y-67919600D01*
X83046617Y-67370449D01*
X82735548Y-66904902D01*
X82353462Y-66649600D01*
X82735548Y-66394298D01*
X83046617Y-65928751D01*
X83155850Y-65379600D01*
X83046617Y-64830449D01*
X82735548Y-64364902D01*
X82353462Y-64109600D01*
X82735548Y-63854298D01*
X83046617Y-63388751D01*
X83086421Y-63188639D01*
X87213976Y-63188639D01*
X87231513Y-63271419D01*
X87501380Y-63764496D01*
X87930487Y-64109600D01*
X87501380Y-64454704D01*
X87231513Y-64947781D01*
X87213976Y-65030561D01*
X87335965Y-65252600D01*
X88828880Y-65252600D01*
X88828880Y-62966600D01*
X89082880Y-62966600D01*
X89082880Y-65252600D01*
X90575795Y-65252600D01*
X90697784Y-65030561D01*
X90680247Y-64947781D01*
X90410380Y-64454704D01*
X89981273Y-64109600D01*
X90410380Y-63764496D01*
X90680247Y-63271419D01*
X90697784Y-63188639D01*
X90598735Y-63008354D01*
X91725466Y-63008354D01*
X91973778Y-63609315D01*
X92433167Y-64069506D01*
X93033693Y-64318866D01*
X93683934Y-64319434D01*
X94284895Y-64071122D01*
X94745086Y-63611733D01*
X94994446Y-63011207D01*
X94994448Y-63008354D01*
X100725466Y-63008354D01*
X100973778Y-63609315D01*
X101433167Y-64069506D01*
X102033693Y-64318866D01*
X102683934Y-64319434D01*
X103284895Y-64071122D01*
X103745086Y-63611733D01*
X103874298Y-63300555D01*
X108143516Y-63300555D01*
X108391906Y-63901703D01*
X108851437Y-64362038D01*
X109452152Y-64611476D01*
X110102595Y-64612044D01*
X110703743Y-64363654D01*
X111164078Y-63904123D01*
X111413516Y-63303408D01*
X111413739Y-63047034D01*
X112844281Y-63047034D01*
X113106677Y-63682082D01*
X113399149Y-63975065D01*
X113108385Y-64265322D01*
X112844880Y-64899911D01*
X112844281Y-65587034D01*
X113106677Y-66222082D01*
X113592122Y-66708375D01*
X113763416Y-66779503D01*
X113484994Y-67057440D01*
X113289303Y-67528716D01*
X113288857Y-68039006D01*
X113483725Y-68510622D01*
X113755141Y-68782511D01*
X113642108Y-68829331D01*
X113532158Y-69105753D01*
X114571780Y-70145375D01*
X115611402Y-69105753D01*
X115571011Y-69004207D01*
X118612158Y-69004207D01*
X118722108Y-69280629D01*
X119365235Y-69522549D01*
X120051986Y-69499941D01*
X120581452Y-69280629D01*
X120691402Y-69004207D01*
X119651780Y-67964585D01*
X118612158Y-69004207D01*
X115571011Y-69004207D01*
X115501452Y-68829331D01*
X115385061Y-68785549D01*
X115658566Y-68512520D01*
X115854257Y-68041244D01*
X115854703Y-67530954D01*
X115841267Y-67498435D01*
X117914211Y-67498435D01*
X117936819Y-68185186D01*
X118156131Y-68714652D01*
X118432553Y-68824602D01*
X119472175Y-67784980D01*
X119831385Y-67784980D01*
X120871007Y-68824602D01*
X121147429Y-68714652D01*
X121389349Y-68071525D01*
X121366741Y-67384774D01*
X121147429Y-66855308D01*
X120871007Y-66745358D01*
X119831385Y-67784980D01*
X119472175Y-67784980D01*
X118432553Y-66745358D01*
X118156131Y-66855308D01*
X117914211Y-67498435D01*
X115841267Y-67498435D01*
X115659835Y-67059338D01*
X115380600Y-66779616D01*
X115548882Y-66710083D01*
X115693464Y-66565753D01*
X118612158Y-66565753D01*
X119651780Y-67605375D01*
X120691402Y-66565753D01*
X120581452Y-66289331D01*
X119938325Y-66047411D01*
X119251574Y-66070019D01*
X118722108Y-66289331D01*
X118612158Y-66565753D01*
X115693464Y-66565753D01*
X116035175Y-66224638D01*
X116298680Y-65590049D01*
X116299279Y-64902926D01*
X116036883Y-64267878D01*
X115744411Y-63974895D01*
X116035175Y-63684638D01*
X116298680Y-63050049D01*
X116298759Y-62959006D01*
X118368857Y-62959006D01*
X118563725Y-63430622D01*
X118924240Y-63791766D01*
X119395516Y-63987457D01*
X119905806Y-63987903D01*
X120377422Y-63793035D01*
X120738566Y-63432520D01*
X120921989Y-62990788D01*
X121103725Y-63430622D01*
X121464240Y-63791766D01*
X121935516Y-63987457D01*
X122445806Y-63987903D01*
X122917422Y-63793035D01*
X123278566Y-63432520D01*
X123474257Y-62961244D01*
X123474703Y-62450954D01*
X123279835Y-61979338D01*
X122919320Y-61618194D01*
X122448044Y-61422503D01*
X121937754Y-61422057D01*
X121466138Y-61616925D01*
X121104994Y-61977440D01*
X120921571Y-62419172D01*
X120739835Y-61979338D01*
X120379320Y-61618194D01*
X119908044Y-61422503D01*
X119397754Y-61422057D01*
X118926138Y-61616925D01*
X118564994Y-61977440D01*
X118369303Y-62448716D01*
X118368857Y-62959006D01*
X116298759Y-62959006D01*
X116299279Y-62362926D01*
X116036883Y-61727878D01*
X115551438Y-61241585D01*
X114916849Y-60978080D01*
X114229726Y-60977481D01*
X113594678Y-61239877D01*
X113108385Y-61725322D01*
X112844880Y-62359911D01*
X112844281Y-63047034D01*
X111413739Y-63047034D01*
X111414084Y-62652965D01*
X111165694Y-62051817D01*
X110706163Y-61591482D01*
X110105448Y-61342044D01*
X109455005Y-61341476D01*
X108853857Y-61589866D01*
X108393522Y-62049397D01*
X108144084Y-62650112D01*
X108143516Y-63300555D01*
X103874298Y-63300555D01*
X103994446Y-63011207D01*
X103995014Y-62360966D01*
X103746702Y-61760005D01*
X103287313Y-61299814D01*
X102686787Y-61050454D01*
X102036546Y-61049886D01*
X101435585Y-61298198D01*
X100975394Y-61757587D01*
X100726034Y-62358113D01*
X100725466Y-63008354D01*
X94994448Y-63008354D01*
X94995014Y-62360966D01*
X94746702Y-61760005D01*
X94287313Y-61299814D01*
X93686787Y-61050454D01*
X93036546Y-61049886D01*
X92435585Y-61298198D01*
X91975394Y-61757587D01*
X91726034Y-62358113D01*
X91725466Y-63008354D01*
X90598735Y-63008354D01*
X90575795Y-62966600D01*
X89082880Y-62966600D01*
X88828880Y-62966600D01*
X87335965Y-62966600D01*
X87213976Y-63188639D01*
X83086421Y-63188639D01*
X83155850Y-62839600D01*
X83086422Y-62490561D01*
X87213976Y-62490561D01*
X87335965Y-62712600D01*
X88828880Y-62712600D01*
X88828880Y-61404600D01*
X89082880Y-61404600D01*
X89082880Y-62712600D01*
X90575795Y-62712600D01*
X90697784Y-62490561D01*
X90680247Y-62407781D01*
X90410380Y-61914704D01*
X89972363Y-61562434D01*
X89432880Y-61404600D01*
X89082880Y-61404600D01*
X88828880Y-61404600D01*
X88478880Y-61404600D01*
X87939397Y-61562434D01*
X87501380Y-61914704D01*
X87231513Y-62407781D01*
X87213976Y-62490561D01*
X83086422Y-62490561D01*
X83046617Y-62290449D01*
X82735548Y-61824902D01*
X82270001Y-61513833D01*
X81720850Y-61404600D01*
X80950910Y-61404600D01*
X80401759Y-61513833D01*
X79936212Y-61824902D01*
X79625143Y-62290449D01*
X79515910Y-62839600D01*
X79625143Y-63388751D01*
X79936212Y-63854298D01*
X80318298Y-64109600D01*
X79936212Y-64364902D01*
X79914300Y-64397696D01*
X79909867Y-64386968D01*
X79635019Y-64111640D01*
X79275730Y-63962450D01*
X78886697Y-63962111D01*
X78628759Y-64068688D01*
X78628759Y-62143529D01*
X80579418Y-60192870D01*
X80772129Y-59904458D01*
X80839800Y-59564252D01*
X80839800Y-59551954D01*
X80875455Y-59537222D01*
X81335646Y-59077833D01*
X81585006Y-58477307D01*
X81585008Y-58474454D01*
X87316026Y-58474454D01*
X87564338Y-59075415D01*
X88023727Y-59535606D01*
X88624253Y-59784966D01*
X89274494Y-59785534D01*
X89875455Y-59537222D01*
X90222547Y-59190734D01*
X91768646Y-59190734D01*
X92016958Y-59791695D01*
X92476347Y-60251886D01*
X93076873Y-60501246D01*
X93727114Y-60501814D01*
X94328075Y-60253502D01*
X94788266Y-59794113D01*
X95037626Y-59193587D01*
X95037628Y-59190734D01*
X100768646Y-59190734D01*
X101016958Y-59791695D01*
X101476347Y-60251886D01*
X102076873Y-60501246D01*
X102727114Y-60501814D01*
X103328075Y-60253502D01*
X103788266Y-59794113D01*
X104037626Y-59193587D01*
X104038194Y-58543346D01*
X103789882Y-57942385D01*
X103330493Y-57482194D01*
X102729967Y-57232834D01*
X102079726Y-57232266D01*
X101478765Y-57480578D01*
X101018574Y-57939967D01*
X100769214Y-58540493D01*
X100768646Y-59190734D01*
X95037628Y-59190734D01*
X95038194Y-58543346D01*
X94789882Y-57942385D01*
X94330493Y-57482194D01*
X93729967Y-57232834D01*
X93079726Y-57232266D01*
X92478765Y-57480578D01*
X92018574Y-57939967D01*
X91769214Y-58540493D01*
X91768646Y-59190734D01*
X90222547Y-59190734D01*
X90335646Y-59077833D01*
X90585006Y-58477307D01*
X90585574Y-57827066D01*
X90337262Y-57226105D01*
X89877873Y-56765914D01*
X89277347Y-56516554D01*
X88627106Y-56515986D01*
X88026145Y-56764298D01*
X87565954Y-57223687D01*
X87316594Y-57824213D01*
X87316026Y-58474454D01*
X81585008Y-58474454D01*
X81585574Y-57827066D01*
X81337262Y-57226105D01*
X80877873Y-56765914D01*
X80277347Y-56516554D01*
X79627106Y-56515986D01*
X79026145Y-56764298D01*
X78565954Y-57223687D01*
X78316594Y-57824213D01*
X78316026Y-58474454D01*
X78564338Y-59075415D01*
X78873100Y-59384716D01*
X77111141Y-61146675D01*
X76918430Y-61435087D01*
X76850759Y-61775293D01*
X76850759Y-63267924D01*
X76606300Y-63218420D01*
X75006300Y-63218420D01*
X74770983Y-63262698D01*
X74554859Y-63401770D01*
X74409869Y-63613970D01*
X74370577Y-63807998D01*
X74350258Y-63801507D01*
X73485905Y-64665860D01*
X74350258Y-65530213D01*
X74369795Y-65523972D01*
X74403138Y-65701177D01*
X74542210Y-65917301D01*
X74754410Y-66062291D01*
X75006300Y-66113300D01*
X76606300Y-66113300D01*
X76841617Y-66069022D01*
X76850759Y-66063139D01*
X76850759Y-67991576D01*
X76415965Y-67991196D01*
X75814817Y-68239586D01*
X75354482Y-68699117D01*
X75105044Y-69299832D01*
X75104476Y-69950275D01*
X75120339Y-69988665D01*
X74194744Y-70914260D01*
X73311668Y-70914260D01*
X73336191Y-70878370D01*
X73387200Y-70626480D01*
X73387200Y-68626480D01*
X73342922Y-68391163D01*
X73203850Y-68175039D01*
X72991650Y-68030049D01*
X72739760Y-67979040D01*
X70739760Y-67979040D01*
X70504443Y-68023318D01*
X70288319Y-68162390D01*
X70143329Y-68374590D01*
X70092320Y-68626480D01*
X70092320Y-70626480D01*
X70136598Y-70861797D01*
X70275670Y-71077921D01*
X70487870Y-71222911D01*
X70739760Y-71273920D01*
X70849304Y-71273920D01*
X69386482Y-72736742D01*
X69342000Y-72803314D01*
X69342000Y-65709818D01*
X72441947Y-65709818D01*
X72522220Y-65961119D01*
X73077579Y-66162578D01*
X73667758Y-66136175D01*
X74090380Y-65961119D01*
X74170653Y-65709818D01*
X73306300Y-64845465D01*
X72441947Y-65709818D01*
X69342000Y-65709818D01*
X69342000Y-64437139D01*
X71809582Y-64437139D01*
X71835985Y-65027318D01*
X72011041Y-65449940D01*
X72262342Y-65530213D01*
X73126695Y-64665860D01*
X72262342Y-63801507D01*
X72011041Y-63881780D01*
X71809582Y-64437139D01*
X69342000Y-64437139D01*
X69342000Y-63621902D01*
X72441947Y-63621902D01*
X73306300Y-64486255D01*
X74170653Y-63621902D01*
X74090380Y-63370601D01*
X73535021Y-63169142D01*
X72944842Y-63195545D01*
X72522220Y-63370601D01*
X72441947Y-63621902D01*
X69342000Y-63621902D01*
X69342000Y-59088728D01*
X70851800Y-59088728D01*
X70851800Y-59752792D01*
X70953421Y-60263674D01*
X71242812Y-60696780D01*
X71675918Y-60986171D01*
X72186800Y-61087792D01*
X72697682Y-60986171D01*
X73087242Y-60725876D01*
X73110615Y-60754550D01*
X73571250Y-61002740D01*
X73631471Y-61013476D01*
X73837800Y-60890134D01*
X73837800Y-59547760D01*
X74091800Y-59547760D01*
X74091800Y-60890134D01*
X74298129Y-61013476D01*
X74358350Y-61002740D01*
X74818985Y-60754550D01*
X74853800Y-60711839D01*
X74888615Y-60754550D01*
X75349250Y-61002740D01*
X75409471Y-61013476D01*
X75615800Y-60890134D01*
X75615800Y-59547760D01*
X75869800Y-59547760D01*
X75869800Y-60890134D01*
X76076129Y-61013476D01*
X76136350Y-61002740D01*
X76596985Y-60754550D01*
X76927578Y-60348975D01*
X77077800Y-59847760D01*
X77077800Y-59547760D01*
X75869800Y-59547760D01*
X75615800Y-59547760D01*
X74091800Y-59547760D01*
X73837800Y-59547760D01*
X73817800Y-59547760D01*
X73817800Y-59293760D01*
X73837800Y-59293760D01*
X73837800Y-57951386D01*
X74091800Y-57951386D01*
X74091800Y-59293760D01*
X75615800Y-59293760D01*
X75615800Y-57951386D01*
X75869800Y-57951386D01*
X75869800Y-59293760D01*
X77077800Y-59293760D01*
X77077800Y-58993760D01*
X76927578Y-58492545D01*
X76596985Y-58086970D01*
X76136350Y-57838780D01*
X76076129Y-57828044D01*
X75869800Y-57951386D01*
X75615800Y-57951386D01*
X75409471Y-57828044D01*
X75349250Y-57838780D01*
X74888615Y-58086970D01*
X74853800Y-58129681D01*
X74818985Y-58086970D01*
X74358350Y-57838780D01*
X74298129Y-57828044D01*
X74091800Y-57951386D01*
X73837800Y-57951386D01*
X73631471Y-57828044D01*
X73571250Y-57838780D01*
X73110615Y-58086970D01*
X73087242Y-58115644D01*
X72697682Y-57855349D01*
X72186800Y-57753728D01*
X71675918Y-57855349D01*
X71242812Y-58144740D01*
X70953421Y-58577846D01*
X70851800Y-59088728D01*
X69342000Y-59088728D01*
X69342000Y-56353983D01*
X92430863Y-56353983D01*
X92529462Y-56620785D01*
X93139002Y-56847221D01*
X93788797Y-56823161D01*
X94277378Y-56620785D01*
X94375977Y-56353983D01*
X93403420Y-55381425D01*
X92430863Y-56353983D01*
X69342000Y-56353983D01*
X69342000Y-54156555D01*
X70043516Y-54156555D01*
X70291906Y-54757703D01*
X70751437Y-55218038D01*
X71352152Y-55467476D01*
X72002595Y-55468044D01*
X72603743Y-55219654D01*
X73064078Y-54760123D01*
X73313516Y-54159408D01*
X73314084Y-53508965D01*
X73065694Y-52907817D01*
X72990769Y-52832760D01*
X75031360Y-52832760D01*
X75031360Y-54832760D01*
X75075638Y-55068077D01*
X75214710Y-55284201D01*
X75426910Y-55429191D01*
X75678800Y-55480200D01*
X77678800Y-55480200D01*
X77914117Y-55435922D01*
X78130241Y-55296850D01*
X78275231Y-55084650D01*
X78326240Y-54832760D01*
X78326240Y-54456174D01*
X78431106Y-54456174D01*
X78679418Y-55057135D01*
X79138807Y-55517326D01*
X79739333Y-55766686D01*
X80389574Y-55767254D01*
X80990535Y-55518942D01*
X81450726Y-55059553D01*
X81700086Y-54459027D01*
X81700088Y-54456174D01*
X87431106Y-54456174D01*
X87679418Y-55057135D01*
X88138807Y-55517326D01*
X88739333Y-55766686D01*
X89389574Y-55767254D01*
X89990535Y-55518942D01*
X90450726Y-55059553D01*
X90501447Y-54937402D01*
X91758019Y-54937402D01*
X91782079Y-55587197D01*
X91984455Y-56075778D01*
X92251257Y-56174377D01*
X93223815Y-55201820D01*
X93583025Y-55201820D01*
X94555583Y-56174377D01*
X94822385Y-56075778D01*
X95026800Y-55525514D01*
X100768646Y-55525514D01*
X101016958Y-56126475D01*
X101476347Y-56586666D01*
X102076873Y-56836026D01*
X102727114Y-56836594D01*
X103328075Y-56588282D01*
X103788266Y-56128893D01*
X103910599Y-55834280D01*
X104925535Y-55834280D01*
X105051210Y-56466090D01*
X105409102Y-57001713D01*
X105944725Y-57359605D01*
X106576535Y-57485280D01*
X106641225Y-57485280D01*
X106985129Y-57416873D01*
X112046254Y-57416873D01*
X112126631Y-57714250D01*
X112602445Y-58515549D01*
X113348684Y-59073767D01*
X114251740Y-59303920D01*
X116001800Y-59303920D01*
X116001800Y-57045860D01*
X116255800Y-57045860D01*
X116255800Y-59303920D01*
X118005860Y-59303920D01*
X118908916Y-59073767D01*
X119655155Y-58515549D01*
X120130969Y-57714250D01*
X120211346Y-57416873D01*
X120101545Y-57045860D01*
X116255800Y-57045860D01*
X116001800Y-57045860D01*
X112156055Y-57045860D01*
X112046254Y-57416873D01*
X106985129Y-57416873D01*
X107273035Y-57359605D01*
X107808658Y-57001713D01*
X108166550Y-56466090D01*
X108175549Y-56420847D01*
X112046254Y-56420847D01*
X112156055Y-56791860D01*
X116001800Y-56791860D01*
X116001800Y-54533800D01*
X116255800Y-54533800D01*
X116255800Y-56791860D01*
X120101545Y-56791860D01*
X120211346Y-56420847D01*
X120130969Y-56123470D01*
X119655155Y-55322171D01*
X118908916Y-54763953D01*
X118005860Y-54533800D01*
X116255800Y-54533800D01*
X116001800Y-54533800D01*
X114251740Y-54533800D01*
X113348684Y-54763953D01*
X112602445Y-55322171D01*
X112126631Y-56123470D01*
X112046254Y-56420847D01*
X108175549Y-56420847D01*
X108292225Y-55834280D01*
X108166550Y-55202470D01*
X107939381Y-54862488D01*
X108076321Y-54774370D01*
X108221311Y-54562170D01*
X108272320Y-54310280D01*
X108272320Y-52278280D01*
X108228042Y-52042963D01*
X108088970Y-51826839D01*
X108076825Y-51818540D01*
X109942537Y-51818540D01*
X110051777Y-52367729D01*
X110362868Y-52833309D01*
X110828448Y-53144400D01*
X111377637Y-53253640D01*
X112350643Y-53253640D01*
X112899832Y-53144400D01*
X113365412Y-52833309D01*
X113676503Y-52367729D01*
X113785743Y-51818540D01*
X113676503Y-51269351D01*
X113365412Y-50803771D01*
X113014221Y-50569112D01*
X113418292Y-50244147D01*
X113688181Y-49751037D01*
X113705723Y-49668235D01*
X113583736Y-49446180D01*
X111991140Y-49446180D01*
X111991140Y-49466180D01*
X111737140Y-49466180D01*
X111737140Y-49446180D01*
X110144544Y-49446180D01*
X110022557Y-49668235D01*
X110040099Y-49751037D01*
X110309988Y-50244147D01*
X110714059Y-50569112D01*
X110362868Y-50803771D01*
X110051777Y-51269351D01*
X109942537Y-51818540D01*
X108076825Y-51818540D01*
X107876770Y-51681849D01*
X107624880Y-51630840D01*
X105592880Y-51630840D01*
X105357563Y-51675118D01*
X105141439Y-51814190D01*
X104996449Y-52026390D01*
X104945440Y-52278280D01*
X104945440Y-54310280D01*
X104989718Y-54545597D01*
X105128790Y-54761721D01*
X105277717Y-54863478D01*
X105051210Y-55202470D01*
X104925535Y-55834280D01*
X103910599Y-55834280D01*
X104037626Y-55528367D01*
X104038194Y-54878126D01*
X103789882Y-54277165D01*
X103330493Y-53816974D01*
X102729967Y-53567614D01*
X102079726Y-53567046D01*
X101478765Y-53815358D01*
X101018574Y-54274747D01*
X100769214Y-54875273D01*
X100768646Y-55525514D01*
X95026800Y-55525514D01*
X95048821Y-55466238D01*
X95024761Y-54816443D01*
X94822385Y-54327862D01*
X94555583Y-54229263D01*
X93583025Y-55201820D01*
X93223815Y-55201820D01*
X92251257Y-54229263D01*
X91984455Y-54327862D01*
X91758019Y-54937402D01*
X90501447Y-54937402D01*
X90700086Y-54459027D01*
X90700443Y-54049657D01*
X92430863Y-54049657D01*
X93403420Y-55022215D01*
X94375977Y-54049657D01*
X94277378Y-53782855D01*
X93667838Y-53556419D01*
X93018043Y-53580479D01*
X92529462Y-53782855D01*
X92430863Y-54049657D01*
X90700443Y-54049657D01*
X90700654Y-53808786D01*
X90452342Y-53207825D01*
X89992953Y-52747634D01*
X89392427Y-52498274D01*
X88742186Y-52497706D01*
X88141225Y-52746018D01*
X87681034Y-53205407D01*
X87431674Y-53805933D01*
X87431106Y-54456174D01*
X81700088Y-54456174D01*
X81700654Y-53808786D01*
X81452342Y-53207825D01*
X80992953Y-52747634D01*
X80392427Y-52498274D01*
X79742186Y-52497706D01*
X79141225Y-52746018D01*
X78681034Y-53205407D01*
X78431674Y-53805933D01*
X78431106Y-54456174D01*
X78326240Y-54456174D01*
X78326240Y-52832760D01*
X78281962Y-52597443D01*
X78142890Y-52381319D01*
X77930690Y-52236329D01*
X77678800Y-52185320D01*
X75678800Y-52185320D01*
X75443483Y-52229598D01*
X75227359Y-52368670D01*
X75082369Y-52580870D01*
X75031360Y-52832760D01*
X72990769Y-52832760D01*
X72606163Y-52447482D01*
X72005448Y-52198044D01*
X71355005Y-52197476D01*
X70753857Y-52445866D01*
X70293522Y-52905397D01*
X70044084Y-53506112D01*
X70043516Y-54156555D01*
X69342000Y-54156555D01*
X69342000Y-44383960D01*
X73001021Y-44383960D01*
X71937285Y-44823487D01*
D34*
X103174800Y-99971860D03*
X105333800Y-70723760D03*
X103047800Y-70660260D03*
X94030800Y-70660260D03*
X98602800Y-76565760D03*
X96761300Y-79169260D03*
X89141300Y-90535760D03*
X79034640Y-68511420D03*
X79080360Y-64940180D03*
D35*
X88955880Y-70459600D03*
X88955880Y-67919600D03*
X88955880Y-65379600D03*
X88955880Y-62839600D03*
X81335880Y-62839600D03*
X81335880Y-65379600D03*
X81335880Y-67919600D03*
X81335880Y-70459600D03*
X74980800Y-86217760D03*
X74980800Y-83677760D03*
X90347800Y-111918260D03*
X90347800Y-102918260D03*
X80065880Y-54132480D03*
X89065880Y-54132480D03*
X79385800Y-74787760D03*
X76885800Y-74787760D03*
X103515800Y-84947760D03*
X101015800Y-84947760D03*
X113358300Y-76756260D03*
X110858300Y-76756260D03*
X108254800Y-72120760D03*
X110754800Y-72120760D03*
X92760800Y-93837760D03*
X95260800Y-93837760D03*
X89339420Y-119364760D03*
X86799420Y-119364760D03*
X106608880Y-53294280D03*
X106608880Y-55834280D03*
X93395800Y-88757760D03*
X93395800Y-90535760D03*
X93395800Y-86979760D03*
X73964800Y-59420760D03*
X72186800Y-59420760D03*
X75742800Y-59420760D03*
X88950800Y-58150760D03*
X79950800Y-58150760D03*
X93344220Y-66923920D03*
X102344220Y-66923920D03*
X82600800Y-75422760D03*
X82600800Y-84422760D03*
X79966040Y-46459140D03*
X88966040Y-46459140D03*
X102403420Y-55201820D03*
X93403420Y-55201820D03*
X93360240Y-62684660D03*
X102360240Y-62684660D03*
X73710800Y-47482760D03*
X73710800Y-119872760D03*
X105460800Y-47482760D03*
X107556300Y-76057760D03*
X107556300Y-85057760D03*
X102403420Y-58867040D03*
X93403420Y-58867040D03*
X90220800Y-84422760D03*
X90220800Y-75422760D03*
X86855300Y-102791260D03*
X86855300Y-111791260D03*
X86410800Y-84312760D03*
X86410800Y-75312760D03*
X78219300Y-98282760D03*
X78219300Y-100060760D03*
X78219300Y-96504760D03*
X88950800Y-50276760D03*
X79950800Y-50276760D03*
X79171800Y-119745760D03*
X81711800Y-119745760D03*
X82283300Y-88075760D03*
X82283300Y-93075760D03*
X94401640Y-72773540D03*
X94401640Y-75313540D03*
X94401640Y-77853540D03*
X94401640Y-80393540D03*
X102021640Y-80393540D03*
X102021640Y-77853540D03*
X102021640Y-75313540D03*
X102021640Y-72773540D03*
X121970800Y-77962760D03*
X121970800Y-83042760D03*
X121970800Y-88122760D03*
X94066360Y-107947460D03*
X94066360Y-97787460D03*
X94030800Y-122412760D03*
X94030800Y-112252760D03*
X76869300Y-91107260D03*
X71869300Y-91107260D03*
X72898000Y-74662020D03*
X72898000Y-79662020D03*
X109778800Y-67976760D03*
X109778800Y-62976760D03*
X112382300Y-80248760D03*
X112382300Y-85248760D03*
X71739760Y-69626480D03*
X76739760Y-69626480D03*
X76678800Y-53832760D03*
X71678800Y-53832760D03*
X72948800Y-96013260D03*
X72948800Y-101013260D03*
X82283300Y-108252260D03*
X76283820Y-108252260D03*
X79283560Y-112951260D03*
X101523800Y-115095020D03*
X101523800Y-121094500D03*
X106222800Y-118094760D03*
X114571780Y-72864980D03*
X114571780Y-70324980D03*
X114571780Y-67784980D03*
X114571780Y-65244980D03*
X114571780Y-62704980D03*
X119651780Y-67784980D03*
X119651780Y-72864980D03*
X122191780Y-72864980D03*
X119651780Y-62704980D03*
X122191780Y-62704980D03*
X116154200Y-111472980D03*
X116154200Y-121671080D03*
X111889540Y-116570760D03*
X111889540Y-114071400D03*
X116128800Y-46720760D03*
X116128800Y-56918860D03*
X111864140Y-51818540D03*
X111864140Y-49319180D03*
X116154200Y-94454980D03*
X116154200Y-104653080D03*
X111889540Y-99552760D03*
X111889540Y-97053400D03*
X103174800Y-110157260D03*
X100634800Y-110157260D03*
X105714800Y-110157260D03*
X75806300Y-64665860D03*
X73306300Y-64665860D03*
X113993300Y-89430860D03*
X111493300Y-89430860D03*
M02*
