G04 This is an RS-274x file exported by *
G04 gerbv version 2.6.0 *
G04 More information is available about gerbv at *
G04 http://gerbv.gpleda.org/ *
G04 --End of header info--*
%MOIN*%
%FSLAX34Y34*%
%IPPOS*%
G04 --Define apertures--*
%ADD10C,0.0138*%
%ADD11C,0.0060*%
%ADD12C,0.0020*%
%ADD13C,0.0100*%
%ADD14C,0.0020*%
%ADD15C,0.0016*%
%ADD16C,0.0059*%
G04 --Start main section--*
G54D11*
G01X0027020Y-017194D02*
G01X0049020Y-017194D01*
G01X0027020Y-049194D02*
G01X0027020Y-017194D01*
G01X0049020Y-049194D02*
G01X0027020Y-049194D01*
G01X0049020Y-017194D02*
G01X0049020Y-049194D01*
G54D12*
G01X0031380Y-028724D02*
G01X0035613Y-028724D01*
G01X0031380Y-023705D02*
G01X0031380Y-028724D01*
G01X0031479Y-023705D02*
G01X0031380Y-023705D01*
G01X0035613Y-023705D02*
G01X0031479Y-023705D01*
G01X0035613Y-028724D02*
G01X0035613Y-023705D01*
G54D13*
G01X0035161Y-027740D02*
G75*
G03X0035161Y-027740I-000139J0000000D01*
G54D14*
G01X0030819Y-034653D02*
G01X0028221Y-034653D01*
G01X0030819Y-034653D02*
G01X0030819Y-032251D01*
G01X0028221Y-034653D02*
G01X0028221Y-032251D01*
G01X0030819Y-032251D02*
G01X0028221Y-032251D01*
G54D12*
G01X0034970Y-039962D02*
G01X0034970Y-044562D01*
G01X0036161Y-039962D02*
G01X0034979Y-039962D01*
G01X0036170Y-044562D02*
G01X0036170Y-039962D01*
G01X0034970Y-044562D02*
G01X0036170Y-044562D01*
G01X0035622Y-020712D02*
G01X0031022Y-020712D01*
G01X0035622Y-021903D02*
G01X0035622Y-020721D01*
G01X0031022Y-021912D02*
G01X0035622Y-021912D01*
G01X0031022Y-020712D02*
G01X0031022Y-021912D01*
G54D14*
G01X0031609Y-030035D02*
G01X0029916Y-030035D01*
G01X0031609Y-028853D02*
G01X0031609Y-030035D01*
G01X0029916Y-028853D02*
G01X0031609Y-028853D01*
G01X0029916Y-030035D02*
G01X0029916Y-028853D01*
G01X0041109Y-034035D02*
G01X0039416Y-034035D01*
G01X0041109Y-032853D02*
G01X0041109Y-034035D01*
G01X0039416Y-032853D02*
G01X0041109Y-032853D01*
G01X0039416Y-034035D02*
G01X0039416Y-032853D01*
G01X0044984Y-030810D02*
G01X0043291Y-030810D01*
G01X0044984Y-029628D02*
G01X0044984Y-030810D01*
G01X0043291Y-029628D02*
G01X0044984Y-029628D01*
G01X0043291Y-030810D02*
G01X0043291Y-029628D01*
G01X0042266Y-027803D02*
G01X0043959Y-027803D01*
G01X0042266Y-028985D02*
G01X0042266Y-027803D01*
G01X0043959Y-028985D02*
G01X0042266Y-028985D01*
G01X0043959Y-027803D02*
G01X0043959Y-028985D01*
G01X0036166Y-036353D02*
G01X0037859Y-036353D01*
G01X0036166Y-037535D02*
G01X0036166Y-036353D01*
G01X0037859Y-037535D02*
G01X0036166Y-037535D01*
G01X0037859Y-036353D02*
G01X0037859Y-037535D01*
G01X0035882Y-045695D02*
G01X0035882Y-048293D01*
G01X0035882Y-045695D02*
G01X0033480Y-045695D01*
G01X0035882Y-048293D02*
G01X0033480Y-048293D01*
G01X0033480Y-045695D02*
G01X0033480Y-048293D01*
G01X0042661Y-022655D02*
G01X0042661Y-020293D01*
G01X0042661Y-022655D02*
G01X0041283Y-022655D01*
G01X0041283Y-020293D02*
G01X0041283Y-022655D01*
G01X0042661Y-020293D02*
G01X0041283Y-020293D01*
G54D15*
G01X0036095Y-035609D02*
G75*
G03X0036100Y-034274I0000675J0000665D01*
G01X0036100Y-034274D02*
G01X0036100Y-035604D01*
G01X0028455Y-022719D02*
G75*
G03X0029790Y-022724I0000665J-000675D01*
G01X0029790Y-022724D02*
G01X0028460Y-022724D01*
G54D12*
G01X0030920Y-023494D02*
G01X0035520Y-023494D01*
G01X0030920Y-022303D02*
G01X0030920Y-023485D01*
G01X0035520Y-022294D02*
G01X0030920Y-022294D01*
G01X0035520Y-023494D02*
G01X0035520Y-022294D01*
G01X0040850Y-025748D02*
G01X0036250Y-025748D01*
G01X0040850Y-026939D02*
G01X0040850Y-025757D01*
G01X0036250Y-026948D02*
G01X0040850Y-026948D01*
G01X0036250Y-025748D02*
G01X0036250Y-026948D01*
G01X0033120Y-033794D02*
G01X0033120Y-029194D01*
G01X0031929Y-033794D02*
G01X0033111Y-033794D01*
G01X0031920Y-029194D02*
G01X0031920Y-033794D01*
G01X0033120Y-029194D02*
G01X0031920Y-029194D01*
G01X0035583Y-017691D02*
G01X0030983Y-017691D01*
G01X0035583Y-018882D02*
G01X0035583Y-017700D01*
G01X0030983Y-018891D02*
G01X0035583Y-018891D01*
G01X0030983Y-017691D02*
G01X0030983Y-018891D01*
G01X0036216Y-022333D02*
G01X0040816Y-022333D01*
G01X0036216Y-021142D02*
G01X0036216Y-022324D01*
G01X0040816Y-021133D02*
G01X0036216Y-021133D01*
G01X0040816Y-022333D02*
G01X0040816Y-021133D01*
G01X0040856Y-024079D02*
G01X0036256Y-024079D01*
G01X0040856Y-025270D02*
G01X0040856Y-024088D01*
G01X0036256Y-025279D02*
G01X0040856Y-025279D01*
G01X0036256Y-024079D02*
G01X0036256Y-025279D01*
G54D15*
G01X0030138Y-018694D02*
G75*
G03X0030138Y-018694I-001118J0000000D01*
G01X0030138Y-047194D02*
G75*
G03X0030138Y-047194I-001118J0000000D01*
G01X0042638Y-018694D02*
G75*
G03X0042638Y-018694I-001118J0000000D01*
G54D12*
G01X0042945Y-034044D02*
G01X0042945Y-029444D01*
G01X0041754Y-034044D02*
G01X0042936Y-034044D01*
G01X0041745Y-029444D02*
G01X0041745Y-034044D01*
G01X0042945Y-029444D02*
G01X0041745Y-029444D01*
G01X0036216Y-023776D02*
G01X0040816Y-023776D01*
G01X0036216Y-022585D02*
G01X0036216Y-023767D01*
G01X0040816Y-022576D02*
G01X0036216Y-022576D01*
G01X0040816Y-023776D02*
G01X0040816Y-022576D01*
G01X0034920Y-029137D02*
G01X0034920Y-033737D01*
G01X0036111Y-029137D02*
G01X0034929Y-029137D01*
G01X0036120Y-033737D02*
G01X0036120Y-029137D01*
G01X0034920Y-033737D02*
G01X0036120Y-033737D01*
G01X0034795Y-044569D02*
G01X0034795Y-039969D01*
G01X0033604Y-044569D02*
G01X0034786Y-044569D01*
G01X0033595Y-039969D02*
G01X0033595Y-044569D01*
G01X0034795Y-039969D02*
G01X0033595Y-039969D01*
G01X0033420Y-029094D02*
G01X0033420Y-033694D01*
G01X0034611Y-029094D02*
G01X0033429Y-029094D01*
G01X0034620Y-033694D02*
G01X0034620Y-029094D01*
G01X0033420Y-033694D02*
G01X0034620Y-033694D01*
G54D15*
G01X0030120Y-039359D02*
G75*
G03X0030125Y-038024I0000675J0000665D01*
G01X0030125Y-038024D02*
G01X0030125Y-039354D01*
G54D12*
G01X0030920Y-020394D02*
G01X0035520Y-020394D01*
G01X0030920Y-019203D02*
G01X0030920Y-020385D01*
G01X0035520Y-019194D02*
G01X0030920Y-019194D01*
G01X0035520Y-020394D02*
G01X0035520Y-019194D01*
G54D14*
G01X0030580Y-046533D02*
G75*
G02X0030579Y-047754I0001102J-000611D01*
G01X0030579Y-046534D02*
G01X0030579Y-047754D01*
G01X0033379Y-034085D02*
G01X0033379Y-037235D01*
G01X0031411Y-034085D02*
G01X0033379Y-034085D01*
G01X0031411Y-037235D02*
G01X0031411Y-034085D01*
G01X0033379Y-037235D02*
G01X0031411Y-037235D01*
G54D12*
G01X0040808Y-027667D02*
G01X0036575Y-027667D01*
G01X0040808Y-032686D02*
G01X0040808Y-027667D01*
G01X0040709Y-032686D02*
G01X0040808Y-032686D01*
G01X0036575Y-032686D02*
G01X0040709Y-032686D01*
G01X0036575Y-027667D02*
G01X0036575Y-032686D01*
G54D13*
G01X0037305Y-028651D02*
G75*
G03X0037305Y-028651I-000139J0000000D01*
G54D15*
G01X0050780Y-031484D02*
G01X0048810Y-031484D01*
G54D13*
G01X0048108Y-030694D02*
G75*
G03X0048108Y-030694I-000088J0000000D01*
G54D12*
G01X0047311Y-035418D02*
G01X0048729Y-035418D01*
G01X0047311Y-029985D02*
G01X0047311Y-035418D01*
G01X0048729Y-029985D02*
G01X0047311Y-029985D01*
G54D15*
G01X0048800Y-033854D02*
G01X0050780Y-033854D01*
G01X0048730Y-035414D02*
G01X0048730Y-033854D01*
G01X0048730Y-033854D02*
G01X0048810Y-033854D01*
G01X0048730Y-029984D02*
G01X0048730Y-031484D01*
G01X0048730Y-031484D02*
G01X0048810Y-031484D01*
G01X0050780Y-033854D02*
G01X0050780Y-032684D01*
G01X0050780Y-032684D02*
G01X0050780Y-031484D01*
G54D12*
G01X0037722Y-037908D02*
G01X0037624Y-037908D01*
G01X0037722Y-043125D02*
G01X0037722Y-037908D01*
G01X0036344Y-043125D02*
G01X0037722Y-043125D01*
G01X0036344Y-043027D02*
G01X0036344Y-043125D01*
G01X0036344Y-037908D02*
G01X0036344Y-043027D01*
G01X0037624Y-037908D02*
G01X0036344Y-037908D01*
G01X0037722Y-038302D02*
G01X0036344Y-038302D01*
G01X0037708Y-043603D02*
G01X0037610Y-043603D01*
G01X0037708Y-048820D02*
G01X0037708Y-043603D01*
G01X0036330Y-048820D02*
G01X0037708Y-048820D01*
G01X0036330Y-048722D02*
G01X0036330Y-048820D01*
G01X0036330Y-043603D02*
G01X0036330Y-048722D01*
G01X0037610Y-043603D02*
G01X0036330Y-043603D01*
G01X0037708Y-043997D02*
G01X0036330Y-043997D01*
G54D14*
G01X0030854Y-036853D02*
G01X0027704Y-036853D01*
G01X0030854Y-034885D02*
G01X0030854Y-036853D01*
G01X0027704Y-034885D02*
G01X0030854Y-034885D01*
G01X0027704Y-036853D02*
G01X0027704Y-034885D01*
G01X0029684Y-028804D02*
G01X0029684Y-031954D01*
G01X0027716Y-028804D02*
G01X0029684Y-028804D01*
G01X0027716Y-031954D02*
G01X0027716Y-028804D01*
G01X0029684Y-031954D02*
G01X0027716Y-031954D01*
G01X0042236Y-027353D02*
G01X0042236Y-024203D01*
G01X0044204Y-027353D02*
G01X0042236Y-027353D01*
G01X0044204Y-024203D02*
G01X0044204Y-027353D01*
G01X0042236Y-024203D02*
G01X0044204Y-024203D01*
G01X0045229Y-031003D02*
G01X0045229Y-034153D01*
G01X0043261Y-031003D02*
G01X0045229Y-031003D01*
G01X0043261Y-034153D02*
G01X0043261Y-031003D01*
G01X0045229Y-034153D02*
G01X0043261Y-034153D01*
G01X0027653Y-026428D02*
G01X0030803Y-026428D01*
G01X0027653Y-028396D02*
G01X0027653Y-026428D01*
G01X0030803Y-028396D02*
G01X0027653Y-028396D01*
G01X0030803Y-026428D02*
G01X0030803Y-028396D01*
G01X0030779Y-022178D02*
G01X0027629Y-022178D01*
G01X0030779Y-020210D02*
G01X0030779Y-022178D01*
G01X0027629Y-020210D02*
G01X0030779Y-020210D01*
G01X0027629Y-022178D02*
G01X0027629Y-020210D01*
G01X0029704Y-037210D02*
G01X0029704Y-040360D01*
G01X0027736Y-037210D02*
G01X0029704Y-037210D01*
G01X0027736Y-040360D02*
G01X0027736Y-037210D01*
G01X0029704Y-040360D02*
G01X0027736Y-040360D01*
G54D15*
G01X0032125Y-044548D02*
G01X0033305Y-044548D01*
G01X0030265Y-044558D02*
G75*
G03X0032125Y-044548I0000930J0000010D01*
G01X0026905Y-044558D02*
G01X0030265Y-044558D01*
G54D14*
G01X0031983Y-044489D02*
G75*
G03X0031983Y-044489I-000769J0000000D01*
G01X0030820Y-042619D02*
G75*
G03X0030820Y-042619I-000769J0000000D01*
G01X0033164Y-042619D02*
G75*
G03X0033164Y-042619I-000750J0000000D01*
G01X0033300Y-040748D02*
G01X0026905Y-040748D01*
G01X0033305Y-044568D02*
G01X0033300Y-040748D01*
G01X0026905Y-040748D02*
G01X0026905Y-044558D01*
G54D15*
G01X0041899Y-045583D02*
G01X0041899Y-044403D01*
G01X0041909Y-047443D02*
G75*
G03X0041899Y-045583I-000010J0000930D01*
G01X0041909Y-050803D02*
G01X0041909Y-047443D01*
G54D14*
G01X0042609Y-046494D02*
G75*
G03X0042609Y-046494I-000769J0000000D01*
G01X0040739Y-047657D02*
G75*
G03X0040739Y-047657I-000769J0000000D01*
G01X0040720Y-045293D02*
G75*
G03X0040720Y-045293I-000750J0000000D01*
G01X0038099Y-044408D02*
G01X0038099Y-050803D01*
G01X0041919Y-044403D02*
G01X0038099Y-044408D01*
G01X0038099Y-050803D02*
G01X0041909Y-050803D01*
G54D15*
G01X0048607Y-024187D02*
G01X0044607Y-024187D01*
G01X0048607Y-029187D02*
G01X0048607Y-024187D01*
G01X0044607Y-029187D02*
G01X0048607Y-029187D01*
G01X0044607Y-029187D02*
G01X0044607Y-024187D01*
G54D12*
G01X0048973Y-042744D02*
G01X0048973Y-049044D01*
G01X0043067Y-042744D02*
G01X0048973Y-042744D01*
G01X0043067Y-049044D02*
G01X0043067Y-042744D01*
G01X0048973Y-049044D02*
G01X0043067Y-049044D01*
G01X0048963Y-017251D02*
G01X0048963Y-023551D01*
G01X0043057Y-017251D02*
G01X0048963Y-017251D01*
G01X0043057Y-023551D02*
G01X0043057Y-017251D01*
G01X0048963Y-023551D02*
G01X0043057Y-023551D01*
G01X0048973Y-036044D02*
G01X0048973Y-042344D01*
G01X0043067Y-036044D02*
G01X0048973Y-036044D01*
G01X0043067Y-042344D02*
G01X0043067Y-036044D01*
G01X0048973Y-042344D02*
G01X0043067Y-042344D01*
G54D14*
G01X0038520Y-034869D02*
G01X0039020Y-034269D01*
G01X0042220Y-034269D02*
G01X0042720Y-034869D01*
G01X0042720Y-042069D02*
G01X0038520Y-042069D01*
G01X0039220Y-042569D02*
G01X0038520Y-042569D01*
G01X0040029Y-042582D02*
G01X0040029Y-042089D01*
G01X0040226Y-042582D02*
G01X0040029Y-042582D01*
G01X0041309Y-042582D02*
G01X0041309Y-042089D01*
G01X0041309Y-042582D02*
G01X0040915Y-042582D01*
G01X0042720Y-042569D02*
G01X0041920Y-042569D01*
G01X0042220Y-034269D02*
G01X0039020Y-034269D01*
G01X0038520Y-044169D02*
G01X0038520Y-034869D01*
G01X0042720Y-044169D02*
G01X0038520Y-044169D01*
G01X0042720Y-034869D02*
G01X0042720Y-044169D01*
G01X0030199Y-026050D02*
G01X0028506Y-026050D01*
G01X0030199Y-024868D02*
G01X0030199Y-026050D01*
G01X0028506Y-024868D02*
G01X0030199Y-024868D01*
G01X0028506Y-026050D02*
G01X0028506Y-024868D01*
G01X0045234Y-035800D02*
G01X0043541Y-035800D01*
G01X0045234Y-034618D02*
G01X0045234Y-035800D01*
G01X0043541Y-034618D02*
G01X0045234Y-034618D01*
G01X0043541Y-035800D02*
G01X0043541Y-034618D01*
G54D11*
G01X0033241Y-025946D02*
G01X0033241Y-026270D01*
G01X0033241Y-026270D02*
G01X0033260Y-026308D01*
G01X0033260Y-026308D02*
G01X0033279Y-026327D01*
G01X0033279Y-026327D02*
G01X0033317Y-026346D01*
G01X0033317Y-026346D02*
G01X0033393Y-026346D01*
G01X0033393Y-026346D02*
G01X0033431Y-026327D01*
G01X0033431Y-026327D02*
G01X0033450Y-026308D01*
G01X0033450Y-026308D02*
G01X0033469Y-026270D01*
G01X0033469Y-026270D02*
G01X0033469Y-025946D01*
G01X0033622Y-025946D02*
G01X0033869Y-025946D01*
G01X0033869Y-025946D02*
G01X0033736Y-026099D01*
G01X0033736Y-026099D02*
G01X0033793Y-026099D01*
G01X0033793Y-026099D02*
G01X0033831Y-026118D01*
G01X0033831Y-026118D02*
G01X0033850Y-026137D01*
G01X0033850Y-026137D02*
G01X0033869Y-026175D01*
G01X0033869Y-026175D02*
G01X0033869Y-026270D01*
G01X0033869Y-026270D02*
G01X0033850Y-026308D01*
G01X0033850Y-026308D02*
G01X0033831Y-026327D01*
G01X0033831Y-026327D02*
G01X0033793Y-026346D01*
G01X0033793Y-026346D02*
G01X0033679Y-026346D01*
G01X0033679Y-026346D02*
G01X0033641Y-026327D01*
G01X0033641Y-026327D02*
G01X0033622Y-026308D01*
G01X0029387Y-033225D02*
G01X0029387Y-033511D01*
G01X0029387Y-033511D02*
G01X0029368Y-033568D01*
G01X0029368Y-033568D02*
G01X0029330Y-033606D01*
G01X0029330Y-033606D02*
G01X0029272Y-033625D01*
G01X0029272Y-033625D02*
G01X0029234Y-033625D01*
G01X0029768Y-033225D02*
G01X0029577Y-033225D01*
G01X0029577Y-033225D02*
G01X0029558Y-033415D01*
G01X0029558Y-033415D02*
G01X0029577Y-033396D01*
G01X0029577Y-033396D02*
G01X0029615Y-033377D01*
G01X0029615Y-033377D02*
G01X0029710Y-033377D01*
G01X0029710Y-033377D02*
G01X0029749Y-033396D01*
G01X0029749Y-033396D02*
G01X0029768Y-033415D01*
G01X0029768Y-033415D02*
G01X0029787Y-033454D01*
G01X0029787Y-033454D02*
G01X0029787Y-033549D01*
G01X0029787Y-033549D02*
G01X0029768Y-033587D01*
G01X0029768Y-033587D02*
G01X0029749Y-033606D01*
G01X0029749Y-033606D02*
G01X0029710Y-033625D01*
G01X0029710Y-033625D02*
G01X0029615Y-033625D01*
G01X0029615Y-033625D02*
G01X0029577Y-033606D01*
G01X0029577Y-033606D02*
G01X0029558Y-033587D01*
G54D16*
G01X0035748Y-042819D02*
G01X0035561Y-042951D01*
G01X0035748Y-043044D02*
G01X0035354Y-043044D01*
G01X0035354Y-043044D02*
G01X0035354Y-042894D01*
G01X0035354Y-042894D02*
G01X0035373Y-042857D01*
G01X0035373Y-042857D02*
G01X0035392Y-042838D01*
G01X0035392Y-042838D02*
G01X0035429Y-042819D01*
G01X0035429Y-042819D02*
G01X0035486Y-042819D01*
G01X0035486Y-042819D02*
G01X0035523Y-042838D01*
G01X0035523Y-042838D02*
G01X0035542Y-042857D01*
G01X0035542Y-042857D02*
G01X0035561Y-042894D01*
G01X0035561Y-042894D02*
G01X0035561Y-043044D01*
G01X0035748Y-042444D02*
G01X0035748Y-042669D01*
G01X0035748Y-042557D02*
G01X0035354Y-042557D01*
G01X0035354Y-042557D02*
G01X0035411Y-042594D01*
G01X0035411Y-042594D02*
G01X0035448Y-042632D01*
G01X0035448Y-042632D02*
G01X0035467Y-042669D01*
G01X0035354Y-042313D02*
G01X0035354Y-042069D01*
G01X0035354Y-042069D02*
G01X0035504Y-042201D01*
G01X0035504Y-042201D02*
G01X0035504Y-042144D01*
G01X0035504Y-042144D02*
G01X0035523Y-042107D01*
G01X0035523Y-042107D02*
G01X0035542Y-042088D01*
G01X0035542Y-042088D02*
G01X0035579Y-042069D01*
G01X0035579Y-042069D02*
G01X0035673Y-042069D01*
G01X0035673Y-042069D02*
G01X0035711Y-042088D01*
G01X0035711Y-042088D02*
G01X0035729Y-042107D01*
G01X0035729Y-042107D02*
G01X0035748Y-042144D01*
G01X0035748Y-042144D02*
G01X0035748Y-042257D01*
G01X0035748Y-042257D02*
G01X0035729Y-042294D01*
G01X0035729Y-042294D02*
G01X0035711Y-042313D01*
G01X0033279Y-021497D02*
G01X0033148Y-021310D01*
G01X0033054Y-021497D02*
G01X0033054Y-021103D01*
G01X0033054Y-021103D02*
G01X0033204Y-021103D01*
G01X0033204Y-021103D02*
G01X0033242Y-021122D01*
G01X0033242Y-021122D02*
G01X0033261Y-021141D01*
G01X0033261Y-021141D02*
G01X0033279Y-021178D01*
G01X0033279Y-021178D02*
G01X0033279Y-021235D01*
G01X0033279Y-021235D02*
G01X0033261Y-021272D01*
G01X0033261Y-021272D02*
G01X0033242Y-021291D01*
G01X0033242Y-021291D02*
G01X0033204Y-021310D01*
G01X0033204Y-021310D02*
G01X0033054Y-021310D01*
G01X0033429Y-021141D02*
G01X0033448Y-021122D01*
G01X0033448Y-021122D02*
G01X0033486Y-021103D01*
G01X0033486Y-021103D02*
G01X0033579Y-021103D01*
G01X0033579Y-021103D02*
G01X0033617Y-021122D01*
G01X0033617Y-021122D02*
G01X0033636Y-021141D01*
G01X0033636Y-021141D02*
G01X0033654Y-021178D01*
G01X0033654Y-021178D02*
G01X0033654Y-021216D01*
G01X0033654Y-021216D02*
G01X0033636Y-021272D01*
G01X0033636Y-021272D02*
G01X0033411Y-021497D01*
G01X0033411Y-021497D02*
G01X0033654Y-021497D01*
G01X0030697Y-029585D02*
G01X0030678Y-029603D01*
G01X0030678Y-029603D02*
G01X0030622Y-029622D01*
G01X0030622Y-029622D02*
G01X0030584Y-029622D01*
G01X0030584Y-029622D02*
G01X0030528Y-029603D01*
G01X0030528Y-029603D02*
G01X0030490Y-029566D01*
G01X0030490Y-029566D02*
G01X0030472Y-029528D01*
G01X0030472Y-029528D02*
G01X0030453Y-029453D01*
G01X0030453Y-029453D02*
G01X0030453Y-029397D01*
G01X0030453Y-029397D02*
G01X0030472Y-029322D01*
G01X0030472Y-029322D02*
G01X0030490Y-029285D01*
G01X0030490Y-029285D02*
G01X0030528Y-029247D01*
G01X0030528Y-029247D02*
G01X0030584Y-029228D01*
G01X0030584Y-029228D02*
G01X0030622Y-029228D01*
G01X0030622Y-029228D02*
G01X0030678Y-029247D01*
G01X0030678Y-029247D02*
G01X0030697Y-029266D01*
G01X0031034Y-029360D02*
G01X0031034Y-029622D01*
G01X0030940Y-029210D02*
G01X0030846Y-029491D01*
G01X0030846Y-029491D02*
G01X0031090Y-029491D01*
G01X0040197Y-033585D02*
G01X0040178Y-033603D01*
G01X0040178Y-033603D02*
G01X0040122Y-033622D01*
G01X0040122Y-033622D02*
G01X0040084Y-033622D01*
G01X0040084Y-033622D02*
G01X0040028Y-033603D01*
G01X0040028Y-033603D02*
G01X0039990Y-033566D01*
G01X0039990Y-033566D02*
G01X0039972Y-033528D01*
G01X0039972Y-033528D02*
G01X0039953Y-033453D01*
G01X0039953Y-033453D02*
G01X0039953Y-033397D01*
G01X0039953Y-033397D02*
G01X0039972Y-033322D01*
G01X0039972Y-033322D02*
G01X0039990Y-033285D01*
G01X0039990Y-033285D02*
G01X0040028Y-033247D01*
G01X0040028Y-033247D02*
G01X0040084Y-033228D01*
G01X0040084Y-033228D02*
G01X0040122Y-033228D01*
G01X0040122Y-033228D02*
G01X0040178Y-033247D01*
G01X0040178Y-033247D02*
G01X0040197Y-033266D01*
G01X0040553Y-033228D02*
G01X0040365Y-033228D01*
G01X0040365Y-033228D02*
G01X0040346Y-033416D01*
G01X0040346Y-033416D02*
G01X0040365Y-033397D01*
G01X0040365Y-033397D02*
G01X0040403Y-033378D01*
G01X0040403Y-033378D02*
G01X0040496Y-033378D01*
G01X0040496Y-033378D02*
G01X0040534Y-033397D01*
G01X0040534Y-033397D02*
G01X0040553Y-033416D01*
G01X0040553Y-033416D02*
G01X0040571Y-033453D01*
G01X0040571Y-033453D02*
G01X0040571Y-033547D01*
G01X0040571Y-033547D02*
G01X0040553Y-033585D01*
G01X0040553Y-033585D02*
G01X0040534Y-033603D01*
G01X0040534Y-033603D02*
G01X0040496Y-033622D01*
G01X0040496Y-033622D02*
G01X0040403Y-033622D01*
G01X0040403Y-033622D02*
G01X0040365Y-033603D01*
G01X0040365Y-033603D02*
G01X0040346Y-033585D01*
G01X0044072Y-030360D02*
G01X0044053Y-030378D01*
G01X0044053Y-030378D02*
G01X0043997Y-030397D01*
G01X0043997Y-030397D02*
G01X0043959Y-030397D01*
G01X0043959Y-030397D02*
G01X0043903Y-030378D01*
G01X0043903Y-030378D02*
G01X0043865Y-030341D01*
G01X0043865Y-030341D02*
G01X0043847Y-030303D01*
G01X0043847Y-030303D02*
G01X0043828Y-030228D01*
G01X0043828Y-030228D02*
G01X0043828Y-030172D01*
G01X0043828Y-030172D02*
G01X0043847Y-030097D01*
G01X0043847Y-030097D02*
G01X0043865Y-030060D01*
G01X0043865Y-030060D02*
G01X0043903Y-030022D01*
G01X0043903Y-030022D02*
G01X0043959Y-030003D01*
G01X0043959Y-030003D02*
G01X0043997Y-030003D01*
G01X0043997Y-030003D02*
G01X0044053Y-030022D01*
G01X0044053Y-030022D02*
G01X0044072Y-030041D01*
G01X0044409Y-030003D02*
G01X0044334Y-030003D01*
G01X0044334Y-030003D02*
G01X0044296Y-030022D01*
G01X0044296Y-030022D02*
G01X0044278Y-030041D01*
G01X0044278Y-030041D02*
G01X0044240Y-030097D01*
G01X0044240Y-030097D02*
G01X0044221Y-030172D01*
G01X0044221Y-030172D02*
G01X0044221Y-030322D01*
G01X0044221Y-030322D02*
G01X0044240Y-030360D01*
G01X0044240Y-030360D02*
G01X0044259Y-030378D01*
G01X0044259Y-030378D02*
G01X0044296Y-030397D01*
G01X0044296Y-030397D02*
G01X0044371Y-030397D01*
G01X0044371Y-030397D02*
G01X0044409Y-030378D01*
G01X0044409Y-030378D02*
G01X0044428Y-030360D01*
G01X0044428Y-030360D02*
G01X0044446Y-030322D01*
G01X0044446Y-030322D02*
G01X0044446Y-030228D01*
G01X0044446Y-030228D02*
G01X0044428Y-030191D01*
G01X0044428Y-030191D02*
G01X0044409Y-030172D01*
G01X0044409Y-030172D02*
G01X0044371Y-030153D01*
G01X0044371Y-030153D02*
G01X0044296Y-030153D01*
G01X0044296Y-030153D02*
G01X0044259Y-030172D01*
G01X0044259Y-030172D02*
G01X0044240Y-030191D01*
G01X0044240Y-030191D02*
G01X0044221Y-030228D01*
G01X0042859Y-028535D02*
G01X0042840Y-028553D01*
G01X0042840Y-028553D02*
G01X0042784Y-028572D01*
G01X0042784Y-028572D02*
G01X0042747Y-028572D01*
G01X0042747Y-028572D02*
G01X0042690Y-028553D01*
G01X0042690Y-028553D02*
G01X0042653Y-028516D01*
G01X0042653Y-028516D02*
G01X0042634Y-028478D01*
G01X0042634Y-028478D02*
G01X0042615Y-028403D01*
G01X0042615Y-028403D02*
G01X0042615Y-028347D01*
G01X0042615Y-028347D02*
G01X0042634Y-028272D01*
G01X0042634Y-028272D02*
G01X0042653Y-028235D01*
G01X0042653Y-028235D02*
G01X0042690Y-028197D01*
G01X0042690Y-028197D02*
G01X0042747Y-028178D01*
G01X0042747Y-028178D02*
G01X0042784Y-028178D01*
G01X0042784Y-028178D02*
G01X0042840Y-028197D01*
G01X0042840Y-028197D02*
G01X0042859Y-028216D01*
G01X0043234Y-028572D02*
G01X0043009Y-028572D01*
G01X0043121Y-028572D02*
G01X0043121Y-028178D01*
G01X0043121Y-028178D02*
G01X0043084Y-028235D01*
G01X0043084Y-028235D02*
G01X0043047Y-028272D01*
G01X0043047Y-028272D02*
G01X0043009Y-028291D01*
G01X0043478Y-028178D02*
G01X0043515Y-028178D01*
G01X0043515Y-028178D02*
G01X0043553Y-028197D01*
G01X0043553Y-028197D02*
G01X0043571Y-028216D01*
G01X0043571Y-028216D02*
G01X0043590Y-028253D01*
G01X0043590Y-028253D02*
G01X0043609Y-028328D01*
G01X0043609Y-028328D02*
G01X0043609Y-028422D01*
G01X0043609Y-028422D02*
G01X0043590Y-028497D01*
G01X0043590Y-028497D02*
G01X0043571Y-028535D01*
G01X0043571Y-028535D02*
G01X0043553Y-028553D01*
G01X0043553Y-028553D02*
G01X0043515Y-028572D01*
G01X0043515Y-028572D02*
G01X0043478Y-028572D01*
G01X0043478Y-028572D02*
G01X0043440Y-028553D01*
G01X0043440Y-028553D02*
G01X0043421Y-028535D01*
G01X0043421Y-028535D02*
G01X0043403Y-028497D01*
G01X0043403Y-028497D02*
G01X0043384Y-028422D01*
G01X0043384Y-028422D02*
G01X0043384Y-028328D01*
G01X0043384Y-028328D02*
G01X0043403Y-028253D01*
G01X0043403Y-028253D02*
G01X0043421Y-028216D01*
G01X0043421Y-028216D02*
G01X0043440Y-028197D01*
G01X0043440Y-028197D02*
G01X0043478Y-028178D01*
G01X0036759Y-037085D02*
G01X0036740Y-037103D01*
G01X0036740Y-037103D02*
G01X0036684Y-037122D01*
G01X0036684Y-037122D02*
G01X0036647Y-037122D01*
G01X0036647Y-037122D02*
G01X0036590Y-037103D01*
G01X0036590Y-037103D02*
G01X0036553Y-037066D01*
G01X0036553Y-037066D02*
G01X0036534Y-037028D01*
G01X0036534Y-037028D02*
G01X0036515Y-036953D01*
G01X0036515Y-036953D02*
G01X0036515Y-036897D01*
G01X0036515Y-036897D02*
G01X0036534Y-036822D01*
G01X0036534Y-036822D02*
G01X0036553Y-036785D01*
G01X0036553Y-036785D02*
G01X0036590Y-036747D01*
G01X0036590Y-036747D02*
G01X0036647Y-036728D01*
G01X0036647Y-036728D02*
G01X0036684Y-036728D01*
G01X0036684Y-036728D02*
G01X0036740Y-036747D01*
G01X0036740Y-036747D02*
G01X0036759Y-036766D01*
G01X0037134Y-037122D02*
G01X0036909Y-037122D01*
G01X0037021Y-037122D02*
G01X0037021Y-036728D01*
G01X0037021Y-036728D02*
G01X0036984Y-036785D01*
G01X0036984Y-036785D02*
G01X0036947Y-036822D01*
G01X0036947Y-036822D02*
G01X0036909Y-036841D01*
G01X0037284Y-036766D02*
G01X0037303Y-036747D01*
G01X0037303Y-036747D02*
G01X0037340Y-036728D01*
G01X0037340Y-036728D02*
G01X0037434Y-036728D01*
G01X0037434Y-036728D02*
G01X0037471Y-036747D01*
G01X0037471Y-036747D02*
G01X0037490Y-036766D01*
G01X0037490Y-036766D02*
G01X0037509Y-036803D01*
G01X0037509Y-036803D02*
G01X0037509Y-036841D01*
G01X0037509Y-036841D02*
G01X0037490Y-036897D01*
G01X0037490Y-036897D02*
G01X0037265Y-037122D01*
G01X0037265Y-037122D02*
G01X0037509Y-037122D01*
G54D11*
G01X0034540Y-046775D02*
G01X0034540Y-047061D01*
G01X0034540Y-047061D02*
G01X0034521Y-047118D01*
G01X0034521Y-047118D02*
G01X0034483Y-047156D01*
G01X0034483Y-047156D02*
G01X0034425Y-047175D01*
G01X0034425Y-047175D02*
G01X0034387Y-047175D01*
G01X0034711Y-046813D02*
G01X0034730Y-046794D01*
G01X0034730Y-046794D02*
G01X0034768Y-046775D01*
G01X0034768Y-046775D02*
G01X0034863Y-046775D01*
G01X0034863Y-046775D02*
G01X0034902Y-046794D01*
G01X0034902Y-046794D02*
G01X0034921Y-046813D01*
G01X0034921Y-046813D02*
G01X0034940Y-046851D01*
G01X0034940Y-046851D02*
G01X0034940Y-046889D01*
G01X0034940Y-046889D02*
G01X0034921Y-046946D01*
G01X0034921Y-046946D02*
G01X0034692Y-047175D01*
G01X0034692Y-047175D02*
G01X0034940Y-047175D01*
G01X0042153Y-022141D02*
G01X0042153Y-022331D01*
G01X0042153Y-022331D02*
G01X0041753Y-022331D01*
G01X0042039Y-022027D02*
G01X0042039Y-021836D01*
G01X0042153Y-022065D02*
G01X0041753Y-021931D01*
G01X0041753Y-021931D02*
G01X0042153Y-021798D01*
G01X0042153Y-021665D02*
G01X0041753Y-021665D01*
G01X0041753Y-021665D02*
G01X0042039Y-021531D01*
G01X0042039Y-021531D02*
G01X0041753Y-021398D01*
G01X0041753Y-021398D02*
G01X0042153Y-021398D01*
G01X0042153Y-021207D02*
G01X0041753Y-021207D01*
G01X0041753Y-021207D02*
G01X0041753Y-021055D01*
G01X0041753Y-021055D02*
G01X0041772Y-021017D01*
G01X0041772Y-021017D02*
G01X0041791Y-020998D01*
G01X0041791Y-020998D02*
G01X0041829Y-020979D01*
G01X0041829Y-020979D02*
G01X0041886Y-020979D01*
G01X0041886Y-020979D02*
G01X0041924Y-020998D01*
G01X0041924Y-020998D02*
G01X0041943Y-021017D01*
G01X0041943Y-021017D02*
G01X0041962Y-021055D01*
G01X0041962Y-021055D02*
G01X0041962Y-021207D01*
G01X0042153Y-020598D02*
G01X0042153Y-020827D01*
G01X0042153Y-020712D02*
G01X0041753Y-020712D01*
G01X0041753Y-020712D02*
G01X0041810Y-020750D01*
G01X0041810Y-020750D02*
G01X0041848Y-020788D01*
G01X0041848Y-020788D02*
G01X0041867Y-020827D01*
G54D16*
G01X0036733Y-035132D02*
G01X0036695Y-035113D01*
G01X0036695Y-035113D02*
G01X0036658Y-035076D01*
G01X0036658Y-035076D02*
G01X0036601Y-035020D01*
G01X0036601Y-035020D02*
G01X0036564Y-035001D01*
G01X0036564Y-035001D02*
G01X0036526Y-035001D01*
G01X0036545Y-035095D02*
G01X0036508Y-035076D01*
G01X0036508Y-035076D02*
G01X0036470Y-035038D01*
G01X0036470Y-035038D02*
G01X0036451Y-034963D01*
G01X0036451Y-034963D02*
G01X0036451Y-034832D01*
G01X0036451Y-034832D02*
G01X0036470Y-034757D01*
G01X0036470Y-034757D02*
G01X0036508Y-034720D01*
G01X0036508Y-034720D02*
G01X0036545Y-034701D01*
G01X0036545Y-034701D02*
G01X0036620Y-034701D01*
G01X0036620Y-034701D02*
G01X0036658Y-034720D01*
G01X0036658Y-034720D02*
G01X0036695Y-034757D01*
G01X0036695Y-034757D02*
G01X0036714Y-034832D01*
G01X0036714Y-034832D02*
G01X0036714Y-034963D01*
G01X0036714Y-034963D02*
G01X0036695Y-035038D01*
G01X0036695Y-035038D02*
G01X0036658Y-035076D01*
G01X0036658Y-035076D02*
G01X0036620Y-035095D01*
G01X0036620Y-035095D02*
G01X0036545Y-035095D01*
G01X0037089Y-035095D02*
G01X0036864Y-035095D01*
G01X0036976Y-035095D02*
G01X0036976Y-034701D01*
G01X0036976Y-034701D02*
G01X0036939Y-034757D01*
G01X0036939Y-034757D02*
G01X0036901Y-034795D01*
G01X0036901Y-034795D02*
G01X0036864Y-034813D01*
G01X0029110Y-023610D02*
G01X0029073Y-023591D01*
G01X0029073Y-023591D02*
G01X0029035Y-023553D01*
G01X0029035Y-023553D02*
G01X0028979Y-023497D01*
G01X0028979Y-023497D02*
G01X0028941Y-023478D01*
G01X0028941Y-023478D02*
G01X0028904Y-023478D01*
G01X0028923Y-023572D02*
G01X0028885Y-023553D01*
G01X0028885Y-023553D02*
G01X0028848Y-023516D01*
G01X0028848Y-023516D02*
G01X0028829Y-023441D01*
G01X0028829Y-023441D02*
G01X0028829Y-023310D01*
G01X0028829Y-023310D02*
G01X0028848Y-023235D01*
G01X0028848Y-023235D02*
G01X0028885Y-023197D01*
G01X0028885Y-023197D02*
G01X0028923Y-023178D01*
G01X0028923Y-023178D02*
G01X0028998Y-023178D01*
G01X0028998Y-023178D02*
G01X0029035Y-023197D01*
G01X0029035Y-023197D02*
G01X0029073Y-023235D01*
G01X0029073Y-023235D02*
G01X0029091Y-023310D01*
G01X0029091Y-023310D02*
G01X0029091Y-023441D01*
G01X0029091Y-023441D02*
G01X0029073Y-023516D01*
G01X0029073Y-023516D02*
G01X0029035Y-023553D01*
G01X0029035Y-023553D02*
G01X0028998Y-023572D01*
G01X0028998Y-023572D02*
G01X0028923Y-023572D01*
G01X0029241Y-023216D02*
G01X0029260Y-023197D01*
G01X0029260Y-023197D02*
G01X0029298Y-023178D01*
G01X0029298Y-023178D02*
G01X0029391Y-023178D01*
G01X0029391Y-023178D02*
G01X0029429Y-023197D01*
G01X0029429Y-023197D02*
G01X0029448Y-023216D01*
G01X0029448Y-023216D02*
G01X0029466Y-023253D01*
G01X0029466Y-023253D02*
G01X0029466Y-023291D01*
G01X0029466Y-023291D02*
G01X0029448Y-023347D01*
G01X0029448Y-023347D02*
G01X0029223Y-023572D01*
G01X0029223Y-023572D02*
G01X0029466Y-023572D01*
G01X0033279Y-023072D02*
G01X0033148Y-022885D01*
G01X0033054Y-023072D02*
G01X0033054Y-022678D01*
G01X0033054Y-022678D02*
G01X0033204Y-022678D01*
G01X0033204Y-022678D02*
G01X0033242Y-022697D01*
G01X0033242Y-022697D02*
G01X0033261Y-022716D01*
G01X0033261Y-022716D02*
G01X0033279Y-022753D01*
G01X0033279Y-022753D02*
G01X0033279Y-022810D01*
G01X0033279Y-022810D02*
G01X0033261Y-022847D01*
G01X0033261Y-022847D02*
G01X0033242Y-022866D01*
G01X0033242Y-022866D02*
G01X0033204Y-022885D01*
G01X0033204Y-022885D02*
G01X0033054Y-022885D01*
G01X0033654Y-023072D02*
G01X0033429Y-023072D01*
G01X0033542Y-023072D02*
G01X0033542Y-022678D01*
G01X0033542Y-022678D02*
G01X0033504Y-022735D01*
G01X0033504Y-022735D02*
G01X0033467Y-022772D01*
G01X0033467Y-022772D02*
G01X0033429Y-022791D01*
G01X0038480Y-026526D02*
G01X0038349Y-026339D01*
G01X0038255Y-026526D02*
G01X0038255Y-026132D01*
G01X0038255Y-026132D02*
G01X0038405Y-026132D01*
G01X0038405Y-026132D02*
G01X0038443Y-026151D01*
G01X0038443Y-026151D02*
G01X0038461Y-026170D01*
G01X0038461Y-026170D02*
G01X0038480Y-026207D01*
G01X0038480Y-026207D02*
G01X0038480Y-026264D01*
G01X0038480Y-026264D02*
G01X0038461Y-026301D01*
G01X0038461Y-026301D02*
G01X0038443Y-026320D01*
G01X0038443Y-026320D02*
G01X0038405Y-026339D01*
G01X0038405Y-026339D02*
G01X0038255Y-026339D01*
G01X0038611Y-026132D02*
G01X0038855Y-026132D01*
G01X0038855Y-026132D02*
G01X0038724Y-026282D01*
G01X0038724Y-026282D02*
G01X0038780Y-026282D01*
G01X0038780Y-026282D02*
G01X0038818Y-026301D01*
G01X0038818Y-026301D02*
G01X0038836Y-026320D01*
G01X0038836Y-026320D02*
G01X0038855Y-026357D01*
G01X0038855Y-026357D02*
G01X0038855Y-026451D01*
G01X0038855Y-026451D02*
G01X0038836Y-026489D01*
G01X0038836Y-026489D02*
G01X0038818Y-026507D01*
G01X0038818Y-026507D02*
G01X0038780Y-026526D01*
G01X0038780Y-026526D02*
G01X0038668Y-026526D01*
G01X0038668Y-026526D02*
G01X0038630Y-026507D01*
G01X0038630Y-026507D02*
G01X0038611Y-026489D01*
G01X0032454Y-031368D02*
G01X0032323Y-031181D01*
G01X0032229Y-031368D02*
G01X0032229Y-030974D01*
G01X0032229Y-030974D02*
G01X0032379Y-030974D01*
G01X0032379Y-030974D02*
G01X0032417Y-030993D01*
G01X0032417Y-030993D02*
G01X0032436Y-031012D01*
G01X0032436Y-031012D02*
G01X0032454Y-031049D01*
G01X0032454Y-031049D02*
G01X0032454Y-031106D01*
G01X0032454Y-031106D02*
G01X0032436Y-031143D01*
G01X0032436Y-031143D02*
G01X0032417Y-031162D01*
G01X0032417Y-031162D02*
G01X0032379Y-031181D01*
G01X0032379Y-031181D02*
G01X0032229Y-031181D01*
G01X0032792Y-031106D02*
G01X0032792Y-031368D01*
G01X0032698Y-030956D02*
G01X0032604Y-031237D01*
G01X0032604Y-031237D02*
G01X0032848Y-031237D01*
G01X0033179Y-018547D02*
G01X0033048Y-018360D01*
G01X0032954Y-018547D02*
G01X0032954Y-018153D01*
G01X0032954Y-018153D02*
G01X0033104Y-018153D01*
G01X0033104Y-018153D02*
G01X0033142Y-018172D01*
G01X0033142Y-018172D02*
G01X0033161Y-018191D01*
G01X0033161Y-018191D02*
G01X0033179Y-018228D01*
G01X0033179Y-018228D02*
G01X0033179Y-018285D01*
G01X0033179Y-018285D02*
G01X0033161Y-018322D01*
G01X0033161Y-018322D02*
G01X0033142Y-018341D01*
G01X0033142Y-018341D02*
G01X0033104Y-018360D01*
G01X0033104Y-018360D02*
G01X0032954Y-018360D01*
G01X0033536Y-018153D02*
G01X0033348Y-018153D01*
G01X0033348Y-018153D02*
G01X0033329Y-018341D01*
G01X0033329Y-018341D02*
G01X0033348Y-018322D01*
G01X0033348Y-018322D02*
G01X0033386Y-018303D01*
G01X0033386Y-018303D02*
G01X0033479Y-018303D01*
G01X0033479Y-018303D02*
G01X0033517Y-018322D01*
G01X0033517Y-018322D02*
G01X0033536Y-018341D01*
G01X0033536Y-018341D02*
G01X0033554Y-018378D01*
G01X0033554Y-018378D02*
G01X0033554Y-018472D01*
G01X0033554Y-018472D02*
G01X0033536Y-018510D01*
G01X0033536Y-018510D02*
G01X0033517Y-018528D01*
G01X0033517Y-018528D02*
G01X0033479Y-018547D01*
G01X0033479Y-018547D02*
G01X0033386Y-018547D01*
G01X0033386Y-018547D02*
G01X0033348Y-018528D01*
G01X0033348Y-018528D02*
G01X0033329Y-018510D01*
G01X0038480Y-021911D02*
G01X0038349Y-021724D01*
G01X0038255Y-021911D02*
G01X0038255Y-021517D01*
G01X0038255Y-021517D02*
G01X0038405Y-021517D01*
G01X0038405Y-021517D02*
G01X0038443Y-021536D01*
G01X0038443Y-021536D02*
G01X0038461Y-021555D01*
G01X0038461Y-021555D02*
G01X0038480Y-021592D01*
G01X0038480Y-021592D02*
G01X0038480Y-021649D01*
G01X0038480Y-021649D02*
G01X0038461Y-021686D01*
G01X0038461Y-021686D02*
G01X0038443Y-021705D01*
G01X0038443Y-021705D02*
G01X0038405Y-021724D01*
G01X0038405Y-021724D02*
G01X0038255Y-021724D01*
G01X0038818Y-021517D02*
G01X0038743Y-021517D01*
G01X0038743Y-021517D02*
G01X0038705Y-021536D01*
G01X0038705Y-021536D02*
G01X0038686Y-021555D01*
G01X0038686Y-021555D02*
G01X0038649Y-021611D01*
G01X0038649Y-021611D02*
G01X0038630Y-021686D01*
G01X0038630Y-021686D02*
G01X0038630Y-021836D01*
G01X0038630Y-021836D02*
G01X0038649Y-021874D01*
G01X0038649Y-021874D02*
G01X0038668Y-021892D01*
G01X0038668Y-021892D02*
G01X0038705Y-021911D01*
G01X0038705Y-021911D02*
G01X0038780Y-021911D01*
G01X0038780Y-021911D02*
G01X0038818Y-021892D01*
G01X0038818Y-021892D02*
G01X0038836Y-021874D01*
G01X0038836Y-021874D02*
G01X0038855Y-021836D01*
G01X0038855Y-021836D02*
G01X0038855Y-021742D01*
G01X0038855Y-021742D02*
G01X0038836Y-021705D01*
G01X0038836Y-021705D02*
G01X0038818Y-021686D01*
G01X0038818Y-021686D02*
G01X0038780Y-021667D01*
G01X0038780Y-021667D02*
G01X0038705Y-021667D01*
G01X0038705Y-021667D02*
G01X0038668Y-021686D01*
G01X0038668Y-021686D02*
G01X0038649Y-021705D01*
G01X0038649Y-021705D02*
G01X0038630Y-021742D01*
G01X0038480Y-024832D02*
G01X0038349Y-024645D01*
G01X0038255Y-024832D02*
G01X0038255Y-024438D01*
G01X0038255Y-024438D02*
G01X0038405Y-024438D01*
G01X0038405Y-024438D02*
G01X0038443Y-024457D01*
G01X0038443Y-024457D02*
G01X0038461Y-024476D01*
G01X0038461Y-024476D02*
G01X0038480Y-024513D01*
G01X0038480Y-024513D02*
G01X0038480Y-024570D01*
G01X0038480Y-024570D02*
G01X0038461Y-024607D01*
G01X0038461Y-024607D02*
G01X0038443Y-024626D01*
G01X0038443Y-024626D02*
G01X0038405Y-024645D01*
G01X0038405Y-024645D02*
G01X0038255Y-024645D01*
G01X0038611Y-024438D02*
G01X0038874Y-024438D01*
G01X0038874Y-024438D02*
G01X0038705Y-024832D01*
G01X0028720Y-018872D02*
G01X0028720Y-018478D01*
G01X0028720Y-018666D02*
G01X0028945Y-018666D01*
G01X0028945Y-018872D02*
G01X0028945Y-018478D01*
G01X0029114Y-018516D02*
G01X0029132Y-018497D01*
G01X0029132Y-018497D02*
G01X0029170Y-018478D01*
G01X0029170Y-018478D02*
G01X0029264Y-018478D01*
G01X0029264Y-018478D02*
G01X0029301Y-018497D01*
G01X0029301Y-018497D02*
G01X0029320Y-018516D01*
G01X0029320Y-018516D02*
G01X0029339Y-018553D01*
G01X0029339Y-018553D02*
G01X0029339Y-018591D01*
G01X0029339Y-018591D02*
G01X0029320Y-018647D01*
G01X0029320Y-018647D02*
G01X0029095Y-018872D01*
G01X0029095Y-018872D02*
G01X0029339Y-018872D01*
G01X0028720Y-047372D02*
G01X0028720Y-046978D01*
G01X0028720Y-047166D02*
G01X0028945Y-047166D01*
G01X0028945Y-047372D02*
G01X0028945Y-046978D01*
G01X0029095Y-046978D02*
G01X0029339Y-046978D01*
G01X0029339Y-046978D02*
G01X0029207Y-047128D01*
G01X0029207Y-047128D02*
G01X0029264Y-047128D01*
G01X0029264Y-047128D02*
G01X0029301Y-047147D01*
G01X0029301Y-047147D02*
G01X0029320Y-047166D01*
G01X0029320Y-047166D02*
G01X0029339Y-047203D01*
G01X0029339Y-047203D02*
G01X0029339Y-047297D01*
G01X0029339Y-047297D02*
G01X0029320Y-047335D01*
G01X0029320Y-047335D02*
G01X0029301Y-047353D01*
G01X0029301Y-047353D02*
G01X0029264Y-047372D01*
G01X0029264Y-047372D02*
G01X0029151Y-047372D01*
G01X0029151Y-047372D02*
G01X0029114Y-047353D01*
G01X0029114Y-047353D02*
G01X0029095Y-047335D01*
G01X0041220Y-018872D02*
G01X0041220Y-018478D01*
G01X0041220Y-018666D02*
G01X0041445Y-018666D01*
G01X0041445Y-018872D02*
G01X0041445Y-018478D01*
G01X0041839Y-018872D02*
G01X0041614Y-018872D01*
G01X0041726Y-018872D02*
G01X0041726Y-018478D01*
G01X0041726Y-018478D02*
G01X0041689Y-018535D01*
G01X0041689Y-018535D02*
G01X0041651Y-018572D01*
G01X0041651Y-018572D02*
G01X0041614Y-018591D01*
G01X0042523Y-031506D02*
G01X0042336Y-031637D01*
G01X0042523Y-031731D02*
G01X0042129Y-031731D01*
G01X0042129Y-031731D02*
G01X0042129Y-031581D01*
G01X0042129Y-031581D02*
G01X0042148Y-031543D01*
G01X0042148Y-031543D02*
G01X0042167Y-031524D01*
G01X0042167Y-031524D02*
G01X0042204Y-031506D01*
G01X0042204Y-031506D02*
G01X0042261Y-031506D01*
G01X0042261Y-031506D02*
G01X0042298Y-031524D01*
G01X0042298Y-031524D02*
G01X0042317Y-031543D01*
G01X0042317Y-031543D02*
G01X0042336Y-031581D01*
G01X0042336Y-031581D02*
G01X0042336Y-031731D01*
G01X0042298Y-031281D02*
G01X0042279Y-031318D01*
G01X0042279Y-031318D02*
G01X0042261Y-031337D01*
G01X0042261Y-031337D02*
G01X0042223Y-031356D01*
G01X0042223Y-031356D02*
G01X0042204Y-031356D01*
G01X0042204Y-031356D02*
G01X0042167Y-031337D01*
G01X0042167Y-031337D02*
G01X0042148Y-031318D01*
G01X0042148Y-031318D02*
G01X0042129Y-031281D01*
G01X0042129Y-031281D02*
G01X0042129Y-031206D01*
G01X0042129Y-031206D02*
G01X0042148Y-031168D01*
G01X0042148Y-031168D02*
G01X0042167Y-031149D01*
G01X0042167Y-031149D02*
G01X0042204Y-031131D01*
G01X0042204Y-031131D02*
G01X0042223Y-031131D01*
G01X0042223Y-031131D02*
G01X0042261Y-031149D01*
G01X0042261Y-031149D02*
G01X0042279Y-031168D01*
G01X0042279Y-031168D02*
G01X0042298Y-031206D01*
G01X0042298Y-031206D02*
G01X0042298Y-031281D01*
G01X0042298Y-031281D02*
G01X0042317Y-031318D01*
G01X0042317Y-031318D02*
G01X0042336Y-031337D01*
G01X0042336Y-031337D02*
G01X0042373Y-031356D01*
G01X0042373Y-031356D02*
G01X0042448Y-031356D01*
G01X0042448Y-031356D02*
G01X0042486Y-031337D01*
G01X0042486Y-031337D02*
G01X0042504Y-031318D01*
G01X0042504Y-031318D02*
G01X0042523Y-031281D01*
G01X0042523Y-031281D02*
G01X0042523Y-031206D01*
G01X0042523Y-031206D02*
G01X0042504Y-031168D01*
G01X0042504Y-031168D02*
G01X0042486Y-031149D01*
G01X0042486Y-031149D02*
G01X0042448Y-031131D01*
G01X0042448Y-031131D02*
G01X0042373Y-031131D01*
G01X0042373Y-031131D02*
G01X0042336Y-031149D01*
G01X0042336Y-031149D02*
G01X0042317Y-031168D01*
G01X0042317Y-031168D02*
G01X0042298Y-031206D01*
G01X0038480Y-023354D02*
G01X0038349Y-023167D01*
G01X0038255Y-023354D02*
G01X0038255Y-022960D01*
G01X0038255Y-022960D02*
G01X0038405Y-022960D01*
G01X0038405Y-022960D02*
G01X0038443Y-022979D01*
G01X0038443Y-022979D02*
G01X0038461Y-022998D01*
G01X0038461Y-022998D02*
G01X0038480Y-023035D01*
G01X0038480Y-023035D02*
G01X0038480Y-023092D01*
G01X0038480Y-023092D02*
G01X0038461Y-023129D01*
G01X0038461Y-023129D02*
G01X0038443Y-023148D01*
G01X0038443Y-023148D02*
G01X0038405Y-023167D01*
G01X0038405Y-023167D02*
G01X0038255Y-023167D01*
G01X0038668Y-023354D02*
G01X0038743Y-023354D01*
G01X0038743Y-023354D02*
G01X0038780Y-023335D01*
G01X0038780Y-023335D02*
G01X0038799Y-023317D01*
G01X0038799Y-023317D02*
G01X0038836Y-023260D01*
G01X0038836Y-023260D02*
G01X0038855Y-023185D01*
G01X0038855Y-023185D02*
G01X0038855Y-023035D01*
G01X0038855Y-023035D02*
G01X0038836Y-022998D01*
G01X0038836Y-022998D02*
G01X0038818Y-022979D01*
G01X0038818Y-022979D02*
G01X0038780Y-022960D01*
G01X0038780Y-022960D02*
G01X0038705Y-022960D01*
G01X0038705Y-022960D02*
G01X0038668Y-022979D01*
G01X0038668Y-022979D02*
G01X0038649Y-022998D01*
G01X0038649Y-022998D02*
G01X0038630Y-023035D01*
G01X0038630Y-023035D02*
G01X0038630Y-023129D01*
G01X0038630Y-023129D02*
G01X0038649Y-023167D01*
G01X0038649Y-023167D02*
G01X0038668Y-023185D01*
G01X0038668Y-023185D02*
G01X0038705Y-023204D01*
G01X0038705Y-023204D02*
G01X0038780Y-023204D01*
G01X0038780Y-023204D02*
G01X0038818Y-023185D01*
G01X0038818Y-023185D02*
G01X0038836Y-023167D01*
G01X0038836Y-023167D02*
G01X0038855Y-023129D01*
G01X0035698Y-031994D02*
G01X0035511Y-032126D01*
G01X0035698Y-032219D02*
G01X0035304Y-032219D01*
G01X0035304Y-032219D02*
G01X0035304Y-032069D01*
G01X0035304Y-032069D02*
G01X0035323Y-032032D01*
G01X0035323Y-032032D02*
G01X0035342Y-032013D01*
G01X0035342Y-032013D02*
G01X0035379Y-031994D01*
G01X0035379Y-031994D02*
G01X0035436Y-031994D01*
G01X0035436Y-031994D02*
G01X0035473Y-032013D01*
G01X0035473Y-032013D02*
G01X0035492Y-032032D01*
G01X0035492Y-032032D02*
G01X0035511Y-032069D01*
G01X0035511Y-032069D02*
G01X0035511Y-032219D01*
G01X0035698Y-031619D02*
G01X0035698Y-031844D01*
G01X0035698Y-031732D02*
G01X0035304Y-031732D01*
G01X0035304Y-031732D02*
G01X0035361Y-031769D01*
G01X0035361Y-031769D02*
G01X0035398Y-031807D01*
G01X0035398Y-031807D02*
G01X0035417Y-031844D01*
G01X0035698Y-031244D02*
G01X0035698Y-031469D01*
G01X0035698Y-031357D02*
G01X0035304Y-031357D01*
G01X0035304Y-031357D02*
G01X0035361Y-031394D01*
G01X0035361Y-031394D02*
G01X0035398Y-031432D01*
G01X0035398Y-031432D02*
G01X0035417Y-031469D01*
G01X0034373Y-042218D02*
G01X0034186Y-042349D01*
G01X0034373Y-042443D02*
G01X0033979Y-042443D01*
G01X0033979Y-042443D02*
G01X0033979Y-042293D01*
G01X0033979Y-042293D02*
G01X0033998Y-042256D01*
G01X0033998Y-042256D02*
G01X0034017Y-042237D01*
G01X0034017Y-042237D02*
G01X0034054Y-042218D01*
G01X0034054Y-042218D02*
G01X0034111Y-042218D01*
G01X0034111Y-042218D02*
G01X0034148Y-042237D01*
G01X0034148Y-042237D02*
G01X0034167Y-042256D01*
G01X0034167Y-042256D02*
G01X0034186Y-042293D01*
G01X0034186Y-042293D02*
G01X0034186Y-042443D01*
G01X0034373Y-041843D02*
G01X0034373Y-042068D01*
G01X0034373Y-041956D02*
G01X0033979Y-041956D01*
G01X0033979Y-041956D02*
G01X0034036Y-041993D01*
G01X0034036Y-041993D02*
G01X0034073Y-042031D01*
G01X0034073Y-042031D02*
G01X0034092Y-042068D01*
G01X0034017Y-041693D02*
G01X0033998Y-041674D01*
G01X0033998Y-041674D02*
G01X0033979Y-041637D01*
G01X0033979Y-041637D02*
G01X0033979Y-041543D01*
G01X0033979Y-041543D02*
G01X0033998Y-041506D01*
G01X0033998Y-041506D02*
G01X0034017Y-041487D01*
G01X0034017Y-041487D02*
G01X0034054Y-041468D01*
G01X0034054Y-041468D02*
G01X0034092Y-041468D01*
G01X0034092Y-041468D02*
G01X0034148Y-041487D01*
G01X0034148Y-041487D02*
G01X0034373Y-041712D01*
G01X0034373Y-041712D02*
G01X0034373Y-041468D01*
G01X0034198Y-031951D02*
G01X0034011Y-032082D01*
G01X0034198Y-032176D02*
G01X0033804Y-032176D01*
G01X0033804Y-032176D02*
G01X0033804Y-032026D01*
G01X0033804Y-032026D02*
G01X0033823Y-031989D01*
G01X0033823Y-031989D02*
G01X0033842Y-031970D01*
G01X0033842Y-031970D02*
G01X0033879Y-031951D01*
G01X0033879Y-031951D02*
G01X0033936Y-031951D01*
G01X0033936Y-031951D02*
G01X0033973Y-031970D01*
G01X0033973Y-031970D02*
G01X0033992Y-031989D01*
G01X0033992Y-031989D02*
G01X0034011Y-032026D01*
G01X0034011Y-032026D02*
G01X0034011Y-032176D01*
G01X0034198Y-031576D02*
G01X0034198Y-031801D01*
G01X0034198Y-031689D02*
G01X0033804Y-031689D01*
G01X0033804Y-031689D02*
G01X0033861Y-031726D01*
G01X0033861Y-031726D02*
G01X0033898Y-031764D01*
G01X0033898Y-031764D02*
G01X0033917Y-031801D01*
G01X0033804Y-031445D02*
G01X0033804Y-031182D01*
G01X0033804Y-031182D02*
G01X0034198Y-031351D01*
G01X0030495Y-038451D02*
G01X0030495Y-038770D01*
G01X0030495Y-038770D02*
G01X0030514Y-038807D01*
G01X0030514Y-038807D02*
G01X0030533Y-038826D01*
G01X0030533Y-038826D02*
G01X0030570Y-038845D01*
G01X0030570Y-038845D02*
G01X0030645Y-038845D01*
G01X0030645Y-038845D02*
G01X0030683Y-038826D01*
G01X0030683Y-038826D02*
G01X0030701Y-038807D01*
G01X0030701Y-038807D02*
G01X0030720Y-038770D01*
G01X0030720Y-038770D02*
G01X0030720Y-038451D01*
G01X0030889Y-038488D02*
G01X0030907Y-038470D01*
G01X0030907Y-038470D02*
G01X0030945Y-038451D01*
G01X0030945Y-038451D02*
G01X0031039Y-038451D01*
G01X0031039Y-038451D02*
G01X0031076Y-038470D01*
G01X0031076Y-038470D02*
G01X0031095Y-038488D01*
G01X0031095Y-038488D02*
G01X0031114Y-038526D01*
G01X0031114Y-038526D02*
G01X0031114Y-038563D01*
G01X0031114Y-038563D02*
G01X0031095Y-038620D01*
G01X0031095Y-038620D02*
G01X0030870Y-038845D01*
G01X0030870Y-038845D02*
G01X0031114Y-038845D01*
G01X0033204Y-019997D02*
G01X0033017Y-019997D01*
G01X0033017Y-019997D02*
G01X0033017Y-019603D01*
G01X0033542Y-019997D02*
G01X0033317Y-019997D01*
G01X0033429Y-019997D02*
G01X0033429Y-019603D01*
G01X0033429Y-019603D02*
G01X0033392Y-019660D01*
G01X0033392Y-019660D02*
G01X0033354Y-019697D01*
G01X0033354Y-019697D02*
G01X0033317Y-019716D01*
G01X0031372Y-047322D02*
G01X0031372Y-046928D01*
G01X0031372Y-046928D02*
G01X0031465Y-046928D01*
G01X0031465Y-046928D02*
G01X0031522Y-046947D01*
G01X0031522Y-046947D02*
G01X0031559Y-046985D01*
G01X0031559Y-046985D02*
G01X0031578Y-047022D01*
G01X0031578Y-047022D02*
G01X0031597Y-047097D01*
G01X0031597Y-047097D02*
G01X0031597Y-047153D01*
G01X0031597Y-047153D02*
G01X0031578Y-047228D01*
G01X0031578Y-047228D02*
G01X0031559Y-047266D01*
G01X0031559Y-047266D02*
G01X0031522Y-047303D01*
G01X0031522Y-047303D02*
G01X0031465Y-047322D01*
G01X0031465Y-047322D02*
G01X0031372Y-047322D01*
G01X0031728Y-046928D02*
G01X0031971Y-046928D01*
G01X0031971Y-046928D02*
G01X0031840Y-047078D01*
G01X0031840Y-047078D02*
G01X0031896Y-047078D01*
G01X0031896Y-047078D02*
G01X0031934Y-047097D01*
G01X0031934Y-047097D02*
G01X0031953Y-047116D01*
G01X0031953Y-047116D02*
G01X0031971Y-047153D01*
G01X0031971Y-047153D02*
G01X0031971Y-047247D01*
G01X0031971Y-047247D02*
G01X0031953Y-047285D01*
G01X0031953Y-047285D02*
G01X0031934Y-047303D01*
G01X0031934Y-047303D02*
G01X0031896Y-047322D01*
G01X0031896Y-047322D02*
G01X0031784Y-047322D01*
G01X0031784Y-047322D02*
G01X0031746Y-047303D01*
G01X0031746Y-047303D02*
G01X0031728Y-047285D01*
G01X0032536Y-035893D02*
G01X0032554Y-035912D01*
G01X0032554Y-035912D02*
G01X0032573Y-035968D01*
G01X0032573Y-035968D02*
G01X0032573Y-036006D01*
G01X0032573Y-036006D02*
G01X0032554Y-036062D01*
G01X0032554Y-036062D02*
G01X0032517Y-036099D01*
G01X0032517Y-036099D02*
G01X0032479Y-036118D01*
G01X0032479Y-036118D02*
G01X0032404Y-036137D01*
G01X0032404Y-036137D02*
G01X0032348Y-036137D01*
G01X0032348Y-036137D02*
G01X0032273Y-036118D01*
G01X0032273Y-036118D02*
G01X0032236Y-036099D01*
G01X0032236Y-036099D02*
G01X0032198Y-036062D01*
G01X0032198Y-036062D02*
G01X0032179Y-036006D01*
G01X0032179Y-036006D02*
G01X0032179Y-035968D01*
G01X0032179Y-035968D02*
G01X0032198Y-035912D01*
G01X0032198Y-035912D02*
G01X0032217Y-035893D01*
G01X0032573Y-035518D02*
G01X0032573Y-035743D01*
G01X0032573Y-035631D02*
G01X0032179Y-035631D01*
G01X0032179Y-035631D02*
G01X0032236Y-035668D01*
G01X0032236Y-035668D02*
G01X0032273Y-035706D01*
G01X0032273Y-035706D02*
G01X0032292Y-035743D01*
G01X0032573Y-035143D02*
G01X0032573Y-035368D01*
G01X0032573Y-035256D02*
G01X0032179Y-035256D01*
G01X0032179Y-035256D02*
G01X0032236Y-035293D01*
G01X0032236Y-035293D02*
G01X0032273Y-035331D01*
G01X0032273Y-035331D02*
G01X0032292Y-035368D01*
G54D11*
G01X0038338Y-030007D02*
G01X0038338Y-030331D01*
G01X0038338Y-030331D02*
G01X0038357Y-030369D01*
G01X0038357Y-030369D02*
G01X0038376Y-030388D01*
G01X0038376Y-030388D02*
G01X0038414Y-030407D01*
G01X0038414Y-030407D02*
G01X0038490Y-030407D01*
G01X0038490Y-030407D02*
G01X0038528Y-030388D01*
G01X0038528Y-030388D02*
G01X0038547Y-030369D01*
G01X0038547Y-030369D02*
G01X0038566Y-030331D01*
G01X0038566Y-030331D02*
G01X0038566Y-030007D01*
G01X0038928Y-030140D02*
G01X0038928Y-030407D01*
G01X0038833Y-029988D02*
G01X0038738Y-030273D01*
G01X0038738Y-030273D02*
G01X0038985Y-030273D01*
G54D16*
G01X0047767Y-032722D02*
G01X0047636Y-032535D01*
G01X0047542Y-032722D02*
G01X0047542Y-032329D01*
G01X0047542Y-032329D02*
G01X0047692Y-032329D01*
G01X0047692Y-032329D02*
G01X0047729Y-032348D01*
G01X0047729Y-032348D02*
G01X0047748Y-032366D01*
G01X0047748Y-032366D02*
G01X0047767Y-032404D01*
G01X0047767Y-032404D02*
G01X0047767Y-032460D01*
G01X0047767Y-032460D02*
G01X0047748Y-032498D01*
G01X0047748Y-032498D02*
G01X0047729Y-032516D01*
G01X0047729Y-032516D02*
G01X0047692Y-032535D01*
G01X0047692Y-032535D02*
G01X0047542Y-032535D01*
G01X0048142Y-032722D02*
G01X0047917Y-032722D01*
G01X0048029Y-032722D02*
G01X0048029Y-032329D01*
G01X0048029Y-032329D02*
G01X0047992Y-032385D01*
G01X0047992Y-032385D02*
G01X0047954Y-032423D01*
G01X0047954Y-032423D02*
G01X0047917Y-032441D01*
G01X0048386Y-032329D02*
G01X0048423Y-032329D01*
G01X0048423Y-032329D02*
G01X0048461Y-032348D01*
G01X0048461Y-032348D02*
G01X0048479Y-032366D01*
G01X0048479Y-032366D02*
G01X0048498Y-032404D01*
G01X0048498Y-032404D02*
G01X0048517Y-032479D01*
G01X0048517Y-032479D02*
G01X0048517Y-032573D01*
G01X0048517Y-032573D02*
G01X0048498Y-032648D01*
G01X0048498Y-032648D02*
G01X0048479Y-032685D01*
G01X0048479Y-032685D02*
G01X0048461Y-032704D01*
G01X0048461Y-032704D02*
G01X0048423Y-032722D01*
G01X0048423Y-032722D02*
G01X0048386Y-032722D01*
G01X0048386Y-032722D02*
G01X0048348Y-032704D01*
G01X0048348Y-032704D02*
G01X0048329Y-032685D01*
G01X0048329Y-032685D02*
G01X0048311Y-032648D01*
G01X0048311Y-032648D02*
G01X0048292Y-032573D01*
G01X0048292Y-032573D02*
G01X0048292Y-032479D01*
G01X0048292Y-032479D02*
G01X0048311Y-032404D01*
G01X0048311Y-032404D02*
G01X0048329Y-032366D01*
G01X0048329Y-032366D02*
G01X0048348Y-032348D01*
G01X0048348Y-032348D02*
G01X0048386Y-032329D01*
G54D11*
G01X0037214Y-040861D02*
G01X0036814Y-040861D01*
G01X0036814Y-040861D02*
G01X0036814Y-040766D01*
G01X0036814Y-040766D02*
G01X0036833Y-040709D01*
G01X0036833Y-040709D02*
G01X0036871Y-040671D01*
G01X0036871Y-040671D02*
G01X0036909Y-040652D01*
G01X0036909Y-040652D02*
G01X0036985Y-040633D01*
G01X0036985Y-040633D02*
G01X0037043Y-040633D01*
G01X0037043Y-040633D02*
G01X0037119Y-040652D01*
G01X0037119Y-040652D02*
G01X0037157Y-040671D01*
G01X0037157Y-040671D02*
G01X0037195Y-040709D01*
G01X0037195Y-040709D02*
G01X0037214Y-040766D01*
G01X0037214Y-040766D02*
G01X0037214Y-040861D01*
G01X0036852Y-040480D02*
G01X0036833Y-040461D01*
G01X0036833Y-040461D02*
G01X0036814Y-040423D01*
G01X0036814Y-040423D02*
G01X0036814Y-040328D01*
G01X0036814Y-040328D02*
G01X0036833Y-040290D01*
G01X0036833Y-040290D02*
G01X0036852Y-040271D01*
G01X0036852Y-040271D02*
G01X0036890Y-040252D01*
G01X0036890Y-040252D02*
G01X0036928Y-040252D01*
G01X0036928Y-040252D02*
G01X0036985Y-040271D01*
G01X0036985Y-040271D02*
G01X0037214Y-040499D01*
G01X0037214Y-040499D02*
G01X0037214Y-040252D01*
G01X0037200Y-046556D02*
G01X0036800Y-046556D01*
G01X0036800Y-046556D02*
G01X0036800Y-046461D01*
G01X0036800Y-046461D02*
G01X0036819Y-046404D01*
G01X0036819Y-046404D02*
G01X0036857Y-046366D01*
G01X0036857Y-046366D02*
G01X0036895Y-046347D01*
G01X0036895Y-046347D02*
G01X0036971Y-046328D01*
G01X0036971Y-046328D02*
G01X0037029Y-046328D01*
G01X0037029Y-046328D02*
G01X0037105Y-046347D01*
G01X0037105Y-046347D02*
G01X0037143Y-046366D01*
G01X0037143Y-046366D02*
G01X0037181Y-046404D01*
G01X0037181Y-046404D02*
G01X0037200Y-046461D01*
G01X0037200Y-046461D02*
G01X0037200Y-046556D01*
G01X0037200Y-045947D02*
G01X0037200Y-046175D01*
G01X0037200Y-046061D02*
G01X0036800Y-046061D01*
G01X0036800Y-046061D02*
G01X0036857Y-046099D01*
G01X0036857Y-046099D02*
G01X0036895Y-046137D01*
G01X0036895Y-046137D02*
G01X0036914Y-046175D01*
G54D16*
G01X0029046Y-036010D02*
G01X0029027Y-036028D01*
G01X0029027Y-036028D02*
G01X0028971Y-036047D01*
G01X0028971Y-036047D02*
G01X0028933Y-036047D01*
G01X0028933Y-036047D02*
G01X0028877Y-036028D01*
G01X0028877Y-036028D02*
G01X0028840Y-035991D01*
G01X0028840Y-035991D02*
G01X0028821Y-035953D01*
G01X0028821Y-035953D02*
G01X0028802Y-035878D01*
G01X0028802Y-035878D02*
G01X0028802Y-035822D01*
G01X0028802Y-035822D02*
G01X0028821Y-035747D01*
G01X0028821Y-035747D02*
G01X0028840Y-035710D01*
G01X0028840Y-035710D02*
G01X0028877Y-035672D01*
G01X0028877Y-035672D02*
G01X0028933Y-035653D01*
G01X0028933Y-035653D02*
G01X0028971Y-035653D01*
G01X0028971Y-035653D02*
G01X0029027Y-035672D01*
G01X0029027Y-035672D02*
G01X0029046Y-035691D01*
G01X0029421Y-036047D02*
G01X0029196Y-036047D01*
G01X0029308Y-036047D02*
G01X0029308Y-035653D01*
G01X0029308Y-035653D02*
G01X0029271Y-035710D01*
G01X0029271Y-035710D02*
G01X0029233Y-035747D01*
G01X0029233Y-035747D02*
G01X0029196Y-035766D01*
G01X0029758Y-035653D02*
G01X0029683Y-035653D01*
G01X0029683Y-035653D02*
G01X0029646Y-035672D01*
G01X0029646Y-035672D02*
G01X0029627Y-035691D01*
G01X0029627Y-035691D02*
G01X0029590Y-035747D01*
G01X0029590Y-035747D02*
G01X0029571Y-035822D01*
G01X0029571Y-035822D02*
G01X0029571Y-035972D01*
G01X0029571Y-035972D02*
G01X0029590Y-036010D01*
G01X0029590Y-036010D02*
G01X0029608Y-036028D01*
G01X0029608Y-036028D02*
G01X0029646Y-036047D01*
G01X0029646Y-036047D02*
G01X0029721Y-036047D01*
G01X0029721Y-036047D02*
G01X0029758Y-036028D01*
G01X0029758Y-036028D02*
G01X0029777Y-036010D01*
G01X0029777Y-036010D02*
G01X0029796Y-035972D01*
G01X0029796Y-035972D02*
G01X0029796Y-035878D01*
G01X0029796Y-035878D02*
G01X0029777Y-035841D01*
G01X0029777Y-035841D02*
G01X0029758Y-035822D01*
G01X0029758Y-035822D02*
G01X0029721Y-035803D01*
G01X0029721Y-035803D02*
G01X0029646Y-035803D01*
G01X0029646Y-035803D02*
G01X0029608Y-035822D01*
G01X0029608Y-035822D02*
G01X0029590Y-035841D01*
G01X0029590Y-035841D02*
G01X0029571Y-035878D01*
G01X0028447Y-030500D02*
G01X0028428Y-030518D01*
G01X0028428Y-030518D02*
G01X0028372Y-030537D01*
G01X0028372Y-030537D02*
G01X0028334Y-030537D01*
G01X0028334Y-030537D02*
G01X0028278Y-030518D01*
G01X0028278Y-030518D02*
G01X0028241Y-030481D01*
G01X0028241Y-030481D02*
G01X0028222Y-030443D01*
G01X0028222Y-030443D02*
G01X0028203Y-030368D01*
G01X0028203Y-030368D02*
G01X0028203Y-030312D01*
G01X0028203Y-030312D02*
G01X0028222Y-030237D01*
G01X0028222Y-030237D02*
G01X0028241Y-030200D01*
G01X0028241Y-030200D02*
G01X0028278Y-030162D01*
G01X0028278Y-030162D02*
G01X0028334Y-030143D01*
G01X0028334Y-030143D02*
G01X0028372Y-030143D01*
G01X0028372Y-030143D02*
G01X0028428Y-030162D01*
G01X0028428Y-030162D02*
G01X0028447Y-030181D01*
G01X0028822Y-030537D02*
G01X0028597Y-030537D01*
G01X0028709Y-030537D02*
G01X0028709Y-030143D01*
G01X0028709Y-030143D02*
G01X0028672Y-030200D01*
G01X0028672Y-030200D02*
G01X0028634Y-030237D01*
G01X0028634Y-030237D02*
G01X0028597Y-030256D01*
G01X0028953Y-030143D02*
G01X0029197Y-030143D01*
G01X0029197Y-030143D02*
G01X0029066Y-030293D01*
G01X0029066Y-030293D02*
G01X0029122Y-030293D01*
G01X0029122Y-030293D02*
G01X0029159Y-030312D01*
G01X0029159Y-030312D02*
G01X0029178Y-030331D01*
G01X0029178Y-030331D02*
G01X0029197Y-030368D01*
G01X0029197Y-030368D02*
G01X0029197Y-030462D01*
G01X0029197Y-030462D02*
G01X0029178Y-030500D01*
G01X0029178Y-030500D02*
G01X0029159Y-030518D01*
G01X0029159Y-030518D02*
G01X0029122Y-030537D01*
G01X0029122Y-030537D02*
G01X0029009Y-030537D01*
G01X0029009Y-030537D02*
G01X0028972Y-030518D01*
G01X0028972Y-030518D02*
G01X0028953Y-030500D01*
G01X0043154Y-025939D02*
G01X0043136Y-025957D01*
G01X0043136Y-025957D02*
G01X0043079Y-025976D01*
G01X0043079Y-025976D02*
G01X0043042Y-025976D01*
G01X0043042Y-025976D02*
G01X0042986Y-025957D01*
G01X0042986Y-025957D02*
G01X0042948Y-025920D01*
G01X0042948Y-025920D02*
G01X0042929Y-025882D01*
G01X0042929Y-025882D02*
G01X0042911Y-025807D01*
G01X0042911Y-025807D02*
G01X0042911Y-025751D01*
G01X0042911Y-025751D02*
G01X0042929Y-025676D01*
G01X0042929Y-025676D02*
G01X0042948Y-025639D01*
G01X0042948Y-025639D02*
G01X0042986Y-025601D01*
G01X0042986Y-025601D02*
G01X0043042Y-025582D01*
G01X0043042Y-025582D02*
G01X0043079Y-025582D01*
G01X0043079Y-025582D02*
G01X0043136Y-025601D01*
G01X0043136Y-025601D02*
G01X0043154Y-025620D01*
G01X0043342Y-025976D02*
G01X0043417Y-025976D01*
G01X0043417Y-025976D02*
G01X0043454Y-025957D01*
G01X0043454Y-025957D02*
G01X0043473Y-025939D01*
G01X0043473Y-025939D02*
G01X0043511Y-025882D01*
G01X0043511Y-025882D02*
G01X0043529Y-025807D01*
G01X0043529Y-025807D02*
G01X0043529Y-025657D01*
G01X0043529Y-025657D02*
G01X0043511Y-025620D01*
G01X0043511Y-025620D02*
G01X0043492Y-025601D01*
G01X0043492Y-025601D02*
G01X0043454Y-025582D01*
G01X0043454Y-025582D02*
G01X0043379Y-025582D01*
G01X0043379Y-025582D02*
G01X0043342Y-025601D01*
G01X0043342Y-025601D02*
G01X0043323Y-025620D01*
G01X0043323Y-025620D02*
G01X0043304Y-025657D01*
G01X0043304Y-025657D02*
G01X0043304Y-025751D01*
G01X0043304Y-025751D02*
G01X0043323Y-025789D01*
G01X0043323Y-025789D02*
G01X0043342Y-025807D01*
G01X0043342Y-025807D02*
G01X0043379Y-025826D01*
G01X0043379Y-025826D02*
G01X0043454Y-025826D01*
G01X0043454Y-025826D02*
G01X0043492Y-025807D01*
G01X0043492Y-025807D02*
G01X0043511Y-025789D01*
G01X0043511Y-025789D02*
G01X0043529Y-025751D01*
G01X0044179Y-032699D02*
G01X0044161Y-032718D01*
G01X0044161Y-032718D02*
G01X0044104Y-032737D01*
G01X0044104Y-032737D02*
G01X0044067Y-032737D01*
G01X0044067Y-032737D02*
G01X0044011Y-032718D01*
G01X0044011Y-032718D02*
G01X0043973Y-032680D01*
G01X0043973Y-032680D02*
G01X0043954Y-032643D01*
G01X0043954Y-032643D02*
G01X0043936Y-032568D01*
G01X0043936Y-032568D02*
G01X0043936Y-032512D01*
G01X0043936Y-032512D02*
G01X0043954Y-032437D01*
G01X0043954Y-032437D02*
G01X0043973Y-032399D01*
G01X0043973Y-032399D02*
G01X0044011Y-032362D01*
G01X0044011Y-032362D02*
G01X0044067Y-032343D01*
G01X0044067Y-032343D02*
G01X0044104Y-032343D01*
G01X0044104Y-032343D02*
G01X0044161Y-032362D01*
G01X0044161Y-032362D02*
G01X0044179Y-032380D01*
G01X0044311Y-032343D02*
G01X0044573Y-032343D01*
G01X0044573Y-032343D02*
G01X0044404Y-032737D01*
G01X0029143Y-027553D02*
G01X0029124Y-027571D01*
G01X0029124Y-027571D02*
G01X0029068Y-027590D01*
G01X0029068Y-027590D02*
G01X0029030Y-027590D01*
G01X0029030Y-027590D02*
G01X0028974Y-027571D01*
G01X0028974Y-027571D02*
G01X0028937Y-027534D01*
G01X0028937Y-027534D02*
G01X0028918Y-027496D01*
G01X0028918Y-027496D02*
G01X0028899Y-027421D01*
G01X0028899Y-027421D02*
G01X0028899Y-027365D01*
G01X0028899Y-027365D02*
G01X0028918Y-027290D01*
G01X0028918Y-027290D02*
G01X0028937Y-027253D01*
G01X0028937Y-027253D02*
G01X0028974Y-027215D01*
G01X0028974Y-027215D02*
G01X0029030Y-027196D01*
G01X0029030Y-027196D02*
G01X0029068Y-027196D01*
G01X0029068Y-027196D02*
G01X0029124Y-027215D01*
G01X0029124Y-027215D02*
G01X0029143Y-027234D01*
G01X0029274Y-027196D02*
G01X0029518Y-027196D01*
G01X0029518Y-027196D02*
G01X0029387Y-027346D01*
G01X0029387Y-027346D02*
G01X0029443Y-027346D01*
G01X0029443Y-027346D02*
G01X0029480Y-027365D01*
G01X0029480Y-027365D02*
G01X0029499Y-027384D01*
G01X0029499Y-027384D02*
G01X0029518Y-027421D01*
G01X0029518Y-027421D02*
G01X0029518Y-027515D01*
G01X0029518Y-027515D02*
G01X0029499Y-027553D01*
G01X0029499Y-027553D02*
G01X0029480Y-027571D01*
G01X0029480Y-027571D02*
G01X0029443Y-027590D01*
G01X0029443Y-027590D02*
G01X0029330Y-027590D01*
G01X0029330Y-027590D02*
G01X0029293Y-027571D01*
G01X0029293Y-027571D02*
G01X0029274Y-027553D01*
G01X0029158Y-021335D02*
G01X0029140Y-021353D01*
G01X0029140Y-021353D02*
G01X0029083Y-021372D01*
G01X0029083Y-021372D02*
G01X0029046Y-021372D01*
G01X0029046Y-021372D02*
G01X0028990Y-021353D01*
G01X0028990Y-021353D02*
G01X0028952Y-021316D01*
G01X0028952Y-021316D02*
G01X0028933Y-021278D01*
G01X0028933Y-021278D02*
G01X0028915Y-021203D01*
G01X0028915Y-021203D02*
G01X0028915Y-021147D01*
G01X0028915Y-021147D02*
G01X0028933Y-021072D01*
G01X0028933Y-021072D02*
G01X0028952Y-021035D01*
G01X0028952Y-021035D02*
G01X0028990Y-020997D01*
G01X0028990Y-020997D02*
G01X0029046Y-020978D01*
G01X0029046Y-020978D02*
G01X0029083Y-020978D01*
G01X0029083Y-020978D02*
G01X0029140Y-020997D01*
G01X0029140Y-020997D02*
G01X0029158Y-021016D01*
G01X0029308Y-021016D02*
G01X0029327Y-020997D01*
G01X0029327Y-020997D02*
G01X0029365Y-020978D01*
G01X0029365Y-020978D02*
G01X0029458Y-020978D01*
G01X0029458Y-020978D02*
G01X0029496Y-020997D01*
G01X0029496Y-020997D02*
G01X0029515Y-021016D01*
G01X0029515Y-021016D02*
G01X0029533Y-021053D01*
G01X0029533Y-021053D02*
G01X0029533Y-021091D01*
G01X0029533Y-021091D02*
G01X0029515Y-021147D01*
G01X0029515Y-021147D02*
G01X0029290Y-021372D01*
G01X0029290Y-021372D02*
G01X0029533Y-021372D01*
G01X0028861Y-038831D02*
G01X0028879Y-038849D01*
G01X0028879Y-038849D02*
G01X0028898Y-038906D01*
G01X0028898Y-038906D02*
G01X0028898Y-038943D01*
G01X0028898Y-038943D02*
G01X0028879Y-038999D01*
G01X0028879Y-038999D02*
G01X0028842Y-039037D01*
G01X0028842Y-039037D02*
G01X0028804Y-039056D01*
G01X0028804Y-039056D02*
G01X0028729Y-039074D01*
G01X0028729Y-039074D02*
G01X0028673Y-039074D01*
G01X0028673Y-039074D02*
G01X0028598Y-039056D01*
G01X0028598Y-039056D02*
G01X0028561Y-039037D01*
G01X0028561Y-039037D02*
G01X0028523Y-038999D01*
G01X0028523Y-038999D02*
G01X0028504Y-038943D01*
G01X0028504Y-038943D02*
G01X0028504Y-038906D01*
G01X0028504Y-038906D02*
G01X0028523Y-038849D01*
G01X0028523Y-038849D02*
G01X0028542Y-038831D01*
G01X0028898Y-038456D02*
G01X0028898Y-038681D01*
G01X0028898Y-038568D02*
G01X0028504Y-038568D01*
G01X0028504Y-038568D02*
G01X0028561Y-038606D01*
G01X0028561Y-038606D02*
G01X0028598Y-038643D01*
G01X0028598Y-038643D02*
G01X0028617Y-038681D01*
G01X0028524Y-043821D02*
G01X0028524Y-044102D01*
G01X0028524Y-044102D02*
G01X0028505Y-044158D01*
G01X0028505Y-044158D02*
G01X0028467Y-044196D01*
G01X0028467Y-044196D02*
G01X0028411Y-044214D01*
G01X0028411Y-044214D02*
G01X0028374Y-044214D01*
G01X0028917Y-044214D02*
G01X0028692Y-044214D01*
G01X0028805Y-044214D02*
G01X0028805Y-043821D01*
G01X0028805Y-043821D02*
G01X0028767Y-043877D01*
G01X0028767Y-043877D02*
G01X0028730Y-043914D01*
G01X0028730Y-043914D02*
G01X0028692Y-043933D01*
G01X0039839Y-046478D02*
G01X0039839Y-046760D01*
G01X0039839Y-046760D02*
G01X0039820Y-046816D01*
G01X0039820Y-046816D02*
G01X0039783Y-046853D01*
G01X0039783Y-046853D02*
G01X0039726Y-046872D01*
G01X0039726Y-046872D02*
G01X0039689Y-046872D01*
G01X0040195Y-046610D02*
G01X0040195Y-046872D01*
G01X0040101Y-046460D02*
G01X0040007Y-046741D01*
G01X0040007Y-046741D02*
G01X0040251Y-046741D01*
G01X0046476Y-026421D02*
G01X0046476Y-026703D01*
G01X0046476Y-026703D02*
G01X0046457Y-026759D01*
G01X0046457Y-026759D02*
G01X0046420Y-026796D01*
G01X0046420Y-026796D02*
G01X0046363Y-026815D01*
G01X0046363Y-026815D02*
G01X0046326Y-026815D01*
G01X0046626Y-026421D02*
G01X0046869Y-026421D01*
G01X0046869Y-026421D02*
G01X0046738Y-026571D01*
G01X0046738Y-026571D02*
G01X0046794Y-026571D01*
G01X0046794Y-026571D02*
G01X0046832Y-026590D01*
G01X0046832Y-026590D02*
G01X0046851Y-026609D01*
G01X0046851Y-026609D02*
G01X0046869Y-026646D01*
G01X0046869Y-026646D02*
G01X0046869Y-026740D01*
G01X0046869Y-026740D02*
G01X0046851Y-026778D01*
G01X0046851Y-026778D02*
G01X0046832Y-026796D01*
G01X0046832Y-026796D02*
G01X0046794Y-026815D01*
G01X0046794Y-026815D02*
G01X0046682Y-026815D01*
G01X0046682Y-026815D02*
G01X0046644Y-026796D01*
G01X0046644Y-026796D02*
G01X0046626Y-026778D01*
G54D11*
G01X0046157Y-045984D02*
G01X0046214Y-046003D01*
G01X0046214Y-046003D02*
G01X0046233Y-046022D01*
G01X0046233Y-046022D02*
G01X0046252Y-046060D01*
G01X0046252Y-046060D02*
G01X0046252Y-046117D01*
G01X0046252Y-046117D02*
G01X0046233Y-046155D01*
G01X0046233Y-046155D02*
G01X0046214Y-046174D01*
G01X0046214Y-046174D02*
G01X0046176Y-046193D01*
G01X0046176Y-046193D02*
G01X0046024Y-046193D01*
G01X0046024Y-046193D02*
G01X0046024Y-045793D01*
G01X0046024Y-045793D02*
G01X0046157Y-045793D01*
G01X0046157Y-045793D02*
G01X0046195Y-045812D01*
G01X0046195Y-045812D02*
G01X0046214Y-045831D01*
G01X0046214Y-045831D02*
G01X0046233Y-045869D01*
G01X0046233Y-045869D02*
G01X0046233Y-045907D01*
G01X0046233Y-045907D02*
G01X0046214Y-045945D01*
G01X0046214Y-045945D02*
G01X0046195Y-045964D01*
G01X0046195Y-045964D02*
G01X0046157Y-045984D01*
G01X0046157Y-045984D02*
G01X0046024Y-045984D01*
G01X0046424Y-046193D02*
G01X0046424Y-045793D01*
G01X0046424Y-045793D02*
G01X0046652Y-046193D01*
G01X0046652Y-046193D02*
G01X0046652Y-045793D01*
G01X0047072Y-046155D02*
G01X0047052Y-046174D01*
G01X0047052Y-046174D02*
G01X0046995Y-046193D01*
G01X0046995Y-046193D02*
G01X0046957Y-046193D01*
G01X0046957Y-046193D02*
G01X0046900Y-046174D01*
G01X0046900Y-046174D02*
G01X0046862Y-046136D01*
G01X0046862Y-046136D02*
G01X0046843Y-046098D01*
G01X0046843Y-046098D02*
G01X0046824Y-046022D01*
G01X0046824Y-046022D02*
G01X0046824Y-045964D01*
G01X0046824Y-045964D02*
G01X0046843Y-045888D01*
G01X0046843Y-045888D02*
G01X0046862Y-045850D01*
G01X0046862Y-045850D02*
G01X0046900Y-045812D01*
G01X0046900Y-045812D02*
G01X0046957Y-045793D01*
G01X0046957Y-045793D02*
G01X0046995Y-045793D01*
G01X0046995Y-045793D02*
G01X0047052Y-045812D01*
G01X0047052Y-045812D02*
G01X0047072Y-045831D01*
G01X0047452Y-046193D02*
G01X0047224Y-046193D01*
G01X0047338Y-046193D02*
G01X0047338Y-045793D01*
G01X0047338Y-045793D02*
G01X0047300Y-045850D01*
G01X0047300Y-045850D02*
G01X0047262Y-045888D01*
G01X0047262Y-045888D02*
G01X0047224Y-045907D01*
G01X0046147Y-020491D02*
G01X0046204Y-020510D01*
G01X0046204Y-020510D02*
G01X0046223Y-020529D01*
G01X0046223Y-020529D02*
G01X0046242Y-020567D01*
G01X0046242Y-020567D02*
G01X0046242Y-020624D01*
G01X0046242Y-020624D02*
G01X0046223Y-020662D01*
G01X0046223Y-020662D02*
G01X0046204Y-020681D01*
G01X0046204Y-020681D02*
G01X0046166Y-020700D01*
G01X0046166Y-020700D02*
G01X0046014Y-020700D01*
G01X0046014Y-020700D02*
G01X0046014Y-020300D01*
G01X0046014Y-020300D02*
G01X0046147Y-020300D01*
G01X0046147Y-020300D02*
G01X0046185Y-020319D01*
G01X0046185Y-020319D02*
G01X0046204Y-020338D01*
G01X0046204Y-020338D02*
G01X0046223Y-020376D01*
G01X0046223Y-020376D02*
G01X0046223Y-020414D01*
G01X0046223Y-020414D02*
G01X0046204Y-020452D01*
G01X0046204Y-020452D02*
G01X0046185Y-020471D01*
G01X0046185Y-020471D02*
G01X0046147Y-020491D01*
G01X0046147Y-020491D02*
G01X0046014Y-020491D01*
G01X0046414Y-020700D02*
G01X0046414Y-020300D01*
G01X0046414Y-020300D02*
G01X0046642Y-020700D01*
G01X0046642Y-020700D02*
G01X0046642Y-020300D01*
G01X0047062Y-020662D02*
G01X0047042Y-020681D01*
G01X0047042Y-020681D02*
G01X0046985Y-020700D01*
G01X0046985Y-020700D02*
G01X0046947Y-020700D01*
G01X0046947Y-020700D02*
G01X0046890Y-020681D01*
G01X0046890Y-020681D02*
G01X0046852Y-020643D01*
G01X0046852Y-020643D02*
G01X0046833Y-020605D01*
G01X0046833Y-020605D02*
G01X0046814Y-020529D01*
G01X0046814Y-020529D02*
G01X0046814Y-020471D01*
G01X0046814Y-020471D02*
G01X0046833Y-020395D01*
G01X0046833Y-020395D02*
G01X0046852Y-020357D01*
G01X0046852Y-020357D02*
G01X0046890Y-020319D01*
G01X0046890Y-020319D02*
G01X0046947Y-020300D01*
G01X0046947Y-020300D02*
G01X0046985Y-020300D01*
G01X0046985Y-020300D02*
G01X0047042Y-020319D01*
G01X0047042Y-020319D02*
G01X0047062Y-020338D01*
G01X0047214Y-020338D02*
G01X0047233Y-020319D01*
G01X0047233Y-020319D02*
G01X0047271Y-020300D01*
G01X0047271Y-020300D02*
G01X0047366Y-020300D01*
G01X0047366Y-020300D02*
G01X0047404Y-020319D01*
G01X0047404Y-020319D02*
G01X0047423Y-020338D01*
G01X0047423Y-020338D02*
G01X0047442Y-020376D01*
G01X0047442Y-020376D02*
G01X0047442Y-020414D01*
G01X0047442Y-020414D02*
G01X0047423Y-020471D01*
G01X0047423Y-020471D02*
G01X0047195Y-020700D01*
G01X0047195Y-020700D02*
G01X0047442Y-020700D01*
G01X0046157Y-039284D02*
G01X0046214Y-039303D01*
G01X0046214Y-039303D02*
G01X0046233Y-039322D01*
G01X0046233Y-039322D02*
G01X0046252Y-039360D01*
G01X0046252Y-039360D02*
G01X0046252Y-039417D01*
G01X0046252Y-039417D02*
G01X0046233Y-039455D01*
G01X0046233Y-039455D02*
G01X0046214Y-039474D01*
G01X0046214Y-039474D02*
G01X0046176Y-039493D01*
G01X0046176Y-039493D02*
G01X0046024Y-039493D01*
G01X0046024Y-039493D02*
G01X0046024Y-039093D01*
G01X0046024Y-039093D02*
G01X0046157Y-039093D01*
G01X0046157Y-039093D02*
G01X0046195Y-039112D01*
G01X0046195Y-039112D02*
G01X0046214Y-039131D01*
G01X0046214Y-039131D02*
G01X0046233Y-039169D01*
G01X0046233Y-039169D02*
G01X0046233Y-039207D01*
G01X0046233Y-039207D02*
G01X0046214Y-039245D01*
G01X0046214Y-039245D02*
G01X0046195Y-039264D01*
G01X0046195Y-039264D02*
G01X0046157Y-039284D01*
G01X0046157Y-039284D02*
G01X0046024Y-039284D01*
G01X0046424Y-039493D02*
G01X0046424Y-039093D01*
G01X0046424Y-039093D02*
G01X0046652Y-039493D01*
G01X0046652Y-039493D02*
G01X0046652Y-039093D01*
G01X0047072Y-039455D02*
G01X0047052Y-039474D01*
G01X0047052Y-039474D02*
G01X0046995Y-039493D01*
G01X0046995Y-039493D02*
G01X0046957Y-039493D01*
G01X0046957Y-039493D02*
G01X0046900Y-039474D01*
G01X0046900Y-039474D02*
G01X0046862Y-039436D01*
G01X0046862Y-039436D02*
G01X0046843Y-039398D01*
G01X0046843Y-039398D02*
G01X0046824Y-039322D01*
G01X0046824Y-039322D02*
G01X0046824Y-039264D01*
G01X0046824Y-039264D02*
G01X0046843Y-039188D01*
G01X0046843Y-039188D02*
G01X0046862Y-039150D01*
G01X0046862Y-039150D02*
G01X0046900Y-039112D01*
G01X0046900Y-039112D02*
G01X0046957Y-039093D01*
G01X0046957Y-039093D02*
G01X0046995Y-039093D01*
G01X0046995Y-039093D02*
G01X0047052Y-039112D01*
G01X0047052Y-039112D02*
G01X0047072Y-039131D01*
G01X0047205Y-039093D02*
G01X0047452Y-039093D01*
G01X0047452Y-039093D02*
G01X0047319Y-039245D01*
G01X0047319Y-039245D02*
G01X0047376Y-039245D01*
G01X0047376Y-039245D02*
G01X0047414Y-039264D01*
G01X0047414Y-039264D02*
G01X0047433Y-039284D01*
G01X0047433Y-039284D02*
G01X0047452Y-039322D01*
G01X0047452Y-039322D02*
G01X0047452Y-039417D01*
G01X0047452Y-039417D02*
G01X0047433Y-039455D01*
G01X0047433Y-039455D02*
G01X0047414Y-039474D01*
G01X0047414Y-039474D02*
G01X0047376Y-039493D01*
G01X0047376Y-039493D02*
G01X0047262Y-039493D01*
G01X0047262Y-039493D02*
G01X0047224Y-039474D01*
G01X0047224Y-039474D02*
G01X0047205Y-039455D01*
G54D16*
G01X0040345Y-038128D02*
G01X0040345Y-038447D01*
G01X0040345Y-038447D02*
G01X0040364Y-038485D01*
G01X0040364Y-038485D02*
G01X0040383Y-038503D01*
G01X0040383Y-038503D02*
G01X0040420Y-038522D01*
G01X0040420Y-038522D02*
G01X0040495Y-038522D01*
G01X0040495Y-038522D02*
G01X0040533Y-038503D01*
G01X0040533Y-038503D02*
G01X0040551Y-038485D01*
G01X0040551Y-038485D02*
G01X0040570Y-038447D01*
G01X0040570Y-038447D02*
G01X0040570Y-038128D01*
G01X0040964Y-038522D02*
G01X0040739Y-038522D01*
G01X0040851Y-038522D02*
G01X0040851Y-038128D01*
G01X0040851Y-038128D02*
G01X0040814Y-038185D01*
G01X0040814Y-038185D02*
G01X0040776Y-038222D01*
G01X0040776Y-038222D02*
G01X0040739Y-038241D01*
G01X0029100Y-025600D02*
G01X0029081Y-025618D01*
G01X0029081Y-025618D02*
G01X0029025Y-025637D01*
G01X0029025Y-025637D02*
G01X0028987Y-025637D01*
G01X0028987Y-025637D02*
G01X0028931Y-025618D01*
G01X0028931Y-025618D02*
G01X0028894Y-025581D01*
G01X0028894Y-025581D02*
G01X0028875Y-025543D01*
G01X0028875Y-025543D02*
G01X0028856Y-025468D01*
G01X0028856Y-025468D02*
G01X0028856Y-025412D01*
G01X0028856Y-025412D02*
G01X0028875Y-025337D01*
G01X0028875Y-025337D02*
G01X0028894Y-025300D01*
G01X0028894Y-025300D02*
G01X0028931Y-025262D01*
G01X0028931Y-025262D02*
G01X0028987Y-025243D01*
G01X0028987Y-025243D02*
G01X0029025Y-025243D01*
G01X0029025Y-025243D02*
G01X0029081Y-025262D01*
G01X0029081Y-025262D02*
G01X0029100Y-025281D01*
G01X0029475Y-025637D02*
G01X0029250Y-025637D01*
G01X0029362Y-025637D02*
G01X0029362Y-025243D01*
G01X0029362Y-025243D02*
G01X0029325Y-025300D01*
G01X0029325Y-025300D02*
G01X0029287Y-025337D01*
G01X0029287Y-025337D02*
G01X0029250Y-025356D01*
G01X0029812Y-025375D02*
G01X0029812Y-025637D01*
G01X0029718Y-025225D02*
G01X0029625Y-025506D01*
G01X0029625Y-025506D02*
G01X0029868Y-025506D01*
G01X0044134Y-035350D02*
G01X0044115Y-035368D01*
G01X0044115Y-035368D02*
G01X0044059Y-035387D01*
G01X0044059Y-035387D02*
G01X0044022Y-035387D01*
G01X0044022Y-035387D02*
G01X0043965Y-035368D01*
G01X0043965Y-035368D02*
G01X0043928Y-035331D01*
G01X0043928Y-035331D02*
G01X0043909Y-035293D01*
G01X0043909Y-035293D02*
G01X0043890Y-035218D01*
G01X0043890Y-035218D02*
G01X0043890Y-035162D01*
G01X0043890Y-035162D02*
G01X0043909Y-035087D01*
G01X0043909Y-035087D02*
G01X0043928Y-035050D01*
G01X0043928Y-035050D02*
G01X0043965Y-035012D01*
G01X0043965Y-035012D02*
G01X0044022Y-034993D01*
G01X0044022Y-034993D02*
G01X0044059Y-034993D01*
G01X0044059Y-034993D02*
G01X0044115Y-035012D01*
G01X0044115Y-035012D02*
G01X0044134Y-035031D01*
G01X0044509Y-035387D02*
G01X0044284Y-035387D01*
G01X0044396Y-035387D02*
G01X0044396Y-034993D01*
G01X0044396Y-034993D02*
G01X0044359Y-035050D01*
G01X0044359Y-035050D02*
G01X0044322Y-035087D01*
G01X0044322Y-035087D02*
G01X0044284Y-035106D01*
G01X0044865Y-034993D02*
G01X0044678Y-034993D01*
G01X0044678Y-034993D02*
G01X0044659Y-035181D01*
G01X0044659Y-035181D02*
G01X0044678Y-035162D01*
G01X0044678Y-035162D02*
G01X0044715Y-035143D01*
G01X0044715Y-035143D02*
G01X0044809Y-035143D01*
G01X0044809Y-035143D02*
G01X0044846Y-035162D01*
G01X0044846Y-035162D02*
G01X0044865Y-035181D01*
G01X0044865Y-035181D02*
G01X0044884Y-035218D01*
G01X0044884Y-035218D02*
G01X0044884Y-035312D01*
G01X0044884Y-035312D02*
G01X0044865Y-035350D01*
G01X0044865Y-035350D02*
G01X0044846Y-035368D01*
G01X0044846Y-035368D02*
G01X0044809Y-035387D01*
G01X0044809Y-035387D02*
G01X0044715Y-035387D01*
G01X0044715Y-035387D02*
G01X0044678Y-035368D01*
G01X0044678Y-035368D02*
G01X0044659Y-035350D01*
G01X0000000Y0000000D02*
G54D11*
G01X0048520Y-017194D02*
G01X0049020Y-017194D01*
G01X0027020Y-017194D02*
G01X0048520Y-017194D01*
G01X0027020Y-049194D02*
G01X0027020Y-017194D01*
G01X0049020Y-049194D02*
G01X0027020Y-049194D01*
G01X0049020Y-017194D02*
G01X0049020Y-049194D01*
M02*
